# WaveFront *.obj file (generated by Autodesk ATF)

mtllib 4642276c-d4bd-4403-944c-0fcf0bb8d546.mtl

g Body1

v -21.883648 12.634530 120.819060
v -21.217622 12.634530 121.203590
v -21.217622 13.534530 121.434530
v -22.083648 13.534530 120.934530
v -21.217622 13.534530 119.434530
v -20.351597 13.534530 119.934530
v -20.551597 12.634530 120.050000
v -21.217622 12.634530 119.665470
v -20.551597 12.634530 120.819060
v -20.351597 13.534530 120.934530
v -22.083648 13.534530 119.934530
v -21.883648 12.634530 120.050000
v -20.351597 14.034530 120.934530
v -21.217622 14.034530 121.434530
v -20.351597 14.034530 119.934530
v -21.217622 14.034530 119.434530
v -21.783648 14.634530 120.761325
v -21.783648 14.634530 120.107735
v -22.083648 14.034530 119.934530
v -22.083648 14.034530 120.934530
v -21.217622 14.634530 119.780940
v -20.651597 14.634530 120.107735
v -20.651597 14.634530 120.761325
v -21.217622 14.634530 121.088120
vt -0.038420 0.028807 0.000000
vt -0.065470 -0.043185 0.000000
vt 0.051945 0.007189 0.000000
vt 0.016773 -0.086421 0.000000
vt -0.016773 0.086421 0.000000
vt -0.051945 -0.007189 0.000000
vt 0.065470 0.043185 0.000000
vt 0.038420 -0.028807 0.000000
vt 0.020834 0.075612 0.000000
vt -0.069532 0.053994 0.000000
vt 0.047884 0.003620 0.000000
vt -0.034359 -0.039616 0.000000
vt -0.046098 0.075000 0.000000
vt -0.046098 -0.025000 0.000000
vt 0.046098 0.063453 0.000000
vt 0.046098 -0.013453 0.000000
vt 0.034359 0.039616 0.000000
vt -0.047884 -0.003620 0.000000
vt 0.069532 -0.053994 0.000000
vt -0.020834 -0.075612 0.000000
vt 0.046098 0.025000 0.000000
vt -0.046098 0.013453 0.000000
vt 0.046098 -0.075000 0.000000
vt -0.046098 -0.063453 0.000000
vt -0.000000 0.090000 0.000000
vt 0.100000 0.090000 0.000000
vt 0.000000 0.140000 0.000000
vt 0.100000 0.140000 0.000000
vt -0.000000 0.090000 0.000000
vt 0.100000 0.090000 0.000000
vt -0.000000 0.140000 0.000000
vt 0.100000 0.140000 0.000000
vt 0.000000 0.090000 0.000000
vt 0.100000 0.090000 0.000000
vt -0.000000 0.140000 0.000000
vt 0.100000 0.140000 0.000000
vt -0.066603 0.038453 0.000000
vt -0.000000 -0.076906 0.000000
vt -0.000000 0.076906 0.000000
vt 0.066603 -0.038453 0.000000
vt 0.066603 0.038453 0.000000
vt -0.066603 -0.038453 0.000000
vt 0.033541 -0.057679 0.000000
vt 0.033541 0.007679 0.000000
vt -0.033541 -0.075000 0.000000
vt -0.033541 0.025000 0.000000
vt 0.031219 -0.014468 0.000000
vt -0.011207 0.040304 0.000000
vt -0.008805 -0.066139 0.000000
vt -0.072444 -0.038753 0.000000
vt -0.061838 0.025060 0.000000
vt -0.021814 -0.026611 0.000000
vt -0.019411 0.079832 0.000000
vt 0.041826 0.000775 0.000000
vt -0.033541 -0.007679 0.000000
vt 0.033541 -0.025000 0.000000
vt -0.033541 0.057679 0.000000
vt 0.033541 0.075000 0.000000
vt 0.072444 0.038753 0.000000
vt 0.008805 0.066139 0.000000
vt 0.011207 -0.040304 0.000000
vt -0.031219 0.014468 0.000000
vt -0.041826 -0.000775 0.000000
vt 0.019411 -0.079832 0.000000
vt 0.021814 0.026611 0.000000
vt 0.061838 -0.025060 0.000000
vt -0.000000 0.090000 0.000000
vt 0.100000 0.090000 0.000000
vt 0.000000 0.140000 0.000000
vt 0.100000 0.140000 0.000000
vt 0.000000 0.090000 0.000000
vt 0.100000 0.090000 0.000000
vt 0.000000 0.140000 0.000000
vt 0.100000 0.140000 0.000000
vt -0.056603 -0.032679 0.000000
vt 0.000000 -0.065359 0.000000
vt -0.056603 0.032679 0.000000
vt 0.000000 0.065359 0.000000
vt 0.056603 -0.032679 0.000000
vt 0.056603 0.032679 0.000000
vt 0.000000 0.090000 0.000000
vt 0.100000 0.090000 0.000000
vt -0.000000 0.140000 0.000000
vt 0.100000 0.140000 0.000000
vn -0.048809 -0.021693 0.084540
vn -0.048809 -0.021693 0.084540
vn -0.048809 -0.021693 0.084540
vn -0.048809 -0.021693 0.084540
vn 0.048809 -0.021693 -0.084540
vn 0.048809 -0.021693 -0.084540
vn 0.048809 -0.021693 -0.084540
vn 0.048809 -0.021693 -0.084540
vn 0.048809 -0.021693 0.084540
vn 0.048809 -0.021693 0.084540
vn 0.048809 -0.021693 0.084540
vn 0.048809 -0.021693 0.084540
vn 0.097619 -0.021693 -0.000000
vn 0.097619 -0.021693 -0.000000
vn 0.097619 -0.021693 -0.000000
vn 0.097619 -0.021693 -0.000000
vn -0.048809 -0.021693 -0.084540
vn -0.048809 -0.021693 -0.084540
vn -0.048809 -0.021693 -0.084540
vn -0.048809 -0.021693 -0.084540
vn -0.097619 -0.021693 0.000000
vn -0.097619 -0.021693 0.000000
vn -0.097619 -0.021693 0.000000
vn -0.097619 -0.021693 0.000000
vn 0.050000 -0.000000 0.086603
vn 0.050000 -0.000000 0.086603
vn 0.050000 -0.000000 0.086603
vn 0.050000 -0.000000 0.086603
vn 0.100000 -0.000000 -0.000000
vn 0.100000 -0.000000 -0.000000
vn 0.100000 -0.000000 -0.000000
vn 0.100000 -0.000000 -0.000000
vn 0.050000 -0.000000 -0.086603
vn 0.050000 -0.000000 -0.086603
vn 0.050000 -0.000000 -0.086603
vn 0.050000 -0.000000 -0.086603
vn -0.000000 -0.100000 0.000000
vn -0.000000 -0.100000 0.000000
vn -0.000000 -0.100000 0.000000
vn -0.000000 -0.100000 0.000000
vn -0.000000 -0.100000 0.000000
vn -0.000000 -0.100000 0.000000
vn -0.089443 0.044721 0.000000
vn -0.089443 0.044721 0.000000
vn -0.089443 0.044721 0.000000
vn -0.089443 0.044721 0.000000
vn -0.044721 0.044721 -0.077460
vn -0.044721 0.044721 -0.077460
vn -0.044721 0.044721 -0.077460
vn -0.044721 0.044721 -0.077460
vn 0.044721 0.044721 -0.077460
vn 0.044721 0.044721 -0.077460
vn 0.044721 0.044721 -0.077460
vn 0.044721 0.044721 -0.077460
vn 0.089443 0.044721 -0.000000
vn 0.089443 0.044721 -0.000000
vn 0.089443 0.044721 -0.000000
vn 0.089443 0.044721 -0.000000
vn 0.044721 0.044721 0.077460
vn 0.044721 0.044721 0.077460
vn 0.044721 0.044721 0.077460
vn 0.044721 0.044721 0.077460
vn -0.044721 0.044721 0.077460
vn -0.044721 0.044721 0.077460
vn -0.044721 0.044721 0.077460
vn -0.044721 0.044721 0.077460
vn -0.050000 0.000000 0.086603
vn -0.050000 0.000000 0.086603
vn -0.050000 0.000000 0.086603
vn -0.050000 0.000000 0.086603
vn -0.100000 0.000000 0.000000
vn -0.100000 0.000000 0.000000
vn -0.100000 0.000000 0.000000
vn -0.100000 0.000000 0.000000
vn 0.000000 0.100000 -0.000000
vn 0.000000 0.100000 -0.000000
vn 0.000000 0.100000 -0.000000
vn 0.000000 0.100000 -0.000000
vn 0.000000 0.100000 -0.000000
vn 0.000000 0.100000 -0.000000
vn -0.050000 0.000000 -0.086603
vn -0.050000 0.000000 -0.086603
vn -0.050000 0.000000 -0.086603
vn -0.050000 0.000000 -0.086603
usemtl Steel_-_Satin
f 1/1/1 2/2/2 4/3/3
f 4/3/3 2/2/2 3/4/4
f 5/5/5 6/6/6 8/7/7
f 8/7/7 6/6/6 7/8/8
f 9/9/9 10/10/10 2/11/11
f 2/11/11 10/10/10 3/12/12
f 6/13/13 10/14/14 7/15/15
f 7/15/15 10/14/14 9/16/16
f 5/17/17 8/18/18 11/19/19
f 11/19/19 8/18/18 12/20/20
f 11/21/21 12/22/22 4/23/23
f 4/23/23 12/22/22 1/24/24
f 3/25/25 10/26/26 14/27/27
f 14/27/27 10/26/26 13/28/28
f 10/29/29 6/30/30 13/31/31
f 13/31/31 6/30/30 15/32/32
f 6/33/33 5/34/34 15/35/35
f 15/35/35 5/34/34 16/36/36
f 7/37/37 2/38/38 8/39/39
f 8/39/39 2/38/38 1/40/40
f 8/39/39 1/40/40 12/41/41
f 7/37/37 9/42/42 2/38/38
f 17/43/43 18/44/44 20/45/45
f 20/45/45 18/44/44 19/46/46
f 21/47/47 16/48/48 18/49/49
f 18/49/49 16/48/48 19/50/50
f 21/51/51 22/52/52 16/53/53
f 16/53/53 22/52/52 15/54/54
f 23/55/55 13/56/56 22/57/57
f 22/57/57 13/56/56 15/58/58
f 13/59/59 23/60/60 14/61/61
f 14/61/61 23/60/60 24/62/62
f 20/63/63 14/64/64 17/65/65
f 17/65/65 14/64/64 24/66/66
f 4/67/67 3/68/68 20/69/69
f 20/69/69 3/68/68 14/70/70
f 11/71/71 4/72/72 19/73/73
f 19/73/73 4/72/72 20/74/74
f 17/75/75 24/76/76 18/77/77
f 18/77/77 24/76/76 21/78/78
f 21/78/78 24/76/76 23/79/79
f 21/78/78 23/79/79 22/80/80
f 5/81/81 11/82/82 16/83/83
f 16/83/83 11/82/82 19/84/84

g Body2

v -21.550635 14.634530 120.626795
v -21.217622 14.634530 120.819060
v -21.217622 15.084530 120.934530
v -21.650635 15.084530 120.684530
v -21.217622 15.084530 119.934530
v -20.784610 15.084530 120.184530
v -20.884610 14.634530 120.242265
v -21.217622 14.634530 120.050000
v -20.884610 14.634530 120.626795
v -20.784610 15.084530 120.684530
v -21.650635 15.084530 120.184530
v -21.550635 14.634530 120.242265
v -20.784610 15.334530 120.684530
v -21.217622 15.334530 120.934530
v -20.784610 15.334530 120.184530
v -21.217622 15.334530 119.934530
v -21.500635 15.634530 120.597927
v -21.500635 15.634530 120.271132
v -21.650635 15.334530 120.184530
v -21.650635 15.334530 120.684530
v -21.217622 15.634530 120.107735
v -20.934610 15.634530 120.271132
v -20.934610 15.634530 120.597927
v -21.217622 15.634530 120.761325
vt -0.019210 0.014404 0.000000
vt -0.032735 -0.021592 0.000000
vt 0.025973 0.003594 0.000000
vt 0.008386 -0.043211 0.000000
vt -0.008386 0.043211 0.000000
vt -0.025973 -0.003594 0.000000
vt 0.032735 0.021592 0.000000
vt 0.019210 -0.014404 0.000000
vt 0.010417 0.037806 0.000000
vt -0.034766 0.026997 0.000000
vt 0.023942 0.001810 0.000000
vt -0.017180 -0.019808 0.000000
vt -0.023049 0.037500 0.000000
vt -0.023049 -0.012500 0.000000
vt 0.023049 0.031726 0.000000
vt 0.023049 -0.006726 0.000000
vt 0.017180 0.019808 0.000000
vt -0.023942 -0.001810 0.000000
vt 0.034766 -0.026997 0.000000
vt -0.010417 -0.037806 0.000000
vt 0.023049 0.012500 0.000000
vt -0.023049 0.006726 0.000000
vt 0.023049 -0.037500 0.000000
vt -0.023049 -0.031726 0.000000
vt -0.000000 0.045000 0.000000
vt 0.050000 0.045000 0.000000
vt -0.000000 0.070000 0.000000
vt 0.050000 0.070000 0.000000
vt -0.000000 0.045000 0.000000
vt 0.050000 0.045000 0.000000
vt -0.000000 0.070000 0.000000
vt 0.050000 0.070000 0.000000
vt 0.000000 0.045000 0.000000
vt 0.050000 0.045000 0.000000
vt 0.000000 0.070000 0.000000
vt 0.050000 0.070000 0.000000
vt -0.033301 0.019226 0.000000
vt -0.000000 -0.038453 0.000000
vt -0.000000 0.038453 0.000000
vt 0.033301 -0.019226 0.000000
vt 0.033301 0.019226 0.000000
vt -0.033301 -0.019226 0.000000
vt 0.016771 -0.028840 0.000000
vt 0.016771 0.003840 0.000000
vt -0.016771 -0.037500 0.000000
vt -0.016771 0.012500 0.000000
vt 0.015610 -0.007234 0.000000
vt -0.005604 0.020152 0.000000
vt -0.004402 -0.033070 0.000000
vt -0.036222 -0.019377 0.000000
vt -0.030919 0.012530 0.000000
vt -0.010907 -0.013305 0.000000
vt -0.009706 0.039916 0.000000
vt 0.020913 0.000388 0.000000
vt -0.016771 -0.003840 0.000000
vt 0.016771 -0.012500 0.000000
vt -0.016771 0.028840 0.000000
vt 0.016771 0.037500 0.000000
vt 0.036222 0.019377 0.000000
vt 0.004402 0.033070 0.000000
vt 0.005604 -0.020152 0.000000
vt -0.015610 0.007234 0.000000
vt -0.020913 -0.000388 0.000000
vt 0.009706 -0.039916 0.000000
vt 0.010907 0.013305 0.000000
vt 0.030919 -0.012530 0.000000
vt -0.000000 0.045000 0.000000
vt 0.050000 0.045000 0.000000
vt -0.000000 0.070000 0.000000
vt 0.050000 0.070000 0.000000
vt 0.000000 0.045000 0.000000
vt 0.050000 0.045000 0.000000
vt 0.000000 0.070000 0.000000
vt 0.050000 0.070000 0.000000
vt -0.028301 -0.016340 0.000000
vt 0.000000 -0.032679 0.000000
vt -0.028301 0.016340 0.000000
vt 0.000000 0.032679 0.000000
vt 0.028301 -0.016340 0.000000
vt 0.028301 0.016340 0.000000
vt 0.000000 0.045000 0.000000
vt 0.050000 0.045000 0.000000
vt 0.000000 0.070000 0.000000
vt 0.050000 0.070000 0.000000
vn -0.048809 -0.021693 0.084540
vn -0.048809 -0.021693 0.084540
vn -0.048809 -0.021693 0.084540
vn -0.048809 -0.021693 0.084540
vn 0.048809 -0.021693 -0.084540
vn 0.048809 -0.021693 -0.084540
vn 0.048809 -0.021693 -0.084540
vn 0.048809 -0.021693 -0.084540
vn 0.048809 -0.021693 0.084540
vn 0.048809 -0.021693 0.084540
vn 0.048809 -0.021693 0.084540
vn 0.048809 -0.021693 0.084540
vn 0.097619 -0.021693 -0.000000
vn 0.097619 -0.021693 -0.000000
vn 0.097619 -0.021693 -0.000000
vn 0.097619 -0.021693 -0.000000
vn -0.048809 -0.021693 -0.084540
vn -0.048809 -0.021693 -0.084540
vn -0.048809 -0.021693 -0.084540
vn -0.048809 -0.021693 -0.084540
vn -0.097619 -0.021693 0.000000
vn -0.097619 -0.021693 0.000000
vn -0.097619 -0.021693 0.000000
vn -0.097619 -0.021693 0.000000
vn 0.050000 -0.000000 0.086603
vn 0.050000 -0.000000 0.086603
vn 0.050000 -0.000000 0.086603
vn 0.050000 -0.000000 0.086603
vn 0.100000 -0.000000 -0.000000
vn 0.100000 -0.000000 -0.000000
vn 0.100000 -0.000000 -0.000000
vn 0.100000 -0.000000 -0.000000
vn 0.050000 -0.000000 -0.086603
vn 0.050000 -0.000000 -0.086603
vn 0.050000 -0.000000 -0.086603
vn 0.050000 -0.000000 -0.086603
vn -0.000000 -0.100000 0.000000
vn -0.000000 -0.100000 0.000000
vn -0.000000 -0.100000 0.000000
vn -0.000000 -0.100000 0.000000
vn -0.000000 -0.100000 0.000000
vn -0.000000 -0.100000 0.000000
vn -0.089443 0.044721 0.000000
vn -0.089443 0.044721 0.000000
vn -0.089443 0.044721 0.000000
vn -0.089443 0.044721 0.000000
vn -0.044721 0.044721 -0.077460
vn -0.044721 0.044721 -0.077460
vn -0.044721 0.044721 -0.077460
vn -0.044721 0.044721 -0.077460
vn 0.044721 0.044721 -0.077460
vn 0.044721 0.044721 -0.077460
vn 0.044721 0.044721 -0.077460
vn 0.044721 0.044721 -0.077460
vn 0.089443 0.044721 -0.000000
vn 0.089443 0.044721 -0.000000
vn 0.089443 0.044721 -0.000000
vn 0.089443 0.044721 -0.000000
vn 0.044721 0.044721 0.077460
vn 0.044721 0.044721 0.077460
vn 0.044721 0.044721 0.077460
vn 0.044721 0.044721 0.077460
vn -0.044721 0.044721 0.077460
vn -0.044721 0.044721 0.077460
vn -0.044721 0.044721 0.077460
vn -0.044721 0.044721 0.077460
vn -0.050000 0.000000 0.086603
vn -0.050000 0.000000 0.086603
vn -0.050000 0.000000 0.086603
vn -0.050000 0.000000 0.086603
vn -0.100000 0.000000 0.000000
vn -0.100000 0.000000 0.000000
vn -0.100000 0.000000 0.000000
vn -0.100000 0.000000 0.000000
vn 0.000000 0.100000 -0.000000
vn 0.000000 0.100000 -0.000000
vn 0.000000 0.100000 -0.000000
vn 0.000000 0.100000 -0.000000
vn 0.000000 0.100000 -0.000000
vn 0.000000 0.100000 -0.000000
vn -0.050000 0.000000 -0.086603
vn -0.050000 0.000000 -0.086603
vn -0.050000 0.000000 -0.086603
vn -0.050000 0.000000 -0.086603
f 25/85/85 26/86/86 28/87/87
f 28/87/87 26/86/86 27/88/88
f 29/89/89 30/90/90 32/91/91
f 32/91/91 30/90/90 31/92/92
f 33/93/93 34/94/94 26/95/95
f 26/95/95 34/94/94 27/96/96
f 30/97/97 34/98/98 31/99/99
f 31/99/99 34/98/98 33/100/100
f 29/101/101 32/102/102 35/103/103
f 35/103/103 32/102/102 36/104/104
f 35/105/105 36/106/106 28/107/107
f 28/107/107 36/106/106 25/108/108
f 27/109/109 34/110/110 38/111/111
f 38/111/111 34/110/110 37/112/112
f 34/113/113 30/114/114 37/115/115
f 37/115/115 30/114/114 39/116/116
f 30/117/117 29/118/118 39/119/119
f 39/119/119 29/118/118 40/120/120
f 31/121/121 26/122/122 32/123/123
f 32/123/123 26/122/122 25/124/124
f 32/123/123 25/124/124 36/125/125
f 31/121/121 33/126/126 26/122/122
f 41/127/127 42/128/128 44/129/129
f 44/129/129 42/128/128 43/130/130
f 45/131/131 40/132/132 42/133/133
f 42/133/133 40/132/132 43/134/134
f 45/135/135 46/136/136 40/137/137
f 40/137/137 46/136/136 39/138/138
f 47/139/139 37/140/140 46/141/141
f 46/141/141 37/140/140 39/142/142
f 37/143/143 47/144/144 38/145/145
f 38/145/145 47/144/144 48/146/146
f 44/147/147 38/148/148 41/149/149
f 41/149/149 38/148/148 48/150/150
f 28/151/151 27/152/152 44/153/153
f 44/153/153 27/152/152 38/154/154
f 35/155/155 28/156/156 43/157/157
f 43/157/157 28/156/156 44/158/158
f 41/159/159 48/160/160 42/161/161
f 42/161/161 48/160/160 45/162/162
f 45/162/162 48/160/160 47/163/163
f 45/162/162 47/163/163 46/164/164
f 29/165/165 35/166/166 40/167/167
f 40/167/167 35/166/166 43/168/168

# 48 vertices
# 168 texture params
# 168 normals
# 88 facets

# 2 groups
