# WaveFront *.obj file (generated by Autodesk ATF)

mtllib c9e53533-ff85-489d-beb9-2d85a6ecbbd8.mtl

g Body1

v 17.980000 -6.300000 137.900000
v 17.800000 -6.000000 137.900000
v 17.800000 -6.000000 137.200000
v 17.980000 -6.300000 137.200000
v 19.100000 -6.300000 137.200000
v 19.100000 -6.300000 137.900000
v 17.800000 -4.780000 137.200000
v 18.500000 -4.780000 137.200000
v 18.500000 -5.600000 137.200000
v 19.100000 -5.600000 137.200000
v 19.100000 -4.080000 137.200000
v 20.000000 -4.080000 137.200000
v 20.000000 -6.500000 137.200000
v 20.600000 -6.500000 137.200000
v 20.600000 -5.480000 137.200000
v 21.300000 -5.480000 137.200000
v 21.300000 -7.020000 137.200000
v 21.000000 -7.200000 137.200000
v 20.000000 -7.200000 137.200000
v 20.000000 -9.300000 137.200000
v 19.100000 -9.300000 137.200000
v 21.300000 -7.020000 137.900000
v 21.000000 -7.200000 137.900000
v 21.300000 -5.480000 137.900000
v 18.100000 -4.600000 137.500000
v 18.200000 -4.600000 137.500000
v 18.200000 -4.600000 137.600000
v 18.500000 -4.780000 137.900000
v 18.100000 -4.600000 137.600000
v 17.800000 -4.780000 137.900000
v 21.000000 -5.300000 137.500000
v 21.000000 -5.300000 137.600000
v 20.900000 -5.300000 137.600000
v 20.600000 -5.480000 137.900000
v 20.900000 -5.300000 137.500000
v 19.400000 -3.900000 137.500000
v 19.700000 -3.900000 137.500000
v 19.700000 -3.900000 137.600000
v 20.000000 -4.080000 137.900000
v 19.400000 -3.900000 137.600000
v 19.100000 -4.080000 137.900000
v 19.100000 -5.600000 137.900000
v 18.500000 -5.600000 137.900000
v 20.600000 -6.500000 137.900000
v 19.100000 -9.300000 137.900000
v 20.000000 -9.300000 137.900000
v 20.000000 -7.200000 137.900000
v 20.000000 -6.500000 137.900000
vt -0.017493 -0.052500 0.000000
vt 0.017493 -0.052500 0.000000
vt -0.017493 0.017500 0.000000
vt 0.017493 0.017500 0.000000
vt 0.070000 0.202000 0.000000
vt 0.000000 0.202000 0.000000
vt 0.070000 0.090000 0.000000
vt 0.000000 0.090000 0.000000
vt 0.090000 0.300000 0.000000
vt 0.202000 0.300000 0.000000
vt 0.150000 0.370000 0.000000
vt 0.220000 0.330000 0.000000
vt 0.220000 0.452000 0.000000
vt 0.150000 0.452000 0.000000
vt 0.090000 0.370000 0.000000
vt 0.000000 0.280000 0.000000
vt 0.000000 0.210000 0.000000
vt -0.060000 0.280000 0.000000
vt -0.100000 0.210000 0.000000
vt -0.130000 0.228000 0.000000
vt -0.130000 0.382000 0.000000
vt -0.060000 0.382000 0.000000
vt 0.090000 0.522000 0.000000
vt 0.000000 0.522000 0.000000
vt 0.000000 0.000000 0.000000
vt 0.090000 0.000000 0.000000
vt -0.017493 -0.017500 0.000000
vt 0.017493 -0.017500 0.000000
vt -0.017493 0.052500 0.000000
vt 0.017493 0.052500 0.000000
vt 0.017000 0.035000 0.000000
vt -0.137000 0.035000 0.000000
vt 0.017000 -0.035000 0.000000
vt -0.137000 -0.035000 0.000000
vt -0.097500 -0.017493 0.000000
vt -0.087500 -0.017493 0.000000
vt -0.127500 0.017493 0.000000
vt -0.057500 0.017493 0.000000
vt -0.017493 0.012500 0.000000
vt 0.017493 -0.017500 0.000000
vt -0.017493 0.022500 0.000000
vt 0.017493 0.052500 0.000000
vt -0.042500 0.017493 0.000000
vt -0.052500 0.017493 0.000000
vt -0.012500 -0.017493 0.000000
vt -0.082500 -0.017493 0.000000
vt -0.017493 0.035000 0.000000
vt -0.017493 -0.035000 0.000000
vt 0.017493 0.005000 0.000000
vt 0.017493 -0.005000 0.000000
vt -0.005000 -0.035000 0.000000
vt 0.117000 -0.035000 0.000000
vt -0.005000 0.035000 0.000000
vt 0.117000 0.035000 0.000000
vt 0.005000 0.005000 0.000000
vt -0.005000 0.005000 0.000000
vt 0.005000 -0.005000 0.000000
vt -0.005000 -0.005000 0.000000
vt -0.017493 -0.005000 0.000000
vt 0.017493 -0.035000 0.000000
vt -0.017493 0.005000 0.000000
vt 0.017493 0.035000 0.000000
vt 0.097500 0.017493 0.000000
vt 0.087500 0.017493 0.000000
vt 0.127500 -0.017493 0.000000
vt 0.057500 -0.017493 0.000000
vt 0.017493 -0.022500 0.000000
vt 0.017493 -0.012500 0.000000
vt -0.017493 -0.052500 0.000000
vt -0.017493 0.017500 0.000000
vt 0.082500 0.017493 0.000000
vt 0.012500 0.017493 0.000000
vt 0.052500 -0.017493 0.000000
vt 0.042500 -0.017493 0.000000
vt 0.005000 0.005000 0.000000
vt -0.005000 0.005000 0.000000
vt 0.005000 -0.005000 0.000000
vt -0.005000 -0.005000 0.000000
vt -0.037500 -0.017493 0.000000
vt -0.007500 -0.017493 0.000000
vt -0.067500 0.017493 0.000000
vt 0.022500 0.017493 0.000000
vt -0.017493 0.012500 0.000000
vt 0.017493 -0.017500 0.000000
vt -0.017493 0.022500 0.000000
vt 0.017493 0.052500 0.000000
vt 0.037500 0.017493 0.000000
vt 0.007500 0.017493 0.000000
vt 0.067500 -0.017493 0.000000
vt -0.022500 -0.017493 0.000000
vt -0.017493 0.017500 0.000000
vt -0.017493 -0.052500 0.000000
vt 0.017493 -0.012500 0.000000
vt 0.017493 -0.022500 0.000000
vt 0.070000 0.522000 0.000000
vt 0.000000 0.522000 0.000000
vt 0.070000 0.370000 0.000000
vt 0.000000 0.370000 0.000000
vt 0.015000 0.005000 0.000000
vt -0.015000 0.005000 0.000000
vt 0.015000 -0.005000 0.000000
vt -0.015000 -0.005000 0.000000
vt 0.070000 0.082000 0.000000
vt -0.000000 0.082000 0.000000
vt 0.070000 0.000000 0.000000
vt 0.000000 0.000000 0.000000
vt 0.070000 0.102000 0.000000
vt 0.000000 0.102000 0.000000
vt 0.070000 -0.000000 0.000000
vt 0.000000 0.000000 0.000000
vt -0.130000 0.452000 0.000000
vt -0.130000 0.330000 0.000000
vt -0.060000 0.370000 0.000000
vt -0.112000 0.300000 0.000000
vt 0.000000 0.300000 0.000000
vt 0.000000 0.000000 0.000000
vt 0.090000 0.210000 0.000000
vt 0.090000 0.280000 0.000000
vt 0.000000 0.370000 0.000000
vt 0.090000 0.522000 0.000000
vt 0.000000 0.522000 0.000000
vt 0.090000 0.000000 0.000000
vt 0.150000 0.280000 0.000000
vt 0.190000 0.210000 0.000000
vt 0.220000 0.228000 0.000000
vt 0.220000 0.382000 0.000000
vt 0.150000 0.382000 0.000000
vt -0.060000 0.452000 0.000000
vt 0.070000 0.060000 0.000000
vt 0.000000 0.060000 0.000000
vt 0.070000 0.000000 0.000000
vt 0.000000 0.000000 0.000000
vt 0.070000 0.100000 0.000000
vt 0.000000 0.100000 0.000000
vt 0.070000 0.000000 0.000000
vt 0.000000 0.000000 0.000000
vt 0.070000 0.150000 0.000000
vt -0.000000 0.150000 0.000000
vt 0.070000 0.090000 0.000000
vt -0.000000 0.090000 0.000000
vt 0.070000 0.300000 0.000000
vt 0.000000 0.300000 0.000000
vt 0.070000 -0.000000 0.000000
vt 0.000000 0.000000 0.000000
vt 0.070000 0.210000 0.000000
vt -0.000000 0.210000 0.000000
vt 0.070000 0.000000 0.000000
vt 0.000000 0.000000 0.000000
vt 0.070000 0.522000 0.000000
vt -0.000000 0.522000 0.000000
vt 0.070000 0.280000 0.000000
vt -0.000000 0.280000 0.000000
vt -0.045000 -0.035000 0.000000
vt 0.045000 -0.035000 0.000000
vt -0.045000 0.035000 0.000000
vt 0.045000 0.035000 0.000000
vn -0.085749 -0.051450 0.000000
vn -0.085749 -0.051450 0.000000
vn -0.085749 -0.051450 0.000000
vn -0.085749 -0.051450 0.000000
vn 0.000000 -0.100000 0.000000
vn 0.000000 -0.100000 0.000000
vn 0.000000 -0.100000 0.000000
vn 0.000000 -0.100000 0.000000
vn 0.000000 -0.000000 -0.100000
vn 0.000000 -0.000000 -0.100000
vn 0.000000 -0.000000 -0.100000
vn 0.000000 -0.000000 -0.100000
vn 0.000000 -0.000000 -0.100000
vn 0.000000 -0.000000 -0.100000
vn 0.000000 -0.000000 -0.100000
vn 0.000000 -0.000000 -0.100000
vn 0.000000 -0.000000 -0.100000
vn 0.000000 -0.000000 -0.100000
vn 0.000000 -0.000000 -0.100000
vn 0.000000 -0.000000 -0.100000
vn 0.000000 -0.000000 -0.100000
vn 0.000000 -0.000000 -0.100000
vn 0.000000 -0.000000 -0.100000
vn 0.000000 -0.000000 -0.100000
vn 0.000000 -0.000000 -0.100000
vn 0.000000 -0.000000 -0.100000
vn 0.051450 -0.085749 0.000000
vn 0.051450 -0.085749 0.000000
vn 0.051450 -0.085749 0.000000
vn 0.051450 -0.085749 0.000000
vn 0.100000 -0.000000 0.000000
vn 0.100000 -0.000000 0.000000
vn 0.100000 -0.000000 0.000000
vn 0.100000 -0.000000 0.000000
vn 0.000000 0.085749 -0.051450
vn 0.000000 0.085749 -0.051450
vn 0.000000 0.085749 -0.051450
vn 0.000000 0.085749 -0.051450
vn 0.051450 0.085749 -0.000000
vn 0.051450 0.085749 -0.000000
vn 0.051450 0.085749 -0.000000
vn 0.051450 0.085749 -0.000000
vn 0.000000 0.085749 0.051450
vn 0.000000 0.085749 0.051450
vn 0.000000 0.085749 0.051450
vn 0.000000 0.085749 0.051450
vn -0.051450 0.085749 -0.000000
vn -0.051450 0.085749 -0.000000
vn -0.051450 0.085749 -0.000000
vn -0.051450 0.085749 -0.000000
vn -0.100000 0.000000 -0.000000
vn -0.100000 0.000000 -0.000000
vn -0.100000 0.000000 -0.000000
vn -0.100000 0.000000 -0.000000
vn 0.000000 0.100000 -0.000000
vn 0.000000 0.100000 -0.000000
vn 0.000000 0.100000 -0.000000
vn 0.000000 0.100000 -0.000000
vn 0.051450 0.085749 -0.000000
vn 0.051450 0.085749 -0.000000
vn 0.051450 0.085749 -0.000000
vn 0.051450 0.085749 -0.000000
vn 0.000000 0.085749 0.051450
vn 0.000000 0.085749 0.051450
vn 0.000000 0.085749 0.051450
vn 0.000000 0.085749 0.051450
vn -0.051450 0.085749 -0.000000
vn -0.051450 0.085749 -0.000000
vn -0.051450 0.085749 -0.000000
vn -0.051450 0.085749 -0.000000
vn 0.000000 0.085749 -0.051450
vn 0.000000 0.085749 -0.051450
vn 0.000000 0.085749 -0.051450
vn 0.000000 0.085749 -0.051450
vn 0.000000 0.100000 -0.000000
vn 0.000000 0.100000 -0.000000
vn 0.000000 0.100000 -0.000000
vn 0.000000 0.100000 -0.000000
vn 0.000000 0.085749 -0.051450
vn 0.000000 0.085749 -0.051450
vn 0.000000 0.085749 -0.051450
vn 0.000000 0.085749 -0.051450
vn 0.051450 0.085749 -0.000000
vn 0.051450 0.085749 -0.000000
vn 0.051450 0.085749 -0.000000
vn 0.051450 0.085749 -0.000000
vn 0.000000 0.085749 0.051450
vn 0.000000 0.085749 0.051450
vn 0.000000 0.085749 0.051450
vn 0.000000 0.085749 0.051450
vn -0.051450 0.085749 -0.000000
vn -0.051450 0.085749 -0.000000
vn -0.051450 0.085749 -0.000000
vn -0.051450 0.085749 -0.000000
vn -0.100000 0.000000 -0.000000
vn -0.100000 0.000000 -0.000000
vn -0.100000 0.000000 -0.000000
vn -0.100000 0.000000 -0.000000
vn 0.000000 0.100000 -0.000000
vn 0.000000 0.100000 -0.000000
vn 0.000000 0.100000 -0.000000
vn 0.000000 0.100000 -0.000000
vn 0.100000 0.000000 0.000000
vn 0.100000 0.000000 0.000000
vn 0.100000 0.000000 0.000000
vn 0.100000 0.000000 0.000000
vn -0.100000 0.000000 -0.000000
vn -0.100000 0.000000 -0.000000
vn -0.100000 0.000000 -0.000000
vn -0.100000 0.000000 -0.000000
vn 0.000000 0.000000 0.100000
vn 0.000000 0.000000 0.100000
vn 0.000000 0.000000 0.100000
vn 0.000000 0.000000 0.100000
vn 0.000000 0.000000 0.100000
vn 0.000000 0.000000 0.100000
vn 0.000000 0.000000 0.100000
vn 0.000000 0.000000 0.100000
vn 0.000000 0.000000 0.100000
vn 0.000000 0.000000 0.100000
vn 0.000000 0.000000 0.100000
vn 0.000000 0.000000 0.100000
vn 0.000000 0.000000 0.100000
vn 0.000000 0.000000 0.100000
vn 0.000000 0.000000 0.100000
vn 0.000000 0.000000 0.100000
vn 0.000000 0.000000 0.100000
vn 0.000000 0.000000 0.100000
vn 0.000000 0.100000 -0.000000
vn 0.000000 0.100000 -0.000000
vn 0.000000 0.100000 -0.000000
vn 0.000000 0.100000 -0.000000
vn 0.000000 -0.100000 0.000000
vn 0.000000 -0.100000 0.000000
vn 0.000000 -0.100000 0.000000
vn 0.000000 -0.100000 0.000000
vn 0.000000 0.100000 -0.000000
vn 0.000000 0.100000 -0.000000
vn 0.000000 0.100000 -0.000000
vn 0.000000 0.100000 -0.000000
vn -0.100000 0.000000 -0.000000
vn -0.100000 0.000000 -0.000000
vn -0.100000 0.000000 -0.000000
vn -0.100000 0.000000 -0.000000
vn 0.100000 0.000000 0.000000
vn 0.100000 0.000000 0.000000
vn 0.100000 0.000000 0.000000
vn 0.100000 0.000000 0.000000
vn 0.100000 0.000000 0.000000
vn 0.100000 0.000000 0.000000
vn 0.100000 0.000000 0.000000
vn 0.100000 0.000000 0.000000
vn 0.000000 -0.100000 0.000000
vn 0.000000 -0.100000 0.000000
vn 0.000000 -0.100000 0.000000
vn 0.000000 -0.100000 0.000000
usemtl Steel_-_Satin
f 1/1/1 2/2/2 4/3/3
f 4/3/3 2/2/2 3/4/4
f 1/5/5 4/6/6 6/7/7
f 6/7/7 4/6/6 5/8/8
f 5/9/9 4/10/10 9/11/11
f 9/11/11 4/10/10 3/12/12
f 9/11/11 3/12/12 7/13/13
f 7/13/13 8/14/14 9/11/11
f 9/11/11 10/15/15 5/9/9
f 5/9/9 10/15/15 13/16/16
f 5/9/9 13/16/16 19/17/17
f 19/17/17 13/16/16 14/18/18
f 19/17/17 14/18/18 18/19/19
f 18/19/19 14/18/18 17/20/20
f 17/20/20 14/18/18 16/21/21
f 16/21/21 14/18/18 15/22/22
f 11/23/23 12/24/24 10/15/15
f 10/15/15 12/24/24 13/16/16
f 20/25/25 21/26/26 19/17/17
f 19/17/17 21/26/26 5/9/9
f 22/27/27 23/28/28 17/29/29
f 17/29/29 23/28/28 18/30/30
f 17/31/31 16/32/32 22/33/33
f 22/33/33 16/32/32 24/34/34
f 25/35/35 26/36/36 7/37/37
f 7/37/37 26/36/36 8/38/38
f 27/39/39 28/40/40 26/41/41
f 26/41/41 28/40/40 8/42/42
f 27/43/43 29/44/44 28/45/45
f 28/45/45 29/44/44 30/46/46
f 7/47/47 30/48/48 25/49/49
f 25/49/49 30/48/48 29/50/50
f 2/51/51 30/52/52 3/53/53
f 3/53/53 30/52/52 7/54/54
f 26/55/55 25/56/56 27/57/57
f 27/57/57 25/56/56 29/58/58
f 32/59/59 24/60/60 31/61/61
f 31/61/61 24/60/60 16/62/62
f 32/63/63 33/64/64 24/65/65
f 24/65/65 33/64/64 34/66/66
f 33/67/67 35/68/68 34/69/69
f 34/69/69 35/68/68 15/70/70
f 16/71/71 15/72/72 31/73/73
f 31/73/73 15/72/72 35/74/74
f 31/75/75 35/76/76 32/77/77
f 32/77/77 35/76/76 33/78/78
f 36/79/79 37/80/80 11/81/81
f 11/81/81 37/80/80 12/82/82
f 38/83/83 39/84/84 37/85/85
f 37/85/85 39/84/84 12/86/86
f 38/87/87 40/88/88 39/89/89
f 39/89/89 40/88/88 41/90/90
f 11/91/91 41/92/92 36/93/93
f 36/93/93 41/92/92 40/94/94
f 41/95/95 11/96/96 42/97/97
f 42/97/97 11/96/96 10/98/98
f 37/99/99 36/100/100 38/101/101
f 38/101/101 36/100/100 40/102/102
f 8/103/103 28/104/104 9/105/105
f 9/105/105 28/104/104 43/106/106
f 34/107/107 15/108/108 44/109/109
f 44/109/109 15/108/108 14/110/110
f 30/111/111 2/112/112 43/113/113
f 43/113/113 2/112/112 1/114/114
f 43/113/113 1/114/114 6/115/115
f 45/116/116 47/117/117 6/115/115
f 6/115/115 47/117/117 48/118/118
f 6/115/115 48/118/118 42/119/119
f 42/119/119 48/118/118 39/120/120
f 42/119/119 39/120/120 41/121/121
f 45/116/116 46/122/122 47/117/117
f 48/118/118 47/117/117 44/123/123
f 44/123/123 47/117/117 23/124/124
f 44/123/123 23/124/124 22/125/125
f 22/125/125 24/126/126 44/123/123
f 44/123/123 24/126/126 34/127/127
f 42/119/119 43/113/113 6/115/115
f 43/113/113 28/128/128 30/111/111
f 44/129/129 14/130/130 48/131/131
f 48/131/131 14/130/130 13/132/132
f 18/133/133 23/134/134 19/135/135
f 19/135/135 23/134/134 47/136/136
f 9/137/137 43/138/138 10/139/139
f 10/139/139 43/138/138 42/140/140
f 6/141/141 5/142/142 45/143/143
f 45/143/143 5/142/142 21/144/144
f 19/145/145 47/146/146 20/147/147
f 20/147/147 47/146/146 46/148/148
f 12/149/149 39/150/150 13/151/151
f 13/151/151 39/150/150 48/152/152
f 46/153/153 45/154/154 20/155/155
f 20/155/155 45/154/154 21/156/156

# 48 vertices
# 156 texture params
# 156 normals
# 92 facets

# 1 groups
