# WaveFront *.obj file (generated by Autodesk ATF)

mtllib a7d24f0a-d57a-442a-8bf9-9f07e96782bd.mtl

g Body1

v -19.297772 15.037277 15.105089
v -19.592156 14.978401 14.980000
v -19.600000 15.140000 14.860000
v -19.230770 15.213846 15.016893
v -19.752864 14.946259 14.980000
v -19.800000 15.100000 14.860000
v -19.902176 14.916396 15.021528
v -20.011539 15.057693 14.918835
v -20.011500 14.894532 15.216633
v -20.165385 15.026923 15.193397
v -19.758965 15.108207 15.722911
v -20.130770 15.033846 15.424814
v -19.990084 14.898815 15.359807
v -19.686869 14.959458 15.602911
v -19.369231 15.186154 15.722911
v -19.395403 15.017751 15.602911
v -19.126923 15.234616 15.405203
v -19.224549 15.051922 15.378891
v -19.827457 15.237282 14.860000
v -19.627457 15.277282 14.860000
v -20.038995 15.194974 14.918835
v -20.192841 15.164205 15.193397
v -20.158226 15.171128 15.424814
v -19.786421 15.245489 15.722911
v -19.824727 15.360204 15.060000
v -19.690214 15.387107 15.060000
v -19.445728 15.436004 15.163886
v -19.258226 15.351128 15.016893
v -19.392920 15.446565 15.361350
v -19.154380 15.371897 15.405203
v -19.516138 15.421922 15.522911
v -19.396687 15.323435 15.722911
v -19.742094 15.376731 15.522911
v -19.999581 15.325233 15.316469
v -20.012198 15.322710 15.232124
v -19.932556 15.338638 15.089990
vt -0.004675 -0.012099 0.000000
vt 0.026179 -0.001815 0.000000
vt -0.016568 0.005018 0.000000
vt 0.022131 0.017918 0.000000
vt -0.003109 -0.009505 0.000000
vt 0.012440 -0.014687 0.000000
vt 0.000939 0.010228 0.000000
vt 0.020289 0.003778 0.000000
vt -0.003775 -0.009871 0.000000
vt 0.008349 -0.019975 0.000000
vt 0.007794 0.006522 0.000000
vt 0.024972 -0.007793 0.000000
vt -0.010248 0.000249 0.000000
vt -0.005841 -0.021786 0.000000
vt 0.008389 0.009045 0.000000
vt 0.014591 -0.021963 0.000000
vt 0.018313 0.002373 0.000000
vt 0.001785 0.014594 0.000000
vt -0.018541 -0.028740 0.000000
vt -0.028270 -0.010780 0.000000
vt -0.011792 -0.007135 0.000000
vt 0.006737 -0.016035 0.000000
vt -0.008705 0.007015 0.000000
vt 0.011727 0.006836 0.000000
vt 0.002304 -0.011309 0.000000
vt 0.004690 0.008978 0.000000
vt -0.035401 0.001260 0.000000
vt -0.023509 0.018377 0.000000
vt -0.007252 -0.010628 0.000000
vt 0.010218 0.000741 0.000000
vt -0.018817 0.027924 0.000000
vt 0.002063 0.027924 0.000000
vt -0.013061 -0.008736 0.000000
vt 0.007819 -0.008736 0.000000
vt -0.001496 0.029816 0.000000
vt 0.015974 0.018447 0.000000
vt -0.000000 0.016000 0.000000
vt 0.020396 0.016000 0.000000
vt 0.000000 0.030000 0.000000
vt 0.020396 0.030000 0.000000
vt -0.000000 0.016000 0.000000
vt 0.022361 0.016000 0.000000
vt -0.000000 0.030000 0.000000
vt 0.022361 0.030000 0.000000
vt -0.000000 0.016000 0.000000
vt 0.031623 0.016000 0.000000
vt 0.000000 0.030000 0.000000
vt 0.031623 0.030000 0.000000
vt 0.000000 0.016000 0.000000
vt 0.023409 0.016000 0.000000
vt 0.000000 0.030000 0.000000
vt 0.023409 0.030000 0.000000
vt -0.000000 0.016000 0.000000
vt 0.048232 0.016000 0.000000
vt 0.000000 0.030000 0.000000
vt 0.048232 0.030000 0.000000
vt -0.027892 -0.025487 0.000000
vt 0.001255 -0.031316 0.000000
vt -0.040584 -0.000103 0.000000
vt 0.036344 -0.013542 0.000000
vt 0.041294 0.000069 0.000000
vt 0.034188 0.021387 0.000000
vt 0.020071 0.028446 0.000000
vt 0.004000 0.031660 0.000000
vt -0.027892 0.025281 0.000000
vt -0.012324 -0.014849 0.000000
vt 0.001036 -0.011733 0.000000
vt -0.020230 0.007257 0.000000
vt -0.000367 0.011889 0.000000
vt 0.001586 -0.012345 0.000000
vt 0.016410 0.008147 0.000000
vt -0.024718 -0.006210 0.000000
vt -0.023316 0.017413 0.000000
vt -0.009883 -0.006545 0.000000
vt 0.015495 -0.006545 0.000000
vt -0.017948 0.012267 0.000000
vt -0.000366 0.030448 0.000000
vt -0.010054 0.006145 0.000000
vt 0.007528 -0.012036 0.000000
vt -0.001989 0.024956 0.000000
vt 0.023389 0.024956 0.000000
vt 0.020920 0.016854 0.000000
vt -0.001521 0.011620 0.000000
vt 0.035744 -0.003638 0.000000
vt -0.002963 -0.012666 0.000000
vt -0.019298 -0.002145 0.000000
vt 0.022230 -0.026676 0.000000
vt -0.000625 0.013914 0.000000
vt 0.028134 -0.003075 0.000000
vt -0.013866 0.005291 0.000000
vt -0.006897 -0.017057 0.000000
vt 0.010475 0.005582 0.000000
vt 0.013015 -0.002563 0.000000
vt -0.017918 -0.020254 0.000000
vt 0.006423 -0.019964 0.000000
vt -0.009227 0.010151 0.000000
vt 0.010922 -0.004224 0.000000
vt -0.007439 0.009162 0.000000
vt -0.026756 -0.002102 0.000000
vt 0.001995 -0.012336 0.000000
vt -0.007851 -0.018078 0.000000
vt -0.017451 0.020811 0.000000
vt -0.032823 0.000183 0.000000
vt -0.004000 0.023501 0.000000
vt -0.029907 -0.007835 0.000000
vt 0.022486 0.018204 0.000000
vt 0.031639 -0.000103 0.000000
vt -0.000110 -0.022928 0.000000
vt 0.022486 -0.018409 0.000000
vt -0.027646 0.015714 0.000000
vt -0.000000 0.016000 0.000000
vt 0.040792 0.016000 0.000000
vt 0.000000 0.030000 0.000000
vt 0.040792 0.030000 0.000000
vt -0.000000 0.016000 0.000000
vt 0.040249 0.016000 0.000000
vt -0.000000 0.030000 0.000000
vt 0.040249 0.030000 0.000000
vt 0.000000 0.016000 0.000000
vt 0.040249 0.016000 0.000000
vt -0.000000 0.030000 0.000000
vt 0.040249 0.030000 0.000000
vt 0.000000 0.016000 0.000000
vt 0.039745 0.016000 0.000000
vt -0.000000 0.030000 0.000000
vt 0.039745 0.030000 0.000000
vn 0.041939 -0.052800 -0.073846
vn 0.041939 -0.052800 -0.073846
vn 0.041939 -0.052800 -0.073846
vn 0.041939 -0.052800 -0.073846
vn 0.011767 -0.058835 -0.080000
vn 0.011767 -0.058835 -0.080000
vn 0.011767 -0.058835 -0.080000
vn 0.011767 -0.058835 -0.080000
vn -0.008874 -0.062963 -0.077181
vn -0.008874 -0.062963 -0.077181
vn -0.008874 -0.062963 -0.077181
vn -0.008874 -0.062963 -0.077181
vn -0.056344 -0.072457 -0.039691
vn -0.056344 -0.072457 -0.039691
vn -0.056344 -0.072457 -0.039691
vn -0.056344 -0.072457 -0.039691
vn -0.036717 -0.068532 0.062891
vn -0.036717 -0.068532 0.062891
vn -0.036717 -0.068532 0.062891
vn -0.036717 -0.068532 0.062891
vn -0.065782 -0.074345 0.012064
vn -0.065782 -0.074345 0.012064
vn -0.065782 -0.074345 0.012064
vn -0.065782 -0.074345 0.012064
vn 0.011767 -0.058835 0.080000
vn 0.011767 -0.058835 0.080000
vn 0.011767 -0.058835 0.080000
vn 0.011767 -0.058835 0.080000
vn 0.073689 -0.046450 0.049115
vn 0.073689 -0.046450 0.049115
vn 0.073689 -0.046450 0.049115
vn 0.073689 -0.046450 0.049115
vn 0.087449 -0.043698 -0.021049
vn 0.087449 -0.043698 -0.021049
vn 0.087449 -0.043698 -0.021049
vn 0.087449 -0.043698 -0.021049
vn 0.000000 0.000000 -0.100000
vn 0.000000 0.000000 -0.100000
vn 0.000000 0.000000 -0.100000
vn 0.000000 0.000000 -0.100000
vn -0.025801 -0.005160 -0.096476
vn -0.025801 -0.005160 -0.096476
vn -0.025801 -0.005160 -0.096476
vn -0.025801 -0.005160 -0.096476
vn -0.085138 -0.017028 -0.049614
vn -0.085138 -0.017028 -0.049614
vn -0.085138 -0.017028 -0.049614
vn -0.085138 -0.017028 -0.049614
vn -0.096937 -0.019387 0.015080
vn -0.096937 -0.019387 0.015080
vn -0.096937 -0.019387 0.015080
vn -0.096937 -0.019387 0.015080
vn -0.060605 -0.012121 0.078614
vn -0.060605 -0.012121 0.078614
vn -0.060605 -0.012121 0.078614
vn -0.060605 -0.012121 0.078614
vn 0.019612 -0.098058 0.000000
vn 0.019612 -0.098058 0.000000
vn 0.019612 -0.098058 0.000000
vn 0.019612 -0.098058 0.000000
vn 0.019612 -0.098058 0.000000
vn 0.019612 -0.098058 0.000000
vn 0.019612 -0.098058 0.000000
vn 0.019612 -0.098058 0.000000
vn 0.019612 -0.098058 0.000000
vn -0.016817 0.084084 -0.051450
vn -0.016817 0.084084 -0.051450
vn -0.016817 0.084084 -0.051450
vn -0.016817 0.084084 -0.051450
vn 0.002587 0.087965 -0.047492
vn 0.002587 0.087965 -0.047492
vn 0.002587 0.087965 -0.047492
vn 0.002587 0.087965 -0.047492
vn 0.031856 0.093819 -0.013537
vn 0.031856 0.093819 -0.013537
vn 0.031856 0.093819 -0.013537
vn 0.031856 0.093819 -0.013537
vn 0.023006 0.092049 0.031587
vn 0.023006 0.092049 0.031587
vn 0.023006 0.092049 0.031587
vn 0.023006 0.092049 0.031587
vn -0.016817 0.084084 0.051450
vn -0.016817 0.084084 0.051450
vn -0.016817 0.084084 0.051450
vn -0.016817 0.084084 0.051450
vn -0.047998 0.077848 0.040446
vn -0.047998 0.077848 0.040446
vn -0.047998 0.077848 0.040446
vn -0.047998 0.077848 0.040446
vn -0.066690 0.074109 0.007758
vn -0.066690 0.074109 0.007758
vn -0.066690 0.074109 0.007758
vn -0.066690 0.074109 0.007758
vn -0.060620 0.075323 -0.025526
vn -0.060620 0.075323 -0.025526
vn -0.060620 0.075323 -0.025526
vn -0.060620 0.075323 -0.025526
vn -0.030091 0.081429 -0.049637
vn -0.030091 0.081429 -0.049637
vn -0.030091 0.081429 -0.049637
vn -0.030091 0.081429 -0.049637
vn -0.019612 0.098058 -0.000000
vn -0.019612 0.098058 -0.000000
vn -0.019612 0.098058 -0.000000
vn -0.019612 0.098058 -0.000000
vn -0.019612 0.098058 -0.000000
vn -0.019612 0.098058 -0.000000
vn -0.019612 0.098058 -0.000000
vn -0.019612 0.098058 -0.000000
vn -0.019612 0.098058 -0.000000
vn 0.037715 0.007543 -0.092308
vn 0.037715 0.007543 -0.092308
vn 0.037715 0.007543 -0.092308
vn 0.037715 0.007543 -0.092308
vn 0.094603 0.018921 -0.026312
vn 0.094603 0.018921 -0.026312
vn 0.094603 0.018921 -0.026312
vn 0.094603 0.018921 -0.026312
vn 0.077402 0.015480 0.061394
vn 0.077402 0.015480 0.061394
vn 0.077402 0.015480 0.061394
vn 0.077402 0.015480 0.061394
vn -0.000000 -0.000000 0.100000
vn -0.000000 -0.000000 0.100000
vn -0.000000 -0.000000 0.100000
vn -0.000000 -0.000000 0.100000
usemtl Steel_-_Satin
f 1/1/1 2/2/2 4/3/3
f 4/3/3 2/2/2 3/4/4
f 2/5/5 5/6/6 3/7/7
f 3/7/7 5/6/6 6/8/8
f 5/9/9 7/10/10 6/11/11
f 6/11/11 7/10/10 8/12/12
f 7/13/13 9/14/14 8/15/15
f 8/15/15 9/14/14 10/16/16
f 12/17/17 13/18/18 11/19/19
f 11/19/19 13/18/18 14/20/20
f 13/21/21 12/22/22 9/23/23
f 9/23/23 12/22/22 10/24/24
f 11/25/25 14/26/26 15/27/27
f 15/27/27 14/26/26 16/28/28
f 15/29/29 16/30/30 17/31/31
f 17/31/31 16/30/30 18/32/32
f 17/33/33 18/34/34 4/35/35
f 4/35/35 18/34/34 1/36/36
f 3/37/37 6/38/38 20/39/39
f 20/39/39 6/38/38 19/40/40
f 6/41/41 8/42/42 19/43/43
f 19/43/43 8/42/42 21/44/44
f 8/45/45 10/46/46 21/47/47
f 21/47/47 10/46/46 22/48/48
f 10/49/49 12/50/50 22/51/51
f 22/51/51 12/50/50 23/52/52
f 12/53/53 11/54/54 23/55/55
f 23/55/55 11/54/54 24/56/56
f 16/57/57 14/58/58 18/59/59
f 18/59/59 14/58/58 13/60/60
f 18/59/59 13/60/60 9/61/61
f 7/62/62 5/63/63 9/61/61
f 9/61/61 5/63/63 2/64/64
f 9/61/61 2/64/64 1/65/65
f 1/65/65 18/59/59 9/61/61
f 25/66/66 26/67/67 19/68/68
f 19/68/68 26/67/67 20/69/69
f 27/70/70 28/71/71 26/72/72
f 26/72/72 28/71/71 20/73/73
f 29/74/74 30/75/75 27/76/76
f 27/76/76 30/75/75 28/77/77
f 31/78/78 32/79/79 29/80/80
f 29/80/80 32/79/79 30/81/81
f 31/82/82 33/83/83 32/84/84
f 32/84/84 33/83/83 24/85/85
f 23/86/86 24/87/87 34/88/88
f 34/88/88 24/87/87 33/89/89
f 22/90/90 23/91/91 35/92/92
f 35/92/92 23/91/91 34/93/93
f 22/94/94 35/95/95 21/96/96
f 21/96/96 35/95/95 36/97/97
f 19/98/98 21/99/99 25/100/100
f 25/100/100 21/99/99 36/101/101
f 25/102/102 35/103/103 26/104/104
f 26/104/104 35/103/103 34/105/105
f 26/104/104 34/105/105 27/106/106
f 27/106/106 34/105/105 29/107/107
f 29/107/107 34/105/105 33/108/108
f 29/107/107 33/108/108 31/109/109
f 25/102/102 36/110/110 35/103/103
f 4/111/111 3/112/112 28/113/113
f 28/113/113 3/112/112 20/114/114
f 17/115/115 4/116/116 30/117/117
f 30/117/117 4/116/116 28/118/118
f 15/119/119 17/120/120 32/121/121
f 32/121/121 17/120/120 30/122/122
f 11/123/123 15/124/124 24/125/125
f 24/125/125 15/124/124 32/126/126

# 36 vertices
# 126 texture params
# 126 normals
# 68 facets

# 1 groups
