# Blender v2.90.1 OBJ File: 'w1 EXPORT FILE.blend'
# www.blender.org
mtllib Button.mtl
g Button
v -2.048405 0.942200 -4.945288
v 2.048405 0.942200 -4.945288
v -4.945288 0.942200 -2.048406
v 4.945288 0.942200 -2.048406
v -4.945288 0.942200 2.048405
v 4.945288 0.942200 2.048405
v -2.048405 0.942200 4.945288
v 2.048405 0.942200 4.945288
v 2.048405 2.017262 4.945288
v 4.945288 2.017262 2.048405
v 4.945288 2.017262 -2.048406
v 2.048405 2.017262 -4.945288
v -2.048405 2.017262 -4.945288
v 1.692161 2.877312 4.085238
v -1.692161 2.877312 4.085238
v -2.048405 2.017262 4.945288
v -4.085238 2.877312 1.692161
v -4.945288 2.017262 2.048405
v -4.085238 2.877312 -1.692161
v -4.945288 2.017262 -2.048406
v -1.692161 2.877312 -4.085238
v 1.692161 2.877312 -4.085238
v 4.085237 2.877312 -1.692161
v 4.085237 2.877312 1.692161
vt 0.283474 0.283338
vt 0.282214 0.283338
vt 0.284364 0.282448
vt 0.281324 0.282448
vt 0.284103 0.282083
vt 0.284103 0.282413
vt 0.282844 0.282413
vt 0.282844 0.282083
vt 0.284364 0.281188
vt 0.281324 0.281188
vt 0.283474 0.280298
vt 0.282214 0.280298
vt 0.284103 0.282083
vt 0.284103 0.282413
vt 0.282844 0.282413
vt 0.282844 0.282083
vt 0.284103 0.282083
vt 0.284103 0.282413
vt 0.282844 0.282413
vt 0.282844 0.282083
vt 0.284103 0.282083
vt 0.284103 0.282413
vt 0.282844 0.282413
vt 0.282844 0.282083
vt 0.284103 0.282083
vt 0.284103 0.282413
vt 0.282844 0.282413
vt 0.282844 0.282083
vt 0.283049 0.281631
vt 0.283159 0.282005
vt 0.281899 0.282005
vt 0.282009 0.281631
vt 0.283173 0.282608
vt 0.282573 0.281758
vt 0.282815 0.281453
vt 0.283542 0.282481
vt 0.282639 0.282005
vt 0.282529 0.281631
vt 0.283788 0.281631
vt 0.283679 0.282005
vt 0.282878 0.282094
vt 0.282509 0.281967
vt 0.283237 0.280939
vt 0.283479 0.281244
vt 0.282873 0.282183
vt 0.282146 0.281155
vt 0.282514 0.281028
vt 0.283115 0.281878
vt 0.283031 0.282023
vt 0.282657 0.282133
vt 0.282657 0.280874
vt 0.283031 0.280983
vt 0.282209 0.282392
vt 0.282810 0.281543
vt 0.283178 0.281669
vt 0.282451 0.282697
vt 0.284103 0.282083
vt 0.284103 0.282413
vt 0.282844 0.282413
vt 0.282844 0.282083
vt 0.282324 0.280562
vt 0.283364 0.280562
vt 0.281588 0.281298
vt 0.284100 0.281298
vt 0.282657 0.282653
vt 0.282657 0.281613
vt 0.283031 0.281503
vt 0.283031 0.282763
vt 0.281588 0.282338
vt 0.284100 0.282338
vt 0.282324 0.283074
vt 0.283364 0.283074
vt 0.284103 0.282083
vt 0.284103 0.282413
vt 0.282844 0.282413
vt 0.282844 0.282083
vt 0.284103 0.282083
vt 0.284103 0.282413
vt 0.282844 0.282413
vt 0.282844 0.282083
vn 0.0000 -1.0000 0.0000
vn -1.0000 0.0000 0.0000
vn 1.0000 0.0000 0.0000
vn 0.7071 0.0000 -0.7071
vn 0.0000 0.0000 -1.0000
vn 0.0000 0.0000 1.0000
vn 0.0000 0.7071 -0.7071
vn 0.5000 0.7071 0.5000
vn 0.0000 0.7071 0.7071
vn -0.5000 0.7071 0.5000
vn -0.5000 0.7071 -0.5000
vn -0.7071 0.7071 0.0000
vn 0.5000 0.7071 -0.5000
vn -0.7071 0.0000 0.7071
vn 0.0000 1.0000 0.0000
vn 0.7071 0.7071 0.0000
vn 0.7071 0.0000 0.7071
vn -0.7071 0.0000 -0.7071
usemtl Steel_-_Satin.032
s 1
f 1/1/1 2/2/1 3/3/1
f 3/3/1 2/2/1 4/4/1
f 5/5/2 18/6/2 20/7/2 3/8/2
f 5/9/1 6/10/1 7/11/1
f 7/11/1 6/10/1 8/12/1
f 4/13/3 11/14/3 10/15/3 6/16/3
f 2/17/4 12/18/4 11/19/4 4/20/4
f 1/21/5 13/22/5 12/23/5 2/24/5
f 8/25/6 9/26/6 16/27/6 7/28/6
f 22/29/7 12/30/7 13/31/7 21/32/7
f 24/33/8 14/34/8 9/35/8 10/36/8
f 15/37/9 16/38/9 9/39/9 14/40/9
f 17/41/10 18/42/10 16/43/10 15/44/10
f 13/45/11 20/46/11 19/47/11 21/48/11
f 19/49/12 20/50/12 18/51/12 17/52/12
f 22/53/13 23/54/13 11/55/13 12/56/13
f 7/57/14 16/58/14 18/59/14 5/60/14
f 15/61/15 14/62/15 17/63/15
f 17/63/15 14/62/15 24/64/15
f 23/65/16 24/66/16 10/67/16 11/68/16
f 19/69/15 23/70/15 21/71/15
f 21/71/15 23/70/15 22/72/15
f 24/64/15 23/70/15 19/69/15 17/63/15
f 6/73/17 10/74/17 9/75/17 8/76/17
f 4/4/1 6/10/1 5/9/1 3/3/1
f 3/77/18 20/78/18 13/79/18 1/80/18
g Button_Base
v 2.095921 -0.769999 -5.060000
v -2.095921 -0.769999 -5.060000
v 5.060000 -0.769999 -2.095921
v -5.060000 -0.769999 -2.095921
v 5.060000 -0.769999 2.095920
v -5.060000 -0.769999 2.095920
v 2.095921 -0.769999 5.060000
v -2.095921 -0.769999 5.060000
v 2.095921 0.990001 5.060000
v -2.095921 0.990001 5.060000
v -5.060000 0.990001 2.095920
v -5.060000 0.990001 -2.095921
v -2.095921 0.990001 -5.060000
v 5.060000 0.990001 2.095920
v 5.060000 0.990001 -2.095921
v 2.095921 0.990001 -5.060000
v 5.500000 -1.209999 -2.278175
v 2.278175 -1.209999 -5.500000
v 5.500000 0.990001 -2.278175
v 2.278175 0.990001 -5.500000
v 5.500000 -1.209999 2.278175
v 5.500000 0.990001 2.278175
v 2.278175 -1.209999 5.500000
v 2.278175 0.990001 5.500000
v -2.278175 -1.209999 5.500000
v -2.278175 0.990001 5.500000
v -5.500000 -1.209999 2.278175
v -5.500000 0.990001 2.278175
v -5.500000 -1.209999 -2.278175
v -5.500000 0.990001 -2.278175
v -2.278175 -1.209999 -5.500000
v -2.278175 0.990001 -5.500000
vt 0.382166 0.741799
vt 0.383320 0.741799
vt 0.381350 0.742615
vt 0.384136 0.742615
vt 0.384257 0.742565
vt 0.384257 0.743819
vt 0.381228 0.743819
vt 0.381228 0.742565
vt 0.381350 0.743769
vt 0.384136 0.743769
vt 0.382166 0.744585
vt 0.383320 0.744585
vt 0.381589 0.743071
vt 0.381589 0.742586
vt 0.382743 0.742586
vt 0.382743 0.743071
vt 0.381589 0.743071
vt 0.381589 0.742586
vt 0.382743 0.742586
vt 0.382743 0.743071
vt 0.381589 0.743071
vt 0.381589 0.742586
vt 0.382743 0.742586
vt 0.382743 0.743071
vt 0.381589 0.743071
vt 0.381589 0.742586
vt 0.382743 0.742586
vt 0.382743 0.743071
vt 0.381589 0.743071
vt 0.381589 0.742586
vt 0.382743 0.742586
vt 0.382743 0.743071
vt 0.381589 0.743071
vt 0.381589 0.742586
vt 0.382743 0.742586
vt 0.382743 0.743071
vt 0.381589 0.743071
vt 0.381589 0.742586
vt 0.382743 0.742586
vt 0.382743 0.743071
vt 0.381488 0.743192
vt 0.381488 0.742586
vt 0.382743 0.742586
vt 0.382743 0.743192
vt 0.381488 0.743192
vt 0.381488 0.742586
vt 0.382743 0.742586
vt 0.382743 0.743192
vt 0.381488 0.743192
vt 0.381488 0.742586
vt 0.382743 0.742586
vt 0.382743 0.743192
vt 0.381488 0.743192
vt 0.381488 0.742586
vt 0.382743 0.742586
vt 0.382743 0.743192
vt 0.381488 0.743192
vt 0.381488 0.742586
vt 0.382743 0.742586
vt 0.382743 0.743192
vt 0.381488 0.743192
vt 0.381488 0.742586
vt 0.382743 0.742586
vt 0.382743 0.743192
vt 0.382166 0.744585
vt 0.382116 0.744707
vt 0.381228 0.743819
vt 0.381350 0.743769
vt 0.381488 0.743192
vt 0.381488 0.742586
vt 0.382743 0.742586
vt 0.382743 0.743192
vt 0.383320 0.744585
vt 0.383370 0.744707
vt 0.381350 0.742615
vt 0.381228 0.742565
vt 0.382116 0.741678
vt 0.382166 0.741799
vt 0.384257 0.743819
vt 0.384136 0.743769
vt 0.384136 0.742615
vt 0.384257 0.742565
vt 0.383370 0.741678
vt 0.383320 0.741799
vt 0.382116 0.741678
vt 0.383370 0.741678
vt 0.381589 0.743071
vt 0.381589 0.742586
vt 0.382743 0.742586
vt 0.382743 0.743071
vt 0.382116 0.744707
vt 0.383370 0.744707
vt 0.381488 0.743192
vt 0.381488 0.742586
vt 0.382743 0.742586
vt 0.382743 0.743192
vn 0.0000 1.0000 0.0000
vn 0.0000 -1.0000 -0.0000
vn 0.7071 0.0000 -0.7071
vn 1.0000 0.0000 0.0000
vn 0.7071 0.0000 0.7071
vn -0.7071 0.0000 -0.7071
vn -1.0000 0.0000 0.0000
vn -0.7071 0.0000 0.7071
vn 0.0000 0.0000 1.0000
vn 0.0000 0.0000 -1.0000
usemtl Steel_-_Satin.033
s 1
f 25/81/19 26/82/19 27/83/19
f 27/83/19 26/82/19 28/84/19
f 41/85/20 45/86/20 51/87/20 53/88/20
f 29/89/19 30/90/19 31/91/19
f 31/91/19 30/90/19 32/92/19
f 30/93/21 35/94/21 34/95/21 32/96/21
f 28/97/22 36/98/22 35/99/22 30/100/22
f 26/101/23 37/102/23 36/103/23 28/104/23
f 31/105/24 33/106/24 38/107/24 29/108/24
f 29/109/25 38/110/25 39/111/25 27/112/25
f 27/113/26 39/114/26 40/115/26 25/116/26
f 25/117/27 40/118/27 37/119/27 26/120/27
f 42/121/21 44/122/21 43/123/21 41/124/21
f 41/125/22 43/126/22 46/127/22 45/128/22
f 45/129/23 46/130/23 48/131/23 47/132/23
f 47/133/27 48/134/27 50/135/27 49/136/27
f 55/137/28 56/138/28 44/139/28 42/140/28
f 28/84/19 30/90/19 29/89/19 27/83/19
f 53/141/24 54/142/24 56/143/24 55/144/24
f 33/145/19 48/146/19 46/147/19 38/148/19
f 51/149/25 52/150/25 54/151/25 53/152/25
f 48/146/19 33/145/19 34/153/19 50/154/19
f 39/155/19 38/148/19 46/147/19 43/156/19
f 43/156/19 44/157/19 40/158/19 39/155/19
f 52/159/19 35/160/19 36/161/19 54/162/19
f 40/158/19 44/157/19 56/163/19 37/164/19
f 54/162/19 36/161/19 37/164/19 56/163/19
f 52/159/19 50/154/19 34/153/19 35/160/19
f 55/165/20 42/166/20 53/88/20
f 53/88/20 42/166/20 41/85/20
f 32/167/28 34/168/28 33/169/28 31/170/28
f 51/87/20 45/86/20 49/171/20
f 49/171/20 45/86/20 47/172/20
f 49/173/26 50/174/26 52/175/26 51/176/26
