# Blender v2.93.0 OBJ File: 'w1 EXPORT FILE extra.blend'
# www.blender.org
mtllib Button.mtl
g Button
v -2.105537 0.842200 -5.083216
v 2.105537 0.842200 -5.083216
v -5.083216 0.842200 -2.105537
v 5.083216 0.842200 -2.105537
v -5.083216 0.842200 2.105536
v 5.083216 0.842200 2.105536
v -2.105537 0.842200 5.083216
v 2.105537 0.842200 5.083216
v 2.048405 2.017262 4.945288
v 4.945288 2.017262 2.048405
v 4.945288 2.017262 -2.048406
v 2.048405 2.017262 -4.945288
v -2.048405 2.017262 -4.945288
v 1.692161 2.877312 4.085238
v -1.692161 2.877312 4.085238
v -2.048405 2.017262 4.945288
v -4.085238 2.877312 1.692161
v -4.945288 2.017262 2.048405
v -4.085238 2.877312 -1.692161
v -4.945288 2.017262 -2.048406
v -1.692161 2.877312 -4.085238
v 1.692161 2.877312 -4.085238
v 4.085237 2.877312 -1.692161
v 4.085237 2.877312 1.692161
vt 0.774200 0.856030
vt 0.772941 0.856030
vt 0.775091 0.855139
vt 0.772050 0.855139
vt 0.775091 0.853880
vt 0.772050 0.853880
vt 0.774200 0.852989
vt 0.772941 0.852989
vt 0.774830 0.854774
vt 0.774830 0.855104
vt 0.773570 0.855104
vt 0.773570 0.854774
vt 0.774830 0.854774
vt 0.774830 0.855104
vt 0.773570 0.855104
vt 0.773570 0.854774
vt 0.774830 0.854774
vt 0.774830 0.855104
vt 0.773570 0.855104
vt 0.773570 0.854774
vt 0.774830 0.854774
vt 0.774830 0.855104
vt 0.773570 0.855104
vt 0.773570 0.854774
vt 0.774830 0.854774
vt 0.774830 0.855104
vt 0.773570 0.855104
vt 0.773570 0.854774
vt 0.773776 0.854323
vt 0.773885 0.854696
vt 0.772626 0.854696
vt 0.772735 0.854323
vt 0.773900 0.855299
vt 0.773299 0.854450
vt 0.773541 0.854144
vt 0.774268 0.855173
vt 0.773365 0.854696
vt 0.773256 0.854323
vt 0.774515 0.854323
vt 0.774405 0.854696
vt 0.773604 0.854785
vt 0.773236 0.854659
vt 0.773963 0.853630
vt 0.774205 0.853936
vt 0.773600 0.854874
vt 0.772872 0.853846
vt 0.773241 0.853720
vt 0.773842 0.854569
vt 0.773757 0.854715
vt 0.773383 0.854824
vt 0.773383 0.853565
vt 0.773757 0.853674
vt 0.772936 0.855083
vt 0.773536 0.854234
vt 0.773905 0.854360
vt 0.773178 0.855389
vt 0.774830 0.854774
vt 0.774830 0.855104
vt 0.773570 0.855104
vt 0.773570 0.854774
vt 0.773050 0.853254
vt 0.774091 0.853254
vt 0.772315 0.853989
vt 0.774826 0.853989
vt 0.772315 0.855030
vt 0.774826 0.855030
vt 0.773050 0.855765
vt 0.774091 0.855765
vt 0.773383 0.855345
vt 0.773383 0.854304
vt 0.773757 0.854195
vt 0.773757 0.855454
vt 0.774830 0.854774
vt 0.774830 0.855104
vt 0.773570 0.855104
vt 0.773570 0.854774
vt 0.774830 0.854774
vt 0.774830 0.855104
vt 0.773570 0.855104
vt 0.773570 0.854774
vn 0.0000 -1.0000 0.0000
vn -0.9932 0.1166 0.0000
vn 0.9932 0.1166 0.0000
vn 0.7023 0.1166 -0.7023
vn 0.0000 0.1166 -0.9932
vn 0.0000 0.1166 0.9932
vn 0.0000 0.7071 -0.7071
vn 0.5000 0.7071 0.5000
vn 0.0000 0.7071 0.7071
vn -0.5000 0.7071 0.5000
vn -0.5000 0.7071 -0.5000
vn -0.7071 0.7071 0.0000
vn 0.5000 0.7071 -0.5000
vn -0.7023 0.1166 0.7023
vn 0.0000 1.0000 0.0000
vn 0.7071 0.7071 0.0000
vn 0.7023 0.1166 0.7023
vn -0.7023 0.1166 -0.7023
usemtl Material
s 1
f 1/1/1 2/2/1 3/3/1
f 3/3/1 2/2/1 4/4/1
f 5/5/1 6/6/1 7/7/1
f 7/7/1 6/6/1 8/8/1
f 4/4/1 6/6/1 5/5/1 3/3/1
s 2
f 5/9/2 18/10/2 20/11/2 3/12/2
s 3
f 4/13/3 11/14/3 10/15/3 6/16/3
s 4
f 2/17/4 12/18/4 11/19/4 4/20/4
s 5
f 1/21/5 13/22/5 12/23/5 2/24/5
s 6
f 8/25/6 9/26/6 16/27/6 7/28/6
s 7
f 22/29/7 12/30/7 13/31/7 21/32/7
s 8
f 24/33/8 14/34/8 9/35/8 10/36/8
s 9
f 15/37/9 16/38/9 9/39/9 14/40/9
s 10
f 17/41/10 18/42/10 16/43/10 15/44/10
s 11
f 13/45/11 20/46/11 19/47/11 21/48/11
s 12
f 19/49/12 20/50/12 18/51/12 17/52/12
s 13
f 22/53/13 23/54/13 11/55/13 12/56/13
s 14
f 7/57/14 16/58/14 18/59/14 5/60/14
s 15
f 15/61/15 14/62/15 17/63/15
f 17/63/15 14/62/15 24/64/15
f 19/65/15 23/66/15 21/67/15
f 21/67/15 23/66/15 22/68/15
f 24/64/15 23/66/15 19/65/15 17/63/15
s 16
f 23/69/16 24/70/16 10/71/16 11/72/16
s 17
f 6/73/17 10/74/17 9/75/17 8/76/17
s 18
f 3/77/18 20/78/18 13/79/18 1/80/18
g Button_Base
v 2.095921 -0.769999 -5.060000
v -2.095921 -0.769999 -5.060000
v 5.060000 -0.769999 -2.095921
v -5.060000 -0.769999 -2.095921
v 5.060000 -0.769999 2.095920
v -5.060000 -0.769999 2.095920
v 2.095921 -0.769999 5.060000
v -2.095921 -0.769999 5.060000
v 2.095921 0.990001 5.060000
v -2.095921 0.990001 5.060000
v -5.060000 0.990001 2.095920
v -5.060000 0.990001 -2.095921
v -2.095921 0.990001 -5.060000
v 5.060000 0.990001 2.095920
v 5.060000 0.990001 -2.095921
v 2.095921 0.990001 -5.060000
v 5.500000 -1.209999 -2.278175
v 2.278175 -1.209999 -5.500000
v 5.500000 0.990001 -2.278175
v 2.278175 0.990001 -5.500000
v 5.500000 -1.209999 2.278175
v 5.500000 0.990001 2.278175
v 2.278175 -1.209999 5.500000
v 2.278175 0.990001 5.500000
v -2.278175 -1.209999 5.500000
v -2.278175 0.990001 5.500000
v -5.500000 -1.209999 2.278175
v -5.500000 0.990001 2.278175
v -5.500000 -1.209999 -2.278175
v -5.500000 0.990001 -2.278175
v -2.278175 -1.209999 -5.500000
v -2.278175 0.990001 -5.500000
vt 0.845630 0.206333
vt 0.846784 0.206333
vt 0.844813 0.207149
vt 0.847600 0.207149
vt 0.844813 0.208303
vt 0.847600 0.208303
vt 0.845630 0.209119
vt 0.846784 0.209119
vt 0.847721 0.207099
vt 0.847721 0.208353
vt 0.844692 0.208353
vt 0.844692 0.207099
vt 0.845579 0.206212
vt 0.846834 0.206212
vt 0.845579 0.209240
vt 0.846834 0.209240
vt 0.845052 0.207605
vt 0.845052 0.207120
vt 0.846207 0.207120
vt 0.846207 0.207605
vt 0.845052 0.207605
vt 0.845052 0.207120
vt 0.846207 0.207120
vt 0.846207 0.207605
vt 0.845052 0.207605
vt 0.845052 0.207120
vt 0.846207 0.207120
vt 0.846207 0.207605
vt 0.845052 0.207605
vt 0.845052 0.207120
vt 0.846207 0.207120
vt 0.846207 0.207605
vt 0.845052 0.207605
vt 0.845052 0.207120
vt 0.846207 0.207120
vt 0.846207 0.207605
vt 0.845052 0.207605
vt 0.845052 0.207120
vt 0.846207 0.207120
vt 0.846207 0.207605
vt 0.845052 0.207605
vt 0.845052 0.207120
vt 0.846207 0.207120
vt 0.846207 0.207605
vt 0.844952 0.207726
vt 0.844952 0.207120
vt 0.846207 0.207120
vt 0.846207 0.207726
vt 0.844952 0.207726
vt 0.844952 0.207120
vt 0.846207 0.207120
vt 0.846207 0.207726
vt 0.844952 0.207726
vt 0.844952 0.207120
vt 0.846207 0.207120
vt 0.846207 0.207726
vt 0.844952 0.207726
vt 0.844952 0.207120
vt 0.846207 0.207120
vt 0.846207 0.207726
vt 0.844952 0.207726
vt 0.844952 0.207120
vt 0.846207 0.207120
vt 0.846207 0.207726
vt 0.844952 0.207726
vt 0.844952 0.207120
vt 0.846207 0.207120
vt 0.846207 0.207726
vt 0.845630 0.209119
vt 0.845579 0.209240
vt 0.844692 0.208353
vt 0.844813 0.208303
vt 0.846784 0.209119
vt 0.846834 0.209240
vt 0.844813 0.207149
vt 0.844692 0.207099
vt 0.845579 0.206212
vt 0.845630 0.206333
vt 0.847721 0.208353
vt 0.847600 0.208303
vt 0.847600 0.207149
vt 0.847721 0.207099
vt 0.846834 0.206212
vt 0.846784 0.206333
vt 0.844952 0.207726
vt 0.844952 0.207120
vt 0.846207 0.207120
vt 0.846207 0.207726
vt 0.845052 0.207605
vt 0.845052 0.207120
vt 0.846207 0.207120
vt 0.846207 0.207605
vt 0.844952 0.207726
vt 0.844952 0.207120
vt 0.846207 0.207120
vt 0.846207 0.207726
vn 0.0000 1.0000 0.0000
vn 0.0000 -1.0000 -0.0000
vn 0.7071 0.0000 -0.7071
vn 1.0000 0.0000 0.0000
vn 0.7071 0.0000 0.7071
vn -0.7071 0.0000 -0.7071
vn -1.0000 0.0000 0.0000
vn -0.7071 0.0000 0.7071
vn 0.0000 0.0000 1.0000
vn 0.0000 0.0000 -1.0000
usemtl Material
s 1
f 25/81/19 26/82/19 27/83/19
f 27/83/19 26/82/19 28/84/19
f 29/85/19 30/86/19 31/87/19
f 31/87/19 30/86/19 32/88/19
f 28/84/19 30/86/19 29/85/19 27/83/19
s 2
f 41/89/20 45/90/20 51/91/20 53/92/20
f 55/93/20 42/94/20 53/92/20
f 53/92/20 42/94/20 41/89/20
f 51/91/20 45/90/20 49/95/20
f 49/95/20 45/90/20 47/96/20
s 3
f 30/97/21 35/98/21 34/99/21 32/100/21
s 4
f 28/101/22 36/102/22 35/103/22 30/104/22
s 5
f 26/105/23 37/106/23 36/107/23 28/108/23
s 6
f 31/109/24 33/110/24 38/111/24 29/112/24
s 7
f 29/113/25 38/114/25 39/115/25 27/116/25
s 8
f 27/117/26 39/118/26 40/119/26 25/120/26
s 9
f 25/121/27 40/122/27 37/123/27 26/124/27
s 10
f 42/125/21 44/126/21 43/127/21 41/128/21
s 11
f 41/129/22 43/130/22 46/131/22 45/132/22
s 12
f 45/133/23 46/134/23 48/135/23 47/136/23
s 13
f 47/137/27 48/138/27 50/139/27 49/140/27
s 14
f 55/141/28 56/142/28 44/143/28 42/144/28
s 15
f 53/145/24 54/146/24 56/147/24 55/148/24
s 16
f 33/149/19 48/150/19 46/151/19 38/152/19
f 48/150/19 33/149/19 34/153/19 50/154/19
f 39/155/19 38/152/19 46/151/19 43/156/19
f 43/156/19 44/157/19 40/158/19 39/155/19
f 52/159/19 35/160/19 36/161/19 54/162/19
f 40/158/19 44/157/19 56/163/19 37/164/19
f 54/162/19 36/161/19 37/164/19 56/163/19
f 52/159/19 50/154/19 34/153/19 35/160/19
s 17
f 51/165/25 52/166/25 54/167/25 53/168/25
s 18
f 32/169/28 34/170/28 33/171/28 31/172/28
s 19
f 49/173/26 50/174/26 52/175/26 51/176/26
