# Blender v2.93.0 OBJ File: 'w1 EXPORT FILE extra.blend'
# www.blender.org
mtllib Caution Sign.mtl
g Caution_Sign_Frame
v -3.240000 3.377333 -0.000000
v 3.240000 3.377333 -0.000000
v -0.000000 8.885333 -0.000001
v -1.620000 6.131333 -0.000001
v 0.000000 3.377333 -0.000000
v 1.620000 6.131333 -0.000001
v -0.810000 7.508333 -0.000001
v 1.620000 3.377333 -0.000000
v 0.810000 7.508333 -0.000001
v -2.430000 4.754333 -0.000001
v -1.620000 3.377333 -0.000000
v 2.430000 4.754333 -0.000001
v -1.863000 4.157633 -0.000001
v -0.000000 7.324734 -0.000001
v 1.863000 4.157633 -0.000001
v -3.240000 3.377333 0.720000
v 3.240000 3.377333 0.720000
v -0.000000 8.885333 0.719999
v -1.620000 6.131333 0.719999
v 0.000000 3.377333 0.720000
v 1.620000 6.131333 0.719999
v -0.810000 7.508333 0.719999
v 1.620000 3.377333 0.720000
v 0.810000 7.508333 0.719999
v -2.430000 4.754333 0.719999
v -1.620000 3.377333 0.720000
v 2.430000 4.754333 0.719999
v -1.863000 4.157633 0.719999
v -0.000000 7.324734 0.719999
v 1.863000 4.157633 0.719999
vt 0.394844 0.351100
vt 0.394844 0.351100
vt 0.394844 0.351100
vt 0.394844 0.351100
vt 0.394844 0.351100
vt 0.394844 0.351100
vt 0.394844 0.351100
vt 0.394844 0.351100
vt 0.394844 0.351100
vt 0.394844 0.351100
vt 0.394844 0.351100
vt 0.394844 0.351100
vt 0.394844 0.351100
vt 0.394844 0.351100
vt 0.394844 0.351100
vt 0.394844 0.351100
vt 0.394844 0.351100
vt 0.394844 0.351100
vt 0.394844 0.351100
vt 0.394844 0.351100
vt 0.394844 0.351100
vt 0.394844 0.351100
vt 0.394844 0.351100
vt 0.394844 0.351100
vt 0.394844 0.351100
vt 0.394844 0.351100
vt 0.394844 0.351100
vt 0.394844 0.351100
vt 0.394844 0.351100
vt 0.394844 0.351100
vn 0.0000 0.0000 1.0000
vn 0.0000 -0.0000 -1.0000
vn 0.0000 -1.0000 0.0000
vn -0.8619 -0.5070 0.0000
vn -0.8619 0.5070 0.0000
vn 0.8619 -0.5070 0.0000
vn 0.8619 0.5070 0.0000
vn 0.0000 1.0000 0.0000
usemtl Material
s off
f 3/1/1 7/2/1 9/3/1
f 4/4/1 10/5/1 13/6/1
f 4/4/1 13/6/1 14/7/1
f 6/8/1 15/9/1 12/10/1
f 15/9/1 5/11/1 8/12/1
f 15/9/1 8/12/1 12/10/1
f 12/10/1 8/12/1 2/13/1
f 13/6/1 5/11/1 15/9/1
f 14/7/1 15/9/1 6/8/1
f 10/5/1 1/14/1 11/15/1
f 10/5/1 11/15/1 13/6/1
f 13/6/1 11/15/1 5/11/1
f 7/2/1 4/4/1 14/7/1
f 7/2/1 14/7/1 9/3/1
f 9/3/1 14/7/1 6/8/1
f 18/16/2 24/17/2 22/18/2
f 19/19/2 28/20/2 25/21/2
f 19/19/2 29/22/2 28/20/2
f 21/23/2 27/24/2 30/25/2
f 30/25/2 23/26/2 20/27/2
f 30/25/2 27/24/2 23/26/2
f 27/24/2 17/28/2 23/26/2
f 28/20/2 30/25/2 20/27/2
f 29/22/2 21/23/2 30/25/2
f 25/21/2 26/29/2 16/30/2
f 25/21/2 28/20/2 26/29/2
f 28/20/2 20/27/2 26/29/2
f 22/18/2 29/22/2 19/19/2
f 22/18/2 24/17/2 29/22/2
f 24/17/2 21/23/2 29/22/2
f 13/6/3 15/9/3 30/25/3 28/20/3
f 12/10/4 2/13/4 17/28/4 27/24/4
f 14/7/5 13/6/5 28/20/5 29/22/5
f 7/2/6 3/1/6 18/16/6 22/18/6
f 15/9/7 14/7/7 29/22/7 30/25/7
f 2/13/8 8/12/8 23/26/8 17/28/8
f 4/4/6 7/2/6 22/18/6 19/19/6
f 3/1/4 9/3/4 24/17/4 18/16/4
f 8/12/8 5/11/8 20/27/8 23/26/8
f 10/5/6 4/4/6 19/19/6 25/21/6
f 9/3/4 6/8/4 21/23/4 24/17/4
f 5/11/8 11/15/8 26/29/8 20/27/8
f 1/14/6 10/5/6 25/21/6 16/30/6
f 6/8/4 12/10/4 27/24/4 21/23/4
f 11/15/8 1/14/8 16/30/8 26/29/8
g Caution_Sign_Ex_1
v -0.078000 4.259333 -0.000001
v 0.078000 4.259333 -0.000001
v 0.078000 4.727333 -0.000001
v -0.078000 4.727333 -0.000001
v -0.234000 4.571333 -0.000001
v -0.234000 4.415333 -0.000001
v 0.234000 4.415333 -0.000001
v 0.234000 4.571333 -0.000001
v -0.078000 4.415333 -0.000001
v -0.078000 4.571333 -0.000001
v 0.078000 4.415333 -0.000001
v 0.078000 4.571333 -0.000001
v -0.078000 4.259333 0.720000
v 0.078000 4.259333 0.720000
v 0.078000 4.727333 0.720000
v -0.078000 4.727333 0.720000
v -0.234000 4.571333 0.720000
v -0.234000 4.415333 0.720000
v 0.234000 4.415333 0.720000
v 0.234000 4.571333 0.720000
v -0.078000 4.415333 0.720000
v -0.078000 4.571333 0.720000
v 0.078000 4.415333 0.720000
v 0.078000 4.571333 0.720000
vt 0.212105 0.361783
vt 0.212105 0.361783
vt 0.212105 0.361783
vt 0.212105 0.361783
vt 0.212105 0.361783
vt 0.212105 0.361783
vt 0.212105 0.361783
vt 0.212105 0.361783
vt 0.212105 0.361783
vt 0.212105 0.361783
vt 0.212105 0.361783
vt 0.212105 0.361783
vt 0.212105 0.361783
vt 0.212105 0.361783
vt 0.212105 0.361783
vt 0.212105 0.361783
vt 0.212105 0.361783
vt 0.212105 0.361783
vt 0.212105 0.361783
vt 0.212105 0.361783
vt 0.212105 0.361783
vt 0.212105 0.361783
vt 0.212105 0.361783
vt 0.212105 0.361783
vn 0.0000 -0.0000 -1.0000
vn 0.0000 0.0000 1.0000
vn 0.0000 1.0000 0.0000
vn 0.0000 -1.0000 0.0000
vn -0.7071 0.7071 0.0000
vn 1.0000 -0.0000 0.0000
vn 0.7071 0.7071 0.0000
vn -0.7071 -0.7071 0.0000
vn 0.7071 -0.7071 0.0000
vn -1.0000 -0.0000 0.0000
usemtl Material
s off
f 40/31/9 34/32/9 33/33/9 42/34/9
f 31/35/9 39/36/9 41/37/9 32/38/9
f 39/36/9 40/31/9 42/34/9 41/37/9
f 36/39/9 35/40/9 40/31/9 39/36/9
f 41/37/9 42/34/9 38/41/9 37/42/9
f 34/32/9 40/31/9 35/40/9
f 42/34/9 33/33/9 38/41/9
f 37/42/9 32/38/9 41/37/9
f 36/39/9 39/36/9 31/35/9
f 52/43/10 54/44/10 45/45/10 46/46/10
f 43/47/10 44/48/10 53/49/10 51/50/10
f 51/50/10 53/49/10 54/44/10 52/43/10
f 48/51/10 51/50/10 52/43/10 47/52/10
f 53/49/10 49/53/10 50/54/10 54/44/10
f 46/46/10 47/52/10 52/43/10
f 54/44/10 50/54/10 45/45/10
f 49/53/10 53/49/10 44/48/10
f 48/51/10 43/47/10 51/50/10
f 33/33/11 34/32/11 46/46/11 45/45/11
f 31/35/12 32/38/12 44/48/12 43/47/12
f 34/32/13 35/40/13 47/52/13 46/46/13
f 37/42/14 38/41/14 50/54/14 49/53/14
f 38/41/15 33/33/15 45/45/15 50/54/15
f 36/39/16 31/35/16 43/47/16 48/51/16
f 32/38/17 37/42/17 49/53/17 44/48/17
f 35/40/18 36/39/18 48/51/18 47/52/18
g Caution_Sign_Ex_2
v 0.124800 4.781333 -0.000001
v -0.124800 4.781333 -0.000001
v 0.306000 6.581332 -0.000001
v -0.306000 6.581332 -0.000001
v 0.124800 4.781333 0.720000
v -0.124800 4.781333 0.720000
v 0.306000 6.581332 0.719999
v -0.306000 6.581332 0.719999
vt 0.213001 0.363100
vt 0.213001 0.363100
vt 0.213001 0.363100
vt 0.213001 0.363100
vt 0.213001 0.363100
vt 0.213001 0.363100
vt 0.213001 0.363100
vt 0.213001 0.363100
vn 0.0000 0.0000 -1.0000
vn 0.0000 0.0000 1.0000
vn 0.9950 -0.1002 0.0000
vn 0.0000 -1.0000 0.0000
vn -0.9950 -0.1002 0.0000
vn 0.0000 1.0000 0.0000
usemtl Material
s off
f 56/55/19 58/56/19 57/57/19 55/58/19
f 60/59/20 59/60/20 61/61/20 62/62/20
f 55/58/21 57/57/21 61/61/21 59/60/21
f 56/55/22 55/58/22 59/60/22 60/59/22
f 58/56/23 56/55/23 60/59/23 62/62/23
f 57/57/24 58/56/24 62/62/24 61/61/24
