# Blender v2.90.1 OBJ File: 'w1 EXPORT FILE.blend'
# www.blender.org
mtllib Police light strip.mtl
g Police_light_strip_Police_light_strip_v1
v -2.618045 0.334219 0.111406
v -2.618045 0.334219 -0.111406
v -2.785154 -0.111406 0.278515
v -2.785154 -0.111406 -0.278515
v 2.618045 0.334219 -0.111406
v 2.785154 -0.111406 -0.278515
v 2.618045 0.334219 0.111406
v 2.785154 -0.111406 0.278515
v 2.785154 -0.222812 0.278515
v -2.785154 -0.222812 0.278515
v -2.785154 -0.222812 -0.278515
v 2.785154 -0.222812 -0.278515
vt 0.208166 0.754238
vt 0.207693 0.754404
vt 0.207693 0.748860
vt 0.208166 0.749027
vt 0.207693 0.757010
vt 0.207693 0.751799
vt 0.208166 0.751632
vt 0.208166 0.757176
vt 0.208166 0.752991
vt 0.207693 0.753157
vt 0.207693 0.752603
vt 0.208166 0.752769
vt 0.842461 0.190502
vt 0.842461 0.190391
vt 0.843015 0.190391
vt 0.843015 0.190502
vt 0.845233 0.190114
vt 0.845233 0.190668
vt 0.839689 0.190668
vt 0.839689 0.190114
vt 0.842461 0.190502
vt 0.842461 0.190391
vt 0.843015 0.190391
vt 0.843015 0.190502
vt 0.210535 0.752907
vt 0.210535 0.753129
vt 0.205324 0.753129
vt 0.205324 0.752907
vt 0.842461 0.190502
vt 0.842461 0.190391
vt 0.848005 0.190391
vt 0.848005 0.190502
vt 0.208166 0.752880
vt 0.208166 0.753434
vt 0.207693 0.753268
vt 0.207693 0.753046
vt 0.842461 0.190502
vt 0.842461 0.190391
vt 0.848005 0.190391
vt 0.848005 0.190502
vn 0.0000 0.3511 -0.9363
vn 0.0000 0.3511 0.9363
vn -0.9363 0.3511 0.0000
vn 1.0000 0.0000 0.0000
vn 0.0000 -1.0000 0.0000
vn -1.0000 0.0000 0.0000
vn 0.0000 1.0000 0.0000
vn 0.0000 0.0000 -1.0000
vn 0.9363 0.3511 0.0000
vn 0.0000 0.0000 1.0000
usemtl Steel_-_Satin.030
s 1
f 5/1/1 6/2/1 4/3/1 2/4/1
f 7/5/2 1/6/2 3/7/2 8/8/2
f 2/9/3 4/10/3 3/11/3 1/12/3
f 8/13/4 9/14/4 12/15/4 6/16/4
f 10/17/5 11/18/5 12/19/5 9/20/5
f 4/21/6 11/22/6 10/23/6 3/24/6
f 7/25/7 5/26/7 2/27/7 1/28/7
f 6/29/8 12/30/8 11/31/8 4/32/8
f 8/33/9 6/34/9 5/35/9 7/36/9
f 3/37/10 10/38/10 9/39/10 8/40/10
