# Blender v2.93.0 OBJ File: 'w1 EXPORT FILE extra.blend'
# www.blender.org
mtllib Police Lights.mtl
g Police_Light_1_Light_Police_Light_v0.003
v -1.480385 0.000000 0.300000
v -2.000000 0.000000 0.600000
v -2.519615 0.000000 0.300000
v -2.519615 0.000000 -0.300000
v -2.000000 0.000000 -0.600000
v -1.480385 0.000000 -0.300000
v -2.000000 0.600000 0.392154
v -2.339615 0.600000 0.196077
v -2.000000 0.300000 0.600000
v -2.519615 0.300000 0.300000
v -2.339615 0.600000 -0.196077
v -2.519615 0.300000 -0.300000
v -2.000000 0.600000 -0.392154
v -2.000000 0.300000 -0.600000
v -1.660385 0.600000 -0.196077
v -1.480385 0.300000 -0.300000
v -1.480385 0.300000 0.300000
v -1.660385 0.600000 0.196077
vt 0.000000 0.000000
vt 0.000000 0.000000
vt 0.000000 0.000000
vt 0.000000 0.000000
vt 0.000000 0.000000
vt 0.000000 0.000000
vt 0.389201 0.350219
vt 0.389201 0.349723
vt 0.390194 0.349723
vt 0.390194 0.350219
vt 0.389490 0.349799
vt 0.388911 0.349971
vt 0.388911 0.348978
vt 0.389490 0.349150
vt 0.388911 0.350295
vt 0.388911 0.349646
vt 0.389490 0.349474
vt 0.389490 0.350467
vt 0.389366 0.350343
vt 0.388934 0.349858
vt 0.389252 0.349345
vt 0.389912 0.350086
vt 0.389468 0.349587
vt 0.389150 0.350100
vt 0.388489 0.349359
vt 0.389036 0.349102
vt 0.389366 0.349972
vt 0.388820 0.349715
vt 0.389480 0.348974
vt 0.389798 0.349488
vt 0.389201 0.350219
vt 0.389201 0.349723
vt 0.390194 0.349723
vt 0.390194 0.350219
vt 0.389582 0.349730
vt 0.388922 0.350471
vt 0.388604 0.349957
vt 0.389035 0.349473
vt 0.389201 0.349074
vt 0.389763 0.349398
vt 0.389201 0.350371
vt 0.388639 0.350047
vt 0.388639 0.349398
vt 0.389201 0.350219
vt 0.389201 0.349723
vt 0.390194 0.349723
vt 0.390194 0.350219
vt 0.389763 0.350047
vt 0.389201 0.350219
vt 0.389201 0.349723
vt 0.390194 0.349723
vt 0.390194 0.350219
vt 0.389201 0.350219
vt 0.389201 0.349723
vt 0.390194 0.349723
vt 0.390194 0.350219
vt 0.389201 0.350219
vt 0.389201 0.349723
vt 0.390194 0.349723
vt 0.390194 0.350219
vn 0.0000 -1.0000 0.0000
vn -0.5000 0.0000 -0.8660
vn -0.5830 0.1019 -0.8060
vn -0.4065 0.1019 -0.9079
vn -0.8575 0.5145 0.0000
vn 0.8575 0.5145 0.0000
vn 0.4287 0.5145 0.7426
vn -0.4287 0.5145 -0.7426
vn -0.4287 0.5145 0.7426
vn -1.0000 0.0000 0.0000
vn -0.9896 0.1019 0.1019
vn -0.9896 0.1019 -0.1019
vn 0.4287 0.5145 -0.7426
vn 0.0000 1.0000 0.0000
vn 0.5000 0.0000 0.8660
vn 0.5830 0.1019 0.8060
vn 0.4065 0.1019 0.9079
vn -0.5000 0.0000 0.8660
vn -0.4065 0.1019 0.9079
vn -0.5830 0.1019 0.8060
vn 1.0000 0.0000 0.0000
vn 0.9896 0.1019 -0.1019
vn 0.9896 0.1019 0.1019
vn 0.5000 0.0000 -0.8660
vn 0.4065 0.1019 -0.9079
vn 0.5830 0.1019 -0.8060
usemtl Steel_-_Satin.095
s off
f 6/1/1 4/2/1 5/3/1
f 1/4/1 4/2/1 6/1/1
f 1/4/1 3/5/1 4/2/1
f 2/6/1 3/5/1 1/4/1
s 1
f 14/7/2 5/8/3 4/9/4 12/10/2
f 11/11/5 12/12/5 10/13/5 8/14/5
f 15/15/6 18/16/6 17/17/6 16/18/6
f 18/19/7 7/20/7 9/21/7 17/22/7
f 13/23/8 14/24/8 12/25/8 11/26/8
f 8/27/9 10/28/9 9/29/9 7/30/9
f 12/31/10 4/32/11 3/33/12 10/34/10
f 16/35/13 14/36/13 13/37/13 15/38/13
f 7/39/14 18/40/14 13/41/14 11/42/14
f 8/43/14 7/39/14 11/42/14
f 9/44/15 2/45/16 1/46/17 17/47/15
f 13/41/14 18/40/14 15/48/14
f 10/49/18 3/50/19 2/51/20 9/52/18
f 17/53/21 1/54/22 6/55/23 16/56/21
f 16/57/24 6/58/25 5/59/26 14/60/24
g Police_Light_2_Light_Police_Light_v0.002
v 2.501883 -0.032348 0.294224
v 1.982267 -0.032348 0.594224
v 1.462652 -0.032348 0.294224
v 1.462652 -0.032348 -0.305776
v 1.982267 -0.032348 -0.605776
v 2.501883 -0.032348 -0.305776
v 1.982267 0.567652 0.386378
v 1.642652 0.567652 0.190301
v 1.982267 0.267652 0.594224
v 1.462652 0.267652 0.294224
v 1.642652 0.567652 -0.201853
v 1.462652 0.267652 -0.305776
v 1.982267 0.567652 -0.397930
v 1.982267 0.267652 -0.605776
v 2.321883 0.567652 -0.201853
v 2.501883 0.267652 -0.305776
v 2.501883 0.267652 0.294224
v 2.321883 0.567652 0.190301
vt 0.000000 0.000000
vt 0.000000 0.000000
vt 0.000000 0.000000
vt 0.000000 0.000000
vt 0.000000 0.000000
vt 0.000000 0.000000
vt 0.209315 0.742401
vt 0.209315 0.742401
vt 0.209315 0.742401
vt 0.209315 0.742401
vt 0.209315 0.742401
vt 0.209315 0.742401
vt 0.209315 0.742401
vt 0.209315 0.742401
vt 0.209315 0.742401
vt 0.209315 0.742401
vt 0.209315 0.742401
vt 0.209315 0.742401
vt 0.209315 0.742401
vt 0.209315 0.742401
vt 0.209315 0.742401
vt 0.209315 0.742401
vt 0.209315 0.742401
vt 0.209315 0.742401
vn 0.0000 -1.0000 0.0000
vn -0.5000 0.0000 -0.8660
vn -0.5830 0.1019 -0.8060
vn -0.4065 0.1019 -0.9079
vn -0.8575 0.5145 0.0000
vn 0.8575 0.5145 0.0000
vn 0.4287 0.5145 0.7426
vn -0.4287 0.5145 -0.7426
vn -0.4287 0.5145 0.7426
vn -1.0000 0.0000 0.0000
vn -0.9896 0.1019 0.1019
vn -0.9896 0.1019 -0.1019
vn 0.4287 0.5145 -0.7426
vn 0.0000 1.0000 0.0000
vn 0.5000 0.0000 0.8660
vn 0.5830 0.1019 0.8060
vn 0.4065 0.1019 0.9079
vn -0.5000 0.0000 0.8660
vn -0.4065 0.1019 0.9079
vn -0.5830 0.1019 0.8060
vn 1.0000 0.0000 0.0000
vn 0.9896 0.1019 -0.1019
vn 0.9896 0.1019 0.1019
vn 0.5000 0.0000 -0.8660
vn 0.4065 0.1019 -0.9079
vn 0.5830 0.1019 -0.8060
usemtl Steel_-_Satin.093
s off
f 24/61/27 22/62/27 23/63/27
f 19/64/27 22/62/27 24/61/27
f 19/64/27 21/65/27 22/62/27
f 20/66/27 21/65/27 19/64/27
s 1
f 32/67/28 23/68/29 22/69/30 30/70/28
f 29/71/31 30/70/31 28/72/31 26/73/31
f 33/74/32 36/75/32 35/76/32 34/77/32
f 36/75/33 25/78/33 27/79/33 35/76/33
f 31/80/34 32/67/34 30/70/34 29/71/34
f 26/73/35 28/72/35 27/79/35 25/78/35
f 30/70/36 22/69/37 21/81/38 28/72/36
f 34/77/39 32/67/39 31/80/39 33/74/39
f 25/78/40 36/75/40 31/80/40 29/71/40
f 26/73/40 25/78/40 29/71/40
f 27/79/41 20/82/42 19/83/43 35/76/41
f 31/80/40 36/75/40 33/74/40
f 28/72/44 21/81/45 20/82/46 27/79/44
f 35/76/47 19/83/48 24/84/49 34/77/47
f 34/77/50 24/84/51 23/68/52 32/67/50
g Police_Light_1_Base_Police_Light_v0.004
v -1.653590 0.000000 0.600000
v -2.346410 0.000000 0.600000
v -2.692820 0.000000 0.000000
v -2.346410 0.000000 -0.600000
v -1.653590 0.000000 -0.600000
v -1.307180 0.000000 0.000000
v -2.692820 -0.180000 0.000000
v -2.346410 -0.180000 -0.600000
v -1.653590 -0.180000 0.600000
v -2.346410 -0.180000 0.600000
v -1.307180 -0.180000 0.000000
v -1.653590 -0.180000 -0.600000
v -1.480385 0.000000 0.300000
v -2.000000 0.000000 0.600000
v -2.519615 0.000000 0.300000
v -2.519615 0.000000 -0.300000
v -2.000000 0.000000 -0.600000
v -1.480385 0.000000 -0.300000
vt 0.000000 0.000000
vt 0.000000 0.000000
vt 0.000000 0.000000
vt 0.000000 0.000000
vt 0.000000 0.000000
vt 0.000000 0.000000
vt 0.387114 0.736246
vt 0.387974 0.736742
vt 0.387401 0.736742
vt 0.388834 0.736246
vt 0.388547 0.736742
vt 0.388834 0.735253
vt 0.389121 0.735750
vt 0.387974 0.734757
vt 0.388547 0.734757
vt 0.387114 0.735253
vt 0.387401 0.734757
vt 0.386828 0.735750
vt 0.387974 0.735750
vt 0.388547 0.735750
vt 0.387974 0.736047
vt 0.389121 0.736047
vt 0.389121 0.735750
vt 0.387401 0.734757
vt 0.388547 0.734757
vt 0.386828 0.735750
vt 0.387401 0.736742
vt 0.389121 0.735750
vt 0.388547 0.736742
vt 0.387974 0.735750
vt 0.388547 0.735750
vt 0.387974 0.736047
vt 0.389121 0.736047
vt 0.389121 0.735750
vt 0.387974 0.735750
vt 0.388547 0.735750
vt 0.387974 0.736047
vt 0.389121 0.736047
vt 0.389121 0.735750
vt 0.389121 0.735750
vt 0.389121 0.736047
vt 0.388547 0.735750
vt 0.387974 0.736047
vt 0.387974 0.735750
vt 0.387974 0.735750
vt 0.388547 0.735750
vt 0.387974 0.736047
vt 0.389121 0.736047
vt 0.387974 0.735750
vt 0.388547 0.735750
vt 0.387974 0.736047
vt 0.389121 0.736047
vt 0.389121 0.735750
vn 0.0000 1.0000 0.0000
vn -0.0900 0.9919 0.0900
vn 0.1229 0.9919 -0.0329
vn -0.1229 0.9919 -0.0329
vn 0.0900 0.9919 0.0900
vn -0.0329 0.9919 -0.1229
vn -0.0329 0.9919 0.1229
vn 0.0900 0.9919 -0.0900
vn -0.1229 0.9919 0.0329
vn 0.1229 0.9919 0.0329
vn -0.0900 0.9919 -0.0900
vn 0.0329 0.9919 0.1229
vn 0.0329 0.9919 -0.1229
vn -0.8660 0.0000 -0.5000
vn -0.9208 -0.0302 -0.3889
vn -0.8590 -0.1273 -0.4959
vn -0.7972 -0.0302 -0.6030
vn 0.0000 -1.0000 0.0000
vn 0.8660 0.0000 0.5000
vn 0.9208 -0.0302 0.3889
vn 0.8590 -0.1273 0.4959
vn 0.7972 -0.0302 0.6030
vn 0.8660 0.0000 -0.5000
vn 0.7972 -0.0302 -0.6030
vn 0.8590 -0.1273 -0.4959
vn 0.9208 -0.0302 -0.3889
vn 0.0000 0.0000 -1.0000
vn 0.1236 -0.0302 -0.9919
vn 0.0000 -0.1273 -0.9919
vn -0.1236 -0.0302 -0.9919
vn -0.8660 0.0000 0.5000
vn -0.7972 -0.0302 0.6030
vn -0.8590 -0.1273 0.4959
vn -0.9208 -0.0302 0.3889
vn 0.0000 0.0000 1.0000
vn 0.1236 -0.0302 0.9919
vn -0.0000 -0.1273 0.9919
vn -0.1236 -0.0302 0.9919
usemtl Steel_-_Satin.100
s off
f 54/85/53 53/86/53 52/87/53
f 49/88/53 54/85/53 52/87/53
f 49/88/53 52/87/53 51/89/53
f 50/90/53 49/88/53 51/89/53
s 1
f 49/91/54 50/92/55 37/93/53
f 50/92/56 51/94/57 38/95/53
f 51/94/58 52/96/59 39/97/53
f 52/96/60 53/98/61 40/99/53
f 53/98/62 54/100/63 41/101/53
f 54/100/64 49/91/65 42/102/53
f 39/103/66 52/104/67 43/105/66
f 43/105/66 52/104/68 44/106/66
f 44/106/66 52/104/69 40/107/66
f 45/108/70 46/109/70 47/110/70
f 48/111/70 43/112/70 44/113/70
f 42/114/71 49/115/72 47/116/71
f 47/116/71 49/115/73 45/117/71
f 45/117/71 49/115/74 37/118/71
f 41/119/75 54/120/76 48/121/75
f 48/121/75 54/120/77 47/122/75
f 47/122/75 54/120/78 42/123/75
f 41/124/79 48/125/79 53/126/80
f 53/126/81 48/125/79 44/127/79
f 53/126/82 44/127/79 40/128/79
f 38/129/83 51/130/84 46/131/83
f 46/131/83 51/130/85 43/132/83
f 43/132/83 51/130/86 39/97/83
f 37/133/87 50/134/88 45/135/87
f 45/135/87 50/134/89 46/136/87
f 46/136/87 50/134/90 38/137/87
f 43/112/70 48/111/70 47/110/70 46/109/70
g Police_Light_2_Base_Police_Light_v0.005
v 2.346410 0.000000 0.600000
v 1.653590 0.000000 0.600000
v 1.307180 0.000000 0.000000
v 1.653590 0.000000 -0.600000
v 2.346410 0.000000 -0.600000
v 2.692820 0.000000 0.000000
v 1.307180 -0.180000 0.000000
v 1.653590 -0.180000 -0.600000
v 2.346410 -0.180000 0.600000
v 1.653590 -0.180000 0.600000
v 2.692820 -0.180000 0.000000
v 2.346410 -0.180000 -0.600000
v 2.519615 0.000000 0.300000
v 2.000000 0.000000 0.600000
v 1.480385 0.000000 0.300000
v 1.480385 0.000000 -0.300000
v 2.000000 0.000000 -0.600000
v 2.519615 0.000000 -0.300000
vt 0.000000 0.000000
vt 0.000000 0.000000
vt 0.000000 0.000000
vt 0.000000 0.000000
vt 0.000000 0.000000
vt 0.000000 0.000000
vt 0.384853 0.747727
vt 0.384853 0.747727
vt 0.384853 0.747727
vt 0.384853 0.747727
vt 0.384853 0.747727
vt 0.384853 0.747727
vt 0.384853 0.747727
vt 0.384853 0.747727
vt 0.384853 0.747727
vt 0.384853 0.747727
vt 0.384853 0.747727
vt 0.384853 0.747727
vt 0.384853 0.747727
vt 0.384853 0.747727
vt 0.384853 0.747727
vt 0.384853 0.747727
vt 0.384853 0.747727
vt 0.384853 0.747727
vn 0.0000 1.0000 0.0000
vn -0.0900 0.9919 0.0900
vn 0.1229 0.9919 -0.0329
vn -0.1229 0.9919 -0.0329
vn 0.0900 0.9919 0.0900
vn -0.0329 0.9919 -0.1229
vn -0.0329 0.9919 0.1229
vn 0.0900 0.9919 -0.0900
vn -0.1229 0.9919 0.0329
vn 0.1229 0.9919 0.0329
vn -0.0900 0.9919 -0.0900
vn 0.0329 0.9919 0.1229
vn 0.0329 0.9919 -0.1229
vn -0.8660 0.0000 -0.5000
vn -0.9208 -0.0302 -0.3889
vn -0.8590 -0.1273 -0.4959
vn -0.7972 -0.0302 -0.6030
vn 0.0000 -1.0000 0.0000
vn 0.8660 0.0000 0.5000
vn 0.9208 -0.0302 0.3889
vn 0.8590 -0.1273 0.4959
vn 0.7972 -0.0302 0.6030
vn 0.8660 0.0000 -0.5000
vn 0.7972 -0.0302 -0.6030
vn 0.8590 -0.1273 -0.4959
vn 0.9208 -0.0302 -0.3889
vn 0.0000 0.0000 -1.0000
vn 0.1236 -0.0302 -0.9919
vn 0.0000 -0.1273 -0.9919
vn -0.1236 -0.0302 -0.9919
vn -0.8660 0.0000 0.5000
vn -0.7972 -0.0302 0.6030
vn -0.8590 -0.1273 0.4959
vn -0.9208 -0.0302 0.3889
vn 0.0000 0.0000 1.0000
vn 0.1236 -0.0302 0.9919
vn -0.0000 -0.1273 0.9919
vn -0.1236 -0.0302 0.9919
usemtl Steel_-_Satin.101
s off
f 72/138/91 71/139/91 70/140/91
f 67/141/91 72/138/91 70/140/91
f 67/141/91 70/140/91 69/142/91
f 68/143/91 67/141/91 69/142/91
s 1
f 67/144/92 68/145/93 55/146/91
f 68/145/94 69/147/95 56/148/91
f 69/147/96 70/149/97 57/150/91
f 70/149/98 71/151/99 58/152/91
f 71/151/100 72/153/101 59/154/91
f 72/153/102 67/144/103 60/155/91
f 57/150/104 70/149/105 61/156/104
f 61/156/104 70/149/106 62/157/104
f 62/157/104 70/149/107 58/152/104
f 63/158/108 64/159/108 65/160/108
f 66/161/108 61/156/108 62/157/108
f 60/155/109 67/144/110 65/160/109
f 65/160/109 67/144/111 63/158/109
f 63/158/109 67/144/112 55/146/109
f 59/154/113 72/153/114 66/161/113
f 66/161/113 72/153/115 65/160/113
f 65/160/113 72/153/116 60/155/113
f 59/154/117 66/161/117 71/151/118
f 71/151/119 66/161/117 62/157/117
f 71/151/120 62/157/117 58/152/117
f 56/148/121 69/147/122 64/159/121
f 64/159/121 69/147/123 61/156/121
f 61/156/121 69/147/124 57/150/121
f 55/146/125 68/145/126 63/158/125
f 63/158/125 68/145/127 64/159/125
f 64/159/125 68/145/128 56/148/125
f 61/156/108 66/161/108 65/160/108 64/159/108
