# Blender v2.90.1 OBJ File: ''
# www.blender.org
mtllib Car 2 v1.mtl
o Car_2_v1
v 4.500000 2.228572 -3.000000
v -4.500000 2.228572 -3.000000
v 2.500000 5.228572 -2.499999
v -2.500000 5.228572 -2.499999
v 2.500000 5.228571 2.500001
v -2.500000 5.228571 2.500001
v -4.500000 2.228571 3.000000
v 4.500000 2.228571 3.000000
v 1.500000 -1.771429 3.000000
v 7.500000 -1.771429 3.000000
v 7.500000 2.028571 3.000000
v -1.500000 -1.771429 3.000000
v -7.500000 1.228571 3.000000
v -7.500000 -1.771429 3.000000
v -6.500000 -2.771429 2.999999
v -2.500000 -2.771429 2.999999
v 2.500000 -2.771429 2.999999
v 6.500000 -2.771429 2.999999
v -7.500000 1.228572 -3.000000
v -7.500000 -1.771428 -3.000000
v 7.500000 2.028572 -3.000000
v 7.500000 -1.771428 -3.000000
v 6.500000 -2.771428 -3.000001
v 2.500000 -2.771428 -3.000001
v 1.500000 -1.771428 -3.000000
v -1.500000 -1.771428 -3.000000
v -2.500000 -2.771428 -3.000001
v -6.500000 -2.771428 -3.000001
vt -0.325000 -0.152069
vt 0.575000 -0.152069
vt -0.125000 0.152069
vt 0.375000 0.152069
vt -0.000000 0.050000
vt 0.500000 0.050000
vt -0.000000 0.550000
vt 0.500000 0.550000
vt -0.000000 0.050000
vt 0.360555 0.000000
vt -0.000000 0.550000
vt 0.360555 0.600000
vt -0.575000 -0.152069
vt 0.325000 -0.152069
vt -0.375000 0.152069
vt 0.125000 0.152069
vt -0.450000 0.100000
vt 0.150000 -0.300000
vt 0.450000 0.100000
vt 0.750000 -0.300000
vt 0.750000 0.080000
vt -0.150000 -0.300000
vt -0.750000 0.000000
vt -0.750000 -0.300000
vt -0.650000 -0.400000
vt -0.250000 -0.400000
vt 0.250000 -0.400000
vt 0.650000 -0.400000
vt -0.000000 0.000000
vt 0.300000 0.000000
vt -0.000000 0.600000
vt 0.300000 0.600000
vt -0.000000 0.000000
vt 0.316228 0.000000
vt -0.000000 0.600000
vt 0.316228 0.600000
vt 0.360555 0.050000
vt 0.360555 0.550000
vt 0.000000 0.000000
vt 0.000000 0.600000
vt 0.000000 0.000000
vt 0.300666 0.000000
vt 0.000000 0.600000
vt 0.300666 0.600000
vt 0.000000 0.000000
vt 0.380000 0.000000
vt 0.000000 0.600000
vt 0.380000 0.600000
vt 0.000000 0.000000
vt 0.141421 0.000000
vt 0.000000 0.600000
vt 0.141421 0.600000
vt 0.000000 0.000000
vt 0.400000 0.000000
vt 0.000000 0.600000
vt 0.400000 0.600000
vt 0.000000 0.000000
vt 0.141421 0.000000
vt 0.000000 0.600000
vt 0.141421 0.600000
vt 0.000000 0.000000
vt 0.300000 0.000000
vt 0.000000 0.600000
vt 0.300000 0.600000
vt 0.000000 0.000000
vt 0.141421 0.000000
vt 0.000000 0.600000
vt 0.141421 0.600000
vt 0.000000 0.000000
vt 0.400000 0.000000
vt 0.000000 0.600000
vt 0.400000 0.600000
vt 0.000000 0.000000
vt 0.141421 0.000000
vt 0.000000 0.600000
vt 0.141421 0.600000
vt -0.450000 0.100000
vt -0.150000 -0.300000
vt 0.450000 0.100000
vt 0.150000 -0.300000
vt 0.750000 0.000000
vt 0.750000 -0.300000
vt 0.650000 -0.400000
vt 0.250000 -0.400000
vt -0.750000 0.080000
vt -0.750000 -0.300000
vt -0.650000 -0.400000
vt -0.250000 -0.400000
vn 0.0000 0.1644 -0.9864
vn 0.0000 1.0000 0.0000
vn -0.8321 0.5547 0.0000
vn 0.0000 0.1644 0.9864
vn -0.0000 -0.0000 1.0000
vn -1.0000 0.0000 0.0000
vn -0.3162 0.9487 0.0000
vn 0.8321 0.5547 0.0000
vn 0.0665 0.9978 0.0000
vn 1.0000 0.0000 0.0000
vn 0.7071 -0.7071 -0.0000
vn 0.0000 -1.0000 -0.0000
vn -0.7071 -0.7071 -0.0000
vn -0.0000 0.0000 -1.0000
usemtl Steel_-_Satin.003
s 1
f 1/1/1 2/2/1 3/3/1
f 3/3/1 2/2/1 4/4/1
f 3/5/2 4/6/2 5/7/2
f 5/7/2 4/6/2 6/8/2
f 4/9/3 2/10/3 6/11/3
f 6/11/3 2/10/3 7/12/3
f 7/13/4 8/14/4 6/15/4
f 6/15/4 8/14/4 5/16/4
f 7/17/5 9/18/5 8/19/5
f 8/19/5 9/18/5 10/20/5
f 8/19/5 10/20/5 11/21/5
f 9/18/5 7/17/5 12/22/5
f 12/22/5 7/17/5 13/23/5
f 12/22/5 13/23/5 14/24/5
f 15/25/5 16/26/5 14/24/5
f 14/24/5 16/26/5 12/22/5
f 17/27/5 18/28/5 9/18/5
f 9/18/5 18/28/5 10/20/5
f 19/29/6 20/30/6 13/31/6
f 13/31/6 20/30/6 14/32/6
f 2/33/7 19/34/7 7/35/7
f 7/35/7 19/34/7 13/36/7
f 3/37/8 5/38/8 1/39/8
f 1/39/8 5/38/8 8/40/8
f 21/41/9 1/42/9 11/43/9
f 11/43/9 1/42/9 8/44/9
f 22/45/10 21/46/10 10/47/10
f 10/47/10 21/46/10 11/48/10
f 23/49/11 22/50/11 18/51/11
f 18/51/11 22/50/11 10/52/11
f 24/53/12 23/54/12 17/55/12
f 17/55/12 23/54/12 18/56/12
f 25/57/13 24/58/13 9/59/13
f 9/59/13 24/58/13 17/60/13
f 26/61/12 25/62/12 12/63/12
f 12/63/12 25/62/12 9/64/12
f 27/65/11 26/66/11 16/67/11
f 16/67/11 26/66/11 12/68/11
f 28/69/12 27/70/12 15/71/12
f 15/71/12 27/70/12 16/72/12
f 20/73/13 28/74/13 14/75/13
f 14/75/13 28/74/13 15/76/13
f 1/77/14 25/78/14 2/79/14
f 2/79/14 25/78/14 26/80/14
f 2/79/14 26/80/14 19/81/14
f 19/81/14 26/80/14 20/82/14
f 20/82/14 26/80/14 28/83/14
f 28/83/14 26/80/14 27/84/14
f 21/85/14 22/86/14 1/77/14
f 1/77/14 22/86/14 25/78/14
f 23/87/14 24/88/14 22/86/14
f 22/86/14 24/88/14 25/78/14
