# Blender v2.93.0 OBJ File: 'Train6.blend'
# www.blender.org
mtllib Taxi Box.mtl
g Taxi_box
v -2.250000 -1.368750 3.975000
v -2.250000 -1.368750 -3.825001
v -2.250000 1.631250 -3.825001
v 2.250000 -1.368750 3.975000
v 2.250000 -1.368750 -3.825001
v 2.250000 1.631250 -3.825001
v -2.250000 0.281250 3.975000
v -2.250000 0.281250 -3.825001
v 2.250000 0.281250 -3.825001
v 2.250000 0.281250 3.975000
v -2.250000 -1.368750 1.175000
v -2.250000 1.631250 1.175000
v 2.250000 -1.368750 1.175000
v 2.250000 1.631250 1.175000
v 2.250000 0.281250 1.175000
v -2.250000 0.281250 1.175000
vt 0.500000 0.125000
vt 0.625000 0.125000
vt 0.625000 0.250000
vt 0.500000 0.250000
vt 0.625000 0.500000
vt 0.500000 0.500000
vt 0.625000 0.625000
vt 0.875000 0.625000
vt 0.500000 1.000000
vt 0.500000 0.750000
vt 0.500000 0.625000
vt 0.125000 0.625000
vt 0.375000 0.625000
vt 0.375000 0.750000
vt 0.125000 0.750000
vt 0.500000 0.000000
vt 0.375000 1.000000
vt 0.375000 0.250000
vt 0.375000 0.500000
vt 0.375000 0.125000
vt 0.375000 0.000000
vt 0.875000 0.500000
vt 0.125000 0.500000
vn -1.0000 0.0000 0.0000
vn 0.0000 0.0000 -1.0000
vn 0.0000 0.9008 0.4343
vn 1.0000 0.0000 0.0000
vn 0.0000 -1.0000 0.0000
vn 0.0000 0.0000 1.0000
vn 0.0000 1.0000 0.0000
usemtl None
s off
f 16/1/1 12/2/1 3/3/1 8/4/1
f 8/4/2 3/3/2 6/5/2 9/6/2
f 14/7/3 12/8/3 7/9/3 10/10/3
f 10/10/4 15/11/4 14/7/4
f 11/12/5 13/13/5 4/14/5 1/15/5
f 12/2/1 16/1/1 7/16/1
f 4/14/6 10/10/6 7/9/6 1/17/6
f 13/13/4 15/11/4 10/10/4 4/14/4
f 2/18/2 8/4/2 9/6/2 5/19/2
f 11/20/1 16/1/1 8/4/1 2/18/1
f 1/21/1 7/16/1 16/1/1 11/20/1
f 5/19/4 9/6/4 15/11/4 13/13/4
f 6/5/7 3/22/7 12/8/7 14/7/7
f 2/23/5 5/19/5 13/13/5 11/12/5
f 9/6/4 6/5/4 14/7/4 15/11/4
