# Blender v2.93.0 OBJ File: 'W2.blend'
# www.blender.org
mtllib Road Piece L.mtl
g Road_Piece_L
v -4.900000 -0.400002 12.600000
v -4.900000 0.199998 12.600000
v -4.900000 0.200002 -12.600000
v -4.900000 -0.399998 -12.600000
v 4.900000 0.200002 -12.600000
v 4.900000 -0.399998 -12.600000
v 4.900000 0.199998 12.600000
v 4.900000 -0.400002 12.600000
vt 0.148797 0.409706
vt 0.148797 0.409706
vt 0.148797 0.409706
vt 0.148797 0.409706
vt 0.148797 0.409706
vt 0.148797 0.409706
vt 0.148797 0.409706
vt 0.148797 0.409706
vn -1.0000 0.0000 0.0000
vn 0.0000 0.0000 -1.0000
vn 1.0000 0.0000 0.0000
vn 0.0000 0.0000 1.0000
vn 0.0000 -1.0000 -0.0000
vn 0.0000 1.0000 0.0000
usemtl W2
s 1
f 1/1/1 2/2/1 3/3/1 4/4/1
s 2
f 4/4/2 3/3/2 5/5/2 6/6/2
s 3
f 6/6/3 5/5/3 7/7/3 8/8/3
s 4
f 8/8/4 7/7/4 2/2/4 1/1/4
s 5
f 4/4/5 6/6/5 8/8/5 1/1/5
s 6
f 5/5/6 3/3/6 2/2/6 7/7/6
g Road_Railing_1
v -5.599999 -0.400002 12.600000
v -5.599999 0.899998 12.600000
v -5.599999 0.900002 -12.600000
v -5.599999 -0.399998 -12.600000
v -4.900000 0.900002 -12.600000
v -4.900000 -0.399998 -12.600000
v -4.900000 0.899998 12.600000
v -4.900000 -0.400002 12.600000
vt 0.148797 0.409706
vt 0.148797 0.409706
vt 0.148797 0.409706
vt 0.148797 0.409706
vt 0.148797 0.409706
vt 0.148797 0.409706
vt 0.148797 0.409706
vt 0.148797 0.409706
vn -1.0000 0.0000 0.0000
vn 0.0000 0.0000 -1.0000
vn 1.0000 0.0000 0.0000
vn 0.0000 0.0000 1.0000
vn 0.0000 -1.0000 -0.0000
vn 0.0000 1.0000 0.0000
usemtl W2
s 1
f 9/9/7 10/10/7 11/11/7 12/12/7
s 2
f 12/12/8 11/11/8 13/13/8 14/14/8
s 3
f 14/14/9 13/13/9 15/15/9 16/16/9
s 4
f 16/16/10 15/15/10 10/10/10 9/9/10
s 5
f 12/12/11 14/14/11 16/16/11 9/9/11
s 6
f 13/13/12 11/11/12 10/10/12 15/15/12
g Road_Railing_2
v 4.900001 -0.400002 12.600000
v 4.900001 0.899998 12.600000
v 4.900001 0.900002 -12.600000
v 4.900001 -0.399998 -12.600000
v 5.600000 0.900002 -12.600000
v 5.600000 -0.399998 -12.600000
v 5.600000 0.899998 12.600000
v 5.600000 -0.400002 12.600000
vt 0.148797 0.409706
vt 0.148797 0.409706
vt 0.148797 0.409706
vt 0.148797 0.409706
vt 0.148797 0.409706
vt 0.148797 0.409706
vt 0.148797 0.409706
vt 0.148797 0.409706
vn -1.0000 0.0000 0.0000
vn 0.0000 0.0000 -1.0000
vn 1.0000 0.0000 0.0000
vn 0.0000 0.0000 1.0000
vn 0.0000 -1.0000 -0.0000
vn 0.0000 1.0000 0.0000
usemtl W2
s 1
f 17/17/13 18/18/13 19/19/13 20/20/13
s 2
f 20/20/14 19/19/14 21/21/14 22/22/14
s 3
f 22/22/15 21/21/15 23/23/15 24/24/15
s 4
f 24/24/16 23/23/16 18/18/16 17/17/16
s 5
f 20/20/17 22/22/17 24/24/17 17/17/17
s 6
f 21/21/18 19/19/18 18/18/18 23/23/18
