# Blender v2.93.0 OBJ File: 'w1 EXPORT FILE extra.blend'
# www.blender.org
mtllib Canyon M1.mtl
g Canyon_M1
v -90.035042 -0.018435 10.011384
v -90.035042 99.981567 10.011384
v -90.035042 -0.018435 -9.988616
v -90.035042 99.981567 -9.988616
v 89.964958 -0.018435 10.011384
v 89.964958 99.981567 10.011384
v 89.964958 -0.018435 -9.988616
v 89.964958 99.981567 -9.988616
v -67.535042 -0.018435 13.295492
v -45.035038 -0.018435 20.011383
v -22.535038 -0.018435 10.887147
v -0.035038 -0.018435 15.922779
v 22.464962 -0.018435 17.384096
v 44.964962 -0.018435 13.076550
v 67.464958 -0.018435 20.011383
v 67.464958 99.981567 20.011383
v 44.964962 99.981567 13.076550
v 22.464962 99.981567 17.384096
v -0.035038 99.981567 15.922779
v -22.535038 99.981567 10.887147
v -45.035038 99.981567 20.011383
v -67.535042 99.981567 13.295492
v 21.798296 35.648228 21.050762
v -90.035042 39.981564 14.011384
v -90.035042 56.981564 10.011384
v -67.868378 19.314898 13.628824
v -68.201706 35.648228 16.962158
v 89.964958 56.981564 10.011384
v 89.964958 39.981564 14.011384
v 44.631630 19.314898 13.409883
v -45.368370 19.314898 20.344713
v 66.464958 56.981564 20.011383
v 66.464958 39.981564 24.011383
v 44.298298 35.648228 16.743217
v -45.701702 35.648228 23.678049
v 43.964962 56.981564 13.076550
v 43.964962 39.981564 17.076550
v 67.131622 19.314898 20.344713
v -22.868370 19.314898 11.220480
v 21.464962 56.981564 17.384096
v 21.464962 39.981564 21.384098
v 66.798294 35.648228 23.678049
v -23.201704 35.648228 14.553814
v -1.035038 56.981564 15.922779
v -1.035038 39.981564 19.922779
v 89.964958 19.314898 10.344717
v -0.368372 19.314898 16.256111
v -23.535038 56.981564 10.887147
v -23.535038 39.981564 14.887147
v 89.964958 35.648228 13.678051
v -0.701705 35.648228 19.589445
v -46.035038 56.981564 20.011383
v -46.035038 39.981564 24.011383
v -90.035042 35.648228 13.678051
v 22.131630 19.314898 17.717430
v -68.535042 56.981564 13.295492
v -68.535042 39.981564 17.295492
v -90.035042 19.314899 10.344717
v -90.035042 73.314903 13.011385
v -90.035042 76.648239 13.011385
v 89.964958 76.648239 13.011385
v 89.964958 73.314903 13.011385
v 67.131622 76.648239 23.011383
v 66.798294 73.314903 23.011383
v 44.631630 76.648239 16.076551
v 44.298298 73.314903 16.076551
v 22.131630 76.648239 20.384096
v 21.798296 73.314903 20.384096
v -0.368372 76.648239 18.922779
v -0.701705 73.314903 18.922779
v -22.868370 76.648239 13.887146
v -23.201704 73.314903 13.887146
v -45.368370 76.648239 23.011383
v -45.701702 73.314903 23.011383
v -67.868378 76.648239 16.295490
v -68.201706 73.314903 16.295490
vt 0.568738 0.578006
vt 0.568738 0.578006
vt 0.568738 0.578006
vt 0.568738 0.578006
vt 0.394222 0.185020
vt 0.394222 0.185020
vt 0.394222 0.185020
vt 0.394222 0.185020
vt 0.394222 0.185020
vt 0.394222 0.185020
vt 0.394222 0.185020
vt 0.394222 0.185020
vt 0.394222 0.185020
vt 0.394222 0.185020
vt 0.394222 0.185020
vt 0.394222 0.185020
vt 0.394222 0.185020
vt 0.394222 0.185020
vt 0.394222 0.185020
vt 0.394222 0.185020
vt 0.394222 0.185020
vt 0.394222 0.185020
vt 0.394222 0.185020
vt 0.394222 0.185020
vt 0.394222 0.185020
vt 0.394222 0.185020
vt 0.566753 0.243415
vt 0.566753 0.243415
vt 0.566753 0.243415
vt 0.566753 0.243415
vt 0.566753 0.243415
vt 0.566753 0.243415
vt 0.566753 0.243415
vt 0.566753 0.243415
vt 0.566753 0.243415
vt 0.566753 0.243415
vt 0.566753 0.243415
vt 0.566753 0.243415
vt 0.566753 0.243415
vt 0.566753 0.243415
vt 0.566753 0.243415
vt 0.566753 0.243415
vt 0.566753 0.243415
vt 0.566753 0.243415
vt 0.568738 0.578006
vt 0.568738 0.578006
vt 0.389619 0.249888
vt 0.389619 0.249888
vt 0.389619 0.249888
vt 0.389619 0.249888
vt 0.389619 0.249888
vt 0.389619 0.249888
vt 0.389619 0.249888
vt 0.389619 0.249888
vt 0.568738 0.578006
vt 0.568738 0.578006
vt 0.570720 0.188318
vt 0.570720 0.188318
vt 0.570720 0.188318
vt 0.570720 0.188318
vt 0.389619 0.249888
vt 0.389619 0.249888
vt 0.570720 0.188318
vt 0.570720 0.188318
vt 0.570720 0.188318
vt 0.570720 0.188318
vt 0.568738 0.578006
vt 0.568738 0.578006
vt 0.389619 0.249888
vt 0.389619 0.249888
vt 0.389619 0.249888
vt 0.389619 0.249888
vt 0.389619 0.249888
vt 0.389619 0.249888
vt 0.389619 0.249888
vt 0.389619 0.249888
vt 0.568738 0.578006
vt 0.568738 0.578006
vt 0.570720 0.188318
vt 0.570720 0.188318
vt 0.389619 0.249888
vt 0.389619 0.249888
vt 0.570720 0.188318
vt 0.570720 0.188318
vt 0.568738 0.578006
vt 0.568738 0.578006
vt 0.389619 0.249888
vt 0.389619 0.249888
vt 0.389619 0.249888
vt 0.389619 0.249888
vt 0.389619 0.249888
vt 0.389619 0.249888
vt 0.568738 0.578006
vt 0.568738 0.578006
vt 0.570720 0.188318
vt 0.570720 0.188318
vt 0.389619 0.249888
vt 0.389619 0.249888
vt 0.570720 0.188318
vt 0.570720 0.188318
vt 0.568738 0.578006
vt 0.568738 0.578006
vt 0.389619 0.249888
vt 0.389619 0.249888
vt 0.389619 0.249888
vt 0.389619 0.249888
vt 0.389619 0.249888
vt 0.389619 0.249888
vt 0.570720 0.188318
vt 0.570720 0.188318
vt 0.389619 0.249888
vt 0.389619 0.249888
vt 0.394222 0.185020
vt 0.394222 0.185020
vt 0.394222 0.185020
vt 0.394222 0.185020
vt 0.394222 0.185020
vt 0.394222 0.185020
vt 0.394222 0.185020
vt 0.394222 0.185020
vt 0.394222 0.185020
vt 0.394222 0.185020
vt 0.394222 0.185020
vt 0.394222 0.185020
vt 0.389619 0.249888
vt 0.389619 0.249888
vt 0.568738 0.578006
vt 0.568738 0.578006
vt 0.568738 0.578006
vt 0.568738 0.578006
vt 0.389619 0.249888
vt 0.568738 0.578006
vt 0.568738 0.578006
vt 0.389619 0.249888
vt 0.568738 0.578006
vt 0.568738 0.578006
vt 0.389619 0.249888
vt 0.568738 0.578006
vt 0.568738 0.578006
vt 0.389619 0.249888
vt 0.568738 0.578006
vt 0.568738 0.578006
vt 0.389619 0.249888
vt 0.568738 0.578006
vt 0.568738 0.578006
vt 0.389619 0.249888
vt 0.568738 0.578006
vt 0.568738 0.578006
vt 0.389619 0.249888
vt 0.568738 0.578006
vt 0.568738 0.578006
vn -0.2847 -0.0953 0.9539
vn 0.0000 1.0000 0.0000
vn 0.0000 -1.0000 0.0000
vn -0.1443 0.1272 0.9813
vn 0.4010 0.1140 0.9090
vn -0.2922 0.1261 0.9480
vn 0.1866 0.1227 0.9747
vn -0.0643 0.1282 0.9897
vn -0.2166 0.1275 0.9679
vn 0.3734 0.1130 0.9208
vn 0.3755 -0.0423 0.9259
vn -0.0648 -0.0183 0.9977
vn -0.2790 0.2199 0.9348
vn -0.2175 -0.0915 0.9718
vn 0.1845 -0.1929 0.9637
vn 0.3672 0.2130 0.9054
vn -0.2804 -0.1974 0.9394
vn -0.0646 -0.0815 0.9946
vn 0.1880 -0.0137 0.9821
vn -0.2129 0.2238 0.9511
vn -0.2859 -0.0214 0.9580
vn 0.1877 -0.0610 0.9803
vn -0.2888 -0.1971 0.9369
vn -0.0631 0.2286 0.9715
vn 0.3698 -0.1785 0.9118
vn -0.2932 -0.0957 0.9512
vn -0.2945 -0.0215 0.9554
vn 0.1832 0.2252 0.9569
vn 0.3758 -0.0095 0.9267
vn 0.3933 -0.0555 0.9177
vn 0.3922 -0.1801 0.9021
vn -0.2874 0.2194 0.9324
vn -0.2140 -0.1995 0.9562
vn -0.1494 -0.0815 0.9854
vn 0.4036 -0.0123 0.9148
vn 0.3827 0.2116 0.8993
vn -0.2184 -0.0206 0.9757
vn -0.1455 -0.0183 0.9892
vn -0.1447 -0.1993 0.9692
vn -0.1471 0.2265 0.9628
vn -0.0635 -0.2008 0.9776
vn 1.0000 -0.0000 0.0000
vn 0.0000 0.0000 -1.0000
vn -1.0000 0.0000 0.0000
vn -0.2837 0.1263 0.9506
vn -0.2820 -0.1678 0.9446
vn -0.2859 0.0286 0.9578
vn 0.3700 -0.1751 0.9124
vn 0.3755 -0.0376 0.9260
vn -0.2151 -0.1722 0.9613
vn -0.2184 0.0218 0.9756
vn -0.0638 -0.1790 0.9818
vn -0.0648 0.0065 0.9979
vn 0.1849 -0.1812 0.9659
vn 0.1880 -0.0188 0.9820
vn -0.2904 -0.1671 0.9422
vn -0.2944 0.0294 0.9552
vn 0.3882 -0.1703 0.9057
vn 0.3986 -0.0199 0.9169
vn -0.1475 -0.1772 0.9731
vn -0.1476 0.0074 0.9890
usemtl Material
s off
f 35/1/1 53/2/1 57/3/1 27/4/1
f 8/5/2 4/6/2 2/7/2 22/8/2 21/9/2 20/10/2 19/11/2 18/12/2 17/13/2 16/14/2 6/15/2
f 3/16/3 7/17/3 5/18/3 15/19/3 14/20/3 13/21/3 12/22/3 11/23/3 10/24/3 9/25/3 1/26/3
f 75/27/4 22/28/4 2/29/4 60/30/4
f 61/31/5 6/32/5 16/33/5 63/34/5
f 63/34/6 16/33/6 17/35/6 65/36/6
f 65/36/7 17/35/7 18/37/7 67/38/7
f 67/38/8 18/37/8 19/39/8 69/40/8
f 69/40/9 19/39/9 20/41/9 71/42/9
f 71/42/10 20/41/10 21/43/10 73/44/10
f 43/45/11 49/46/11 53/2/11 35/1/11
f 13/47/12 55/48/12 47/49/12 12/50/12
f 53/51/13 52/52/13 56/53/13 57/54/13
f 51/55/14 45/56/14 49/46/14 43/45/14
f 30/57/15 34/58/15 23/59/15 55/60/15
f 49/61/16 48/62/16 52/52/16 53/51/16
f 31/63/17 35/64/17 27/65/17 26/66/17
f 23/67/18 41/68/18 45/56/18 51/55/18
f 14/69/19 30/70/19 55/48/19 13/47/19
f 45/71/20 44/72/20 48/62/20 49/61/20
f 10/73/21 31/74/21 26/75/21 9/76/21
f 34/77/22 37/78/22 41/68/22 23/67/22
f 38/79/23 42/80/23 34/58/23 30/57/23
f 41/81/24 40/82/24 44/72/24 45/71/24
f 39/83/25 43/84/25 35/64/25 31/63/25
f 42/85/26 33/86/26 37/78/26 34/77/26
f 15/87/27 38/88/27 30/70/27 14/69/27
f 37/89/28 36/90/28 40/82/28 41/81/28
f 11/91/29 39/92/29 31/74/29 10/73/29
f 50/93/30 29/94/30 33/86/30 42/85/30
f 46/95/31 50/96/31 42/80/31 38/79/31
f 33/97/32 32/98/32 36/90/32 37/89/32
f 47/99/33 51/100/33 43/84/33 39/83/33
f 27/4/34 57/3/34 24/101/34 54/102/34
f 5/103/35 46/104/35 38/88/35 15/87/35
f 29/105/36 28/106/36 32/98/36 33/97/36
f 12/50/37 47/49/37 39/92/37 11/91/37
f 9/76/38 26/75/38 58/107/38 1/108/38
f 26/66/39 27/65/39 54/109/39 58/110/39
f 57/54/40 56/53/40 25/111/40 24/112/40
f 55/60/41 23/59/41 51/100/41 47/99/41
f 7/17/42 8/5/42 6/15/42 61/113/42 62/114/42 28/115/42 29/116/42 50/117/42 46/118/42 5/18/42
f 8/5/43 7/17/43 3/16/43 4/6/43
f 1/26/44 58/119/44 54/120/44 24/121/44 25/122/44 59/123/44 60/124/44 2/7/44 4/6/44 3/16/44
f 73/44/45 21/43/45 22/28/45 75/27/45
f 52/52/46 74/125/46 76/126/46 56/53/46
f 74/127/47 73/128/47 75/129/47 76/130/47
f 48/62/48 72/131/48 74/125/48 52/52/48
f 72/132/49 71/133/49 73/128/49 74/127/49
f 44/72/50 70/134/50 72/131/50 48/62/50
f 70/135/51 69/136/51 71/133/51 72/132/51
f 40/82/52 68/137/52 70/134/52 44/72/52
f 68/138/53 67/139/53 69/136/53 70/135/53
f 36/90/54 66/140/54 68/137/54 40/82/54
f 66/141/55 65/142/55 67/139/55 68/138/55
f 32/98/56 64/143/56 66/140/56 36/90/56
f 64/144/57 63/145/57 65/142/57 66/141/57
f 28/106/58 62/146/58 64/143/58 32/98/58
f 62/147/59 61/148/59 63/145/59 64/144/59
f 56/53/60 76/126/60 59/149/60 25/111/60
f 76/130/61 75/129/61 60/150/61 59/151/61
