# Blender v2.90.1 OBJ File: 'w1 EXPORT FILE.blend'
# www.blender.org
mtllib Pillar Rock 1.mtl
o Pillar_Rock_1
v -7.345912 55.893181 2.832154
v -8.160559 53.051296 3.190523
v 1.773106 55.893181 5.437590
v 1.786034 53.051292 6.032402
v -4.927216 55.893181 -2.005242
v -5.318676 53.051300 -2.493247
v 5.744380 55.893181 -4.673142
v 6.048861 53.051300 -5.335130
v 10.311683 53.051296 3.190523
v 9.510238 55.893181 2.858545
v 10.311683 -0.944481 3.190506
v 3.011572 -0.944481 -11.409719
v 1.786034 -0.944481 6.032384
v -14.646406 -0.944481 1.337402
v -9.884902 -0.944481 -8.185596
vt 0.386185 0.219592
vt 0.387655 0.217066
vt 0.389593 0.225011
vt 0.391373 0.222974
vt 0.388926 0.219117
vt 0.387355 0.221463
vt 0.386852 0.216198
vt 0.384917 0.218031
vt 0.386694 0.214080
vt 0.389942 0.221179
vt 0.384800 0.215861
vt 0.388260 0.223423
vt 0.388298 0.217259
vt 0.390818 0.223716
vt 0.386616 0.219558
vt 0.388840 0.225263
vt 0.389007 0.219118
vt 0.391568 0.225016
vt 0.387227 0.221155
vt 0.389551 0.226506
vt 0.405830 0.253475
vt 0.388252 0.220447
vt 0.411661 0.246765
vt 0.398236 0.208956
vt 0.411327 0.247148
vt 0.405830 0.253475
vt 0.393749 0.214120
vt 0.388252 0.220447
vt 0.412157 0.246194
vt 0.405830 0.253475
vt 0.394579 0.213166
vt 0.384126 0.225195
vt 0.382292 0.224857
vt 0.387022 0.216842
vt 0.385347 0.226110
vt 0.392596 0.212973
vt 0.392742 0.220232
vt 0.409717 0.249002
vt 0.405830 0.253475
vt 0.392767 0.214851
vt 0.386256 0.222344
vt 0.405830 0.253475
vt 0.389021 0.219162
vt 0.412997 0.245226
vt 0.397153 0.209805
vt 0.397549 0.208774
vt 0.397735 0.217953
vt 0.385967 0.217470
vt 0.390897 0.229000
vt 0.381677 0.225211
vn -0.2694 0.1961 0.9429
vn -0.8771 0.1961 -0.4385
vn -0.2378 0.1961 -0.9513
vn 0.8771 0.1961 -0.4385
vn 0.3101 0.1961 0.9303
vn 0.8944 0.0000 -0.4472
vn 0.3162 -0.0000 0.9487
vn -0.2747 -0.0000 0.9615
vn 0.0000 1.0000 0.0000
vn -0.8878 0.1219 -0.4439
vn -0.2407 0.1219 -0.9629
vn 0.0000 -1.0000 0.0000
usemtl Steel_-_Satin.015
s 1
f 1/1/1 2/2/1 3/3/1
f 3/3/1 2/2/1 4/4/1
f 5/5/2 6/6/2 1/7/2
f 1/7/2 6/6/2 2/8/2
f 5/9/3 7/10/3 6/11/3
f 6/11/3 7/10/3 8/12/3
f 9/13/4 8/14/4 10/15/4
f 10/15/4 8/14/4 7/16/4
f 4/17/5 9/18/5 3/19/5
f 3/19/5 9/18/5 10/20/5
f 9/21/6 11/22/6 8/23/6
f 8/23/6 11/22/6 12/24/6
f 9/25/7 4/26/7 11/27/7
f 11/27/7 4/26/7 13/28/7
f 4/29/8 2/30/8 13/31/8
f 13/31/8 2/30/8 14/32/8
f 1/33/9 3/34/9 5/35/9
f 5/35/9 3/34/9 10/36/9
f 5/35/9 10/36/9 7/37/9
f 2/38/10 6/39/10 14/40/10
f 14/40/10 6/39/10 15/41/10
f 8/42/11 12/43/11 6/44/11
f 6/44/11 12/43/11 15/45/11
f 14/46/12 15/47/12 13/48/12
f 13/48/12 15/47/12 12/49/12
f 13/48/12 12/49/12 11/50/12
