# Blender v2.90.1 OBJ File: 'w1 EXPORT FILE.blend'
# www.blender.org
mtllib rock 8.mtl
o Rock_8_v1
v -2.896909 -4.665797 -5.759595
v -3.948660 -3.120986 -6.811345
v 3.040694 -4.665795 -7.738797
v 3.583982 -3.120985 -9.322227
v -5.173246 -4.665799 1.069417
v -6.503618 -3.120989 0.853528
v -6.503618 -3.120990 5.840010
v -5.173246 -4.665800 4.509638
v 2.202074 -3.120990 5.840010
v 2.145633 -4.665800 4.509638
v 2.298379 -3.184697 5.785146
v 9.467419 -3.184695 -0.398163
v 7.898445 -4.665799 -0.452172
v 9.497348 -3.120988 -0.452177
v -5.713930 2.143594 0.981679
v -3.324357 2.143596 -6.187040
v -6.254614 -1.460963 5.591008
v -5.713930 2.143593 4.008929
v 1.638829 -1.460963 5.591008
v 1.620438 2.785945 3.726995
v -3.611154 5.748150 2.426852
v 0.013137 5.748150 2.426852
v 1.867643 5.748151 0.827337
v 7.714488 2.785947 -1.529134
v 7.521370 3.173469 -1.714017
v -3.611154 5.748151 1.322913
v -3.308557 5.748151 0.415121
v 0.701671 5.748151 -0.921622
v 3.198409 3.173471 -8.198458
v -2.672968 3.173470 -6.241333
vt 0.407188 0.213732
vt 0.407667 0.212836
vt 0.407835 0.217274
vt 0.408489 0.217329
vt 0.408224 0.216475
vt 0.406253 0.215314
vt 0.408591 0.215361
vt 0.406379 0.214057
vt 0.407727 0.212070
vt 0.408271 0.212957
vt 0.407464 0.217468
vt 0.408050 0.217494
vt 0.407485 0.217530
vt 0.407133 0.215119
vt 0.407631 0.214480
vt 0.409221 0.218647
vt 0.409305 0.217311
vt 0.407191 0.216155
vt 0.406205 0.216051
vt 0.407315 0.214898
vt 0.405885 0.214747
vt 0.409125 0.213908
vt 0.409581 0.214869
vt 0.406717 0.215831
vt 0.406649 0.217210
vt 0.406634 0.217167
vt 0.405908 0.217890
vt 0.406030 0.214586
vt 0.408234 0.217887
vt 0.408205 0.214583
vt 0.405927 0.217694
vt 0.406049 0.216661
vt 0.407357 0.217845
vt 0.406613 0.214449
vt 0.407481 0.214541
vt 0.409404 0.213445
vt 0.409192 0.214469
vt 0.406908 0.213182
vt 0.406928 0.214230
vt 0.406240 0.211526
vt 0.407226 0.211630
vt 0.406018 0.216063
vt 0.409115 0.213248
vt 0.409503 0.216989
vt 0.407267 0.219780
vt 0.406426 0.212986
vt 0.408690 0.213225
vt 0.406462 0.215443
vt 0.408544 0.216100
vt 0.406946 0.217947
vt 0.407986 0.218057
vt 0.407570 0.217185
vt 0.407190 0.215147
vt 0.408198 0.216414
vt 0.409252 0.212613
vt 0.409308 0.212872
vt 0.407497 0.213100
vt 0.410221 0.212387
vt 0.407424 0.214248
vt 0.410239 0.212424
vt 0.410170 0.216312
vt 0.407854 0.216917
vt 0.407467 0.213150
vt 0.406506 0.218368
vt 0.406616 0.216121
vt 0.406823 0.218401
vt 0.407092 0.218241
vt 0.407130 0.215019
vt 0.407597 0.215795
vt 0.406919 0.216757
vt 0.407852 0.213000
vt 0.407399 0.217494
vt 0.409633 0.215731
vt 0.409064 0.214772
vt 0.408284 0.218317
vt 0.406755 0.215859
vt 0.406223 0.218280
vt 0.408508 0.215978
vt 0.408455 0.216731
vt 0.406580 0.214615
vt 0.406280 0.217282
vt 0.406305 0.214685
vt 0.406316 0.216728
vt 0.406896 0.214188
vt 0.407184 0.216819
vt 0.407212 0.214222
vt 0.406077 0.217533
vt 0.406426 0.214269
vt 0.408339 0.218016
vt 0.408416 0.214041
vt 0.406653 0.213664
vt 0.407047 0.212987
vt 0.410057 0.213958
vt 0.407231 0.216826
vt 0.409482 0.217800
vt 0.407281 0.217090
vn -0.2396 -0.6526 -0.7189
vn -0.7189 -0.6526 -0.2396
vn 0.0000 -0.6526 0.7577
vn 0.5302 -0.5840 0.6147
vn -0.7577 -0.6526 -0.0000
vn 0.6305 -0.6526 -0.4203
vn -0.9382 0.1483 -0.3127
vn -0.9889 0.1483 0.0000
vn 0.0000 0.1483 0.9889
vn 0.0000 -1.0000 -0.0000
vn 0.0000 0.4019 0.9157
vn 0.5384 0.5661 0.6242
vn 0.6193 0.3178 0.7180
vn 0.0000 1.0000 0.0000
vn 0.3229 0.9216 -0.2153
vn -0.1227 0.9216 -0.3682
vn -0.8194 0.5039 -0.2731
vn -0.8638 0.5039 0.0000
vn -0.3127 0.1483 -0.9382
vn 0.8228 0.1483 -0.5486
usemtl Steel_-_Satin.024
s 1
f 1/1/1 2/2/1 3/3/1
f 3/3/1 2/2/1 4/4/1
f 1/5/2 5/6/2 2/7/2
f 2/7/2 5/6/2 6/8/2
f 7/9/3 8/10/3 9/11/3
f 9/11/3 8/10/3 10/12/3
f 9/11/3 10/12/3 11/13/3
f 11/14/4 10/15/4 12/16/4
f 12/16/4 10/15/4 13/17/4
f 5/18/5 8/19/5 6/20/5
f 6/20/5 8/19/5 7/21/5
f 3/22/6 4/23/6 13/24/6
f 13/24/6 4/23/6 14/25/6
f 13/24/6 14/25/6 12/26/6
f 6/27/7 15/28/7 2/29/7
f 2/29/7 15/28/7 16/30/7
f 7/31/8 17/32/8 6/33/8
f 6/33/8 17/32/8 18/34/8
f 6/33/8 18/34/8 15/35/8
f 9/36/9 19/37/9 7/38/9
f 7/38/9 19/37/9 17/39/9
f 8/40/10 5/41/10 10/42/10
f 10/42/10 5/41/10 1/43/10
f 10/42/10 1/43/10 3/44/10
f 3/44/10 13/45/10 10/42/10
f 17/46/11 19/47/11 18/48/11
f 18/48/11 19/47/11 20/49/11
f 18/48/11 20/49/11 21/50/11
f 21/50/11 20/49/11 22/51/11
f 22/52/12 20/53/12 23/54/12
f 23/54/12 20/53/12 24/55/12
f 23/54/12 24/55/12 25/56/12
f 11/57/13 12/58/13 19/59/13
f 19/59/13 12/58/13 14/60/13
f 19/59/13 14/60/13 24/61/13
f 24/61/13 20/62/13 19/59/13
f 19/59/13 9/63/13 11/57/13
f 21/64/14 22/65/14 26/66/14
f 26/66/14 22/65/14 27/67/14
f 27/67/14 22/65/14 23/68/14
f 27/67/14 23/68/14 28/69/14
f 23/70/15 25/71/15 28/72/15
f 28/72/15 25/71/15 29/73/15
f 29/74/16 30/75/16 28/76/16
f 28/76/16 30/75/16 27/77/16
f 30/78/17 16/79/17 27/80/17
f 27/80/17 16/79/17 15/81/17
f 27/80/17 15/81/17 26/82/17
f 18/83/18 21/84/18 15/85/18
f 15/85/18 21/84/18 26/86/18
f 2/87/19 16/88/19 4/89/19
f 4/89/19 16/88/19 29/90/19
f 29/90/19 16/88/19 30/91/19
f 14/92/20 4/93/20 24/94/20
f 24/94/20 4/93/20 29/95/20
f 24/94/20 29/95/20 25/96/20
