# Blender v2.90.1 OBJ File: ''
# www.blender.org
mtllib ufo 1 v2.mtl
o ufo_1_v2
v -7.892305 -4.400001 4.556623
v 0.000000 -4.400001 9.113248
v -10.392305 -3.400001 6.000000
v 0.000000 -3.400002 11.999999
v 7.892305 -4.400001 4.556623
v 10.392305 -3.400001 6.000000
v 7.892305 -4.399999 -4.556626
v 10.392305 -3.399999 -6.000000
v 0.000000 -4.399998 -9.113250
v 0.000000 -3.399998 -12.000001
v -10.392305 -3.399999 -6.000000
v -7.892305 -4.399999 -4.556626
v 0.000000 -2.399998 -12.000000
v -10.392305 -2.399999 -6.000000
v -10.392305 -2.400001 6.000000
v 0.000000 -2.400002 12.000000
v 6.830127 -4.399999 -3.943376
v 6.830127 -4.400000 3.943374
v 0.000000 -4.400001 7.886750
v -6.830127 -4.400000 3.943374
v -6.830127 -4.399999 -3.943376
v 0.000000 -4.399998 -7.886753
v 0.000000 -5.400001 4.999999
v -4.330127 -5.400000 2.499999
v 4.330127 -5.400000 2.499999
v 4.330127 -5.399999 -2.500001
v 0.000000 -5.399999 -5.000001
v -4.330127 -5.399999 -2.500001
v -15.320508 -1.400001 8.845299
v 0.000000 -1.400002 17.690599
v -17.320507 -0.400001 10.000000
v 0.000000 -0.400003 20.000000
v 15.320508 -1.400001 8.845299
v 17.320507 -0.400001 10.000000
v 15.320508 -1.399998 -8.845300
v 17.320507 -0.399998 -10.000000
v 0.000000 -1.399997 -17.690599
v 0.000000 -0.399996 -20.000002
v -17.320507 -0.399998 -10.000000
v -15.320508 -1.399998 -8.845300
v 12.392305 -1.399998 -7.154701
v 12.392305 -1.400001 7.154700
v 0.000000 -1.400002 14.309401
v -12.392305 -1.400001 7.154700
v -12.392305 -1.399998 -7.154701
v 0.000000 -1.399997 -14.309402
v 10.392305 -2.400001 6.000000
v 10.392305 -2.399999 -6.000000
v 0.000000 0.599998 16.535898
v -14.320508 0.599999 8.267949
v -14.320508 0.600002 -8.267950
v 0.000000 0.600003 -16.535898
v 14.320508 0.600002 -8.267950
v 14.320508 0.599999 8.267949
v -13.392305 0.600002 -7.732051
v 0.000000 0.600003 -15.464102
v 13.392305 0.600002 -7.732051
v 13.392305 0.599999 7.732051
v 0.000000 0.599998 15.464101
v -13.392305 0.599999 7.732051
v 0.000000 1.600002 -12.000000
v 10.392305 1.600001 -6.000000
v -10.392305 1.600001 -6.000000
v 10.392305 1.599999 6.000000
v -10.392305 1.599999 6.000000
v 0.000000 1.599998 12.000000
v 0.000000 3.599999 8.535899
v -7.392305 3.600000 4.267950
v -7.392305 3.600001 -4.267950
v 0.000000 3.600002 -8.535898
v 7.392305 3.600001 -4.267950
v 7.392305 3.600000 4.267950
v -7.330127 3.600001 -4.232050
v 0.000000 3.600002 -8.464101
v 7.330127 3.600001 -4.232050
v 7.330127 3.600000 4.232051
v 0.000000 3.599999 8.464102
v -7.330127 3.600000 4.232051
v 0.000000 5.600001 -4.999999
v 4.330127 5.600001 -2.499999
v -4.330127 5.600001 -2.499999
v 4.330127 5.600000 2.500001
v -4.330127 5.600000 2.500001
v 0.000000 5.599999 5.000001
v 0.000000 7.600000 2.690600
v -2.330127 7.600000 1.345300
v -2.330127 7.600000 -1.345299
v 0.000000 7.600001 -2.690598
v 2.330127 7.600000 -1.345299
v 2.330127 7.600000 1.345300
vt 0.061098 0.196527
vt -0.712807 -0.284706
vt 0.325854 0.044090
vt -0.693195 -0.589581
vt -0.570622 0.513362
vt -0.835379 0.360925
vt 0.203282 0.032129
vt 0.183670 -0.272746
vt 0.134629 -0.155662
vt 0.134629 0.755662
vt -0.134629 -0.300000
vt -0.134629 0.900000
vt -0.061098 -0.196527
vt 0.712807 0.284706
vt -0.325854 -0.044090
vt 0.693195 0.589581
vt 0.835379 -0.360925
vt -0.183670 0.272746
vt 0.570622 -0.513362
vt -0.203282 -0.032129
vt 0.134629 0.300000
vt -0.134629 0.155662
vt 0.134629 -0.900000
vt -0.134629 -0.755662
vt -0.000000 -0.300000
vt 1.200000 -0.300000
vt -0.000000 -0.200000
vt 1.200000 -0.200000
vt -0.000000 -0.300000
vt 1.200000 -0.300000
vt -0.000000 -0.200000
vt 1.200000 -0.200000
vt 0.000000 -0.300000
vt 1.200000 -0.300000
vt -0.000000 -0.200000
vt 1.200000 -0.200000
vt -0.683013 0.394338
vt -0.789231 -0.455662
vt -0.683013 -0.394338
vt 0.000000 -0.911325
vt 0.000000 -0.788675
vt 0.683013 -0.394338
vt 0.789231 -0.455662
vt 0.683013 0.394338
vt 0.789231 0.455662
vt 0.000000 0.911325
vt 0.000000 0.788675
vt -0.789231 0.455662
vt -0.369933 -0.388569
vt 0.299816 0.027898
vt -0.389545 -0.083694
vt 0.035059 0.180335
vt 0.134629 -0.125000
vt 0.134629 0.375000
vt -0.134629 -0.269338
vt -0.134629 0.519338
vt 0.369933 0.388569
vt -0.299816 -0.027898
vt 0.389545 0.083694
vt -0.035059 -0.180335
vt 0.512118 -0.159913
vt -0.157631 0.256554
vt 0.247361 -0.312350
vt -0.177243 -0.048321
vt -0.247361 0.312350
vt -0.512118 0.159913
vt 0.177243 0.048321
vt 0.157631 -0.256554
vt 0.134629 0.269338
vt -0.134629 0.125000
vt 0.134629 -0.519338
vt -0.134629 -0.375000
vt 0.262436 0.302474
vt -1.223872 -0.656933
vt 0.480718 0.177229
vt -1.199618 -0.907423
vt -1.102604 0.844800
vt -1.320886 0.719556
vt 0.383704 -0.114607
vt 0.359450 -0.365097
vt 0.111803 -0.384530
vt 0.111803 1.384530
vt -0.111803 -0.500000
vt -0.111803 1.500000
vt -0.262436 -0.302474
vt 1.223872 0.656933
vt -0.480718 -0.177229
vt 1.199618 0.907423
vt 1.320886 -0.719556
vt -0.359450 0.365097
vt 1.102604 -0.844800
vt -0.383704 0.114607
vt 0.111803 0.500000
vt -0.111803 0.384530
vt 0.111803 -1.500000
vt -0.111803 -1.384530
vt -1.239231 0.715470
vt -1.532051 -0.884530
vt -1.239231 -0.715470
vt 0.000000 -1.769060
vt 0.000000 -1.430940
vt 1.239231 -0.715470
vt 1.532051 -0.884530
vt 1.239231 0.715470
vt 1.532051 0.884530
vt 0.000000 1.769060
vt 0.000000 1.430940
vt -1.532051 0.884530
vt -0.792532 -0.644650
vt 0.409699 0.131387
vt -0.816785 -0.394160
vt 0.191417 0.256631
vt 0.111803 -0.300000
vt 0.111803 0.900000
vt -0.111803 -0.415470
vt -0.111803 1.015470
vt 0.792532 0.644650
vt -0.409699 -0.131387
vt 0.816785 0.394160
vt -0.191417 -0.256631
vt 0.913799 -0.456782
vt -0.288431 0.319254
vt 0.695517 -0.582027
vt -0.312684 0.068764
vt -0.695517 0.582027
vt -0.913799 0.456782
vt 0.312684 -0.068764
vt 0.288431 -0.319254
vt 0.111803 0.415470
vt -0.111803 0.300000
vt 0.111803 -1.015470
vt -0.111803 -0.900000
vt 0.000000 -0.300000
vt 1.200000 -0.300000
vt 0.000000 -0.200000
vt 1.200000 -0.200000
vt -0.000000 -0.300000
vt 1.200000 -0.300000
vt 0.000000 -0.200000
vt 1.200000 -0.200000
vt 1.215604 -0.554700
vt -0.196963 0.304960
vt 1.199164 -0.914880
vt -0.509321 0.124870
vt 0.158114 -1.326795
vt 0.158114 0.326795
vt -0.158114 -1.500000
vt -0.158114 0.500000
vt -1.051205 -0.824835
vt 0.361362 0.034825
vt -1.363563 -0.644745
vt 0.344922 0.395005
vt 0.196963 -0.304960
vt 0.509321 -0.124870
vt -1.215604 0.554700
vt -1.199164 0.914880
vt 0.158114 1.500000
vt -0.158114 1.326795
vt 0.158114 -0.500000
vt -0.158114 -0.326795
vt -0.344922 -0.395005
vt 1.363563 0.644745
vt -0.361362 -0.034825
vt 1.051205 0.824835
vt -1.339231 0.773205
vt 0.000000 1.546410
vt -0.000000 1.653590
vt 1.339231 0.773205
vt 1.432051 0.826795
vt 1.432051 -0.826795
vt 1.339231 -0.773205
vt -0.000000 -1.653590
vt -0.000000 -1.546410
vt -1.339231 -0.773205
vt -1.432051 -0.826795
vt -1.432051 0.826795
vt -0.834578 0.693000
vt -0.851017 0.332820
vt 0.486431 -0.110940
vt 0.174073 -0.291030
vt -0.686618 -0.602955
vt 0.338472 0.020895
vt -0.998977 -0.422865
vt 0.322032 0.381075
vt 0.158114 1.073205
vt -0.158114 0.900000
vt 0.158114 -0.473205
vt -0.158114 -0.300000
vt 0.158114 -0.900000
vt 0.158114 0.300000
vt -0.158114 -1.073205
vt -0.158114 0.473205
vt 0.998977 0.422865
vt 0.686618 0.602955
vt -0.322032 -0.381075
vt -0.338472 -0.020895
vt -0.486431 0.110940
vt 0.834578 -0.693000
vt -0.174073 0.291030
vt 0.851017 -0.332820
vt 0.699897 -0.266224
vt -0.001399 0.220397
vt 0.636651 -0.661192
vt -0.349249 0.022913
vt 0.180278 -0.726795
vt 0.180278 0.126795
vt -0.180278 -0.900000
vt -0.180278 0.300000
vt -0.494349 -0.562450
vt 0.206947 -0.075829
vt -0.842199 -0.364966
vt 0.143701 0.319139
vt 0.001399 -0.220397
vt 0.349249 -0.022913
vt -0.699897 0.266224
vt -0.636651 0.661192
vt 0.180278 0.900000
vt -0.180278 0.726795
vt 0.180278 -0.300000
vt -0.180278 -0.126795
vt 0.842199 0.364966
vt 0.494349 0.562450
vt -0.143701 -0.319139
vt -0.206947 0.075829
vt -0.733013 0.423205
vt -0.000000 0.846410
vt -0.000000 0.853590
vt 0.733013 0.423205
vt 0.739231 0.426795
vt 0.739231 -0.426795
vt 0.733013 -0.423205
vt -0.000000 -0.853590
vt -0.000000 -0.846410
vt -0.733013 -0.423205
vt -0.739231 -0.426795
vt -0.739231 0.426795
vt -0.347622 0.460638
vt -0.410868 0.065670
vt 0.347774 -0.021890
vt -0.000076 -0.219374
vt -0.205320 -0.361896
vt 0.205472 -0.076852
vt -0.553170 -0.164412
vt 0.142226 0.318116
vt 0.180278 0.548205
vt -0.180278 0.375000
vt 0.180278 -0.298205
vt -0.180278 -0.125000
vt 0.180278 -0.375000
vt 0.180278 0.125000
vt -0.180278 -0.548205
vt -0.180278 0.298205
vt 0.553170 0.164412
vt 0.205320 0.361896
vt -0.142226 -0.318116
vt -0.205472 0.076852
vt -0.347774 0.021890
vt 0.347622 -0.460638
vt 0.000076 0.219374
vt 0.410868 -0.065670
vt 0.290474 -0.054597
vt 0.082061 0.115572
vt 0.201031 -0.346715
vt -0.186267 -0.030488
vt 0.141421 -0.259530
vt 0.141421 0.009530
vt -0.141421 -0.375000
vt -0.141421 0.125000
vt -0.111588 -0.273686
vt 0.096825 -0.103517
vt -0.379916 -0.127626
vt 0.007382 0.188601
vt -0.082061 -0.115572
vt 0.186267 0.030488
vt -0.290474 0.054597
vt -0.201031 0.346715
vt 0.141421 0.375000
vt -0.141421 0.259530
vt 0.141421 -0.125000
vt -0.141421 -0.009530
vt 0.379916 0.127626
vt 0.111588 0.273686
vt -0.007382 -0.188601
vt -0.096825 0.103517
vt -0.233013 -0.134530
vt -0.000000 -0.269060
vt -0.233013 0.134530
vt -0.000000 0.269060
vt 0.233013 -0.134530
vt 0.233013 0.134530
vt -0.433013 0.250000
vt 0.000000 -0.500000
vt 0.000000 0.500000
vt 0.433013 -0.250000
vt 0.433013 0.250000
vt -0.433013 -0.250000
vt 0.000000 -0.300000
vt 1.200000 -0.300000
vt 0.000000 -0.200000
vt 1.200000 -0.200000
vn -0.1857 -0.9285 0.3216
vn 0.1857 -0.9285 0.3216
vn 0.3714 -0.9285 -0.0000
vn 0.1857 -0.9285 -0.3216
vn -0.1857 -0.9285 -0.3216
vn -0.3714 -0.9285 -0.0000
vn -0.5000 0.0000 -0.8660
vn -1.0000 0.0000 0.0000
vn -0.5000 0.0000 0.8660
vn 0.0000 -1.0000 -0.0000
vn -0.2236 -0.8944 0.3873
vn 0.2236 -0.8944 0.3873
vn 0.4472 -0.8944 -0.0000
vn 0.2236 -0.8944 -0.3873
vn -0.2236 -0.8944 -0.3873
vn -0.4472 -0.8944 -0.0000
vn 0.5000 0.0000 -0.8660
vn 1.0000 0.0000 0.0000
vn -0.1581 0.9487 0.2739
vn -0.3162 0.9487 0.0000
vn -0.1581 0.9487 -0.2739
vn 0.1581 0.9487 -0.2739
vn 0.3162 0.9487 0.0000
vn 0.1581 0.9487 0.2739
vn 0.0000 1.0000 0.0000
vn -0.2774 0.8321 0.4804
vn -0.5547 0.8321 0.0000
vn -0.2774 0.8321 -0.4804
vn 0.2774 0.8321 -0.4804
vn 0.5547 0.8321 0.0000
vn 0.2774 0.8321 0.4804
vn -0.3536 0.7071 0.6124
vn -0.7071 0.7071 0.0000
vn -0.3536 0.7071 -0.6124
vn 0.3536 0.7071 -0.6124
vn 0.7071 0.7071 0.0000
vn 0.3536 0.7071 0.6124
vn 0.5000 -0.0000 0.8660
usemtl Steel_-_Satin
s 1
f 1/1/1 2/2/1 3/3/1
f 3/3/1 2/2/1 4/4/1
f 5/5/2 6/6/2 2/7/2
f 2/7/2 6/6/2 4/8/2
f 5/9/3 7/10/3 6/11/3
f 6/11/3 7/10/3 8/12/3
f 7/13/4 9/14/4 8/15/4
f 8/15/4 9/14/4 10/16/4
f 11/17/5 10/18/5 12/19/5
f 12/19/5 10/18/5 9/20/5
f 11/21/6 12/22/6 3/23/6
f 3/23/6 12/22/6 1/24/6
f 10/25/7 11/26/7 13/27/7
f 13/27/7 11/26/7 14/28/7
f 11/29/8 3/30/8 14/31/8
f 14/31/8 3/30/8 15/32/8
f 3/33/9 4/34/9 15/35/9
f 15/35/9 4/34/9 16/36/9
f 17/37/10 5/38/10 18/39/10
f 18/39/10 5/38/10 2/40/10
f 18/39/10 2/40/10 19/41/10
f 19/41/10 2/40/10 20/42/10
f 20/42/10 2/40/10 1/43/10
f 20/42/10 1/43/10 21/44/10
f 21/44/10 1/43/10 12/45/10
f 21/44/10 12/45/10 9/46/10
f 22/47/10 9/46/10 17/37/10
f 17/37/10 9/46/10 7/48/10
f 17/37/10 7/48/10 5/38/10
f 22/47/10 21/44/10 9/46/10
f 19/49/1 20/50/1 23/51/1
f 23/51/1 20/50/1 24/52/1
f 25/53/3 26/54/3 18/55/3
f 18/55/3 26/54/3 17/56/3
f 22/57/4 17/58/4 27/59/4
f 27/59/4 17/58/4 26/60/4
f 21/61/5 22/62/5 28/63/5
f 28/63/5 22/62/5 27/64/5
f 25/65/2 18/66/2 23/67/2
f 23/67/2 18/66/2 19/68/2
f 21/69/6 28/70/6 20/71/6
f 20/71/6 28/70/6 24/72/6
f 29/73/11 30/74/11 31/75/11
f 31/75/11 30/74/11 32/76/11
f 33/77/12 34/78/12 30/79/12
f 30/79/12 34/78/12 32/80/12
f 33/81/13 35/82/13 34/83/13
f 34/83/13 35/82/13 36/84/13
f 35/85/14 37/86/14 36/87/14
f 36/87/14 37/86/14 38/88/14
f 39/89/15 38/90/15 40/91/15
f 40/91/15 38/90/15 37/92/15
f 39/93/16 40/94/16 31/95/16
f 31/95/16 40/94/16 29/96/16
f 41/97/10 33/98/10 42/99/10
f 42/99/10 33/98/10 30/100/10
f 42/99/10 30/100/10 43/101/10
f 43/101/10 30/100/10 44/102/10
f 44/102/10 30/100/10 29/103/10
f 44/102/10 29/103/10 45/104/10
f 45/104/10 29/103/10 40/105/10
f 45/104/10 40/105/10 37/106/10
f 46/107/10 37/106/10 41/97/10
f 41/97/10 37/106/10 35/108/10
f 41/97/10 35/108/10 33/98/10
f 46/107/10 45/104/10 37/106/10
f 43/109/11 44/110/11 16/111/11
f 16/111/11 44/110/11 15/112/11
f 47/113/13 48/114/13 42/115/13
f 42/115/13 48/114/13 41/116/13
f 46/117/14 41/118/14 13/119/14
f 13/119/14 41/118/14 48/120/14
f 45/121/15 46/122/15 14/123/15
f 14/123/15 46/122/15 13/124/15
f 47/125/12 42/126/12 16/127/12
f 16/127/12 42/126/12 43/128/12
f 45/129/16 14/130/16 44/131/16
f 44/131/16 14/130/16 15/132/16
f 8/133/17 10/134/17 48/135/17
f 48/135/17 10/134/17 13/136/17
f 6/137/18 8/138/18 47/139/18
f 47/139/18 8/138/18 48/140/18
f 49/141/19 50/142/19 32/143/19
f 32/143/19 50/142/19 31/144/19
f 50/145/20 51/146/20 31/147/20
f 31/147/20 51/146/20 39/148/20
f 51/149/21 52/150/21 39/151/21
f 39/151/21 52/150/21 38/152/21
f 53/153/22 36/154/22 52/155/22
f 52/155/22 36/154/22 38/156/22
f 36/157/23 53/158/23 34/159/23
f 34/159/23 53/158/23 54/160/23
f 32/161/24 34/162/24 49/163/24
f 49/163/24 34/162/24 54/164/24
f 55/165/25 56/166/25 52/167/25
f 52/167/25 56/166/25 57/168/25
f 52/167/25 57/168/25 53/169/25
f 53/169/25 57/168/25 54/170/25
f 54/170/25 57/168/25 58/171/25
f 54/170/25 58/171/25 49/172/25
f 49/172/25 58/171/25 59/173/25
f 49/172/25 59/173/25 60/174/25
f 49/172/25 60/174/25 50/175/25
f 50/175/25 60/174/25 55/165/25
f 50/175/25 55/165/25 51/176/25
f 51/176/25 55/165/25 52/167/25
f 56/177/22 61/178/22 57/179/22
f 57/179/22 61/178/22 62/180/22
f 63/181/21 61/182/21 55/183/21
f 55/183/21 61/182/21 56/184/21
f 57/185/23 62/186/23 58/187/23
f 58/187/23 62/186/23 64/188/23
f 65/189/20 63/190/20 60/191/20
f 60/191/20 63/190/20 55/192/20
f 58/193/24 64/194/24 59/195/24
f 59/195/24 64/194/24 66/196/24
f 60/197/19 59/198/19 65/199/19
f 65/199/19 59/198/19 66/200/19
f 67/201/26 68/202/26 66/203/26
f 66/203/26 68/202/26 65/204/26
f 68/205/27 69/206/27 65/207/27
f 65/207/27 69/206/27 63/208/27
f 69/209/28 70/210/28 63/211/28
f 63/211/28 70/210/28 61/212/28
f 71/213/29 62/214/29 70/215/29
f 70/215/29 62/214/29 61/216/29
f 62/217/30 71/218/30 64/219/30
f 64/219/30 71/218/30 72/220/30
f 64/221/31 72/222/31 66/223/31
f 66/223/31 72/222/31 67/224/31
f 73/225/25 74/226/25 70/227/25
f 70/227/25 74/226/25 75/228/25
f 70/227/25 75/228/25 71/229/25
f 71/229/25 75/228/25 72/230/25
f 72/230/25 75/228/25 76/231/25
f 72/230/25 76/231/25 67/232/25
f 67/232/25 76/231/25 77/233/25
f 67/232/25 77/233/25 78/234/25
f 67/232/25 78/234/25 68/235/25
f 68/235/25 78/234/25 73/225/25
f 68/235/25 73/225/25 69/236/25
f 69/236/25 73/225/25 70/227/25
f 74/237/29 79/238/29 75/239/29
f 75/239/29 79/238/29 80/240/29
f 81/241/28 79/242/28 73/243/28
f 73/243/28 79/242/28 74/244/28
f 75/245/30 80/246/30 76/247/30
f 76/247/30 80/246/30 82/248/30
f 83/249/27 81/250/27 78/251/27
f 78/251/27 81/250/27 73/252/27
f 76/253/31 82/254/31 77/255/31
f 77/255/31 82/254/31 84/256/31
f 78/257/26 77/258/26 83/259/26
f 83/259/26 77/258/26 84/260/26
f 85/261/32 86/262/32 84/263/32
f 84/263/32 86/262/32 83/264/32
f 86/265/33 87/266/33 83/267/33
f 83/267/33 87/266/33 81/268/33
f 87/269/34 88/270/34 81/271/34
f 81/271/34 88/270/34 79/272/34
f 89/273/35 80/274/35 88/275/35
f 88/275/35 80/274/35 79/276/35
f 80/277/36 89/278/36 82/279/36
f 82/279/36 89/278/36 90/280/36
f 82/281/37 90/282/37 84/283/37
f 84/283/37 90/282/37 85/284/37
f 86/285/25 85/286/25 87/287/25
f 87/287/25 85/286/25 88/288/25
f 88/288/25 85/286/25 90/289/25
f 88/288/25 90/289/25 89/290/25
f 26/291/10 23/292/10 27/293/10
f 27/293/10 23/292/10 24/294/10
f 27/293/10 24/294/10 28/295/10
f 26/291/10 25/296/10 23/292/10
f 4/297/38 6/298/38 16/299/38
f 16/299/38 6/298/38 47/300/38
