# Blender v2.90.1 OBJ File: ''
# www.blender.org
mtllib ufo 2 v1.mtl
o ufo_2_v1
v 0.000000 22.705883 -0.054954
v 0.047595 22.705883 -0.027475
v 0.000000 5.705883 -2.017948
v 1.747595 5.705883 -1.008974
v 0.047595 22.705883 0.027483
v 1.747595 5.705883 1.008975
v 0.000000 22.705883 0.054962
v 0.000000 5.705882 2.017950
v -0.047595 22.705883 0.027483
v -1.747595 5.705883 1.008975
v -1.747595 5.705883 -1.008974
v -0.047595 22.705883 -0.027475
v -7.892305 -6.294118 4.556623
v 0.000000 -6.294119 9.113248
v -10.392305 -5.294118 5.999999
v 0.000000 -5.294119 11.999999
v 7.892305 -6.294118 4.556623
v 10.392305 -5.294118 5.999999
v 7.892305 -6.294116 -4.556626
v 10.392305 -5.294116 -6.000001
v 0.000000 -6.294116 -9.113250
v 0.000000 -5.294116 -12.000001
v -10.392305 -5.294116 -6.000001
v -7.892305 -6.294116 -4.556626
v 0.000000 -4.294116 -12.000001
v -10.392305 -4.294116 -6.000000
v -10.392305 -4.294118 6.000000
v 0.000000 -4.294119 11.999999
v 6.830127 -6.294117 -3.943377
v 6.830127 -6.294118 3.943374
v 0.000000 -6.294119 7.886750
v -6.830127 -6.294118 3.943374
v -6.830127 -6.294117 -3.943377
v 0.000000 -6.294116 -7.886753
v 0.000000 -7.294118 4.999999
v -4.330127 -7.294118 2.499999
v 4.330127 -7.294118 2.499999
v 4.330127 -7.294117 -2.500001
v 0.000000 -7.294116 -5.000001
v -4.330127 -7.294117 -2.500001
v -15.320508 -3.294119 8.845298
v 0.000000 -3.294121 17.690599
v -17.320507 -2.294119 10.000000
v 0.000000 -2.294121 20.000000
v 15.320508 -3.294119 8.845298
v 17.320507 -2.294119 10.000000
v 15.320508 -3.294116 -8.845301
v 17.320507 -2.294116 -10.000000
v 0.000000 -3.294115 -17.690599
v 0.000000 -2.294114 -20.000002
v -17.320507 -2.294116 -10.000000
v -15.320508 -3.294116 -8.845301
v 12.392305 -3.294116 -7.154702
v 12.392305 -3.294119 7.154700
v 0.000000 -3.294120 14.309400
v -12.392305 -3.294119 7.154700
v -12.392305 -3.294116 -7.154702
v 0.000000 -3.294115 -14.309403
v 10.392305 -4.294118 6.000000
v 10.392305 -4.294116 -6.000000
v 0.000000 -1.294120 16.535898
v -14.320508 -1.294119 8.267949
v -14.320508 -1.294116 -8.267950
v 0.000000 -1.294115 -16.535898
v 14.320508 -1.294116 -8.267950
v 14.320508 -1.294119 8.267949
v -13.392305 -1.294116 -7.732051
v 0.000000 -1.294115 -15.464102
v 13.392305 -1.294116 -7.732051
v 13.392305 -1.294119 7.732051
v 0.000000 -1.294120 15.464101
v -13.392305 -1.294119 7.732051
v 0.000000 -0.294116 -12.000000
v 10.392305 -0.294117 -6.000000
v -10.392305 -0.294117 -6.000000
v 10.392305 -0.294119 6.000000
v -10.392305 -0.294119 6.000000
v 0.000000 -0.294120 12.000000
v 0.000000 1.705881 8.535898
v -7.392305 1.705882 4.267950
v -7.392305 1.705883 -4.267950
v 0.000000 1.705884 -8.535899
v 7.392305 1.705883 -4.267950
v 7.392305 1.705882 4.267950
v -7.330127 1.705883 -4.232050
v 0.000000 1.705884 -8.464102
v 7.330127 1.705883 -4.232050
v 7.330127 1.705882 4.232051
v 0.000000 1.705881 8.464101
v -7.330127 1.705882 4.232051
v 0.000000 3.705883 -5.000000
v 4.330127 3.705883 -2.499999
v -4.330127 3.705883 -2.499999
v 4.330127 3.705882 2.500001
v -4.330127 3.705882 2.500001
v 0.000000 3.705882 5.000000
v 0.000000 5.705882 2.690600
v -2.330127 5.705883 1.345300
v -2.330127 5.705883 -1.345299
v 0.000000 5.705883 -2.690598
v 2.330127 5.705883 -1.345299
v 2.330127 5.705883 1.345300
vt 0.053197 0.854239
vt 0.047701 0.854239
vt 0.151346 -0.854239
vt -0.050449 -0.854239
vt 0.053197 0.854239
vt 0.047701 0.854239
vt 0.151346 -0.854239
vt -0.050449 -0.854239
vt 0.053197 0.854239
vt 0.047701 0.854239
vt 0.151346 -0.854239
vt -0.050449 -0.854239
vt 0.053197 0.854239
vt 0.047701 0.854239
vt 0.151346 -0.854239
vt -0.050449 -0.854239
vt -0.050449 -0.854239
vt 0.151346 -0.854239
vt 0.047701 0.854239
vt 0.053197 0.854239
vt -0.050449 -0.854239
vt 0.151346 -0.854239
vt 0.047701 0.854239
vt 0.053197 0.854239
vt 0.002748 0.004760
vt -0.002748 0.004760
vt 0.005496 0.000000
vt -0.005496 0.000000
vt 0.002748 -0.004760
vt -0.002748 -0.004760
vt 0.061098 0.196527
vt -0.712807 -0.284706
vt 0.325854 0.044090
vt -0.693195 -0.589581
vt -0.570622 0.513362
vt -0.835379 0.360925
vt 0.203282 0.032129
vt 0.183670 -0.272746
vt 0.134629 -0.155662
vt 0.134629 0.755662
vt -0.134629 -0.300000
vt -0.134629 0.900000
vt -0.061098 -0.196527
vt 0.712807 0.284706
vt -0.325854 -0.044090
vt 0.693195 0.589581
vt 0.835379 -0.360925
vt -0.183670 0.272746
vt 0.570622 -0.513362
vt -0.203282 -0.032129
vt 0.134629 0.300000
vt -0.134629 0.155662
vt 0.134629 -0.900000
vt -0.134629 -0.755662
vt -0.000000 -0.300000
vt 1.200000 -0.300000
vt -0.000000 -0.200000
vt 1.200000 -0.200000
vt -0.000000 -0.300000
vt 1.200000 -0.300000
vt -0.000000 -0.200000
vt 1.200000 -0.200000
vt 0.000000 -0.300000
vt 1.200000 -0.300000
vt -0.000000 -0.200000
vt 1.200000 -0.200000
vt -0.683013 0.394338
vt -0.789231 -0.455662
vt -0.683013 -0.394338
vt 0.000000 -0.911325
vt 0.000000 -0.788675
vt 0.683013 -0.394338
vt 0.789231 -0.455662
vt 0.683013 0.394338
vt 0.789231 0.455662
vt 0.000000 0.911325
vt 0.000000 0.788675
vt -0.789231 0.455662
vt -0.369933 -0.388569
vt 0.299816 0.027898
vt -0.389545 -0.083694
vt 0.035059 0.180335
vt 0.134629 -0.125000
vt 0.134629 0.375000
vt -0.134629 -0.269338
vt -0.134629 0.519338
vt 0.369933 0.388569
vt -0.299816 -0.027898
vt 0.389545 0.083694
vt -0.035059 -0.180335
vt 0.512118 -0.159913
vt -0.157631 0.256554
vt 0.247361 -0.312350
vt -0.177243 -0.048321
vt -0.247361 0.312350
vt -0.512118 0.159913
vt 0.177243 0.048321
vt 0.157631 -0.256554
vt 0.134629 0.269338
vt -0.134629 0.125000
vt 0.134629 -0.519338
vt -0.134629 -0.375000
vt 0.262436 0.302474
vt -1.223872 -0.656933
vt 0.480718 0.177229
vt -1.199618 -0.907423
vt -1.102604 0.844800
vt -1.320886 0.719556
vt 0.383704 -0.114607
vt 0.359450 -0.365097
vt 0.111803 -0.384530
vt 0.111803 1.384530
vt -0.111803 -0.500000
vt -0.111803 1.500000
vt -0.262436 -0.302474
vt 1.223872 0.656933
vt -0.480718 -0.177229
vt 1.199618 0.907423
vt 1.320886 -0.719556
vt -0.359450 0.365097
vt 1.102604 -0.844800
vt -0.383704 0.114607
vt 0.111803 0.500000
vt -0.111803 0.384530
vt 0.111803 -1.500000
vt -0.111803 -1.384530
vt -1.239231 0.715470
vt -1.532051 -0.884530
vt -1.239231 -0.715470
vt 0.000000 -1.769060
vt 0.000000 -1.430940
vt 1.239231 -0.715470
vt 1.532051 -0.884530
vt 1.239231 0.715470
vt 1.532051 0.884530
vt 0.000000 1.769060
vt 0.000000 1.430940
vt -1.532051 0.884530
vt -0.792532 -0.644650
vt 0.409699 0.131387
vt -0.816785 -0.394160
vt 0.191417 0.256631
vt 0.111803 -0.300000
vt 0.111803 0.900000
vt -0.111803 -0.415470
vt -0.111803 1.015470
vt 0.792532 0.644650
vt -0.409699 -0.131387
vt 0.816785 0.394160
vt -0.191417 -0.256631
vt 0.913799 -0.456782
vt -0.288431 0.319254
vt 0.695517 -0.582027
vt -0.312684 0.068764
vt -0.695517 0.582027
vt -0.913799 0.456782
vt 0.312684 -0.068764
vt 0.288431 -0.319254
vt 0.111803 0.415470
vt -0.111803 0.300000
vt 0.111803 -1.015470
vt -0.111803 -0.900000
vt 0.000000 -0.300000
vt 1.200000 -0.300000
vt 0.000000 -0.200000
vt 1.200000 -0.200000
vt -0.000000 -0.300000
vt 1.200000 -0.300000
vt 0.000000 -0.200000
vt 1.200000 -0.200000
vt 1.215604 -0.554700
vt -0.196963 0.304960
vt 1.199164 -0.914880
vt -0.509321 0.124870
vt 0.158114 -1.326795
vt 0.158114 0.326795
vt -0.158114 -1.500000
vt -0.158114 0.500000
vt -1.051205 -0.824835
vt 0.361362 0.034825
vt -1.363563 -0.644745
vt 0.344922 0.395005
vt 0.196963 -0.304960
vt 0.509321 -0.124870
vt -1.215604 0.554700
vt -1.199164 0.914880
vt 0.158114 1.500000
vt -0.158114 1.326795
vt 0.158114 -0.500000
vt -0.158114 -0.326795
vt -0.344922 -0.395005
vt 1.363563 0.644745
vt -0.361362 -0.034825
vt 1.051205 0.824835
vt -1.339231 0.773205
vt 0.000000 1.546410
vt -0.000000 1.653590
vt 1.339231 0.773205
vt 1.432051 0.826795
vt 1.432051 -0.826795
vt 1.339231 -0.773205
vt -0.000000 -1.653590
vt -0.000000 -1.546410
vt -1.339231 -0.773205
vt -1.432051 -0.826795
vt -1.432051 0.826795
vt -0.834578 0.693000
vt -0.851017 0.332820
vt 0.486431 -0.110940
vt 0.174073 -0.291030
vt -0.686618 -0.602955
vt 0.338472 0.020895
vt -0.998977 -0.422865
vt 0.322032 0.381075
vt 0.158114 1.073205
vt -0.158114 0.900000
vt 0.158114 -0.473205
vt -0.158114 -0.300000
vt 0.158114 -0.900000
vt 0.158114 0.300000
vt -0.158114 -1.073205
vt -0.158114 0.473205
vt 0.998977 0.422865
vt 0.686618 0.602955
vt -0.322032 -0.381075
vt -0.338472 -0.020895
vt -0.486431 0.110940
vt 0.834578 -0.693000
vt -0.174073 0.291030
vt 0.851017 -0.332820
vt 0.699897 -0.266224
vt -0.001399 0.220397
vt 0.636651 -0.661192
vt -0.349249 0.022913
vt 0.180278 -0.726795
vt 0.180278 0.126795
vt -0.180278 -0.900000
vt -0.180278 0.300000
vt -0.494349 -0.562450
vt 0.206947 -0.075829
vt -0.842199 -0.364966
vt 0.143701 0.319139
vt 0.001399 -0.220397
vt 0.349249 -0.022913
vt -0.699897 0.266224
vt -0.636651 0.661192
vt 0.180278 0.900000
vt -0.180278 0.726795
vt 0.180278 -0.300000
vt -0.180278 -0.126795
vt 0.842199 0.364966
vt 0.494349 0.562450
vt -0.143701 -0.319139
vt -0.206947 0.075829
vt -0.733013 0.423205
vt -0.000000 0.846410
vt -0.000000 0.853590
vt 0.733013 0.423205
vt 0.739231 0.426795
vt 0.739231 -0.426795
vt 0.733013 -0.423205
vt -0.000000 -0.853590
vt -0.000000 -0.846410
vt -0.733013 -0.423205
vt -0.739231 -0.426795
vt -0.739231 0.426795
vt -0.347622 0.460638
vt -0.410868 0.065670
vt 0.347774 -0.021890
vt -0.000076 -0.219374
vt -0.205320 -0.361896
vt 0.205472 -0.076852
vt -0.553170 -0.164412
vt 0.142226 0.318116
vt 0.180278 0.548205
vt -0.180278 0.375000
vt 0.180278 -0.298205
vt -0.180278 -0.125000
vt 0.180278 -0.375000
vt 0.180278 0.125000
vt -0.180278 -0.548205
vt -0.180278 0.298205
vt 0.553170 0.164412
vt 0.205320 0.361896
vt -0.142226 -0.318116
vt -0.205472 0.076852
vt -0.347774 0.021890
vt 0.347622 -0.460638
vt 0.000076 0.219374
vt 0.410868 -0.065670
vt 0.290474 -0.054597
vt 0.082061 0.115572
vt 0.201031 -0.346715
vt -0.186267 -0.030488
vt 0.141421 -0.259530
vt 0.141421 0.009530
vt -0.141421 -0.375000
vt -0.141421 0.125000
vt -0.111588 -0.273686
vt 0.096825 -0.103517
vt -0.379916 -0.127626
vt 0.007382 0.188601
vt -0.082061 -0.115572
vt 0.186267 0.030488
vt -0.290474 0.054597
vt -0.201031 0.346715
vt 0.141421 0.375000
vt -0.141421 0.259530
vt 0.141421 -0.125000
vt -0.141421 -0.009530
vt 0.379916 0.127626
vt 0.111588 0.273686
vt -0.007382 -0.188601
vt -0.096825 0.103517
vt -0.174760 0.100897
vt -0.233013 -0.134530
vt -0.174760 -0.100897
vt -0.000000 -0.269060
vt -0.000000 -0.201795
vt 0.174760 -0.100897
vt 0.233013 -0.134530
vt 0.174760 0.100897
vt 0.233013 0.134530
vt -0.000000 0.269060
vt 0.000000 0.201795
vt -0.233013 0.134530
vt -0.433013 0.250000
vt 0.000000 -0.500000
vt 0.000000 0.500000
vt 0.433013 -0.250000
vt 0.433013 0.250000
vt -0.433013 -0.250000
vt 0.000000 -0.300000
vt 1.200000 -0.300000
vt 0.000000 -0.200000
vt 1.200000 -0.200000
vn 0.4975 0.0995 -0.8617
vn 0.9950 0.0995 0.0000
vn 0.4975 0.0995 0.8617
vn -0.4975 0.0995 0.8617
vn -0.9950 0.0995 0.0000
vn -0.4975 0.0995 -0.8617
vn 0.0000 1.0000 0.0000
vn -0.1857 -0.9285 0.3216
vn 0.1857 -0.9285 0.3216
vn 0.3714 -0.9285 -0.0000
vn 0.1857 -0.9285 -0.3216
vn -0.1857 -0.9285 -0.3216
vn -0.3714 -0.9285 -0.0000
vn -0.5000 0.0000 -0.8660
vn -1.0000 -0.0000 0.0000
vn -0.5000 -0.0000 0.8660
vn 0.0000 -1.0000 -0.0000
vn -0.2236 -0.8944 0.3873
vn 0.2236 -0.8944 0.3873
vn 0.4472 -0.8944 -0.0000
vn 0.2236 -0.8944 -0.3873
vn -0.2236 -0.8944 -0.3873
vn -0.4472 -0.8944 -0.0000
vn 0.5000 0.0000 -0.8660
vn 1.0000 0.0000 0.0000
vn -0.1581 0.9487 0.2739
vn -0.3162 0.9487 0.0000
vn -0.1581 0.9487 -0.2739
vn 0.1581 0.9487 -0.2739
vn 0.3162 0.9487 0.0000
vn 0.1581 0.9487 0.2739
vn -0.2774 0.8321 0.4804
vn -0.5547 0.8321 0.0000
vn -0.2774 0.8321 -0.4804
vn 0.2774 0.8321 -0.4804
vn 0.5547 0.8321 0.0000
vn 0.2774 0.8321 0.4804
vn -0.3536 0.7071 0.6124
vn -0.7071 0.7071 0.0000
vn -0.3536 0.7071 -0.6124
vn 0.3536 0.7071 -0.6124
vn 0.7071 0.7071 0.0000
vn 0.3536 0.7071 0.6124
vn 0.5000 0.0000 0.8660
usemtl Steel_-_Satin.006
s 1
f 1/1/1 2/2/1 3/3/1
f 3/3/1 2/2/1 4/4/1
f 2/5/2 5/6/2 4/7/2
f 4/7/2 5/6/2 6/8/2
f 5/9/3 7/10/3 6/11/3
f 6/11/3 7/10/3 8/12/3
f 7/13/4 9/14/4 8/15/4
f 8/15/4 9/14/4 10/16/4
f 11/17/5 10/18/5 12/19/5
f 12/19/5 10/18/5 9/20/5
f 3/21/6 11/22/6 1/23/6
f 1/23/6 11/22/6 12/24/6
f 5/25/7 2/26/7 7/27/7
f 7/27/7 2/26/7 1/28/7
f 7/27/7 1/28/7 9/29/7
f 9/29/7 1/28/7 12/30/7
f 13/31/8 14/32/8 15/33/8
f 15/33/8 14/32/8 16/34/8
f 17/35/9 18/36/9 14/37/9
f 14/37/9 18/36/9 16/38/9
f 17/39/10 19/40/10 18/41/10
f 18/41/10 19/40/10 20/42/10
f 19/43/11 21/44/11 20/45/11
f 20/45/11 21/44/11 22/46/11
f 23/47/12 22/48/12 24/49/12
f 24/49/12 22/48/12 21/50/12
f 23/51/13 24/52/13 15/53/13
f 15/53/13 24/52/13 13/54/13
f 22/55/14 23/56/14 25/57/14
f 25/57/14 23/56/14 26/58/14
f 23/59/15 15/60/15 26/61/15
f 26/61/15 15/60/15 27/62/15
f 15/63/16 16/64/16 27/65/16
f 27/65/16 16/64/16 28/66/16
f 29/67/17 17/68/17 30/69/17
f 30/69/17 17/68/17 14/70/17
f 30/69/17 14/70/17 31/71/17
f 31/71/17 14/70/17 32/72/17
f 32/72/17 14/70/17 13/73/17
f 32/72/17 13/73/17 33/74/17
f 33/74/17 13/73/17 24/75/17
f 33/74/17 24/75/17 21/76/17
f 34/77/17 21/76/17 29/67/17
f 29/67/17 21/76/17 19/78/17
f 29/67/17 19/78/17 17/68/17
f 34/77/17 33/74/17 21/76/17
f 31/79/8 32/80/8 35/81/8
f 35/81/8 32/80/8 36/82/8
f 37/83/10 38/84/10 30/85/10
f 30/85/10 38/84/10 29/86/10
f 34/87/11 29/88/11 39/89/11
f 39/89/11 29/88/11 38/90/11
f 33/91/12 34/92/12 40/93/12
f 40/93/12 34/92/12 39/94/12
f 37/95/9 30/96/9 35/97/9
f 35/97/9 30/96/9 31/98/9
f 33/99/13 40/100/13 32/101/13
f 32/101/13 40/100/13 36/102/13
f 41/103/18 42/104/18 43/105/18
f 43/105/18 42/104/18 44/106/18
f 45/107/19 46/108/19 42/109/19
f 42/109/19 46/108/19 44/110/19
f 45/111/20 47/112/20 46/113/20
f 46/113/20 47/112/20 48/114/20
f 47/115/21 49/116/21 48/117/21
f 48/117/21 49/116/21 50/118/21
f 51/119/22 50/120/22 52/121/22
f 52/121/22 50/120/22 49/122/22
f 51/123/23 52/124/23 43/125/23
f 43/125/23 52/124/23 41/126/23
f 53/127/17 45/128/17 54/129/17
f 54/129/17 45/128/17 42/130/17
f 54/129/17 42/130/17 55/131/17
f 55/131/17 42/130/17 56/132/17
f 56/132/17 42/130/17 41/133/17
f 56/132/17 41/133/17 57/134/17
f 57/134/17 41/133/17 52/135/17
f 57/134/17 52/135/17 49/136/17
f 58/137/17 49/136/17 53/127/17
f 53/127/17 49/136/17 47/138/17
f 53/127/17 47/138/17 45/128/17
f 58/137/17 57/134/17 49/136/17
f 55/139/18 56/140/18 28/141/18
f 28/141/18 56/140/18 27/142/18
f 59/143/20 60/144/20 54/145/20
f 54/145/20 60/144/20 53/146/20
f 58/147/21 53/148/21 25/149/21
f 25/149/21 53/148/21 60/150/21
f 57/151/22 58/152/22 26/153/22
f 26/153/22 58/152/22 25/154/22
f 59/155/19 54/156/19 28/157/19
f 28/157/19 54/156/19 55/158/19
f 57/159/23 26/160/23 56/161/23
f 56/161/23 26/160/23 27/162/23
f 20/163/24 22/164/24 60/165/24
f 60/165/24 22/164/24 25/166/24
f 18/167/25 20/168/25 59/169/25
f 59/169/25 20/168/25 60/170/25
f 61/171/26 62/172/26 44/173/26
f 44/173/26 62/172/26 43/174/26
f 62/175/27 63/176/27 43/177/27
f 43/177/27 63/176/27 51/178/27
f 63/179/28 64/180/28 51/181/28
f 51/181/28 64/180/28 50/182/28
f 65/183/29 48/184/29 64/185/29
f 64/185/29 48/184/29 50/186/29
f 48/187/30 65/188/30 46/189/30
f 46/189/30 65/188/30 66/190/30
f 44/191/31 46/192/31 61/193/31
f 61/193/31 46/192/31 66/194/31
f 67/195/7 68/196/7 64/197/7
f 64/197/7 68/196/7 69/198/7
f 64/197/7 69/198/7 65/199/7
f 65/199/7 69/198/7 66/200/7
f 66/200/7 69/198/7 70/201/7
f 66/200/7 70/201/7 61/202/7
f 61/202/7 70/201/7 71/203/7
f 61/202/7 71/203/7 72/204/7
f 61/202/7 72/204/7 62/205/7
f 62/205/7 72/204/7 67/195/7
f 62/205/7 67/195/7 63/206/7
f 63/206/7 67/195/7 64/197/7
f 68/207/29 73/208/29 69/209/29
f 69/209/29 73/208/29 74/210/29
f 75/211/28 73/212/28 67/213/28
f 67/213/28 73/212/28 68/214/28
f 69/215/30 74/216/30 70/217/30
f 70/217/30 74/216/30 76/218/30
f 77/219/27 75/220/27 72/221/27
f 72/221/27 75/220/27 67/222/27
f 70/223/31 76/224/31 71/225/31
f 71/225/31 76/224/31 78/226/31
f 72/227/26 71/228/26 77/229/26
f 77/229/26 71/228/26 78/230/26
f 79/231/32 80/232/32 78/233/32
f 78/233/32 80/232/32 77/234/32
f 80/235/33 81/236/33 77/237/33
f 77/237/33 81/236/33 75/238/33
f 81/239/34 82/240/34 75/241/34
f 75/241/34 82/240/34 73/242/34
f 83/243/35 74/244/35 82/245/35
f 82/245/35 74/244/35 73/246/35
f 74/247/36 83/248/36 76/249/36
f 76/249/36 83/248/36 84/250/36
f 76/251/37 84/252/37 78/253/37
f 78/253/37 84/252/37 79/254/37
f 85/255/7 86/256/7 82/257/7
f 82/257/7 86/256/7 87/258/7
f 82/257/7 87/258/7 83/259/7
f 83/259/7 87/258/7 84/260/7
f 84/260/7 87/258/7 88/261/7
f 84/260/7 88/261/7 79/262/7
f 79/262/7 88/261/7 89/263/7
f 79/262/7 89/263/7 90/264/7
f 79/262/7 90/264/7 80/265/7
f 80/265/7 90/264/7 85/255/7
f 80/265/7 85/255/7 81/266/7
f 81/266/7 85/255/7 82/257/7
f 86/267/35 91/268/35 87/269/35
f 87/269/35 91/268/35 92/270/35
f 93/271/34 91/272/34 85/273/34
f 85/273/34 91/272/34 86/274/34
f 87/275/36 92/276/36 88/277/36
f 88/277/36 92/276/36 94/278/36
f 95/279/33 93/280/33 90/281/33
f 90/281/33 93/280/33 85/282/33
f 88/283/37 94/284/37 89/285/37
f 89/285/37 94/284/37 96/286/37
f 90/287/32 89/288/32 95/289/32
f 95/289/32 89/288/32 96/290/32
f 97/291/38 98/292/38 96/293/38
f 96/293/38 98/292/38 95/294/38
f 98/295/39 99/296/39 95/297/39
f 95/297/39 99/296/39 93/298/39
f 99/299/40 100/300/40 93/301/40
f 93/301/40 100/300/40 91/302/40
f 101/303/41 92/304/41 100/305/41
f 100/305/41 92/304/41 91/306/41
f 92/307/42 101/308/42 94/309/42
f 94/309/42 101/308/42 102/310/42
f 94/311/43 102/312/43 96/313/43
f 96/313/43 102/312/43 97/314/43
f 11/315/7 98/316/7 10/317/7
f 10/317/7 98/316/7 97/318/7
f 10/317/7 97/318/7 8/319/7
f 8/319/7 97/318/7 6/320/7
f 6/320/7 97/318/7 102/321/7
f 6/320/7 102/321/7 4/322/7
f 4/322/7 102/321/7 101/323/7
f 4/322/7 101/323/7 100/324/7
f 3/325/7 100/324/7 11/315/7
f 11/315/7 100/324/7 99/326/7
f 11/315/7 99/326/7 98/316/7
f 3/325/7 4/322/7 100/324/7
f 38/327/17 35/328/17 39/329/17
f 39/329/17 35/328/17 36/330/17
f 39/329/17 36/330/17 40/331/17
f 38/327/17 37/332/17 35/328/17
f 16/333/44 18/334/44 28/335/44
f 28/335/44 18/334/44 59/336/44
