# Blender v2.93.0 OBJ File: 'w1 EXPORT FILE extra.blend'
# www.blender.org
mtllib Cactus 2.mtl
g Cactus_2_Cactus_2_v5
v -1.098484 -0.011008 0.660354
v 0.032225 -0.165997 1.314628
v -1.376126 1.406953 0.809480
v -0.075485 1.585781 1.666494
v -0.085034 1.553409 -1.739014
v 1.370982 1.443549 -0.749944
v -0.063791 -0.006981 -1.392284
v 1.104698 -0.013492 -0.644337
v 1.144436 -0.053119 0.733712
v 1.453330 1.511289 0.827692
v -1.417139 1.337584 -0.859894
v -1.107954 -0.029448 -0.663922
v -0.002291 2.328937 1.677030
v 1.473486 2.308708 0.841527
v 1.430115 2.385590 -0.874158
v 0.010561 2.247431 -1.781586
v -0.943671 3.237177 0.482342
v -0.891182 3.306712 -0.528429
v -1.526950 2.357428 0.871644
v -1.522834 2.252097 -0.824350
v 0.048477 3.392180 -1.077444
v 0.843773 3.372146 -0.663818
v 0.936356 3.352870 0.598368
v 0.038770 3.323602 1.044682
v -0.450637 3.212827 0.348134
v -0.008414 3.323068 0.666616
v -0.723112 4.089908 0.429767
v -0.094238 4.045588 0.920550
v -0.015826 4.082211 -0.796079
v 0.790465 4.057943 -0.438280
v -0.000684 3.330837 -0.643414
v 0.497900 3.258354 -0.337724
v 0.619532 3.355746 0.214862
v 0.813428 4.172870 0.472949
v -0.737650 4.066086 -0.463377
v -0.540874 3.386051 -0.294873
v 0.009449 4.494212 0.822436
v 0.642619 4.495907 0.386154
v 0.719835 4.451667 -0.461674
v -0.000224 4.510876 -0.839958
v -0.382037 5.111535 0.357288
v -0.474069 5.012788 -0.274506
v -0.675868 4.446655 0.302901
v -0.621315 4.587443 -0.399194
v 0.101444 4.949000 -0.480231
v 0.528883 5.001822 -0.208330
v 0.392885 5.061905 0.269531
v -0.060863 4.978365 0.632089
vt 0.295350 0.397172
vt 0.296822 0.398022
vt 0.295350 0.400572
vt 0.293878 0.399722
vt 0.294331 0.399169
vt 0.294331 0.397469
vt 0.296369 0.397214
vt 0.296369 0.399424
vt 0.294291 0.398792
vt 0.294889 0.397201
vt 0.296887 0.397678
vt 0.296109 0.399747
vt 0.296551 0.398413
vt 0.296551 0.399518
vt 0.294341 0.399518
vt 0.294341 0.398413
vt 0.295447 0.399603
vt 0.295005 0.399032
vt 0.295474 0.398426
vt 0.296150 0.399300
vt 0.293813 0.400065
vt 0.294590 0.397996
vt 0.296408 0.398952
vt 0.295810 0.400543
vt 0.295350 0.397427
vt 0.296601 0.398150
vt 0.295350 0.400316
vt 0.294099 0.399594
vt 0.296551 0.398413
vt 0.296551 0.399518
vt 0.294341 0.399518
vt 0.294341 0.398413
vt 0.296455 0.399866
vt 0.296455 0.400419
vt 0.295350 0.400419
vt 0.295350 0.399866
vt 0.294202 0.398713
vt 0.296199 0.398235
vt 0.296797 0.399826
vt 0.294979 0.400782
vt 0.296822 0.399722
vt 0.293878 0.398022
vt 0.295350 0.398150
vt 0.295975 0.398511
vt 0.295350 0.399594
vt 0.294724 0.399233
vt 0.295720 0.398957
vt 0.294979 0.399148
vt 0.294979 0.398043
vt 0.295720 0.398234
vt 0.295544 0.400334
vt 0.294660 0.399192
vt 0.295597 0.397981
vt 0.296951 0.399728
vt 0.296455 0.399866
vt 0.296455 0.400419
vt 0.295350 0.400419
vt 0.295350 0.399866
vt 0.295564 0.397990
vt 0.296033 0.398595
vt 0.295591 0.399166
vt 0.294888 0.398863
vt 0.295350 0.398022
vt 0.296086 0.398447
vt 0.295350 0.399722
vt 0.294614 0.399297
vt 0.294821 0.398832
vt 0.295120 0.398036
vt 0.296118 0.398275
vt 0.295730 0.399310
vt 0.293903 0.397917
vt 0.295720 0.396962
vt 0.296498 0.399031
vt 0.294501 0.399509
vt 0.294099 0.398150
vt 0.294331 0.398319
vt 0.296369 0.398574
vt 0.296369 0.400274
vt 0.294331 0.400529
vt 0.296601 0.399594
vt 0.296551 0.398413
vt 0.296551 0.399518
vt 0.294341 0.399518
vt 0.294341 0.398413
vt 0.296455 0.399866
vt 0.296455 0.400419
vt 0.295350 0.400419
vt 0.295350 0.399866
vt 0.296455 0.399866
vt 0.296455 0.400419
vt 0.295350 0.400419
vt 0.295350 0.399866
vt 0.294776 0.398792
vt 0.295774 0.398553
vt 0.296073 0.399349
vt 0.295164 0.399827
vt 0.295720 0.398596
vt 0.295720 0.399701
vt 0.294979 0.399509
vt 0.294979 0.398787
vt 0.294626 0.398395
vt 0.295535 0.397917
vt 0.295924 0.398951
vt 0.294925 0.399190
vt 0.295102 0.399763
vt 0.293749 0.398015
vt 0.295155 0.397410
vt 0.296040 0.398552
vt 0.294840 0.399021
vt 0.294840 0.398171
vt 0.295859 0.398043
vt 0.295859 0.399148
vt 0.296091 0.398319
vt 0.296091 0.400529
vt 0.294608 0.400147
vt 0.294608 0.398702
vt 0.296455 0.399866
vt 0.296455 0.400419
vt 0.295350 0.400419
vt 0.295350 0.399866
vt 0.296086 0.399297
vt 0.294614 0.398447
vt 0.295109 0.398578
vt 0.295812 0.398880
vt 0.295135 0.399754
vt 0.294666 0.399149
vt 0.294868 0.398284
vt 0.296274 0.398889
vt 0.294921 0.400636
vt 0.293983 0.399426
vt 0.296091 0.399042
vt 0.294608 0.399424
vt 0.294608 0.397214
vt 0.296091 0.397597
vt 0.296455 0.399866
vt 0.296455 0.400419
vt 0.295350 0.400419
vt 0.295350 0.399866
vt 0.296551 0.398413
vt 0.296551 0.399518
vt 0.294341 0.399518
vt 0.294341 0.398413
vt 0.294840 0.398596
vt 0.295859 0.398723
vt 0.295859 0.399573
vt 0.294840 0.399701
vt 0.296551 0.398413
vt 0.296551 0.399518
vt 0.294341 0.399518
vt 0.294341 0.398413
vt 0.295226 0.399317
vt 0.294549 0.398444
vt 0.295253 0.398141
vt 0.295695 0.398712
vt 0.294724 0.398511
vt 0.295779 0.397107
vt 0.296716 0.398318
vt 0.295832 0.399460
vt 0.294425 0.398855
vt 0.295975 0.399233
vt 0.294581 0.399469
vt 0.294970 0.398434
vt 0.295879 0.398912
vt 0.295580 0.399707
vt 0.296551 0.398413
vt 0.296551 0.399518
vt 0.294341 0.399518
vt 0.294341 0.398413
vn -0.0179 -0.9986 -0.0496
vn -0.0741 -0.9965 -0.0393
vn -0.0030 -0.9992 -0.0401
vn 0.0455 -0.9976 -0.0528
vn -0.9784 -0.2055 0.0223
vn -0.9811 -0.1931 0.0097
vn -0.9785 -0.2050 0.0218
vn -0.9758 -0.2160 0.0330
vn -0.5345 -0.2142 -0.8176
vn -0.5520 -0.2393 -0.7987
vn -0.5335 -0.2129 -0.8186
vn -0.5187 -0.1922 -0.8331
vn 0.5449 -0.1315 -0.8281
vn 0.5430 -0.1257 -0.8303
vn 0.5473 -0.1388 -0.8253
vn 0.5487 -0.1430 -0.8237
vn 0.5275 0.3825 0.7586
vn 0.5355 0.3752 0.7566
vn 0.5287 0.3814 0.7583
vn 0.5225 0.3871 0.7597
vn 0.4701 -0.1456 0.8705
vn 0.4696 -0.1451 0.8709
vn -0.0560 0.9977 0.0393
vn -0.0093 0.9996 0.0284
vn -0.0338 0.9991 0.0269
vn -0.0859 0.9955 0.0401
vn -0.9894 -0.1444 0.0142
vn -0.9875 -0.1572 0.0074
vn -0.9914 -0.1294 0.0221
vn -0.9928 -0.1159 0.0292
vn -0.5826 0.3114 0.7508
vn -0.5894 0.3003 0.7500
vn -0.5722 0.3278 0.7517
vn -0.5630 0.3421 0.7523
vn 0.5385 -0.1669 -0.8259
vn 0.5318 -0.1575 -0.8321
vn 0.5387 -0.1672 -0.8257
vn 0.5442 -0.1749 -0.8205
vn 0.0311 -0.9994 0.0137
vn 0.0848 -0.9959 -0.0311
vn 0.0859 0.9924 -0.0885
vn -0.1777 0.9809 -0.0786
vn -0.0121 0.9983 -0.0575
vn 0.1866 0.9813 -0.0478
vn -0.9310 0.3637 0.0312
vn -0.9443 0.3290 -0.0074
vn -0.9282 0.3702 0.0385
vn -0.9145 0.3983 0.0710
vn 0.4248 0.4425 0.7897
vn 0.3764 0.4859 0.7888
vn 0.4188 0.4481 0.7898
vn 0.4522 0.4163 0.7888
vn -0.5094 0.1235 -0.8516
vn -0.5461 0.2213 -0.8080
vn -0.4717 0.0360 -0.8810
vn -0.4159 -0.0776 -0.9061
vn -0.5933 0.2094 0.7773
vn -0.5781 0.2245 0.7845
vn -0.5937 0.2090 0.7771
vn -0.6005 0.2021 0.7737
vn 0.1298 -0.9910 0.0322
vn 0.1280 -0.9900 -0.0597
vn -0.0904 -0.9934 -0.0703
vn -0.0547 -0.9978 0.0367
vn -0.4696 -0.2644 -0.8424
vn -0.5334 -0.3456 -0.7720
vn -0.4665 -0.2606 -0.8452
vn -0.4075 -0.1897 -0.8933
vn -0.5158 -0.1938 0.8345
vn -0.5200 -0.1988 0.8307
vn -0.5164 -0.1946 0.8339
vn -0.5111 -0.1883 0.8386
vn -0.1225 0.9905 0.0618
vn 0.9816 -0.1870 -0.0388
vn 0.9809 -0.1916 -0.0338
vn 0.9822 -0.1827 -0.0434
vn 0.0179 0.9997 0.0140
vn -0.4886 -0.0205 0.8723
vn -0.4663 0.0334 0.8840
vn -0.5146 -0.0895 0.8528
vn -0.5315 -0.1390 0.8356
vn 0.4423 -0.0716 -0.8940
vn 0.4555 -0.1070 -0.8838
vn 0.4204 -0.0161 -0.9072
vn 0.4060 0.0185 -0.9137
vn 0.9664 0.2544 0.0382
vn 0.9803 0.1806 0.0799
vn 0.9219 0.3854 -0.0394
vn 0.8899 0.4493 -0.0791
vn 0.4288 -0.2193 -0.8764
vn 0.4724 -0.2780 -0.8364
vn 0.4340 -0.2262 -0.8720
vn 0.3949 -0.1753 -0.9018
vn 0.9236 0.3606 0.1302
vn 0.9520 0.2977 0.0712
vn 0.9266 0.3548 0.1247
vn 0.8814 0.4295 0.1968
vn -0.5591 -0.2801 0.7803
vn -0.5954 -0.3284 0.7332
vn -0.5691 -0.2931 0.7682
vn -0.5273 -0.2397 0.8151
vn -0.4687 0.4791 -0.7422
vn -0.4620 0.4850 -0.7425
vn -0.4677 0.4799 -0.7422
vn -0.4764 0.4720 -0.7418
vn -0.9571 -0.2872 0.0383
vn -0.9523 -0.3007 0.0526
vn -0.9574 -0.2862 0.0372
vn -0.9618 -0.2726 0.0229
vn 0.8780 0.4777 -0.0298
vn 0.8597 0.5107 0.0011
vn 0.8732 0.4869 -0.0213
vn 0.8932 0.4458 -0.0587
vn -0.9868 0.1602 -0.0250
vn -0.9922 0.1120 -0.0546
vn -0.9812 0.1927 -0.0048
vn -0.9762 0.2166 0.0101
vn -0.2393 -0.9454 -0.2211
vn 0.1511 -0.9787 0.1392
vn 0.4275 0.5044 -0.7502
vn 0.4353 0.4968 -0.7508
vn 0.4263 0.5056 -0.7501
vn 0.4121 0.5191 -0.7488
vn 0.4392 0.4483 -0.7785
vn 0.4543 0.4357 -0.7770
vn 0.4387 0.4487 -0.7786
vn 0.4175 0.4660 -0.7801
vn -0.8470 0.5311 -0.0245
vn -0.8531 0.5206 -0.0344
vn -0.8455 0.5335 -0.0222
vn -0.8345 0.5509 -0.0054
vn 0.4866 0.3441 0.8030
vn 0.5024 0.4620 0.7309
vn 0.4508 0.1762 0.8751
vn 0.4292 0.0972 0.8980
vn -0.5351 -0.0160 -0.8446
vn -0.5294 -0.0282 -0.8479
vn -0.5454 0.0067 -0.8382
vn -0.5535 0.0252 -0.8325
vn 0.9575 -0.2837 -0.0526
vn 0.9680 -0.1720 -0.1827
vn 0.9607 -0.2684 -0.0712
vn 0.9397 -0.3414 0.0194
vn 0.9979 -0.0548 -0.0345
vn 0.9974 -0.0663 -0.0282
vn 0.9983 -0.0386 -0.0433
vn 0.9984 -0.0243 -0.0511
vn -0.3272 0.5538 -0.7657
vn -0.4977 0.3982 -0.7705
vn -0.3816 0.5090 -0.7716
vn -0.1913 0.6490 -0.7364
vn 0.5196 0.8294 -0.2053
vn -0.4219 0.5301 0.7355
vn -0.4655 0.4884 0.7381
vn -0.4094 0.5415 0.7343
vn -0.3749 0.5715 0.7299
vn -0.0365 0.9902 -0.1349
vn 0.5086 -0.3087 0.8037
vn 0.4562 -0.2463 0.8551
vn 0.5032 -0.3022 0.8096
vn 0.5557 -0.3674 0.7458
vn 0.4885 -0.0361 0.8718
vn 0.4922 -0.0275 0.8700
vn 0.4818 -0.0509 0.8748
vn 0.4779 -0.0595 0.8764
usemtl Steel_-_Satin.010
s 1
f 2/1/1 1/2/2 7/3/3 8/4/4
f 12/5/5 1/6/6 3/7/7 11/8/8
f 7/9/9 12/10/10 11/11/11 5/12/12
f 5/13/13 16/14/14 15/15/15 6/16/16
f 47/17/17 48/18/18 37/19/19 38/20/20
f 10/21/21 4/22/21 2/23/21 9/24/22
f 24/25/23 23/26/24 21/27/25 18/28/26
f 3/29/27 19/30/28 20/31/29 11/32/30
f 28/33/31 37/34/32 43/35/33 27/36/34
f 6/37/35 8/38/36 7/39/37 5/40/38
f 7/3/3 1/2/2 12/41/39
f 8/4/4 9/42/40 2/1/1
f 48/43/41 47/44/42 45/45/43 42/46/44
f 42/47/45 44/48/46 43/49/47 41/50/48
f 23/51/49 24/52/50 13/53/51 14/54/52
f 35/55/53 44/56/54 40/57/55 29/58/56
f 37/59/57 48/60/58 41/61/59 43/62/60
f 26/63/61 25/64/62 31/65/63 32/66/64
f 31/67/65 36/68/66 35/69/67 29/70/68
f 2/71/69 4/72/70 3/73/71 1/74/72
f 17/75/73 24/25/23 18/28/26
f 10/76/74 9/77/75 8/78/74 6/79/76
f 21/27/25 23/26/24 22/80/77
f 4/81/78 13/82/79 19/83/80 3/84/81
f 29/85/82 40/86/83 39/87/84 30/88/85
f 30/89/86 39/90/87 38/91/88 34/92/89
f 30/93/90 32/94/91 31/95/92 29/96/93
f 38/97/94 39/98/95 46/99/96 47/100/97
f 26/101/98 28/102/99 27/103/100 25/104/101
f 16/105/102 20/106/103 18/107/104 21/108/105
f 36/109/106 25/110/107 27/111/108 35/112/109
f 14/113/110 15/114/111 22/115/112 23/116/113
f 27/117/114 43/118/115 44/119/116 35/120/117
f 31/65/63 25/64/62 36/121/118
f 32/66/64 33/122/119 26/63/61
f 46/123/120 39/124/121 40/125/122 45/126/123
f 22/127/124 15/128/125 16/129/126 21/130/127
f 18/131/128 20/132/129 19/133/130 17/134/131
f 34/135/132 38/136/133 37/137/134 28/138/135
f 11/139/136 20/140/137 16/141/138 5/142/139
f 34/143/140 33/144/141 32/145/142 30/146/143
f 6/147/144 15/148/145 14/149/146 10/150/147
f 40/151/148 44/152/149 42/153/150 45/154/151
f 41/155/152 48/43/41 42/46/44
f 13/156/153 24/157/154 17/158/155 19/159/156
f 45/45/43 47/44/42 46/160/157
f 34/161/158 28/162/159 26/163/160 33/164/161
f 10/165/162 14/166/163 13/167/164 4/168/165
