# Blender v2.90.1 OBJ File: 'w1 EXPORT FILE.blend'
# www.blender.org
mtllib Bridge Piece.mtl
g Bridge_piece_LP
v 2.268006 26.081997 -4.536000
v 2.268006 23.246998 -1.701000
v 2.268006 26.081997 -2.835000
v 2.268005 23.246998 0.000000
v 2.268005 22.679998 -1.134000
v 2.268006 22.679998 -4.536000
v 2.268006 23.246998 -4.536000
v 2.268006 26.081997 4.536000
v 2.268006 26.081997 2.835000
v 2.268005 23.246998 1.701000
v 2.268005 22.679998 1.134000
v 2.268005 22.679998 4.536000
v 2.268005 23.246998 4.536000
v 3.742205 23.246998 -1.701000
v 3.742205 23.246998 -4.535999
v 3.742205 23.246998 1.701000
v 3.742205 23.246998 4.536000
v 3.742205 22.679998 4.536000
v 3.742205 22.679998 -4.535999
v 3.742206 26.081997 4.536000
v -2.267995 22.679998 1.134000
v -2.267995 22.679998 -1.134000
v -2.267995 22.679998 4.536000
v -3.742194 22.679998 4.535999
v -3.742194 22.679998 -4.536000
v -2.267994 22.679998 -4.536000
v -3.742194 23.246998 -1.701000
v -2.267994 23.246998 -1.701000
v -3.742194 23.246998 -4.536000
v -2.267994 23.246998 -4.536000
v -2.267995 23.246998 1.701000
v -3.742194 23.246998 1.701000
v -2.267995 23.246998 4.536000
v -3.742194 23.246998 4.535999
v -2.267994 26.081997 -4.536000
v -3.742193 26.081997 -4.536000
v -2.267995 23.246998 -0.000000
v 3.742206 26.081997 2.835000
v 3.742205 23.246998 0.000000
v 3.742206 26.081997 -4.535999
v 3.742206 26.081997 -2.835000
v -3.742194 26.081997 4.535999
v -3.742194 26.081997 2.835000
v -3.742194 23.246998 -0.000000
v -3.742193 26.081997 -2.835000
v -2.267994 26.081997 2.835000
v -2.267994 26.081997 4.536000
v -2.267994 26.081997 -2.835000
v -3.968993 26.081997 -4.536000
v -3.968994 26.081997 4.535999
v 3.969006 26.081997 -4.535999
v 3.969006 26.081997 4.536000
v 3.969006 26.762398 4.536000
v 1.701006 26.762398 4.536000
v 1.134006 26.762398 4.536000
v -1.133994 26.762398 4.536000
v -1.700994 26.762398 4.536000
v -3.968993 26.762398 4.535999
v 1.134007 26.762398 -4.536000
v 1.701007 26.762398 -4.536000
v 3.969006 26.762398 -4.535999
v -3.968993 26.762398 -4.536000
v -1.700993 26.762398 -4.536000
v -1.133993 26.762398 -4.536000
vt 0.000000 -0.200000
vt 2.500000 -2.700000
vt 1.500000 -0.200000
vt 4.000000 -2.700000
vt 3.000000 -3.200000
vt 0.000000 -3.200000
vt 0.000000 -2.700000
vt 8.000000 -0.200000
vt 6.500000 -0.200000
vt 5.500000 -2.700000
vt 5.000000 -3.200000
vt 8.000000 -3.200000
vt 8.000000 -2.700000
vt 0.000000 4.500000
vt 1.300000 4.500000
vt 0.000000 7.000000
vt 1.300000 7.000000
vt 1.300000 1.500000
vt 0.000000 1.500000
vt 1.300000 -1.000000
vt 0.000000 -1.000000
vt 0.250000 0.650000
vt -0.250000 0.650000
vt 0.250000 -0.650000
vt -0.250000 -0.650000
vt -0.250000 -0.650000
vt 0.250000 -0.650000
vt -0.250000 0.650000
vt 0.250000 0.650000
vt 1.300000 3.535534
vt 0.000000 3.535534
vt 1.300000 0.000000
vt 0.000000 0.000000
vt 4.250000 -0.650000
vt 2.250000 -0.650000
vt 4.250000 -4.650000
vt 2.250000 -4.650000
vt -0.750000 -5.950000
vt -0.750000 -4.650000
vt 7.250000 -0.650000
vt 7.250000 0.650000
vt -0.750000 0.650000
vt -0.750000 -0.650000
vt 7.250000 -5.950000
vt 7.250000 -4.650000
vt 0.000000 4.500000
vt 1.300000 4.500000
vt 0.000000 7.000000
vt 1.300000 7.000000
vt 1.300000 1.500000
vt 0.000000 1.500000
vt 1.300000 -1.000000
vt 0.000000 -1.000000
vt -0.250000 -0.650000
vt 0.250000 -0.650000
vt -0.250000 0.650000
vt 0.250000 0.650000
vt 0.250000 0.650000
vt -0.250000 0.650000
vt 0.250000 -0.650000
vt -0.250000 -0.650000
vt 1.300000 3.535534
vt -0.000000 3.535534
vt 1.300000 0.000000
vt 0.000000 -0.000000
vt 1.118034 5.300000
vt 0.000000 5.300000
vt 1.118034 1.300000
vt 0.000000 1.300000
vt 1.118034 5.300000
vt 0.000000 5.300000
vt 1.118034 1.300000
vt 0.000000 1.300000
vt 0.000000 -0.000000
vt -1.000000 2.500000
vt -2.500000 2.500000
vt 1.500000 3.000000
vt -6.500000 3.000000
vt 1.500000 0.000000
vt 1.500000 2.500000
vt -6.500000 2.500000
vt -4.000000 2.500000
vt -6.500000 -0.000000
vt -5.000000 -0.000000
vt 1.300000 3.535534
vt 0.000000 3.535534
vt 1.300000 0.000000
vt 0.000000 0.000000
vt 1.300000 3.535534
vt -0.000000 3.535534
vt 1.300000 0.000000
vt 0.000000 -0.000000
vt 1.300000 3.535534
vt 0.000000 3.535534
vt 1.300000 0.000000
vt 0.000000 0.000000
vt -6.500000 0.000000
vt -5.000000 0.000000
vt -4.000000 2.500000
vt -2.500000 2.500000
vt -6.500000 3.000000
vt 1.500000 3.000000
vt -1.000000 2.500000
vt 1.500000 2.500000
vt 0.000000 0.000000
vt 1.500000 0.000000
vt -6.500000 2.500000
vt 1.300000 3.535534
vt 0.000000 3.535534
vt 1.300000 0.000000
vt 0.000000 0.000000
vt 1.300000 3.535534
vt 0.000000 3.535534
vt 1.300000 0.000000
vt 0.000000 0.000000
vt 1.300000 3.535534
vt 0.000000 3.535534
vt 1.300000 0.000000
vt 0.000000 0.000000
vt -2.500000 -0.550000
vt 2.500000 -0.550000
vt -2.500000 0.750000
vt 2.500000 0.750000
vt -2.500000 4.750000
vt 2.500000 4.750000
vt -2.500000 6.050000
vt 2.500000 6.050000
vt -4.000000 6.250000
vt 4.000000 6.250000
vt 4.000000 6.050000
vt -4.000000 -0.550000
vt -4.000000 -0.750000
vt 4.000000 -0.750000
vt 4.000000 -0.550000
vt 4.000000 0.750000
vt 4.000000 4.750000
vt -4.000000 6.050000
vt -4.000000 4.750000
vt -4.000000 0.750000
vt 0.000000 -0.200000
vt 2.500000 -2.700000
vt 1.500000 -0.200000
vt 4.000000 -2.700000
vt 3.000000 -3.200000
vt 0.000000 -3.200000
vt 0.000000 -2.700000
vt 1.500000 -0.200000
vt 1.500000 0.400000
vt 1.300000 -0.200000
vt 0.000000 -0.200000
vt -0.500000 0.400000
vt -1.000000 0.400000
vt -3.000000 0.400000
vt -4.000000 -0.200000
vt -3.500000 0.400000
vt -5.500000 0.400000
vt -5.500000 -0.200000
vt -5.300000 -0.200000
vt 5.500000 -0.200000
vt 2.500000 0.400000
vt 1.500000 -0.200000
vt 2.000000 0.400000
vt -0.000000 0.400000
vt 6.800000 -0.200000
vt 7.000000 0.400000
vt 5.000000 0.400000
vt 4.500000 0.400000
vt 7.000000 -0.200000
vt 0.000000 -0.200000
vt 0.200000 -0.200000
vt 8.000000 -0.200000
vt 8.000000 0.400000
vt 0.000000 -0.200000
vt 0.000000 0.400000
vt 8.000000 -0.200000
vt 6.500000 -0.200000
vt 5.500000 -2.700000
vt 5.000000 -3.200000
vt 8.000000 -3.200000
vt 8.000000 -2.700000
vt 8.000000 0.400000
vt 0.000000 0.400000
vt 8.000000 -0.200000
vt 0.000000 -0.200000
vt -4.000000 -0.250000
vt 4.000000 -0.250000
vt -4.000000 0.250000
vt 4.000000 0.250000
vt -4.000000 2.250000
vt 4.000000 2.250000
vt -4.000000 2.750000
vt 4.000000 2.750000
vt 4.000000 4.750000
vt -4.000000 -2.250000
vt 4.000000 -2.250000
vt -4.000000 4.750000
vn -1.0000 0.0000 0.0000
vn 0.0000 1.0000 0.0000
vn -0.0000 0.0000 1.0000
vn 0.0000 0.0000 -1.0000
vn 0.0000 -0.7071 0.7071
vn 0.0000 -1.0000 -0.0000
vn 0.0000 -0.7071 -0.7071
vn -0.0000 0.8944 0.4472
vn 0.0000 0.8944 -0.4472
vn 1.0000 -0.0000 0.0000
vn 0.0000 0.7071 0.7071
vn 0.0000 0.7071 -0.7071
usemtl Steel_-_Satin.075
s 1
f 1/1/1 2/2/1 3/3/1
f 3/3/1 2/2/1 4/4/1
f 4/4/1 2/2/1 5/5/1
f 5/5/1 2/2/1 6/6/1
f 6/6/1 2/2/1 7/7/1
f 8/8/1 9/9/1 10/10/1
f 10/10/1 9/9/1 4/4/1
f 10/10/1 4/4/1 11/11/1
f 11/11/1 12/12/1 10/10/1
f 10/10/1 12/12/1 13/13/1
f 2/14/2 14/15/2 7/16/2
f 7/16/2 14/15/2 15/17/2
f 16/18/2 10/19/2 17/20/2
f 17/20/2 10/19/2 13/21/2
f 13/22/3 12/23/3 17/24/3
f 17/24/3 12/23/3 18/25/3
f 15/26/4 19/27/4 7/28/4
f 7/28/4 19/27/4 6/29/4
f 10/30/5 16/31/5 8/32/5
f 8/32/5 16/31/5 20/33/5
f 21/34/6 22/35/6 11/36/6
f 11/36/6 22/35/6 5/37/6
f 11/36/6 5/37/6 19/38/6
f 19/38/6 5/37/6 6/39/6
f 23/40/6 24/41/6 21/34/6
f 21/34/6 24/41/6 25/42/6
f 21/34/6 25/42/6 22/35/6
f 22/35/6 25/42/6 26/43/6
f 19/38/6 18/44/6 11/36/6
f 11/36/6 18/44/6 12/45/6
f 27/46/2 28/47/2 29/48/2
f 29/48/2 28/47/2 30/49/2
f 31/50/2 32/51/2 33/52/2
f 33/52/2 32/51/2 34/53/2
f 23/54/3 33/55/3 24/56/3
f 24/56/3 33/55/3 34/57/3
f 25/58/4 29/59/4 26/60/4
f 26/60/4 29/59/4 30/61/4
f 28/62/7 27/63/7 35/64/7
f 35/64/7 27/63/7 36/65/7
f 37/66/8 21/67/8 4/68/8
f 4/68/8 21/67/8 11/69/8
f 22/70/9 37/71/9 5/72/9
f 5/72/9 37/71/9 4/73/9
f 38/74/10 16/75/10 39/76/10
f 39/76/10 16/75/10 18/77/10
f 39/76/10 18/77/10 19/78/10
f 38/74/10 20/79/10 16/75/10
f 16/75/10 17/80/10 18/77/10
f 15/81/10 14/82/10 19/78/10
f 19/78/10 14/82/10 39/76/10
f 40/83/10 41/84/10 14/82/10
f 14/82/10 41/84/10 39/76/10
f 4/85/11 39/86/11 3/87/11
f 3/87/11 39/86/11 41/88/11
f 14/89/7 2/90/7 40/91/7
f 40/91/7 2/90/7 1/92/7
f 39/93/12 4/94/12 38/95/12
f 38/95/12 4/94/12 9/96/12
f 42/97/1 43/98/1 32/99/1
f 32/99/1 43/98/1 44/100/1
f 32/99/1 44/100/1 24/101/1
f 24/101/1 44/100/1 25/102/1
f 25/102/1 44/100/1 27/103/1
f 25/102/1 27/103/1 29/104/1
f 44/100/1 45/105/1 27/103/1
f 27/103/1 45/105/1 36/106/1
f 24/101/1 34/107/1 32/99/1
f 37/108/12 44/109/12 46/110/12
f 46/110/12 44/109/12 43/111/12
f 32/112/5 31/113/5 42/114/5
f 42/114/5 31/113/5 47/115/5
f 44/116/11 37/117/11 45/118/11
f 45/118/11 37/117/11 48/119/11
f 41/120/6 38/121/6 3/122/6
f 3/122/6 38/121/6 9/123/6
f 3/122/6 9/123/6 48/124/6
f 48/124/6 9/123/6 46/125/6
f 48/124/6 46/125/6 45/126/6
f 45/126/6 46/125/6 43/127/6
f 45/126/6 43/127/6 49/128/6
f 49/128/6 43/127/6 50/129/6
f 50/129/6 43/127/6 42/130/6
f 40/131/6 51/132/6 41/120/6
f 41/120/6 51/132/6 52/133/6
f 41/120/6 52/133/6 38/121/6
f 38/121/6 52/133/6 20/134/6
f 9/123/6 8/135/6 46/125/6
f 46/125/6 8/135/6 47/136/6
f 49/128/6 36/137/6 45/126/6
f 48/124/6 35/138/6 3/122/6
f 3/122/6 35/138/6 1/139/6
f 47/140/10 31/141/10 46/142/10
f 46/142/10 31/141/10 37/143/10
f 37/143/10 31/141/10 21/144/10
f 21/144/10 31/141/10 23/145/10
f 23/145/10 31/141/10 33/146/10
f 52/147/3 53/148/3 20/149/3
f 20/149/3 53/148/3 8/150/3
f 8/150/3 53/148/3 54/151/3
f 8/150/3 54/151/3 55/152/3
f 55/152/3 56/153/3 8/150/3
f 8/150/3 56/153/3 47/154/3
f 47/154/3 56/153/3 57/155/3
f 47/154/3 57/155/3 58/156/3
f 50/157/3 42/158/3 58/156/3
f 58/156/3 42/158/3 47/154/3
f 35/159/4 59/160/4 1/161/4
f 1/161/4 59/160/4 60/162/4
f 1/161/4 60/162/4 61/163/4
f 36/164/4 62/165/4 35/159/4
f 35/159/4 62/165/4 63/166/4
f 35/159/4 63/166/4 64/167/4
f 36/164/4 49/168/4 62/165/4
f 64/167/4 59/160/4 35/159/4
f 51/169/4 40/170/4 61/163/4
f 61/163/4 40/170/4 1/161/4
f 51/171/10 61/172/10 52/173/10
f 52/173/10 61/172/10 53/174/10
f 35/175/10 48/176/10 28/177/10
f 28/177/10 48/176/10 37/143/10
f 28/177/10 37/143/10 22/178/10
f 22/178/10 26/179/10 28/177/10
f 28/177/10 26/179/10 30/180/10
f 58/181/1 62/182/1 50/183/1
f 50/183/1 62/182/1 49/184/1
f 54/185/2 60/186/2 55/187/2
f 55/187/2 60/186/2 59/188/2
f 55/187/2 59/188/2 56/189/2
f 56/189/2 59/188/2 64/190/2
f 56/189/2 64/190/2 57/191/2
f 57/191/2 64/190/2 63/192/2
f 57/191/2 63/192/2 62/193/2
f 53/194/2 61/195/2 54/185/2
f 54/185/2 61/195/2 60/186/2
f 62/193/2 58/196/2 57/191/2
