# Blender v2.93.0 OBJ File: 'W2.blend'
# www.blender.org
mtllib Building 6.mtl
g Building_6
v -4.320000 0.000004 4.320000
v -14.400001 38.704006 14.400001
v -4.320000 0.000004 -4.320000
v -14.400001 38.704006 -14.400001
v 4.320000 0.000004 4.320000
v 14.400001 38.704006 14.400001
v 4.320000 0.000004 -4.320000
v 14.400001 38.704006 -14.400001
v -1.851979 0.000006 -5.307208
v 1.851979 0.000006 -5.307208
v 6.173263 38.704006 -17.690695
v -6.173263 38.704006 -17.690695
v 1.851979 0.000006 5.307208
v -1.851979 0.000006 5.307208
v -6.173263 38.704006 17.690695
v 6.173263 38.704006 17.690695
v -5.307208 0.000006 1.851979
v -5.307208 0.000006 -1.851979
v -17.690695 38.704006 -6.173263
v -17.690695 38.704006 6.173263
v 5.307208 0.000006 -1.851979
v 5.307208 0.000006 1.851979
v 17.690695 38.704006 6.173263
v 17.690695 38.704006 -6.173263
v 8.491533 30.768007 -2.963166
v 15.921626 36.736008 -5.555936
v -2.963166 30.768007 -8.491533
v -5.555936 36.736008 -15.921626
v -8.491533 30.768007 2.963166
v -15.921626 36.736008 5.555936
v 2.963166 30.768007 8.491533
v 5.555936 36.736008 15.921626
v 6.912001 30.768007 6.912001
v 12.960001 36.736008 12.960001
v 2.963166 30.768007 -8.491533
v 5.555936 36.736008 -15.921626
v -6.912001 30.768007 -6.912001
v -12.960001 36.736008 -12.960001
v -2.963166 30.768007 8.491533
v -5.555936 36.736008 15.921626
v 8.491533 30.768007 2.963166
v 15.921626 36.736008 5.555936
v 6.912001 30.768007 -6.912001
v 12.960001 36.736008 -12.960001
v -8.491533 30.768007 -2.963166
v -15.921626 36.736008 -5.555936
v -6.912001 30.768007 6.912001
v -12.960001 36.736008 12.960001
v 7.854669 24.614408 -2.740929
v -2.740929 24.614408 -7.854669
v -7.854669 24.614408 2.740929
v 2.740929 24.614408 7.854669
v 6.393601 24.614407 6.393601
v 2.740929 24.614408 -7.854669
v -6.393601 24.614407 -6.393601
v -2.740929 24.614408 7.854669
v 7.854669 24.614408 2.740929
v 6.393601 24.614407 -6.393601
v -7.854669 24.614408 -2.740929
v -6.393601 24.614407 6.393601
v 14.768640 -0.033178 -5.978189
v 16.597130 0.033177 -6.602055
v -6.824733 -0.033178 -14.279887
v -7.533253 0.033177 -16.059502
v -14.768640 -0.033178 5.978189
v -16.597130 0.033177 6.602055
v 6.824733 -0.033178 14.279887
v 7.533253 0.033177 16.059502
v 8.681035 -0.033179 14.058491
v 9.740750 0.033177 15.796219
v 13.050337 -0.033178 -8.954379
v 14.553744 0.033177 -10.141310
v -8.681035 -0.033179 -14.058491
v -9.740750 0.033177 -15.796219
v -13.050337 -0.033178 8.954379
v -14.553744 0.033177 10.141310
v 9.800922 -0.033178 12.561584
v 11.072506 0.033177 14.016112
v 14.547241 -0.033179 -7.834493
v 16.333847 0.033177 -8.809552
v -9.800922 -0.033178 -12.561584
v -11.072506 0.033177 -14.016112
v -14.547241 -0.033179 7.834493
v -16.333847 0.033177 8.809552
v -19.257603 16.848005 16.857601
v -15.111324 16.848005 18.516111
v -14.578132 10.694407 8.984144
v -20.916111 16.848005 12.711325
v -10.712145 10.694407 12.850132
v -13.473565 10.694407 11.745564
v 14.578132 10.694407 8.984144
v 20.916113 16.848005 12.711326
v 13.473565 10.694407 11.745564
v 10.712145 10.694407 12.850132
v 19.257603 16.848005 16.857601
v 15.111324 16.848005 18.516111
v 10.712145 10.694407 -12.850132
v 13.473565 10.694407 -11.745564
v 15.111326 16.848005 -18.516111
v 19.257603 16.848005 -16.857601
v 14.578132 10.694407 -8.984144
v 20.916111 16.848005 -12.711325
v -13.473565 10.694407 -11.745564
v -14.578132 10.694407 -8.984144
v -19.257603 16.848005 -16.857601
v -20.916111 16.848005 -12.711325
v -10.712145 10.694407 -12.850132
v -15.111324 16.848005 -18.516111
vt 0.140736 0.844715
vt 0.140736 0.844715
vt 0.140736 0.844715
vt 0.140736 0.844715
vt 0.161318 0.445043
vt 0.161318 0.445043
vt 0.161318 0.445043
vt 0.161318 0.445043
vt 0.161318 0.445043
vt 0.161318 0.445043
vt 0.161318 0.445043
vt 0.161318 0.445043
vt 0.251991 0.707254
vt 0.251991 0.707254
vt 0.251991 0.707254
vt 0.251991 0.707254
vt 0.161318 0.445043
vt 0.161318 0.445043
vt 0.161318 0.445043
vt 0.161318 0.445043
vt 0.161318 0.445043
vt 0.161318 0.445043
vt 0.161318 0.445043
vt 0.161318 0.445043
vt 0.161318 0.445043
vt 0.161318 0.445043
vt 0.251991 0.707254
vt 0.251991 0.707254
vt 0.251991 0.707254
vt 0.251991 0.707254
vt 0.161318 0.445043
vt 0.161318 0.445043
vt 0.161318 0.445043
vt 0.161318 0.445043
vt 0.251991 0.707254
vt 0.251991 0.707254
vt 0.251991 0.707254
vt 0.251991 0.707254
vt 0.161318 0.445043
vt 0.161318 0.445043
vt 0.140736 0.844715
vt 0.140736 0.844715
vt 0.140736 0.844715
vt 0.140736 0.844715
vt 0.140736 0.844715
vt 0.140736 0.844715
vt 0.140736 0.844715
vt 0.140736 0.844715
vt 0.140736 0.844715
vt 0.140736 0.844715
vt 0.140736 0.844715
vt 0.140736 0.844715
vt 0.140736 0.844715
vt 0.140736 0.844715
vt 0.140736 0.844715
vt 0.251991 0.707254
vt 0.251991 0.707254
vt 0.251991 0.707254
vt 0.251991 0.707254
vt 0.140736 0.844715
vt 0.140736 0.844715
vt 0.140736 0.844715
vt 0.140736 0.844715
vt 0.140736 0.844715
vt 0.140736 0.844715
vt 0.140736 0.844715
vt 0.140736 0.844715
vt 0.140736 0.844715
vt 0.140736 0.844715
vt 0.251991 0.707254
vt 0.251991 0.707254
vt 0.251991 0.707254
vt 0.251991 0.707254
vt 0.140736 0.844715
vt 0.140736 0.844715
vt 0.140736 0.844715
vt 0.140736 0.844715
vt 0.140736 0.844715
vt 0.251991 0.707254
vt 0.251991 0.707254
vt 0.251991 0.707254
vt 0.251991 0.707254
vt 0.140736 0.844715
vt 0.140736 0.844715
vt 0.251991 0.707254
vt 0.251991 0.707254
vt 0.251991 0.707254
vt 0.251991 0.707254
vt 0.251991 0.707254
vt 0.251991 0.707254
vt 0.251991 0.707254
vt 0.251991 0.707254
vt 0.149772 0.987801
vt 0.149772 0.987801
vt 0.149772 0.987801
vt 0.149772 0.987801
vt 0.149772 0.987801
vt 0.149772 0.987801
vt 0.149772 0.987801
vt 0.149772 0.987801
vt 0.149772 0.987801
vt 0.149772 0.987801
vt 0.149772 0.987801
vt 0.149772 0.987801
vt 0.149772 0.987801
vt 0.149772 0.987801
vt 0.149772 0.987801
vt 0.149772 0.987801
vt 0.149772 0.987801
vt 0.149772 0.987801
vt 0.149772 0.987801
vt 0.149772 0.987801
vt 0.149772 0.987801
vt 0.149772 0.987801
vt 0.149772 0.987801
vt 0.149772 0.987801
vt 0.149772 0.987801
vt 0.149772 0.987801
vt 0.149772 0.987801
vt 0.149772 0.987801
vt 0.149772 0.987801
vt 0.149772 0.987801
vt 0.149772 0.987801
vt 0.149772 0.987801
vt 0.149772 0.987801
vt 0.149772 0.987801
vt 0.149772 0.987801
vt 0.149772 0.987801
vt 0.149772 0.987801
vt 0.149772 0.987801
vt 0.149772 0.987801
vt 0.149772 0.987801
vt 0.149772 0.987801
vt 0.149772 0.987801
vt 0.149772 0.987801
vt 0.149772 0.987801
vt 0.149772 0.987801
vt 0.149772 0.987801
vt 0.149772 0.987801
vt 0.149772 0.987801
vt 0.149772 0.987801
vt 0.149772 0.987801
vt 0.149772 0.987801
vt 0.149772 0.987801
vt 0.149772 0.987801
vt 0.149772 0.987801
vt 0.149772 0.987801
vt 0.149772 0.987801
vt 0.149772 0.987801
vt 0.149772 0.987801
vt 0.149772 0.987801
vt 0.149772 0.987801
vt 0.149772 0.987801
vt 0.149772 0.987801
vt 0.149772 0.987801
vt 0.149772 0.987801
vt 0.149772 0.987801
vt 0.149772 0.987801
vt 0.149772 0.987801
vt 0.149772 0.987801
vt 0.149772 0.987801
vt 0.149772 0.987801
vt 0.149772 0.987801
vt 0.149772 0.987801
vt 0.251991 0.707254
vt 0.251991 0.707254
vt 0.251991 0.707254
vt 0.251991 0.707254
vn 0.0000 -0.6685 -0.7437
vn 0.9230 -0.1089 -0.3692
vn 0.9230 -0.1089 0.3692
vn 0.0000 -0.1029 0.9947
vn -0.9230 -0.1089 -0.3692
vn -0.3692 -0.1089 -0.9230
vn -0.9230 -0.1089 0.3692
vn -0.9947 -0.1029 0.0000
vn -0.3692 -0.1089 0.9230
vn 0.3692 -0.1089 0.9230
vn 0.9947 -0.1029 0.0000
vn 0.3692 -0.1089 -0.9230
vn 0.0000 1.0000 0.0000
vn 0.2691 -0.6892 -0.6728
vn 0.2246 -0.7965 -0.5614
vn 0.7437 -0.6685 0.0000
vn 0.6262 -0.7796 0.0000
vn 0.2691 -0.6892 0.6728
vn 0.2246 -0.7965 0.5614
vn -0.2691 -0.6892 0.6728
vn -0.2246 -0.7965 0.5614
vn -0.7437 -0.6685 0.0000
vn -0.6262 -0.7796 0.0000
vn -0.6728 -0.6892 0.2691
vn -0.5614 -0.7965 0.2246
vn -0.2691 -0.6892 -0.6728
vn -0.2246 -0.7965 -0.5614
vn -0.6728 -0.6892 -0.2691
vn -0.5614 -0.7965 -0.2246
vn 0.0000 -0.6685 0.7437
vn 0.0000 -0.7796 0.6262
vn 0.6728 -0.6892 0.2691
vn 0.5614 -0.7965 0.2246
vn 0.6728 -0.6892 -0.2691
vn 0.5614 -0.7965 -0.2246
vn 0.0000 -0.1029 -0.9947
vn 0.0000 -0.7796 -0.6262
vn 0.4057 -0.4346 -0.8040
vn -0.5030 -0.3787 -0.7769
vn 0.8823 0.3558 -0.3080
vn -0.7951 -0.4548 -0.4012
vn -0.4493 0.2415 0.8601
vn -0.4057 -0.4346 0.8040
vn 0.8561 0.2591 0.4472
vn 0.7263 -0.4738 -0.4979
vn 0.0215 -0.9994 -0.0287
vn 0.0042 -0.9994 0.0356
vn -0.0215 -0.9994 0.0287
vn -0.0348 -0.9994 0.0042
vn -0.0042 -0.9994 -0.0356
vn -0.0281 -0.9994 -0.0210
vn 0.0281 -0.9994 0.0210
vn 0.0348 -0.9994 -0.0042
vn -0.8561 0.2591 -0.4472
vn -0.2756 -0.0559 -0.9597
vn -0.2916 0.2609 -0.9203
vn -0.9607 0.0323 0.2758
vn 0.4493 0.2415 -0.8601
vn -0.7263 -0.4738 0.4979
vn -0.9095 -0.3117 0.2751
vn 0.7951 -0.4548 0.4012
vn -0.8823 0.3558 0.3080
vn 0.5030 -0.3787 0.7769
vn 0.9607 0.0323 -0.2758
vn 0.2810 -0.2401 0.9292
vn 0.2916 0.2609 0.9203
vn -0.2810 -0.2401 -0.9292
vn 0.2756 -0.0559 0.9597
vn 0.9095 -0.3117 -0.2751
vn 0.7909 -0.5239 -0.3163
vn 0.6875 -0.1095 0.7179
vn -0.6280 0.7365 0.2512
vn 0.3260 -0.4791 -0.8150
vn -0.5796 -0.0679 -0.8121
vn -0.2636 0.7045 0.6589
vn 0.2636 0.7045 0.6589
vn -0.6875 -0.1095 0.7179
vn 0.6280 0.7365 0.2512
vn -0.3260 -0.4791 -0.8150
vn -0.7909 -0.5239 -0.3163
vn 0.5796 -0.0679 -0.8121
vn 0.6280 0.7365 -0.2512
vn 0.5796 -0.0679 0.8121
vn -0.7909 -0.5239 0.3163
vn -0.3260 -0.4791 0.8150
vn -0.6875 -0.1095 -0.7179
vn 0.2636 0.7045 -0.6589
vn 0.3260 -0.4791 0.8150
vn -0.2636 0.7045 -0.6589
vn -0.5796 -0.0679 0.8121
vn 0.7909 -0.5239 0.3163
vn -0.6280 0.7365 -0.2512
vn 0.6875 -0.1095 -0.7179
vn 0.0000 -1.0000 0.0000
usemtl W2.003
s off
f 28/1/1 12/2/1 11/3/1 36/4/1
f 58/5/2 49/6/2 21/7/2 7/8/2
f 57/9/3 53/10/3 5/11/3 22/12/3
f 52/13/4 56/14/4 14/15/4 13/16/4
f 59/17/5 55/18/5 3/19/5 18/20/5
f 55/18/6 50/21/6 9/22/6 3/19/6
f 60/23/7 51/24/7 17/25/7 1/26/7
f 51/27/8 59/28/8 18/29/8 17/30/8
f 56/31/9 60/23/9 1/26/9 14/32/9
f 53/10/10 52/33/10 13/34/10 5/11/10
f 49/35/11 57/36/11 22/37/11 21/38/11
f 54/39/12 58/5/12 7/8/12 10/40/12
f 11/3/13 12/2/13 4/41/13 19/42/13 20/43/13 2/44/13 15/45/13 16/46/13 6/47/13 23/48/13 24/49/13 8/50/13
f 11/3/14 8/50/14 44/51/14 36/4/14
f 36/4/15 44/51/15 43/52/15 35/53/15
f 24/49/16 23/48/16 42/54/16 26/55/16
f 26/56/17 42/57/17 41/58/17 25/59/17
f 6/47/18 16/46/18 32/60/18 34/61/18
f 34/61/19 32/60/19 31/62/19 33/63/19
f 15/45/20 2/44/20 48/64/20 40/65/20
f 40/65/21 48/64/21 47/66/21 39/67/21
f 20/43/22 19/42/22 46/68/22 30/69/22
f 30/70/23 46/71/23 45/72/23 29/73/23
f 2/44/24 20/43/24 30/69/24 48/64/24
f 48/64/25 30/69/25 29/74/25 47/66/25
f 4/41/26 12/2/26 28/1/26 38/75/26
f 38/75/27 28/1/27 27/76/27 37/77/27
f 19/42/28 4/41/28 38/75/28 46/68/28
f 46/68/29 38/75/29 37/77/29 45/78/29
f 16/46/30 15/45/30 40/65/30 32/60/30
f 32/79/31 40/80/31 39/81/31 31/82/31
f 23/48/32 6/47/32 34/61/32 42/54/32
f 42/54/33 34/61/33 33/63/33 41/83/33
f 8/50/34 24/49/34 26/55/34 44/51/34
f 44/51/35 26/55/35 25/84/35 43/52/35
f 50/85/36 27/86/36 35/87/36 54/88/36
f 27/86/37 28/89/37 36/90/37 35/87/37
f 9/91/36 50/85/36 54/88/36 10/92/36
f 99/93/38 100/94/38 80/95/38 72/96/38
f 25/59/11 41/58/11 57/36/11 49/35/11
f 97/97/39 99/93/39 72/96/39 71/98/39
f 108/99/40 107/100/40 63/101/40 64/102/40
f 29/73/8 45/72/8 59/28/8 51/27/8
f 106/103/41 105/104/41 74/105/41 82/106/41
f 98/107/42 97/97/42 71/98/42 79/108/42
f 86/109/43 85/110/43 84/111/43 76/112/43
f 31/82/4 39/81/4 56/14/4 52/13/4
f 103/113/44 104/114/44 81/115/44 73/116/44
f 91/117/45 92/118/45 78/119/45 77/120/45
f 72/96/46 80/95/46 79/108/46 71/98/46
f 70/121/47 68/122/47 67/123/47 69/124/47
f 76/112/48 84/111/48 83/125/48 75/126/48
f 84/111/49 66/127/49 65/128/49 83/125/49
f 74/105/50 64/102/50 63/101/50 73/116/50
f 82/106/51 74/105/51 73/116/51 81/115/51
f 78/119/52 70/121/52 69/124/52 77/120/52
f 80/95/53 62/129/53 61/130/53 79/108/53
f 93/131/54 91/117/54 77/120/54 69/124/54
f 94/132/55 93/131/55 69/124/55 67/123/55
f 88/133/56 87/134/56 65/128/56 66/127/56
f 101/135/57 98/107/57 79/108/57 61/130/57
f 90/136/58 89/137/58 75/126/58 83/125/58
f 104/114/59 106/103/59 82/106/59 81/115/59
f 85/110/60 88/133/60 66/127/60 84/111/60
f 92/118/61 95/138/61 70/121/61 78/119/61
f 96/139/62 94/132/62 67/123/62 68/122/62
f 89/137/63 86/109/63 76/112/63 75/126/63
f 87/134/64 90/136/64 83/125/64 65/128/64
f 95/138/65 96/139/65 68/122/65 70/121/65
f 102/140/66 101/135/66 61/130/66 62/129/66
f 105/104/67 108/99/67 64/102/67 74/105/67
f 107/100/68 103/113/68 73/116/68 63/101/68
f 100/94/69 102/140/69 62/129/69 80/95/69
f 51/141/70 60/142/70 90/136/70 87/134/70
f 56/143/71 39/144/71 86/109/71 89/137/71
f 47/145/72 29/146/72 88/133/72 85/110/72
f 60/142/73 56/143/73 89/137/73 90/136/73
f 29/146/74 51/141/74 87/134/74 88/133/74
f 39/144/75 47/145/75 85/110/75 86/109/75
f 33/147/76 31/148/76 96/139/76 95/138/76
f 31/148/77 52/149/77 94/132/77 96/139/77
f 41/150/78 33/147/78 95/138/78 92/118/78
f 52/149/79 53/151/79 93/131/79 94/132/79
f 53/151/80 57/152/80 91/117/80 93/131/80
f 57/152/81 41/150/81 92/118/81 91/117/81
f 43/153/82 25/154/82 102/140/82 100/94/82
f 25/154/83 49/155/83 101/135/83 102/140/83
f 49/155/84 58/156/84 98/107/84 101/135/84
f 58/156/85 54/157/85 97/97/85 98/107/85
f 54/157/86 35/158/86 99/93/86 97/97/86
f 35/158/87 43/153/87 100/94/87 99/93/87
f 50/159/88 55/160/88 103/113/88 107/100/88
f 37/161/89 27/162/89 108/99/89 105/104/89
f 59/163/90 45/164/90 106/103/90 104/114/90
f 55/160/91 59/163/91 104/114/91 103/113/91
f 45/164/92 37/161/92 105/104/92 106/103/92
f 27/162/93 50/159/93 107/100/93 108/99/93
f 9/91/94 10/92/94 7/165/94 21/38/94 22/37/94 5/166/94 13/16/94 14/15/94 1/167/94 17/30/94 18/29/94 3/168/94
