# Blender v2.93.0 OBJ File: 'W2.blend'
# www.blender.org
mtllib Building 9.mtl
g Building_9
v 12.959995 17.104017 -12.959986
v 12.959995 17.104008 12.960017
v -12.960011 17.104008 -12.959986
v -12.960011 17.103998 12.960017
v -5.555946 17.104000 15.921641
v 5.555928 17.104004 15.921641
v 5.555928 17.104015 -15.921611
v -5.555946 17.104012 -15.921611
v 15.921618 17.104012 5.555953
v 15.921618 17.104015 -5.555922
v -15.921634 17.104004 -5.555921
v -15.921634 17.104000 5.555953
v -8.491533 5.768004 2.963172
v -15.921633 15.135999 5.555951
v 2.963165 5.768006 8.491540
v 5.555928 15.136002 15.921640
v 8.491533 5.768012 -2.963161
v 15.921619 15.136014 -5.555922
v -2.963167 5.768011 -8.491528
v -5.555945 15.136011 -15.921612
v -6.912003 5.768009 -6.911994
v -12.960009 15.136007 -12.959986
v -2.963167 5.768004 8.491540
v -5.555945 15.135999 15.921640
v 6.911999 5.768008 6.912007
v 12.959993 15.136005 12.960016
v 2.963165 5.768013 -8.491528
v 5.555928 15.136014 -15.921612
v -8.491533 5.768007 -2.963161
v -15.921633 15.136003 -5.555922
v -6.912003 5.768003 6.912007
v -12.960009 15.135997 12.960016
v 8.491533 5.768010 2.963172
v 15.921619 15.136009 5.555951
v 6.911999 5.768013 -6.911994
v 12.959993 15.136016 -12.959986
v 5.428684 8.168021 5.428692
v 2.327270 8.168019 6.669258
v 6.669249 8.168024 -2.327266
v -6.669253 8.168018 2.327277
v -6.669253 8.168020 -2.327266
v -2.327273 8.168017 6.669258
v 6.669249 8.168022 2.327277
v 2.327270 8.168025 -6.669245
v 5.428684 8.168025 -5.428680
v -5.428688 8.168017 5.428692
v -5.428688 8.168021 -5.428680
v -2.327273 8.168023 -6.669245
v 2.037971 2.568024 -0.711158
v 1.658883 2.568024 -1.658878
v 2.037971 2.568024 0.711162
v 0.711162 2.568023 2.037971
v -0.711158 2.568022 2.037971
v -2.037966 2.568022 0.711162
v -1.658878 2.568022 1.658883
v -1.658878 2.568023 -1.658878
v -2.037966 2.568023 -0.711158
v 0.711162 2.568024 -2.037966
v -0.711158 2.568024 -2.037966
v 1.658883 2.568023 1.658883
v -16.806168 16.119999 5.864615
v 5.864591 16.120003 16.806175
v 16.806152 16.120014 -5.864584
v -5.864608 16.120010 -16.806147
v -13.680009 16.120007 -13.679984
v -5.864608 16.119999 16.806175
v 13.679993 16.120007 13.680017
v 5.864591 16.120014 -16.806147
v -16.806168 16.120003 -5.864584
v -13.680009 16.119997 13.680017
v 16.806152 16.120010 5.864615
v 13.679993 16.120016 -13.679984
vt 0.238758 0.314902
vt 0.238758 0.314902
vt 0.238758 0.314902
vt 0.238758 0.314902
vt 0.161587 0.302303
vt 0.161587 0.302303
vt 0.161587 0.302303
vt 0.161587 0.302303
vt 0.161587 0.302303
vt 0.161587 0.302303
vt 0.161587 0.302303
vt 0.161587 0.302303
vt 0.161587 0.302303
vt 0.161587 0.302303
vt 0.161587 0.302303
vt 0.161587 0.302303
vt 0.161587 0.302303
vt 0.161587 0.302303
vt 0.161587 0.302303
vt 0.161587 0.302303
vt 0.138876 0.652411
vt 0.138876 0.652411
vt 0.138876 0.652411
vt 0.138876 0.652411
vt 0.161587 0.302303
vt 0.161587 0.302303
vt 0.161587 0.302303
vt 0.161587 0.302303
vt 0.246376 0.672723
vt 0.246376 0.672723
vt 0.246376 0.672723
vt 0.246376 0.672723
vt 0.161587 0.302303
vt 0.161587 0.302303
vt 0.161587 0.302303
vt 0.161587 0.302303
vt 0.138876 0.652411
vt 0.138876 0.652411
vt 0.138876 0.652411
vt 0.138876 0.652411
vt 0.161587 0.302303
vt 0.161587 0.302303
vt 0.161587 0.302303
vt 0.161587 0.302303
vt 0.138876 0.652411
vt 0.138876 0.652411
vt 0.138876 0.652411
vt 0.138876 0.652411
vt 0.161587 0.302303
vt 0.161587 0.302303
vt 0.161587 0.302303
vt 0.161587 0.302303
vt 0.246376 0.672723
vt 0.246376 0.672723
vt 0.246376 0.672723
vt 0.246376 0.672723
vt 0.138876 0.652411
vt 0.138876 0.652411
vt 0.161587 0.302303
vt 0.161587 0.302303
vt 0.161587 0.302303
vt 0.161587 0.302303
vt 0.138876 0.652411
vt 0.138876 0.652411
vt 0.138876 0.652411
vt 0.138876 0.652411
vt 0.138876 0.652411
vt 0.138876 0.652411
vt 0.246376 0.672723
vt 0.246376 0.672723
vt 0.246376 0.672723
vt 0.246376 0.672723
vt 0.138876 0.652411
vt 0.138876 0.652411
vt 0.138876 0.652411
vt 0.138876 0.652411
vt 0.246376 0.672723
vt 0.246376 0.672723
vt 0.246376 0.672723
vt 0.246376 0.672723
vt 0.245969 0.650311
vt 0.245969 0.650311
vt 0.245969 0.650311
vt 0.245969 0.650311
vt 0.250000 0.514737
vt 0.250000 0.514737
vt 0.250000 0.514737
vt 0.250000 0.514737
vt 0.250000 0.514737
vt 0.250000 0.514737
vt 0.250000 0.514737
vt 0.250000 0.514737
vt 0.250000 0.514737
vt 0.250000 0.514737
vt 0.250000 0.514737
vt 0.250000 0.514737
vt 0.250000 0.514737
vt 0.250000 0.514737
vt 0.250000 0.514737
vt 0.250000 0.514737
vt 0.250000 0.514737
vt 0.250000 0.514737
vt 0.250000 0.514737
vt 0.250000 0.514737
vt 0.250000 0.514737
vt 0.250000 0.514737
vt 0.250000 0.514737
vt 0.250000 0.514737
vt 0.143479 0.786767
vt 0.143479 0.786767
vt 0.143479 0.786767
vt 0.143479 0.786767
vt 0.143479 0.786767
vt 0.143479 0.786767
vt 0.143479 0.786767
vt 0.143479 0.786767
vt 0.143479 0.786767
vt 0.143479 0.786767
vt 0.143479 0.786767
vt 0.143479 0.786767
vt 0.245969 0.650311
vt 0.245969 0.650311
vt 0.245969 0.650311
vt 0.245969 0.650311
vt 0.245969 0.650311
vt 0.245969 0.650311
vt 0.245969 0.650311
vt 0.245969 0.650311
vt 0.245969 0.650311
vt 0.245969 0.650311
vt 0.245969 0.650311
vt 0.245969 0.650311
vt 0.148732 0.555131
vt 0.148732 0.555131
vt 0.148732 0.555131
vt 0.148732 0.555131
vt 0.245969 0.650311
vt 0.245969 0.650311
vt 0.245969 0.650311
vt 0.245969 0.650311
vt 0.148732 0.555131
vt 0.148732 0.555131
vt 0.148732 0.555131
vt 0.148732 0.555131
vt 0.148732 0.555131
vt 0.148732 0.555131
vt 0.148732 0.555131
vt 0.148732 0.555131
vt 0.245969 0.650311
vt 0.245969 0.650311
vt 0.245969 0.650311
vt 0.245969 0.650311
vt 0.148732 0.555131
vt 0.148732 0.555131
vt 0.148732 0.555131
vt 0.148732 0.555131
vt 0.238758 0.314902
vt 0.238758 0.314902
vt 0.238758 0.314902
vt 0.238758 0.314902
vt 0.238758 0.314902
vt 0.238758 0.314902
vt 0.238758 0.314902
vt 0.238758 0.314902
vt 0.238758 0.314902
vt 0.238758 0.314902
vt 0.238758 0.314902
vt 0.238758 0.314902
vt 0.238758 0.314902
vt 0.238758 0.314902
vt 0.238758 0.314902
vt 0.238758 0.314902
vt 0.238758 0.314902
vt 0.238758 0.314902
vt 0.238758 0.314902
vt 0.238758 0.314902
vn -0.0000 0.6685 0.7437
vn -0.0000 1.0000 0.0000
vn -0.2691 -0.6892 0.6728
vn -0.2845 -0.6428 0.7112
vn -0.7437 -0.6685 -0.0000
vn -0.7835 -0.6214 -0.0000
vn -0.2691 -0.6892 -0.6728
vn -0.2845 -0.6428 -0.7112
vn 0.2691 -0.6892 -0.6728
vn 0.2845 -0.6428 -0.7112
vn 0.7437 -0.6685 -0.0000
vn 0.7835 -0.6214 -0.0000
vn 0.6728 -0.6892 -0.2691
vn 0.7112 -0.6428 -0.2845
vn 0.2691 -0.6892 0.6728
vn 0.2845 -0.6428 0.7112
vn 0.6728 -0.6892 0.2691
vn 0.7112 -0.6428 0.2845
vn 0.0000 -0.6685 -0.7437
vn 0.0000 -0.6214 -0.7835
vn -0.6728 -0.6892 -0.2691
vn -0.7112 -0.6428 -0.2845
vn -0.6728 -0.6892 0.2691
vn -0.7112 -0.6428 0.2845
vn 0.0000 -0.6214 0.7835
vn -0.6987 -0.6585 0.2795
vn -0.7238 -0.6263 -0.2895
vn 0.2895 -0.6263 -0.7238
vn -0.7238 -0.6263 0.2895
vn 0.7238 -0.6263 -0.2895
vn -0.2895 -0.6263 -0.7238
vn -0.7964 -0.6047 -0.0000
vn 0.7238 -0.6263 0.2895
vn 0.7964 -0.6047 -0.0000
vn 0.2895 -0.6263 0.7238
vn -0.2895 -0.6263 0.7238
vn 0.0000 -0.6047 -0.7964
vn 0.0000 -0.6047 0.7964
vn 0.0000 -1.0000 -0.0000
vn 0.6987 -0.6585 -0.2795
vn -0.2795 -0.6585 -0.6987
vn -0.2795 -0.6585 0.6987
vn -0.6987 -0.6585 -0.2795
vn 0.7706 -0.6373 -0.0000
vn 0.2795 -0.6585 0.6987
vn 0.0000 -0.6373 -0.7706
vn 0.0000 -0.6373 0.7706
vn 0.6987 -0.6585 0.2795
vn 0.2795 -0.6585 -0.6987
vn -0.7706 -0.6373 -0.0000
vn -0.6728 0.6892 0.2691
vn -0.6728 0.6892 -0.2691
vn -0.0000 0.6685 -0.7437
vn 0.6728 0.6892 0.2691
vn 0.2691 0.6892 0.6728
vn 0.6728 0.6892 -0.2691
vn 0.7437 0.6685 0.0000
vn 0.2691 0.6892 -0.6728
vn -0.2691 0.6892 -0.6728
vn -0.7437 0.6685 0.0000
vn -0.2691 0.6892 0.6728
vn 0.0000 -0.6685 0.7437
usemtl W2.001
s off
f 62/1/1 6/2/1 5/3/1 66/4/1
f 5/5/2 6/6/2 2/7/2 9/8/2 10/9/2 1/10/2 7/11/2 8/12/2 3/13/2 11/14/2 12/15/2 4/16/2
f 66/17/3 70/18/3 32/19/3 24/20/3
f 24/21/4 32/22/4 31/23/4 23/24/4
f 61/25/5 69/26/5 30/27/5 14/28/5
f 14/29/6 30/30/6 29/31/6 13/32/6
f 65/33/7 64/34/7 20/35/7 22/36/7
f 22/37/8 20/38/8 19/39/8 21/40/8
f 68/41/9 72/42/9 36/43/9 28/44/9
f 28/45/10 36/46/10 35/47/10 27/48/10
f 63/49/11 71/50/11 34/51/11 18/52/11
f 18/53/12 34/54/12 33/55/12 17/56/12
f 72/42/13 63/49/13 18/52/13 36/43/13
f 36/46/14 18/57/14 17/58/14 35/47/14
f 67/59/15 62/60/15 16/61/15 26/62/15
f 26/63/16 16/64/16 15/65/16 25/66/16
f 71/50/17 67/59/17 26/62/17 34/51/17
f 34/67/18 26/63/18 25/66/18 33/68/18
f 64/34/19 68/41/19 28/44/19 20/35/19
f 20/69/20 28/70/20 27/71/20 19/72/20
f 69/26/21 65/33/21 22/36/21 30/27/21
f 30/73/22 22/37/22 21/40/22 29/74/22
f 70/18/23 61/25/23 14/28/23 32/19/23
f 32/22/24 14/75/24 13/76/24 31/23/24
f 15/77/25 16/78/25 24/79/25 23/80/25
f 46/81/26 40/82/26 54/83/26 55/84/26
f 33/85/27 25/86/27 37/87/27 43/88/27
f 23/89/28 31/90/28 46/91/28 42/92/28
f 35/93/29 17/94/29 39/95/29 45/96/29
f 31/90/30 13/97/30 40/98/30 46/91/30
f 25/86/31 15/99/31 38/100/31 37/87/31
f 17/94/32 33/85/32 43/88/32 39/95/32
f 29/101/33 21/102/33 47/103/33 41/104/33
f 13/97/34 29/101/34 41/104/34 40/98/34
f 21/102/35 19/105/35 48/106/35 47/103/35
f 27/107/36 35/93/36 45/96/36 44/108/36
f 15/99/37 23/89/37 42/92/37 38/100/37
f 19/105/38 27/107/38 44/108/38 48/106/38
f 55/109/39 54/110/39 57/111/39 56/112/39 59/113/39 58/114/39 50/115/39 49/116/39 51/117/39 60/118/39 52/119/39 53/120/39
f 45/121/40 39/122/40 49/123/40 50/124/40
f 47/125/41 48/126/41 59/127/41 56/128/41
f 42/129/42 46/81/42 55/84/42 53/130/42
f 41/131/43 47/125/43 56/128/43 57/132/43
f 39/133/44 43/134/44 51/135/44 49/136/44
f 37/137/45 38/138/45 52/139/45 60/140/45
f 48/141/46 44/142/46 58/143/46 59/144/46
f 38/145/47 42/146/47 53/147/47 52/148/47
f 43/149/48 37/137/48 60/140/48 51/150/48
f 44/151/49 45/121/49 50/124/49 58/152/49
f 40/153/50 41/154/50 57/155/50 54/156/50
f 4/157/51 12/158/51 61/159/51 70/160/51
f 11/161/52 3/162/52 65/163/52 69/164/52
f 8/165/53 7/166/53 68/167/53 64/168/53
f 9/169/54 2/170/54 67/171/54 71/172/54
f 2/170/55 6/2/55 62/1/55 67/171/55
f 1/173/56 10/174/56 63/175/56 72/176/56
f 10/174/57 9/169/57 71/172/57 63/175/57
f 7/166/58 1/173/58 72/176/58 68/167/58
f 3/162/59 8/165/59 64/168/59 65/163/59
f 12/158/60 11/161/60 69/164/60 61/159/60
f 5/3/61 4/157/61 70/160/61 66/4/61
f 16/61/62 62/60/62 66/17/62 24/20/62
