# Blender v2.93.0 OBJ File: 'W2.blend'
# www.blender.org
mtllib Building 5.mtl
g Building_5_base
v -9.000000 0.000008 9.000000
v -30.000000 122.300011 30.000000
v -9.000000 0.000008 -9.000000
v -30.000000 122.300011 -30.000000
v 9.000000 0.000008 9.000000
v 30.000000 122.300011 30.000000
v 9.000000 0.000008 -9.000000
v 30.000000 122.300011 -30.000000
v -3.858289 0.000013 -11.056683
v 3.858289 0.000013 -11.056683
v 12.860964 122.300011 -36.855614
v -12.860964 122.300011 -36.855614
v 3.858289 0.000013 11.056683
v -3.858289 0.000013 11.056683
v -12.860964 122.300011 36.855614
v 12.860964 122.300011 36.855614
v -11.056683 0.000013 3.858289
v -11.056683 0.000013 -3.858289
v -36.855614 122.300011 -12.860964
v -36.855614 122.300011 12.860964
v 11.056683 0.000013 -3.858289
v 11.056683 0.000013 3.858289
v 36.855614 122.300011 12.860964
v 36.855614 122.300011 -12.860964
v 17.690693 64.100014 -6.173263
v 33.170052 118.200012 -11.574867
v -6.173263 64.100014 -17.690693
v -11.574867 118.200012 -33.170052
v -17.690693 64.100014 6.173263
v -33.170052 118.200012 11.574867
v 6.173263 64.100014 17.690693
v 11.574867 118.200012 33.170052
v 14.400001 64.100014 14.400001
v 27.000002 118.200012 27.000002
v 6.173263 64.100014 -17.690693
v 11.574867 118.200012 -33.170052
v -14.400001 64.100014 -14.400001
v -27.000002 118.200012 -27.000002
v -6.173263 64.100014 17.690693
v -11.574867 118.200012 33.170052
v 17.690693 64.100014 6.173263
v 33.170052 118.200012 11.574867
v 14.400001 64.100014 -14.400001
v 27.000002 118.200012 -27.000002
v -17.690693 64.100014 -6.173263
v -33.170052 118.200012 -11.574867
v -14.400001 64.100014 14.400001
v -27.000002 118.200012 27.000002
v 16.363892 51.280014 -5.710268
v -5.710268 51.280014 -16.363892
v -16.363892 51.280014 5.710268
v 5.710268 51.280014 16.363892
v 13.320001 51.280010 13.320001
v 5.710268 51.280014 -16.363892
v -13.320001 51.280010 -13.320001
v -5.710268 51.280014 16.363892
v 16.363892 51.280014 5.710268
v 13.320001 51.280010 -13.320001
v -16.363892 51.280014 -5.710268
v -13.320001 51.280010 13.320001
v 30.767998 -0.069120 -12.454558
v 34.577351 0.069120 -13.754281
v -14.218192 -0.069120 -29.749763
v -15.694277 0.069120 -33.457291
v -30.767998 -0.069120 12.454558
v -34.577351 0.069120 13.754281
v 14.218192 -0.069120 29.749763
v 15.694277 0.069120 33.457291
v 18.085487 -0.069122 29.288521
v 20.293228 0.069120 32.908787
v 27.188202 -0.069120 -18.654955
v 30.320299 0.069120 -21.127728
v -18.085487 -0.069122 -29.288521
v -20.293228 0.069120 -32.908787
v -27.188202 -0.069120 18.654955
v -30.320299 0.069120 21.127728
v 20.418589 -0.069120 26.169964
v 23.067720 0.069120 29.200233
v 30.306751 -0.069122 -16.321861
v 34.028847 0.069120 -18.353233
v -20.418589 -0.069120 -26.169964
v -23.067720 0.069120 -29.200233
v -30.306751 -0.069122 16.321861
v -34.028847 0.069120 18.353233
v -40.120003 35.100010 35.120003
v -31.481924 35.100010 38.575230
v -30.371107 22.280014 18.716967
v -43.575230 35.100010 26.481926
v -22.316967 22.280014 26.771107
v -28.069927 22.280012 24.469925
v 30.371107 22.280014 18.716967
v 43.575233 35.100010 26.481928
v 28.069927 22.280012 24.469925
v 22.316967 22.280014 26.771107
v 40.120003 35.100010 35.120003
v 31.481924 35.100010 38.575230
v 22.316967 22.280014 -26.771107
v 28.069927 22.280012 -24.469925
v 31.481928 35.100010 -38.575230
v 40.120003 35.100010 -35.120003
v 30.371107 22.280014 -18.716967
v 43.575230 35.100010 -26.481926
v -28.069927 22.280012 -24.469925
v -30.371107 22.280014 -18.716967
v -40.120003 35.100010 -35.120003
v -43.575230 35.100010 -26.481926
v -22.316967 22.280014 -26.771107
v -31.481924 35.100010 -38.575230
vt 0.267190 0.478329
vt 0.256801 0.468549
vt 0.256185 0.571040
vt 0.269397 0.563798
vt 0.249882 0.563592
vt 0.253306 0.574693
vt 0.257351 0.536210
vt 0.255800 0.535162
vt 0.258169 0.575692
vt 0.264067 0.563183
vt 0.261773 0.533513
vt 0.258943 0.535651
vt 0.265287 0.538263
vt 0.263085 0.502425
vt 0.261340 0.520260
vt 0.262744 0.527715
vt 0.266729 0.472142
vt 0.265434 0.502347
vt 0.257431 0.518314
vt 0.259317 0.515221
vt 0.253182 0.525099
vt 0.257209 0.524414
vt 0.261841 0.475500
vt 0.259386 0.463277
vt 0.259633 0.514127
vt 0.261391 0.514953
vt 0.249125 0.544913
vt 0.256215 0.530708
vt 0.271788 0.414433
vt 0.269657 0.347890
vt 0.244351 0.100058
vt 0.227251 0.309991
vt 0.233599 0.441079
vt 0.249549 0.624157
vt 0.239556 0.725418
vt 0.254941 0.899942
vt 0.270360 0.709355
vt 0.272961 0.630353
vt 0.276467 0.625484
vt 0.249782 0.573146
vt 0.248345 0.546138
vt 0.257806 0.788553
vt 0.277318 0.692795
vt 0.256388 0.592177
vt 0.252188 0.588861
vt 0.229629 0.604485
vt 0.236035 0.706133
vt 0.263541 0.545580
vt 0.263931 0.579248
vt 0.224974 0.330845
vt 0.221265 0.450975
vt 0.259130 0.457245
vt 0.256729 0.495797
vt 0.277318 0.348039
vt 0.250917 0.234356
vt 0.257126 0.442621
vt 0.250923 0.437084
vt 0.274903 0.417427
vt 0.244785 0.510363
vt 0.240874 0.461453
vt 0.144372 0.499531
vt 0.140440 0.442866
vt 0.139955 0.114608
vt 0.144485 0.159749
vt 0.146966 0.511228
vt 0.146906 0.153360
vt 0.155190 0.466195
vt 0.157785 0.454498
vt 0.157725 0.812366
vt 0.155304 0.805977
vt 0.149297 0.525064
vt 0.151259 0.522859
vt 0.150774 0.851117
vt 0.149600 0.869096
vt 0.147977 0.452077
vt 0.147074 0.117536
vt 0.166009 0.499531
vt 0.162077 0.442866
vt 0.161592 0.114608
vt 0.166122 0.159749
vt 0.158796 0.513649
vt 0.159000 0.518274
vt 0.159699 0.851657
vt 0.157893 0.848189
vt 0.180638 0.518274
vt 0.170935 0.525064
vt 0.171237 0.869095
vt 0.181336 0.851657
vt 0.172411 0.851117
vt 0.176941 0.805977
vt 0.179362 0.812366
vt 0.179530 0.848189
vt 0.168712 0.117536
vt 0.168543 0.153360
vt 0.160418 0.096630
vt 0.170517 0.114069
vt 0.138781 0.096630
vt 0.148880 0.114069
vt 0.180433 0.513649
vt 0.179422 0.454498
vt 0.160116 0.440661
vt 0.169819 0.447452
vt 0.148182 0.447452
vt 0.169614 0.452077
vt 0.168603 0.511228
vt 0.172896 0.522859
vt 0.176827 0.466194
vt 0.138479 0.440662
vt 0.169121 0.780836
vt 0.170517 0.786617
vt 0.168663 0.869096
vt 0.165895 0.839314
vt 0.162562 0.771124
vt 0.159814 0.784693
vt 0.173381 0.194601
vt 0.176714 0.126412
vt 0.179482 0.096630
vt 0.170632 0.181033
vt 0.181336 0.179109
vt 0.179939 0.184890
vt 0.140925 0.771124
vt 0.138176 0.784693
vt 0.147483 0.780836
vt 0.148880 0.786617
vt 0.147026 0.869096
vt 0.144258 0.839314
vt 0.157845 0.096630
vt 0.159699 0.179109
vt 0.151744 0.194601
vt 0.155077 0.126412
vt 0.158302 0.184890
vt 0.148995 0.181033
vn 0.0000 -0.6685 -0.7437
vn 0.9230 -0.1089 -0.3692
vn 0.9230 -0.1089 0.3692
vn 0.0000 -0.1029 0.9947
vn -0.9230 -0.1089 -0.3692
vn -0.3692 -0.1089 -0.9230
vn -0.9230 -0.1089 0.3692
vn -0.9947 -0.1029 0.0000
vn -0.3692 -0.1089 0.9230
vn 0.3692 -0.1089 0.9230
vn 0.9947 -0.1029 0.0000
vn 0.3692 -0.1089 -0.9230
vn 0.0000 1.0000 0.0000
vn 0.2691 -0.6892 -0.6728
vn 0.3555 -0.2898 -0.8886
vn 0.7437 -0.6685 0.0000
vn 0.9614 -0.2751 0.0000
vn 0.2691 -0.6892 0.6728
vn 0.3555 -0.2898 0.8886
vn -0.2691 -0.6892 0.6728
vn -0.3555 -0.2898 0.8886
vn -0.7437 -0.6685 0.0000
vn -0.9614 -0.2751 0.0000
vn -0.6728 -0.6892 0.2691
vn -0.8886 -0.2898 0.3555
vn -0.2691 -0.6892 -0.6728
vn -0.3555 -0.2898 -0.8886
vn -0.6728 -0.6892 -0.2691
vn -0.8886 -0.2898 -0.3555
vn 0.0000 -0.6685 0.7437
vn 0.0000 -0.2751 0.9614
vn 0.6728 -0.6892 0.2691
vn 0.8886 -0.2898 0.3555
vn 0.6728 -0.6892 -0.2691
vn 0.8886 -0.2898 -0.3555
vn 0.0000 -0.1029 -0.9947
vn 0.0000 -0.2751 -0.9614
vn 0.4057 -0.4346 -0.8040
vn -0.5030 -0.3787 -0.7769
vn 0.8823 0.3558 -0.3080
vn -0.7951 -0.4548 -0.4012
vn -0.4493 0.2415 0.8601
vn -0.4057 -0.4346 0.8040
vn 0.8561 0.2591 0.4472
vn 0.7263 -0.4738 -0.4979
vn 0.0215 -0.9994 -0.0287
vn 0.0042 -0.9994 0.0356
vn -0.0215 -0.9994 0.0287
vn -0.0348 -0.9994 0.0042
vn -0.0042 -0.9994 -0.0356
vn -0.0281 -0.9994 -0.0210
vn 0.0281 -0.9994 0.0210
vn 0.0348 -0.9994 -0.0042
vn -0.8561 0.2591 -0.4472
vn -0.2756 -0.0559 -0.9597
vn -0.2916 0.2609 -0.9203
vn -0.9607 0.0323 0.2758
vn 0.4493 0.2415 -0.8601
vn -0.7263 -0.4738 0.4979
vn -0.9095 -0.3117 0.2751
vn 0.7951 -0.4548 0.4012
vn -0.8823 0.3558 0.3080
vn 0.5030 -0.3787 0.7769
vn 0.9607 0.0323 -0.2758
vn 0.2810 -0.2401 0.9292
vn 0.2916 0.2609 0.9203
vn -0.2810 -0.2401 -0.9292
vn 0.2756 -0.0559 0.9597
vn 0.9095 -0.3117 -0.2751
vn 0.7909 -0.5239 -0.3163
vn 0.6875 -0.1095 0.7179
vn -0.6280 0.7365 0.2512
vn 0.3260 -0.4791 -0.8150
vn -0.5796 -0.0679 -0.8121
vn -0.2636 0.7045 0.6589
vn 0.2636 0.7045 0.6589
vn -0.6875 -0.1095 0.7179
vn 0.6280 0.7365 0.2512
vn -0.3260 -0.4791 -0.8150
vn -0.7909 -0.5239 -0.3163
vn 0.5796 -0.0679 -0.8121
vn 0.6280 0.7365 -0.2512
vn 0.5796 -0.0679 0.8121
vn -0.7909 -0.5239 0.3163
vn -0.3260 -0.4791 0.8150
vn -0.6875 -0.1095 -0.7179
vn 0.2636 0.7045 -0.6589
vn 0.3260 -0.4791 0.8150
vn -0.2636 0.7045 -0.6589
vn -0.5796 -0.0679 0.8121
vn 0.7909 -0.5239 0.3163
vn -0.6280 0.7365 -0.2512
vn 0.6875 -0.1095 -0.7179
usemtl W2
s off
f 28/1/1 12/2/1 11/3/1 36/4/1
f 58/5/2 49/6/2 21/7/2 7/8/2
f 57/9/3 53/10/3 5/11/3 22/12/3
f 52/13/4 56/14/4 14/15/4 13/16/4
f 59/17/5 55/18/5 3/19/5 18/20/5
f 55/18/6 50/21/6 9/22/6 3/19/6
f 60/23/7 51/24/7 17/25/7 1/26/7
f 51/24/8 59/17/8 18/20/8 17/25/8
f 56/14/9 60/23/9 1/26/9 14/15/9
f 53/10/10 52/13/10 13/16/10 5/11/10
f 49/6/11 57/9/11 22/12/11 21/7/11
f 54/27/12 58/5/12 7/8/12 10/28/12
f 11/3/13 12/2/13 4/29/13 19/30/13 20/31/13 2/32/13 15/33/13 16/34/13 6/35/13 23/36/13 24/37/13 8/38/13
f 11/3/14 8/38/14 44/39/14 36/4/14
f 36/4/15 44/39/15 43/40/15 35/41/15
f 24/37/16 23/36/16 42/42/16 26/43/16
f 26/43/17 42/42/17 41/44/17 25/45/17
f 6/35/18 16/34/18 32/46/18 34/47/18
f 34/47/19 32/46/19 31/48/19 33/49/19
f 15/33/20 2/32/20 48/50/20 40/51/20
f 40/51/21 48/50/21 47/52/21 39/53/21
f 20/31/22 19/30/22 46/54/22 30/55/22
f 30/55/23 46/54/23 45/56/23 29/57/23
f 2/32/24 20/31/24 30/55/24 48/50/24
f 48/50/25 30/55/25 29/57/25 47/52/25
f 4/29/26 12/2/26 28/1/26 38/58/26
f 38/58/27 28/1/27 27/59/27 37/60/27
f 19/30/28 4/29/28 38/58/28 46/54/28
f 46/54/29 38/58/29 37/60/29 45/56/29
f 16/34/30 15/33/30 40/51/30 32/46/30
f 32/46/31 40/51/31 39/53/31 31/48/31
f 23/36/32 6/35/32 34/47/32 42/42/32
f 42/42/33 34/47/33 33/49/33 41/44/33
f 8/38/34 24/37/34 26/43/34 44/39/34
f 44/39/35 26/43/35 25/45/35 43/40/35
f 50/21/36 27/59/36 35/41/36 54/27/36
f 27/59/37 28/1/37 36/4/37 35/41/37
f 9/22/36 50/21/36 54/27/36 10/28/36
f 99/61/38 100/62/38 80/63/38 72/64/38
f 25/45/11 41/44/11 57/9/11 49/6/11
f 97/65/39 99/61/39 72/64/39 71/66/39
f 108/67/40 107/68/40 63/69/40 64/70/40
f 29/57/8 45/56/8 59/17/8 51/24/8
f 106/71/41 105/72/41 74/73/41 82/74/41
f 98/75/42 97/65/42 71/66/42 79/76/42
f 86/77/43 85/78/43 84/79/43 76/80/43
f 31/48/4 39/53/4 56/14/4 52/13/4
f 103/81/44 104/82/44 81/83/44 73/84/44
f 91/85/45 92/86/45 78/87/45 77/88/45
f 72/64/46 80/63/46 79/76/46 71/66/46
f 70/89/47 68/90/47 67/91/47 69/92/47
f 76/80/48 84/79/48 83/93/48 75/94/48
f 84/79/49 66/95/49 65/96/49 83/93/49
f 74/73/50 64/70/50 63/69/50 73/84/50
f 82/74/51 74/73/51 73/84/51 81/83/51
f 78/87/52 70/89/52 69/92/52 77/88/52
f 80/63/53 62/97/53 61/98/53 79/76/53
f 93/99/54 91/85/54 77/88/54 69/92/54
f 94/100/55 93/99/55 69/92/55 67/91/55
f 88/101/56 87/102/56 65/96/56 66/95/56
f 101/103/57 98/75/57 79/76/57 61/98/57
f 90/104/58 89/105/58 75/94/58 83/93/58
f 104/82/59 106/71/59 82/74/59 81/83/59
f 85/78/60 88/101/60 66/95/60 84/79/60
f 92/86/61 95/106/61 70/89/61 78/87/61
f 96/107/62 94/100/62 67/91/62 68/90/62
f 89/105/63 86/77/63 76/80/63 75/94/63
f 87/102/64 90/104/64 83/93/64 65/96/64
f 95/106/65 96/107/65 68/90/65 70/89/65
f 102/108/66 101/103/66 61/98/66 62/97/66
f 105/72/67 108/67/67 64/70/67 74/73/67
f 107/68/68 103/81/68 73/84/68 63/69/68
f 100/62/69 102/108/69 62/97/69 80/63/69
f 51/109/70 60/110/70 90/104/70 87/102/70
f 56/111/71 39/112/71 86/77/71 89/105/71
f 47/113/72 29/114/72 88/101/72 85/78/72
f 60/110/73 56/111/73 89/105/73 90/104/73
f 29/114/74 51/109/74 87/102/74 88/101/74
f 39/112/75 47/113/75 85/78/75 86/77/75
f 33/115/76 31/116/76 96/107/76 95/106/76
f 31/116/77 52/117/77 94/100/77 96/107/77
f 41/118/78 33/115/78 95/106/78 92/86/78
f 52/117/79 53/119/79 93/99/79 94/100/79
f 53/119/80 57/120/80 91/85/80 93/99/80
f 57/120/81 41/118/81 92/86/81 91/85/81
f 43/121/82 25/122/82 102/108/82 100/62/82
f 25/122/83 49/123/83 101/103/83 102/108/83
f 49/123/84 58/124/84 98/75/84 101/103/84
f 58/124/85 54/125/85 97/65/85 98/75/85
f 54/125/86 35/126/86 99/61/86 97/65/86
f 35/126/87 43/121/87 100/62/87 99/61/87
f 50/127/88 55/128/88 103/81/88 107/68/88
f 37/129/89 27/130/89 108/67/89 105/72/89
f 59/131/90 45/132/90 106/71/90 104/82/90
f 55/128/91 59/131/91 104/82/91 103/81/91
f 45/132/92 37/129/92 105/72/92 106/71/92
f 27/130/93 50/127/93 107/68/93 108/67/93
g Building_5_top
v 29.999981 147.699966 29.999968
v 29.999981 147.699982 -30.000032
v -30.000017 147.699982 29.999968
v -30.000017 147.699997 -30.000032
v -12.860983 147.699997 -36.855644
v 12.860945 147.699997 -36.855644
v 12.860944 147.699966 36.855579
v -12.860984 147.699966 36.855579
v 36.855595 147.699982 -12.860995
v 36.855595 147.699966 12.860931
v -36.855629 147.699982 12.860931
v -36.855629 147.699997 -12.860996
v -17.690702 185.899994 -6.173280
v -33.170071 151.800003 -11.574899
v 6.173254 185.899994 -17.690712
v 11.574849 151.799988 -33.170082
v 17.690685 185.899994 6.173246
v 33.170036 151.799973 11.574836
v -6.173272 185.899994 17.690676
v -11.574885 151.799988 33.170025
v -14.400011 185.899994 14.399983
v -27.000019 151.799988 26.999968
v -6.173272 185.899994 -17.690712
v -11.574885 151.800003 -33.170082
v 14.399990 185.899994 -14.400018
v 26.999983 151.799988 -27.000034
v 6.173254 185.899994 17.690676
v 11.574849 151.799973 33.170025
v -17.690702 185.899994 6.173246
v -33.170071 151.799988 11.574836
v -14.400011 185.899994 -14.400018
v -27.000019 151.800003 -27.000034
v 17.690685 185.899994 -6.173280
v 33.170036 151.799988 -11.574899
v 14.399990 185.899994 14.399983
v 26.999983 151.799973 26.999968
v 11.309752 180.899963 -11.309779
v 4.848471 180.899963 -13.894289
v 13.894263 180.899963 4.848464
v -13.894281 180.899963 -4.848498
v -13.894281 180.899963 4.848464
v -4.848491 180.899963 -13.894289
v 13.894263 180.899963 -4.848498
v 4.848471 180.899963 13.894256
v 11.309752 180.899963 11.309746
v -11.309771 180.899963 -11.309779
v -11.309771 180.899963 11.309746
v -4.848491 180.899963 13.894256
v 4.245759 225.899948 1.481569
v 3.455992 225.899948 3.455986
v 4.245759 225.899948 -1.481598
v 1.481574 225.899948 -4.245782
v -1.481592 225.899948 -4.245782
v -4.245776 225.899948 -1.481598
v -3.456009 225.899948 -3.456016
v -3.456009 225.899948 3.455986
v -4.245776 225.899948 1.481569
v 1.481574 225.899948 4.245752
v -1.481592 225.899948 4.245752
v 3.455992 225.899948 -3.456016
vt 0.250943 0.532705
vt 0.271182 0.532705
vt 0.260465 0.532705
vt 0.247371 0.532705
vt 0.278323 0.532705
vt 0.278323 0.539846
vt 0.278323 0.550564
vt 0.278323 0.557705
vt 0.271182 0.557705
vt 0.260465 0.557705
vt 0.253323 0.557705
vt 0.253323 0.550564
vt 0.253323 0.539846
vt 0.253323 0.532705
vt 0.244990 0.532705
vt 0.236657 0.532705
vt 0.234276 0.532705
vt 0.244990 0.550564
vt 0.244990 0.539846
vt 0.236657 0.550564
vt 0.236657 0.539846
vt 0.247371 0.557705
vt 0.244990 0.557705
vt 0.234276 0.557705
vt 0.236657 0.557705
vt 0.253323 0.557705
vt 0.250943 0.557705
vt 0.228323 0.557705
vt 0.230704 0.557705
vt 0.253323 0.539846
vt 0.253323 0.550564
vt 0.228323 0.539846
vt 0.228323 0.550564
vt 0.253323 0.532705
vt 0.230704 0.532705
vt 0.228323 0.532705
vt 0.236657 0.532705
vt 0.236657 0.539846
vt 0.236657 0.539846
vt 0.236657 0.532705
vt 0.228323 0.532705
vt 0.228323 0.539846
vt 0.234276 0.532705
vt 0.228323 0.550564
vt 0.228323 0.557705
vt 0.230704 0.532705
vt 0.236657 0.557705
vt 0.236657 0.550564
vt 0.234276 0.557705
vt 0.230704 0.557705
vt 0.236657 0.550564
vt 0.236657 0.557705
vt 0.234276 0.557705
vt 0.230704 0.557705
vt 0.228323 0.557705
vt 0.228323 0.550564
vt 0.228323 0.539846
vt 0.228323 0.532705
vt 0.230704 0.532705
vt 0.234276 0.532705
vn 0.0000 0.6685 -0.7437
vn -0.0000 -1.0000 -0.0000
vn -0.2691 0.6892 -0.6728
vn -0.3348 0.4330 -0.8369
vn -0.7437 0.6685 0.0000
vn -0.9106 0.4133 0.0000
vn -0.2691 0.6892 0.6728
vn -0.3348 0.4330 0.8369
vn 0.2691 0.6892 0.6728
vn 0.3348 0.4330 0.8369
vn 0.7437 0.6685 0.0000
vn 0.9106 0.4133 0.0000
vn 0.6728 0.6892 0.2691
vn 0.8369 0.4330 0.3348
vn 0.2691 0.6892 -0.6728
vn 0.3348 0.4330 -0.8369
vn 0.6728 0.6892 -0.2691
vn 0.8369 0.4330 -0.3348
vn 0.0000 0.6685 0.7437
vn 0.0000 0.4133 0.9106
vn -0.6728 0.6892 0.2691
vn -0.8369 0.4330 0.3348
vn -0.6728 0.6892 -0.2691
vn -0.8369 0.4330 -0.3348
vn 0.0000 0.4133 -0.9106
vn -0.9055 0.2212 -0.3622
vn -0.7238 0.6263 0.2895
vn 0.2895 0.6263 0.7238
vn -0.7238 0.6263 -0.2895
vn 0.7238 0.6263 0.2895
vn -0.2895 0.6263 0.7238
vn -0.7964 0.6047 0.0000
vn 0.7238 0.6263 -0.2895
vn 0.7964 0.6047 0.0000
vn 0.2895 0.6263 -0.7238
vn -0.2895 0.6263 -0.7238
vn 0.0000 0.6047 0.7964
vn 0.0000 0.6047 -0.7964
vn 0.0000 1.0000 0.0000
vn 0.9055 0.2212 0.3622
vn -0.3622 0.2212 0.9055
vn -0.3622 0.2212 -0.9055
vn -0.9055 0.2212 0.3622
vn 0.9778 0.2096 0.0000
vn 0.3622 0.2212 -0.9055
vn 0.0000 0.2096 0.9778
vn 0.0000 0.2096 -0.9778
vn 0.9055 0.2212 -0.3622
vn 0.3622 0.2212 0.9055
vn -0.9778 0.2096 0.0000
usemtl W2
s off
f 124/133/94 114/134/94 113/135/94 132/136/94
f 113/135/95 114/134/95 110/137/95 117/138/95 118/139/95 109/140/95 115/141/95 116/142/95 111/143/95 119/144/95 120/145/95 112/146/95
f 113/135/96 112/146/96 140/147/96 132/136/96
f 132/136/97 140/147/97 139/148/97 131/149/97
f 120/145/98 119/144/98 138/150/98 122/151/98
f 122/151/99 138/150/99 137/152/99 121/153/99
f 111/143/100 116/142/100 128/154/100 130/155/100
f 130/155/101 128/154/101 127/156/101 129/157/101
f 115/141/102 109/140/102 144/158/102 136/159/102
f 136/159/103 144/158/103 143/160/103 135/161/103
f 118/139/104 117/138/104 142/162/104 126/163/104
f 126/163/105 142/162/105 141/164/105 125/165/105
f 109/140/106 118/139/106 126/163/106 144/158/106
f 144/158/107 126/163/107 125/165/107 143/160/107
f 110/137/108 114/134/108 124/133/108 134/166/108
f 134/166/109 124/133/109 123/167/109 133/168/109
f 117/138/110 110/137/110 134/166/110 142/162/110
f 142/162/111 134/166/111 133/168/111 141/164/111
f 116/142/112 115/141/112 136/159/112 128/154/112
f 128/154/113 136/159/113 135/161/113 127/156/113
f 119/144/114 111/143/114 130/155/114 138/150/114
f 138/150/115 130/155/115 129/157/115 137/152/115
f 112/146/116 120/145/116 122/151/116 140/147/116
f 140/147/117 122/151/117 121/153/117 139/148/117
f 123/167/118 124/133/118 132/136/118 131/149/118
f 154/169/119 148/170/119 162/171/119 163/172/119
f 141/164/120 133/168/120 145/173/120 151/174/120
f 131/149/121 139/148/121 154/169/121 150/175/121
f 143/160/122 125/165/122 147/176/122 153/177/122
f 139/148/123 121/153/123 148/170/123 154/169/123
f 133/168/124 123/167/124 146/178/124 145/173/124
f 125/165/125 141/164/125 151/174/125 147/176/125
f 137/152/126 129/157/126 155/179/126 149/180/126
f 121/153/127 137/152/127 149/180/127 148/170/127
f 129/157/128 127/156/128 156/181/128 155/179/128
f 135/161/129 143/160/129 153/177/129 152/182/129
f 123/167/130 131/149/130 150/175/130 146/178/130
f 127/156/131 135/161/131 152/182/131 156/181/131
f 163/172/132 162/171/132 165/183/132 164/184/132 167/185/132 166/186/132 158/187/132 157/188/132 159/189/132 168/190/132 160/191/132 161/192/132
f 153/177/133 147/176/133 157/188/133 158/187/133
f 155/179/134 156/181/134 167/185/134 164/184/134
f 150/175/135 154/169/135 163/172/135 161/192/135
f 149/180/136 155/179/136 164/184/136 165/183/136
f 147/176/137 151/174/137 159/189/137 157/188/137
f 145/173/138 146/178/138 160/191/138 168/190/138
f 156/181/139 152/182/139 166/186/139 167/185/139
f 146/178/140 150/175/140 161/192/140 160/191/140
f 151/174/141 145/173/141 168/190/141 159/189/141
f 152/182/142 153/177/142 158/187/142 166/186/142
f 148/170/143 149/180/143 165/183/143 162/171/143
