# Blender v2.93.0 OBJ File: 'w1 EXPORT FILE extra.blend'
# www.blender.org
mtllib Freeway Sign 1.mtl
g Freeway_Sign_1_Pole_Cube.015
v -0.635038 -36.618439 0.941381
v -0.635038 23.581566 0.941381
v -0.635038 -36.618439 -0.978619
v -0.635038 23.581566 -0.978619
v 1.564962 -36.618439 0.941381
v 1.564962 23.581566 0.941381
v 1.564962 -36.618439 -0.978619
v 1.564962 23.581566 -0.978619
v 1.564962 28.581566 -0.978619
v 1.564962 28.581566 0.941381
v 1.564962 26.181566 -0.978619
v 1.564962 26.181566 0.941381
v -0.635038 26.181566 0.941381
v -0.635038 26.181566 -0.978619
v 22.789698 28.581566 -0.978619
v 23.564962 27.806301 -0.978619
v 23.564962 27.806301 0.941381
v 22.789698 28.581566 0.941381
v 23.564962 26.956831 -0.978619
v 22.789698 26.181566 -0.978619
v 22.789698 26.181566 0.941381
v 23.564962 26.956831 0.941381
v 0.210354 28.581566 0.941381
v -0.635038 27.736174 0.941381
v -0.635038 27.736174 -0.978619
v 0.210354 28.581566 -0.978619
vt 0.810099 0.204545
vt 0.810099 0.204545
vt 0.810099 0.204545
vt 0.810099 0.204545
vt 0.810099 0.204545
vt 0.810099 0.204545
vt 0.810099 0.204545
vt 0.810099 0.204545
vt 0.810099 0.204545
vt 0.810099 0.204545
vt 0.810099 0.204545
vt 0.810099 0.204545
vt 0.810099 0.204545
vt 0.810099 0.204545
vt 0.810099 0.204545
vt 0.810099 0.204545
vt 0.810099 0.204545
vt 0.810099 0.204545
vt 0.810099 0.204545
vt 0.810099 0.204545
vt 0.810099 0.204545
vt 0.810099 0.204545
vt 0.810099 0.204545
vt 0.810099 0.204545
vt 0.810099 0.204545
vt 0.810099 0.204545
vn -1.0000 0.0000 0.0000
vn 0.0000 0.0000 -1.0000
vn 1.0000 0.0000 0.0000
vn 0.0000 0.0000 1.0000
vn 0.0000 -1.0000 0.0000
vn 0.0000 1.0000 0.0000
vn 0.7071 0.7071 0.0000
vn 0.7071 -0.7071 0.0000
vn -0.7071 0.7071 0.0000
usemtl Material
s off
f 1/1/1 2/2/1 4/3/1 3/4/1
f 3/4/2 4/3/2 8/5/2 7/6/2
f 7/6/3 8/5/3 6/7/3 5/8/3
f 5/8/4 6/7/4 2/2/4 1/1/4
f 3/4/5 7/6/5 5/8/5 1/1/5
f 12/9/5 11/10/5 20/11/5 21/12/5
f 13/13/4 12/9/4 10/14/4 23/15/4 24/16/4
f 9/17/6 26/18/6 23/15/6 10/14/6
f 11/10/2 14/19/2 25/20/2 26/18/2 9/17/2
f 8/5/2 4/3/2 14/19/2 11/10/2
f 2/2/4 6/7/4 12/9/4 13/13/4
f 4/3/1 2/2/1 13/13/1 14/19/1
f 6/7/3 8/5/3 11/10/3 12/9/3
f 11/10/2 9/17/2 15/21/2 16/22/2 19/23/2 20/11/2
f 10/14/4 12/9/4 21/12/4 22/24/4 17/25/4 18/26/4
f 22/24/3 19/23/3 16/22/3 17/25/3
f 15/21/7 18/26/7 17/25/7 16/22/7
f 19/23/8 22/24/8 21/12/8 20/11/8
f 9/17/6 10/14/6 18/26/6 15/21/6
f 23/15/9 26/18/9 25/20/9 24/16/9
f 14/19/1 13/13/1 24/16/1 25/20/1
g Freeway_Sign_1_Sign_Cube.014
v 4.054962 18.081562 0.251381
v 4.054962 26.181562 0.251381
v 4.054962 18.081562 -0.288619
v 4.054962 26.181562 -0.288619
v 21.874962 18.081562 0.251381
v 21.874962 26.181562 0.251381
v 21.874962 18.081562 -0.288619
v 21.874962 26.181562 -0.288619
v 21.334961 18.081562 -0.288619
v 4.594962 18.081562 -0.288619
v 4.594962 26.181562 -0.288619
v 21.334961 26.181562 -0.288619
v 4.594962 18.081562 0.251381
v 21.334961 18.081562 0.251381
v 21.334961 26.181562 0.251381
v 4.594962 26.181562 0.251381
v 4.054962 18.581562 0.251381
v 4.054962 25.681562 0.251381
v 4.054962 25.681562 -0.288619
v 4.054962 18.581562 -0.288619
v 21.874962 25.681562 -0.288619
v 21.874962 18.581562 -0.288619
v 21.874962 25.681562 0.251381
v 21.874962 18.581562 0.251381
v 21.334961 25.681562 0.251381
v 21.334961 18.581562 0.251381
v 4.594962 25.681562 0.251381
v 4.594962 18.581562 0.251381
v 4.594962 25.681562 -0.288619
v 4.594962 18.581562 -0.288619
v 21.334961 25.681562 -0.288619
v 21.334961 18.581562 -0.288619
v 4.054962 25.681562 0.451381
v 4.054962 26.181562 0.451381
v 21.874962 18.581562 0.451381
v 21.874962 18.081562 0.451381
v 21.334961 18.081562 0.451381
v 4.594962 26.181562 0.451381
v 4.054962 18.081562 0.451381
v 4.594962 18.081562 0.451381
v 21.874962 26.181562 0.451381
v 21.334961 26.181562 0.451381
v 21.334961 18.581562 0.451381
v 4.594962 18.581562 0.451381
v 4.054962 18.581562 0.451381
v 21.874962 25.681562 0.451381
v 21.334961 25.681562 0.451381
v 4.594962 25.681562 0.451381
vt 0.214170 0.579370
vt 0.214170 0.579370
vt 0.214170 0.579370
vt 0.214170 0.579370
vt 0.214170 0.579370
vt 0.214170 0.579370
vt 0.214170 0.579370
vt 0.214170 0.579370
vt 0.214170 0.579370
vt 0.214170 0.579370
vt 0.214170 0.579370
vt 0.214170 0.579370
vt 0.214170 0.579370
vt 0.214170 0.579370
vt 0.214170 0.579370
vt 0.214170 0.579370
vt 0.214170 0.579370
vt 0.214170 0.579370
vt 0.214170 0.579370
vt 0.214170 0.579370
vt 0.214170 0.579370
vt 0.214170 0.579370
vt 0.214170 0.579370
vt 0.214170 0.579370
vt 0.214170 0.579370
vt 0.214170 0.579370
vt 0.214170 0.579370
vt 0.214170 0.579370
vt 0.214170 0.579370
vt 0.214170 0.579370
vt 0.214170 0.579370
vt 0.214170 0.579370
vt 0.214170 0.579370
vt 0.214170 0.579370
vt 0.214170 0.579370
vt 0.214170 0.579370
vt 0.214170 0.579370
vt 0.214170 0.579370
vt 0.214170 0.579370
vt 0.214170 0.579370
vt 0.214170 0.579370
vt 0.214170 0.579370
vt 0.214170 0.579370
vt 0.214170 0.579370
vt 0.214170 0.579370
vt 0.214170 0.579370
vt 0.214170 0.579370
vt 0.214170 0.579370
vn -1.0000 0.0000 0.0000
vn 0.0000 0.0000 -1.0000
vn 1.0000 0.0000 0.0000
vn 0.0000 1.0000 0.0000
vn 0.0000 -1.0000 0.0000
vn 0.0000 0.0000 1.0000
usemtl Material
s off
f 44/27/10 28/28/10 30/29/10 45/30/10
f 57/31/11 38/32/11 34/33/11 47/34/11
f 47/34/12 34/33/12 32/35/12 49/36/12
f 32/35/13 41/37/13 68/38/13 67/39/13
f 35/40/14 33/41/14 31/42/14 40/43/14
f 37/44/13 30/29/13 28/28/13 42/45/13
f 34/33/13 38/32/13 41/37/13 32/35/13
f 38/32/13 37/44/13 42/45/13 41/37/13
f 29/46/14 36/47/14 39/48/14 27/49/14
f 36/47/14 35/40/14 40/43/14 39/48/14
f 40/43/14 31/42/14 62/50/14 63/51/14
f 39/48/14 40/43/14 63/51/14 66/52/14
f 45/30/11 30/29/11 37/44/11 55/53/11
f 55/53/11 37/44/11 38/32/11 57/31/11
f 36/47/11 56/54/11 58/55/11 35/40/11
f 56/54/11 55/53/11 57/31/11 58/55/11
f 29/46/11 46/56/11 56/54/11 36/47/11
f 46/56/11 45/30/11 55/53/11 56/54/11
f 54/57/12 53/58/12 74/59/12 70/60/12
f 52/61/15 51/62/15 53/58/15 54/57/15
f 31/42/12 50/63/12 61/64/12 62/50/12
f 27/49/14 39/48/14 66/52/14 65/65/14
f 28/28/10 44/27/10 59/66/10 60/67/10
f 51/62/10 52/61/10 69/68/10 73/69/10
f 33/41/12 48/70/12 50/63/12 31/42/12
f 48/70/12 47/34/12 49/36/12 50/63/12
f 35/40/11 58/55/11 48/70/11 33/41/11
f 58/55/11 57/31/11 47/34/11 48/70/11
f 27/49/10 43/71/10 46/56/10 29/46/10
f 43/71/10 44/27/10 45/30/10 46/56/10
f 74/59/15 64/72/15 60/67/15 59/66/15
f 72/73/15 67/39/15 68/38/15 73/69/15
f 73/69/15 68/38/15 64/72/15 74/59/15
f 63/51/15 69/68/15 70/60/15 66/52/15
f 62/50/15 61/64/15 69/68/15 63/51/15
f 61/64/15 72/73/15 73/69/15 69/68/15
f 66/52/15 70/60/15 71/74/15 65/65/15
f 70/60/15 74/59/15 59/66/15 71/74/15
f 52/61/13 54/57/13 70/60/13 69/68/13
f 42/45/13 28/28/13 60/67/13 64/72/13
f 41/37/13 42/45/13 64/72/13 68/38/13
f 49/36/12 32/35/12 67/39/12 72/73/12
f 53/58/14 51/62/14 73/69/14 74/59/14
f 50/63/12 49/36/12 72/73/12 61/64/12
f 43/71/10 27/49/10 65/65/10 71/74/10
f 44/27/10 43/71/10 71/74/10 59/66/10
g Freeway_Sign_1_Plane_Cube.016
v 4.054961 18.081562 0.401381
v 4.054961 26.181562 0.401381
v 21.874960 18.081562 0.401381
v 21.874960 26.181562 0.401381
vt 0.833713 0.185227
vt 0.858713 0.185227
vt 0.858713 0.210227
vt 0.833713 0.210227
vn 0.0000 0.0000 1.0000
usemtl None
s off
f 77/75/16 78/76/16 76/77/16 75/78/16
