# Blender v2.93.0 OBJ File: 'w1 EXPORT FILE extra.blend'
# www.blender.org
mtllib Billboard LF.mtl
g Billboard_LF_LF_Billboard_slant_v7
v -2.503756 6.102237 10.115911
v 2.996243 0.602236 10.115910
v -2.503755 6.102237 11.115911
v 2.996243 0.602236 11.115910
v 2.996237 0.602236 -8.884090
v -2.503761 6.102237 -8.884089
v 2.996237 0.602236 -9.884090
v -2.503761 6.102237 -9.884089
v 3.066952 0.672945 10.115910
v -2.433046 6.172947 10.115911
v 3.066952 0.672945 11.115910
v -2.433046 6.172947 11.115911
v -2.433052 6.172947 -8.884089
v 3.066946 0.672945 -8.884090
v -2.433052 6.172947 -9.884089
v 3.066946 0.672945 -9.884090
v -3.003757 0.602238 10.115911
v -3.003756 6.102237 10.115911
v 2.996240 0.252229 0.678043
v 2.996239 0.252229 -1.446225
v 2.996238 0.252229 -5.321957
v 2.996238 -0.747771 -4.321957
v 2.996239 -0.747771 -2.446225
v 2.996243 0.208299 10.509830
v 2.996242 0.252229 6.678043
v 2.996241 0.252229 4.553775
v 2.996240 -0.747771 1.678043
v 2.996241 -0.747771 3.553775
v 2.996242 -0.747771 9.553776
v 2.996242 -0.747771 7.678043
v 2.996238 0.252229 -7.446225
v 2.996237 0.252229 -9.234097
v 2.996237 -0.747771 -8.446224
v 2.996237 -0.747771 -9.234097
v -3.003763 0.602238 -8.884089
v -3.003761 6.102237 -8.884089
v -3.003763 0.252231 -9.234095
v -3.003762 0.252231 -7.446223
v -3.003762 0.252231 -5.321955
v -3.003761 0.252231 -1.446223
v -3.003760 0.252231 0.678045
v -3.003763 -0.747769 -9.234095
v -3.003763 -0.747769 -8.446222
v -3.003762 -0.747769 -4.321955
v -3.003761 -0.747769 -2.446223
v -3.003760 -0.747769 1.678045
v -3.003759 -0.747769 3.553777
v -3.003759 0.252231 4.553777
v -3.003758 0.252231 6.678045
v -3.003757 0.208301 10.509832
v -3.003758 -0.747769 7.678045
v -3.003758 -0.747769 9.553778
v 2.846243 -0.897764 -9.384090
v 2.846243 0.102236 -9.384090
v 2.846243 -0.897764 -8.384090
v 2.846243 0.102236 -7.384091
v 2.846244 0.102236 -5.384091
v 2.846244 -0.897764 -4.384091
v 2.846245 -0.897764 -2.384091
v 2.846245 0.102236 -1.384091
v 2.846246 0.102236 0.615909
v 2.846246 -0.897764 1.615909
v 2.846246 -0.897764 3.615909
v 2.846247 0.102236 4.615909
v 2.846247 0.102236 6.615909
v 2.846248 -0.897764 7.615909
v 2.846249 0.102236 10.615910
v 2.846248 -0.897764 9.615910
v -2.853769 0.102238 -9.384089
v -2.853770 -0.897762 -9.384089
v -2.853770 -0.897762 -8.384089
v -2.853769 0.102238 -7.384089
v -2.853768 0.102238 -5.384089
v -2.853769 -0.897762 -4.384089
v -2.853768 -0.897762 -2.384089
v -2.853767 0.102238 -1.384089
v -2.853766 0.102238 0.615911
v -2.853767 -0.897762 1.615911
v -2.853766 -0.897762 3.615911
v -2.853765 0.102238 4.615911
v -2.853765 0.102238 6.615911
v -2.853765 -0.897762 7.615911
v -2.853765 -0.897762 9.615911
v -2.853763 0.102238 10.615911
vt 0.388102 0.862403
vt 0.388102 0.862568
vt 0.386818 0.862568
vt 0.386818 0.862403
vt 0.386823 0.864099
vt 0.386823 0.863934
vt 0.388108 0.863934
vt 0.388108 0.864099
vt 0.282608 0.812869
vt 0.282608 0.815775
vt 0.281588 0.815775
vt 0.281588 0.812869
vt 0.283796 0.812739
vt 0.283796 0.812847
vt 0.283107 0.812847
vt 0.283075 0.812739
vt 0.282608 0.812869
vt 0.282608 0.815775
vt 0.281588 0.815775
vt 0.281588 0.812869
vt 0.387146 0.861333
vt 0.387163 0.861316
vt 0.388516 0.862669
vt 0.388499 0.862687
vt 0.284647 0.812793
vt 0.281843 0.815597
vt 0.281588 0.812793
vt 0.281588 0.815597
vt 0.386135 0.860816
vt 0.386135 0.860801
vt 0.386289 0.860801
vt 0.386289 0.860816
vt 0.389371 0.860801
vt 0.389371 0.860816
vt 0.389216 0.860816
vt 0.389216 0.860801
vt 0.389216 0.860801
vt 0.389216 0.860816
vt 0.386289 0.860816
vt 0.386289 0.860801
vt 0.386135 0.860816
vt 0.386135 0.860801
vt 0.389370 0.860801
vt 0.389370 0.860816
vt 0.386826 0.863891
vt 0.386826 0.862606
vt 0.389965 0.862606
vt 0.389965 0.863891
vt 0.282608 0.812869
vt 0.282608 0.815775
vt 0.281588 0.815775
vt 0.281588 0.812869
vt 0.286432 0.812410
vt 0.281620 0.812589
vt 0.276745 0.812410
vt 0.280537 0.812589
vt 0.278561 0.812589
vt 0.279071 0.813099
vt 0.280027 0.813099
vt 0.281792 0.809702
vt 0.281282 0.809192
vt 0.281770 0.807749
vt 0.281971 0.807949
vt 0.284679 0.812589
vt 0.283596 0.812589
vt 0.282130 0.813099
vt 0.283086 0.813099
vt 0.286145 0.813099
vt 0.285189 0.813099
vt 0.286633 0.812611
vt 0.277478 0.812589
vt 0.279549 0.812847
vt 0.279039 0.812847
vt 0.279116 0.812739
vt 0.279517 0.812739
vt 0.276567 0.812589
vt 0.276968 0.813099
vt 0.276567 0.813099
vt 0.281588 0.812793
vt 0.284647 0.812793
vt 0.284392 0.815597
vt 0.284647 0.815597
vt 0.282608 0.812869
vt 0.282608 0.815775
vt 0.281588 0.815775
vt 0.281588 0.812869
vt 0.281971 0.817636
vt 0.281792 0.816903
vt 0.281792 0.815820
vt 0.284775 0.817636
vt 0.281792 0.813844
vt 0.281792 0.812761
vt 0.281282 0.817815
vt 0.281282 0.817413
vt 0.281792 0.817815
vt 0.281282 0.815310
vt 0.281282 0.814354
vt 0.281282 0.812251
vt 0.281282 0.811295
vt 0.281792 0.810785
vt 0.284775 0.807949
vt 0.281525 0.812847
vt 0.281448 0.812739
vt 0.281958 0.812739
vt 0.282034 0.812847
vt 0.281282 0.808236
vt 0.281525 0.812739
vt 0.282034 0.812739
vt 0.281958 0.812847
vt 0.281448 0.812847
vt 0.279549 0.812739
vt 0.279517 0.812847
vt 0.279116 0.812847
vt 0.279039 0.812739
vt 0.282715 0.812739
vt 0.282747 0.812847
vt 0.282026 0.812847
vt 0.281994 0.812739
vt 0.282130 0.812739
vt 0.282098 0.812847
vt 0.281078 0.812847
vt 0.281047 0.812739
vt 0.283314 0.812739
vt 0.283346 0.812847
vt 0.282625 0.812847
vt 0.282593 0.812739
vt 0.282831 0.812739
vt 0.282863 0.812847
vt 0.281843 0.812847
vt 0.281875 0.812739
vt 0.282233 0.812739
vt 0.282264 0.812847
vt 0.281543 0.812847
vt 0.281512 0.812739
vt 0.284392 0.812739
vt 0.284361 0.812847
vt 0.283404 0.812847
vt 0.283373 0.812739
vt 0.281151 0.812739
vt 0.281183 0.812847
vt 0.280462 0.812847
vt 0.280430 0.812739
vt 0.283659 0.812739
vt 0.283628 0.812847
vt 0.282608 0.812847
vt 0.282576 0.812739
vt 0.281633 0.812847
vt 0.280912 0.812847
vt 0.280944 0.812739
vt 0.281665 0.812739
vt 0.280600 0.812739
vt 0.280569 0.812847
vt 0.279549 0.812847
vt 0.279517 0.812739
vt 0.280552 0.812847
vt 0.279831 0.812847
vt 0.279863 0.812739
vt 0.280584 0.812739
vt 0.282715 0.812847
vt 0.281994 0.812847
vt 0.282026 0.812739
vt 0.282747 0.812739
vt 0.281302 0.812739
vt 0.281333 0.812847
vt 0.280314 0.812847
vt 0.280345 0.812739
vt 0.387146 0.862669
vt 0.388499 0.861316
vt 0.388516 0.861333
vt 0.387163 0.862687
vt 0.281841 0.815852
vt 0.281588 0.815852
vt 0.281841 0.812793
vt 0.282309 0.812869
vt 0.282309 0.815775
vt 0.281588 0.815775
vt 0.281588 0.812869
vt 0.390008 0.862488
vt 0.390092 0.862488
vt 0.390093 0.863911
vt 0.282309 0.812869
vt 0.282309 0.815775
vt 0.281588 0.815775
vt 0.281588 0.812869
vt 0.282309 0.812869
vt 0.282309 0.815775
vt 0.281588 0.815775
vt 0.281588 0.812869
vt 0.282608 0.812869
vt 0.282608 0.815775
vt 0.281588 0.815775
vt 0.281588 0.812869
vt 0.282309 0.812869
vt 0.282309 0.815775
vt 0.281588 0.815775
vt 0.281588 0.812869
vt 0.282608 0.812869
vt 0.282608 0.815775
vt 0.281588 0.815775
vt 0.281588 0.812869
vt 0.282309 0.812869
vt 0.282309 0.815775
vt 0.281588 0.815775
vt 0.281588 0.812869
vt 0.282098 0.812869
vt 0.282098 0.815775
vt 0.281588 0.815775
vt 0.281588 0.812869
vt 0.282309 0.812869
vt 0.282309 0.815775
vt 0.281588 0.815775
vt 0.281588 0.812869
vt 0.291275 0.815597
vt 0.291275 0.815852
vt 0.281588 0.815852
vt 0.281588 0.815597
vt 0.282098 0.812869
vt 0.282098 0.815775
vt 0.281588 0.815775
vt 0.281588 0.812869
vt 0.281588 0.815775
vt 0.281588 0.812869
vt 0.281665 0.815852
vt 0.281665 0.812793
vt 0.282309 0.812869
vt 0.282309 0.815775
vt 0.281588 0.815775
vt 0.281588 0.812869
vt 0.283796 0.812847
vt 0.283075 0.812847
vt 0.283107 0.812739
vt 0.283796 0.812739
vt 0.282098 0.812739
vt 0.282130 0.812847
vt 0.281047 0.812847
vt 0.281078 0.812739
vt 0.284361 0.812739
vt 0.284392 0.812847
vt 0.283373 0.812847
vt 0.283404 0.812739
vt 0.280569 0.812739
vt 0.280600 0.812847
vt 0.279517 0.812847
vt 0.279549 0.812739
vt 0.280552 0.812739
vt 0.280584 0.812847
vt 0.279863 0.812847
vt 0.279831 0.812739
vt 0.281151 0.812847
vt 0.280430 0.812847
vt 0.280462 0.812739
vt 0.281183 0.812739
vt 0.283628 0.812739
vt 0.283659 0.812847
vt 0.282576 0.812847
vt 0.282608 0.812739
vt 0.282233 0.812847
vt 0.281512 0.812847
vt 0.281543 0.812739
vt 0.282264 0.812739
vt 0.282863 0.812739
vt 0.282831 0.812847
vt 0.281875 0.812847
vt 0.281843 0.812739
vt 0.283314 0.812847
vt 0.282593 0.812847
vt 0.282625 0.812739
vt 0.283346 0.812739
vt 0.281333 0.812739
vt 0.281302 0.812847
vt 0.280345 0.812847
vt 0.280314 0.812739
vt 0.281633 0.812739
vt 0.281665 0.812847
vt 0.280944 0.812847
vt 0.280912 0.812739
vt 0.281949 0.812869
vt 0.281949 0.815775
vt 0.281949 0.812793
vt 0.281949 0.815852
vt 0.386819 0.862569
vt 0.386819 0.862404
vt 0.388104 0.862404
vt 0.388104 0.862569
vn -0.7071 -0.7071 0.0000
vn 0.7071 0.7071 -0.0000
vn -0.0000 -1.0000 0.0000
vn -0.7071 -0.5000 0.5000
vn -0.0000 -0.0000 1.0000
vn -0.0000 -0.0003 1.0000
vn -0.0000 0.0007 1.0000
vn 0.7071 -0.7071 -0.0000
vn -0.7071 0.7071 0.0000
vn 1.0000 -0.0000 -0.0000
vn -1.0000 0.0000 0.0000
vn -0.0000 0.0000 -1.0000
vn 0.7071 0.0000 -0.7071
vn -0.7071 0.0000 -0.7071
vn 0.7071 -0.5000 -0.5000
vn 0.7071 -0.5000 0.5000
vn -0.0000 -0.0007 -1.0000
vn -0.0000 0.0008 -1.0000
vn 0.0000 0.0007 -1.0000
vn 0.0000 0.7071 -0.7071
vn 0.0000 -0.7071 0.7071
vn -0.0000 -0.7071 -0.7071
vn 0.0000 1.0000 0.0000
vn 0.0000 0.7072 0.7071
vn 0.0000 0.7071 0.7071
vn -0.7071 -0.5000 -0.5000
usemtl Steel_-_Satin.001
s 1
f 6/1/1 8/2/1 7/3/1 5/4/1
f 10/5/2 12/6/2 11/7/2 9/8/2
f 57/9/3 73/10/3 72/11/3 56/12/3
f 84/13/4 50/14/4 52/15/4 83/16/4
f 59/17/3 75/18/3 74/19/3 58/20/3
f 4/21/5 11/22/6 12/23/7 3/24/7
f 2/25/5 1/26/5 17/27/5
f 17/27/5 1/26/5 18/28/5
f 11/29/8 4/30/8 2/31/8 9/32/8
f 7/33/8 16/34/8 14/35/8 5/36/8
f 1/37/9 10/38/9 13/39/9 6/40/9
f 15/41/9 8/42/9 6/40/9 13/39/9
f 3/43/9 12/44/9 10/38/9 1/37/9
f 10/45/2 9/46/2 14/47/2 13/48/2
f 61/49/3 77/50/3 76/51/3 60/52/3
f 2/53/10 19/54/10 5/55/10
f 5/55/10 19/54/10 20/56/10
f 5/55/10 20/56/10 21/57/10
f 21/57/10 20/56/10 22/58/10
f 22/58/10 20/56/10 23/59/10
f 49/60/11 51/61/11 50/62/11 17/63/11
f 2/53/10 25/64/10 26/65/10
f 2/53/10 26/65/10 19/54/10
f 19/54/10 26/65/10 27/66/10
f 27/66/10 26/65/10 28/67/10
f 29/68/10 30/69/10 24/70/10
f 21/57/10 31/71/10 5/55/10
f 55/72/8 53/73/8 34/74/8 33/75/8
f 32/76/10 33/77/10 34/78/10
f 5/79/12 35/80/12 6/81/12
f 6/81/12 35/80/12 36/82/12
f 63/83/3 79/84/3 78/85/3 62/86/3
f 31/71/10 33/77/10 32/76/10 5/55/10
f 35/87/11 38/88/11 39/89/11
f 35/87/11 39/89/11 36/90/11
f 36/90/11 39/89/11 40/91/11
f 36/90/11 40/91/11 41/92/11
f 42/93/11 43/94/11 37/95/11
f 39/89/11 44/96/11 40/91/11
f 40/91/11 44/96/11 45/97/11
f 46/98/11 47/99/11 41/92/11
f 41/92/11 47/99/11 48/100/11
f 41/92/11 48/100/11 18/101/11
f 18/101/11 48/100/11 49/60/11
f 18/101/11 49/60/11 17/63/11
f 54/102/13 32/103/13 34/104/13 53/105/13
f 50/62/11 51/61/11 52/106/11
f 18/101/11 36/90/11 41/92/11
f 69/107/14 70/108/14 42/109/14 37/110/14
f 71/111/1 43/112/1 42/113/1 70/114/1
f 80/115/4 48/116/4 47/117/4 79/118/4
f 19/119/8 61/120/8 60/121/8 20/122/8
f 30/123/15 66/124/15 65/125/15 25/126/15
f 28/127/8 63/128/8 62/129/8 27/130/8
f 27/131/15 62/132/15 61/133/15 19/134/15
f 83/135/1 52/136/1 51/137/1 82/138/1
f 22/139/15 58/140/15 57/141/15 21/142/15
f 25/143/8 65/144/8 64/145/8 26/146/8
f 60/147/16 59/148/16 23/149/16 20/150/16
f 21/151/8 57/152/8 56/153/8 31/154/8
f 56/155/16 55/156/16 33/157/16 31/158/16
f 64/159/16 63/160/16 28/161/16 26/162/16
f 23/163/8 59/164/8 58/165/8 22/166/8
f 15/167/17 16/168/18 7/169/19 8/170/17
f 37/171/20 35/172/20 5/79/20 32/173/20
f 64/174/21 80/175/21 79/176/21 63/177/21
f 14/178/2 16/179/2 15/180/2 13/48/2
f 66/181/22 82/182/22 81/183/22 65/184/22
f 5/36/8 14/35/8 9/32/8 2/31/8
f 62/185/22 78/186/22 77/187/22 61/188/22
f 68/189/3 83/190/3 82/191/3 66/192/3
f 58/193/22 74/194/22 73/195/22 57/196/22
f 65/197/3 81/198/3 80/199/3 64/200/3
f 67/201/21 84/202/21 83/203/21 68/204/21
f 55/205/3 71/206/3 70/207/3 53/208/3
f 56/209/21 72/210/21 71/211/21 55/212/21
f 6/213/23 36/214/23 18/215/23 1/216/23
f 53/217/12 70/218/12 69/219/12 54/220/12
f 84/221/24 67/222/24 50/223/25
f 50/223/25 67/222/24 24/224/25
f 60/225/21 76/226/21 75/227/21 59/228/21
f 67/229/16 68/230/16 29/231/16 24/232/16
f 77/233/1 41/234/1 40/235/1 76/236/1
f 29/237/8 68/238/8 66/239/8 30/240/8
f 73/241/1 39/242/1 38/243/1 72/244/1
f 72/245/4 38/246/4 43/247/4 71/248/4
f 37/95/11 43/94/11 38/88/11 35/87/11
f 44/249/26 39/250/26 73/251/26 74/252/26
f 81/253/1 49/254/1 48/255/1 80/256/1
f 46/257/26 41/258/26 77/259/26 78/260/26
f 79/261/1 47/262/1 46/263/1 78/264/1
f 51/265/26 49/266/26 81/267/26 82/268/26
f 75/269/1 45/270/1 44/271/1 74/272/1
f 76/273/4 40/274/4 45/275/4 75/276/4
f 24/70/10 30/69/10 25/64/10 2/53/10
f 54/277/20 69/278/20 37/171/20 32/173/20
f 2/279/25 17/280/25 50/223/25 24/224/25
f 2/281/1 4/282/1 3/283/1 1/284/1
