# Blender v2.90.1 OBJ File: 'w1 EXPORT FILE.blend'
# www.blender.org
mtllib Billboard RF.mtl
g Billboard_RF_RF_Billboard_slant_v8
v -3.088504 0.044316 10.115911
v 2.411498 5.544312 10.115911
v -3.088504 0.044316 11.115911
v 2.411498 5.544312 11.115911
v 2.411498 5.544312 -8.884089
v -3.088504 0.044316 -8.884089
v 2.411498 5.544312 -9.884089
v -3.088504 0.044316 -9.884089
v 2.340789 5.615023 10.115911
v -3.159213 0.115025 10.115911
v 2.340789 5.615023 11.115911
v -3.159213 0.115025 11.115911
v -3.159213 0.115025 -8.884089
v 2.340789 5.615023 -8.884089
v -3.159213 0.115025 -9.884089
v 2.340789 5.615023 -9.884089
v 2.911496 0.044314 10.115911
v 2.911498 5.544312 10.115911
v -3.088504 -0.305691 0.678044
v -3.088504 -0.305691 4.553776
v -3.088504 -0.305691 6.678044
v -3.088504 -0.305691 -9.234096
v -3.088504 -0.305691 -7.446224
v -3.088504 -0.305691 -5.321956
v -3.088504 -0.305691 -1.446224
v -3.088504 -1.305691 -2.446224
v -3.088504 -1.305691 -4.321956
v -3.088504 -1.305691 -9.234096
v -3.088504 -1.305691 -8.446223
v -3.088504 -1.305691 1.678044
v -3.088504 -1.305691 3.553776
v -3.088504 -0.349622 10.509831
v -3.088504 -1.305691 7.678044
v -3.088504 -1.305691 9.553777
v 2.911496 0.044314 -8.884089
v 2.911498 5.544312 -8.884089
v 2.911496 -0.305693 -7.446224
v 2.911496 -0.305693 -9.234096
v 2.911496 -1.305694 -8.446223
v 2.911496 -1.305694 -9.234096
v 2.911496 -0.305693 -5.321956
v 2.911496 -0.305693 -1.446224
v 2.911496 -0.305693 0.678044
v 2.911496 -0.305693 4.553776
v 2.911496 -0.305693 6.678044
v 2.911496 -0.349623 10.509831
v 2.911496 -1.305694 9.553777
v 2.911496 -1.305694 7.678044
v 2.911496 -1.305694 3.553776
v 2.911496 -1.305694 1.678044
v 2.911496 -1.305694 -2.446224
v 2.911496 -1.305694 -4.321956
v -2.938510 -1.455685 -9.384089
v -2.938510 -0.455685 -9.384089
v -2.938510 -1.455685 -8.384089
v -2.938510 -0.455685 -7.384090
v -2.938510 -0.455685 -5.384090
v -2.938510 -1.455685 -4.384090
v -2.938510 -1.455685 -2.384090
v -2.938510 -0.455685 -1.384090
v -2.938510 -0.455685 0.615910
v -2.938510 -1.455685 1.615910
v -2.938510 -1.455685 3.615910
v -2.938510 -0.455685 4.615910
v -2.938510 -0.455685 6.615910
v -2.938510 -1.455685 7.615910
v -2.938510 -0.455685 10.615911
v -2.938510 -1.455685 9.615911
v 2.761502 -1.455686 -9.384089
v 2.761502 -0.455686 -9.384089
v 2.761502 -1.455686 -8.384089
v 2.761502 -0.455686 -7.384090
v 2.761502 -0.455686 -5.384090
v 2.761502 -1.455686 -4.384090
v 2.761502 -1.455686 -2.384090
v 2.761502 -0.455686 -1.384090
v 2.761502 -0.455686 0.615910
v 2.761502 -1.455686 1.615910
v 2.761502 -1.455686 3.615910
v 2.761502 -0.455686 4.615910
v 2.761502 -0.455686 6.615910
v 2.761502 -1.455686 7.615910
v 2.761502 -1.455686 9.615911
v 2.761502 -0.455686 10.615911
vt 0.393754 0.868419
vt 0.393754 0.868707
vt 0.391517 0.868707
vt 0.391517 0.868419
vt 0.391517 0.862954
vt 0.391517 0.862667
vt 0.393754 0.862667
vt 0.393754 0.862954
vt 0.247158 0.755721
vt 0.247158 0.757360
vt 0.246583 0.757360
vt 0.246583 0.755721
vt 0.392953 0.867638
vt 0.392973 0.867618
vt 0.394555 0.869200
vt 0.394535 0.869220
vt 0.247158 0.755721
vt 0.247158 0.757360
vt 0.246583 0.757360
vt 0.246583 0.755721
vt 0.246302 0.755647
vt 0.246319 0.755708
vt 0.245913 0.755708
vt 0.245913 0.755647
vt 0.245433 0.755678
vt 0.247158 0.755678
vt 0.247015 0.757260
vt 0.247158 0.757260
vt 0.388001 0.868448
vt 0.388001 0.868419
vt 0.388289 0.868419
vt 0.388289 0.868448
vt 0.394041 0.868419
vt 0.394041 0.868448
vt 0.393754 0.868448
vt 0.393754 0.868419
vt 0.393754 0.868419
vt 0.393754 0.868448
vt 0.388289 0.868448
vt 0.388289 0.868419
vt 0.388001 0.868448
vt 0.388001 0.868419
vt 0.394041 0.868419
vt 0.394041 0.868448
vt 0.395120 0.867301
vt 0.395120 0.869538
vt 0.389655 0.869538
vt 0.389655 0.867301
vt 0.247158 0.755721
vt 0.247158 0.757360
vt 0.246871 0.757360
vt 0.246871 0.755721
vt 0.249891 0.755462
vt 0.247140 0.755563
vt 0.244426 0.755462
vt 0.246026 0.755563
vt 0.245415 0.755563
vt 0.248553 0.755647
vt 0.248596 0.755708
vt 0.248309 0.755708
vt 0.248327 0.755647
vt 0.249477 0.755563
vt 0.248866 0.755563
vt 0.247752 0.755563
vt 0.248039 0.755850
vt 0.248579 0.755850
vt 0.249992 0.755850
vt 0.249765 0.755850
vt 0.249992 0.755563
vt 0.246853 0.755850
vt 0.246313 0.755850
vt 0.246950 0.755647
vt 0.247237 0.755647
vt 0.247194 0.755708
vt 0.246907 0.755708
vt 0.244313 0.755575
vt 0.245127 0.755850
vt 0.244588 0.755850
vt 0.247158 0.755678
vt 0.245576 0.757260
vt 0.245433 0.755678
vt 0.245433 0.757260
vt 0.247158 0.755721
vt 0.247158 0.757360
vt 0.246583 0.757360
vt 0.246583 0.755721
vt 0.247043 0.758511
vt 0.247331 0.758284
vt 0.247331 0.758511
vt 0.247043 0.757996
vt 0.246943 0.758410
vt 0.247043 0.757385
vt 0.245361 0.758410
vt 0.247043 0.756271
vt 0.247043 0.755660
vt 0.245361 0.752945
vt 0.247043 0.754545
vt 0.247043 0.753934
vt 0.246943 0.752945
vt 0.247331 0.753107
vt 0.247331 0.753646
vt 0.247056 0.752832
vt 0.247331 0.754833
vt 0.247331 0.755372
vt 0.247331 0.756558
vt 0.247331 0.757098
vt 0.246950 0.755708
vt 0.246907 0.755647
vt 0.247194 0.755647
vt 0.247237 0.755708
vt 0.248553 0.755708
vt 0.248327 0.755708
vt 0.248309 0.755647
vt 0.248596 0.755647
vt 0.246134 0.755647
vt 0.246152 0.755708
vt 0.245576 0.755708
vt 0.245594 0.755647
vt 0.246601 0.755647
vt 0.246583 0.755708
vt 0.246008 0.755708
vt 0.245990 0.755647
vt 0.247794 0.755647
vt 0.247812 0.755708
vt 0.247405 0.755708
vt 0.247387 0.755647
vt 0.246997 0.755647
vt 0.247015 0.755708
vt 0.246439 0.755708
vt 0.246457 0.755647
vt 0.246912 0.755708
vt 0.246505 0.755708
vt 0.246523 0.755647
vt 0.246930 0.755647
vt 0.247446 0.755647
vt 0.247464 0.755708
vt 0.246853 0.755708
vt 0.246871 0.755647
vt 0.247184 0.755647
vt 0.247202 0.755708
vt 0.246795 0.755708
vt 0.246777 0.755647
vt 0.247877 0.755647
vt 0.247860 0.755708
vt 0.247320 0.755708
vt 0.247302 0.755647
vt 0.247522 0.755708
vt 0.247115 0.755708
vt 0.247133 0.755647
vt 0.247540 0.755647
vt 0.247015 0.755647
vt 0.246997 0.755708
vt 0.246457 0.755708
vt 0.246439 0.755647
vt 0.247794 0.755708
vt 0.247387 0.755708
vt 0.247405 0.755647
vt 0.247812 0.755647
vt 0.246302 0.755708
vt 0.245913 0.755708
vt 0.245913 0.755647
vt 0.246319 0.755647
vt 0.246152 0.755647
vt 0.246134 0.755708
vt 0.245594 0.755708
vt 0.245576 0.755647
vt 0.247158 0.757403
vt 0.247016 0.757403
vt 0.247016 0.755678
vt 0.247158 0.755721
vt 0.247158 0.757360
vt 0.246583 0.757360
vt 0.246583 0.755721
vt 0.247158 0.755721
vt 0.247158 0.757360
vt 0.246752 0.757360
vt 0.246752 0.755721
vt 0.393754 0.868707
vt 0.391517 0.868707
vt 0.391517 0.868419
vt 0.247158 0.755721
vt 0.247158 0.757360
vt 0.246752 0.757360
vt 0.246752 0.755721
vt 0.247158 0.755721
vt 0.247158 0.757360
vt 0.246583 0.757360
vt 0.246583 0.755721
vt 0.247158 0.755721
vt 0.247158 0.757360
vt 0.246752 0.757360
vt 0.246752 0.755721
vt 0.247158 0.755721
vt 0.247158 0.757360
vt 0.246752 0.757360
vt 0.246752 0.755721
vt 0.247158 0.757360
vt 0.246871 0.757360
vt 0.247158 0.755721
vt 0.247158 0.757360
vt 0.246583 0.757360
vt 0.246583 0.755721
vt 0.247158 0.755721
vt 0.247158 0.757360
vt 0.246752 0.757360
vt 0.246752 0.755721
vt 0.247158 0.757260
vt 0.247158 0.757403
vt 0.241693 0.757403
vt 0.241693 0.757260
vt 0.247158 0.755721
vt 0.247158 0.757360
vt 0.246752 0.757360
vt 0.246752 0.755721
vt 0.247158 0.755721
vt 0.247158 0.757360
vt 0.246752 0.757360
vt 0.246752 0.755721
vt 0.392953 0.869200
vt 0.394535 0.867618
vt 0.394555 0.867638
vt 0.392973 0.869220
vt 0.247115 0.757403
vt 0.247115 0.755678
vt 0.247158 0.755721
vt 0.247158 0.757360
vt 0.246912 0.755647
vt 0.246930 0.755708
vt 0.246523 0.755708
vt 0.246505 0.755647
vt 0.247860 0.755647
vt 0.247877 0.755708
vt 0.247302 0.755708
vt 0.247320 0.755647
vt 0.248132 0.755708
vt 0.247725 0.755708
vt 0.247743 0.755647
vt 0.248150 0.755647
vt 0.248309 0.755647
vt 0.248327 0.755708
vt 0.247716 0.755708
vt 0.247734 0.755647
vt 0.246795 0.755647
vt 0.247202 0.755647
vt 0.247464 0.755647
vt 0.247446 0.755708
vt 0.246871 0.755708
vt 0.246853 0.755647
vt 0.246185 0.755647
vt 0.246592 0.755647
vt 0.246583 0.755647
vt 0.246601 0.755708
vt 0.245990 0.755708
vt 0.246008 0.755647
vt 0.247522 0.755647
vt 0.247540 0.755708
vt 0.247133 0.755708
vt 0.247115 0.755647
vt 0.248327 0.755647
vt 0.248309 0.755708
vt 0.247734 0.755708
vt 0.247716 0.755647
vt 0.246574 0.755647
vt 0.246592 0.755708
vt 0.246185 0.755708
vt 0.248132 0.755647
vt 0.248150 0.755708
vt 0.247743 0.755708
vt 0.247725 0.755647
vt 0.246955 0.755721
vt 0.246955 0.757360
vt 0.246955 0.757403
vt 0.246955 0.755678
vt 0.391517 0.862954
vt 0.391517 0.862667
vt 0.393754 0.862667
vt 0.393754 0.862954
vn 0.7071 -0.7071 0.0000
vn -0.7071 0.7071 -0.0000
vn -0.0000 -1.0000 0.0000
vn -0.0000 0.0000 -1.0000
vn -0.7071 -0.5000 0.5000
vn 0.0000 0.0000 1.0000
vn -0.7071 -0.7071 -0.0000
vn 0.7071 0.7071 0.0000
vn -1.0000 -0.0000 0.0000
vn -0.7071 0.0000 -0.7071
vn 1.0000 0.0000 0.0000
vn 0.7071 -0.0000 -0.7071
vn 0.7071 -0.5000 -0.5000
vn 0.7071 -0.5000 0.5000
vn -0.7071 -0.5000 -0.5000
vn 0.0000 0.7071 -0.7071
vn -0.0000 -0.7071 -0.7071
vn -0.0000 -0.7071 0.7071
vn 0.0000 1.0000 0.0000
vn 0.0000 0.7071 0.7071
vn 0.0000 0.7067 0.7075
vn 0.0000 0.7072 0.7071
usemtl Steel_-_Satin
s 1
f 6/1/1 8/2/1 7/3/1 5/4/1
f 10/5/2 12/6/2 11/7/2 9/8/2
f 56/9/3 72/10/3 73/11/3 57/12/3
f 8/13/4 15/14/4 16/15/4 7/16/4
f 66/17/3 82/18/3 83/19/3 68/20/3
f 34/21/5 68/22/5 67/23/5 32/24/5
f 1/25/6 17/26/6 2/27/6
f 2/27/6 17/26/6 18/28/6
f 15/29/7 8/30/7 6/31/7 13/32/7
f 3/33/7 12/34/7 10/35/7 1/36/7
f 5/37/8 14/38/8 9/39/8 2/40/8
f 11/41/8 4/42/8 2/40/8 9/39/8
f 7/43/8 16/44/8 14/38/8 5/37/8
f 10/45/2 9/46/2 14/47/2 13/48/2
f 53/49/3 69/50/3 71/51/3 55/52/3
f 6/53/9 19/54/9 1/55/9
f 1/55/9 19/54/9 20/56/9
f 1/55/9 20/56/9 21/57/9
f 28/58/7 53/59/7 55/60/7 29/61/7
f 6/53/9 23/62/9 24/63/9
f 6/53/9 24/63/9 25/64/9
f 25/64/9 24/63/9 26/65/9
f 26/65/9 24/63/9 27/66/9
f 28/67/9 29/68/9 22/69/9
f 25/64/9 19/54/9 6/53/9
f 30/70/9 31/71/9 19/54/9
f 19/54/9 31/71/9 20/56/9
f 28/72/10 22/73/10 54/74/10 53/75/10
f 32/76/9 33/77/9 34/78/9
f 6/79/4 5/80/4 35/81/4
f 35/81/4 5/80/4 36/82/4
f 58/83/3 74/84/3 75/85/3 59/86/3
f 22/69/9 29/68/9 23/62/9 6/53/9
f 38/87/11 39/88/11 40/89/11
f 37/90/11 35/91/11 41/92/11
f 41/92/11 35/91/11 36/93/11
f 41/92/11 36/93/11 42/94/11
f 42/94/11 36/93/11 43/95/11
f 43/95/11 36/93/11 18/96/11
f 43/95/11 18/96/11 44/97/11
f 44/97/11 18/96/11 45/98/11
f 45/98/11 18/96/11 17/99/11
f 21/57/9 33/77/9 32/76/9 1/55/9
f 47/100/11 48/101/11 46/102/11
f 44/97/11 49/103/11 43/95/11
f 43/95/11 49/103/11 50/104/11
f 51/105/11 52/106/11 42/94/11
f 42/94/11 52/106/11 41/92/11
f 40/107/12 69/108/12 70/109/12 38/110/12
f 40/111/1 39/112/1 71/113/1 69/114/1
f 33/115/7 66/116/7 68/117/7 34/118/7
f 20/119/7 64/120/7 65/121/7 21/122/7
f 73/123/13 41/124/13 52/125/13 74/126/13
f 30/127/7 62/128/7 63/129/7 31/130/7
f 49/131/14 44/132/14 80/133/14 79/134/14
f 76/135/1 42/136/1 43/137/1 77/138/1
f 77/139/13 43/140/13 50/141/13 78/142/13
f 74/143/1 52/144/1 51/145/1 75/146/1
f 51/147/14 42/148/14 76/149/14 75/150/14
f 78/151/1 50/152/1 49/153/1 79/154/1
f 57/155/15 58/156/15 27/157/15 24/158/15
f 47/159/14 46/160/14 84/161/14 83/162/14
f 82/163/1 48/164/1 47/165/1 83/166/1
f 6/79/16 35/167/16 38/168/16 22/169/16
f 64/170/3 80/171/3 81/172/3 65/173/3
f 65/174/17 81/175/17 82/176/17 66/177/17
f 14/38/2 16/178/2 15/179/2 13/180/2
f 68/181/18 83/182/18 84/183/18 67/184/18
f 62/185/3 78/186/3 79/187/3 63/188/3
f 63/189/18 79/190/18 80/191/18 64/192/18
f 59/193/18 75/194/18 76/195/18 60/196/18
f 54/74/4 70/197/4 69/198/4 53/75/4
f 60/199/3 76/200/3 77/201/3 61/202/3
f 57/203/17 73/204/17 74/205/17 58/206/17
f 2/207/19 18/208/19 36/209/19 5/210/19
f 61/211/17 77/212/17 78/213/17 62/214/17
f 1/36/7 10/35/7 13/32/7 6/31/7
f 55/215/18 71/216/18 72/217/18 56/218/18
f 11/219/6 12/220/6 3/221/6 4/222/6
f 46/223/20 32/224/20 67/225/21
f 46/223/20 67/225/21 84/226/22
f 31/227/5 63/228/5 64/229/5 20/230/5
f 27/231/7 58/232/7 59/233/7 26/234/7
f 39/235/14 37/236/14 72/237/14 71/238/14
f 72/239/1 37/240/1 41/241/1 73/242/1
f 61/211/15 62/214/15 30/243/15 19/244/15
f 25/245/7 60/246/7 61/247/7 19/248/7
f 65/173/15 66/116/15 33/249/15 21/250/15
f 80/251/1 44/252/1 45/253/1 81/254/1
f 26/255/5 59/256/5 60/257/5 25/258/5
f 23/259/7 56/260/7 57/261/7 24/262/7
f 81/263/13 45/264/13 48/265/13 82/163/13
f 37/90/11 39/88/11 38/87/11 35/91/11
f 29/266/5 55/267/5 56/268/5 23/269/5
f 46/102/11 48/101/11 45/98/11 17/99/11
f 54/270/16 22/169/16 38/168/16 70/271/16
f 46/223/20 17/272/20 1/273/20 32/224/20
f 2/274/1 4/275/1 3/276/1 1/277/1
