# Blender v2.90.1 OBJ File: 'w1 EXPORT FILE.blend'
# www.blender.org
mtllib Do not enter sign.mtl
g Do_Not_Enter_Sign_Do_Not_Enter_Sign_v0
v 0.000000 -0.390152 -0.252000
v 0.390152 -0.000000 -0.252000
v 0.992863 -1.383015 -0.252000
v 1.383015 -0.992863 -0.252000
v 0.000000 0.390152 -0.252000
v -0.390152 -0.000000 -0.252000
v -0.992863 1.383015 -0.252000
v -1.383015 0.992863 -0.252000
v -0.390152 -0.000000 0.252000
v -1.383015 0.992863 0.336000
v 0.000000 -0.390152 0.252000
v 0.992863 -1.383015 0.336000
v 1.383015 -0.992863 0.336000
v -0.992863 1.383015 0.336000
v 0.000000 0.390152 0.252000
v 0.390152 -0.000000 0.252000
v 1.383015 0.992863 0.252000
v 1.383015 0.992863 -0.336000
v -0.992863 -1.383015 -0.336000
v -0.992863 -1.383015 0.252000
v -1.383015 -0.992863 0.252000
v 0.992863 1.383015 0.252000
v 0.992863 1.383015 -0.336000
v -1.383015 -0.992863 -0.336000
v -1.680000 0.695879 0.420000
v -0.695879 1.680000 0.420000
v -0.869848 2.100000 0.420000
v 0.695879 1.680000 0.420000
v 0.869848 2.100000 0.420000
v 1.680000 0.695879 0.420000
v 2.100000 0.869848 0.420000
v 1.680000 -0.695879 0.420000
v 2.100000 -0.869848 0.420000
v 0.869848 -2.100000 0.420000
v 0.695879 -1.680000 0.420000
v -0.869848 -2.100000 0.420000
v -0.695879 -1.680000 0.420000
v -1.680000 -0.695879 0.420000
v -2.100000 -0.869848 0.420000
v -2.100000 0.869848 0.420000
v 0.695879 1.680000 -0.420000
v 1.680000 0.695879 -0.420000
v 1.680000 -0.695879 -0.420000
v 0.695879 -1.680000 -0.420000
v -0.695879 -1.680000 -0.420000
v -1.680000 -0.695879 -0.420000
v -1.680000 0.695879 -0.420000
v -0.695879 1.680000 -0.420000
v -0.869848 2.100000 -0.420000
v -2.100000 0.869848 -0.420000
v -2.100000 -0.869848 -0.420000
v -0.869848 -2.100000 -0.420000
v 0.869848 -2.100000 -0.420000
v 2.100000 -0.869848 -0.420000
v 2.100000 0.869848 -0.420000
v 0.869848 2.100000 -0.420000
vt 0.381468 0.287702
vt 0.385304 0.283866
vt 0.386812 0.285373
vt 0.382976 0.289209
vt 0.381468 0.290832
vt 0.381468 0.287586
vt 0.386846 0.287586
vt 0.386846 0.290832
vt 0.386893 0.288236
vt 0.386893 0.290183
vt 0.381468 0.290183
vt 0.381468 0.287911
vt 0.394450 0.287911
vt 0.389025 0.288236
vt 0.381468 0.290183
vt 0.381468 0.287911
vt 0.386893 0.288236
vt 0.386893 0.290183
vt 0.381468 0.290832
vt 0.381468 0.287586
vt 0.386846 0.287586
vt 0.386846 0.290832
vt 0.381468 0.288236
vt 0.386893 0.288236
vt 0.386893 0.290183
vt 0.381468 0.290507
vt 0.394450 0.287911
vt 0.389025 0.288236
vt 0.394450 0.290183
vt 0.389025 0.290183
vt 0.394450 0.290183
vt 0.389025 0.290183
vt 0.381468 0.290507
vt 0.386893 0.290183
vt 0.389025 0.290183
vt 0.394450 0.290507
vt 0.381468 0.288236
vt 0.386893 0.288236
vt 0.381468 0.290716
vt 0.377632 0.294553
vt 0.376125 0.293045
vt 0.379961 0.289209
vt 0.381468 0.290832
vt 0.381468 0.287586
vt 0.388190 0.287586
vt 0.388190 0.290832
vt 0.389025 0.288236
vt 0.394450 0.288236
vt 0.389025 0.290183
vt 0.394450 0.290507
vt 0.381468 0.290832
vt 0.381468 0.287586
vt 0.383091 0.288236
vt 0.383091 0.290507
vt 0.381468 0.290832
vt 0.381468 0.287586
vt 0.388190 0.287586
vt 0.388190 0.290832
vt 0.389582 0.285848
vt 0.389582 0.292570
vt 0.387959 0.291898
vt 0.387959 0.286521
vt 0.378108 0.281096
vt 0.378780 0.282718
vt 0.374978 0.286521
vt 0.373355 0.285848
vt 0.374978 0.291898
vt 0.373355 0.292570
vt 0.378780 0.295700
vt 0.378108 0.297323
vt 0.384157 0.295700
vt 0.384829 0.297323
vt 0.387959 0.291898
vt 0.389582 0.292570
vt 0.387959 0.286521
vt 0.389582 0.285848
vt 0.384157 0.282718
vt 0.384829 0.281096
vt 0.386846 0.287586
vt 0.385223 0.288236
vt 0.386846 0.290832
vt 0.385223 0.290183
vt 0.385223 0.287911
vt 0.386846 0.287586
vt 0.385223 0.290507
vt 0.386846 0.290832
vt 0.386846 0.290832
vt 0.385223 0.290507
vt 0.385223 0.288236
vt 0.386846 0.287586
vt 0.381468 0.290832
vt 0.381468 0.287586
vt 0.388190 0.287586
vt 0.388190 0.290832
vt 0.383091 0.290183
vt 0.381468 0.290832
vt 0.381468 0.287586
vt 0.383091 0.287911
vt 0.386846 0.287586
vt 0.385223 0.287911
vt 0.385223 0.290183
vt 0.386846 0.290832
vt 0.376125 0.285373
vt 0.377632 0.283866
vt 0.386812 0.293045
vt 0.385304 0.294553
vt 0.383091 0.288236
vt 0.381468 0.290832
vt 0.381468 0.287586
vt 0.383091 0.290507
vt 0.381468 0.290832
vt 0.381468 0.287586
vt 0.386846 0.287586
vt 0.386846 0.290832
vt 0.383091 0.290183
vt 0.381468 0.290832
vt 0.381468 0.287586
vt 0.383091 0.287911
vt 0.394450 0.288236
vt 0.389025 0.288236
vt 0.381468 0.290832
vt 0.381468 0.287586
vt 0.388190 0.287586
vt 0.388190 0.290832
vt 0.381468 0.290832
vt 0.381468 0.287586
vt 0.388190 0.287586
vt 0.388190 0.290832
vt 0.385304 0.283866
vt 0.386812 0.285373
vt 0.382976 0.289209
vt 0.381468 0.287702
vt 0.381468 0.290832
vt 0.381468 0.287586
vt 0.388190 0.287586
vt 0.388190 0.290832
vt 0.386812 0.293045
vt 0.385304 0.294553
vt 0.376125 0.285373
vt 0.377632 0.283866
vt 0.381468 0.290832
vt 0.381468 0.287586
vt 0.386846 0.287586
vt 0.386846 0.290832
vt 0.381468 0.290832
vt 0.381468 0.287586
vt 0.388190 0.287586
vt 0.388190 0.290832
vt 0.381468 0.290832
vt 0.381468 0.287586
vt 0.388190 0.287586
vt 0.388190 0.290832
vt 0.384829 0.297323
vt 0.384157 0.295700
vt 0.378108 0.297323
vt 0.378780 0.295700
vt 0.384157 0.282718
vt 0.384829 0.281096
vt 0.378780 0.282718
vt 0.378108 0.281096
vt 0.374978 0.286521
vt 0.373355 0.285848
vt 0.374978 0.291898
vt 0.373355 0.292570
vt 0.381468 0.290716
vt 0.377632 0.294553
vt 0.376125 0.293045
vt 0.379961 0.289209
vn 0.0000 0.0000 -1.0000
vn 1.0000 0.0000 0.0000
vn -0.7071 -0.7071 -0.0000
vn 0.7071 0.7071 0.0000
vn -1.0000 0.0000 0.0000
vn -0.7071 0.7071 0.0000
vn 0.7071 -0.7071 0.0000
vn 0.0000 0.0000 1.0000
vn 0.0000 -1.0000 0.0000
vn 0.0000 1.0000 0.0000
usemtl Steel_-_Satin.034
s 1
f 6/1/1 8/2/1 7/3/1 5/4/1
f 47/5/2 25/6/2 38/7/2 46/8/2
f 11/9/3 1/10/3 3/11/3 12/12/3
f 10/13/3 9/14/3 11/9/3
f 10/13/3 11/9/3 12/12/3
f 7/15/4 14/16/4 15/17/4 5/18/4
f 43/19/5 32/20/5 30/21/5 42/22/5
f 21/23/6 9/24/6 6/25/6 24/26/6
f 15/17/4 14/16/4 13/27/4
f 15/17/4 13/27/4 16/28/4
f 9/14/3 10/13/3 8/29/3 6/30/3
f 4/31/4 2/32/4 16/28/4 13/27/4
f 18/33/7 2/34/7 1/35/7
f 18/33/7 1/35/7 19/36/7
f 2/34/7 18/33/7 17/37/7 16/38/7
f 16/39/8 17/40/8 22/41/8 15/42/8
f 53/43/9 34/44/9 36/45/9 52/46/9
f 1/35/7 11/47/7 20/48/7 19/36/7
f 5/49/6 23/50/6 24/26/6
f 5/49/6 24/26/6 6/25/6
f 42/51/3 30/52/3 17/53/3 18/54/3
f 49/55/10 27/56/10 29/57/10 56/58/10
f 49/59/1 56/60/1 41/61/1 48/62/1
f 40/63/8 25/64/8 26/65/8 27/66/8
f 28/67/8 29/68/8 27/66/8 26/65/8
f 30/69/8 31/70/8 29/68/8 28/67/8
f 32/71/8 33/72/8 31/70/8 30/69/8
f 32/71/8 35/73/8 34/74/8 33/72/8
f 35/73/8 37/75/8 36/76/8 34/74/8
f 38/77/8 39/78/8 36/76/8 37/75/8
f 17/53/3 28/79/3 22/80/3
f 47/81/7 8/82/7 10/83/7 25/84/7
f 23/85/3 41/86/3 42/51/3
f 23/85/3 42/51/3 18/54/3
f 45/87/4 19/88/4 20/89/4 37/90/4
f 17/53/3 30/52/3 28/79/3
f 50/91/6 40/92/6 27/93/6 49/94/6
f 3/95/6 44/96/6 35/97/6 12/98/6
f 32/99/6 13/100/6 12/98/6
f 32/99/6 12/98/6 35/97/6
f 25/64/8 40/63/8 39/78/8 38/77/8
f 44/96/6 3/95/6 4/101/6
f 44/96/6 4/101/6 43/102/6
f 14/103/8 10/104/8 12/105/8 13/106/8
f 21/107/4 37/90/4 20/89/4
f 46/108/4 38/109/4 21/107/4 24/110/4
f 19/88/4 45/87/4 46/108/4
f 19/88/4 46/108/4 24/110/4
f 41/86/3 23/85/3 22/80/3 28/79/3
f 21/107/4 38/109/4 37/90/4
f 45/111/10 37/112/10 35/113/10 44/114/10
f 7/115/7 48/116/7 26/117/7 14/118/7
f 25/84/7 10/83/7 14/118/7
f 25/84/7 14/118/7 26/117/7
f 43/102/6 4/101/6 13/100/6 32/99/6
f 48/116/7 7/115/7 8/82/7
f 48/116/7 8/82/7 47/81/7
f 22/119/6 23/50/6 5/49/6 15/120/6
f 51/121/5 39/122/5 40/123/5 50/124/5
f 52/125/3 36/126/3 39/127/3 51/128/3
f 21/129/8 20/130/8 11/131/8 9/132/8
f 54/133/7 33/134/7 34/135/7 53/136/7
f 23/137/1 18/138/1 19/139/1 24/140/1
f 41/141/9 28/142/9 26/143/9 48/144/9
f 55/145/2 31/146/2 33/147/2 54/148/2
f 56/149/4 29/150/4 31/151/4 55/152/4
f 56/60/1 55/153/1 42/154/1 41/61/1
f 54/155/1 43/156/1 42/154/1 55/153/1
f 47/157/1 50/158/1 49/59/1 48/62/1
f 46/159/1 51/160/1 50/158/1 47/157/1
f 46/159/1 45/161/1 52/162/1 51/160/1
f 44/163/1 53/164/1 52/162/1 45/161/1
f 43/156/1 54/155/1 53/164/1 44/163/1
f 2/165/1 4/166/1 3/167/1 1/168/1
