# Blender v2.93.0 OBJ File: 'w1 EXPORT FILE extra.blend'
# www.blender.org
mtllib Police Light Strip.mtl
g Police_Light_Strip_Base_Police_light_strip_v1.002
v -3.007967 -0.206013 0.300797
v -3.007967 -0.206013 -0.300797
v 3.007967 -0.206013 -0.300797
v 3.007967 -0.206013 0.300797
v 3.007967 -0.326331 0.300797
v -3.007967 -0.326331 0.300797
v -3.007967 -0.326331 -0.300797
v 3.007967 -0.326331 -0.300797
vt 0.842461 0.190502
vt 0.842461 0.190391
vt 0.843015 0.190391
vt 0.843015 0.190502
vt 0.845233 0.190114
vt 0.845233 0.190668
vt 0.839689 0.190668
vt 0.839689 0.190114
vt 0.842461 0.190502
vt 0.842461 0.190391
vt 0.843015 0.190391
vt 0.843015 0.190502
vt 0.842461 0.190502
vt 0.842461 0.190391
vt 0.848005 0.190391
vt 0.848005 0.190502
vt 0.842461 0.190502
vt 0.842461 0.190391
vt 0.848005 0.190391
vt 0.848005 0.190502
vn 0.9764 0.1886 0.1049
vn 1.0000 0.0000 0.0000
vn 0.9764 0.1887 -0.1048
vn 0.0000 -1.0000 0.0000
vn -0.9764 0.1886 -0.1049
vn -1.0000 0.0000 0.0000
vn -0.9764 0.1887 0.1048
vn 0.1887 0.1048 -0.9764
vn 0.0000 0.0000 -1.0000
vn -0.1886 0.1049 -0.9764
vn -0.1887 0.1048 0.9764
vn 0.0000 0.0000 1.0000
vn 0.1886 0.1049 0.9764
vn -0.1048 0.9764 0.1887
vn 0.1049 0.9764 0.1886
vn 0.1048 0.9764 -0.1887
vn -0.1049 0.9764 -0.1886
usemtl Steel_-_Satin.102
s 1
f 4/1/1 5/2/2 8/3/2 3/4/3
f 6/5/4 7/6/4 8/7/4 5/8/4
f 2/9/5 7/10/6 6/11/6 1/12/7
f 3/13/8 8/14/9 7/15/9 2/16/10
f 1/17/11 6/18/12 5/19/12 4/20/13
f 1/17/14 4/20/15 3/4/16 2/16/17
g Police_Light_Strip_Light_Police_light_strip_v1.003
v -2.618045 0.134219 0.111406
v -2.618045 0.134219 -0.111406
v -2.924626 -0.111406 0.292463
v -2.924626 -0.111406 -0.292463
v 2.618045 0.134219 -0.111406
v 2.924626 -0.111406 -0.292463
v 2.618045 0.134219 0.111406
v 2.924626 -0.111406 0.292463
v -3.007967 -0.206950 0.300797
v -3.007967 -0.206950 -0.300797
v 3.007967 -0.206950 -0.300797
v 3.007967 -0.206950 0.300797
vt 0.208166 0.754238
vt 0.207693 0.754404
vt 0.207693 0.748860
vt 0.208166 0.749027
vt 0.207693 0.757010
vt 0.207693 0.751799
vt 0.208166 0.751632
vt 0.208166 0.757176
vt 0.208166 0.752991
vt 0.207693 0.753157
vt 0.207693 0.752603
vt 0.208166 0.752769
vt 0.207693 0.754404
vt 0.207693 0.748860
vt 0.208166 0.753434
vt 0.208166 0.752880
vt 0.208166 0.752880
vt 0.208166 0.753434
vt 0.210535 0.752907
vt 0.210535 0.753129
vt 0.205324 0.753129
vt 0.205324 0.752907
vt 0.207693 0.753157
vt 0.207693 0.752603
vt 0.207693 0.753268
vt 0.207693 0.753046
vt 0.208166 0.751632
vt 0.208166 0.757176
vn 0.0000 0.5933 -0.8049
vn 0.0000 0.5933 0.8049
vn -0.6253 0.7804 0.0000
vn 0.0000 0.0869 -0.9962
vn 0.2433 -0.0705 -0.9674
vn -0.2433 -0.0705 -0.9674
vn 0.7536 0.6573 0.0000
vn 0.8335 0.5013 0.2325
vn 0.8335 0.5013 -0.2325
vn 0.0000 1.0000 0.0000
vn -0.7536 0.6573 0.0000
vn -0.8335 0.5013 -0.2325
vn -0.8335 0.5013 0.2325
vn 0.6253 0.7804 0.0000
vn 0.0000 0.0869 0.9962
vn -0.2433 -0.0705 0.9674
vn 0.2433 -0.0705 0.9674
vn -0.2265 -0.9576 0.1780
vn -0.2265 -0.9576 -0.1780
vn 0.2265 -0.9576 -0.1780
vn 0.2265 -0.9576 0.1780
usemtl Steel_-_Satin.103
s 1
f 13/21/18 14/22/18 12/23/18 10/24/18
f 15/25/19 9/26/19 11/27/19 16/28/19
f 10/29/20 12/30/20 11/31/20 9/32/20
f 12/23/21 14/22/21 19/33/22 18/34/23
f 14/35/24 16/36/24 20/37/25 19/38/26
f 15/39/27 13/40/27 10/41/27 9/42/27
f 11/31/28 12/30/28 18/43/29 17/44/30
f 16/36/31 14/35/31 13/45/31 15/46/31
f 16/28/32 11/27/32 17/47/33 20/48/34
f 17/47/35 18/34/36 19/38/37 20/48/38
