# Blender v2.93.0 OBJ File: 'W2.blend'
# www.blender.org
mtllib Road Railing.mtl
g Road_Railing
v -0.349999 -0.400002 12.600000
v -0.349999 0.899998 12.600000
v -0.349999 0.900002 -12.600000
v -0.349999 -0.399998 -12.600000
v 0.350000 0.900002 -12.600000
v 0.350000 -0.399998 -12.600000
v 0.350000 0.899998 12.600000
v 0.350000 -0.400002 12.600000
vt 0.148797 0.409706
vt 0.148797 0.409706
vt 0.148797 0.409706
vt 0.148797 0.409706
vt 0.148797 0.409706
vt 0.148797 0.409706
vt 0.148797 0.409706
vt 0.148797 0.409706
vn -1.0000 0.0000 0.0000
vn 0.0000 0.0000 -1.0000
vn 1.0000 0.0000 0.0000
vn 0.0000 0.0000 1.0000
vn 0.0000 -1.0000 -0.0000
vn 0.0000 1.0000 0.0000
usemtl W2.002
s 1
f 1/1/1 2/2/1 3/3/1 4/4/1
s 2
f 4/4/2 3/3/2 5/5/2 6/6/2
s 3
f 6/6/3 5/5/3 7/7/3 8/8/3
s 4
f 8/8/4 7/7/4 2/2/4 1/1/4
s 5
f 4/4/5 6/6/5 8/8/5 1/1/5
s 6
f 5/5/6 3/3/6 2/2/6 7/7/6
