# Blender v2.90.1 OBJ File: ''
# www.blender.org
mtllib Car 1 v2.mtl
o Car_1_v2
v 7.230769 1.815384 3.000000
v 7.230769 1.815385 -3.000000
v 4.230769 2.015384 3.000000
v 4.230769 2.015385 -3.000000
v 7.230769 -1.984615 -3.000000
v 6.230769 -2.984615 -3.000000
v 2.230769 -2.984615 -3.000000
v 1.230769 -1.984615 -3.000000
v -1.769232 -1.984615 -3.000000
v -7.769231 2.015385 -3.000000
v -7.769231 -1.984615 -3.000000
v -6.769231 -2.984615 -3.000000
v -2.769231 -2.984615 -3.000000
v 7.230769 -1.984616 3.000000
v -4.769231 7.015385 -2.499999
v 3.230769 7.015385 -2.499999
v 3.230769 7.015384 2.500001
v -4.769231 7.015384 2.500001
v -7.769231 2.015384 3.000000
v 6.230769 -2.984616 3.000000
v 2.230769 -2.984616 3.000000
v 1.230769 -1.984616 3.000000
v -1.769232 -1.984616 3.000000
v -2.769231 -2.984616 3.000000
v -6.769231 -2.984616 3.000000
v -7.769231 -1.984616 3.000000
vt 0.600000 0.150333
vt 0.000000 0.150333
vt 0.600000 -0.150333
vt 0.000000 -0.150333
vt -0.750000 -0.020000
vt -0.750000 -0.400000
vt -0.450000 -0.000000
vt -0.650000 -0.500000
vt -0.250000 -0.500000
vt -0.150000 -0.400000
vt 0.150000 -0.400000
vt 0.750000 -0.000000
vt 0.750000 -0.400000
vt 0.650000 -0.500000
vt 0.250000 -0.500000
vt 0.380000 0.600000
vt 0.000000 0.600000
vt 0.380000 0.000000
vt 0.000000 0.000000
vt 0.925000 -0.251247
vt 0.625000 0.251247
vt -0.275000 -0.251247
vt -0.175000 0.251247
vt 0.000000 0.050000
vt 0.800000 0.050000
vt 0.000000 0.550000
vt 0.800000 0.550000
vt 0.000000 0.050000
vt 0.583095 0.000000
vt 0.000000 0.550000
vt 0.583095 0.600000
vt -0.925000 -0.251247
vt 0.275000 -0.251247
vt -0.625000 0.251247
vt 0.175000 0.251247
vt 0.509902 0.050000
vt 0.509902 0.550000
vt 0.000000 0.000000
vt 0.000000 0.600000
vt 0.000000 0.000000
vt 0.141421 0.000000
vt 0.000000 0.600000
vt 0.141421 0.600000
vt 0.000000 0.000000
vt 0.400000 0.000000
vt 0.000000 0.600000
vt 0.400000 0.600000
vt 0.000000 0.000000
vt 0.141421 0.000000
vt 0.000000 0.600000
vt 0.141421 0.600000
vt 0.000000 0.000000
vt 0.300000 0.000000
vt 0.000000 0.600000
vt 0.300000 0.600000
vt 0.000000 0.000000
vt 0.141421 0.000000
vt 0.000000 0.600000
vt 0.141421 0.600000
vt 0.000000 0.000000
vt 0.400000 0.000000
vt 0.000000 0.600000
vt 0.400000 0.600000
vt 0.000000 0.000000
vt 0.141421 0.000000
vt 0.000000 0.600000
vt 0.141421 0.600000
vt 0.000000 0.000000
vt 0.400000 0.000000
vt 0.000000 0.600000
vt 0.400000 0.600000
vt 0.750000 -0.020000
vt 0.450000 -0.000000
vt 0.750000 -0.400000
vt 0.650000 -0.500000
vt 0.250000 -0.500000
vt 0.150000 -0.400000
vt -0.150000 -0.400000
vt -0.750000 -0.000000
vt -0.750000 -0.400000
vt -0.650000 -0.500000
vt -0.250000 -0.500000
vn 0.0665 0.9978 0.0000
vn 0.0000 0.0000 -1.0000
vn 1.0000 0.0000 0.0000
vn 0.0000 0.0995 -0.9950
vn 0.0000 1.0000 0.0000
vn -0.8575 0.5145 0.0000
vn 0.0000 0.0995 0.9950
vn 0.9806 0.1961 0.0000
vn 0.7071 -0.7071 -0.0000
vn 0.0000 -1.0000 -0.0000
vn -0.7071 -0.7071 -0.0000
vn -1.0000 -0.0000 0.0000
vn -0.0000 -0.0000 1.0000
usemtl Steel_-_Satin.002
s 1
f 1/1/1 2/2/1 3/3/1
f 3/3/1 2/2/1 4/4/1
f 2/5/2 5/6/2 4/7/2
f 4/7/2 5/6/2 6/8/2
f 4/7/2 6/8/2 7/9/2
f 7/9/2 8/10/2 4/7/2
f 4/7/2 8/10/2 9/11/2
f 4/7/2 9/11/2 10/12/2
f 10/12/2 9/11/2 11/13/2
f 11/13/2 9/11/2 12/14/2
f 12/14/2 9/11/2 13/15/2
f 1/16/3 14/17/3 2/18/3
f 2/18/3 14/17/3 5/19/3
f 10/20/4 15/21/4 4/22/4
f 4/22/4 15/21/4 16/23/4
f 16/24/5 15/25/5 17/26/5
f 17/26/5 15/25/5 18/27/5
f 15/28/6 10/29/6 18/30/6
f 18/30/6 10/29/6 19/31/6
f 19/32/7 3/33/7 18/34/7
f 18/34/7 3/33/7 17/35/7
f 16/36/8 17/37/8 4/38/8
f 4/38/8 17/37/8 3/39/8
f 6/40/9 5/41/9 20/42/9
f 20/42/9 5/41/9 14/43/9
f 7/44/10 6/45/10 21/46/10
f 21/46/10 6/45/10 20/47/10
f 8/48/11 7/49/11 22/50/11
f 22/50/11 7/49/11 21/51/11
f 9/52/10 8/53/10 23/54/10
f 23/54/10 8/53/10 22/55/10
f 13/56/9 9/57/9 24/58/9
f 24/58/9 9/57/9 23/59/9
f 12/60/10 13/61/10 25/62/10
f 25/62/10 13/61/10 24/63/10
f 11/64/11 12/65/11 26/66/11
f 26/66/11 12/65/11 25/67/11
f 10/68/12 11/69/12 19/70/12
f 19/70/12 11/69/12 26/71/12
f 1/72/13 3/73/13 14/74/13
f 14/74/13 3/73/13 20/75/13
f 20/75/13 3/73/13 21/76/13
f 21/76/13 3/73/13 22/77/13
f 22/77/13 3/73/13 23/78/13
f 23/78/13 3/73/13 19/79/13
f 23/78/13 19/79/13 26/80/13
f 26/80/13 25/81/13 23/78/13
f 23/78/13 25/81/13 24/82/13
