# Blender v2.90.1 OBJ File: ''
# www.blender.org
mtllib Loose Cargo 2.mtl
o Loose_Cargo_2
v 9.399963 -2.000000 2.949997
v 9.399963 -2.000000 -2.949997
v 9.399963 2.000000 2.949997
v 9.399963 2.000000 -2.949997
v -9.399963 -2.000000 2.949997
v -9.399963 2.000000 2.949997
v -9.399963 -2.000000 -2.949997
v -9.399963 2.000000 -2.949997
vt 0.000000 0.000000
vt 0.590000 0.000000
vt -0.000000 0.400000
vt 0.590000 0.400000
vt 0.000000 0.000000
vt 1.880000 0.000000
vt 0.000000 0.400000
vt 1.880000 0.400000
vt 0.000000 0.000000
vt 0.590000 -0.000000
vt 0.000000 0.400000
vt 0.590000 0.400000
vt 0.000000 0.000000
vt 1.880000 0.000000
vt 0.000000 0.400000
vt 1.880000 0.400000
vt -0.594999 0.010001
vt -0.004999 0.010001
vt -0.594999 1.890001
vt -0.004999 1.890001
vt -0.010001 0.594999
vt -1.890001 0.594999
vt -0.010001 0.004999
vt -1.890001 0.004999
vn 1.0000 0.0000 0.0000
vn 0.0000 -0.0000 1.0000
vn -1.0000 0.0000 0.0000
vn 0.0000 0.0000 -1.0000
vn 0.0000 1.0000 0.0000
vn 0.0000 -1.0000 -0.0000
usemtl Steel_-_Satin.003
s 1
f 1/1/1 2/2/1 3/3/1
f 3/3/1 2/2/1 4/4/1
f 5/5/2 1/6/2 6/7/2
f 6/7/2 1/6/2 3/8/2
f 7/9/3 5/10/3 8/11/3
f 8/11/3 5/10/3 6/12/3
f 2/13/4 7/14/4 4/15/4
f 4/15/4 7/14/4 8/16/4
f 8/17/5 6/18/5 4/19/5
f 4/19/5 6/18/5 3/20/5
f 7/21/6 2/22/6 5/23/6
f 5/23/6 2/22/6 1/24/6
