# Blender v2.93.0 OBJ File: 'W2 EXPORT.blend'
# www.blender.org
mtllib Road Straight S.mtl
v 4.900000 -0.420000 4.200000
v 4.900000 0.210000 4.200000
v 4.900000 -0.420000 -4.200000
v 4.900000 0.210000 -4.200000
v 5.600000 0.210000 -4.200000
v 5.600000 -0.420000 -4.200000
v 5.600000 -0.420000 4.200000
v 5.600000 0.210000 4.200000
v 4.900000 0.910000 -4.200000
v 4.900000 0.910000 4.200000
v 5.600000 0.910000 -4.200000
v 5.600000 0.910000 4.200000
v 0.000000 -0.420000 4.200000
v 0.000000 0.210000 4.200000
v 0.000000 -0.420000 -4.200000
v 0.000000 0.210000 -4.200000
v -4.900000 -0.420000 4.200000
v -4.900000 0.210000 4.200000
v -4.900000 -0.420000 -4.200000
v -4.900000 0.210000 -4.200000
v -5.600000 0.210000 -4.200000
v -5.600000 -0.420000 -4.200000
v -5.600000 -0.420000 4.200000
v -5.600000 0.210000 4.200000
v -4.900000 0.910000 -4.200000
v -4.900000 0.910000 4.200000
v -5.600000 0.910000 -4.200000
v -5.600000 0.910000 4.200000
vt 0.999909 0.735407
vt 0.999909 0.783017
vt 0.629606 0.783018
vt 0.629606 0.735407
vt 0.629606 0.052992
vt 0.629606 0.100602
vt 0.576706 0.100602
vt 0.576706 0.052992
vt 0.999909 0.052992
vt 0.999909 0.100602
vt 0.370394 0.735407
vt 0.000091 0.735407
vt 0.000091 0.100602
vt 0.370394 0.100602
vt 0.576706 0.735407
vt 0.529095 0.735407
vt 0.529095 0.100602
vt 0.476195 0.735407
vt 0.476195 0.100602
vt 0.576706 0.783018
vt 0.423295 0.735407
vt 0.423295 0.100602
vt 0.629606 0.835918
vt 0.576706 0.835918
vt 0.576706 0.000091
vt 0.629606 0.000091
vt 0.629606 0.735407
vt 0.629606 0.783018
vt 0.629606 0.052992
vt 0.576706 0.052992
vt 0.576706 0.100602
vt 0.629606 0.100602
vt 0.370394 0.735407
vt 0.370394 0.100602
vt 0.576706 0.735407
vt 0.529095 0.100602
vt 0.529095 0.735407
vt 0.476195 0.100602
vt 0.476195 0.735407
vt 0.576706 0.783018
vt 0.423295 0.735407
vt 0.423295 0.100602
vt 0.576706 0.835918
vt 0.629606 0.835918
vt 0.629606 0.000091
vt 0.576706 0.000091
vn 0.0000 0.0000 -1.0000
vn 0.0000 0.0000 1.0000
vn 0.0000 -1.0000 0.0000
vn 0.0000 1.0000 0.0000
vn 1.0000 0.0000 0.0000
vn -1.0000 0.0000 0.0000
usemtl Material
s off
f 15/1/1 16/2/1 4/3/1 3/4/1
f 2/5/2 1/6/2 7/7/2 8/8/2
f 1/6/2 2/5/2 14/9/2 13/10/2
f 15/1/3 3/4/3 1/6/3 13/10/3
f 4/11/4 16/12/4 14/13/4 2/14/4
f 6/15/5 5/16/5 8/17/5 7/7/5
f 1/6/3 3/4/3 6/15/3 7/7/3
f 8/17/5 5/16/5 11/18/5 12/19/5
f 3/4/1 4/3/1 5/20/1 6/15/1
f 9/21/4 10/22/4 12/19/4 11/18/4
f 4/11/6 2/14/6 10/22/6 9/21/6
f 5/20/1 4/3/1 9/23/1 11/24/1
f 2/5/2 8/8/2 12/25/2 10/26/2
f 15/1/1 19/27/1 20/28/1 16/2/1
f 18/29/2 24/30/2 23/31/2 17/32/2
f 17/32/2 13/10/2 14/9/2 18/29/2
f 15/1/3 13/10/3 17/32/3 19/27/3
f 20/33/4 18/34/4 14/13/4 16/12/4
f 22/35/6 23/31/6 24/36/6 21/37/6
f 17/32/3 23/31/3 22/35/3 19/27/3
f 24/36/6 28/38/6 27/39/6 21/37/6
f 19/27/1 22/35/1 21/40/1 20/28/1
f 25/41/4 27/39/4 28/38/4 26/42/4
f 20/33/5 25/41/5 26/42/5 18/34/5
f 21/40/1 27/43/1 25/44/1 20/28/1
f 18/29/2 26/45/2 28/46/2 24/30/2
