# Blender v2.93.0 OBJ File: 'w1 EXPORT FILE extra.blend'
# www.blender.org
mtllib Sand Terrain.mtl
g Sand_plane_terrain5
v 85.567207 -7.750573 -85.814186
v 105.120003 -7.795187 -78.840004
v 105.120003 -7.795183 -105.120003
v 78.840004 -10.219166 -105.120003
v 32.342377 -6.141019 -79.451431
v 59.985733 -6.463989 -78.247337
v 52.560001 -8.742271 -105.120003
v 26.280001 -9.496697 -105.120003
v 33.356468 -6.859165 -26.007950
v 57.489132 -6.732138 -29.430027
v 46.852406 -2.105004 -47.799484
v 23.975086 -2.094786 -49.899624
v 84.962242 -7.838210 -30.522747
v 105.120003 -8.449210 -26.280001
v 105.120003 -10.036476 -52.560001
v 75.499290 -4.526633 -44.613560
v 46.976868 -6.694930 0.949340
v 73.155479 -8.323113 2.332088
v 105.120003 -10.412730 0.000000
v 7.580834 -6.612638 -27.273279
v -1.242308 -3.031700 -52.956566
v -2.966644 -4.217377 -1.315155
v 22.242130 -4.092033 3.824057
v 6.017016 -6.783428 -78.138588
v 0.000000 -10.973591 -105.120003
v -70.882996 -8.157390 -75.226234
v -78.840004 -10.219166 -105.120003
v -105.120003 -7.795183 -105.120003
v -105.120003 -7.795187 -78.840004
v -20.422346 -7.712605 -75.205902
v -26.280001 -9.496697 -105.120003
v -52.560001 -8.742271 -105.120003
v -45.182785 -7.242762 -74.592155
v -19.326574 -5.621146 -27.326418
v -27.507223 -3.926944 -54.300686
v -57.055618 -3.718470 -53.110619
v -46.948009 -6.146032 -21.777971
v -70.215332 -7.581424 -24.795916
v -77.432335 -4.898166 -63.020020
v -105.120003 -10.036476 -52.560001
v -105.120003 -8.449210 -26.280001
v -56.482235 -3.415900 -1.246827
v -82.710831 -4.941612 -5.684153
v -105.120003 -10.412730 0.000000
v -29.590546 -3.389788 -5.441956
v 77.679375 -10.225965 71.398399
v 78.840004 -10.219200 105.120003
v 105.120003 -7.795217 105.120003
v 105.120003 -7.795213 78.840004
v 22.669077 -8.078322 83.510429
v 26.280001 -9.496732 105.120003
v 52.560001 -8.742306 105.120003
v 50.236744 -8.871515 79.813461
v 27.906889 -4.458654 31.973145
v 13.710329 -2.420088 56.112061
v 46.171284 -3.916365 52.891655
v 57.335812 -6.599991 30.998577
v 81.671829 -8.754868 35.518417
v 69.223152 -6.440927 54.206337
v 105.120003 -10.036493 52.560001
v 105.120003 -8.449219 26.280001
v 1.867615 -5.010071 25.584108
v -10.956711 -3.737955 52.685829
v -2.698746 -8.445107 84.871048
v 0.000000 -10.973625 105.120003
v -79.344582 -7.885324 91.115181
v -105.120003 -7.795213 78.840004
v -105.120003 -7.795217 105.120003
v -78.840004 -10.219200 105.120003
v -28.279280 -7.647625 86.264839
v -53.916313 -7.768766 88.789085
v -52.560001 -8.742306 105.120003
v -26.280001 -9.496732 105.120003
v -22.745447 -5.372818 19.845501
v -45.623550 -6.088770 22.230570
v -55.718384 -4.371576 53.289642
v -34.936264 -4.143591 49.087414
v -72.750824 -5.605090 14.502671
v -105.120003 -8.449219 26.280001
v -105.120003 -10.036493 52.560001
v -85.891815 -4.100197 47.258434
vt 0.903200 0.905220
vt 0.995649 0.871787
vt 0.996607 0.995719
vt 0.871885 0.997923
vt 0.651756 0.876115
vt 0.781806 0.869966
vt 0.747471 0.997614
vt 0.623379 0.998621
vt 0.656411 0.620971
vt 0.769571 0.637435
vt 0.718730 0.726450
vt 0.612555 0.735949
vt 0.899107 0.643615
vt 0.994283 0.623397
vt 0.995357 0.747239
vt 0.852513 0.711217
vt 0.720581 0.494578
vt 0.844089 0.488208
vt 0.994851 0.499337
vt 0.535564 0.627314
vt 0.494382 0.749851
vt 0.485373 0.504868
vt 0.603636 0.480588
vt 0.527891 0.870554
vt 0.499156 0.999900
vt 0.165991 0.856647
vt 0.126975 0.997029
vt 0.002416 0.994414
vt 0.005014 0.870674
vt 0.403314 0.857484
vt 0.374996 0.998598
vt 0.251144 0.997580
vt 0.286721 0.853707
vt 0.408684 0.628192
vt 0.370452 0.756243
vt 0.231491 0.750556
vt 0.278180 0.602465
vt 0.168440 0.616660
vt 0.135796 0.796236
vt 0.002986 0.745980
vt 0.004375 0.621929
vt 0.234118 0.504454
vt 0.111229 0.525171
vt 0.001711 0.497494
vt 0.360130 0.524264
vt 0.866135 0.161713
vt 0.872338 0.003356
vt 0.996607 0.003994
vt 0.995973 0.127445
vt 0.607361 0.103837
vt 0.624965 0.001968
vt 0.748598 0.002713
vt 0.737058 0.121720
vt 0.630507 0.348760
vt 0.564395 0.235659
vt 0.715500 0.250587
vt 0.769089 0.353431
vt 0.884003 0.332085
vt 0.824223 0.244239
vt 0.994033 0.251574
vt 0.994188 0.375356
vt 0.508196 0.378429
vt 0.448811 0.250483
vt 0.487948 0.096697
vt 0.500997 0.000363
vt 0.126762 0.067488
vt 0.005437 0.125814
vt 0.004893 0.002221
vt 0.129366 0.000100
vt 0.367489 0.090641
vt 0.246690 0.078549
vt 0.253332 0.001428
vt 0.377065 0.001237
vt 0.392502 0.404931
vt 0.285000 0.393334
vt 0.238088 0.246917
vt 0.335875 0.266881
vt 0.157027 0.429636
vt 0.003677 0.373662
vt 0.000100 0.249931
vt 0.096577 0.274794
vn 0.0294 0.9979 -0.0583
vn 0.0511 0.9985 -0.0172
vn -0.0446 0.9979 -0.0475
vn 0.0046 0.9962 -0.0875
vn -0.0118 0.9917 -0.1278
vn 0.0328 0.9939 -0.1055
vn 0.0118 0.9940 -0.1085
vn -0.0272 0.9923 -0.1206
vn 0.0140 0.9976 0.0673
vn 0.0423 0.9929 0.1113
vn 0.0266 0.9985 0.0486
vn -0.0123 0.9996 0.0260
vn 0.0784 0.9953 0.0574
vn 0.0817 0.9960 0.0349
vn 0.1168 0.9931 0.0070
vn 0.0798 0.9953 0.0549
vn 0.0673 0.9976 -0.0131
vn 0.0529 0.9986 0.0050
vn 0.0385 0.9992 0.0128
vn 0.0027 0.9994 0.0332
vn -0.0225 0.9995 -0.0205
vn 0.0105 0.9997 -0.0211
vn 0.0263 0.9993 -0.0259
vn -0.0260 0.9900 -0.1385
vn -0.0161 0.9930 -0.1169
vn -0.0194 0.9954 -0.0937
vn 0.0093 0.9989 -0.0451
vn 0.0485 0.9979 -0.0435
vn -0.0120 0.9990 -0.0420
vn -0.0048 0.9917 -0.1288
vn 0.0150 0.9967 -0.0796
vn -0.0162 0.9985 -0.0524
vn -0.0005 0.9931 -0.1171
vn 0.0082 1.0000 0.0012
vn -0.0055 0.9988 -0.0479
vn -0.0309 0.9991 -0.0290
vn -0.0343 0.9985 -0.0416
vn -0.0765 0.9968 -0.0228
vn -0.0645 0.9969 -0.0440
vn -0.0877 0.9961 0.0012
vn -0.1022 0.9947 -0.0084
vn -0.0306 0.9994 -0.0129
vn -0.0981 0.9947 -0.0305
vn -0.1338 0.9909 -0.0170
vn -0.0042 0.9996 -0.0261
vn 0.0203 0.9986 0.0486
vn -0.0208 0.9998 -0.0018
vn -0.0902 0.9959 0.0016
vn -0.0465 0.9988 0.0145
vn -0.0005 0.9926 0.1213
vn -0.0133 0.9982 0.0593
vn 0.0286 0.9995 0.0100
vn 0.0523 0.9948 0.0872
vn 0.0341 0.9986 -0.0411
vn 0.0006 0.9980 0.0628
vn 0.0745 0.9961 0.0464
vn 0.0805 0.9960 -0.0391
vn 0.0617 0.9979 -0.0216
vn 0.0797 0.9960 0.0411
vn 0.0359 0.9992 0.0153
vn 0.0371 0.9991 -0.0186
vn -0.0138 0.9998 -0.0140
vn -0.0134 0.9990 0.0421
vn -0.0065 0.9917 0.1283
vn 0.0034 0.9948 0.1020
vn -0.0172 0.9970 0.0761
vn -0.0737 0.9964 0.0427
vn 0.0347 0.9978 0.0574
vn 0.0038 0.9964 0.0844
vn 0.0174 0.9949 0.0991
vn -0.0014 0.9954 0.0962
vn -0.0038 0.9956 0.0934
vn 0.0323 0.9951 0.0930
vn -0.0080 0.9998 0.0158
vn -0.0104 0.9999 0.0128
vn -0.0012 0.9996 0.0297
vn -0.0100 0.9998 0.0157
vn -0.0681 0.9975 0.0197
vn -0.1679 0.9856 -0.0220
vn -0.1534 0.9882 0.0038
vn -0.0897 0.9960 0.0029
usemtl None
s 1
f 1/1/1 2/2/2 3/3/3 4/4/4
f 5/5/5 6/6/6 7/7/7 8/8/8
f 9/9/9 10/10/10 11/11/11 12/12/12
f 13/13/13 14/14/14 15/15/15 16/16/16
f 10/10/10 13/13/13 16/16/16 11/11/11
f 17/17/17 18/18/18 13/13/13 10/10/10
f 18/18/18 19/19/19 14/14/14 13/13/13
f 20/20/20 9/9/9 12/12/12 21/21/21
f 22/22/22 23/23/23 9/9/9 20/20/20
f 23/23/23 17/17/17 10/10/10 9/9/9
f 24/24/24 5/5/5 8/8/8 25/25/25
f 21/21/21 12/12/12 5/5/5 24/24/24
f 12/12/12 11/11/11 6/6/6 5/5/5
f 6/6/6 1/1/1 4/4/4 7/7/7
f 11/11/11 16/16/16 1/1/1 6/6/6
f 16/16/16 15/15/15 2/2/2 1/1/1
f 26/26/26 27/27/27 28/28/28 29/29/29
f 30/30/30 31/31/31 32/32/32 33/33/33
f 34/34/34 35/35/35 36/36/36 37/37/37
f 38/38/38 39/39/39 40/40/40 41/41/41
f 37/37/37 36/36/36 39/39/39 38/38/38
f 42/42/42 37/37/37 38/38/38 43/43/43
f 43/43/43 38/38/38 41/41/41 44/44/44
f 20/20/20 21/21/21 35/35/35 34/34/34
f 22/22/22 20/20/20 34/34/34 45/45/45
f 45/45/45 34/34/34 37/37/37 42/42/42
f 24/24/24 25/25/25 31/31/31 30/30/30
f 21/21/21 24/24/24 30/30/30 35/35/35
f 35/35/35 30/30/30 33/33/33 36/36/36
f 33/33/33 32/32/32 27/27/27 26/26/26
f 36/36/36 33/33/33 26/26/26 39/39/39
f 39/39/39 26/26/26 29/29/29 40/40/40
f 46/46/46 47/47/47 48/48/48 49/49/49
f 50/50/50 51/51/51 52/52/52 53/53/53
f 54/54/54 55/55/55 56/56/56 57/57/57
f 58/58/58 59/59/59 60/60/60 61/61/61
f 57/57/57 56/56/56 59/59/59 58/58/58
f 17/17/17 57/57/57 58/58/58 18/18/18
f 18/18/18 58/58/58 61/61/61 19/19/19
f 62/62/62 63/63/63 55/55/55 54/54/54
f 22/22/22 62/62/62 54/54/54 23/23/23
f 23/23/23 54/54/54 57/57/57 17/17/17
f 64/64/64 65/65/65 51/51/51 50/50/50
f 63/63/63 64/64/64 50/50/50 55/55/55
f 55/55/55 50/50/50 53/53/53 56/56/56
f 53/53/53 52/52/52 47/47/47 46/46/46
f 56/56/56 53/53/53 46/46/46 59/59/59
f 59/59/59 46/46/46 49/49/49 60/60/60
f 66/66/66 67/67/67 68/68/68 69/69/69
f 70/70/70 71/71/71 72/72/72 73/73/73
f 74/74/74 75/75/75 76/76/76 77/77/77
f 78/78/78 79/79/79 80/80/80 81/81/81
f 75/75/75 78/78/78 81/81/81 76/76/76
f 42/42/42 43/43/43 78/78/78 75/75/75
f 43/43/43 44/44/44 79/79/79 78/78/78
f 62/62/62 74/74/74 77/77/77 63/63/63
f 22/22/22 45/45/45 74/74/74 62/62/62
f 45/45/45 42/42/42 75/75/75 74/74/74
f 64/64/64 70/70/70 73/73/73 65/65/65
f 63/63/63 77/77/77 70/70/70 64/64/64
f 77/77/77 76/76/76 71/71/71 70/70/70
f 71/71/71 66/66/66 69/69/69 72/72/72
f 76/76/76 81/81/81 66/66/66 71/71/71
f 81/81/81 80/80/80 67/67/67 66/66/66
