# Blender v2.93.0 OBJ File: 'w1 EXPORT FILE extra.blend'
# www.blender.org
mtllib Sand Tile 02.mtl
g Sand_Tile_02
v 63.303944 -1.419226 -53.333065
v 76.200005 -1.745639 -76.200005
v 56.949734 0.826667 -66.200005
v 17.022280 -0.065589 -51.489948
v 0.000000 -1.749560 -66.200005
v -0.083237 2.573286 -44.651588
v 38.327652 -0.263432 -73.132172
v 19.221779 0.113156 -66.200005
v 42.960007 -1.635272 -47.178932
v 44.487995 0.851758 8.082051
v 54.550262 0.827957 -12.821033
v 32.732037 2.518020 -7.584569
v 35.839554 0.000182 -25.230757
v 52.578293 -0.803872 -35.382099
v 28.639814 3.335335 13.005991
v 17.325281 8.262519 0.550052
v 10.739192 9.208012 -25.572563
v 14.231162 10.277631 12.500170
v 4.392399 9.662046 -6.273688
v -7.417528 9.296372 -27.123505
v 82.450432 -0.094021 -0.000000
v 64.138222 -1.042108 7.064265
v 76.200005 0.354996 -17.743099
v 69.267838 -2.709074 -39.942135
v -57.118664 -1.230321 -43.130512
v -76.200005 -1.745639 -76.200005
v -76.200005 -4.778073 -53.817707
v -15.861056 -0.215312 -52.137745
v -19.221779 0.113156 -66.200005
v -35.011902 -2.177869 -57.199696
v -56.949726 0.826667 -66.200005
v -28.214245 14.548079 -0.520904
v -52.645721 0.394082 -8.803209
v -49.447315 -0.066808 4.669793
v -42.696743 1.755924 -38.510780
v -23.775703 8.133919 -15.135402
v -68.931664 -1.145395 -25.320786
v -4.518528 11.475708 6.211338
v -24.634138 7.443315 -29.225891
v -7.716368 8.303399 -9.660407
v -76.200005 0.354996 -17.743099
v -69.949577 -0.094021 -0.000000
v -83.132179 -2.709074 -39.942135
v 65.802773 -1.230337 52.816593
v 76.200005 -1.745663 76.200005
v 80.746086 -4.778090 53.817707
v 0.000000 -1.749585 86.200005
v 18.907104 0.456722 66.373718
v 0.735023 4.032784 59.618389
v 19.221777 0.113131 86.200005
v 40.799400 -0.225975 61.675358
v 56.949730 0.826642 86.200005
v 44.221504 1.530406 22.543388
v 47.517677 1.360106 40.246811
v 56.728600 0.370964 21.464848
v 61.488712 -1.145405 35.420670
v 21.993410 9.787072 26.846024
v 29.445942 7.986877 46.516949
v 2.480204 12.403619 44.496372
v 0.204314 15.986989 28.619225
v 76.200005 0.354990 17.743099
v 76.200005 -2.709087 39.942135
v -57.659138 -1.419245 63.882431
v -76.200005 -1.745663 76.200005
v -56.949730 0.826642 86.200005
v -10.735646 -0.193517 67.802750
v -31.130579 -1.513087 60.245136
v -19.221777 0.113131 86.200005
v -38.327644 -0.263457 80.290443
v -52.481220 -0.527874 20.766262
v -26.972017 16.921528 12.978212
v -35.659927 4.929151 32.528870
v -56.414028 -1.800312 44.116894
v -9.474339 15.270054 20.968193
v -16.822342 11.425797 41.352428
v -76.200005 0.354990 17.743099
v -76.200005 -2.709087 39.942135
v 76.200005 -4.778073 -53.817707
v -38.327644 -0.263432 -72.109558
v 38.327644 -0.263457 79.267830
v -71.653931 -4.778090 53.817707
vt 0.750000 0.750000
vt 1.000000 1.000000
vt 0.750000 1.000000
vt 0.250000 0.750000
vt 0.000000 1.000000
vt 0.000000 0.750000
vt 0.500000 1.000000
vt 0.250000 1.000000
vt 0.500000 0.750000
vt 0.500000 0.000000
vt 0.750000 0.250000
vt 0.500000 0.250000
vt 0.500000 0.500000
vt 0.750000 0.500000
vt 0.250000 0.000000
vt 0.250000 0.250000
vt 0.250000 0.500000
vt 0.000000 0.000000
vt 0.000000 0.250000
vt 0.000000 0.500000
vt 1.000000 0.000000
vt 0.750000 0.000000
vt 1.000000 0.250000
vt 1.000000 0.500000
vt 0.750000 0.750000
vt 1.000000 1.000000
vt 1.000000 0.750000
vt 0.250000 0.750000
vt 0.250000 1.000000
vt 0.500000 0.750000
vt 0.250000 0.500000
vt 0.750000 1.000000
vt 0.500000 0.000000
vt 0.750000 0.250000
vt 0.750000 0.000000
vt 0.500000 0.500000
vt 0.500000 0.250000
vt 0.750000 0.500000
vt 0.250000 0.000000
vt 0.250000 0.250000
vt 1.000000 0.250000
vt 1.000000 0.000000
vt 1.000000 0.500000
vt 0.750000 0.750000
vt 1.000000 1.000000
vt 1.000000 0.750000
vt 0.000000 1.000000
vt 0.250000 0.750000
vt 0.000000 0.750000
vt 0.250000 1.000000
vt 0.500000 0.750000
vt 0.750000 1.000000
vt 0.500000 0.250000
vt 0.500000 0.500000
vt 0.750000 0.250000
vt 0.250000 0.500000
vt 0.750000 0.500000
vt 0.250000 0.250000
vt 0.000000 0.500000
vt 0.000000 0.250000
vt 0.250000 0.500000
vt 1.000000 0.250000
vt 1.000000 0.500000
vt 0.750000 0.750000
vt 1.000000 1.000000
vt 0.750000 1.000000
vt 0.250000 0.750000
vt 0.500000 0.750000
vt 0.250000 1.000000
vt 0.500000 1.000000
vt 0.750000 0.250000
vt 0.500000 0.250000
vt 0.500000 0.500000
vt 0.750000 0.500000
vt 0.250000 0.250000
vt 1.000000 0.250000
vt 1.000000 0.500000
vt 1.000000 0.750000
vt 0.500000 1.000000
vt 0.500000 1.000000
vt 1.000000 0.750000
vn 0.1751 0.9809 0.0847
vn 0.0725 0.9779 -0.1959
vn 0.0255 0.9995 0.0160
vn -0.0833 0.9942 0.0674
vn 0.0869 0.9954 0.0407
vn 0.0447 0.9901 -0.1334
vn 0.0035 0.9973 -0.0732
vn 0.3657 0.9301 0.0358
vn 0.3265 0.9440 -0.0482
vn 0.1089 0.9440 -0.3114
vn 0.1697 0.9780 -0.1210
vn 0.0067 0.9998 -0.0213
vn 0.0341 0.9378 -0.3455
vn -0.0130 0.9949 0.0998
vn 0.0053 0.9973 -0.0726
vn 0.0023 0.9974 -0.0725
vn 0.0070 0.9973 -0.0729
vn 0.0040 0.9974 -0.0725
vn 0.1242 0.9914 0.0402
vn -0.2511 0.9592 0.1300
vn -0.0796 0.9773 -0.1964
vn -0.1151 0.9921 0.0507
vn -0.0607 0.9863 -0.1534
vn -0.0576 0.9848 -0.1636
vn -0.0121 0.9469 -0.3212
vn 0.0992 0.9911 0.0891
vn -0.5341 0.8311 0.1552
vn -0.2680 0.9623 -0.0456
vn -0.1660 0.9794 -0.1148
vn 0.2146 0.9167 -0.3371
vn 0.0063 0.9988 -0.0493
vn -0.1621 0.9501 -0.2666
vn 0.0902 0.9927 -0.0798
vn -0.1263 0.9905 0.0542
vn -0.0535 0.9247 -0.3770
vn -0.0077 0.9996 0.0280
vn 0.0532 0.9881 -0.1446
vn -0.0623 0.9970 -0.0461
vn 0.2355 0.9683 -0.0834
vn 0.1113 0.9704 0.2142
vn 0.0348 0.9993 0.0168
vn 0.0202 0.9982 -0.0561
vn 0.0935 0.9946 -0.0450
vn 0.0965 0.9953 0.0123
vn 0.0955 0.9954 -0.0064
vn 0.0982 0.9941 0.0461
vn 0.2652 0.9633 -0.0402
vn 0.0917 0.9958 -0.0075
vn 0.1738 0.9845 -0.0229
vn 0.3279 0.9433 -0.0520
vn 0.1644 0.9857 -0.0359
vn 0.0127 0.9086 -0.4175
vn 0.3405 0.9392 -0.0431
vn 0.3956 0.8985 0.1905
vn 0.4308 0.8793 -0.2030
vn 0.0804 0.9747 0.2085
vn 0.2825 0.9436 0.1725
vn 0.1283 0.9712 0.2008
vn -0.0867 0.9690 0.2311
vn 0.0622 0.8949 0.4420
vn 0.0745 0.8978 0.4340
vn 0.1180 0.9061 0.4062
vn -0.0075 0.8752 0.4836
vn -0.0709 0.9962 -0.0502
vn 0.0202 0.9947 0.1012
vn 0.1127 0.9934 -0.0231
vn -0.0820 0.9919 -0.0972
vn -0.2082 0.9569 0.2024
vn -0.0499 0.9980 -0.0396
vn 0.0436 0.9980 -0.0465
vn -0.5807 0.8093 -0.0888
vn -0.4759 0.8280 0.2964
vn -0.1699 0.9534 0.2494
vn 0.1774 0.9659 -0.1888
vn 0.0070 0.9822 0.1877
vn -0.2174 0.8742 0.4341
vn 0.1176 0.9639 -0.2391
vn -0.0859 0.8921 0.4435
vn -0.0730 0.8979 0.4341
vn -0.1209 0.8743 0.4700
vn -0.0430 0.9110 0.4101
vn -0.0075 0.9996 0.0272
vn 0.0296 0.9978 0.0594
vn -0.0413 0.9989 -0.0219
vn 0.2545 0.9583 0.1298
vn -0.0965 0.9953 -0.0023
vn 0.0532 0.9976 0.0432
vn 0.0362 0.9873 0.1544
vn -0.0256 0.9984 -0.0495
vn 0.1521 0.9883 -0.0090
vn 0.3444 0.9360 -0.0729
vn 0.3436 0.9382 0.0416
vn 0.4348 0.8997 -0.0391
vn 0.1022 0.9947 0.0102
vn 0.0117 0.9424 -0.3344
vn 0.0255 0.9995 0.0163
vn 0.0694 0.9851 -0.1576
vn 0.2513 0.9677 -0.0187
vn -0.1758 0.9807 0.0862
vn 0.0965 0.9953 0.0002
vn -0.0631 0.9880 0.1409
vn 0.0918 0.9900 0.1067
vn -0.3227 0.8267 -0.4609
vn -0.1047 0.9945 0.0105
vn -0.1185 0.9607 -0.2510
vn 0.0604 0.9764 -0.2073
vn -0.2864 0.9577 -0.0295
vn -0.0585 0.9811 -0.1843
vn -0.1134 0.9921 0.0545
vn -0.0145 0.9466 -0.3220
vn -0.0161 0.9991 0.0380
vn 0.0466 0.9875 -0.1508
vn -0.0784 0.9796 -0.1852
vn 0.1170 0.9927 -0.0301
vn -0.0964 0.9952 0.0188
vn 0.0216 0.9998 0.0052
vn -0.0215 0.9998 -0.0003
vn -0.0148 0.9999 0.0004
vn -0.0563 0.9984 -0.0058
vn 0.0877 0.9948 -0.0525
vn 0.1903 0.9808 0.0417
vn 0.0741 0.9925 0.0967
vn 0.3415 0.9391 -0.0378
vn 0.1152 0.9070 0.4051
vn 0.2637 0.9583 -0.1099
vn 0.1594 0.9868 0.0299
vn -0.0198 0.9940 -0.1077
vn 0.0631 0.9886 0.1365
vn 0.2259 0.9716 0.0709
vn -0.1219 0.9800 -0.1575
vn 0.0964 0.9950 0.0279
vn -0.0004 0.9981 -0.0624
vn -0.0102 0.9950 -0.0998
vn -0.5791 0.8108 -0.0859
vn -0.3085 0.9512 -0.0001
vn 0.0009 0.9998 -0.0192
vn 0.1782 0.9662 -0.1863
vn -0.4393 0.8395 0.3197
vn -0.4246 0.8641 0.2702
vn 0.1309 0.9699 -0.2054
vn -0.1698 0.9777 0.1232
vn 0.0387 0.9992 -0.0117
vn -0.0741 0.9879 0.1364
vn -0.3992 0.8787 0.2618
usemtl None.001
s 1
f 1/1/1 2/2/1 3/3/1
s 2
f 4/4/2 5/5/2 6/6/2
s 3
f 4/4/3 7/7/3 8/8/3
s 4
f 9/9/4 3/3/4 7/7/4
s 5
f 10/10/5 11/11/5 12/12/5
s 6
f 11/11/6 13/13/6 12/12/6
s 7
f 14/14/7 9/9/7 13/13/7
s 8
f 15/15/8 12/12/8 16/16/8
s 9
f 12/12/9 17/17/9 16/16/9
s 10
f 17/17/10 9/9/10 4/4/10
s 11
f 18/18/11 16/16/11 19/19/11
s 12
f 19/19/12 17/17/12 20/20/12
s 13
f 17/17/13 6/6/13 20/20/13
s 14
f 21/21/14 11/11/14 22/22/14
s 15
f 23/23/15 14/14/16 11/11/17
f 11/11/17 14/14/16 13/13/18
s 16
f 24/24/19 1/1/19 14/14/19
s 17
f 25/25/20 26/26/20 27/27/20
s 18
f 5/5/21 28/28/21 6/6/21
s 19
f 29/29/22 30/30/23 28/28/24
f 39/31/25 28/28/24 30/30/23
s 20
f 30/30/26 31/32/26 25/25/26
s 21
f 32/33/27 33/34/27 34/35/27
s 22
f 35/36/28 33/34/28 36/37/28
s 23
f 35/36/29 25/25/29 37/38/29
s 24
f 38/39/30 36/37/30 32/33/30
s 25
f 39/31/31 36/37/31 40/40/31
s 26
f 39/31/32 30/30/32 35/36/32
s 27
f 19/19/33 38/39/33 18/18/33
s 28
f 20/20/34 40/40/34 19/19/34
s 29
f 6/6/35 39/31/35 20/20/35
s 30
f 34/35/36 41/41/36 42/42/36
s 31
f 37/38/37 41/41/37 33/34/37
s 32
f 25/25/38 43/43/38 37/38/38
s 33
f 44/44/39 45/45/39 46/46/39
s 34
f 47/47/40 48/48/40 49/49/40
s 35
f 50/50/41 51/51/41 48/48/41
s 36
f 51/51/42 52/52/42 44/44/42
s 37
f 53/53/43 22/22/44 10/10/45
f 10/10/45 22/22/44 11/11/46
s 38
f 54/54/47 55/55/48 53/53/49
f 58/56/50 54/54/47 53/53/49
s 39
f 54/54/51 44/44/51 56/57/51
s 40
f 57/58/52 10/10/52 15/15/52
s 41
f 58/56/53 53/53/53 57/58/53
s 42
f 58/56/54 51/51/54 54/54/54
s 43
f 18/18/55 57/58/55 15/15/55
s 44
f 59/59/56 57/58/57 60/60/58
f 60/60/58 75/61/59 59/59/56
s 45
f 59/59/60 48/48/61 58/56/62
f 59/59/60 49/49/63 48/48/61
s 46
f 22/22/64 61/62/64 21/21/64
s 47
f 56/57/65 61/62/65 55/55/65
s 48
f 44/44/66 62/63/66 56/57/66
s 49
f 63/64/67 64/65/67 65/66/67
s 50
f 66/67/68 47/47/68 49/49/68
s 51
f 67/68/69 68/69/69 66/67/69
s 52
f 67/68/70 65/66/70 69/70/70
s 53
f 32/33/71 70/71/71 71/72/71
s 54
f 70/71/72 72/73/72 71/72/72
s 55
f 73/74/73 67/68/73 72/73/73
s 56
f 38/39/74 71/72/74 74/75/74
s 57
f 71/72/75 75/61/75 74/75/75
s 58
f 75/61/76 67/68/76 66/67/76
s 59
f 18/18/77 74/75/77 60/60/77
s 60
f 75/61/78 49/49/79 59/59/80
f 75/61/78 66/67/81 49/49/79
s 61
f 42/42/82 70/71/82 34/35/82
s 62
f 76/76/83 73/74/83 70/71/83
s 63
f 77/77/84 63/64/84 73/74/84
s 64
f 1/1/85 78/78/85 2/2/85
s 65
f 4/4/86 8/8/86 5/5/86
s 66
f 4/4/87 9/9/87 7/7/87
s 67
f 9/9/88 1/1/88 3/3/88
s 68
f 14/14/89 1/1/89 9/9/89
s 69
f 15/15/90 10/10/90 12/12/90
s 70
f 12/12/91 13/13/91 17/17/91
s 71
f 17/17/92 13/13/92 9/9/92
s 72
f 18/18/93 15/15/93 16/16/93
s 73
f 19/19/94 16/16/94 17/17/94
s 74
f 17/17/95 4/4/95 6/6/95
s 75
f 21/21/96 23/23/96 11/11/96
s 76
f 23/23/97 24/24/97 14/14/97
s 77
f 24/24/98 78/78/98 1/1/98
s 78
f 25/25/99 31/32/99 26/26/99
s 79
f 5/5/100 29/29/100 28/28/100
s 80
f 29/29/101 79/79/101 30/30/101
s 81
f 30/30/102 79/79/102 31/32/102
s 82
f 32/33/103 36/37/103 33/34/103
s 83
f 35/36/104 37/38/104 33/34/104
s 84
f 35/36/105 30/30/105 25/25/105
s 85
f 38/39/106 40/40/106 36/37/106
s 86
f 39/31/107 35/36/107 36/37/107
s 87
f 19/19/108 40/40/108 38/39/108
s 88
f 20/20/109 39/31/109 40/40/109
s 89
f 6/6/110 28/28/110 39/31/110
s 90
f 34/35/111 33/34/111 41/41/111
s 91
f 37/38/112 43/43/112 41/41/112
s 92
f 25/25/113 27/27/113 43/43/113
s 93
f 44/44/114 52/52/114 45/45/114
s 94
f 47/47/115 50/50/115 48/48/115
s 95
f 50/50/116 80/80/117 51/51/118
f 51/51/118 80/80/117 52/52/119
s 96
f 53/53/120 55/55/120 22/22/120
s 97
f 54/54/121 56/57/121 55/55/121
s 98
f 54/54/122 51/51/122 44/44/122
s 99
f 57/58/123 53/53/123 10/10/123
s 100
f 58/56/124 48/48/124 51/51/124
s 101
f 18/18/125 60/60/125 57/58/125
s 102
f 59/59/126 58/56/126 57/58/126
s 103
f 22/22/127 55/55/127 61/62/127
s 104
f 56/57/128 62/63/128 61/62/128
s 105
f 44/44/129 46/46/129 62/63/129
s 106
f 63/64/130 81/81/130 64/65/130
s 107
f 66/67/131 68/69/131 47/47/131
s 108
f 67/68/132 69/70/132 68/69/132
s 109
f 67/68/133 63/64/133 65/66/133
s 110
f 32/33/134 34/35/134 70/71/134
s 111
f 70/71/135 73/74/135 72/73/135
s 112
f 73/74/136 63/64/136 67/68/136
s 113
f 38/39/137 32/33/137 71/72/137
s 114
f 71/72/138 72/73/138 75/61/138
s 115
f 75/61/139 72/73/139 67/68/139
s 116
f 18/18/140 38/39/140 74/75/140
s 117
f 60/60/141 74/75/141 75/61/141
s 118
f 42/42/142 76/76/142 70/71/142
s 119
f 76/76/143 77/77/143 73/74/143
s 120
f 77/77/144 81/81/144 63/64/144
