# Blender v2.93.0 OBJ File: 'Train6.blend'
# www.blender.org
mtllib Truck Box.mtl
g Truck_Box
v -2.900882 -6.785334 11.992882
v -2.900882 -6.785334 -8.007118
v 2.899118 -6.785334 11.992882
v 2.899118 -6.785334 -8.007118
v -2.900882 -5.540474 11.992882
v -2.900882 -5.540474 -8.007118
v 2.899118 -5.540474 -8.007118
v 2.899118 -5.540474 11.992882
v -2.900882 -4.043278 11.992882
v -2.900882 -4.043278 -8.007118
v 2.899118 -4.043278 -8.007118
v 2.899118 -4.043278 11.992882
v -2.900882 -6.785334 -1.374122
v -2.900882 0.414666 -1.374122
v 2.899118 -6.785334 -1.374122
v 2.899118 0.414666 -1.374122
v 2.899118 -5.540474 -1.374122
v -2.900882 -5.540474 -1.374122
v 2.899118 -4.043278 -1.374122
v -2.900882 -4.043278 -1.374122
v -2.900882 -6.785334 2.497932
v 2.899118 0.414666 2.497932
v 2.899118 -5.540474 2.497932
v 2.899118 -4.043278 2.497932
v -2.900882 0.414666 2.497932
v 2.899118 -6.785334 2.497932
v -2.900882 -5.540474 2.497932
v -2.900882 -4.043278 2.497932
v -2.900882 -6.785334 5.056855
v 2.899118 -3.585334 5.056855
v 2.899118 -5.540474 5.056855
v 2.899118 -4.043278 5.056855
v -2.900882 -3.585334 5.056855
v 2.899118 -6.785334 5.056855
v -2.900882 -5.540474 5.056855
v -2.900882 -4.043278 5.056855
v -2.900882 -6.785334 5.494565
v 2.899118 -2.085334 5.494565
v 2.899118 -5.540474 5.494565
v 2.899118 -4.043278 5.494565
v -2.900882 -2.085334 5.494565
v 2.899118 -6.785334 5.494565
v -2.900882 -5.540474 5.494565
v -2.900882 -4.043278 5.494565
v -2.900882 -6.785334 9.972680
v 2.899118 -2.085334 9.972680
v 2.899118 -5.540474 9.972680
v 2.899118 -4.043278 9.972680
v -2.900882 -2.085334 9.972680
v 2.899118 -6.785334 9.972680
v -2.900882 -5.540474 9.972680
v -2.900882 -4.043278 9.972680
v -2.900882 -6.785334 10.713420
v 2.899118 -3.285334 10.413420
v 2.899118 -5.540474 10.713420
v 2.899118 -4.043278 10.713420
v -2.900882 -3.285334 10.413420
v 2.899118 -6.785334 10.713420
v -2.900882 -5.540474 10.713420
v -2.900882 -4.043278 10.713420
vt 0.125000 0.734007
vt 0.375000 0.734007
vt 0.375000 0.750000
vt 0.125000 0.750000
vt 0.418224 0.750000
vt 0.418224 1.000000
vt 0.375000 1.000000
vt 0.418224 0.734007
vt 0.375000 0.250000
vt 0.418224 0.250000
vt 0.418224 0.500000
vt 0.375000 0.500000
vt 0.375000 0.167088
vt 0.418224 0.167088
vt 0.470210 0.750000
vt 0.470210 1.000000
vt 0.470210 0.734007
vt 0.470210 0.250000
vt 0.470210 0.500000
vt 0.470210 0.167088
vt 0.418224 0.118687
vt 0.470210 0.118687
vt 0.470210 0.582912
vt 0.418224 0.582912
vt 0.375000 0.118687
vt 0.375000 0.582912
vt 0.125000 0.500000
vt 0.125000 0.582912
vt 0.625000 0.118687
vt 0.625000 0.167088
vt 0.470210 0.086700
vt 0.625000 0.086700
vt 0.375000 0.086700
vt 0.418224 0.086700
vt 0.470210 0.631313
vt 0.418224 0.631313
vt 0.375000 0.631313
vt 0.625000 0.582912
vt 0.875000 0.582912
vt 0.875000 0.631313
vt 0.625000 0.631313
vt 0.125000 0.631313
vt 0.418224 0.081229
vt 0.470210 0.081229
vt 0.375000 0.081229
vt 0.625000 0.081229
vt 0.470210 0.663300
vt 0.418224 0.663300
vt 0.375000 0.663300
vt 0.875000 0.663300
vt 0.625000 0.663300
vt 0.125000 0.663300
vt 0.470210 0.025253
vt 0.625000 0.025253
vt 0.375000 0.025253
vt 0.418224 0.025253
vt 0.470210 0.668771
vt 0.418224 0.668771
vt 0.375000 0.668771
vt 0.875000 0.668771
vt 0.625000 0.668771
vt 0.125000 0.668771
vt 0.418224 0.015993
vt 0.470210 0.015993
vt 0.375000 0.015993
vt 0.625000 0.015993
vt 0.470210 0.724747
vt 0.418224 0.724748
vt 0.375000 0.724747
vt 0.875000 0.724747
vt 0.625000 0.724747
vt 0.125000 0.724747
vt 0.375000 0.000000
vt 0.418224 0.000000
vt 0.470210 0.000000
vt 0.875000 0.734007
vt 0.625000 0.734007
vn 0.0000 -1.0000 0.0000
vn 0.0000 0.0000 1.0000
vn 1.0000 0.0000 0.0000
vn 0.0000 0.0000 -1.0000
vn -1.0000 0.0000 0.0000
vn 0.0000 1.0000 0.0000
vn 0.0000 0.5389 0.8424
vn 0.0000 0.2801 -0.9600
vn 0.0000 0.3448 0.9387
vn 0.0000 0.3680 0.9298
vn 0.0000 0.8300 -0.5578
usemtl None
s off
f 53/1/1 58/2/1 3/3/1 1/4/1
f 3/3/2 8/5/2 5/6/2 1/7/2
f 58/2/3 55/8/3 8/5/3 3/3/3
f 2/9/4 6/10/4 7/11/4 4/12/4
f 13/13/5 18/14/5 6/10/5 2/9/5
f 8/5/2 12/15/2 9/16/2 5/6/2
f 55/8/3 56/17/3 12/15/3 8/5/3
f 6/10/4 10/18/4 11/19/4 7/11/4
f 18/14/5 20/20/5 10/18/5 6/10/5
f 27/21/5 28/22/5 20/20/5 18/14/5
f 7/11/3 11/19/3 19/23/3 17/24/3
f 21/25/5 27/21/5 18/14/5 13/13/5
f 4/12/3 7/11/3 17/24/3 15/26/3
f 2/27/1 4/12/1 15/26/1 13/28/1
f 28/22/5 25/29/5 14/30/5 20/20/5
f 36/31/5 33/32/5 25/29/5 28/22/5
f 29/33/5 35/34/5 27/21/5 21/25/5
f 35/34/5 36/31/5 28/22/5 27/21/5
f 17/24/3 19/23/3 24/35/3 23/36/3
f 15/26/3 17/24/3 23/36/3 26/37/3
f 16/38/6 14/39/6 25/40/6 22/41/6
f 13/28/1 15/26/1 26/37/1 21/42/1
f 19/23/3 16/38/3 22/41/3 24/35/3
f 43/43/5 44/44/5 36/31/5 35/34/5
f 37/45/5 43/43/5 35/34/5 29/33/5
f 44/44/5 41/46/5 33/32/5 36/31/5
f 23/36/3 24/35/3 32/47/3 31/48/3
f 26/37/3 23/36/3 31/48/3 34/49/3
f 22/41/7 25/40/7 33/50/7 30/51/7
f 21/42/1 26/37/1 34/49/1 29/52/1
f 24/35/3 22/41/3 30/51/3 32/47/3
f 52/53/5 49/54/5 41/46/5 44/44/5
f 45/55/5 51/56/5 43/43/5 37/45/5
f 51/56/5 52/53/5 44/44/5 43/43/5
f 31/48/3 32/47/3 40/57/3 39/58/3
f 34/49/3 31/48/3 39/58/3 42/59/3
f 30/51/8 33/50/8 41/60/8 38/61/8
f 29/52/1 34/49/1 42/59/1 37/62/1
f 32/47/3 30/51/3 38/61/3 40/57/3
f 59/63/5 60/64/5 52/53/5 51/56/5
f 53/65/5 59/63/5 51/56/5 45/55/5
f 60/64/5 57/66/5 49/54/5 52/53/5
f 39/58/3 40/57/3 48/67/3 47/68/3
f 42/59/3 39/58/3 47/68/3 50/69/3
f 38/61/6 41/60/6 49/70/6 46/71/6
f 37/62/1 42/59/1 50/69/1 45/72/1
f 40/57/3 38/61/3 46/71/3 48/67/3
f 1/73/5 5/74/5 59/63/5 53/65/5
f 5/74/5 9/75/5 60/64/5 59/63/5
f 47/68/3 48/67/3 56/17/3 55/8/3
f 50/69/3 47/68/3 55/8/3 58/2/3
f 46/71/9 49/70/9 57/76/9 54/77/9
f 45/72/1 50/69/1 58/2/1 53/1/1
f 48/67/3 46/71/3 54/77/3 56/17/3
f 9/75/6 12/15/6 56/17/6 60/64/6
f 60/64/10 56/17/10 54/77/10 57/76/10
f 10/18/5 20/20/5 14/30/5
f 16/38/3 19/23/3 11/19/3
f 16/38/11 11/19/11 10/18/11 14/39/11
