# Blender v2.90.1 OBJ File: 'w1 EXPORT FILE.blend'
# www.blender.org
mtllib Portal.mtl
o Portal_v1
v 3.230385 -13.095191 -1.650002
v 6.600000 -7.258845 -1.650001
v 3.750000 -13.995191 -0.750002
v 7.500000 -7.500000 -0.750001
v 6.600000 7.258846 -1.649999
v 7.500000 7.500000 -0.749999
v -3.750000 13.995191 -0.749998
v 3.750000 13.995191 -0.749998
v -3.230385 13.095191 -1.649998
v 3.230385 13.095191 -1.649998
v -7.500000 7.500000 -0.749999
v -6.600000 7.258846 -1.649999
v -7.500000 -7.500000 -0.750001
v -6.600000 -7.258845 -1.650001
v -3.750000 -13.995191 -0.750002
v -3.230385 -13.095191 -1.650002
v 3.750000 -13.995191 0.749998
v 7.500000 -7.500000 0.749999
v 7.500000 7.500000 0.750001
v 3.750000 13.995191 0.750002
v -3.750000 13.995191 0.750002
v 3.403590 -13.395191 1.349998
v -3.403590 -13.395191 1.349998
v -3.750000 -13.995191 0.749998
v -6.900000 -7.339231 1.349999
v -7.500000 -7.500000 0.749999
v -6.900000 7.339231 1.350001
v -7.500000 7.500000 0.750001
v -3.403590 13.395191 1.350002
v 3.403590 13.395191 1.350002
v 6.900000 7.339231 1.350001
v 6.900000 -7.339231 1.349999
v -6.300000 -7.178462 0.749999
v -6.300000 7.178462 0.750001
v -3.057179 12.795191 0.750002
v 6.300000 7.178462 0.750001
v 3.057180 12.795191 0.750002
v 6.300000 -7.178462 0.749999
v 3.057180 -12.795191 0.749998
v -3.057179 -12.795191 0.749998
v -3.057179 -12.795191 -0.450002
v 3.057180 -12.795191 -0.450002
v 6.300000 -7.178462 -0.450001
v 6.300000 7.178462 -0.449999
v 3.057180 12.795191 -0.449998
v -6.300000 -7.178462 -0.450001
v -6.300000 7.178462 -0.449999
v -3.057179 12.795191 -0.449998
vt 0.740375 0.852658
vt 0.739962 0.853670
vt 0.740216 0.852501
vt 0.739756 0.853628
vt 0.740100 0.852741
vt 0.740100 0.855096
vt 0.739894 0.852702
vt 0.739894 0.855136
vt 0.740910 0.853413
vt 0.739693 0.853413
vt 0.740825 0.853207
vt 0.739777 0.853207
vt 0.740605 0.854526
vt 0.740445 0.854682
vt 0.740192 0.853513
vt 0.739986 0.853555
vt 0.740238 0.852992
vt 0.739778 0.854119
vt 0.740032 0.852950
vt 0.739619 0.853963
vt 0.740100 0.853919
vt 0.739894 0.853879
vt 0.740100 0.851485
vt 0.739894 0.851524
vt 0.740008 0.853065
vt 0.739802 0.853107
vt 0.739548 0.851938
vt 0.739389 0.852094
vt 0.739084 0.853207
vt 0.740301 0.853207
vt 0.739169 0.853413
vt 0.740217 0.853413
vt 0.739997 0.853456
vt 0.741214 0.853456
vt 0.739997 0.853700
vt 0.741214 0.853700
vt 0.739997 0.853456
vt 0.742431 0.853456
vt 0.739997 0.853700
vt 0.742431 0.853700
vt 0.739997 0.853456
vt 0.741214 0.853456
vt 0.739997 0.853700
vt 0.741214 0.853700
vt 0.739997 0.853456
vt 0.741214 0.853456
vt 0.739997 0.853700
vt 0.741214 0.853700
vt 0.741068 0.854488
vt 0.740521 0.855435
vt 0.741068 0.852132
vt 0.739473 0.855435
vt 0.740521 0.851185
vt 0.738926 0.854488
vt 0.739473 0.851185
vt 0.738926 0.852132
vt 0.740854 0.853379
vt 0.739749 0.853379
vt 0.740910 0.853241
vt 0.739693 0.853241
vt 0.740584 0.852055
vt 0.740155 0.853106
vt 0.740477 0.851951
vt 0.740017 0.853078
vt 0.740066 0.851511
vt 0.740066 0.853892
vt 0.739928 0.851485
vt 0.739928 0.853919
vt 0.740354 0.854002
vt 0.740247 0.854106
vt 0.739925 0.852951
vt 0.739787 0.852979
vt 0.739140 0.853241
vt 0.740245 0.853241
vt 0.739084 0.853379
vt 0.740301 0.853379
vt 0.739977 0.853542
vt 0.739517 0.854669
vt 0.739839 0.853514
vt 0.739410 0.854565
vt 0.740066 0.855136
vt 0.739928 0.855109
vt 0.740066 0.852702
vt 0.739928 0.852728
vt 0.740207 0.853641
vt 0.740069 0.853669
vt 0.739747 0.852514
vt 0.739640 0.852619
vt 0.739997 0.853456
vt 0.741214 0.853456
vt 0.739997 0.853700
vt 0.741214 0.853700
vt 0.740066 0.851537
vt 0.740066 0.853866
vt 0.739928 0.851511
vt 0.739928 0.853892
vt 0.740332 0.853949
vt 0.740226 0.854054
vt 0.739935 0.852975
vt 0.739797 0.853003
vt 0.739967 0.853566
vt 0.739538 0.854617
vt 0.739829 0.853539
vt 0.739432 0.854513
vt 0.739197 0.853241
vt 0.740189 0.853241
vt 0.739140 0.853379
vt 0.740245 0.853379
vt 0.740066 0.855109
vt 0.739928 0.855083
vt 0.740066 0.852728
vt 0.739928 0.852754
vt 0.740197 0.853617
vt 0.740059 0.853645
vt 0.739768 0.852566
vt 0.739662 0.852671
vt 0.739749 0.853241
vt 0.740854 0.853241
vt 0.739805 0.853379
vt 0.740797 0.853379
vt 0.740027 0.853054
vt 0.740456 0.852003
vt 0.740165 0.853082
vt 0.740562 0.852107
vt 0.739884 0.853700
vt 0.738892 0.853700
vt 0.739884 0.853505
vt 0.738892 0.853505
vt 0.739884 0.853700
vt 0.738832 0.853700
vt 0.739884 0.853505
vt 0.738832 0.853505
vt 0.739945 0.853700
vt 0.737615 0.853700
vt 0.739945 0.853505
vt 0.737615 0.853505
vt 0.739945 0.853700
vt 0.738892 0.853700
vt 0.739945 0.853505
vt 0.738892 0.853505
vt 0.739945 0.853700
vt 0.738892 0.853700
vt 0.739945 0.853505
vt 0.738892 0.853505
vt 0.739945 0.853700
vt 0.737615 0.853700
vt 0.739945 0.853505
vt 0.737615 0.853505
vt 0.739884 0.853700
vt 0.738832 0.853700
vt 0.739884 0.853505
vt 0.738832 0.853505
vt 0.739884 0.853700
vt 0.738892 0.853700
vt 0.739884 0.853505
vt 0.738892 0.853505
vt 0.227898 0.775730
vt 0.227372 0.776641
vt 0.227898 0.773400
vt 0.226380 0.776641
vt 0.227372 0.772489
vt 0.225854 0.775730
vt 0.226380 0.772489
vt 0.225854 0.773400
vt 0.739997 0.853456
vt 0.741214 0.853456
vt 0.739997 0.853700
vt 0.741214 0.853700
vt 0.739997 0.853456
vt 0.742431 0.853456
vt 0.739997 0.853700
vt 0.742431 0.853700
vt 0.739997 0.853456
vt 0.741214 0.853456
vt 0.739997 0.853700
vt 0.741214 0.853700
vn 0.6124 -0.3536 -0.7071
vn 0.7071 0.0000 -0.7071
vn 0.0000 0.7071 -0.7071
vn 0.6124 0.3536 -0.7071
vn -0.6124 0.3536 -0.7071
vn -0.7071 0.0000 -0.7071
vn -0.6124 -0.3536 -0.7071
vn 0.0000 -0.7071 -0.7071
vn 0.8660 -0.5000 0.0000
vn 1.0000 0.0000 0.0000
vn 0.8660 0.5000 0.0000
vn 0.0000 1.0000 0.0000
vn 0.0000 0.0000 -1.0000
vn 0.0000 -0.7071 0.7071
vn -0.6124 -0.3536 0.7071
vn -0.7071 -0.0000 0.7071
vn -0.6124 0.3536 0.7071
vn 0.0000 0.7071 0.7071
vn 0.6124 0.3536 0.7071
vn 0.7071 -0.0000 0.7071
vn 0.6124 -0.3536 0.7071
vn 0.0000 -1.0000 0.0000
vn -0.8660 0.5000 0.0000
vn -1.0000 0.0000 0.0000
vn -0.8660 -0.5000 0.0000
vn 0.0000 -0.0000 1.0000
usemtl Steel_-_Satin.017
s 1
f 1/1/1 2/2/1 3/3/1
f 3/3/1 2/2/1 4/4/1
f 2/5/2 5/6/2 4/7/2
f 4/7/2 5/6/2 6/8/2
f 7/9/3 8/10/3 9/11/3
f 9/11/3 8/10/3 10/12/3
f 10/13/4 8/14/4 5/15/4
f 5/15/4 8/14/4 6/16/4
f 11/17/5 7/18/5 12/19/5
f 12/19/5 7/18/5 9/20/5
f 11/21/6 12/22/6 13/23/6
f 13/23/6 12/22/6 14/24/6
f 13/25/7 14/26/7 15/27/7
f 15/27/7 14/26/7 16/28/7
f 3/29/8 15/30/8 1/31/8
f 1/31/8 15/30/8 16/32/8
f 3/33/9 4/34/9 17/35/9
f 17/35/9 4/34/9 18/36/9
f 4/37/10 6/38/10 18/39/10
f 18/39/10 6/38/10 19/40/10
f 6/41/11 8/42/11 19/43/11
f 19/43/11 8/42/11 20/44/11
f 8/45/12 7/46/12 20/47/12
f 20/47/12 7/46/12 21/48/12
f 12/49/13 9/50/13 14/51/13
f 14/51/13 9/50/13 10/52/13
f 14/51/13 10/52/13 16/53/13
f 16/53/13 10/52/13 5/54/13
f 16/53/13 5/54/13 1/55/13
f 1/55/13 5/54/13 2/56/13
f 22/57/14 23/58/14 17/59/14
f 17/59/14 23/58/14 24/60/14
f 23/61/15 25/62/15 24/63/15
f 24/63/15 25/62/15 26/64/15
f 25/65/16 27/66/16 26/67/16
f 26/67/16 27/66/16 28/68/16
f 29/69/17 21/70/17 27/71/17
f 27/71/17 21/70/17 28/72/17
f 29/73/18 30/74/18 21/75/18
f 21/75/18 30/74/18 20/76/18
f 19/77/19 20/78/19 31/79/19
f 31/79/19 20/78/19 30/80/19
f 19/81/20 31/82/20 18/83/20
f 18/83/20 31/82/20 32/84/20
f 18/85/21 32/86/21 17/87/21
f 17/87/21 32/86/21 22/88/21
f 15/89/22 3/90/22 24/91/22
f 24/91/22 3/90/22 17/92/22
f 33/93/20 34/94/20 25/95/20
f 25/95/20 34/94/20 27/96/20
f 35/97/21 29/98/21 34/99/21
f 34/99/21 29/98/21 27/100/21
f 31/101/15 30/102/15 36/103/15
f 36/103/15 30/102/15 37/104/15
f 35/105/14 37/106/14 29/107/14
f 29/107/14 37/106/14 30/108/14
f 31/109/16 36/110/16 32/111/16
f 32/111/16 36/110/16 38/112/16
f 32/113/17 38/114/17 22/115/17
f 22/115/17 38/114/17 39/116/17
f 23/117/18 22/118/18 40/119/18
f 40/119/18 22/118/18 39/120/18
f 25/121/19 23/122/19 33/123/19
f 33/123/19 23/122/19 40/124/19
f 40/125/12 39/126/12 41/127/12
f 41/127/12 39/126/12 42/128/12
f 39/129/23 38/130/23 42/131/23
f 42/131/23 38/130/23 43/132/23
f 38/133/24 36/134/24 43/135/24
f 43/135/24 36/134/24 44/136/24
f 36/137/25 37/138/25 44/139/25
f 44/139/25 37/138/25 45/140/25
f 33/141/11 40/142/11 46/143/11
f 46/143/11 40/142/11 41/144/11
f 34/145/10 33/146/10 47/147/10
f 47/147/10 33/146/10 46/148/10
f 35/149/9 34/150/9 48/151/9
f 48/151/9 34/150/9 47/152/9
f 37/153/22 35/154/22 45/155/22
f 45/155/22 35/154/22 48/156/22
f 44/157/26 45/158/26 43/159/26
f 43/159/26 45/158/26 48/160/26
f 43/159/26 48/160/26 42/161/26
f 42/161/26 48/160/26 47/162/26
f 42/161/26 47/162/26 41/163/26
f 41/163/26 47/162/26 46/164/26
f 13/165/25 15/166/25 26/167/25
f 26/167/25 15/166/25 24/168/25
f 11/169/24 13/170/24 28/171/24
f 28/171/24 13/170/24 26/172/24
f 7/173/23 11/174/23 21/175/23
f 21/175/23 11/174/23 28/176/23
