# Blender v2.90.1 OBJ File: 'w1 EXPORT FILE.blend'
# www.blender.org
mtllib Portal Plain.mtl
g Plane
v -2.220572 0.125419 -0.073706
v 0.000000 2.337542 -0.267241
v 2.220572 0.125419 -0.073706
v 0.000000 -2.086702 0.119830
v 0.000000 0.125419 -0.073706
v -2.220572 1.231480 -0.170473
v 1.110286 2.337542 -0.267241
v 2.220572 -0.980641 0.023062
v -1.110286 -2.086702 0.119830
v -2.220572 -0.980641 0.023062
v -1.110286 2.337542 -0.267241
v 2.220572 1.231480 -0.170473
v 1.110286 -2.086702 0.119830
v 0.000000 -0.980641 0.023062
v 0.000000 1.231480 -0.170473
v -1.110286 0.125419 -0.073706
v 1.110286 0.125419 -0.073706
v 1.110286 1.231480 -0.170473
v -1.110286 1.231480 -0.170473
v -1.110286 -0.980641 0.023062
v 1.110286 -0.980641 0.023062
vt 0.250000 0.750000
vt 0.500000 0.750000
vt 0.500000 1.000000
vt 0.250000 1.000000
vt 0.250000 0.250000
vt 0.500000 0.250000
vt 0.500000 0.500000
vt 0.250000 0.500000
vt 0.750000 0.250000
vt 1.000000 0.250000
vt 1.000000 0.500000
vt 0.750000 0.500000
vt 0.500000 0.000000
vt 0.750000 0.000000
vt 0.000000 0.250000
vt 0.000000 0.500000
vt 0.250000 0.000000
vt 0.000000 0.750000
vt 0.750000 0.750000
vt 0.750000 1.000000
vt 1.000000 0.750000
vn 0.0000 -0.0872 -0.9962
usemtl None
s off
f 20/1/1 14/2/1 4/3/1 9/4/1
f 19/5/1 15/6/1 5/7/1 16/8/1
f 18/9/1 12/10/1 3/11/1 17/12/1
f 15/6/1 18/9/1 17/12/1 5/7/1
f 2/13/1 7/14/1 18/9/1 15/6/1
f 6/15/1 19/5/1 16/8/1 1/16/1
f 11/17/1 2/13/1 15/6/1 19/5/1
f 1/16/1 16/8/1 20/1/1 10/18/1
f 16/8/1 5/7/1 14/2/1 20/1/1
f 14/2/1 21/19/1 13/20/1 4/3/1
f 5/7/1 17/12/1 21/19/1 14/2/1
f 17/12/1 3/11/1 8/21/1 21/19/1
f 18/9/1 7/14/1 12/10/1
f 19/5/1 6/15/1 11/17/1
f 9/4/1 10/18/1 20/1/1
f 21/19/1 8/21/1 13/20/1
