# Blender v2.90.1 OBJ File: ''
# www.blender.org
mtllib Bullet v1.mtl
o Bullet_v1
v 0.000000 -1.345300 4.666667
v -1.165064 -0.672651 4.666667
v 0.000000 -2.500000 2.666666
v -2.165064 -1.250000 2.666666
v -1.165064 0.672649 4.666667
v -2.165064 1.250000 2.666667
v 0.000000 1.345298 4.666667
v 0.000000 2.500000 2.666667
v 1.165064 0.672649 4.666667
v 2.165064 1.250000 2.666667
v 2.165064 -1.250000 2.666666
v 1.165064 -0.672651 4.666667
v 2.165064 1.250001 -6.333333
v 2.165064 -1.249999 -6.333333
v 0.000000 -2.499999 -6.333334
v -2.165064 -1.249999 -6.333333
v -2.165064 1.250001 -6.333333
v 0.000000 2.500001 -6.333333
vt 0.145237 -0.027298
vt 0.041030 0.057786
vt 0.100516 -0.173358
vt -0.093134 -0.015244
vt 0.070711 -0.129765
vt 0.070711 0.004765
vt -0.070711 -0.187500
vt -0.070711 0.062500
vt -0.055794 -0.136843
vt 0.048412 -0.051759
vt -0.189958 -0.063813
vt 0.003691 0.094301
vt -0.041030 -0.057786
vt 0.093134 0.015244
vt -0.145237 0.027298
vt -0.100516 0.173358
vt 0.070711 0.187500
vt -0.070711 0.129765
vt 0.070711 -0.062500
vt -0.070711 -0.004765
vt 0.189958 0.063813
vt 0.055794 0.136843
vt -0.003691 -0.094301
vt -0.048412 0.051759
vt 0.250000 0.900000
vt 0.000000 0.900000
vt 0.250000 0.000000
vt 0.000000 0.000000
vt 0.250000 0.900000
vt 0.000000 0.900000
vt 0.250000 0.000000
vt 0.000000 0.000000
vt 0.250000 0.900000
vt 0.000000 0.900000
vt 0.250000 0.000000
vt 0.000000 0.000000
vt -0.116506 -0.067265
vt -0.000000 -0.134530
vt -0.116506 0.067265
vt -0.000000 0.134530
vt 0.116506 -0.067265
vt 0.116506 0.067265
vt 0.250000 0.900000
vt 0.000000 0.900000
vt 0.250000 0.000000
vt 0.000000 0.000000
vt 0.250000 0.900000
vt 0.000000 0.900000
vt 0.250000 0.000000
vt 0.000000 0.000000
vt 0.250000 0.900000
vt 0.000000 0.900000
vt 0.250000 0.000000
vt 0.000000 0.000000
vt -0.216506 0.125000
vt 0.000000 -0.250000
vt 0.000000 0.250000
vt 0.216506 -0.125000
vt 0.216506 0.125000
vt -0.216506 -0.125000
vn -0.4472 -0.7746 0.4472
vn -0.8944 0.0000 0.4472
vn -0.4472 0.7746 0.4472
vn 0.4472 0.7746 0.4472
vn 0.8944 0.0000 0.4472
vn 0.4472 -0.7746 0.4472
vn 1.0000 0.0000 0.0000
vn 0.5000 -0.8660 -0.0000
vn -0.5000 -0.8660 -0.0000
vn 0.0000 0.0000 1.0000
vn -1.0000 0.0000 0.0000
vn -0.5000 0.8660 0.0000
vn 0.5000 0.8660 0.0000
vn -0.0000 0.0000 -1.0000
usemtl Steel_-_Satin
s 1
f 1/1/1 2/2/1 3/3/1
f 3/3/1 2/2/1 4/4/1
f 2/5/2 5/6/2 4/7/2
f 4/7/2 5/6/2 6/8/2
f 5/9/3 7/10/3 6/11/3
f 6/11/3 7/10/3 8/12/3
f 9/13/4 10/14/4 7/15/4
f 7/15/4 10/14/4 8/16/4
f 10/17/5 9/18/5 11/19/5
f 11/19/5 9/18/5 12/20/5
f 11/21/6 12/22/6 3/23/6
f 3/23/6 12/22/6 1/24/6
f 10/25/7 11/26/7 13/27/7
f 13/27/7 11/26/7 14/28/7
f 11/29/8 3/30/8 14/31/8
f 14/31/8 3/30/8 15/32/8
f 3/33/9 4/34/9 15/35/9
f 15/35/9 4/34/9 16/36/9
f 2/37/10 1/38/10 5/39/10
f 5/39/10 1/38/10 7/40/10
f 7/40/10 1/38/10 12/41/10
f 7/40/10 12/41/10 9/42/10
f 4/43/11 6/44/11 16/45/11
f 16/45/11 6/44/11 17/46/11
f 6/47/12 8/48/12 17/49/12
f 17/49/12 8/48/12 18/50/12
f 8/51/13 10/52/13 18/53/13
f 18/53/13 10/52/13 13/54/13
f 13/55/14 15/56/14 18/57/14
f 18/57/14 15/56/14 16/58/14
f 18/57/14 16/58/14 17/59/14
f 13/55/14 14/60/14 15/56/14
