# Blender v2.90.1 OBJ File: 'w1 EXPORT FILE.blend'
# www.blender.org
mtllib Turret 1.mtl
g Turret_Barrel
v -0.663580 2.147189 5.098987
v -0.332080 1.573014 5.098995
v -0.663571 2.147189 3.109983
v -0.332085 1.573014 3.109982
v 0.330914 1.573014 5.098988
v 0.330924 1.573014 3.109983
v 0.662423 2.147189 5.098981
v 0.662424 2.147189 3.109992
v 0.330914 2.721364 5.098988
v 0.330924 2.721364 3.109984
v -0.332080 2.721364 5.098995
v -0.332085 2.721364 3.109982
v 0.441414 1.381626 -0.010020
v -0.884590 2.147190 -0.010013
v 0.883422 2.147190 -0.010011
v -0.442582 2.912753 -0.010005
v 0.441414 2.912753 -0.010019
v -0.442582 1.381626 -0.010005
v 0.441422 1.381625 5.098988
v -0.442579 1.381625 5.098979
v -0.884581 2.147189 5.098994
v -0.442580 2.912753 5.098979
v 0.441422 2.912752 5.098989
v 0.883416 2.147189 5.098989
vt 0.808763 0.177608
vt 0.808763 0.180519
vt 0.807793 0.180519
vt 0.807793 0.177608
vt 0.391671 0.754284
vt 0.391671 0.744906
vt 0.392965 0.744906
vt 0.392965 0.754284
vt 0.808763 0.177608
vt 0.808763 0.180519
vt 0.807793 0.180519
vt 0.807793 0.177608
vt 0.808763 0.177608
vt 0.808763 0.180519
vt 0.807793 0.180519
vt 0.807793 0.177608
vt 0.808763 0.177608
vt 0.808763 0.180519
vt 0.807793 0.180519
vt 0.807793 0.177608
vt 0.808763 0.176638
vt 0.809603 0.177123
vt 0.808763 0.178579
vt 0.807923 0.178094
vt 0.807923 0.177123
vt 0.391671 0.750727
vt 0.391671 0.750404
vt 0.392512 0.749919
vt 0.392792 0.750080
vt 0.809603 0.178094
vt 0.391671 0.754284
vt 0.391671 0.744906
vt 0.392965 0.744906
vt 0.392965 0.754284
vt 0.391671 0.750727
vt 0.392792 0.748787
vt 0.392792 0.750080
vt 0.390551 0.750080
vt 0.390551 0.748787
vt 0.391671 0.748140
vt 0.391671 0.754284
vt 0.391671 0.744906
vt 0.392965 0.744906
vt 0.392965 0.754284
vt 0.808763 0.177608
vt 0.808763 0.180519
vt 0.807793 0.180519
vt 0.807793 0.177608
vt 0.391671 0.754284
vt 0.391671 0.744906
vt 0.392965 0.744906
vt 0.392965 0.754284
vt 0.391671 0.754284
vt 0.391671 0.744906
vt 0.392965 0.744906
vt 0.392965 0.754284
vt 0.391671 0.754284
vt 0.391671 0.744906
vt 0.392965 0.744906
vt 0.392965 0.754284
vt 0.390831 0.748948
vt 0.390551 0.748787
vt 0.391671 0.748140
vt 0.391671 0.748463
vt 0.390831 0.749919
vt 0.390551 0.750080
vt 0.392792 0.748787
vt 0.392512 0.748948
vt 0.808763 0.177608
vt 0.808763 0.180519
vt 0.807793 0.180519
vt 0.807793 0.177608
vn -0.8660 0.5000 -0.0000
vn 0.8660 0.5000 -0.0000
vn -0.8660 -0.5000 -0.0000
vn 0.8660 -0.5000 0.0000
vn 0.0000 1.0000 0.0000
vn -0.0000 0.0000 1.0000
vn 0.0003 -0.0000 1.0000
vn -0.0000 0.0000 -1.0000
vn 0.0000 -1.0000 -0.0000
usemtl Steel_-_Satin.028
s 1
f 7/1/1 8/2/1 6/3/1 5/4/1
f 24/5/2 15/6/2 17/7/2 23/8/2
f 9/9/3 10/10/3 8/11/3 7/12/3
f 1/13/4 3/14/4 12/15/4 11/16/4
f 5/17/5 6/18/5 4/19/5 2/20/5
f 3/21/6 4/22/6 8/23/6 10/24/6
f 12/25/6 3/21/6 10/24/6
f 24/26/6 7/27/7 5/28/6 19/29/6
f 8/23/6 4/22/6 6/30/6
f 23/31/5 17/32/5 16/33/5 22/34/5
f 15/35/8 16/36/8 17/37/8
f 13/38/8 18/39/8 14/40/8
f 22/41/1 16/42/1 14/43/1 21/44/1
f 2/45/2 4/46/2 3/47/2 1/48/2
f 21/49/3 14/50/3 18/51/3 20/52/3
f 20/53/9 18/54/9 13/55/9 19/56/9
f 19/57/4 13/58/4 15/59/4 24/60/4
f 14/40/8 16/36/8 15/35/8 13/38/8
f 11/61/6 22/62/6 21/63/6 1/64/6
f 9/65/6 23/66/6 22/62/6 11/61/6
f 9/65/6 7/27/7 24/26/6 23/66/6
f 20/67/6 19/29/6 5/28/6 2/68/6
f 21/63/6 20/67/6 2/68/6 1/64/6
f 11/69/9 12/70/9 10/71/9 9/72/9
g Turret_Base
v 1.700000 0.041610 2.943976
v -3.400000 0.041610 -0.000505
v 3.400000 0.041611 -0.000506
v -1.700000 0.041610 -2.945000
v 1.700000 0.041610 -2.945000
v -1.700000 0.041610 2.943976
v 1.012954 3.101616 -1.754992
v 2.025896 3.101616 -0.000506
v 1.700000 1.741611 -2.945000
v 3.400000 1.741611 -0.000506
v 1.012955 3.101616 1.753981
v 1.700000 1.741611 2.943976
v -1.012955 3.101615 1.753981
v -1.700000 1.741610 2.943976
v -2.025910 3.101615 -0.000505
v -3.400000 1.741610 -0.000505
v -1.700000 1.741610 -2.945000
v -1.012955 3.101615 -1.754992
vt 0.388870 0.746774
vt 0.389695 0.747251
vt 0.388870 0.748680
vt 0.388044 0.748204
vt 0.388870 0.749327
vt 0.390255 0.746927
vt 0.390255 0.748527
vt 0.387485 0.748527
vt 0.387485 0.746927
vt 0.388870 0.746127
vt 0.389208 0.747458
vt 0.388890 0.748310
vt 0.387688 0.747256
vt 0.388491 0.746830
vt 0.389809 0.747469
vt 0.389092 0.748097
vt 0.388289 0.747671
vt 0.389492 0.746617
vt 0.389295 0.747327
vt 0.389295 0.748927
vt 0.388445 0.748604
vt 0.388445 0.747651
vt 0.389451 0.747783
vt 0.388248 0.748838
vt 0.387931 0.747985
vt 0.388647 0.747357
vt 0.388532 0.747996
vt 0.388849 0.747144
vt 0.390052 0.748198
vt 0.389249 0.748625
vt 0.388870 0.747887
vt 0.388870 0.747087
vt 0.390470 0.747087
vt 0.390470 0.747887
vt 0.388870 0.747887
vt 0.388870 0.747087
vt 0.390470 0.747087
vt 0.390470 0.747887
vt 0.388870 0.747887
vt 0.388870 0.747087
vt 0.390470 0.747087
vt 0.390470 0.747887
vt 0.388445 0.746527
vt 0.389295 0.746851
vt 0.389295 0.747804
vt 0.388445 0.748127
vt 0.389695 0.748204
vt 0.388044 0.747251
vt 0.388870 0.747887
vt 0.388870 0.747087
vt 0.390470 0.747087
vt 0.390470 0.747887
vt 0.388870 0.747887
vt 0.388870 0.747087
vt 0.390470 0.747087
vt 0.390470 0.747887
vt 0.388870 0.747887
vt 0.388870 0.747087
vt 0.390470 0.747087
vt 0.390470 0.747887
vn -0.0000 1.0000 -0.0000
vn 0.0000 -1.0000 -0.0000
vn 0.6518 0.6585 -0.3763
vn -0.6518 0.6585 -0.3763
vn -0.0000 0.6585 0.7526
vn 0.6518 0.6585 0.3763
vn -0.6518 0.6585 0.3763
vn -0.8660 -0.0000 0.5000
vn 0.8660 0.0000 0.5000
vn 0.0000 0.0000 -1.0000
vn -0.0000 0.6585 -0.7526
vn 0.8660 0.0000 -0.5000
vn 0.0000 0.0000 1.0000
vn -0.8660 -0.0000 -0.5000
usemtl Steel_-_Satin.011
s 1
f 39/73/10 37/74/10 32/75/10 31/76/10
f 27/77/11 28/78/11 29/79/11
f 25/80/11 30/81/11 26/82/11
f 32/83/12 34/84/12 33/85/12 31/86/12
f 39/87/13 42/88/13 41/89/13 40/90/13
f 38/91/14 36/92/14 35/93/14 37/94/14
f 36/95/15 34/96/15 32/97/15 35/98/15
f 39/99/16 40/100/16 38/101/16 37/102/16
f 40/103/17 26/104/17 30/105/17 38/106/17
f 36/107/18 25/108/18 27/109/18 34/110/18
f 33/111/19 29/112/19 28/113/19 41/114/19
f 41/115/20 42/116/20 31/117/20 33/118/20
f 32/75/10 37/74/10 35/119/10
f 31/76/10 42/120/10 39/73/10
f 34/121/21 27/122/21 29/123/21 33/124/21
f 38/125/22 30/126/22 25/127/22 36/128/22
f 26/82/11 28/78/11 27/77/11 25/80/11
f 41/129/23 28/130/23 26/131/23 40/132/23
