# Blender v2.93.0 OBJ File: 'w1 EXPORT FILE extra.blend'
# www.blender.org
mtllib Turret 1.mtl
g Turret_Barrel
v -0.663581 3.147189 5.098987
v -0.332080 2.573014 5.098995
v -0.663571 3.147189 3.109983
v -0.332085 2.573014 3.109982
v 0.330914 2.573014 5.098988
v 0.330924 2.573014 3.109983
v 0.662423 3.147189 5.098981
v 0.662424 3.147189 3.109992
v 0.330914 3.721364 5.098988
v 0.330924 3.721364 3.109984
v -0.332080 3.721364 5.098995
v -0.332085 3.721364 3.109982
v 0.441414 2.381626 -0.010020
v -0.884590 3.147190 -0.010013
v 0.883422 3.147190 -0.010011
v -0.442582 3.912753 -0.010005
v 0.441413 3.912753 -0.010019
v -0.442582 2.381626 -0.010005
v 0.441422 2.381625 5.098988
v -0.442580 2.381625 5.098979
v -0.884581 3.147189 5.098994
v -0.442580 3.912753 5.098979
v 0.441422 3.912752 5.098989
v 0.883416 3.147189 5.098989
v -0.597281 3.032354 5.098989
v -0.530980 2.917519 5.098990
v -0.464680 2.802684 5.098991
v -0.398380 2.687849 5.098993
v -0.597274 3.032354 3.109983
v -0.530977 2.917519 3.109982
v -0.464679 2.802684 3.109982
v -0.398382 2.687849 3.109982
v 0.596121 3.262024 5.098982
v 0.529819 3.376859 5.098984
v 0.463518 3.491694 5.098985
v 0.397216 3.606529 5.098986
v 0.596124 3.262024 3.109990
v 0.529824 3.376859 3.109988
v 0.463524 3.491694 3.109987
v 0.397224 3.606529 3.109985
v 0.795020 3.300303 -0.010013
v 0.706618 3.453415 -0.010014
v 0.618217 3.606528 -0.010016
v 0.529815 3.759641 -0.010017
v -0.796188 2.994077 -0.010011
v -0.707787 2.840964 -0.010010
v -0.619385 2.687851 -0.010008
v -0.530984 2.534739 -0.010007
v -0.530980 2.534738 5.098982
v -0.619380 2.687850 5.098986
v -0.707781 2.840963 5.098989
v -0.796181 2.994076 5.098991
v 0.529821 3.759640 5.098989
v 0.618219 3.606527 5.098989
v 0.706618 3.453414 5.098989
v 0.795017 3.300302 5.098989
vt 0.394125 0.303879
vt 0.394125 0.306789
vt 0.393155 0.306789
vt 0.393155 0.303879
vt 0.388812 0.356264
vt 0.388812 0.346886
vt 0.389070 0.346886
vt 0.389070 0.356264
vt 0.393349 0.303879
vt 0.393349 0.306789
vt 0.393155 0.306789
vt 0.393155 0.303879
vt 0.394125 0.303879
vt 0.394125 0.306789
vt 0.393155 0.306789
vt 0.393155 0.303879
vt 0.394125 0.303879
vt 0.394125 0.306789
vt 0.393155 0.306789
vt 0.393155 0.303879
vt 0.394797 0.303297
vt 0.394965 0.303394
vt 0.394125 0.304849
vt 0.393957 0.304752
vt 0.393285 0.303394
vt 0.394125 0.302909
vt 0.393285 0.304364
vt 0.853188 0.198080
vt 0.853188 0.197757
vt 0.854028 0.197271
vt 0.854308 0.197433
vt 0.394965 0.304364
vt 0.853188 0.201637
vt 0.853188 0.192259
vt 0.854481 0.192259
vt 0.854481 0.201637
vt 0.853188 0.198080
vt 0.854308 0.196140
vt 0.854308 0.197433
vt 0.854084 0.197562
vt 0.853860 0.197692
vt 0.853636 0.197821
vt 0.853412 0.197951
vt 0.852068 0.197433
vt 0.852068 0.196140
vt 0.852292 0.196010
vt 0.852516 0.195881
vt 0.852740 0.195752
vt 0.852964 0.195622
vt 0.853188 0.195493
vt 0.853188 0.201637
vt 0.853188 0.192259
vt 0.854481 0.192259
vt 0.854481 0.201637
vt 0.393349 0.303879
vt 0.393349 0.306789
vt 0.393155 0.306789
vt 0.393155 0.303879
vt 0.388812 0.356264
vt 0.388812 0.346886
vt 0.389070 0.346886
vt 0.389070 0.356264
vt 0.853188 0.201637
vt 0.853188 0.192259
vt 0.854481 0.192259
vt 0.854481 0.201637
vt 0.853188 0.201637
vt 0.853188 0.192259
vt 0.854481 0.192259
vt 0.854481 0.201637
vt 0.852348 0.196301
vt 0.852068 0.196140
vt 0.853188 0.195493
vt 0.853188 0.195816
vt 0.852348 0.197271
vt 0.852068 0.197433
vt 0.853020 0.197659
vt 0.852964 0.197951
vt 0.854308 0.196140
vt 0.854028 0.196301
vt 0.388673 0.350637
vt 0.388897 0.350766
vt 0.388617 0.350928
vt 0.388449 0.350831
vt 0.394125 0.303879
vt 0.394125 0.306789
vt 0.393155 0.306789
vt 0.393155 0.303879
vt 0.853412 0.195622
vt 0.853356 0.195913
vt 0.388001 0.350249
vt 0.388225 0.350378
vt 0.388113 0.350637
vt 0.387945 0.350540
vt 0.853636 0.195752
vt 0.853860 0.195881
vt 0.853692 0.196107
vt 0.853524 0.196010
vt 0.854084 0.196010
vt 0.853860 0.196204
vt 0.386937 0.351898
vt 0.387105 0.351995
vt 0.386881 0.352189
vt 0.386657 0.352060
vt 0.852516 0.197368
vt 0.852684 0.197465
vt 0.852516 0.197692
vt 0.852292 0.197563
vt 0.852852 0.197562
vt 0.852740 0.197821
vt 0.387441 0.352189
vt 0.387609 0.352286
vt 0.387553 0.352577
vt 0.387329 0.352448
vt 0.853188 0.201637
vt 0.853188 0.192259
vt 0.853447 0.192259
vt 0.853447 0.201637
vt 0.388035 0.356264
vt 0.388036 0.346886
vt 0.388294 0.346886
vt 0.388294 0.356264
vt 0.853705 0.201637
vt 0.853705 0.192259
vt 0.853964 0.192259
vt 0.853964 0.201637
vt 0.854223 0.192259
vt 0.854223 0.201637
vt 0.394125 0.303879
vt 0.394125 0.306789
vt 0.393931 0.306789
vt 0.393931 0.303879
vt 0.393737 0.306789
vt 0.393737 0.303879
vt 0.393543 0.306789
vt 0.393543 0.303879
vt 0.394293 0.303006
vt 0.393453 0.304461
vt 0.394461 0.303103
vt 0.393621 0.304558
vt 0.394629 0.303200
vt 0.393789 0.304655
vt 0.394125 0.303879
vt 0.394125 0.306789
vt 0.393931 0.306789
vt 0.393931 0.303879
vt 0.393737 0.306789
vt 0.393737 0.303879
vt 0.393543 0.306789
vt 0.393543 0.303879
vt 0.853188 0.201637
vt 0.853188 0.192259
vt 0.853447 0.192259
vt 0.853447 0.201637
vt 0.388035 0.356264
vt 0.388036 0.346886
vt 0.388294 0.346886
vt 0.388294 0.356264
vt 0.853705 0.201637
vt 0.853705 0.192259
vt 0.853964 0.192259
vt 0.853964 0.201637
vt 0.854223 0.192259
vt 0.854223 0.201637
vn -0.8660 0.5000 -0.0000
vn 0.8660 0.5000 -0.0000
vn -0.8660 -0.5000 -0.0000
vn 0.8660 -0.5000 0.0000
vn 0.0000 1.0000 0.0000
vn -0.0000 0.0000 1.0000
vn 0.0003 -0.0000 1.0000
vn -0.0000 0.0000 -1.0000
vn 0.0000 -1.0000 -0.0000
usemtl Material
s 1
f 7/1/1 8/2/1 6/3/1 5/4/1
f 53/5/2 44/6/2 17/7/2 23/8/2
f 33/9/3 37/10/3 8/11/3 7/12/3
f 1/13/4 3/14/4 12/15/4 11/16/4
f 5/17/5 6/18/5 4/19/5 2/20/5
f 32/21/6 4/22/6 8/23/6 37/24/6
f 12/25/6 3/26/6 10/27/6
f 24/28/6 7/29/7 5/30/6 19/31/6
f 8/23/6 4/22/6 6/32/6
f 23/33/5 17/34/5 16/35/5 22/36/5
f 15/37/8 16/38/8 17/39/8 44/40/8 43/41/8 42/42/8 41/43/8
f 13/44/8 18/45/8 48/46/8 47/47/8 46/48/8 45/49/8 14/50/8
f 22/51/1 16/52/1 14/53/1 21/54/1
f 25/55/2 29/56/2 3/57/2 1/58/2
f 49/59/3 48/60/3 18/61/3 20/62/3
f 20/63/9 18/64/9 13/65/9 19/66/9
f 19/67/4 13/68/4 15/69/4 24/70/4
f 14/50/8 16/38/8 15/37/8 13/44/8
f 11/71/6 22/72/6 21/73/6 1/74/6
f 9/75/6 23/76/6 22/72/6 11/71/6
f 33/77/6 7/29/7 24/28/6 56/78/6
f 20/79/6 19/31/6 5/30/6 2/80/6
f 49/81/6 20/82/6 2/83/6 28/84/6
f 11/85/9 12/86/9 10/87/9 9/88/9
f 21/73/6 52/89/6 25/90/6 1/74/6
f 52/91/6 51/92/6 26/93/6 25/94/6
f 51/95/6 50/96/6 27/97/6 26/98/6
f 50/96/6 49/99/6 28/100/6 27/97/6
f 9/101/6 36/102/6 53/103/6 23/104/6
f 36/105/6 35/106/6 54/107/6 53/108/6
f 35/106/6 34/109/6 55/110/6 54/107/6
f 34/111/6 33/112/6 56/113/6 55/114/6
f 21/115/3 14/116/3 45/117/3 52/118/3
f 52/119/3 45/120/3 46/121/3 51/122/3
f 51/123/3 46/124/3 47/125/3 50/126/3
f 50/126/3 47/125/3 48/127/3 49/128/3
f 2/129/2 4/130/2 32/131/2 28/132/2
f 28/132/2 32/131/2 31/133/2 27/134/2
f 27/134/2 31/133/2 30/135/2 26/136/2
f 26/136/2 30/135/2 29/56/2 25/55/2
f 3/26/6 29/137/6 40/138/6 10/27/6
f 29/137/6 30/139/6 39/140/6 40/138/6
f 30/139/6 31/141/6 38/142/6 39/140/6
f 31/141/6 32/21/6 37/24/6 38/142/6
f 9/143/3 10/144/3 40/145/3 36/146/3
f 36/146/3 40/145/3 39/147/3 35/148/3
f 35/148/3 39/147/3 38/149/3 34/150/3
f 34/150/3 38/149/3 37/10/3 33/9/3
f 24/151/2 15/152/2 41/153/2 56/154/2
f 56/155/2 41/156/2 42/157/2 55/158/2
f 55/159/2 42/160/2 43/161/2 54/162/2
f 54/162/2 43/161/2 44/163/2 53/164/2
g Turret_Base
v 1.530000 0.058255 2.649579
v -3.060000 0.058254 -0.000455
v 3.060000 0.058255 -0.000455
v -1.530000 0.058254 -2.650500
v 1.530000 0.058255 -2.650500
v -1.530000 0.058254 2.649579
v 0.911659 4.342262 -1.579493
v 1.823307 4.342262 -0.000455
v 1.530000 2.038255 -2.650500
v 3.060000 2.038255 -0.000455
v 0.911659 4.342262 1.578583
v 1.530000 2.038255 2.649579
v -0.911659 4.342261 1.578583
v -1.530000 2.038254 2.649579
v -1.823319 4.342261 -0.000455
v -3.060000 2.038253 -0.000455
v -1.530000 2.038254 -2.650500
v -0.911660 4.342261 -1.579493
v -3.060000 0.562654 -0.000455
v -3.060000 0.753054 -0.000455
v -3.060000 0.943454 -0.000455
v -3.060000 1.133854 -0.000455
v -1.530000 1.402654 -2.650500
v -1.530000 1.593054 -2.650500
v -1.530000 1.783454 -2.650500
v -1.530001 1.973854 -2.650500
v 1.530000 1.402654 -2.650501
v 1.530000 1.593054 -2.650501
v 1.530000 1.783455 -2.650501
v 1.530000 1.973855 -2.650501
v 3.060001 0.562655 -0.000455
v 3.060001 0.753055 -0.000455
v 3.060001 0.943455 -0.000455
v 3.060001 1.133855 -0.000455
v 1.530001 1.402654 2.649579
v 1.530001 1.593054 2.649579
v 1.530000 1.783455 2.649579
v 1.530000 1.973855 2.649579
v -1.530000 1.402654 2.649579
v -1.530000 1.593054 2.649579
v -1.530000 1.783454 2.649579
v -1.530000 1.973854 2.649579
v 1.131411 3.665596 -1.960119
v 1.165340 3.561124 -2.018885
v 1.195149 3.469335 -2.070516
v 1.305650 3.129076 -2.261912
v 2.243782 3.694900 -0.000455
v 2.317984 3.580660 -0.000455
v 2.367452 3.504499 -0.000455
v 2.456494 3.367410 -0.000455
v 0.996479 4.081085 1.725494
v 1.136863 3.648810 1.968647
v 1.168974 3.549933 2.024265
v 1.201691 3.449190 2.080932
v -0.996479 4.081084 1.725494
v -1.136863 3.648809 1.968647
v -1.168974 3.549932 2.024265
v -1.201691 3.449190 2.080932
v -2.243790 3.694899 -0.000455
v -2.317991 3.580658 -0.000455
v -2.367458 3.504498 -0.000455
v -2.456500 3.367409 -0.000455
v -1.305651 3.129076 -2.261912
v -1.195149 3.469334 -2.070516
v -1.165340 3.561122 -2.018885
v -1.131412 3.665596 -1.960119
vt 0.858176 0.191263
vt 0.859001 0.191740
vt 0.858176 0.193170
vt 0.857350 0.192693
vt 0.858176 0.193816
vt 0.859561 0.191417
vt 0.859561 0.193016
vt 0.856790 0.193016
vt 0.856790 0.191417
vt 0.858176 0.190617
vt 0.857875 0.192648
vt 0.858196 0.192800
vt 0.856993 0.191745
vt 0.857672 0.192045
vt 0.858477 0.191786
vt 0.857973 0.191725
vt 0.857595 0.192161
vt 0.858798 0.191106
vt 0.858266 0.192576
vt 0.857965 0.192521
vt 0.857751 0.193093
vt 0.857751 0.192140
vt 0.857875 0.192501
vt 0.857237 0.192475
vt 0.857953 0.191846
vt 0.858155 0.191633
vt 0.859358 0.192688
vt 0.858541 0.192451
vt 0.858176 0.191737
vt 0.858176 0.191577
vt 0.859775 0.191577
vt 0.859775 0.191737
vt 0.858176 0.191737
vt 0.858176 0.191577
vt 0.859775 0.191577
vt 0.859775 0.191737
vt 0.858176 0.191737
vt 0.858176 0.191577
vt 0.859775 0.191577
vt 0.859775 0.191737
vt 0.858206 0.191830
vt 0.858601 0.191340
vt 0.858601 0.192293
vt 0.857905 0.191939
vt 0.859001 0.192693
vt 0.857350 0.191740
vt 0.858176 0.191737
vt 0.858176 0.191577
vt 0.859775 0.191577
vt 0.859775 0.191737
vt 0.858176 0.191737
vt 0.858176 0.191577
vt 0.859775 0.191577
vt 0.859775 0.191737
vt 0.858176 0.191737
vt 0.858176 0.191577
vt 0.859775 0.191577
vt 0.859775 0.191737
vt 0.858176 0.192377
vt 0.858176 0.192217
vt 0.859775 0.192217
vt 0.859775 0.192377
vt 0.390817 0.361161
vt 0.390817 0.361001
vt 0.392417 0.361001
vt 0.392417 0.361161
vt 0.858176 0.192057
vt 0.858176 0.191897
vt 0.859775 0.191897
vt 0.859775 0.192057
vt 0.390817 0.360841
vt 0.390817 0.360681
vt 0.392417 0.360681
vt 0.392417 0.360841
vt 0.858176 0.192377
vt 0.858176 0.192217
vt 0.859775 0.192217
vt 0.859775 0.192377
vt 0.390817 0.361161
vt 0.390817 0.361001
vt 0.392417 0.361001
vt 0.392417 0.361161
vt 0.858176 0.192057
vt 0.858176 0.191897
vt 0.859775 0.191897
vt 0.859775 0.192057
vt 0.390817 0.360841
vt 0.390817 0.360681
vt 0.392417 0.360681
vt 0.392417 0.360841
vt 0.858176 0.192377
vt 0.858176 0.192217
vt 0.859775 0.192217
vt 0.859775 0.192377
vt 0.390817 0.361161
vt 0.390817 0.361001
vt 0.392417 0.361001
vt 0.392417 0.361161
vt 0.858176 0.192057
vt 0.858176 0.191897
vt 0.859775 0.191897
vt 0.859775 0.192057
vt 0.390817 0.360841
vt 0.390817 0.360681
vt 0.392417 0.360681
vt 0.392417 0.360841
vt 0.858176 0.192377
vt 0.858176 0.192217
vt 0.859775 0.192217
vt 0.859775 0.192377
vt 0.390817 0.361161
vt 0.390817 0.361001
vt 0.392417 0.361001
vt 0.392417 0.361161
vt 0.858176 0.192057
vt 0.858176 0.191897
vt 0.859775 0.191897
vt 0.859775 0.192057
vt 0.390817 0.360841
vt 0.390817 0.360681
vt 0.392417 0.360681
vt 0.392417 0.360841
vt 0.858176 0.192377
vt 0.858176 0.192217
vt 0.859775 0.192217
vt 0.859775 0.192377
vt 0.390817 0.361161
vt 0.390817 0.361001
vt 0.392417 0.361001
vt 0.392417 0.361161
vt 0.858176 0.192057
vt 0.858176 0.191897
vt 0.859775 0.191897
vt 0.859775 0.192057
vt 0.390817 0.360841
vt 0.390817 0.360681
vt 0.392417 0.360681
vt 0.392417 0.360841
vt 0.858176 0.192377
vt 0.858176 0.192217
vt 0.859775 0.192217
vt 0.859775 0.192377
vt 0.390817 0.361161
vt 0.390817 0.361001
vt 0.392417 0.361001
vt 0.392417 0.361161
vt 0.858176 0.192057
vt 0.858176 0.191897
vt 0.859775 0.191897
vt 0.859775 0.192057
vt 0.390817 0.360841
vt 0.390817 0.360681
vt 0.392417 0.360681
vt 0.392417 0.360841
vt 0.857751 0.191017
vt 0.857751 0.192616
vt 0.392561 0.357805
vt 0.392709 0.357872
vt 0.392409 0.358059
vt 0.392261 0.358125
vt 0.858121 0.191792
vt 0.858160 0.191810
vt 0.857860 0.191960
vt 0.857820 0.191978
vt 0.392749 0.357890
vt 0.392795 0.357911
vt 0.392494 0.358020
vt 0.392448 0.358040
vt 0.857838 0.192486
vt 0.858477 0.191932
vt 0.858555 0.193114
vt 0.393065 0.358013
vt 0.392554 0.358225
vt 0.393043 0.358571
vt 0.392855 0.358656
vt 0.857965 0.192145
vt 0.858477 0.191847
vt 0.858497 0.192471
vt 0.858454 0.192491
vt 0.393065 0.357928
vt 0.393065 0.357866
vt 0.393129 0.358532
vt 0.393086 0.358552
vt 0.858757 0.192273
vt 0.857554 0.193327
vt 0.858240 0.192646
vt 0.392829 0.358726
vt 0.392464 0.358728
vt 0.392464 0.358667
vt 0.392785 0.358706
vt 0.858196 0.192626
vt 0.857875 0.192586
vt 0.857363 0.192816
vt 0.858153 0.192606
vt 0.392742 0.358687
vt 0.391952 0.358896
vt 0.392464 0.358581
vt 0.392554 0.358602
vt 0.858601 0.191817
vt 0.858601 0.193416
vt 0.859115 0.191958
vt 0.858398 0.192587
vt 0.393577 0.357698
vt 0.858988 0.191617
vt 0.858514 0.191947
vt 0.857797 0.191319
vt 0.392975 0.358369
vt 0.858387 0.192288
vn -0.0000 1.0000 0.0000
vn 0.0000 -1.0000 -0.0000
vn 0.7893 0.4166 -0.4510
vn 0.8141 0.3526 -0.4615
vn 0.7932 0.4072 -0.4527
vn -0.7893 0.4166 -0.4510
vn -0.7932 0.4072 -0.4527
vn -0.8141 0.3526 -0.4615
vn -0.0000 0.4903 0.8716
vn 0.7548 0.4903 0.4358
vn -0.7852 0.4201 0.4549
vn -0.8034 0.3700 0.4665
vn -0.7841 0.4230 0.4542
vn -0.8660 -0.0000 0.5000
vn 0.8660 0.0000 0.5000
vn -0.0000 -0.0000 -1.0000
vn -0.0000 0.4903 -0.8716
vn 0.8660 -0.0000 -0.5000
vn 0.0000 -0.0000 1.0000
vn -0.8660 -0.0000 -0.5000
vn -0.0000 0.3356 -0.9420
vn -0.0000 0.4025 -0.9154
vn -0.7548 0.4903 0.4358
vn 0.8034 0.3700 0.4665
vn 0.7852 0.4201 0.4549
vn 0.7841 0.4230 0.4542
vn -0.0000 0.3738 0.9275
vn -0.0000 0.4237 0.9058
vn -0.7548 0.4903 -0.4358
vn 0.7548 0.4903 -0.4358
usemtl Material
s 1
f 71/165/10 69/166/10 64/167/10 63/168/10
f 59/169/11 60/170/11 61/171/11
f 57/172/11 62/173/11 58/174/11
f 106/175/12 66/176/13 65/177/13 102/178/14
f 118/179/15 119/180/16 73/181/17 72/182/17
f 111/183/18 107/184/18 67/185/18 69/186/18
f 107/184/19 103/187/19 64/188/19 67/189/19
f 118/179/20 72/190/21 70/191/21 114/192/22
f 75/193/23 58/194/23 62/195/23 95/196/23
f 91/197/24 57/198/24 59/199/24 87/200/24
f 83/201/25 61/202/25 60/203/25 79/204/25
f 122/205/26 74/206/26 63/207/26 99/208/26
f 64/167/10 69/166/10 67/209/10
f 63/168/10 74/210/10 71/165/10
f 87/211/27 59/212/27 61/213/27 83/214/27
f 95/215/28 62/216/28 57/217/28 91/218/28
f 58/174/11 60/170/11 59/169/11 57/172/11
f 79/219/29 60/220/29 58/221/29 75/222/29
f 73/223/29 82/224/29 78/225/29 72/226/29
f 82/227/29 81/228/29 77/229/29 78/230/29
f 81/231/29 80/232/29 76/233/29 77/234/29
f 80/235/29 79/236/29 75/237/29 76/238/29
f 70/239/28 98/240/28 94/241/28 68/242/28
f 98/243/28 97/244/28 93/245/28 94/246/28
f 97/247/28 96/248/28 92/249/28 93/250/28
f 96/251/28 95/252/28 91/253/28 92/254/28
f 66/255/27 90/256/27 86/257/27 65/258/27
f 90/259/27 89/260/27 85/261/27 86/262/27
f 89/263/27 88/264/27 84/265/27 85/266/27
f 88/267/27 87/268/27 83/269/27 84/270/27
f 65/271/25 86/272/25 82/273/25 73/274/25
f 86/275/25 85/276/25 81/277/25 82/278/25
f 85/279/25 84/280/25 80/281/25 81/282/25
f 84/283/25 83/284/25 79/285/25 80/286/25
f 68/287/24 94/288/24 90/289/24 66/290/24
f 94/291/24 93/292/24 89/293/24 90/294/24
f 93/295/24 92/296/24 88/297/24 89/298/24
f 92/299/24 91/300/24 87/301/24 88/302/24
f 72/303/23 78/304/23 98/305/23 70/306/23
f 78/307/23 77/308/23 97/309/23 98/310/23
f 77/311/23 76/312/23 96/313/23 97/314/23
f 76/315/23 75/316/23 95/317/23 96/318/23
f 73/319/30 119/180/31 102/178/31 65/320/30
f 119/321/31 120/322/26 101/323/26 102/324/31
f 120/325/26 121/326/26 100/327/26 101/328/26
f 121/329/26 122/330/26 99/331/26 100/332/26
f 71/333/32 115/334/32 111/183/32 69/335/32
f 115/336/32 116/337/32 112/338/32 111/339/32
f 116/340/32 117/341/32 113/342/32 112/343/32
f 117/344/32 118/345/20 114/346/22 113/347/32
f 68/348/33 66/349/33 106/175/34 110/350/35
f 110/351/35 106/352/34 105/353/19 109/354/19
f 109/355/19 105/356/19 104/357/19 108/358/19
f 108/359/19 104/360/19 103/361/19 107/362/19
f 70/363/36 68/364/36 110/350/37 114/192/37
f 114/346/37 110/351/37 109/354/18 113/347/18
f 113/342/18 109/355/18 108/358/18 112/343/18
f 112/338/18 108/359/18 107/362/18 111/339/18
f 71/365/38 74/366/38 122/205/38 115/334/38
f 115/336/38 122/330/38 121/329/38 116/367/38
f 116/368/38 121/326/38 120/325/38 117/341/38
f 117/344/38 120/322/38 119/321/16 118/345/15
f 64/369/39 103/187/39 99/208/39 63/370/39
f 103/361/39 104/371/39 100/332/39 99/331/39
f 104/372/39 105/356/39 101/328/39 100/327/39
f 105/353/39 106/352/12 102/324/14 101/323/39
