# Blender v2.90.1 OBJ File: ''
# www.blender.org
mtllib RF Billboard slant v8.mtl
o RF_Billboard_slant_v8
v -10.115911 0.044315 -3.088504
v -10.115911 5.544313 2.411497
v -11.115911 0.044315 -3.088504
v -11.115911 5.544313 2.411497
v 8.884089 5.544313 2.411497
v 8.884089 0.044315 -3.088504
v 9.884089 5.544313 2.411497
v 9.884089 0.044315 -3.088504
v -10.115911 5.615023 2.340788
v -10.115911 0.115024 -3.159213
v -11.115911 5.615023 2.340788
v -11.115911 0.115024 -3.159213
v 8.884089 0.115024 -3.159213
v 8.884089 5.615023 2.340788
v 9.884089 0.115024 -3.159213
v 9.884089 5.615023 2.340788
v -10.115911 0.044314 2.911496
v -10.115911 5.544313 2.911497
v -0.678044 -0.305692 -3.088504
v -4.553776 -0.305692 -3.088504
v -6.678044 -0.305692 -3.088504
v 9.234096 -0.305692 -3.088504
v 7.446224 -0.305692 -3.088504
v 5.321956 -0.305692 -3.088504
v 1.446224 -0.305692 -3.088504
v 2.446224 -1.305692 -3.088504
v 4.321956 -1.305692 -3.088504
v 9.234096 -1.305692 -3.088504
v 8.446223 -1.305692 -3.088504
v -1.678044 -1.305692 -3.088504
v -3.553776 -1.305692 -3.088504
v -10.509831 -0.349622 -3.088504
v -7.678044 -1.305692 -3.088504
v -9.553777 -1.305692 -3.088504
v 8.884089 0.044314 2.911496
v 8.884089 5.544313 2.911497
v 7.446224 -0.305693 2.911496
v 9.234096 -0.305693 2.911496
v 8.446223 -1.305693 2.911496
v 9.234096 -1.305693 2.911496
v 5.321956 -0.305693 2.911496
v 1.446224 -0.305693 2.911496
v -0.678044 -0.305693 2.911496
v -4.553776 -0.305693 2.911496
v -6.678044 -0.305693 2.911496
v -10.509831 -0.349623 2.911496
v -9.553777 -1.305693 2.911496
v -7.678044 -1.305693 2.911496
v -3.553776 -1.305693 2.911496
v -1.678044 -1.305693 2.911496
v 2.446224 -1.305693 2.911496
v 4.321956 -1.305693 2.911496
v 9.384089 -1.455685 -2.938510
v 9.384089 -0.455685 -2.938510
v 8.384089 -1.455685 -2.938510
v 7.384090 -0.455685 -2.938510
v 5.384090 -0.455685 -2.938510
v 4.384090 -1.455685 -2.938510
v 2.384090 -1.455685 -2.938510
v 1.384090 -0.455685 -2.938510
v -0.615910 -0.455685 -2.938510
v -1.615910 -1.455685 -2.938510
v -3.615910 -1.455685 -2.938510
v -4.615910 -0.455685 -2.938510
v -6.615910 -0.455685 -2.938510
v -7.615910 -1.455685 -2.938510
v -10.615911 -0.455685 -2.938510
v -9.615911 -1.455685 -2.938510
v 9.384089 -1.455686 2.761502
v 9.384089 -0.455686 2.761502
v 8.384089 -1.455686 2.761502
v 7.384090 -0.455686 2.761502
v 5.384090 -0.455686 2.761502
v 4.384090 -1.455686 2.761502
v 2.384090 -1.455686 2.761502
v 1.384090 -0.455686 2.761502
v -0.615910 -0.455686 2.761502
v -1.615910 -1.455686 2.761502
v -3.615910 -1.455686 2.761502
v -4.615910 -0.455686 2.761502
v -6.615910 -0.455686 2.761502
v -7.615910 -1.455686 2.761502
v -9.615911 -1.455686 2.761502
v -10.615911 -0.455686 2.761502
vt -0.000000 -1.900000
vt -0.777817 -1.900000
vt -0.000000 -2.000000
vt -0.777817 -2.000000
vt -0.777817 0.000000
vt -0.000000 0.000000
vt -0.777817 0.100000
vt -0.000000 0.100000
vt 0.000000 -1.900000
vt -0.777817 -1.900000
vt 0.000000 -2.000000
vt -0.777817 -2.000000
vt -0.271464 0.278536
vt -0.278536 0.271464
vt 0.278536 -0.271464
vt 0.271464 -0.278536
vt -0.777817 0.000000
vt -0.000000 0.000000
vt -0.777817 0.100000
vt -0.000000 0.100000
vt 0.271464 0.278536
vt -0.278536 -0.271464
vt 0.278536 0.271464
vt -0.271464 -0.278536
vt -0.600000 0.000000
vt 0.000000 -0.000000
vt -0.050000 0.550000
vt 0.000000 0.550000
vt -0.000000 -0.000000
vt -1.900000 0.010000
vt -1.900000 -0.000000
vt -2.000000 0.010000
vt -2.000000 -0.000000
vt -0.000000 0.010000
vt 0.100000 -0.000000
vt 0.100000 0.010000
vt -0.000000 0.000000
vt -1.900000 0.010000
vt -1.900000 0.000000
vt -2.000000 0.010000
vt -2.000000 0.000000
vt -0.000000 0.010000
vt 0.100000 0.000000
vt 0.100000 0.010000
vt -1.425000 -0.388909
vt 0.475000 -0.388909
vt -1.425000 0.388909
vt 0.475000 0.388909
vt 0.950000 -0.075000
vt -0.006213 -0.040000
vt -0.950000 -0.075000
vt -0.393787 -0.040000
vt -0.606213 -0.040000
vt 0.985000 -0.040000
vt 0.806213 -0.040000
vt 0.593787 -0.040000
vt 0.206213 -0.040000
vt 0.306213 0.060000
vt 0.493787 0.060000
vt 0.985000 0.060000
vt 0.906213 0.060000
vt -0.106213 0.060000
vt -0.293787 0.060000
vt -0.989393 -0.035607
vt -0.706213 0.060000
vt -0.893787 0.060000
vt -0.550000 0.550000
vt -0.600000 -0.000000
vt -0.600000 0.550000
vt -1.900000 0.550000
vt -0.000000 0.550000
vt -1.900000 0.600000
vt -0.000000 0.600000
vt -0.075000 0.950000
vt -0.040000 0.806213
vt -0.040000 0.985000
vt 0.060000 0.906213
vt 0.060000 0.985000
vt -0.040000 0.593787
vt -0.625000 0.950000
vt -0.040000 0.206213
vt -0.040000 -0.006213
vt -0.625000 -0.950000
vt -0.040000 -0.393787
vt -0.040000 -0.606213
vt -0.075000 -0.950000
vt -0.035607 -0.989393
vt 0.060000 -0.893787
vt 0.060000 -0.706213
vt 0.060000 -0.293787
vt 0.060000 -0.106213
vt 0.060000 0.306213
vt 0.060000 0.493787
vt -0.087500 0.010607
vt -0.072500 -0.010607
vt 0.012500 0.010607
vt 0.027500 -0.010607
vt 0.406213 -0.010607
vt 0.485000 -0.010607
vt 0.400000 0.010607
vt 0.500000 0.010607
vt 0.197080 -0.010607
vt 0.338501 -0.010607
vt 0.203293 0.010607
vt 0.344715 0.010607
vt 0.193787 -0.010607
vt 0.406213 -0.010607
vt 0.200000 0.010607
vt 0.400000 0.010607
vt 0.227184 -0.010607
vt 0.220971 0.010607
vt 0.085763 -0.010607
vt 0.079550 0.010607
vt 0.056213 -0.010607
vt 0.243787 -0.010607
vt 0.050000 0.010607
vt 0.250000 0.010607
vt -0.015052 -0.010607
vt 0.126369 -0.010607
vt -0.008839 0.010607
vt 0.132583 0.010607
vt -0.106213 -0.010607
vt 0.106213 -0.010607
vt -0.100000 0.010607
vt 0.100000 0.010607
vt 0.015052 -0.010607
vt 0.008839 0.010607
vt -0.126369 -0.010607
vt -0.132583 0.010607
vt -0.243787 -0.010607
vt -0.056213 -0.010607
vt -0.250000 0.010607
vt -0.050000 0.010607
vt -0.227184 -0.010607
vt -0.085763 -0.010607
vt -0.220971 0.010607
vt -0.079550 0.010607
vt -0.406213 -0.010607
vt -0.193787 -0.010607
vt -0.400000 0.010607
vt -0.200000 0.010607
vt -0.197080 -0.010607
vt -0.203293 0.010607
vt -0.338501 -0.010607
vt -0.344715 0.010607
vt -0.433103 -0.010607
vt -0.297895 -0.010607
vt -0.433103 0.010607
vt -0.291682 0.010607
vt -0.543787 -0.010607
vt -0.356213 -0.010607
vt -0.550000 0.010607
vt -0.350000 0.010607
vt -0.100000 0.015000
vt -0.000000 0.015000
vt -0.100000 0.585000
vt -0.000000 0.585000
vt -0.100000 0.015000
vt -0.000000 0.015000
vt -0.100000 0.585000
vt -0.000000 0.585000
vt -0.141421 0.015000
vt 0.000000 0.015000
vt -0.141421 0.585000
vt 0.000000 0.585000
vt -0.200000 0.015000
vt -0.000000 0.015000
vt -0.200000 0.585000
vt -0.000000 0.585000
vt -0.141421 0.015000
vt -0.000000 0.015000
vt -0.141421 0.585000
vt -0.000000 0.585000
vt -0.200000 0.015000
vt -0.000000 0.015000
vt -0.200000 0.585000
vt -0.000000 0.585000
vt -0.141421 0.015000
vt 0.000000 0.015000
vt -0.141421 0.585000
vt 0.000000 0.585000
vt -0.200000 0.015000
vt -0.000000 0.015000
vt -0.200000 0.585000
vt -0.000000 0.585000
vt -0.141421 0.015000
vt -0.000000 0.015000
vt -0.141421 0.585000
vt -0.000000 0.585000
vt -0.200000 0.015000
vt -0.000000 0.015000
vt -0.200000 0.585000
vt -0.000000 0.585000
vt -0.141421 0.015000
vt 0.000000 0.015000
vt -0.141421 0.585000
vt 0.000000 0.585000
vt -0.200000 0.015000
vt -0.000000 0.015000
vt -0.200000 0.585000
vt -0.000000 0.585000
vt -0.141421 0.015000
vt -0.000000 0.015000
vt -0.141421 0.585000
vt -0.000000 0.585000
vt -0.200000 0.015000
vt -0.000000 0.015000
vt -0.200000 0.585000
vt -0.000000 0.585000
vt -0.141421 0.015000
vt 0.000000 0.015000
vt -0.141421 0.585000
vt 0.000000 0.585000
vt -0.070711 0.000000
vt -0.015000 0.000000
vt -0.015000 0.600000
vt 0.000000 0.015000
vt 0.000000 0.585000
vt -0.070711 0.600000
vt -0.291682 -0.010607
vt -0.297895 0.010607
vt -0.433103 -0.010607
vt -0.433103 0.010607
vt -0.550000 -0.010607
vt -0.350000 -0.010607
vt -0.543787 0.010607
vt -0.356213 0.010607
vt -0.344715 -0.010607
vt -0.203293 -0.010607
vt -0.338501 0.010607
vt -0.197080 0.010607
vt -0.400000 -0.010607
vt -0.200000 -0.010607
vt -0.406213 0.010607
vt -0.193787 0.010607
vt -0.079550 -0.010607
vt -0.085763 0.010607
vt -0.220971 -0.010607
vt -0.227184 0.010607
vt -0.250000 -0.010607
vt -0.050000 -0.010607
vt -0.243787 0.010607
vt -0.056213 0.010607
vt -0.132583 -0.010607
vt 0.008839 -0.010607
vt -0.126369 0.010607
vt 0.015052 0.010607
vt -0.100000 -0.010607
vt 0.100000 -0.010607
vt -0.106213 0.010607
vt 0.106213 0.010607
vt 0.132583 -0.010607
vt 0.126369 0.010607
vt -0.008839 -0.010607
vt -0.015052 0.010607
vt 0.050000 -0.010607
vt 0.250000 -0.010607
vt 0.056213 0.010607
vt 0.243787 0.010607
vt 0.079550 -0.010607
vt 0.220971 -0.010607
vt 0.085763 0.010607
vt 0.227184 0.010607
vt 0.200000 -0.010607
vt 0.400000 -0.010607
vt 0.193787 0.010607
vt 0.406213 0.010607
vt 0.344715 -0.010607
vt 0.338501 0.010607
vt 0.203293 -0.010607
vt 0.197080 0.010607
vt 0.500000 -0.010607
vt 0.485000 0.010607
vt 0.400000 -0.010607
vt 0.406213 0.010607
vt 0.027500 0.010607
vt -0.072500 0.010607
vt 0.012500 -0.010607
vt -0.087500 -0.010607
vt -0.070711 0.585000
vt -0.070711 0.015000
vt -0.049497 0.600000
vt -0.049497 -0.000000
vt -0.000000 0.600000
vn 0.0000 -0.7071 0.7071
vn 0.0000 0.7071 -0.7071
vn -1.0000 0.0000 0.0000
vn 1.0000 0.0000 0.0000
vn 0.0000 -0.7071 -0.7071
vn 0.0000 0.7071 0.7071
vn 0.0000 0.0000 -1.0000
vn 0.0000 1.0000 0.0000
vn 0.0000 -0.0000 1.0000
vn 0.7071 0.0000 -0.7071
vn -0.5000 -0.5000 -0.7071
vn 0.5000 -0.5000 -0.7071
vn 0.0000 -1.0000 -0.0000
vn -0.7071 -0.7071 -0.0000
vn 0.7071 -0.7071 -0.0000
vn -0.7071 0.7071 0.0000
vn -0.7075 0.7067 0.0000
vn -0.7071 0.7072 0.0000
vn -0.5000 -0.5000 0.7071
vn 0.5000 -0.5000 0.7071
vn 0.7071 -0.0000 0.7071
vn 0.7071 0.7071 0.0000
vn 0.7074 0.7068 0.0000
usemtl Steel_-_Satin
s 1
f 1/1/1 2/2/1 3/3/1
f 3/3/1 2/2/1 4/4/1
f 5/5/1 6/6/1 7/7/1
f 7/7/1 6/6/1 8/8/1
f 9/9/2 10/10/2 11/11/2
f 11/11/2 10/10/2 12/12/2
f 4/13/3 11/14/3 3/15/3
f 3/15/3 11/14/3 12/16/3
f 13/17/2 14/18/2 15/19/2
f 15/19/2 14/18/2 16/20/2
f 7/21/4 8/22/4 16/23/4
f 16/23/4 8/22/4 15/24/4
f 1/25/3 17/26/3 2/27/3
f 2/27/3 17/26/3 18/28/3
f 1/29/5 13/30/5 6/31/5
f 6/31/5 13/30/5 15/32/5
f 6/31/5 15/32/5 8/33/5
f 13/30/5 1/29/5 10/34/5
f 10/34/5 1/29/5 3/35/5
f 10/34/5 3/35/5 12/36/5
f 5/37/6 9/38/6 2/39/6
f 2/39/6 9/38/6 11/40/6
f 2/39/6 11/40/6 4/41/6
f 9/38/6 5/37/6 14/42/6
f 14/42/6 5/37/6 7/43/6
f 14/42/6 7/43/6 16/44/6
f 13/45/2 10/46/2 14/47/2
f 14/47/2 10/46/2 9/48/2
f 6/49/7 19/50/7 1/51/7
f 1/51/7 19/50/7 20/52/7
f 1/51/7 20/52/7 21/53/7
f 22/54/7 23/55/7 6/49/7
f 6/49/7 23/55/7 24/56/7
f 6/49/7 24/56/7 25/57/7
f 25/57/7 24/56/7 26/58/7
f 26/58/7 24/56/7 27/59/7
f 28/60/7 29/61/7 22/54/7
f 22/54/7 29/61/7 23/55/7
f 25/57/7 19/50/7 6/49/7
f 30/62/7 31/63/7 19/50/7
f 19/50/7 31/63/7 20/52/7
f 1/51/7 21/53/7 32/64/7
f 32/64/7 21/53/7 33/65/7
f 32/64/7 33/65/7 34/66/7
f 6/6/4 5/67/4 35/68/4
f 35/68/4 5/67/4 36/69/4
f 5/70/8 2/71/8 36/72/8
f 36/72/8 2/71/8 18/73/8
f 35/74/9 37/75/9 38/76/9
f 38/76/9 37/75/9 39/77/9
f 38/76/9 39/77/9 40/78/9
f 37/75/9 35/74/9 41/79/9
f 41/79/9 35/74/9 36/80/9
f 41/79/9 36/80/9 42/81/9
f 42/81/9 36/80/9 43/82/9
f 43/82/9 36/80/9 18/83/9
f 43/82/9 18/83/9 44/84/9
f 44/84/9 18/83/9 45/85/9
f 45/85/9 18/83/9 17/86/9
f 45/85/9 17/86/9 46/87/9
f 47/88/9 48/89/9 46/87/9
f 46/87/9 48/89/9 45/85/9
f 44/84/9 49/90/9 43/82/9
f 43/82/9 49/90/9 50/91/9
f 51/92/9 52/93/9 42/81/9
f 42/81/9 52/93/9 41/79/9
f 53/94/10 28/95/10 54/96/10
f 54/96/10 28/95/10 22/97/10
f 29/98/5 28/99/5 55/100/5
f 55/100/5 28/99/5 53/101/5
f 23/102/11 29/103/11 56/104/11
f 56/104/11 29/103/11 55/105/11
f 24/106/5 23/107/5 57/108/5
f 57/108/5 23/107/5 56/109/5
f 24/110/12 57/111/12 27/112/12
f 27/112/12 57/111/12 58/113/12
f 26/114/5 27/115/5 59/116/5
f 59/116/5 27/115/5 58/117/5
f 25/118/11 26/119/11 60/120/11
f 60/120/11 26/119/11 59/121/11
f 19/122/5 25/123/5 61/124/5
f 61/124/5 25/123/5 60/125/5
f 19/126/12 61/127/12 30/128/12
f 30/128/12 61/127/12 62/129/12
f 31/130/5 30/131/5 63/132/5
f 63/132/5 30/131/5 62/133/5
f 20/134/11 31/135/11 64/136/11
f 64/136/11 31/135/11 63/137/11
f 21/138/5 20/139/5 65/140/5
f 65/140/5 20/139/5 64/141/5
f 21/142/12 65/143/12 33/144/12
f 33/144/12 65/143/12 66/145/12
f 32/146/11 34/147/11 67/148/11
f 67/148/11 34/147/11 68/149/11
f 34/150/5 33/151/5 68/152/5
f 68/152/5 33/151/5 66/153/5
f 53/154/4 54/155/4 69/156/4
f 69/156/4 54/155/4 70/157/4
f 55/158/13 53/159/13 71/160/13
f 71/160/13 53/159/13 69/161/13
f 56/162/14 55/163/14 72/164/14
f 72/164/14 55/163/14 71/165/14
f 57/166/13 56/167/13 73/168/13
f 73/168/13 56/167/13 72/169/13
f 58/170/15 57/171/15 74/172/15
f 74/172/15 57/171/15 73/173/15
f 59/174/13 58/175/13 75/176/13
f 75/176/13 58/175/13 74/177/13
f 60/178/14 59/179/14 76/180/14
f 76/180/14 59/179/14 75/181/14
f 61/182/13 60/183/13 77/184/13
f 77/184/13 60/183/13 76/185/13
f 62/186/15 61/187/15 78/188/15
f 78/188/15 61/187/15 77/189/15
f 63/190/13 62/191/13 79/192/13
f 79/192/13 62/191/13 78/193/13
f 64/194/14 63/195/14 80/196/14
f 80/196/14 63/195/14 79/197/14
f 65/198/13 64/199/13 81/200/13
f 81/200/13 64/199/13 80/201/13
f 66/202/15 65/203/15 82/204/15
f 82/204/15 65/203/15 81/205/15
f 68/206/13 66/207/13 83/208/13
f 83/208/13 66/207/13 82/209/13
f 67/210/14 68/211/14 84/212/14
f 84/212/14 68/211/14 83/213/14
f 1/214/16 32/215/16 46/216/16
f 46/216/16 32/215/16 67/217/17
f 46/216/16 67/217/17 84/218/18
f 46/216/16 17/219/16 1/214/16
f 83/220/19 47/221/19 84/222/19
f 84/222/19 47/221/19 46/223/19
f 83/224/1 82/225/1 47/226/1
f 47/226/1 82/225/1 48/227/1
f 82/228/20 81/229/20 48/230/20
f 48/230/20 81/229/20 45/231/20
f 81/232/1 80/233/1 45/234/1
f 45/234/1 80/233/1 44/235/1
f 79/236/19 49/237/19 80/238/19
f 80/238/19 49/237/19 44/239/19
f 79/240/1 78/241/1 49/242/1
f 49/242/1 78/241/1 50/243/1
f 78/244/20 77/245/20 50/246/20
f 50/246/20 77/245/20 43/247/20
f 77/248/1 76/249/1 43/250/1
f 43/250/1 76/249/1 42/251/1
f 75/252/19 51/253/19 76/254/19
f 76/254/19 51/253/19 42/255/19
f 75/256/1 74/257/1 51/258/1
f 51/258/1 74/257/1 52/259/1
f 74/260/20 73/261/20 52/262/20
f 52/262/20 73/261/20 41/263/20
f 73/264/1 72/265/1 41/266/1
f 41/266/1 72/265/1 37/267/1
f 71/268/19 39/269/19 72/270/19
f 72/270/19 39/269/19 37/271/19
f 69/272/1 40/273/1 71/274/1
f 71/274/1 40/273/1 39/275/1
f 38/276/21 40/277/21 70/278/21
f 70/278/21 40/277/21 69/279/21
f 70/280/22 54/281/23 38/282/22
f 38/282/22 54/281/23 22/283/22
f 38/282/22 22/283/22 6/6/22
f 6/6/22 35/284/22 38/282/22
