# Blender v2.90.1 OBJ File: 'Closed Crate.blend'
# www.blender.org
mtllib Closed Crate.mtl
o Cube
v 1.000000 1.000000 -1.000000
v 1.000000 -1.000000 -1.000000
v 1.000000 1.000000 1.000000
v 1.000000 -1.000000 1.000000
v -5.969973 1.000000 -1.000000
v -5.969973 -1.000000 -1.000000
v -5.969973 1.000000 1.000000
v -5.969973 -1.000000 1.000000
vt 0.489085 0.592172
vt 0.488562 0.592172
vt 0.488562 0.591649
vt 0.489085 0.591649
vt -0.001324 0.992531
vt -0.001324 0.004538
vt 0.997400 0.004538
vt 0.997400 0.992531
vt 0.488215 0.575052
vt 0.489030 0.575052
vt 0.489030 0.575867
vt 0.488215 0.575867
vt 0.487956 0.582133
vt 0.487339 0.582133
vt 0.487339 0.581516
vt 0.487956 0.581516
vt 0.488647 0.583887
vt 0.487287 0.583887
vt 0.487287 0.582527
vt 0.488647 0.582527
vt -0.001324 0.992531
vt -0.001324 0.004538
vt 0.997400 0.004538
vt 0.997400 0.992531
vn 0.0000 1.0000 0.0000
vn 0.0000 0.0000 1.0000
vn -1.0000 0.0000 0.0000
vn 0.0000 -1.0000 0.0000
vn 1.0000 0.0000 0.0000
vn 0.0000 0.0000 -1.0000
usemtl Material
s off
f 1/1/1 5/2/1 7/3/1 3/4/1
f 4/5/2 3/6/2 7/7/2 8/8/2
f 8/9/3 7/10/3 5/11/3 6/12/3
f 6/13/4 2/14/4 4/15/4 8/16/4
f 2/17/5 1/18/5 3/19/5 4/20/5
f 6/21/6 5/22/6 1/23/6 2/24/6
