# WaveFront *.obj file (generated by Autodesk ATF)

mtllib f8702aa0-2882-4dc6-b4d5-b0d9caaf8b04.mtl

g Body9

v -915.902754 137.797235 273.200014
v -915.902754 137.797235 267.300014
v -915.902754 141.797235 267.300014
v -915.902754 141.797235 273.200014
v -934.702754 137.797235 273.200014
v -934.702754 141.797235 273.200014
v -934.702754 137.797235 267.300014
v -934.702754 141.797235 267.300014
vt 0.000000 0.000000 0.000000
vt 0.590000 0.000000 0.000000
vt -0.000000 0.400000 0.000000
vt 0.590000 0.400000 0.000000
vt 0.000000 0.000000 0.000000
vt 1.880000 0.000000 0.000000
vt 0.000000 0.400000 0.000000
vt 1.880000 0.400000 0.000000
vt 0.000000 0.000000 0.000000
vt 0.590000 -0.000000 0.000000
vt 0.000000 0.400000 0.000000
vt 0.590000 0.400000 0.000000
vt 0.000000 0.000000 0.000000
vt 1.880000 0.000000 0.000000
vt 0.000000 0.400000 0.000000
vt 1.880000 0.400000 0.000000
vt -0.594999 0.010001 0.000000
vt -0.004999 0.010001 0.000000
vt -0.594999 1.890001 0.000000
vt -0.004999 1.890001 0.000000
vt -0.010001 0.594999 0.000000
vt -1.890001 0.594999 0.000000
vt -0.010001 0.004999 0.000000
vt -1.890001 0.004999 0.000000
vn 0.100000 -0.000000 0.000000
vn 0.100000 -0.000000 0.000000
vn 0.100000 -0.000000 0.000000
vn 0.100000 -0.000000 0.000000
vn 0.000000 0.000000 0.100000
vn 0.000000 0.000000 0.100000
vn 0.000000 0.000000 0.100000
vn 0.000000 0.000000 0.100000
vn -0.100000 0.000000 0.000000
vn -0.100000 0.000000 0.000000
vn -0.100000 0.000000 0.000000
vn -0.100000 0.000000 0.000000
vn 0.000000 0.000000 -0.100000
vn 0.000000 0.000000 -0.100000
vn 0.000000 0.000000 -0.100000
vn 0.000000 0.000000 -0.100000
vn 0.000000 0.100000 0.000000
vn 0.000000 0.100000 0.000000
vn 0.000000 0.100000 0.000000
vn 0.000000 0.100000 0.000000
vn 0.000000 -0.100000 0.000000
vn 0.000000 -0.100000 0.000000
vn 0.000000 -0.100000 0.000000
vn 0.000000 -0.100000 0.000000
usemtl Steel_-_Satin
f 1/1/1 2/2/2 4/3/3
f 4/3/3 2/2/2 3/4/4
f 5/5/5 1/6/6 6/7/7
f 6/7/7 1/6/6 4/8/8
f 7/9/9 5/10/10 8/11/11
f 8/11/11 5/10/10 6/12/12
f 2/13/13 7/14/14 3/15/15
f 3/15/15 7/14/14 8/16/16
f 8/17/17 6/18/18 3/19/19
f 3/19/19 6/18/18 4/20/20
f 7/21/21 2/22/22 5/23/23
f 5/23/23 2/22/22 1/24/24

# 8 vertices
# 24 texture params
# 24 normals
# 12 facets

# 1 groups
