# Blender v2.92.0 OBJ File: ''
# www.blender.org
mtllib Cactus 3.mtl
o Cactus_3
v -1.061671 6.600718 -1.033215
v -1.692063 6.600718 -1.397172
v -1.646692 7.000000 -1.227844
v -1.230999 7.000000 -0.987844
v -1.727971 5.305980 1.415401
v -1.699209 5.710505 1.258169
v -1.939209 5.710505 0.842477
v -2.089757 5.305980 0.788769
v -1.523946 5.732300 0.602725
v -1.463772 5.338836 0.427357
v -1.283946 5.732300 1.018417
v -1.101986 5.338836 1.053988
v -0.577350 4.400000 -0.999998
v -0.400000 7.400000 -0.999998
v 0.400000 7.400000 -0.999998
v 0.577350 4.400000 -0.999998
v 0.000000 4.400000 -0.999998
v -2.114374 4.604374 0.758856
v -1.714374 4.604374 1.451676
v -0.692820 9.999999 0.000004
v 0.346410 9.999999 0.600004
v 0.692820 9.999999 0.000004
v -0.346410 9.999999 -0.599996
v -1.422268 4.640700 0.359269
v -1.022268 4.640700 1.052089
v -1.185641 5.200000 -1.146408
v -0.666025 5.200000 -0.846408
v -1.066025 5.200000 -0.153588
v -1.585641 5.200000 -0.453588
v -0.971147 3.342041 1.022574
v -0.625094 3.360204 0.822780
v -0.656553 4.159379 0.840943
v -1.002606 4.141216 1.040737
v -1.694712 4.104890 1.440324
v -0.758957 1.680102 0.438184
v -0.825094 3.360204 0.476370
v -1.025094 3.360204 0.129960
v -0.974427 1.680102 0.064979
v -1.705256 5.800000 -1.446408
v -2.105256 5.800000 -0.753588
v -2.094712 4.104890 0.747504
v -1.402606 4.141216 0.347916
v -1.056553 4.159379 0.148123
v -1.371147 3.342041 0.329753
v 1.943102 6.499999 1.514451
v 2.283102 6.500000 0.925553
v 1.694205 6.500000 0.585553
v 1.354205 6.500000 1.174451
v 2.501666 5.100000 0.866989
v 2.001666 5.099998 1.733015
v 1.482051 4.500000 1.433014
v 1.982051 4.500000 0.566989
v -0.504847 9.404633 -0.874417
v 0.346410 9.999999 -0.599996
v 0.504847 9.404633 -0.874417
v 1.009694 9.404633 0.000004
v -1.009694 9.404633 0.000004
v -0.504847 9.404633 0.874424
v -0.346410 9.999999 0.600004
v 0.504847 9.404633 0.874424
v 1.646641 6.000897 0.408044
v 2.460612 6.000897 0.877990
v -0.577350 8.400000 -0.999998
v -0.666025 6.000000 -0.846408
v -1.066025 6.000000 -0.153588
v -1.154701 8.400000 0.000002
v 1.154701 8.400000 0.000002
v 0.577350 8.400000 -0.999998
v -1.012436 6.000000 -1.046408
v -0.400000 8.400000 -0.999998
v 0.400000 8.400000 -0.999998
v -1.412436 6.000000 -0.353588
v -2.105256 6.000000 -0.753588
v -1.705256 6.000000 -1.446408
v -0.400000 8.400000 -1.799998
v -0.400000 8.000000 -1.799998
v -0.400000 7.400000 -1.199998
v 0.240000 8.999999 -1.159998
v -0.240000 8.999999 -1.159998
v -0.369851 8.701488 -1.030146
v 0.369851 8.701488 -1.030146
v 0.240000 8.999999 -1.639997
v 0.369851 8.701488 -1.769849
v -0.369851 8.701488 -1.769849
v -0.240000 8.999999 -1.639997
v -0.577350 4.400000 1.000002
v -1.154701 4.400000 0.000002
v 0.400000 8.400000 -1.799998
v 0.400000 8.000000 -1.799998
v 1.176695 6.000897 1.222014
v 1.990666 6.000896 1.691960
v -1.425628 6.600718 -0.402823
v 2.001666 5.499999 1.733015
v 2.501666 5.500000 0.866989
v 1.635640 5.500000 0.366989
v 1.116025 5.500000 0.066989
v 0.616025 5.500000 0.933015
v 1.135641 5.500000 1.233015
v -0.577350 8.400000 1.000002
v 0.577350 8.400000 1.000002
v -0.866025 4.400000 -0.499998
v 0.577350 4.400000 1.000002
v 0.000000 4.400000 1.000002
v 1.116025 4.500000 0.066989
v 0.616025 4.500000 0.933014
v -1.886692 7.000000 -0.812152
v -2.056020 6.600718 -0.766781
v -1.470999 7.000000 -0.572152
v 0.400000 7.400000 -1.199998
v -0.692820 -0.000000 0.400000
v 0.692820 0.000000 -0.400000
v 0.923760 0.000000 0.000000
v -0.461880 -0.000000 0.800000
v 0.000000 2.200000 -0.900000
v -0.519615 2.200000 -0.900000
v 0.779423 2.200000 -0.450000
v 0.461880 0.000000 -0.800000
v 0.519615 2.200000 -0.900000
v -1.089897 3.880102 0.064981
v 0.000000 2.200000 0.900000
v 0.000000 -0.000000 0.800000
v 0.461880 -0.000000 0.800000
v 0.519615 2.200000 0.900000
v 1.154701 4.400000 0.000002
v 0.866025 4.400000 0.500002
v -0.601222 3.880102 0.911391
v -0.519615 2.200000 0.900000
v -0.779423 2.200000 -0.450000
v -0.461880 0.000000 -0.800000
v -0.692820 0.000000 -0.400000
v 0.779423 2.200000 0.450000
v 1.039230 2.200000 0.000000
v 0.692820 -0.000000 0.400000
v 0.000000 0.000000 -0.800000
v 0.866025 4.400000 -0.499998
v -0.923760 0.000000 0.000000
v -1.039230 2.200000 0.000000
v -0.543487 1.680102 0.811389
vt 0.233084 0.337444
vt 0.232952 0.320945
vt 0.232204 0.324912
vt 0.232293 0.335249
vt 0.233177 0.304509
vt 0.232241 0.306988
vt 0.232239 0.317274
vt 0.232952 0.320945
vt 0.232204 0.324912
vt 0.232293 0.335249
vt 0.233084 0.337444
vt 0.232258 0.290843
vt 0.232388 0.301328
vt 0.233040 0.287873
vt 0.358397 0.277062
vt 0.358352 0.277118
vt 0.358352 0.277345
vt 0.358397 0.277358
vt 0.358397 0.277211
vt 0.233543 0.320947
vt 0.233630 0.304367
vt 0.180502 0.273039
vt 0.158539 0.280758
vt 0.165860 0.288478
vt 0.187823 0.280758
vt 0.233593 0.337482
vt 0.233547 0.352928
vt 0.232904 0.352988
vt 0.358330 0.278837
vt 0.358345 0.278963
vt 0.358345 0.278723
vt 0.358330 0.278795
vt 0.358441 0.278430
vt 0.358449 0.278357
vt 0.358412 0.278361
vt 0.358419 0.278427
vt 0.358441 0.278473
vt 0.361169 0.278457
vt 0.358449 0.278471
vt 0.358449 0.278581
vt 0.361169 0.278576
vt 0.358300 0.278821
vt 0.358300 0.278808
vt 0.358441 0.278477
vt 0.358434 0.278473
vt 0.358434 0.278476
vt 0.358419 0.278516
vt 0.358412 0.278596
vt 0.358441 0.278519
vt 0.358434 0.278473
vt 0.231351 0.301373
vt 0.232388 0.301328
vt 0.232258 0.290843
vt 0.231334 0.290876
vt 0.358352 0.277839
vt 0.358352 0.277849
vt 0.358374 0.277856
vt 0.358374 0.277832
vt 0.231641 0.277134
vt 0.230125 0.277286
vt 0.230125 0.277498
vt 0.231641 0.277433
vt 0.230125 0.277731
vt 0.231641 0.277708
vt 0.230125 0.278476
vt 0.231641 0.278548
vt 0.231641 0.278263
vt 0.230125 0.278226
vt 0.230125 0.277973
vt 0.231641 0.277977
vt 0.231641 0.278839
vt 0.230125 0.278687
vt 0.233040 0.287873
vt 0.233177 0.304509
vt 0.234258 0.278866
vt 0.358300 0.278898
vt 0.358300 0.278670
vt 0.234258 0.278552
vt 0.234258 0.277700
vt 0.234258 0.277411
vt 0.358323 0.278852
vt 0.234258 0.277112
vt 0.234258 0.277062
vt 0.234258 0.277369
vt 0.180502 0.288478
vt 0.165860 0.273039
vt 0.358323 0.278770
vt 0.358293 0.278809
vt 0.358293 0.278819
vt 0.358330 0.277225
vt 0.358323 0.277216
vt 0.358337 0.277161
vt 0.232194 0.340329
vt 0.232291 0.350349
vt 0.232904 0.352988
vt 0.233084 0.337444
vt 0.232204 0.324912
vt 0.232293 0.335249
vt 0.232952 0.320945
vt 0.233177 0.304509
vt 0.232241 0.306988
vt 0.232239 0.317274
vt 0.358397 0.278320
vt 0.358397 0.278644
vt 0.233593 0.337482
vt 0.233543 0.320947
vt 0.358330 0.277256
vt 0.358323 0.277265
vt 0.233630 0.304367
vt 0.233513 0.287889
vt 0.233040 0.287873
vt 0.232293 0.335249
vt 0.233084 0.337444
vt 0.232952 0.320945
vt 0.232204 0.324912
vt 0.232241 0.306988
vt 0.232239 0.317274
vt 0.232194 0.340329
vt 0.232291 0.350349
vt 0.232194 0.340329
vt 0.232291 0.350349
vt 0.232904 0.352988
vt 0.233547 0.352928
vt 0.233593 0.337482
vt 0.232904 0.352988
vt 0.233543 0.320947
vt 0.233630 0.304367
vt 0.358352 0.277813
vt 0.358337 0.277710
vt 0.358337 0.277942
vt 0.358352 0.277877
vt 0.233513 0.287889
vt 0.234258 0.278251
vt 0.234258 0.277960
vt 0.358352 0.277841
vt 0.358397 0.278988
vt 0.358397 0.278812
vt 0.358397 0.278004
vt 0.358397 0.278161
vt 0.358352 0.277848
vt 0.358390 0.277704
vt 0.358434 0.278477
vt 0.358390 0.277984
vt 0.232241 0.306988
vt 0.232239 0.317274
vt 0.233177 0.304509
vt 0.232194 0.340329
vt 0.232291 0.350349
vt 0.232258 0.290843
vt 0.232388 0.301328
vt 0.233040 0.287873
vt 0.232388 0.301328
vt 0.232258 0.290843
vt 0.233630 0.304367
vt 0.233513 0.287889
vt 0.233593 0.337482
vt 0.233543 0.320947
vt 0.233547 0.352928
vt 0.231334 0.290876
vt 0.231351 0.301373
vt 0.358337 0.277304
vt 0.172661 0.287977
vt 0.172661 0.273582
vt 0.165833 0.273582
vt 0.165833 0.287977
vt 0.231351 0.301373
vt 0.231334 0.290876
vt 0.361169 0.277264
vt 0.361169 0.277113
vt 0.361169 0.277563
vt 0.363801 0.277567
vt 0.363801 0.277417
vt 0.361169 0.277413
vt 0.358427 0.278613
vt 0.361169 0.278160
vt 0.363801 0.278170
vt 0.363801 0.278019
vt 0.361169 0.278011
vt 0.358397 0.277684
vt 0.358397 0.277846
vt 0.358419 0.278337
vt 0.361169 0.278309
vt 0.361169 0.278752
vt 0.361169 0.278905
vt 0.363801 0.278894
vt 0.363801 0.278749
vt 0.361169 0.277862
vt 0.361169 0.277712
vt 0.233547 0.352928
vt 0.231334 0.290876
vt 0.231351 0.301373
vt 0.162421 0.284378
vt 0.162421 0.277181
vt 0.182900 0.277181
vt 0.182900 0.284379
vt 0.186313 0.280780
vt 0.233513 0.287889
vt 0.358397 0.277522
vt 0.179486 0.273582
vt 0.179488 0.287977
vt 0.159008 0.280780
vt 0.363801 0.277868
vt 0.363801 0.277718
vt 0.361169 0.278600
vt 0.363801 0.278603
vt 0.361169 0.278339
vt 0.363801 0.278322
vt 0.363801 0.277268
vt 0.363801 0.277119
vt 0.363801 0.278463
vn 0.4775 0.2965 -0.8271
vn -0.8390 0.2479 0.4844
vn -0.4897 0.2914 -0.8218
vn 0.4668 0.2914 0.8350
vn 0.0000 0.0000 -1.0000
vn -0.8660 0.0091 0.5000
vn 0.0000 1.0000 -0.0000
vn -0.5014 0.0544 -0.8635
vn 0.8617 0.0997 -0.4975
vn 0.0000 -1.0000 0.0000
vn 0.5000 -0.0000 0.8660
vn -0.8651 -0.0454 0.4995
vn -0.6124 -0.7071 -0.3536
vn -0.5000 0.0000 -0.8660
vn 0.6124 -0.7071 0.3536
vn 0.0000 0.4186 -0.9082
vn 0.7865 0.4186 -0.4541
vn -0.7865 0.4186 0.4541
vn 0.0000 0.4186 0.9082
vn -0.7865 0.4186 -0.4541
vn 0.4839 0.2520 -0.8381
vn -0.8660 -0.0000 -0.5000
vn 0.8593 0.1240 -0.4961
vn 0.5000 0.0000 -0.8660
vn 0.0000 0.1240 -0.9923
vn 0.0393 -0.9990 -0.0227
vn -1.0000 0.0000 0.0000
vn 0.0000 0.3989 0.9170
vn 0.9170 0.3989 0.0000
vn 0.0000 0.3989 -0.9170
vn 0.9950 0.0995 0.0000
vn -0.9950 0.0995 0.0000
vn 0.0000 0.0995 -0.9950
vn -0.4839 0.2520 0.8381
vn 0.8381 0.2520 0.4839
vn 0.8160 0.3348 -0.4711
vn -0.8381 0.2520 -0.4839
vn 0.8645 0.0599 0.4991
vn 0.4991 0.0599 -0.8645
vn 0.0000 0.1240 0.9923
vn 0.0000 -0.0000 1.0000
vn -0.5000 -0.0000 0.8660
vn -0.8660 -0.0000 0.5000
vn -0.8271 0.2965 -0.4775
vn 0.8271 0.2965 0.4775
vn -0.4775 0.2965 0.8271
vn -0.9170 0.3989 0.0000
vn -0.4991 0.0599 0.8645
vn -0.0393 0.9990 0.0227
vn -0.8645 0.0599 -0.4991
vn -0.5839 -0.7385 0.3371
vn 1.0000 0.0000 0.0000
vn 0.0000 -0.7071 -0.7071
vn 0.0000 -0.0454 -0.9990
vn 0.8651 -0.0454 -0.4995
vn 0.0000 -0.0454 0.9990
vn 0.8660 0.0000 0.5000
vn -0.8651 -0.0454 -0.4995
vn 0.8651 -0.0454 0.4995
vn 0.7865 0.4186 0.4541
vn 0.0000 0.0995 0.9950
vn 0.8651 0.0454 -0.4995
vn 0.8593 0.1240 0.4961
vn -0.8593 0.1240 0.4961
vn -0.8593 0.1240 -0.4961
vn 0.4971 0.0544 0.8660
vn 0.8660 0.0000 -0.5000
usemtl Material
s 1
f 1/1/1 2/2/1 3/3/1 4/4/1
f 5/5/2 6/6/2 7/7/2 8/8/2
f 7/9/3 9/10/3 10/11/3 8/8/3
f 11/12/4 6/13/4 5/5/4 12/14/4
f 13/15/5 14/16/5 15/17/5 16/18/5 17/19/5
f 8/8/6 18/20/6 19/21/6 5/5/6
f 20/22/7 21/23/7 22/24/7 23/25/7
f 24/26/8 18/20/8 8/8/8 10/11/8
f 25/27/9 24/26/9 10/11/9 12/28/9
f 26/29/10 27/30/10 28/31/10 29/32/10
f 30/33/11 31/34/11 32/35/11 33/36/11
f 33/36/11 34/37/11 30/33/11
f 35/38/12 36/39/12 37/40/12 38/41/12
f 39/42/13 26/29/13 29/32/13 40/43/13
f 41/44/12 34/37/12 19/45/12 18/46/12
f 42/47/14 43/48/14 37/40/14 44/49/14
f 34/37/11 33/36/11 25/50/11 19/45/11
f 41/44/14 42/47/14 44/49/14
f 45/51/7 46/52/7 47/53/7 48/54/7
f 49/55/15 50/56/15 51/57/15 52/58/15
f 53/59/16 23/60/16 54/61/16 55/62/16
f 54/61/17 22/63/17 56/64/17 55/62/17
f 20/65/18 57/66/18 58/67/18 59/68/18
f 21/69/19 59/68/19 58/67/19 60/70/19
f 53/71/20 57/66/20 20/65/20 23/72/20
f 61/73/21 47/53/21 46/52/21 62/74/21
f 63/75/22 64/76/22 65/77/22 66/78/22
f 67/79/23 68/80/23 55/62/23 56/64/23
f 69/81/24 64/76/24 27/30/24 26/29/24
f 53/59/25 70/82/25 63/83/25
f 55/62/25 68/80/25 71/84/25
f 54/85/7 23/25/7 22/24/7
f 44/49/26 37/40/26 36/39/26 31/34/26 30/33/26
f 21/23/7 20/22/7 59/86/7
f 72/87/7 65/77/7 64/76/7 69/81/7
f 73/88/22 74/89/22 39/42/22 40/43/22
f 75/90/27 76/91/27 70/82/27
f 70/82/27 76/91/27 77/92/27
f 70/82/27 77/92/27 14/16/27
f 78/93/28 79/94/28 80/95/28 81/96/28
f 82/97/29 78/98/29 81/96/29 83/99/29
f 84/100/30 85/101/30 82/102/30 83/99/30
f 32/35/12 86/103/12 87/104/12 43/48/12
f 71/84/25 70/82/25 53/59/25 55/62/25
f 71/105/31 88/106/31 83/99/31 81/96/31
f 75/90/5 88/107/5 89/108/5 76/91/5
f 84/100/32 75/109/32 70/110/32 80/111/32
f 83/99/33 88/106/33 75/109/33 84/100/33
f 48/112/34 90/113/34 91/114/34 45/115/34
f 46/116/35 45/117/35 91/114/35 62/74/35
f 12/28/36 10/11/36 9/118/36 11/119/36
f 48/120/37 47/121/37 61/122/37 90/113/37
f 72/123/38 69/124/38 1/1/38 92/125/38
f 93/126/38 94/127/38 62/74/38 91/114/38
f 95/128/7 96/129/7 97/130/7 98/131/7
f 62/74/39 94/127/39 95/132/39 61/73/39
f 99/133/40 100/134/40 60/70/40 58/67/40
f 94/135/24 49/55/24 95/128/24
f 95/128/24 49/55/24 52/58/24
f 87/104/22 28/31/22 27/30/22 13/136/22 101/137/22
f 102/138/41 100/134/41 99/133/41 86/103/41 103/139/41
f 93/140/42 98/131/42 50/56/42
f 50/56/42 98/131/42 51/57/42
f 104/141/24 96/129/24 95/128/24 52/58/24
f 42/47/14 41/44/14 18/46/14 24/142/14
f 86/103/43 99/133/43 66/78/43 87/104/43
f 73/88/42 40/43/42 72/87/42
f 72/87/42 40/43/42 29/32/42
f 98/131/42 97/130/42 105/143/42 51/57/42
f 106/144/44 3/145/44 2/2/44 107/146/44
f 4/147/45 108/148/45 92/125/45 1/1/45
f 108/149/46 106/150/46 107/146/46 92/151/46
f 85/152/47 84/100/47 80/111/47 79/153/47
f 73/154/48 72/155/48 92/151/48 107/146/48
f 90/113/48 98/156/48 93/126/48 91/114/48
f 33/36/49 32/35/49 43/48/49 42/47/49
f 2/2/50 74/157/50 73/154/50 107/146/50
f 95/158/50 98/156/50 90/113/50 61/122/50
f 28/31/42 65/77/42 72/87/42 29/32/42
f 69/81/24 26/29/24 39/42/24
f 69/81/24 39/42/24 74/89/24
f 51/57/10 105/143/10 104/141/10 52/58/10
f 34/37/51 41/44/51 44/49/51 30/33/51
f 11/12/49 9/159/49 7/160/49 6/13/49
f 15/17/52 109/161/52 71/84/52
f 71/84/52 109/161/52 89/108/52
f 71/84/52 89/108/52 88/107/52
f 110/162/10 111/163/10 112/164/10 113/165/10
f 3/166/7 106/150/7 108/149/7 4/167/7
f 89/108/53 109/161/53 77/92/53 76/91/53
f 114/168/54 115/169/54 13/15/54 17/19/54
f 116/170/55 111/171/55 117/172/55 118/173/55
f 43/48/12 87/104/12 119/174/12 37/40/12
f 37/40/12 119/174/12 38/41/12
f 120/175/56 121/176/56 122/177/56 123/178/56
f 124/179/57 104/141/57 105/143/57 102/138/57 125/180/57
f 86/103/12 32/35/12 31/34/12 126/181/12
f 86/103/12 126/181/12 127/182/12
f 128/183/58 115/184/58 129/185/58 130/186/58
f 131/187/59 132/188/59 124/179/59 125/180/59
f 96/129/57 67/79/57 100/134/57 97/130/57
f 64/76/22 13/136/22 27/30/22
f 22/63/60 21/69/60 60/70/60 56/64/60
f 28/31/22 87/104/22 65/77/22
f 65/77/22 87/104/22 66/78/22
f 70/189/61 71/105/61 81/96/61 80/95/61
f 13/136/22 64/76/22 63/75/22
f 25/50/62 33/36/62 42/47/62 24/142/62
f 85/152/7 79/153/7 78/190/7 82/191/7
f 121/192/10 113/165/10 112/164/10 133/193/10
f 50/56/57 49/55/57 94/135/57 93/140/57
f 134/194/10 130/195/10 129/196/10
f 100/134/63 67/79/63 56/64/63 60/70/63
f 57/66/64 66/78/64 99/133/64 58/67/64
f 53/71/65 63/75/65 66/78/65 57/66/65
f 71/84/5 68/80/5 15/17/5
f 15/17/5 68/80/5 16/18/5
f 69/124/39 74/157/39 2/2/39 1/1/39
f 14/16/5 13/15/5 63/83/5
f 14/16/5 63/83/5 70/82/5
f 109/161/10 15/17/10 14/16/10 77/92/10
f 19/21/66 25/197/66 12/14/66 5/5/66
f 97/130/57 100/134/57 102/138/57
f 97/130/57 102/138/57 105/143/57
f 104/141/57 124/179/57 96/129/57
f 96/129/57 124/179/57 67/79/57
f 16/18/67 68/80/67 67/79/67 124/179/67 135/198/67
f 117/199/10 136/200/10 130/195/10 134/194/10
f 122/201/10 121/192/10 133/193/10
f 123/178/59 131/187/59 125/180/59 102/138/59
f 122/177/59 133/202/59 131/187/59 123/178/59
f 133/202/59 112/203/59 132/188/59 131/187/59
f 137/204/58 128/183/58 130/186/58 136/205/58
f 87/104/58 101/137/58 128/183/58 137/204/58
f 101/137/58 13/136/58 115/184/58 128/183/58
f 127/182/12 138/206/12 113/207/12
f 127/182/12 126/181/12 138/206/12
f 126/181/12 31/34/12 138/206/12
f 103/139/56 120/175/56 123/178/56 102/138/56
f 86/103/56 127/182/56 120/175/56 103/139/56
f 127/182/56 113/207/56 121/176/56 120/175/56
f 38/41/12 137/204/12 136/205/12
f 38/41/12 119/174/12 137/204/12
f 119/174/12 87/104/12 137/204/12
f 135/198/55 116/170/55 118/173/55 16/18/55
f 124/179/55 132/188/55 116/170/55 135/198/55
f 132/188/55 112/203/55 111/171/55 116/170/55
f 118/173/54 114/168/54 17/19/54 16/18/54
f 117/172/54 134/208/54 114/168/54 118/173/54
f 134/208/54 129/209/54 115/169/54 114/168/54
f 136/200/10 117/199/10 111/163/10 110/162/10
f 110/210/12 35/38/12 38/41/12 136/205/12
f 113/207/12 138/206/12 35/38/12 110/210/12
f 138/206/12 31/34/12 36/39/12 35/38/12
