# Blender v2.90.1 OBJ File: 'w1 EXPORT FILE.blend'
# www.blender.org
mtllib Cactus 3.mtl
g Cactus_3_cactus_big
v -1.101986 5.338836 1.053987
v -1.283946 5.732300 1.018416
v -1.727971 5.305980 1.415400
v -1.699209 5.710505 1.258168
v -1.523946 5.732300 0.602724
v -1.463772 5.338836 0.427356
v -2.089757 5.305980 0.788768
v -1.939209 5.710505 0.842476
v -1.022268 4.640700 1.052088
v -1.422268 4.640700 0.359268
v -1.714374 4.604374 1.451675
v -2.114374 4.604374 0.758855
v -1.402606 4.141216 0.347915
v -1.002606 4.141216 1.040736
v -1.694712 4.104890 1.440323
v -0.971147 3.342041 1.022573
v -0.656553 4.159379 0.840942
v -0.625094 3.360204 0.822779
v -2.094712 4.104890 0.747503
v -1.371147 3.342041 0.329752
v -1.025094 3.360204 0.129959
v -1.056553 4.159379 0.148122
v -0.346410 9.999999 0.600002
v -0.692820 9.999999 0.000002
v -0.504847 9.404633 0.874422
v -1.009694 9.404633 0.000002
v 0.504847 9.404633 -0.874419
v -0.504847 9.404633 -0.874419
v 0.346410 9.999999 -0.599998
v -0.346410 9.999999 -0.599998
v 1.009694 9.404633 0.000002
v 0.692820 9.999999 0.000002
v 0.504847 9.404633 0.874422
v 0.346410 9.999999 0.600002
v -0.577350 8.400000 1.000001
v -1.154701 8.400000 0.000001
v -0.577350 8.400000 -0.999999
v 0.400000 8.400000 -0.999999
v -0.400000 8.400000 -0.999999
v 0.577350 8.400000 -0.999999
v -0.400000 8.000000 -1.799999
v 0.400000 8.000000 -1.799999
v -0.400000 7.400000 -1.199999
v 0.400000 7.400000 -1.199999
v -0.400000 8.400000 -1.799999
v 0.400000 8.400000 -1.799999
v -0.400000 7.400000 -0.999999
v 0.369851 8.701488 -1.769850
v -0.369851 8.701488 -1.769850
v 0.240000 8.999999 -1.639998
v -0.240000 8.999999 -1.639998
v -0.240000 8.999999 -1.159999
v -0.369851 8.701488 -1.030147
v 0.369851 8.701488 -1.030147
v 0.240000 8.999999 -1.159999
v 2.460612 6.000897 0.877989
v 1.646641 6.000897 0.408043
v 2.283102 6.500000 0.925552
v 1.694205 6.500000 0.585552
v 1.943102 6.499999 1.514450
v 1.354205 6.500000 1.174450
v 1.990666 6.000897 1.691959
v 1.176695 6.000897 1.222013
v 2.001666 5.499999 1.733014
v 2.501666 5.500000 0.866988
v 1.135641 5.500000 1.233014
v 1.635640 5.500000 0.366988
v 2.501666 5.100000 0.866988
v 1.982051 4.500000 0.566988
v 1.116025 4.500000 0.066988
v 1.116025 5.500000 0.066988
v 2.001666 5.099999 1.733014
v 1.482051 4.500000 1.433013
v 0.616025 4.500000 0.933013
v 0.616025 5.500000 0.933014
v -2.105256 5.800000 -0.753589
v -1.705256 5.800000 -1.446409
v -1.585641 5.200000 -0.453589
v -1.185641 5.200000 -1.146409
v -2.105256 6.000000 -0.753589
v -1.705256 6.000000 -1.446409
v -1.412436 6.000000 -0.353589
v -1.066025 5.200000 -0.153589
v -1.066025 6.000000 -0.153589
v -1.425628 6.600718 -0.402824
v -1.470999 7.000000 -0.572153
v -2.056020 6.600718 -0.766782
v -1.886692 7.000000 -0.812153
v -1.230999 7.000000 -0.987845
v -1.061671 6.600718 -1.033216
v -1.646692 7.000000 -1.227845
v -1.692063 6.600718 -1.397173
v -1.012436 6.000000 -1.046409
v -0.666025 5.200000 -0.846409
v -0.666025 6.000000 -0.846409
v 0.400000 7.400000 -0.999999
v -0.923760 0.000000 0.000000
v -1.154701 4.400000 0.000001
v -0.461880 0.000000 -0.800000
v -0.577350 4.400000 -0.999999
v 0.577350 4.400000 1.000001
v -0.577350 4.400000 1.000001
v 0.461880 -0.000000 0.800000
v -0.461880 -0.000000 0.800000
v 1.154701 4.400000 0.000001
v 0.923760 0.000000 0.000000
v 0.577350 4.400000 -0.999999
v 0.461880 0.000000 -0.800000
v 0.577350 8.400000 1.000001
v 1.154701 8.400000 0.000001
v -0.825094 3.360204 0.476369
v -0.692820 0.000000 -0.400000
v -1.039230 2.200000 0.000000
v -0.519615 2.200000 -0.900000
v -0.866025 4.400000 -0.499999
v 0.519615 2.200000 0.900000
v 0.000000 4.400000 1.000001
v 0.000000 -0.000000 0.800000
v -0.519615 2.200000 0.900000
v -1.089897 3.880102 0.064980
v -0.974427 1.680102 0.064979
v -0.692820 -0.000000 0.400000
v -0.601222 3.880102 0.911390
v -0.543487 1.680102 0.811389
v 0.866025 4.400000 0.500001
v 1.039230 2.200000 0.000000
v 0.692820 -0.000000 0.400000
v 0.519615 2.200000 -0.900000
v 0.866025 4.400000 -0.499999
v 0.692820 0.000000 -0.400000
v 0.000000 4.400000 -0.999999
v 0.000000 0.000000 -0.800000
v 0.779423 2.200000 0.450000
v -0.779423 2.200000 -0.450000
v 0.000000 2.200000 0.900000
v 0.779423 2.200000 -0.450000
v 0.000000 2.200000 -0.900000
v -0.758957 1.680102 0.438184
vt 0.584423 0.243781
vt 0.584494 0.222328
vt 0.584897 0.227486
vt 0.584849 0.240927
vt 0.584373 0.200955
vt 0.584877 0.204179
vt 0.584878 0.217554
vt 0.584494 0.222328
vt 0.584897 0.227486
vt 0.584849 0.240927
vt 0.584423 0.243781
vt 0.584868 0.183184
vt 0.584798 0.196819
vt 0.584447 0.179323
vt 0.409906 0.165265
vt 0.409930 0.165338
vt 0.409930 0.165633
vt 0.409906 0.165649
vt 0.409906 0.165459
vt 0.584176 0.222330
vt 0.584129 0.200771
vt 0.612728 0.160034
vt 0.624551 0.170071
vt 0.620610 0.180109
vt 0.608787 0.170071
vt 0.584149 0.243831
vt 0.584174 0.263916
vt 0.584520 0.263994
vt 0.409942 0.167573
vt 0.409934 0.167736
vt 0.409934 0.167424
vt 0.409942 0.167518
vt 0.409882 0.167043
vt 0.409878 0.166948
vt 0.409898 0.166954
vt 0.409894 0.167040
vt 0.409882 0.167100
vt 0.408414 0.167079
vt 0.409878 0.167097
vt 0.409878 0.167240
vt 0.408414 0.167234
vt 0.409958 0.167552
vt 0.409958 0.167535
vt 0.409882 0.167104
vt 0.409886 0.167100
vt 0.409886 0.167103
vt 0.409894 0.167155
vt 0.409898 0.167259
vt 0.409882 0.167159
vt 0.409886 0.167100
vt 0.585356 0.196877
vt 0.584798 0.196819
vt 0.584868 0.183184
vt 0.585365 0.183227
vt 0.409930 0.166275
vt 0.409930 0.166288
vt 0.409918 0.166297
vt 0.409918 0.166266
vt 0.585200 0.165358
vt 0.586016 0.165556
vt 0.586016 0.165832
vt 0.585200 0.165747
vt 0.586016 0.166135
vt 0.585200 0.166105
vt 0.586016 0.167103
vt 0.585200 0.167197
vt 0.585200 0.166826
vt 0.586016 0.166778
vt 0.586016 0.166449
vt 0.585200 0.166455
vt 0.585200 0.167575
vt 0.586016 0.167378
vt 0.584447 0.179323
vt 0.584373 0.200955
vt 0.583791 0.167610
vt 0.409958 0.167652
vt 0.409958 0.167356
vt 0.583791 0.167202
vt 0.583791 0.166094
vt 0.583791 0.165718
vt 0.409946 0.167592
vt 0.583791 0.165330
vt 0.583791 0.165265
vt 0.583791 0.165664
vt 0.612728 0.180109
vt 0.620610 0.160034
vt 0.409946 0.167486
vt 0.409962 0.167536
vt 0.409962 0.167549
vt 0.409942 0.165477
vt 0.409946 0.165465
vt 0.409938 0.165394
vt 0.584902 0.247533
vt 0.584850 0.260562
vt 0.584520 0.263994
vt 0.584423 0.243781
vt 0.584897 0.227486
vt 0.584849 0.240927
vt 0.584494 0.222328
vt 0.584373 0.200955
vt 0.584877 0.204179
vt 0.584878 0.217554
vt 0.409906 0.166900
vt 0.409906 0.167322
vt 0.584149 0.243831
vt 0.584176 0.222330
vt 0.409942 0.165517
vt 0.409946 0.165528
vt 0.584129 0.200771
vt 0.584192 0.179344
vt 0.584447 0.179323
vt 0.584849 0.240927
vt 0.584423 0.243781
vt 0.584494 0.222328
vt 0.584897 0.227486
vt 0.584877 0.204179
vt 0.584878 0.217554
vt 0.584902 0.247533
vt 0.584850 0.260562
vt 0.584902 0.247533
vt 0.584850 0.260562
vt 0.584520 0.263994
vt 0.584174 0.263916
vt 0.584149 0.243831
vt 0.584520 0.263994
vt 0.584176 0.222330
vt 0.584129 0.200771
vt 0.409930 0.166241
vt 0.409938 0.166107
vt 0.409938 0.166409
vt 0.409930 0.166325
vt 0.584192 0.179344
vt 0.583791 0.166811
vt 0.583791 0.166433
vt 0.409930 0.166278
vt 0.409906 0.167769
vt 0.409906 0.167540
vt 0.409906 0.166490
vt 0.409906 0.166694
vt 0.409930 0.166287
vt 0.409910 0.166100
vt 0.409886 0.167104
vt 0.409910 0.166464
vt 0.584877 0.204179
vt 0.584878 0.217554
vt 0.584373 0.200955
vt 0.584902 0.247533
vt 0.584850 0.260562
vt 0.584868 0.183184
vt 0.584798 0.196819
vt 0.584447 0.179323
vt 0.584798 0.196819
vt 0.584868 0.183184
vt 0.584129 0.200771
vt 0.584192 0.179344
vt 0.584149 0.243831
vt 0.584176 0.222330
vt 0.584174 0.263916
vt 0.585365 0.183227
vt 0.585356 0.196877
vt 0.409938 0.165580
vt 0.616949 0.179458
vt 0.616949 0.160740
vt 0.620624 0.160740
vt 0.620624 0.179458
vt 0.585356 0.196877
vt 0.585365 0.183227
vt 0.408414 0.165527
vt 0.408414 0.165331
vt 0.408414 0.165916
vt 0.406997 0.165921
vt 0.406997 0.165726
vt 0.408414 0.165721
vt 0.409890 0.167281
vt 0.408414 0.166692
vt 0.406997 0.166706
vt 0.406997 0.166509
vt 0.408414 0.166499
vt 0.409906 0.166073
vt 0.409906 0.166284
vt 0.409894 0.166923
vt 0.408414 0.166886
vt 0.408414 0.167462
vt 0.408414 0.167661
vt 0.406997 0.167647
vt 0.406997 0.167458
vt 0.408414 0.166305
vt 0.408414 0.166110
vt 0.584174 0.263916
vt 0.585365 0.183227
vt 0.585356 0.196877
vt 0.622461 0.174778
vt 0.622461 0.165420
vt 0.611437 0.165420
vt 0.611437 0.174779
vt 0.609600 0.170099
vt 0.584192 0.179344
vt 0.409906 0.165863
vt 0.613275 0.160740
vt 0.613274 0.179458
vt 0.624298 0.170099
vt 0.406997 0.166313
vt 0.406997 0.166117
vt 0.408414 0.167264
vt 0.406997 0.167269
vt 0.408414 0.166925
vt 0.406997 0.166903
vt 0.406997 0.165532
vt 0.406997 0.165339
vt 0.406997 0.167086
vn 0.4775 0.2965 -0.8271
vn -0.8390 0.2479 0.4844
vn -0.4897 0.2914 -0.8218
vn 0.4668 0.2914 0.8350
vn 0.0000 0.0000 -1.0000
vn -0.8660 0.0091 0.5000
vn 0.0000 1.0000 -0.0000
vn -0.5014 0.0544 -0.8635
vn 0.8617 0.0997 -0.4975
vn 0.0000 -1.0000 0.0000
vn 0.5000 -0.0000 0.8660
vn -0.8651 -0.0454 0.4995
vn -0.6124 -0.7071 -0.3536
vn -0.5000 0.0000 -0.8660
vn 0.6124 -0.7071 0.3536
vn 0.0000 0.4186 -0.9082
vn 0.7865 0.4186 -0.4541
vn -0.7865 0.4186 0.4541
vn 0.0000 0.4186 0.9082
vn -0.7865 0.4186 -0.4541
vn 0.4839 0.2520 -0.8381
vn -0.8660 0.0000 -0.5000
vn 0.8593 0.1240 -0.4961
vn 0.5000 0.0000 -0.8660
vn 0.0000 0.1240 -0.9923
vn 0.0393 -0.9990 -0.0227
vn -1.0000 0.0000 0.0000
vn 0.0000 0.3989 0.9170
vn 0.9170 0.3989 0.0000
vn 0.0000 0.3989 -0.9170
vn 0.9950 0.0995 0.0000
vn -0.9950 0.0995 0.0000
vn 0.0000 0.0995 -0.9950
vn -0.4839 0.2520 0.8381
vn 0.8381 0.2520 0.4839
vn 0.8160 0.3348 -0.4711
vn -0.8381 0.2520 -0.4839
vn 0.8645 0.0599 0.4991
vn 0.4991 0.0599 -0.8645
vn 0.0000 0.1240 0.9923
vn 0.0000 -0.0000 1.0000
vn -0.5000 -0.0000 0.8660
vn -0.8660 -0.0000 0.5000
vn -0.8271 0.2965 -0.4775
vn 0.8271 0.2965 0.4775
vn -0.4775 0.2965 0.8271
vn -0.9170 0.3989 0.0000
vn -0.4991 0.0599 0.8645
vn -0.0393 0.9990 0.0227
vn -0.8645 0.0599 -0.4991
vn -0.5839 -0.7385 0.3371
vn 1.0000 0.0000 0.0000
vn 0.0000 -0.7071 -0.7071
vn 0.0000 -0.0454 -0.9990
vn 0.8651 -0.0454 -0.4995
vn 0.0000 -0.0454 0.9990
vn 0.8660 0.0000 0.5000
vn -0.8651 -0.0454 -0.4995
vn 0.8651 -0.0454 0.4995
vn 0.7865 0.4186 0.4541
vn 0.0000 0.0995 0.9950
vn 0.8651 0.0454 -0.4995
vn 0.8593 0.1240 0.4961
vn -0.8593 0.1240 0.4961
vn -0.8593 0.1240 -0.4961
vn 0.4971 0.0544 0.8660
vn 0.8660 0.0000 -0.5000
usemtl Steel_-_Satin.044
s 1
f 90/1/1 92/2/1 91/3/1 89/4/1
f 3/5/2 4/6/2 8/7/2 7/8/2
f 8/9/3 5/10/3 6/11/3 7/8/3
f 2/12/4 4/13/4 3/5/4 1/14/4
f 100/15/5 47/16/5 96/17/5 107/18/5 131/19/5
f 7/8/6 12/20/6 11/21/6 3/5/6
f 24/22/7 34/23/7 32/24/7 30/25/7
f 10/26/8 12/20/8 7/8/8 6/11/8
f 9/27/9 10/26/9 6/11/9 1/28/9
f 79/29/10 94/30/10 83/31/10 78/32/10
f 16/33/11 18/34/11 17/35/11 14/36/11
f 14/36/11 15/37/11 16/33/11
f 138/38/12 111/39/12 21/40/12 121/41/12
f 77/42/13 79/29/13 78/32/13 76/43/13
f 19/44/12 15/37/12 11/45/12 12/46/12
f 13/47/14 22/48/14 21/40/14 20/49/14
f 15/37/11 14/36/11 9/50/11 11/45/11
f 19/44/14 13/47/14 20/49/14
f 60/51/7 58/52/7 59/53/7 61/54/7
f 68/55/15 72/56/15 73/57/15 69/58/15
f 28/59/16 30/60/16 29/61/16 27/62/16
f 29/61/17 32/63/17 31/64/17 27/62/17
f 24/65/18 26/66/18 25/67/18 23/68/18
f 34/69/19 23/68/19 25/67/19 33/70/19
f 28/71/20 26/66/20 24/65/20 30/72/20
f 57/73/21 59/53/21 58/52/21 56/74/21
f 37/75/22 95/76/22 84/77/22 36/78/22
f 110/79/23 40/80/23 27/62/23 31/64/23
f 93/81/24 95/76/24 94/30/24 79/29/24
f 28/59/25 39/82/25 37/83/25
f 27/62/25 40/80/25 38/84/25
f 29/85/7 30/25/7 32/24/7
f 20/49/26 21/40/26 111/39/26 18/34/26 16/33/26
f 34/23/7 24/22/7 23/86/7
f 82/87/7 84/77/7 95/76/7 93/81/7
f 80/88/22 81/89/22 77/42/22 76/43/22
f 45/90/27 41/91/27 39/82/27
f 39/82/27 41/91/27 43/92/27
f 39/82/27 43/92/27 47/16/27
f 55/93/28 52/94/28 53/95/28 54/96/28
f 50/97/29 55/98/29 54/96/29 48/99/29
f 49/100/30 51/101/30 50/102/30 48/99/30
f 17/35/12 102/103/12 98/104/12 22/48/12
f 38/84/25 39/82/25 28/59/25 27/62/25
f 38/105/31 46/106/31 48/99/31 54/96/31
f 45/90/5 46/107/5 42/108/5 41/91/5
f 49/100/32 45/109/32 39/110/32 53/111/32
f 48/99/33 46/106/33 45/109/33 49/100/33
f 61/112/34 63/113/34 62/114/34 60/115/34
f 58/116/35 60/117/35 62/114/35 56/74/35
f 1/28/36 6/11/36 5/118/36 2/119/36
f 61/120/37 59/121/37 57/122/37 63/113/37
f 82/123/38 93/124/38 90/1/38 85/125/38
f 64/126/38 65/127/38 56/74/38 62/114/38
f 67/128/7 71/129/7 75/130/7 66/131/7
f 56/74/39 65/127/39 67/132/39 57/73/39
f 35/133/40 109/134/40 33/70/40 25/67/40
f 65/135/24 68/55/24 67/128/24
f 67/128/24 68/55/24 69/58/24
f 98/104/22 83/31/22 94/30/22 100/136/22 115/137/22
f 101/138/41 109/134/41 35/133/41 102/103/41 117/139/41
f 64/140/42 66/131/42 72/56/42
f 72/56/42 66/131/42 73/57/42
f 70/141/24 71/129/24 67/128/24 69/58/24
f 13/47/14 19/44/14 12/46/14 10/142/14
f 102/103/43 35/133/43 36/78/43 98/104/43
f 80/88/42 76/43/42 82/87/42
f 82/87/42 76/43/42 78/32/42
f 66/131/42 75/130/42 74/143/42 73/57/42
f 88/144/44 91/145/44 92/2/44 87/146/44
f 89/147/45 86/148/45 85/125/45 90/1/45
f 86/149/46 88/150/46 87/146/46 85/151/46
f 51/152/47 49/100/47 53/111/47 52/153/47
f 80/154/48 82/155/48 85/151/48 87/146/48
f 63/113/48 66/156/48 64/126/48 62/114/48
f 14/36/49 17/35/49 22/48/49 13/47/49
f 92/2/50 81/157/50 80/154/50 87/146/50
f 67/158/50 66/156/50 63/113/50 57/122/50
f 83/31/42 84/77/42 82/87/42 78/32/42
f 93/81/24 79/29/24 77/42/24
f 93/81/24 77/42/24 81/89/24
f 73/57/10 74/143/10 70/141/10 69/58/10
f 15/37/51 19/44/51 20/49/51 16/33/51
f 2/12/49 5/159/49 8/160/49 4/13/49
f 96/17/52 44/161/52 38/84/52
f 38/84/52 44/161/52 42/108/52
f 38/84/52 42/108/52 46/107/52
f 122/162/10 130/163/10 106/164/10 104/165/10
f 91/166/7 88/150/7 86/149/7 89/167/7
f 42/108/53 44/161/53 43/92/53 41/91/53
f 137/168/54 114/169/54 100/15/54 131/19/54
f 136/170/55 130/171/55 108/172/55 128/173/55
f 22/48/12 98/104/12 120/174/12 21/40/12
f 21/40/12 120/174/12 121/41/12
f 135/175/56 118/176/56 103/177/56 116/178/56
f 105/179/57 70/141/57 74/143/57 101/138/57 125/180/57
f 102/103/12 17/35/12 18/34/12 123/181/12
f 102/103/12 123/181/12 119/182/12
f 134/183/58 114/184/58 99/185/58 112/186/58
f 133/187/59 126/188/59 105/179/59 125/180/59
f 71/129/57 110/79/57 109/134/57 75/130/57
f 95/76/22 100/136/22 94/30/22
f 32/63/60 34/69/60 33/70/60 31/64/60
f 83/31/22 98/104/22 84/77/22
f 84/77/22 98/104/22 36/78/22
f 39/189/61 38/105/61 54/96/61 53/95/61
f 100/136/22 95/76/22 37/75/22
f 9/50/62 14/36/62 13/47/62 10/142/62
f 51/152/7 52/153/7 55/190/7 50/191/7
f 118/192/10 104/165/10 106/164/10 127/193/10
f 72/56/57 68/55/57 65/135/57 64/140/57
f 132/194/10 112/195/10 99/196/10
f 109/134/63 110/79/63 31/64/63 33/70/63
f 26/66/64 36/78/64 35/133/64 25/67/64
f 28/71/65 37/75/65 36/78/65 26/66/65
f 38/84/5 40/80/5 96/17/5
f 96/17/5 40/80/5 107/18/5
f 93/124/39 81/157/39 92/2/39 90/1/39
f 47/16/5 100/15/5 37/83/5
f 47/16/5 37/83/5 39/82/5
f 44/161/10 96/17/10 47/16/10 43/92/10
f 11/21/66 9/197/66 1/14/66 3/5/66
f 75/130/57 109/134/57 101/138/57
f 75/130/57 101/138/57 74/143/57
f 70/141/57 105/179/57 71/129/57
f 71/129/57 105/179/57 110/79/57
f 107/18/67 40/80/67 110/79/67 105/179/67 129/198/67
f 108/199/10 97/200/10 112/195/10 132/194/10
f 103/201/10 118/192/10 127/193/10
f 116/178/59 133/187/59 125/180/59 101/138/59
f 103/177/59 127/202/59 133/187/59 116/178/59
f 127/202/59 106/203/59 126/188/59 133/187/59
f 113/204/58 134/183/58 112/186/58 97/205/58
f 98/104/58 115/137/58 134/183/58 113/204/58
f 115/137/58 100/136/58 114/184/58 134/183/58
f 119/182/12 124/206/12 104/207/12
f 119/182/12 123/181/12 124/206/12
f 123/181/12 18/34/12 124/206/12
f 117/139/56 135/175/56 116/178/56 101/138/56
f 102/103/56 119/182/56 135/175/56 117/139/56
f 119/182/56 104/207/56 118/176/56 135/175/56
f 121/41/12 113/204/12 97/205/12
f 121/41/12 120/174/12 113/204/12
f 120/174/12 98/104/12 113/204/12
f 129/198/55 136/170/55 128/173/55 107/18/55
f 105/179/55 126/188/55 136/170/55 129/198/55
f 126/188/55 106/203/55 130/171/55 136/170/55
f 128/173/54 137/168/54 131/19/54 107/18/54
f 108/172/54 132/208/54 137/168/54 128/173/54
f 132/208/54 99/209/54 114/169/54 137/168/54
f 97/200/10 108/199/10 130/163/10 122/162/10
f 122/210/12 138/38/12 121/41/12 97/205/12
f 104/207/12 124/206/12 138/38/12 122/210/12
f 124/206/12 18/34/12 111/39/12 138/38/12
