# Blender v2.93.0 OBJ File: 'w1 EXPORT FILE extra.blend'
# www.blender.org
mtllib Cloud 1.mtl
g Cloud_1
v -2.903921 15.223016 2.391457
v -0.499283 10.294382 -11.358625
v 0.108934 6.425283 -10.515186
v 1.290385 7.755767 -11.423451
v 2.916215 8.929063 -10.201095
v -1.491288 6.416785 -8.244909
v -2.598740 9.317993 -9.383932
v -3.647185 6.412818 -6.986570
v -6.041548 6.058918 -1.802651
v -3.004784 12.569856 -3.914022
v -5.449024 12.053048 -3.355092
v -6.740385 10.110022 -2.144389
v -6.638874 6.465189 -4.712302
v -7.199233 6.272025 0.011918
v -7.308986 11.234241 1.289803
v 2.818333 10.270771 10.697474
v -0.197136 9.911368 12.323732
v -1.109040 14.432634 7.948621
v -4.799579 6.452764 7.680785
v 5.112259 6.687963 2.368802
v 3.940023 5.971974 4.666731
v -0.657592 14.483521 -6.628959
v 2.469272 10.664766 -8.537101
v 2.124472 6.467019 -5.320347
v -3.853518 11.806218 -6.356551
v 4.230286 10.448663 -6.179504
v 2.209189 5.981228 -3.071603
v 5.179296 11.004505 -2.093174
v 0.536340 5.469706 0.069869
v -1.311991 5.865365 -2.141445
v 1.182470 11.551695 -9.025401
v -3.095952 13.324890 -6.233959
v 3.622799 6.822776 1.300622
v 2.340121 5.613869 8.061456
v -2.402877 14.993793 -2.236636
v 5.442191 10.291654 1.113901
v -2.203839 6.067885 9.455532
v 4.241480 14.283659 1.969990
v -0.785699 16.072678 -0.988248
v -7.343148 7.671521 -2.120142
v -5.579911 13.219320 3.708585
v -5.963733 10.062643 2.771280
v 1.360157 5.361774 4.442815
v -1.425955 11.378484 -8.996057
v -0.200773 15.987872 2.329832
v -0.415940 14.140949 -3.962059
v 3.865931 7.900030 -6.813603
v 2.045621 16.042660 -0.690268
v -3.622211 10.946348 10.155766
v 1.168186 6.306153 -6.572578
v -2.290873 5.065493 6.293581
v 5.168538 7.858878 -0.560928
v -6.847988 11.424175 -0.513751
v 1.305193 6.557654 10.840111
v -7.069578 10.451876 -4.628987
v -2.104514 7.612096 -10.623876
v -0.932565 6.107741 -5.325583
v 2.241594 6.639060 -9.147984
v 3.190697 6.099082 -1.399195
v 3.657945 12.185267 3.259960
v -5.172490 11.809066 -0.818898
v -6.562864 10.491201 5.794864
v -1.999236 7.771532 10.915580
v 3.673897 11.957086 -3.959309
v 6.169442 10.434074 -4.731133
v 6.389644 10.241523 -2.800083
v -5.044143 7.147690 2.222809
v -8.006886 8.290873 1.599766
v 5.541316 11.159393 4.653635
v 2.880988 13.339108 8.653666
v -4.398519 6.010587 2.852227
v 3.122232 6.196251 6.709471
v 6.666572 8.953333 2.830772
v 5.435359 6.703285 4.559615
v 0.922094 6.477639 -3.806470
v 4.942770 6.395893 -2.324372
v 3.275583 11.705726 6.011568
v 0.318313 12.557201 10.808884
v -5.445952 11.792454 2.465889
v 1.393480 6.145666 2.809625
v 2.793784 13.046203 -5.810453
v 2.848011 8.006296 -7.570164
v 5.416892 9.328682 5.784334
v -5.946632 6.908098 4.802371
v -4.138021 12.539330 8.652627
v 1.790685 14.142109 -3.856127
v -4.170835 5.754329 -5.111423
v 6.054505 8.348577 -5.669674
v 4.270093 13.491573 -1.801184
v 1.284937 14.491083 4.397903
v 4.527880 8.736090 6.291937
v 1.920999 10.989304 -10.667545
v -4.572034 14.019747 6.197205
v 4.007633 6.528712 -4.934362
v -2.263339 14.906761 3.944833
v 0.664762 13.873402 6.554362
v 4.033682 8.371122 8.407051
v -2.947441 6.762865 0.461016
v -5.345070 8.369630 -7.356323
v -7.959410 9.650324 -0.961944
v -5.182502 5.937191 0.002280
v -2.637659 8.150637 -7.435983
vt 0.029814 0.051068
vt 0.029814 0.051068
vt 0.029814 0.051068
vt 0.029814 0.051068
vt 0.029814 0.051068
vt 0.029814 0.051068
vt 0.029814 0.051068
vt 0.029814 0.051068
vt 0.029814 0.051068
vt 0.029814 0.051068
vt 0.029814 0.051068
vt 0.029814 0.051068
vt 0.029814 0.051068
vt 0.029814 0.051068
vt 0.029814 0.051068
vt 0.029814 0.051068
vt 0.029814 0.051068
vt 0.029814 0.051068
vt 0.029814 0.051068
vt 0.029814 0.051068
vt 0.029814 0.051068
vt 0.029814 0.051068
vt 0.029814 0.051068
vt 0.029814 0.051068
vt 0.029814 0.051068
vt 0.029814 0.051068
vt 0.029814 0.051068
vt 0.029814 0.051068
vt 0.029814 0.051068
vt 0.029814 0.051068
vt 0.029814 0.051068
vt 0.029814 0.051068
vt 0.029814 0.051068
vt 0.029814 0.051068
vt 0.029814 0.051068
vt 0.029814 0.051068
vt 0.029814 0.051068
vt 0.029814 0.051068
vt 0.029814 0.051068
vt 0.029814 0.051068
vt 0.029814 0.051068
vt 0.029814 0.051068
vt 0.029814 0.051068
vt 0.029814 0.051068
vt 0.029814 0.051068
vt 0.029814 0.051068
vt 0.029814 0.051068
vt 0.029814 0.051068
vt 0.029814 0.051068
vt 0.029814 0.051068
vt 0.029814 0.051068
vt 0.029814 0.051068
vt 0.029814 0.051068
vt 0.029814 0.051068
vt 0.029814 0.051068
vt 0.029814 0.051068
vt 0.029814 0.051068
vt 0.029814 0.051068
vt 0.029814 0.051068
vt 0.029814 0.051068
vt 0.029814 0.051068
vt 0.029814 0.051068
vt 0.029814 0.051068
vt 0.029814 0.051068
vt 0.029814 0.051068
vt 0.029814 0.051068
vt 0.029814 0.051068
vt 0.029814 0.051068
vt 0.029814 0.051068
vt 0.029814 0.051068
vt 0.029814 0.051068
vt 0.029814 0.051068
vt 0.029814 0.051068
vt 0.029814 0.051068
vt 0.029814 0.051068
vt 0.029814 0.051068
vt 0.029814 0.051068
vt 0.029814 0.051068
vt 0.029814 0.051068
vt 0.029814 0.051068
vt 0.029814 0.051068
vt 0.029814 0.051068
vt 0.029814 0.051068
vt 0.029814 0.051068
vt 0.029814 0.051068
vt 0.029814 0.051068
vt 0.029814 0.051068
vt 0.029814 0.051068
vt 0.029814 0.051068
vt 0.029814 0.051068
vt 0.029814 0.051068
vt 0.029814 0.051068
vt 0.029814 0.051068
vt 0.029814 0.051068
vt 0.029814 0.051068
vt 0.029814 0.051068
vt 0.029814 0.051068
vt 0.029814 0.051068
vt 0.029814 0.051068
vt 0.029814 0.051068
vt 0.029814 0.051068
vt 0.029814 0.051068
vn 0.5610 0.6890 -0.4588
vn 0.9392 0.3434 -0.0007
vn 0.9946 -0.0483 -0.0923
vn 0.9528 0.2985 -0.0555
vn 0.8025 -0.3969 0.4454
vn 0.3946 -0.9014 0.1785
vn 0.3592 0.8594 0.3640
vn -0.2700 0.9601 0.0721
vn -0.4996 0.8608 -0.0967
vn -0.7743 0.6223 -0.1147
vn -0.7690 0.4817 -0.4202
vn 0.0081 0.9997 0.0241
vn -0.0695 0.7975 -0.5993
vn 0.0635 0.8534 -0.5174
vn -0.0660 0.9345 -0.3497
vn 0.5596 0.0836 -0.8245
vn 0.4166 -0.7351 -0.5349
vn 0.7211 -0.4534 -0.5239
vn 0.9440 -0.3182 -0.0871
vn 0.9816 0.1709 0.0854
vn -0.8438 -0.5342 -0.0509
vn -0.9736 -0.1866 -0.1313
vn -0.7059 0.4968 -0.5048
vn -0.2220 -0.1318 -0.9661
vn -0.0468 -0.2245 -0.9733
vn 0.4283 -0.4513 -0.7829
vn -0.1806 0.9770 0.1137
vn -0.7608 0.6217 0.1863
vn -0.9579 0.2384 0.1597
vn -0.2871 -0.9550 -0.0744
vn -0.5136 0.7887 -0.3379
vn -0.2479 0.9458 -0.2096
vn -0.2764 0.9609 -0.0182
vn -0.1414 -0.8655 0.4806
vn -0.2956 -0.2659 0.9176
vn -0.2154 0.9754 0.0477
vn -0.8200 0.5520 -0.1515
vn -0.6879 -0.6272 -0.3652
vn -0.1637 -0.9864 0.0114
vn -0.6794 0.5488 -0.4871
vn 0.8129 -0.5297 0.2421
vn 0.9243 0.1983 0.3260
vn 0.7353 -0.2759 0.6190
vn 0.1491 0.8594 0.4891
vn 0.3989 0.3959 0.8271
vn -0.3412 0.5162 0.7855
vn -0.3048 0.7196 0.6239
vn -0.8245 -0.3079 0.4748
vn 0.0178 -0.9015 -0.4323
vn 0.1844 -0.9601 0.2101
vn 0.6369 0.6730 0.3760
vn 0.3158 0.9486 0.0213
vn -0.8175 0.2325 0.5270
vn -0.2022 0.9641 0.1724
vn -0.4642 -0.8846 0.0451
vn -0.4628 -0.8856 0.0402
vn -0.8629 0.4640 0.2002
vn -0.9132 -0.2241 -0.3403
vn -0.9770 -0.1191 -0.1767
vn -0.4449 0.8893 -0.1058
vn 0.5325 -0.3214 -0.7830
vn 0.4352 -0.8984 -0.0579
vn 0.9158 0.1642 0.3666
vn 0.5392 0.4157 0.7324
vn 0.6234 -0.3269 0.7102
vn 0.1197 -0.9598 -0.2539
vn 0.0937 -0.9631 -0.2523
vn 0.6029 0.5640 -0.5643
vn 0.2716 -0.8328 -0.4824
vn 0.4238 0.8653 -0.2677
vn 0.7578 0.6520 0.0233
vn -0.0067 0.9918 0.1280
vn -0.4931 0.8214 0.2867
vn 0.1160 -0.9883 0.0990
vn -0.4039 0.9020 0.1525
vn -0.8867 0.4283 0.1742
vn -0.6503 0.3776 -0.6592
vn -0.0496 0.6132 -0.7883
vn 0.4344 -0.7117 -0.5521
vn 0.4315 0.1592 -0.8880
vn 0.5703 0.3108 -0.7604
vn 0.5913 -0.7664 -0.2509
vn 0.5263 0.8499 0.0247
vn 0.9344 -0.3375 0.1135
vn 0.1794 -0.9772 -0.1140
vn 0.0269 -0.9992 0.0284
vn 0.1470 -0.7937 -0.5903
vn 0.6125 0.5545 -0.5634
vn 0.2038 -0.9777 -0.0507
vn 0.8082 0.3510 -0.4728
vn 0.6365 -0.7644 0.1030
vn 0.7158 0.6844 -0.1383
vn 0.8137 0.1229 0.5681
vn 0.3633 0.8866 0.2863
vn 0.3006 -0.9436 0.1388
vn 0.6212 0.2777 0.7328
vn 0.7316 0.6471 0.2144
vn 0.0223 0.8174 0.5756
vn -0.2542 0.9219 0.2925
vn -0.2988 -0.9006 0.3157
vn -0.7279 0.5483 0.4118
vn -0.8025 0.5933 -0.0638
vn -0.3347 -0.9356 0.1123
vn -0.3708 0.5890 -0.7181
vn -0.0116 -0.9859 -0.1667
vn 0.0199 0.9052 -0.4245
vn -0.0886 -0.8905 -0.4463
vn 0.2217 0.1808 -0.9582
vn -0.1239 0.8826 -0.4536
vn 0.5732 0.8191 -0.0227
vn 0.9017 0.3967 -0.1716
vn 0.1427 -0.9874 -0.0682
vn 0.7570 -0.6090 0.2368
vn -0.0272 -0.9994 -0.0229
vn -0.4427 -0.6025 0.6641
vn -0.8612 0.4434 0.2485
vn -0.4371 -0.8438 -0.3113
vn -0.7228 0.2569 -0.6415
vn -0.1892 -0.4335 -0.8811
vn -0.0055 0.2815 -0.9595
vn 0.0829 -0.9473 -0.3095
vn 0.2318 -0.9717 -0.0463
vn 0.1041 -0.9926 -0.0631
vn -0.0357 -0.9968 0.0716
vn -0.0161 -0.9483 0.3169
vn -0.7831 -0.6174 0.0746
vn -0.7806 0.6083 0.1436
vn -0.9710 -0.1004 -0.2171
vn -0.8699 -0.0838 -0.4860
vn -0.5064 -0.5629 -0.6532
vn -0.3126 -0.8656 -0.3913
vn -0.5620 0.4465 -0.6963
vn 0.3794 -0.8933 -0.2408
vn 0.2247 -0.8614 0.4556
vn -0.5721 0.3056 0.7611
vn -0.6250 0.2269 0.7469
vn -0.3898 -0.6606 0.6416
vn -0.9645 0.2402 0.1096
vn -0.9657 -0.2215 -0.1354
vn -0.9509 -0.2842 -0.1224
vn -0.7185 0.1709 -0.6742
vn -0.2812 0.7380 -0.6134
vn 0.2709 0.9617 -0.0412
vn 0.8767 -0.4647 0.1246
vn 0.5421 0.7486 -0.3818
vn 0.8769 0.3956 0.2731
vn 0.9742 0.2257 0.0059
vn 0.7362 -0.5082 0.4468
vn 0.4733 0.4816 0.7376
vn 0.4833 -0.1639 0.8600
vn 0.0046 -0.9463 0.3231
vn -0.1469 -0.4545 0.8786
vn -0.2110 -0.6213 0.7546
vn -0.5507 -0.0828 0.8306
vn -0.3576 0.5771 0.7343
vn 0.2434 -0.8764 -0.4157
vn -0.0430 -0.9698 -0.2400
vn 0.0741 0.9529 0.2942
vn 0.2104 -0.9591 0.1895
vn 0.8349 -0.3999 0.3782
vn 0.2168 -0.9359 -0.2777
vn -0.0025 -0.9532 0.3023
vn -0.3333 -0.8960 0.2932
vn -0.5700 -0.2768 0.7736
vn -0.3587 0.7700 0.5277
vn -0.8184 0.4166 0.3958
vn -0.8207 -0.0953 0.5634
vn -0.9130 -0.2470 0.3248
vn -0.9596 0.1807 -0.2158
vn -0.9147 0.2132 -0.3434
vn -0.7403 -0.5943 -0.3142
vn -0.2625 0.6196 -0.7397
vn -0.5678 -0.6213 -0.5400
vn 0.0202 -0.9572 -0.2889
vn 0.5825 0.7856 -0.2089
vn 0.6486 -0.3026 -0.6984
vn 0.8299 -0.5452 -0.1186
vn 0.8209 0.5489 -0.1575
vn 0.8972 -0.1815 0.4027
vn 0.3156 -0.5299 0.7871
vn 0.3582 0.2363 0.9032
vn 0.3451 0.9154 0.2075
vn 0.4290 0.7176 -0.5486
vn 0.5649 -0.7544 -0.3345
vn 0.5694 -0.2081 -0.7953
vn 0.8022 0.0336 -0.5961
vn 0.7263 0.4726 -0.4992
vn 0.8616 0.4934 -0.1193
vn -0.2563 -0.7897 -0.5574
vn 0.1166 -0.9924 0.0385
vn -0.7390 -0.0474 -0.6720
vn -0.4024 0.6159 -0.6773
vn 0.3526 0.8127 -0.4638
vn 0.9935 -0.0036 -0.1137
vn 0.5337 0.8457 0.0011
vn 0.9308 -0.3310 0.1554
vn 0.6249 0.3402 0.7027
vn 0.4132 -0.7261 0.5495
vn 0.1558 -0.9876 -0.0218
vn -0.1280 -0.9113 -0.3914
usemtl Material
s off
f 86/1/1 48/2/1 89/3/1
f 89/3/2 36/4/2 28/5/2
f 28/5/3 36/4/3 52/6/3
f 89/3/4 38/7/4 36/4/4
f 52/6/5 36/4/5 33/8/5
f 33/8/6 80/9/6 59/10/6
f 38/7/7 45/11/7 90/12/7
f 45/11/8 39/13/8 1/14/8
f 1/14/9 39/13/9 35/15/9
f 35/15/10 61/16/10 1/14/10
f 61/16/11 35/15/11 10/17/11
f 48/2/12 39/13/12 45/11/12
f 35/15/13 39/13/13 86/1/13
f 39/13/14 48/2/14 86/1/14
f 44/18/15 31/19/15 92/20/15
f 92/20/16 5/21/16 4/22/16
f 3/23/17 4/22/17 58/24/17
f 4/22/18 5/21/18 58/24/18
f 5/21/19 82/25/19 58/24/19
f 5/21/20 23/26/20 82/25/20
f 102/27/21 56/28/21 6/29/21
f 7/30/22 56/28/22 102/27/22
f 44/18/23 2/31/23 7/30/23
f 56/28/24 2/31/24 4/22/24
f 102/27/25 8/32/25 99/33/25
f 8/32/26 102/27/26 57/34/26
f 10/17/27 11/35/27 61/16/27
f 11/35/28 55/36/28 12/37/28
f 12/37/29 55/36/29 40/38/29
f 13/39/30 87/40/30 9/41/30
f 11/35/31 25/42/31 55/36/31
f 11/35/32 10/17/32 25/42/32
f 61/16/33 15/43/33 79/44/33
f 101/45/34 67/46/34 14/47/34
f 42/48/35 68/49/35 67/46/35
f 15/43/36 61/16/36 53/50/36
f 15/43/37 53/50/37 100/51/37
f 40/38/38 9/41/38 14/47/38
f 14/47/39 9/41/39 101/45/39
f 53/50/40 12/37/40 100/51/40
f 72/52/41 97/53/41 34/54/41
f 70/55/42 16/56/42 97/53/42
f 97/53/43 16/56/43 54/57/43
f 70/55/44 18/58/44 78/59/44
f 78/59/45 17/60/45 16/56/45
f 78/59/46 49/61/46 17/60/46
f 18/58/47 85/62/47 78/59/47
f 37/63/48 63/64/48 49/61/48
f 71/65/49 80/9/49 43/66/49
f 43/66/50 72/52/50 51/67/50
f 90/12/51 96/68/51 77/69/51
f 95/70/52 18/58/52 96/68/52
f 49/61/53 85/62/53 62/71/53
f 18/58/54 95/70/54 93/72/54
f 19/73/55 84/74/55 51/67/55
f 84/74/56 71/65/56 51/67/56
f 93/72/57 41/75/57 62/71/57
f 84/74/58 42/48/58 67/46/58
f 62/71/59 42/48/59 84/74/59
f 41/75/60 93/72/60 95/70/60
f 36/4/61 20/76/61 33/8/61
f 20/76/62 74/77/62 21/78/62
f 73/79/63 69/80/63 83/81/63
f 69/80/64 77/69/64 83/81/64
f 83/81/65 91/82/65 74/77/65
f 80/9/66 33/8/66 21/78/66
f 33/8/67 20/76/67 21/78/67
f 31/19/68 81/83/68 23/26/68
f 82/25/69 47/84/69 24/85/69
f 22/86/70 86/1/70 81/83/70
f 81/83/71 86/1/71 64/87/71
f 22/86/72 46/88/72 86/1/72
f 10/17/73 46/88/73 32/89/73
f 75/90/74 57/34/74 24/85/74
f 22/86/75 32/89/75 46/88/75
f 25/42/76 10/17/76 32/89/76
f 32/89/77 44/18/77 25/42/77
f 44/18/78 22/86/78 31/19/78
f 94/91/79 47/84/79 88/92/79
f 26/93/80 88/92/80 47/84/80
f 26/93/81 65/94/81 88/92/81
f 88/92/82 76/95/82 94/91/82
f 64/87/83 66/96/83 65/94/83
f 88/92/84 66/96/84 76/95/84
f 76/95/85 27/97/85 94/91/85
f 24/85/86 94/91/86 75/90/86
f 24/85/87 47/84/87 94/91/87
f 89/3/88 64/87/88 86/1/88
f 27/97/89 59/10/89 29/98/89
f 28/5/90 64/87/90 89/3/90
f 33/8/91 59/10/91 52/6/91
f 89/3/92 48/2/92 38/7/92
f 38/7/93 60/99/93 36/4/93
f 48/2/94 45/11/94 38/7/94
f 29/98/95 59/10/95 80/9/95
f 60/99/96 38/7/96 90/12/96
f 90/12/97 77/69/97 60/99/97
f 90/12/98 45/11/98 95/70/98
f 95/70/99 45/11/99 1/14/99
f 80/9/100 98/100/100 29/98/100
f 1/14/101 79/44/101 95/70/101
f 61/16/102 79/44/102 1/14/102
f 98/100/103 30/101/103 29/98/103
f 46/88/104 10/17/104 35/15/104
f 29/98/105 30/101/105 27/97/105
f 35/15/106 86/1/106 46/88/106
f 30/101/107 75/90/107 27/97/107
f 4/22/108 2/31/108 92/20/108
f 2/31/109 44/18/109 92/20/109
f 92/20/110 31/19/110 23/26/110
f 92/20/111 23/26/111 5/21/111
f 50/102/112 3/23/112 58/24/112
f 58/24/113 82/25/113 50/102/113
f 3/23/114 50/102/114 6/29/114
f 50/102/115 102/27/115 6/29/115
f 102/27/116 44/18/116 7/30/116
f 6/29/117 56/28/117 3/23/117
f 7/30/118 2/31/118 56/28/118
f 3/23/119 56/28/119 4/22/119
f 25/42/120 102/27/120 99/33/120
f 87/40/121 8/32/121 57/34/121
f 57/34/122 75/90/122 30/101/122
f 57/34/123 30/101/123 87/40/123
f 30/101/124 9/41/124 87/40/124
f 30/101/125 98/100/125 9/41/125
f 13/39/126 9/41/126 40/38/126
f 11/35/127 12/37/127 61/16/127
f 40/38/128 55/36/128 13/39/128
f 55/36/129 99/33/129 13/39/129
f 13/39/130 99/33/130 8/32/130
f 13/39/131 8/32/131 87/40/131
f 55/36/132 25/42/132 99/33/132
f 101/45/133 9/41/133 98/100/133
f 101/45/134 98/100/134 67/46/134
f 42/48/135 79/44/135 15/43/135
f 68/49/136 42/48/136 15/43/136
f 67/46/137 68/49/137 14/47/137
f 68/49/138 15/43/138 100/51/138
f 68/49/139 100/51/139 40/38/139
f 68/49/140 40/38/140 14/47/140
f 100/51/141 12/37/141 40/38/141
f 53/50/142 61/16/142 12/37/142
f 96/68/143 18/58/143 70/55/143
f 72/52/144 91/82/144 97/53/144
f 77/69/145 96/68/145 70/55/145
f 91/82/146 77/69/146 97/53/146
f 97/53/147 77/69/147 70/55/147
f 97/53/148 54/57/148 34/54/148
f 70/55/149 78/59/149 16/56/149
f 54/57/150 16/56/150 17/60/150
f 34/54/151 54/57/151 37/63/151
f 54/57/152 17/60/152 63/64/152
f 54/57/153 63/64/153 37/63/153
f 63/64/154 17/60/154 49/61/154
f 78/59/155 85/62/155 49/61/155
f 43/66/156 80/9/156 21/78/156
f 71/65/157 43/66/157 51/67/157
f 90/12/158 95/70/158 96/68/158
f 43/66/159 21/78/159 72/52/159
f 21/78/160 91/82/160 72/52/160
f 51/67/161 72/52/161 34/54/161
f 51/67/162 34/54/162 37/63/162
f 51/67/163 37/63/163 19/73/163
f 37/63/164 49/61/164 19/73/164
f 85/62/165 18/58/165 93/72/165
f 85/62/166 93/72/166 62/71/166
f 19/73/167 49/61/167 62/71/167
f 19/73/168 62/71/168 84/74/168
f 41/75/169 42/48/169 62/71/169
f 41/75/170 79/44/170 42/48/170
f 84/74/171 67/46/171 71/65/171
f 95/70/172 79/44/172 41/75/172
f 67/46/173 98/100/173 71/65/173
f 71/65/174 98/100/174 80/9/174
f 69/80/175 36/4/175 60/99/175
f 20/76/176 36/4/176 73/79/176
f 20/76/177 73/79/177 74/77/177
f 36/4/178 69/80/178 73/79/178
f 73/79/179 83/81/179 74/77/179
f 74/77/180 91/82/180 21/78/180
f 83/81/181 77/69/181 91/82/181
f 60/99/182 77/69/182 69/80/182
f 22/86/183 81/83/183 31/19/183
f 50/102/184 82/25/184 24/85/184
f 47/84/185 82/25/185 23/26/185
f 23/26/186 26/93/186 47/84/186
f 23/26/187 81/83/187 26/93/187
f 26/93/188 81/83/188 64/87/188
f 50/102/189 57/34/189 102/27/189
f 24/85/190 57/34/190 50/102/190
f 25/42/191 44/18/191 102/27/191
f 32/89/192 22/86/192 44/18/192
f 26/93/193 64/87/193 65/94/193
f 88/92/194 65/94/194 66/96/194
f 66/96/195 64/87/195 28/5/195
f 76/95/196 66/96/196 52/6/196
f 28/5/197 52/6/197 66/96/197
f 52/6/198 59/10/198 76/95/198
f 27/97/199 76/95/199 59/10/199
f 27/97/200 75/90/200 94/91/200
