# Blender v2.93.0 OBJ File: 'w1 EXPORT FILE extra.blend'
# www.blender.org
mtllib Metal scrap 3 light tan.mtl
g Metal_Scrap.008
v -4.818145 0.020000 1.416921
v -4.818145 0.680000 1.416921
v -6.658216 0.020000 -5.409280
v -6.658216 0.680000 -5.409280
v 3.834711 0.020000 8.414096
v 3.834711 0.680000 8.414096
v 2.803381 0.048000 -5.813334
v 2.803381 0.652000 -5.813334
v 4.838269 0.048000 1.391598
v 4.838269 0.652000 1.391598
v -5.696690 0.687738 -4.233317
v -5.696690 0.687738 -3.766650
v -5.696690 0.967738 -3.766650
v -5.696690 0.967738 -4.233317
v -4.296689 0.687738 -3.766651
v -4.296689 0.687738 -4.233317
v -4.296689 0.967738 -4.233317
v -4.296689 0.967738 -3.766651
v -4.763356 0.687738 -4.699984
v -5.230022 0.687738 -4.699984
v -5.230022 0.967738 -4.699984
v -4.763356 0.967738 -4.699984
v -5.230022 0.687738 -3.299984
v -4.763356 0.687738 -3.299984
v -4.763356 0.967738 -3.299984
v -5.230022 0.967738 -3.299984
v -5.206689 1.037738 -3.369984
v -5.626689 1.037738 -3.789984
v -5.626689 1.037738 -4.209984
v -4.786689 1.037738 -4.629984
v -4.366689 1.037738 -4.209984
v -4.366689 1.037738 -3.789984
v -5.206689 1.037738 -4.629984
v -4.786689 1.037738 -3.369984
v -4.696690 0.687738 -0.233317
v -4.696690 0.687738 0.233350
v -4.696690 0.967738 0.233350
v -4.696690 0.967738 -0.233317
v -3.296690 0.687738 0.233350
v -3.296690 0.687738 -0.233317
v -3.296690 0.967738 -0.233317
v -3.296690 0.967738 0.233350
v -3.763357 0.687738 -0.699983
v -4.230023 0.687738 -0.699983
v -4.230023 0.967738 -0.699983
v -3.763357 0.967738 -0.699983
v -4.230023 0.687738 0.700017
v -3.763357 0.687738 0.700017
v -3.763357 0.967738 0.700017
v -4.230023 0.967738 0.700017
v -4.206690 1.037738 0.630017
v -4.626690 1.037738 0.210017
v -4.626690 1.037738 -0.209983
v -3.786690 1.037738 -0.629983
v -3.366690 1.037738 -0.209983
v -3.366690 1.037738 0.210017
v -4.206690 1.037738 -0.629983
v -3.786690 1.037738 0.630017
vt 0.386502 0.741984
vt 0.391502 0.741984
vt 0.391502 0.746984
vt 0.386502 0.746984
vt 0.386502 0.756984
vt 0.391502 0.756984
vt 0.391502 0.761984
vt 0.386502 0.761984
vt 0.396502 0.751984
vt 0.396502 0.756984
vt 0.391502 0.754484
vt 0.394002 0.751984
vt 0.381502 0.756984
vt 0.381502 0.751984
vt 0.384002 0.751984
vt 0.386502 0.754484
vt 0.391502 0.749484
vt 0.386502 0.749484
vt 0.391502 0.760318
vt 0.391502 0.743651
vt 0.386502 0.743651
vt 0.386502 0.760318
vt 0.391502 0.750318
vt 0.391502 0.753651
vt 0.386502 0.753651
vt 0.386502 0.750318
vt 0.391502 0.755318
vt 0.391502 0.758651
vt 0.386502 0.758651
vt 0.386502 0.755318
vt 0.391502 0.745318
vt 0.386502 0.745318
vt 0.391502 0.748651
vt 0.391502 0.748651
vt 0.391502 0.750318
vt 0.383169 0.751984
vt 0.384836 0.751984
vt 0.384836 0.756984
vt 0.383169 0.756984
vt 0.381502 0.755318
vt 0.381502 0.753651
vt 0.386502 0.748651
vt 0.391502 0.755318
vt 0.391502 0.753651
vt 0.393169 0.751984
vt 0.394836 0.751984
vt 0.396502 0.753651
vt 0.396502 0.755318
vt 0.394836 0.756984
vt 0.393169 0.756984
vt 0.391502 0.760318
vt 0.391502 0.743651
vt 0.391502 0.758651
vt 0.391502 0.745318
vt 0.391502 0.760318
vt 0.391502 0.743651
vt 0.386502 0.743651
vt 0.386502 0.760318
vt 0.391502 0.750318
vt 0.391502 0.753651
vt 0.386502 0.753651
vt 0.386502 0.750318
vt 0.391502 0.755318
vt 0.391502 0.758651
vt 0.386502 0.758651
vt 0.386502 0.755318
vt 0.391502 0.745318
vt 0.386502 0.745318
vt 0.391502 0.748651
vt 0.391502 0.748651
vt 0.391502 0.750318
vt 0.383169 0.751984
vt 0.384836 0.751984
vt 0.384836 0.756984
vt 0.383169 0.756984
vt 0.381502 0.755318
vt 0.381502 0.753651
vt 0.386502 0.748651
vt 0.391502 0.755318
vt 0.391502 0.753651
vt 0.393169 0.751984
vt 0.394836 0.751984
vt 0.396502 0.753651
vt 0.396502 0.755318
vt 0.394836 0.756984
vt 0.393169 0.756984
vt 0.391502 0.760318
vt 0.391502 0.743651
vt 0.391502 0.758651
vt 0.391502 0.745318
vn -0.9655 0.0000 0.2603
vn -0.6288 0.0000 0.7776
vn 0.0029 1.0000 -0.0017
vn 0.0029 -1.0000 -0.0017
vn -0.0427 0.0000 -0.9991
vn 0.9899 0.0000 0.1415
vn 0.9624 0.0000 -0.2718
vn -0.7071 0.0000 0.7071
vn 0.7071 0.0000 -0.7071
vn 0.7071 0.0000 0.7071
vn 1.0000 0.0000 0.0000
vn -1.0000 0.0000 0.0000
vn 0.0000 0.7071 -0.7071
vn 0.0000 -1.0000 0.0000
vn 0.0000 0.0000 1.0000
vn 0.0000 0.0000 -1.0000
vn -0.7071 0.0000 -0.7071
vn 0.0000 1.0000 0.0000
vn -0.5145 0.6860 0.5145
vn 0.5145 0.6860 0.5145
vn 0.7071 0.7071 0.0000
vn -0.5145 0.6860 -0.5145
vn -0.7071 0.7071 -0.0000
vn 0.0000 0.7071 0.7071
vn 0.5145 0.6860 -0.5145
usemtl Train_Color_Palette
s off
f 1/1/1 2/2/1 4/3/1 3/4/1
f 5/5/2 6/6/2 2/7/2 1/8/2
f 4/9/3 2/10/3 6/6/3 10/11/3 8/12/3
f 5/5/4 1/13/4 3/14/4 7/15/4 9/16/4
f 3/4/5 4/3/5 8/17/5 7/18/5
f 9/16/6 10/11/6 6/6/6 5/5/6
f 10/11/7 9/16/7 7/15/7 8/17/7
f 26/19/8 13/20/8 12/21/8 23/22/8
f 22/23/9 17/24/9 16/25/9 19/26/9
f 18/27/10 25/28/10 24/29/10 15/30/10
f 16/25/11 17/24/11 18/27/11 15/30/11
f 12/21/12 13/20/12 14/31/12 11/32/12
f 22/23/13 21/33/13 33/34/13 30/35/13
f 20/36/14 19/37/14 16/25/14 15/30/14 24/38/14 23/39/14 12/40/14 11/41/14
f 24/29/15 25/28/15 26/19/15 23/22/15
f 20/42/16 21/33/16 22/23/16 19/26/16
f 14/31/17 21/33/17 20/42/17 11/32/17
f 32/43/18 31/44/18 30/45/18 33/46/18 29/47/18 28/48/18 27/49/18 34/50/18
f 13/20/19 26/19/19 27/51/19 28/52/19
f 25/28/20 18/27/20 32/43/20 34/53/20
f 18/27/21 17/24/21 31/44/21 32/43/21
f 21/33/22 14/31/22 29/54/22 33/34/22
f 14/31/23 13/20/23 28/52/23 29/54/23
f 26/19/24 25/28/24 34/53/24 27/51/24
f 17/24/25 22/23/25 30/35/25 31/44/25
f 50/55/8 37/56/8 36/57/8 47/58/8
f 46/59/9 41/60/9 40/61/9 43/62/9
f 42/63/10 49/64/10 48/65/10 39/66/10
f 40/61/11 41/60/11 42/63/11 39/66/11
f 36/57/12 37/56/12 38/67/12 35/68/12
f 46/59/13 45/69/13 57/70/13 54/71/13
f 44/72/14 43/73/14 40/61/14 39/66/14 48/74/14 47/75/14 36/76/14 35/77/14
f 48/65/15 49/64/15 50/55/15 47/58/15
f 44/78/16 45/69/16 46/59/16 43/62/16
f 38/67/17 45/69/17 44/78/17 35/68/17
f 56/79/18 55/80/18 54/81/18 57/82/18 53/83/18 52/84/18 51/85/18 58/86/18
f 37/56/19 50/55/19 51/87/19 52/88/19
f 49/64/20 42/63/20 56/79/20 58/89/20
f 42/63/21 41/60/21 55/80/21 56/79/21
f 45/69/22 38/67/22 53/90/22 57/70/22
f 38/67/23 37/56/23 52/88/23 53/90/23
f 50/55/24 49/64/24 58/89/24 51/87/24
f 41/60/25 46/59/25 54/71/25 55/80/25
