# Blender v2.93.0 OBJ File: 'w1 EXPORT FILE extra.blend'
# www.blender.org
mtllib Bridge Piece.mtl
g Bridge_piece_LP.001_Bridge_piece_LP.003
v 2.268006 26.081997 -4.536000
v 2.268006 23.246998 -1.701000
v 2.268006 26.081997 -2.835000
v 2.268005 23.246998 0.000000
v 2.268005 22.679998 -1.134000
v 2.268006 22.679998 -4.536000
v 2.268006 23.246998 -4.536000
v 2.268006 26.081997 4.536000
v 2.268006 26.081997 2.835000
v 2.268005 23.246998 1.701000
v 2.268005 22.679998 1.134000
v 2.268005 22.679998 4.536000
v 2.268005 23.246998 4.536000
v 3.742205 23.246998 -1.701000
v 3.742205 23.246998 -4.535999
v 3.742205 23.246998 1.701000
v 3.742205 23.246998 4.536000
v 3.742205 22.679998 4.536000
v 3.742205 22.679998 -4.535999
v 3.742206 26.081997 4.536000
v -2.267995 22.679998 1.134000
v -2.267995 22.679998 -1.134000
v -2.267995 22.679998 4.536000
v -3.742194 22.679998 4.535999
v -3.742194 22.679998 -4.536000
v -2.267994 22.679998 -4.536000
v -3.742194 23.246998 -1.701000
v -2.267994 23.246998 -1.701000
v -3.742194 23.246998 -4.536000
v -2.267994 23.246998 -4.536000
v -2.267995 23.246998 1.701000
v -3.742194 23.246998 1.701000
v -2.267995 23.246998 4.536000
v -3.742194 23.246998 4.535999
v -2.267994 26.081997 -4.536000
v -3.742193 26.081997 -4.536000
v -2.267995 23.246998 -0.000000
v 3.742206 26.081997 2.835000
v 3.742205 23.246998 0.000000
v 3.742206 26.081997 -4.535999
v 3.742206 26.081997 -2.835000
v -3.742194 26.081997 4.535999
v -3.742194 26.081997 2.835000
v -3.742194 23.246998 -0.000000
v -3.742193 26.081997 -2.835000
v -2.267994 26.081997 2.835000
v -2.267994 26.081997 4.536000
v -2.267994 26.081997 -2.835000
v -3.968993 26.081997 -4.536000
v -3.968994 26.081997 4.535999
v 3.969006 26.081997 -4.535999
v 3.969006 26.081997 4.536000
v 3.969006 26.762398 4.536000
v 1.701006 26.762398 4.536000
v 1.134006 26.762398 4.536000
v -1.133994 26.762398 4.536000
v -1.700994 26.762398 4.536000
v -3.968993 26.762398 4.535999
v 1.134007 26.762398 -4.536000
v 1.701007 26.762398 -4.536000
v 3.969006 26.762398 -4.535999
v -3.968993 26.762398 -4.536000
v -1.700993 26.762398 -4.536000
v -1.133993 26.762398 -4.536000
vt 0.069409 0.225502
vt 0.068810 0.225481
vt 0.069334 0.225493
vt 0.068743 0.222455
vt 0.068511 0.224021
vt 0.070114 0.235689
vt 0.069313 0.234004
vt 0.070114 0.206759
vt 0.068974 0.212280
vt 0.068448 0.218909
vt 0.068318 0.221331
vt 0.067743 0.216520
vt 0.067546 0.216660
vt 0.067502 0.216135
vt 0.068773 0.218284
vt 0.067043 0.215763
vt 0.069451 0.232908
vt 0.070022 0.232671
vt 0.067407 0.202947
vt 0.069082 0.222683
vt 0.069067 0.222495
vt 0.069063 0.222647
vt 0.069063 0.222678
vt 0.069056 0.222683
vt 0.069048 0.222632
vt 0.069063 0.222478
vt 0.069063 0.222464
vt 0.069060 0.222692
vt 0.069062 0.222680
vt 0.069045 0.222533
vt 0.069057 0.222474
vt 0.069064 0.222481
vt 0.069057 0.222522
vt 0.069055 0.222640
vt 0.069056 0.222640
vt 0.069056 0.222582
vt 0.069433 0.222293
vt 0.069543 0.225493
vt 0.067241 0.211142
vt 0.070058 0.225512
vt 0.069468 0.225503
vt 0.069047 0.222582
vt 0.069050 0.222528
vt 0.069052 0.222526
vt 0.069051 0.222527
vt 0.069055 0.222639
vt 0.069051 0.222527
vt 0.069057 0.222641
vt 0.569426 0.636762
vt 0.569985 0.636692
vt 0.569720 0.642344
vt 0.569045 0.642419
vt 0.570161 0.643929
vt 0.569788 0.644497
vt 0.570343 0.635593
vt 0.570704 0.635879
vt 0.570534 0.645576
vt 0.571125 0.628515
vt 0.572456 0.632239
vt 0.571382 0.646433
vt 0.570167 0.635859
vt 0.573258 0.632267
vt 0.573003 0.635041
vt 0.573279 0.643231
vt 0.573279 0.632893
vt 0.571475 0.645914
vt 0.572002 0.626796
vt 0.572459 0.624881
vt 0.569609 0.643796
vt 0.569685 0.643915
vt 0.570264 0.635670
vt 0.570139 0.635802
vt 0.571328 0.645227
vt 0.569879 0.643824
vt 0.572341 0.642835
vt 0.571686 0.645573
vt 0.570176 0.648051
vt 0.571399 0.633499
vt 0.571296 0.635047
vt 0.570554 0.645591
vn -1.0000 0.0000 0.0000
vn 0.0000 1.0000 0.0000
vn -0.0000 0.0000 1.0000
vn 0.0000 0.0000 -1.0000
vn -0.0000 -0.7071 0.7071
vn 0.0000 -1.0000 0.0000
vn 0.0000 -0.7071 -0.7071
vn -0.0000 0.8944 0.4472
vn 0.0000 0.8944 -0.4472
vn 0.0000 0.7071 0.7071
vn 1.0000 -0.0000 0.0000
vn 0.0000 0.7071 -0.7071
usemtl Steel_-_Satin.098
s 1
f 1/1/1 2/2/1 3/3/1
f 3/3/1 2/2/1 4/4/1
f 4/4/1 2/2/1 5/5/1
f 5/5/1 2/2/1 6/6/1
f 6/6/1 2/2/1 7/7/1
f 8/8/1 9/9/1 10/10/1
f 10/10/1 9/9/1 4/4/1
f 10/10/1 4/4/1 11/11/1
f 11/11/1 12/12/1 10/10/1
f 10/10/1 12/12/1 13/13/1
f 10/10/2 13/13/2 17/14/2 16/15/2
f 12/12/3 18/16/3 17/14/3 13/13/3
f 19/17/4 6/6/4 7/7/4 15/18/4
f 16/15/5 20/19/5 8/8/5 10/10/5
f 22/20/6 5/5/6 11/11/6 21/21/6
f 28/22/2 30/23/2 29/24/2 27/25/2
f 11/11/6 5/5/6 19/17/6
f 19/17/6 5/5/6 6/6/6
f 23/26/6 24/27/6 21/21/6
f 21/21/6 24/27/6 25/28/6
f 21/21/6 25/28/6 22/20/6
f 22/20/6 25/28/6 26/29/6
f 19/17/6 18/16/6 11/11/6
f 11/11/6 18/16/6 12/12/6
f 32/30/2 34/31/2 33/32/2 31/33/2
f 33/32/3 34/31/3 24/27/3 23/26/3
f 29/24/4 30/23/4 26/29/4 25/28/4
f 27/25/7 36/34/7 35/35/7 28/22/7
f 21/21/8 11/11/8 4/4/8 37/36/8
f 37/36/9 4/4/9 5/5/9 22/20/9
f 39/37/10 41/38/10 3/3/10 4/4/10
f 38/39/11 16/15/11 39/37/11
f 39/37/11 16/15/11 18/16/11
f 39/37/11 18/16/11 19/17/11
f 38/39/11 20/19/11 16/15/11
f 16/15/11 17/14/11 18/16/11
f 15/18/11 14/40/11 19/17/11
f 19/17/11 14/40/11 39/37/11
f 40/41/11 41/38/11 14/40/11
f 14/40/11 41/38/11 39/37/11
f 2/2/7 1/1/7 40/41/7 14/40/7
f 4/4/12 9/9/12 38/39/12 39/37/12
f 44/42/12 43/43/12 46/44/12 37/36/12
f 42/45/1 43/43/1 32/30/1
f 32/30/1 43/43/1 44/42/1
f 32/30/1 44/42/1 24/27/1
f 24/27/1 44/42/1 25/28/1
f 25/28/1 44/42/1 27/25/1
f 25/28/1 27/25/1 29/24/1
f 44/42/1 45/46/1 27/25/1
f 27/25/1 45/46/1 36/34/1
f 24/27/1 34/31/1 32/30/1
f 31/33/5 47/47/5 42/45/5 32/30/5
f 37/36/10 48/48/10 45/46/10 44/42/10
f 38/49/6 9/50/6 3/51/6 41/52/6
f 61/53/2 60/54/2 54/55/2 53/56/2
f 62/57/2 58/58/2 57/59/2 63/60/2
f 8/61/6 47/62/6 46/63/6 9/50/6
f 45/64/6 43/65/6 49/66/6
f 49/66/6 43/65/6 50/67/6
f 50/67/6 43/65/6 42/68/6
f 40/69/6 51/70/6 41/52/6
f 41/52/6 51/70/6 52/71/6
f 41/52/6 52/71/6 38/49/6
f 38/49/6 52/71/6 20/72/6
f 35/73/6 1/74/6 3/51/6 48/75/6
f 49/66/6 36/76/6 45/64/6
f 64/77/2 63/60/2 57/59/2 56/78/2
f 47/47/11 31/33/11 46/44/11
f 46/44/11 31/33/11 37/36/11
f 37/36/11 31/33/11 21/21/11
f 21/21/11 31/33/11 23/26/11
f 23/26/11 31/33/11 33/32/11
f 52/71/3 53/56/3 20/72/3
f 61/53/4 40/69/4 1/74/4 60/54/4
f 8/61/3 54/55/3 55/79/3
f 55/79/3 56/78/3 8/61/3
f 8/61/3 56/78/3 47/62/3
f 47/62/3 56/78/3 57/59/3
f 62/57/4 63/60/4 35/73/4 36/76/4
f 50/67/3 42/68/3 58/58/3
f 35/73/4 59/80/4 1/74/4
f 1/74/4 59/80/4 60/54/4
f 58/58/3 42/68/3 47/62/3 57/59/3
f 35/73/4 63/60/4 64/77/4
f 36/76/4 49/66/4 62/57/4
f 64/77/4 59/80/4 35/73/4
f 51/70/4 40/69/4 61/53/4
f 53/56/3 54/55/3 8/61/3 20/72/3
f 35/35/11 48/48/11 28/22/11
f 28/22/11 48/48/11 37/36/11
f 28/22/11 37/36/11 22/20/11
f 22/20/11 26/29/11 28/22/11
f 28/22/11 26/29/11 30/23/11
f 61/53/11 53/56/11 52/71/11 51/70/11
f 62/57/1 49/66/1 50/67/1 58/58/1
f 60/54/2 59/80/2 55/79/2 54/55/2
f 59/80/2 64/77/2 56/78/2 55/79/2
f 46/63/6 43/65/6 45/64/6 48/75/6
f 9/50/6 46/63/6 48/75/6 3/51/6
f 14/40/2 15/18/2 7/7/2 2/2/2
