# Blender v2.93.0 OBJ File: 'W2.blend'
# www.blender.org
mtllib Building 1.mtl
g Building_1
v -30.000000 0.000000 30.000000
v -30.000000 150.000000 30.000000
v -30.000000 0.000000 -30.000000
v -30.000000 150.000000 -30.000000
v 30.000000 0.000000 30.000000
v 30.000000 150.000000 30.000000
v 30.000000 0.000000 -30.000000
v 30.000000 150.000000 -30.000000
v 0.000000 0.000014 0.000000
v -12.860964 0.000008 -36.855614
v 12.860964 0.000008 -36.855614
v 0.000000 0.000014 -28.148312
v 12.860964 150.000000 -36.855614
v -12.860964 150.000000 -36.855614
v 12.860964 0.000008 36.855614
v -12.860964 0.000008 36.855614
v 0.000000 0.000014 28.148312
v -12.860964 150.000000 36.855614
v 12.860964 150.000000 36.855614
v -36.855614 0.000008 12.860964
v -36.855614 0.000008 -12.860964
v -28.148312 0.000014 0.000000
v -36.855614 150.000000 -12.860964
v -36.855614 150.000000 12.860964
v 36.855614 0.000008 -12.860964
v 36.855614 0.000008 12.860964
v 28.148312 0.000014 0.000000
v 36.855614 150.000000 12.860964
v 36.855614 150.000000 -12.860964
v 11.574867 150.000000 -33.170052
v -11.574868 150.000000 -33.170052
v -11.574867 150.000000 33.170052
v 11.574868 150.000000 33.170052
v -33.170052 150.000000 -11.574867
v -33.170052 150.000000 11.574868
v 33.170052 150.000000 11.574867
v 33.170052 150.000000 -11.574868
v -27.000002 150.000000 -27.000002
v 27.000002 150.000000 -27.000002
v 27.000002 150.000000 27.000002
v -27.000002 150.000000 27.000002
v 12.860964 153.000000 -36.855614
v -12.860964 153.000000 -36.855614
v -12.860964 153.000000 36.855614
v 12.860964 153.000000 36.855614
v -36.855614 153.000000 -12.860964
v -36.855614 153.000000 12.860964
v 36.855614 153.000000 12.860964
v 36.855614 153.000000 -12.860964
v -30.000000 153.000000 -30.000000
v 30.000000 153.000000 -30.000000
v 30.000000 153.000000 30.000000
v -30.000000 153.000000 30.000000
v 11.574867 153.000000 -33.170052
v -11.574868 153.000000 -33.170052
v -11.574867 153.000000 33.170052
v 11.574868 153.000000 33.170052
v -33.170052 153.000000 -11.574867
v -33.170052 153.000000 11.574868
v 33.170052 153.000000 11.574867
v 33.170052 153.000000 -11.574868
v -27.000002 153.000000 -27.000002
v 27.000002 153.000000 -27.000002
v 27.000002 153.000000 27.000002
v -27.000002 153.000000 27.000002
v 29.999998 60.822880 -29.999998
v 29.999998 98.322876 -29.999998
v -29.999998 51.677116 -29.999998
v -29.999998 89.177109 -29.999998
v -29.999998 51.677116 29.999998
v -29.999998 89.177109 29.999998
v 29.999998 60.822880 29.999998
v 29.999998 98.322876 29.999998
v -12.860963 54.997845 -36.855610
v -12.860963 92.497841 -36.855610
v 12.860963 95.002151 -36.855610
v 12.860963 57.502155 -36.855610
v 12.860963 57.502155 36.855610
v 12.860963 95.002151 36.855610
v -12.860963 92.497841 36.855610
v -12.860963 54.997845 36.855610
v 36.855610 63.063168 -12.860963
v 36.855610 100.563164 -12.860963
v 36.855610 100.563164 12.860963
v 36.855610 63.063168 12.860963
v -36.855610 49.436832 12.860963
v -36.855610 86.936821 12.860963
v -36.855610 86.936821 -12.860963
v -36.855610 49.436832 -12.860963
v 29.999998 91.270157 -29.999998
v -29.999998 77.479836 -29.999998
v -29.999998 77.479836 29.999998
v 29.999998 91.270157 29.999998
v -12.860963 81.979210 -36.855610
v 12.860963 86.770782 -36.855610
v 12.860963 86.770782 36.855610
v -12.860963 81.979210 36.855610
v 36.855610 94.374992 -12.860963
v 36.855610 94.374992 12.860963
v -36.855610 74.375000 12.860963
v -36.855610 74.375000 -12.860963
v 29.999998 72.520157 -29.999998
v -29.999998 58.729836 -29.999998
v -29.999998 58.729836 29.999998
v 29.999998 72.520157 29.999998
v -12.860963 63.229210 -36.855610
v 12.860963 68.020782 -36.855610
v 12.860963 68.020782 36.855610
v -12.860963 63.229210 36.855610
v 36.855610 75.624992 -12.860963
v 36.855610 75.624992 12.860963
v -36.855610 55.625000 12.860963
v -36.855610 55.625000 -12.860963
v 32.999992 91.270157 -32.999989
v 32.999992 98.322876 -32.999989
v -32.999992 77.479836 -32.999989
v -32.999992 89.177109 -32.999989
v -32.999992 77.479836 32.999989
v -32.999992 89.177109 32.999989
v 32.999992 91.270157 32.999989
v 32.999992 98.322876 32.999989
v -14.147057 81.979210 -40.541164
v -14.147057 92.497841 -40.541164
v 14.147057 68.020782 -40.541164
v 14.147057 57.502155 -40.541164
v 14.147057 86.770782 40.541164
v 14.147057 95.002151 40.541164
v -14.147057 63.229210 40.541164
v -14.147057 54.997845 40.541164
v 40.541161 94.374992 -14.147057
v 40.541161 100.563164 -14.147057
v 40.541161 75.624992 14.147057
v 40.541161 63.063168 14.147057
v -40.541161 74.375000 14.147057
v -40.541161 86.936821 14.147057
v -40.541161 55.625004 -14.147057
v -40.541161 49.436832 -14.147057
v -32.999992 51.677120 -32.999989
v -40.541161 86.936821 -14.147057
v 40.541161 100.563164 14.147057
v 32.999992 60.822880 32.999989
v -32.999992 51.677120 32.999989
v -40.541161 49.436832 14.147057
v -14.147057 92.497841 40.541164
v -14.147057 54.997845 -40.541164
v 40.541161 63.063168 -14.147057
v 32.999992 60.822880 -32.999989
v 14.147057 57.502155 40.541164
v 14.147057 95.002151 -40.541164
v 14.147057 86.770782 -40.541164
v -14.147057 81.979210 40.541164
v 40.541161 94.374992 14.147057
v -40.541161 74.375000 -14.147057
v 32.999992 72.520157 -32.999989
v -32.999992 58.729836 -32.999989
v -32.999992 58.729836 32.999989
v 32.999992 72.520157 32.999989
v -14.147057 63.229210 -40.541164
v 14.147057 68.020782 40.541164
v 40.541161 75.624992 -14.147057
v -40.541161 55.625004 14.147057
vt 0.043612 0.608155
vt 0.044202 0.609699
vt 0.044042 0.609960
vt 0.043357 0.608272
vt 0.049387 0.604565
vt 0.048665 0.606471
vt 0.045872 0.606918
vt 0.045540 0.603197
vt 0.046755 0.601782
vt 0.048442 0.602573
vt 0.046193 0.610650
vt 0.044953 0.612027
vt 0.043311 0.611181
vt 0.042375 0.609225
vt 0.043096 0.607356
vt 0.042014 0.605750
vt 0.042609 0.603496
vt 0.044105 0.602193
vt 0.047616 0.611705
vt 0.049784 0.608112
vt 0.049179 0.610440
vt 0.025097 0.601430
vt 0.042485 0.605458
vt 0.042776 0.608596
vt 0.025469 0.618022
vt 0.066788 0.614526
vt 0.049817 0.607767
vt 0.049490 0.604511
vt 0.066788 0.592233
vt 0.048300 0.576133
vt 0.046895 0.601740
vt 0.044534 0.602060
vt 0.034397 0.582799
vt 0.038609 0.633417
vt 0.045257 0.611472
vt 0.047662 0.611266
vt 0.053020 0.634743
vt 0.030611 0.626746
vt 0.038505 0.632824
vt 0.034825 0.583894
vt 0.028473 0.592027
vt 0.025846 0.617587
vt 0.052245 0.634198
vt 0.060439 0.626884
vt 0.057762 0.582412
vt 0.048026 0.577720
vt 0.028043 0.591184
vt 0.043046 0.603269
vt 0.025555 0.601799
vt 0.043624 0.610621
vt 0.030580 0.627449
vt 0.047340 0.610125
vt 0.045434 0.610313
vt 0.043351 0.605640
vt 0.043752 0.603994
vt 0.044859 0.603170
vt 0.046757 0.602893
vt 0.048014 0.603454
vt 0.048650 0.604992
vt 0.048909 0.607589
vt 0.048486 0.609299
vt 0.045302 0.611084
vt 0.047566 0.610886
vt 0.049221 0.610069
vt 0.048983 0.609827
vt 0.049515 0.607729
vt 0.044632 0.602429
vt 0.043274 0.603495
vt 0.049180 0.607619
vt 0.048693 0.609509
vt 0.047424 0.610468
vt 0.049213 0.604655
vt 0.045398 0.610659
vt 0.048167 0.603182
vt 0.048906 0.604863
vt 0.046864 0.602126
vt 0.043805 0.610323
vt 0.043051 0.608466
vt 0.048397 0.602802
vt 0.046782 0.602549
vt 0.042771 0.605499
vt 0.043553 0.603794
vt 0.043092 0.605608
vt 0.044774 0.602834
vt 0.048570 0.602490
vt 0.065853 0.614755
vt 0.753998 0.666425
vt 0.756772 0.658988
vt 0.762244 0.667280
vt 0.756038 0.670994
vt 0.135454 0.611745
vt 0.141511 0.607355
vt 0.141649 0.609060
vt 0.136480 0.613134
vt 0.058511 0.581067
vt 0.738264 0.679743
vt 0.740528 0.684528
vt 0.736111 0.688536
vt 0.733076 0.681352
vt 0.148460 0.638777
vt 0.152566 0.636562
vt 0.153241 0.637536
vt 0.148800 0.640030
vt 0.065853 0.593445
vt 0.739327 0.666739
vt 0.737818 0.671692
vt 0.732755 0.671007
vt 0.734782 0.663634
vt 0.157143 0.612734
vt 0.160656 0.620836
vt 0.159351 0.621033
vt 0.156043 0.614176
vt 0.150869 0.607144
vt 0.150676 0.609007
vt 0.137745 0.635627
vt 0.141795 0.638267
vt 0.141430 0.639539
vt 0.137017 0.636535
vt 0.061453 0.626884
vt 0.156725 0.641280
vt 0.150312 0.645824
vt 0.150197 0.644069
vt 0.155676 0.639765
vt 0.744622 0.686623
vt 0.741885 0.693353
vt 0.150289 0.645220
vt 0.140815 0.644882
vt 0.141035 0.643053
vt 0.150175 0.643466
vt 0.762244 0.681244
vt 0.758087 0.689930
vt 0.754977 0.683251
vt 0.756494 0.678363
vt 0.154590 0.622538
vt 0.152832 0.617164
vt 0.153530 0.616235
vt 0.155531 0.622084
vt 0.150846 0.607689
vt 0.150664 0.609557
vt 0.131887 0.631483
vt 0.132141 0.619679
vt 0.133447 0.619919
vt 0.133146 0.631387
vt 0.138123 0.616117
vt 0.136194 0.621357
vt 0.135265 0.620858
vt 0.137449 0.615163
vt 0.154461 0.630650
vt 0.154541 0.621990
vt 0.155480 0.621540
vt 0.155389 0.631138
vt 0.743342 0.664253
vt 0.740064 0.657832
vt 0.749565 0.655532
vt 0.749836 0.663846
vt 0.141492 0.608024
vt 0.141639 0.609724
vt 0.160588 0.620311
vt 0.160588 0.632741
vt 0.159180 0.632452
vt 0.159290 0.620503
vt 0.142272 0.614471
vt 0.138149 0.616788
vt 0.137474 0.615840
vt 0.141939 0.613164
vt 0.136239 0.622018
vt 0.136112 0.630796
vt 0.135140 0.631242
vt 0.135312 0.621524
vt 0.140850 0.645492
vt 0.141070 0.643666
vt 0.152805 0.616616
vt 0.148821 0.614199
vt 0.149181 0.612997
vt 0.153504 0.615694
vt 0.136051 0.630161
vt 0.135077 0.630607
vt 0.160656 0.633324
vt 0.159241 0.633034
vt 0.137797 0.636256
vt 0.141827 0.638893
vt 0.141464 0.640161
vt 0.137069 0.637160
vt 0.157117 0.612230
vt 0.156017 0.613658
vt 0.750883 0.686266
vt 0.751290 0.694382
vt 0.154505 0.631219
vt 0.155436 0.631711
vt 0.131962 0.632116
vt 0.132199 0.620362
vt 0.133500 0.620596
vt 0.133216 0.632021
vt 0.155636 0.639163
vt 0.153208 0.636943
vt 0.135982 0.639125
vt 0.136503 0.613823
vt 0.149186 0.613563
vt 0.141931 0.612506
vt 0.148784 0.639430
vt 0.135928 0.638509
vt 0.135476 0.612447
vt 0.142258 0.613817
vt 0.134813 0.639836
vt 0.134869 0.640447
vt 0.148832 0.614769
vt 0.156683 0.640671
vt 0.152534 0.635973
vt 0.148447 0.638179
vn 0.9285 0.0000 0.3714
vn 0.0000 -1.0000 -0.0000
vn -1.0000 -0.0000 0.0000
vn 1.0000 -0.0000 0.0000
vn 0.0000 -0.0000 1.0000
vn 0.0000 -0.0000 -1.0000
vn 0.3714 0.0000 -0.9285
vn 0.3714 0.0000 0.9285
vn 0.9285 0.0000 -0.3714
vn -0.3714 0.0000 -0.9285
vn -0.3714 0.0000 0.9285
vn -0.9285 -0.0000 0.3714
vn -0.9285 -0.0000 -0.3714
vn 0.0000 1.0000 0.0000
vn 0.1937 -0.9732 0.1242
vn 0.1447 -0.9851 -0.0928
vn -0.0869 0.9870 -0.1355
vn 0.1747 -0.9846 0.0000
vn -0.1447 0.9851 0.0928
vn -0.1937 0.9732 0.1242
vn 0.0631 -0.9931 0.0984
vn -0.1937 0.9732 -0.1242
vn -0.0631 0.9931 -0.0984
vn -0.1747 0.9846 0.0000
vn 0.1447 -0.9851 0.0928
vn 0.0869 -0.9870 -0.1355
vn 0.0631 -0.9931 -0.0984
vn -0.1447 0.9851 -0.0928
vn 0.1937 -0.9732 -0.1242
vn -0.0631 0.9931 0.0984
vn 0.0869 -0.9870 0.1355
vn 0.0923 -0.9957 0.0000
vn -0.0869 0.9870 0.1355
vn -0.0923 0.9957 0.0000
usemtl W2
s off
f 34/1/1 38/2/1 62/3/1 58/4/1
f 20/5/2 22/6/2 9/7/2 17/8/2 16/9/2 1/10/2
f 12/11/2 11/12/2 7/13/2 25/14/2 27/15/2 9/7/2
f 9/7/2 27/15/2 26/16/2 5/17/2 15/18/2 17/8/2
f 10/19/2 11/12/2 12/11/2
f 15/18/2 16/9/2 17/8/2
f 20/5/2 21/20/2 22/6/2
f 25/14/2 26/16/2 27/15/2
f 3/21/2 10/19/2 12/11/2 9/7/2 22/6/2 21/20/2
f 87/22/3 24/23/3 23/24/3 88/25/3
f 83/26/4 29/27/4 28/28/4 84/29/4
f 79/30/5 19/31/5 18/32/5 80/33/5
f 75/34/6 14/35/6 13/36/6 76/37/6
f 66/38/7 7/13/7 11/12/7 77/39/7
f 78/40/8 15/18/8 5/17/8 72/41/8
f 82/42/9 25/14/9 7/13/9 66/38/9
f 74/43/10 10/19/10 3/21/10 68/44/10
f 70/45/11 1/10/11 16/9/11 81/46/11
f 71/47/12 2/48/12 24/23/12 87/22/12
f 72/41/1 5/17/1 26/16/1 85/49/1
f 88/25/13 23/24/13 4/50/13 69/51/13
f 30/52/14 31/53/14 38/2/14 34/1/14 35/54/14 41/55/14 32/56/14 33/57/14 40/58/14 36/59/14 37/60/14 39/61/14
f 13/36/6 14/35/6 43/62/6 42/63/6
f 29/27/9 8/64/9 51/65/9 49/66/9
f 2/48/11 18/32/11 44/67/11 53/68/11
f 39/61/12 37/60/12 61/69/12 63/70/12
f 8/64/7 13/36/7 42/63/7 51/65/7
f 30/52/11 39/61/11 63/70/11 54/71/11
f 28/28/4 29/27/4 49/66/4 48/72/4
f 38/2/8 31/53/8 55/73/8 62/3/8
f 36/59/13 40/58/13 64/74/13 60/75/13
f 18/32/5 19/31/5 45/76/5 44/67/5
f 37/60/3 36/59/3 60/75/3 61/69/3
f 50/77/14 46/78/14 58/4/14 62/3/14
f 43/62/14 50/77/14 62/3/14 55/73/14
f 42/63/14 43/62/14 55/73/14 54/71/14
f 45/76/14 52/79/14 64/74/14 57/80/14
f 47/81/14 53/68/14 65/82/14 59/83/14
f 51/65/14 42/63/14 54/71/14 63/70/14
f 44/67/14 45/76/14 57/80/14 56/84/14
f 46/78/14 47/81/14 59/83/14 58/4/14
f 52/79/14 48/72/14 60/75/14 64/74/14
f 49/66/14 51/65/14 63/70/14 61/69/14
f 53/68/14 44/67/14 56/84/14 65/82/14
f 48/72/14 49/66/14 61/69/14 60/75/14
f 23/24/3 24/23/3 47/81/3 46/78/3
f 31/53/5 30/52/5 54/71/5 55/73/5
f 4/50/13 23/24/13 46/78/13 50/77/13
f 40/58/10 33/57/10 57/80/10 64/74/10
f 24/23/12 2/48/12 53/68/12 47/81/12
f 33/57/6 32/56/6 56/84/6 57/80/6
f 19/31/8 6/85/8 52/79/8 45/76/8
f 32/56/7 41/55/7 65/82/7 56/84/7
f 14/35/10 4/50/10 50/77/10 43/62/10
f 6/85/1 28/28/1 48/72/1 52/79/1
f 35/54/4 34/1/4 58/4/4 59/83/4
f 41/55/9 35/54/9 59/83/9 65/82/9
f 21/20/13 89/86/13 68/44/13 3/21/13
f 104/87/12 92/88/12 100/89/12 112/90/12
f 90/91/15 95/92/15 150/93/15 114/94/15
f 6/85/1 73/95/1 84/29/1 28/28/1
f 110/96/9 102/97/9 90/98/9 98/99/9
f 78/100/16 72/101/16 141/102/16 148/103/16
f 1/10/12 70/45/12 86/104/12 20/5/12
f 105/105/1 111/106/1 99/107/1 93/108/1
f 102/109/17 110/110/17 160/111/17 154/112/17
f 2/48/11 71/47/11 80/33/11 18/32/11
f 95/92/18 94/113/18 122/114/18 150/93/18
f 14/35/10 75/34/10 69/51/10 4/50/10
f 73/115/19 79/116/19 127/117/19 121/118/19
f 29/27/9 83/26/9 67/119/9 8/64/9
f 110/96/4 98/99/4 99/107/4 111/106/4
f 105/120/20 108/121/20 159/122/20 157/123/20
f 19/31/8 79/30/8 73/95/8 6/85/8
f 102/97/7 107/124/7 95/125/7 90/98/7
f 97/126/18 96/127/18 126/128/18 151/129/18
f 8/64/7 67/119/7 76/37/7 13/36/7
f 101/130/13 91/131/13 103/132/13 113/133/13
f 82/134/21 66/135/21 147/136/21 146/137/21
f 10/19/6 74/43/6 77/39/6 11/12/6
f 107/138/22 102/109/22 154/112/22 124/139/22
f 15/18/5 78/40/5 81/46/5 16/9/5
f 99/140/2 98/141/2 130/142/2 152/143/2
f 25/14/4 82/42/4 85/49/4 26/16/4
f 112/90/3 100/89/3 101/130/3 113/133/3
f 67/144/23 83/145/23 131/146/23 115/147/23
f 20/5/3 86/104/3 89/86/3 21/20/3
f 87/148/14 88/149/14 139/150/14 135/151/14
f 108/152/5 96/153/5 97/154/5 109/155/5
f 106/156/24 107/138/24 124/139/24 158/157/24
f 101/158/2 100/159/2 134/160/2 153/161/2
f 74/162/16 68/163/16 138/164/16 145/165/16
f 89/166/2 86/167/2 143/168/2 137/169/2
f 108/121/24 109/170/24 128/171/24 159/122/24
f 69/172/19 75/173/19 123/174/19 117/175/19
f 83/145/14 84/176/14 140/177/14 131/146/14
f 110/110/14 111/178/14 132/179/14 160/111/14
f 70/180/25 81/181/25 129/182/25 142/183/25
f 91/184/26 101/158/26 153/161/26 116/185/26
f 106/186/6 94/187/6 95/125/6 107/124/6
f 94/187/10 106/186/10 103/132/10 91/131/10
f 85/188/2 82/134/2 146/137/2 133/189/2
f 112/190/14 113/191/14 136/192/14 161/193/14
f 92/88/11 104/87/11 109/155/11 97/154/11
f 108/152/8 105/105/8 93/108/8 96/153/8
f 153/161/13 139/150/13 117/175/13 116/185/13
f 157/123/1 141/102/1 133/189/1 132/179/1
f 118/194/12 119/195/12 135/151/12 134/160/12
f 156/196/11 142/183/11 129/182/11 128/171/11
f 158/157/10 145/165/10 138/164/10 155/197/10
f 160/111/9 146/137/9 147/136/9 154/112/9
f 159/122/8 148/103/8 141/102/8 157/123/8
f 154/112/7 147/136/7 125/198/7 124/139/7
f 122/114/6 123/174/6 149/199/6 150/93/6
f 126/128/5 127/117/5 144/200/5 151/129/5
f 130/142/4 131/146/4 140/177/4 152/143/4
f 134/160/3 135/151/3 139/150/3 153/161/3
f 115/147/7 114/94/7 150/93/7 149/199/7
f 127/117/8 126/128/8 120/201/8 121/118/8
f 131/146/9 130/142/9 114/94/9 115/147/9
f 123/174/10 122/114/10 116/185/10 117/175/10
f 119/195/11 118/194/11 151/129/11 144/200/11
f 121/118/1 120/201/1 152/143/1 140/177/1
f 143/168/3 161/193/3 136/192/3 137/169/3
f 146/137/4 160/111/4 132/179/4 133/189/4
f 148/103/5 159/122/5 128/171/5 129/182/5
f 145/165/6 158/157/6 124/139/6 125/198/6
f 142/183/12 156/196/12 161/193/12 143/168/12
f 137/169/13 136/192/13 155/197/13 138/164/13
f 103/202/20 106/156/20 158/157/20 155/197/20
f 68/163/27 89/166/27 137/169/27 138/164/27
f 76/203/28 67/144/28 115/147/28 149/199/28
f 96/127/29 93/204/29 120/201/29 126/128/29
f 109/170/22 104/205/22 156/196/22 128/171/22
f 88/149/30 69/172/30 117/175/30 139/150/30
f 66/135/25 77/206/25 125/198/25 147/136/25
f 98/141/31 90/91/31 114/94/31 130/142/31
f 104/205/17 112/190/17 161/193/17 156/196/17
f 84/176/30 73/115/30 121/118/30 140/177/30
f 77/206/32 74/162/32 145/165/32 125/198/32
f 94/113/29 91/184/29 116/185/29 122/114/29
f 111/178/33 105/120/33 157/123/33 132/179/33
f 72/101/27 85/188/27 133/189/27 141/102/27
f 75/173/34 76/203/34 149/199/34 123/174/34
f 92/207/15 97/126/15 151/129/15 118/194/15
f 113/191/33 103/202/33 155/197/33 136/192/33
f 86/167/21 70/180/21 142/183/21 143/168/21
f 81/181/32 78/100/32 148/103/32 129/182/32
f 100/159/31 92/207/31 118/194/31 134/160/31
f 71/208/23 87/148/23 135/151/23 119/195/23
f 79/116/34 80/209/34 144/200/34 127/117/34
f 93/204/26 99/140/26 152/143/26 120/201/26
f 80/209/28 71/208/28 119/195/28 144/200/28
