# Blender v2.93.0 OBJ File: 'Train2.blend'
# www.blender.org
mtllib Locamotive collision.mtl
g Cube
v -3.006366 -0.831197 10.622013
v -3.006366 0.788811 10.622013
v -3.006366 -0.831197 -9.371285
v -3.006366 4.971408 -9.371285
v 3.006366 -0.831197 10.622013
v 3.006366 0.788811 10.622013
v 3.006366 -0.831197 -9.371285
v 3.006366 4.971408 -9.371285
v -3.006366 -0.831197 -7.571465
v -3.006366 4.971408 -7.571465
v 3.006366 -0.831197 -7.571465
v 3.006366 4.971408 -7.571465
vt 0.375000 0.250000
vt 0.625000 0.250000
vt 0.625000 0.500000
vt 0.375000 0.500000
vt 0.375000 0.750000
vt 0.625000 0.750000
vt 0.625000 1.000000
vt 0.375000 1.000000
vt 0.625000 0.525000
vt 0.375000 0.525000
vt 0.125000 0.525000
vt 0.125000 0.750000
vt 0.875000 0.525000
vt 0.875000 0.750000
vt 0.875000 0.500000
vt 0.125000 0.500000
vt 0.375000 0.225000
vt 0.625000 0.225000
vt 0.375000 0.000000
vt 0.625000 0.000000
vn 0.0000 0.0000 -1.0000
vn 0.0000 0.0000 1.0000
vn 1.0000 0.0000 0.0000
vn 0.0000 -1.0000 0.0000
vn 0.0000 0.9746 0.2241
vn 0.0000 1.0000 0.0000
vn -1.0000 0.0000 0.0000
usemtl None
s off
f 3/1/1 4/2/1 8/3/1 7/4/1
f 5/5/2 6/6/2 2/7/2 1/8/2
f 7/4/3 8/3/3 12/9/3 11/10/3
f 9/11/4 11/10/4 5/5/4 1/12/4
f 12/9/5 10/13/5 2/14/5 6/6/5
f 8/3/6 4/15/6 10/13/6 12/9/6
f 3/16/4 7/4/4 11/10/4 9/11/4
f 9/17/7 10/18/7 4/2/7 3/1/7
f 11/10/3 12/9/3 6/6/3 5/5/3
f 1/19/7 2/20/7 10/18/7 9/17/7
