# Blender v2.93.0 OBJ File: 'Train3.blend'
# www.blender.org
mtllib Billboard Car M2.mtl
g BillboardCar2
v 2.840000 0.610563 -8.884090
v -2.840000 0.610563 -8.884090
v 2.840000 0.677223 10.115910
v 2.840000 0.743890 10.115911
v 2.840000 1.677229 -8.884090
v 2.840000 2.743896 -8.884091
v -2.840000 1.677230 -8.884090
v -2.840000 2.743896 -8.884091
v 2.840000 0.610557 10.115910
v -2.840000 0.610557 10.115910
v -2.840000 0.743890 10.115910
v -2.840000 0.677224 10.115910
v 2.840000 0.810557 10.115911
v -2.840000 0.810557 10.115911
v 2.840000 3.810563 -8.884090
v -2.840000 3.810563 -8.884090
v 2.840000 1.008109 10.147103
v -2.840000 1.008110 10.147103
v 2.840000 4.008115 -8.852898
v -2.840000 4.008116 -8.852898
v 2.840000 0.732575 10.609792
v -2.840000 0.732575 10.609792
v 2.840000 0.930127 10.640985
v -2.840000 0.930128 10.640985
v 2.840000 3.888545 -9.377972
v -2.840000 3.888545 -9.377972
v 2.840000 4.086097 -9.346779
v -2.840000 4.086098 -9.346779
v -2.840000 3.710562 -8.884090
v 2.840000 3.710561 -8.884090
vt 0.250691 0.745326
vt 0.250691 0.745326
vt 0.250691 0.745326
vt 0.250691 0.745326
vt 0.250691 0.745326
vt 0.250691 0.745326
vt 0.250691 0.745326
vt 0.250691 0.745326
vt 0.250691 0.745326
vt 0.216342 0.525254
vt 0.216342 0.525254
vt 0.216342 0.525254
vt 0.216342 0.525254
vt 0.216342 0.864381
vt 0.216342 0.864381
vt 0.216342 0.864381
vt 0.216342 0.864381
vt 0.216342 0.857415
vt 0.216342 0.857415
vt 0.216342 0.857415
vt 0.216342 0.857415
vt 0.216342 0.525254
vt 0.216342 0.525254
vt 0.216342 0.525254
vt 0.216342 0.525254
vt 0.250691 0.745326
vt 0.250691 0.745326
vt 0.250691 0.745326
vt 0.250691 0.745326
vt 0.250691 0.745326
vt 0.250691 0.745326
vt 0.250691 0.745326
vt 0.250691 0.745326
vt 0.250691 0.745326
vt 0.216342 0.864381
vt 0.216342 0.864381
vt 0.216342 0.864381
vt 0.216342 0.864381
vt 0.216342 0.525254
vt 0.216342 0.525254
vt 0.216342 0.525254
vt 0.216342 0.525254
vt 0.216342 0.525254
vt 0.216342 0.525254
vt 0.216342 0.525254
vt 0.216342 0.525254
vt 0.211137 0.859914
vt 0.211137 0.859914
vt 0.211137 0.859914
vt 0.211137 0.859914
vt 0.211137 0.859914
vt 0.211137 0.859914
vt 0.211137 0.859914
vt 0.211137 0.859914
vt 0.211137 0.859914
vt 0.211137 0.859914
vt 0.211137 0.859914
vt 0.211137 0.859914
vt 0.211137 0.859914
vt 0.211137 0.859914
vt 0.211137 0.859914
vt 0.211137 0.859914
vt 0.217001 0.857165
vt 0.217001 0.857165
vt 0.217001 0.857165
vt 0.217001 0.857165
vn -1.0000 0.0000 0.0000
vn -0.0000 0.0000 -1.0000
vn 1.0000 0.0000 0.0000
vn 0.0000 -0.0000 1.0000
vn -0.0000 -0.9878 -0.1560
vn 0.0000 0.9878 0.1560
vn 0.0000 -0.1560 0.9878
vn -0.0000 0.1560 -0.9878
vn -0.0000 -1.0000 -0.0000
usemtl Material.018
s 1
f 8/1/1 11/2/1 14/3/1 16/4/1 29/5/1
f 7/6/1 12/7/1 11/2/1 8/1/1
f 2/8/1 10/9/1 12/7/1 7/6/1
s 2
f 1/10/2 2/11/2 7/12/2 5/13/2
f 5/14/2 7/15/2 8/16/2 6/17/2
f 30/18/2 29/19/2 16/20/2 15/21/2
f 6/22/2 8/23/2 29/24/2 30/25/2
s 3
f 9/26/3 1/27/3 5/28/3 3/29/3
f 3/29/3 5/28/3 6/30/3 4/31/3
f 4/31/3 6/30/3 30/32/3 15/33/3 13/34/3
s 4
f 12/35/4 3/36/4 4/37/4 11/38/4
f 10/39/4 9/40/4 3/41/4 12/42/4
f 11/43/4 4/44/4 13/45/4 14/46/4
s 5
f 14/47/5 13/48/5 21/49/5 22/50/5
s 6
f 19/51/6 20/52/6 18/53/6 17/54/6
s 7
f 16/55/1 14/47/1 18/53/1 20/52/1
s 8
f 20/52/6 19/51/6 27/56/6 28/57/6
s 9
f 13/48/3 15/58/3 19/51/3 17/54/3
s 10
f 22/50/7 21/49/7 23/59/7 24/60/7
s 11
f 13/48/3 17/54/3 23/59/3 21/49/3
s 12
f 17/54/6 18/53/6 24/60/6 23/59/6
s 13
f 18/53/1 14/47/1 22/50/1 24/60/1
s 14
f 25/61/8 26/62/8 28/57/8 27/56/8
s 15
f 16/55/1 20/52/1 28/57/1 26/62/1
s 16
f 15/58/5 16/55/5 26/62/5 25/61/5
s 17
f 19/51/3 15/58/3 25/61/3 27/56/3
s 18
f 10/63/9 2/64/9 1/65/9 9/66/9
g BillboardCar2Screen
v 2.840000 0.930127 10.640985
v -2.840000 0.930128 10.640985
v 2.840000 4.086097 -9.346779
v -2.840000 4.086098 -9.346779
vt 0.000000 0.000000
vt 0.000000 0.000000
vt 0.000000 0.000000
vt 0.000000 0.000000
vn 0.0000 0.9878 0.1560
usemtl Material.024
s off
f 32/67/10 31/68/10 33/69/10 34/70/10
g BillboardCar2Frame
v 2.840000 0.930127 10.640985
v -2.840000 0.930128 10.640985
v 2.840000 4.086097 -9.346779
v -2.840000 4.086098 -9.346779
v 2.840000 0.986366 10.284809
v 2.840000 2.508112 0.647102
v 2.840000 4.054299 -9.145391
v -2.840000 0.986366 10.284809
v -2.840000 2.508113 0.647102
v -2.840000 4.054299 -9.145391
v 2.556000 0.930127 10.640985
v -2.556000 0.930127 10.640985
v 2.556000 4.086097 -9.346779
v -2.556000 4.086097 -9.346779
v 2.556000 0.986366 10.284809
v -2.556000 0.986366 10.284809
v 2.556000 2.508113 0.647102
v -2.556000 2.508113 0.647102
v 2.556000 4.054299 -9.145391
v -2.556000 4.054299 -9.145391
v -2.556000 0.958157 10.645411
v -2.840000 0.958157 10.645411
v -2.556000 4.114127 -9.342353
v -2.840000 4.114127 -9.342353
v 2.840000 4.082328 -9.140965
v 2.840000 4.114127 -9.342353
v -2.840000 4.082329 -9.140965
v 2.840000 0.958157 10.645411
v 2.840000 1.014395 10.289235
v 2.840000 2.536142 0.651528
v -2.840000 1.014395 10.289235
v -2.840000 2.536142 0.651528
v -2.556000 1.014395 10.289235
v -2.556000 2.536142 0.651528
v -2.556000 4.082328 -9.140965
v 2.556000 0.958157 10.645411
v 2.556000 4.114127 -9.342353
v 2.556000 1.014395 10.289235
v 2.556000 2.536142 0.651528
v 2.556000 4.082328 -9.140965
vt 0.252708 0.743192
vt 0.252708 0.743192
vt 0.252708 0.743192
vt 0.252708 0.743192
vt 0.252708 0.743192
vt 0.252708 0.743192
vt 0.252708 0.743192
vt 0.252708 0.743192
vt 0.252708 0.743192
vt 0.252708 0.743192
vt 0.252708 0.743192
vt 0.252708 0.743192
vt 0.252708 0.743192
vt 0.252708 0.743192
vt 0.252708 0.743192
vt 0.252708 0.743192
vt 0.252708 0.743192
vt 0.252708 0.743192
vt 0.252708 0.743192
vt 0.252708 0.743192
vt 0.252708 0.743192
vt 0.252708 0.743192
vt 0.252708 0.743192
vt 0.252708 0.743192
vt 0.252708 0.743192
vt 0.252708 0.743192
vt 0.252708 0.743192
vt 0.252708 0.743192
vt 0.252708 0.743192
vt 0.252708 0.743192
vt 0.252708 0.743192
vt 0.252708 0.743192
vt 0.252708 0.743192
vt 0.252708 0.743192
vt 0.252708 0.743192
vt 0.252708 0.743192
vt 0.252708 0.743192
vt 0.252708 0.743192
vt 0.252708 0.743192
vt 0.252708 0.743192
vn 0.0000 -0.9878 -0.1560
vn 0.0000 0.9878 0.1560
vn 1.0000 0.0000 0.0000
vn 0.0000 -0.1560 0.9878
vn -1.0000 0.0000 0.0000
vn 0.0000 0.1560 -0.9878
usemtl Material.025
s off
f 53/71/11 47/72/11 37/73/11 41/74/11
f 45/75/11 49/76/11 39/77/11 35/78/11
f 49/76/11 51/79/11 40/80/11 39/77/11
f 51/79/11 53/71/11 41/74/11 40/80/11
f 43/81/11 44/82/11 54/83/11 52/84/11
f 42/85/11 43/81/11 52/84/11 50/86/11
f 36/87/11 42/85/11 50/86/11 46/88/11
f 46/88/11 50/86/11 49/76/11 45/75/11
f 44/82/11 38/89/11 48/90/11 54/83/11
f 54/83/11 48/90/11 47/72/11 53/71/11
f 74/91/12 59/92/12 60/93/12 71/94/12
f 70/95/12 62/96/12 63/97/12 72/98/12
f 72/98/12 63/97/12 64/99/12 73/100/12
f 73/100/12 64/99/12 59/92/12 74/91/12
f 66/101/12 68/102/12 69/103/12 61/104/12
f 65/105/12 67/106/12 68/102/12 66/101/12
f 56/107/12 55/108/12 67/106/12 65/105/12
f 55/108/12 70/95/12 72/98/12 67/106/12
f 61/104/12 69/103/12 57/109/12 58/110/12
f 69/103/12 74/91/12 71/94/12 57/109/12
f 35/78/13 39/77/13 63/97/13 62/96/13
f 39/77/13 40/80/13 64/99/13 63/97/13
f 45/75/14 35/78/14 62/96/14 70/95/14
f 40/80/13 41/74/13 59/92/13 64/99/13
f 54/83/14 53/71/14 74/91/14 69/103/14
f 46/88/14 45/75/14 70/95/14 55/108/14
f 42/85/15 36/87/15 56/107/15 65/105/15
f 52/84/13 54/83/13 69/103/13 68/102/13
f 36/87/14 46/88/14 55/108/14 56/107/14
f 37/73/16 47/72/16 71/94/16 60/93/16
f 43/81/15 42/85/15 65/105/15 66/101/15
f 53/71/15 51/79/15 73/100/15 74/91/15
f 48/90/16 38/89/16 58/110/16 57/109/16
f 47/72/16 48/90/16 57/109/16 71/94/16
f 44/82/15 43/81/15 66/101/15 61/104/15
f 50/86/13 52/84/13 68/102/13 67/106/13
f 41/74/13 37/73/13 60/93/13 59/92/13
f 51/79/15 49/76/15 72/98/15 73/100/15
f 38/89/15 44/82/15 61/104/15 58/110/15
f 49/76/16 50/86/16 67/106/16 72/98/16
g BillboardCar2ModSides
v -2.840001 0.610563 10.093393
v -3.000004 3.710557 -8.906608
v -2.840004 0.610557 -8.906607
v -3.000001 0.889584 10.105870
v -2.840004 3.710557 -8.906608
v -3.000004 0.610557 -8.906607
v -2.840001 0.889584 10.105870
v -3.000001 0.610563 10.093393
v -3.000004 1.677218 -8.906607
v -3.000001 0.677229 10.093393
v -3.000004 2.743888 -8.906607
v -3.000001 0.743896 10.093393
v -2.840001 0.925143 10.111485
v -2.840004 3.916991 -8.886642
v -3.000001 0.925143 10.111485
v -3.000004 3.916991 -8.886642
v -2.840001 1.027871 10.127706
v -2.840004 4.027865 -8.872293
v -3.000001 1.027871 10.127706
v -3.000004 4.027865 -8.872293
v -2.893337 3.710557 -8.906608
v -2.946670 3.710557 -8.906608
v -2.893334 0.889584 10.105870
v -2.946667 0.889584 10.105870
v -2.893337 3.916991 -8.886642
v -2.946670 3.916991 -8.886642
v -2.893334 0.925143 10.111485
v -2.946667 0.925143 10.111485
v -2.893337 4.027865 -8.872293
v -2.946670 4.027865 -8.872293
v -2.893334 1.027871 10.127706
v -2.946667 1.027871 10.127706
v -2.840001 0.743896 10.099632
v -2.840001 0.677229 10.096513
v -2.946667 0.743896 10.095473
v -2.893334 0.743896 10.097553
v -2.946667 0.677229 10.094433
v -2.893334 0.677229 10.095472
v -2.946670 2.743888 -8.906607
v -2.840004 1.677218 -8.906607
v -2.840004 2.743888 -8.906607
v -2.893337 2.743888 -8.906607
v -2.946670 1.677218 -8.906607
v -2.893337 1.677218 -8.906607
v 2.840001 0.610563 10.093393
v 3.000004 3.710557 -8.906608
v 2.840004 0.610557 -8.906607
v 3.000001 0.889584 10.105870
v 2.840004 3.710557 -8.906608
v 3.000004 0.610557 -8.906607
v 2.840001 0.889584 10.105870
v 3.000001 0.610563 10.093393
v 3.000004 1.677218 -8.906607
v 3.000001 0.677229 10.093393
v 3.000004 2.743888 -8.906607
v 3.000001 0.743896 10.093393
v 2.840001 0.925143 10.111485
v 2.840004 3.916991 -8.886642
v 3.000001 0.925143 10.111485
v 3.000004 3.916991 -8.886642
v 2.840001 1.027871 10.127706
v 2.840004 4.027865 -8.872293
v 3.000001 1.027871 10.127706
v 3.000004 4.027865 -8.872293
v 2.893337 3.710557 -8.906608
v 2.946670 3.710557 -8.906608
v 2.893334 0.889584 10.105870
v 2.946667 0.889584 10.105870
v 2.893337 3.916991 -8.886642
v 2.946670 3.916991 -8.886642
v 2.893334 0.925143 10.111485
v 2.946667 0.925143 10.111485
v 2.893337 4.027865 -8.872293
v 2.946670 4.027865 -8.872293
v 2.893334 1.027871 10.127706
v 2.946667 1.027871 10.127706
v 2.840001 0.743896 10.099632
v 2.840001 0.677229 10.096513
v 2.946667 0.743896 10.095473
v 2.893334 0.743896 10.097553
v 2.946667 0.677229 10.094433
v 2.893334 0.677229 10.095472
v 2.946670 2.743888 -8.906607
v 2.840004 1.677218 -8.906607
v 2.840004 2.743888 -8.906607
v 2.893337 2.743888 -8.906607
v 2.946670 1.677218 -8.906607
v 2.893337 1.677218 -8.906607
vt 0.157744 0.512573
vt 0.140418 0.513525
vt 0.140418 0.513525
vt 0.157744 0.512573
vt 0.100540 0.851576
vt 0.100540 0.851576
vt 0.100540 0.851576
vt 0.100540 0.851576
vt 0.100540 0.851576
vt 0.100540 0.851576
vt 0.100540 0.851576
vt 0.100540 0.851576
vt 0.100540 0.851576
vt 0.100540 0.851576
vt 0.121386 0.514407
vt 0.121386 0.514407
vt 0.121386 0.514407
vt 0.121386 0.514407
vt 0.121386 0.514407
vt 0.121386 0.514407
vt 0.121386 0.514407
vt 0.121386 0.514407
vt 0.121386 0.514407
vt 0.121386 0.514407
vt 0.121386 0.514407
vt 0.121386 0.514407
vt 0.121386 0.514407
vt 0.121386 0.514407
vt 0.201354 0.508626
vt 0.201354 0.508626
vt 0.201354 0.508626
vt 0.201354 0.508626
vt 0.201354 0.508626
vt 0.201354 0.508626
vt 0.201354 0.508626
vt 0.201354 0.508626
vt 0.220303 0.855946
vt 0.220303 0.855946
vt 0.220303 0.855946
vt 0.220303 0.855946
vt 0.201354 0.508626
vt 0.201354 0.508626
vt 0.199234 0.852779
vt 0.199234 0.852779
vt 0.199234 0.852779
vt 0.199234 0.852779
vt 0.199234 0.852779
vt 0.199234 0.852779
vt 0.199234 0.852779
vt 0.199234 0.852779
vt 0.220303 0.855946
vt 0.110854 0.514009
vt 0.110854 0.514009
vt 0.110854 0.514009
vt 0.110854 0.514009
vt 0.110854 0.514009
vt 0.110854 0.514009
vt 0.110854 0.514009
vt 0.110854 0.514009
vt 0.100908 0.515749
vt 0.100908 0.515749
vt 0.100908 0.515749
vt 0.100908 0.515749
vt 0.100908 0.515749
vt 0.100908 0.515749
vt 0.186441 0.511749
vt 0.186441 0.511749
vt 0.175631 0.513736
vt 0.175631 0.513736
vt 0.121386 0.514407
vt 0.121386 0.514407
vt 0.121386 0.514407
vt 0.121386 0.514407
vt 0.100540 0.851576
vt 0.100540 0.851576
vt 0.100540 0.851576
vt 0.214053 0.856760
vt 0.214053 0.856760
vt 0.214053 0.856760
vt 0.214053 0.856760
vt 0.220303 0.855946
vt 0.220303 0.855946
vt 0.201354 0.508626
vt 0.201354 0.508626
vt 0.201354 0.508626
vt 0.201354 0.508626
vt 0.201354 0.508626
vt 0.201354 0.508626
vt 0.201354 0.508626
vt 0.201354 0.508626
vt 0.201354 0.508627
vt 0.201354 0.508627
vt 0.175631 0.513736
vt 0.175631 0.513736
vt 0.175631 0.513736
vt 0.175631 0.513736
vt 0.201354 0.508627
vt 0.201354 0.508627
vt 0.164642 0.853921
vt 0.164642 0.853921
vt 0.164642 0.853921
vt 0.164642 0.853921
vt 0.201354 0.508627
vt 0.164642 0.853921
vt 0.164642 0.853921
vt 0.100540 0.851576
vt 0.100540 0.851576
vt 0.100540 0.851576
vt 0.121386 0.514407
vt 0.121386 0.514407
vt 0.121386 0.514407
vt 0.121386 0.514407
vt 0.100540 0.851576
vt 0.100540 0.851576
vt 0.220303 0.855946
vt 0.220303 0.855946
vt 0.220303 0.855946
vt 0.206388 0.856022
vt 0.206388 0.856022
vt 0.191365 0.852614
vt 0.191365 0.852614
vt 0.157744 0.512573
vt 0.157744 0.512573
vt 0.140418 0.513525
vt 0.140418 0.513525
vt 0.100540 0.851576
vt 0.100540 0.851576
vt 0.100540 0.851576
vt 0.100540 0.851576
vt 0.100540 0.851576
vt 0.100540 0.851576
vt 0.100540 0.851576
vt 0.100540 0.851576
vt 0.100540 0.851576
vt 0.100540 0.851576
vt 0.121386 0.514407
vt 0.121386 0.514407
vt 0.121386 0.514407
vt 0.121386 0.514407
vt 0.121386 0.514407
vt 0.121386 0.514407
vt 0.121386 0.514407
vt 0.121386 0.514407
vt 0.121386 0.514407
vt 0.121386 0.514407
vt 0.121386 0.514407
vt 0.121386 0.514407
vt 0.121386 0.514407
vt 0.121386 0.514407
vt 0.201354 0.508626
vt 0.201354 0.508626
vt 0.201354 0.508626
vt 0.201354 0.508626
vt 0.201354 0.508626
vt 0.201354 0.508626
vt 0.201354 0.508626
vt 0.201354 0.508626
vt 0.220303 0.855946
vt 0.220303 0.855946
vt 0.220303 0.855946
vt 0.220303 0.855946
vt 0.201354 0.508626
vt 0.201354 0.508626
vt 0.199234 0.852779
vt 0.199234 0.852779
vt 0.199234 0.852779
vt 0.199234 0.852779
vt 0.199234 0.852779
vt 0.199234 0.852779
vt 0.199234 0.852779
vt 0.199234 0.852779
vt 0.220303 0.855946
vt 0.110854 0.514009
vt 0.110854 0.514009
vt 0.110854 0.514009
vt 0.110854 0.514009
vt 0.110854 0.514009
vt 0.110854 0.514009
vt 0.110854 0.514009
vt 0.110854 0.514009
vt 0.100908 0.515749
vt 0.100908 0.515749
vt 0.100908 0.515749
vt 0.100908 0.515749
vt 0.100908 0.515749
vt 0.100908 0.515749
vt 0.186441 0.511749
vt 0.175631 0.513736
vt 0.175631 0.513736
vt 0.186441 0.511749
vt 0.121386 0.514407
vt 0.121386 0.514407
vt 0.121386 0.514407
vt 0.121386 0.514407
vt 0.100540 0.851576
vt 0.100540 0.851576
vt 0.100540 0.851576
vt 0.214053 0.856760
vt 0.214053 0.856760
vt 0.214053 0.856760
vt 0.214053 0.856760
vt 0.220303 0.855946
vt 0.220303 0.855946
vt 0.201354 0.508626
vt 0.201354 0.508626
vt 0.201354 0.508626
vt 0.201354 0.508626
vt 0.201354 0.508626
vt 0.201354 0.508626
vt 0.201354 0.508626
vt 0.201354 0.508626
vt 0.201354 0.508627
vt 0.201354 0.508627
vt 0.175631 0.513736
vt 0.175631 0.513736
vt 0.175631 0.513736
vt 0.175631 0.513736
vt 0.201354 0.508627
vt 0.201354 0.508627
vt 0.164642 0.853921
vt 0.164642 0.853921
vt 0.164642 0.853921
vt 0.164642 0.853921
vt 0.201354 0.508627
vt 0.164642 0.853921
vt 0.164642 0.853921
vt 0.100540 0.851576
vt 0.100540 0.851576
vt 0.100540 0.851576
vt 0.121386 0.514407
vt 0.121386 0.514407
vt 0.121386 0.514407
vt 0.121386 0.514407
vt 0.100540 0.851576
vt 0.100540 0.851576
vt 0.220303 0.855946
vt 0.220303 0.855946
vt 0.220303 0.855946
vt 0.206388 0.856022
vt 0.191365 0.852614
vt 0.191365 0.852614
vt 0.206388 0.856022
vn -1.0000 0.0000 0.0000
vn 0.0000 0.0000 -1.0000
vn 1.0000 -0.0000 -0.0000
vn 0.0000 -0.1560 0.9878
vn 0.0000 -1.0000 0.0000
vn -0.0243 -0.0434 0.9988
vn -0.0244 -0.0430 0.9988
vn -0.0195 -0.0156 0.9997
vn -0.0195 -0.0195 0.9996
vn -0.0243 -0.0444 0.9987
vn -0.0243 -0.0441 0.9987
vn -0.0195 -0.0273 0.9994
vn -0.0195 -0.0312 0.9993
vn -0.0195 -0.0570 0.9982
vn -0.0194 -0.0712 0.9973
vn -0.0194 -0.0782 0.9967
vn -0.0195 -0.0499 0.9986
vn -0.0097 -0.0234 0.9997
vn 0.0000 0.1283 -0.9917
vn 0.0000 0.0963 -0.9954
vn 0.0000 0.9878 0.1560
vn 0.0243 -0.0434 0.9988
vn 0.0195 -0.0195 0.9996
vn 0.0195 -0.0156 0.9997
vn 0.0244 -0.0430 0.9988
vn 0.0243 -0.0444 0.9987
vn 0.0195 -0.0312 0.9993
vn 0.0195 -0.0273 0.9994
vn 0.0243 -0.0441 0.9987
vn 0.0195 -0.0570 0.9982
vn 0.0194 -0.0712 0.9973
vn 0.0194 -0.0782 0.9967
vn 0.0195 -0.0499 0.9986
vn 0.0097 -0.0234 0.9997
usemtl Material.036
s 1
f 82/111/17 84/112/17 83/113/17 80/114/17
s 2
f 118/115/18 116/116/18 115/117/18 114/118/18
f 83/119/18 85/120/18 113/121/18 117/122/18
f 117/122/18 113/121/18 116/116/18 118/115/18
f 95/123/18 116/116/18 113/121/18 96/124/18
f 96/125/18 113/126/18 85/127/18 76/128/18
f 79/129/18 115/130/18 116/131/18 95/132/18
f 114/133/18 77/134/18 80/135/18 83/136/18 117/137/18 118/138/18
s 3
f 77/139/19 114/140/19 115/141/19 79/142/19 81/143/19 107/144/19 108/145/19 75/146/19
s 4
f 97/147/20 81/148/20 87/149/20 101/150/20
s 5
f 77/139/21 75/146/21 82/151/21 80/152/21
s 6
f 109/153/22 86/154/23 84/155/24 111/156/25
f 107/157/26 110/158/27 112/159/28 108/160/29
f 110/158/27 109/153/22 111/156/25 112/159/28
f 97/147/30 98/161/31 109/153/22 110/158/27
f 98/162/31 78/163/32 86/164/23 109/165/22
f 110/166/27 107/167/26 81/168/33 97/169/30
f 108/170/29 112/171/28 111/172/25 84/173/24 82/174/34 75/175/34
s 7
f 85/176/17 86/177/17 78/178/17 76/179/17
s 8
f 100/180/35 90/181/35 94/182/35 104/183/35
s 9
f 96/124/36 76/184/36 90/185/36 100/186/36
s 10
f 76/187/17 78/188/17 89/189/17 90/190/17
s 11
f 81/148/19 79/191/19 88/192/19 87/149/19
s 12
f 106/193/37 104/194/37 94/195/37 93/196/37
s 13
f 87/197/19 88/198/19 92/199/19 91/200/19
s 14
f 101/201/20 87/197/20 91/200/20 105/202/20
s 15
f 90/203/17 89/204/17 93/205/17 94/206/17
s 16
f 89/207/20 102/208/20 106/193/20 93/196/20
s 17
f 102/209/20 101/210/20 105/211/20 106/212/20
s 18
f 91/200/37 92/199/37 103/213/37 105/202/37
s 19
f 105/211/37 103/214/37 104/215/37 106/212/37
s 20
f 79/216/36 95/123/36 99/217/36 88/218/36
s 21
f 95/123/36 96/124/36 100/186/36 99/217/36
s 22
f 88/219/35 99/220/35 103/221/35 92/222/35
s 23
f 99/217/35 100/186/35 104/223/35 103/224/35
s 24
f 78/225/20 98/161/20 102/226/20 89/227/20
s 25
f 98/161/20 97/147/20 101/150/20 102/226/20
s 26
f 86/228/17 85/229/17 83/230/17 84/231/17
s 27
f 126/232/19 124/233/19 127/234/19 128/235/19
s 28
f 162/236/18 158/237/18 159/238/18 160/239/18
f 127/240/18 161/241/18 157/242/18 129/243/18
f 161/241/18 162/236/18 160/239/18 157/242/18
f 139/244/18 140/245/18 157/242/18 160/239/18
f 140/246/18 120/247/18 129/248/18 157/249/18
f 123/250/18 139/251/18 160/252/18 159/253/18
f 158/254/18 162/255/18 161/256/18 127/257/18 124/258/18 121/259/18
s 29
f 121/260/17 119/261/17 152/262/17 151/263/17 125/264/17 123/265/17 159/266/17 158/267/17
s 30
f 141/268/20 145/269/20 131/270/20 125/271/20
s 31
f 121/260/21 124/272/21 126/273/21 119/261/21
s 32
f 153/274/38 155/275/39 128/276/40 130/277/41
f 151/278/42 152/279/43 156/280/44 154/281/45
f 154/281/45 156/280/44 155/275/39 153/274/38
f 141/268/46 154/281/45 153/274/38 142/282/47
f 142/283/47 153/284/38 130/285/41 122/286/48
f 154/287/45 141/288/46 125/289/49 151/290/42
f 152/291/43 119/292/50 126/293/50 128/294/40 155/295/39 156/296/44
s 33
f 129/297/19 120/298/19 122/299/19 130/300/19
s 34
f 144/301/35 148/302/35 138/303/35 134/304/35
s 35
f 140/245/36 144/305/36 134/306/36 120/307/36
s 36
f 120/308/19 134/309/19 133/310/19 122/311/19
s 37
f 125/271/17 131/270/17 132/312/17 123/313/17
s 38
f 150/314/37 137/315/37 138/316/37 148/317/37
s 39
f 131/318/17 135/319/17 136/320/17 132/321/17
s 40
f 145/322/20 149/323/20 135/319/20 131/318/20
s 41
f 134/324/19 138/325/19 137/326/19 133/327/19
s 42
f 133/328/20 137/315/20 150/314/20 146/329/20
s 43
f 146/330/20 150/331/20 149/332/20 145/333/20
s 44
f 135/319/37 149/323/37 147/334/37 136/320/37
s 45
f 149/332/37 150/331/37 148/335/37 147/336/37
s 46
f 123/337/36 132/338/36 143/339/36 139/244/36
s 47
f 139/244/36 143/339/36 144/305/36 140/245/36
s 48
f 132/340/35 136/341/35 147/342/35 143/343/35
s 49
f 143/339/35 147/344/35 148/345/35 144/305/35
s 50
f 122/346/20 133/347/20 146/348/20 142/282/20
s 51
f 142/282/20 146/348/20 145/269/20 141/268/20
s 52
f 130/349/19 128/350/19 127/351/19 129/352/19
