# Blender v2.93.0 OBJ File: 'Train3.blend'
# www.blender.org
mtllib Billboard RF M.mtl
g Billboard_RF_Wall
v 2.872001 0.597795 10.100000
v 2.872001 0.597795 -8.900000
v 3.028001 0.597795 10.100000
v 3.028001 0.597795 -8.900000
v 2.872001 6.163476 10.100000
v 2.872001 6.163476 -8.900000
v 3.028001 6.163476 10.100000
v 3.028001 6.163476 -8.900000
v 3.028001 0.597795 -4.300000
v 3.028001 0.597795 -4.500000
v 3.028001 0.597795 -4.900000
v 3.028001 0.597795 -5.100000
v 2.872001 0.597795 -4.300000
v 2.872001 0.597795 -4.500000
v 2.872001 0.597795 -4.900000
v 2.872001 0.597795 -5.100000
v 3.028001 6.163476 -0.500000
v 3.028001 6.163476 -0.700000
v 3.028001 6.163476 -1.100000
v 3.028001 6.163476 -1.300000
v 2.872001 6.163476 -0.500000
v 2.872001 6.163476 -0.700000
v 2.872001 6.163476 -1.100000
v 2.872001 6.163476 -1.300000
v 2.872001 1.061602 -8.900000
v 2.872001 1.061602 10.100000
v 3.028001 1.061602 10.100000
v 3.028001 1.061602 -8.900000
v 3.028001 1.061602 -4.783333
v 3.028001 1.061602 -4.583333
v 3.028001 1.061602 -4.183334
v 3.028001 1.061602 -3.983334
v 2.872001 1.061602 -3.983334
v 2.872001 1.061602 -4.183334
v 2.872001 1.061602 -4.583333
v 2.872001 1.061602 -4.783333
v 2.872001 1.301542 -8.900000
v 3.028001 1.301542 -4.619513
v 3.028001 1.301542 -4.419513
v 3.028001 1.301542 -4.019514
v 3.028001 1.301542 -3.819513
v 2.872001 1.301542 -3.819513
v 2.872001 1.301542 -4.019514
v 2.872001 1.301542 -4.419513
v 2.872001 1.301542 -4.619513
v 2.872001 1.301542 10.100000
v 3.028001 1.301542 10.100000
v 3.028001 1.301542 -8.900000
v 2.872001 1.453082 -8.900000
v 3.028001 1.453082 -4.516048
v 3.028001 1.453082 -4.316048
v 3.028001 1.453082 -3.916049
v 3.028001 1.453082 -3.716048
v 2.872001 1.453082 -3.716048
v 2.872001 1.453082 -3.916049
v 2.872001 1.453082 -4.316048
v 2.872001 1.453082 -4.516048
v 2.872001 1.453082 10.100000
v 3.028001 1.453082 10.100000
v 3.028001 1.453082 -8.900000
v 2.872001 1.711964 -8.900000
v 3.028001 1.711964 -4.339295
v 3.028001 1.711964 -4.139295
v 3.028001 1.711964 -3.739295
v 3.028001 1.711964 -3.539295
v 2.872001 1.711964 -3.539295
v 2.872001 1.711964 -3.739295
v 2.872001 1.711964 -4.139295
v 2.872001 1.711964 -4.339295
v 2.872001 1.711964 10.100000
v 3.028001 1.711964 10.100000
v 3.028001 1.711964 -8.900000
v 2.872001 5.577404 -8.900000
v 2.872001 5.723852 -8.900000
v 3.028001 5.577404 -1.700143
v 3.028001 5.723852 -1.600156
v 3.028001 5.577404 -1.500144
v 3.028001 5.723852 -1.400156
v 3.028001 5.577404 -1.100144
v 3.028001 5.723852 -1.000156
v 3.028001 5.577404 -0.900144
v 3.028001 5.723852 -0.800156
v 2.872001 5.577404 -0.900144
v 2.872001 5.723852 -0.800156
v 2.872001 5.577404 -1.100144
v 2.872001 5.723852 -1.000156
v 2.872001 5.577404 -1.500144
v 2.872001 5.723852 -1.400156
v 2.872001 5.577404 -1.700143
v 2.872001 5.723852 -1.600156
v 2.872001 5.723852 10.100000
v 2.872001 5.577404 10.100000
v 3.028001 5.723852 10.100000
v 3.028001 5.577404 10.100000
v 3.028001 5.723852 -8.900000
v 3.028001 5.577404 -8.900000
vt 0.214786 0.850961
vt 0.214786 0.850961
vt 0.214786 0.850961
vt 0.214786 0.850961
vt 0.216332 0.864597
vt 0.216332 0.864597
vt 0.216332 0.864597
vt 0.216332 0.864597
vt 0.217877 0.860052
vt 0.217877 0.860052
vt 0.217877 0.860052
vt 0.217877 0.860052
vt 0.216332 0.864597
vt 0.216332 0.864597
vt 0.217549 0.864554
vt 0.217877 0.860052
vt 0.217877 0.860052
vt 0.217877 0.860052
vt 0.217877 0.860052
vt 0.218226 0.864529
vt 0.218226 0.864529
vt 0.218226 0.864529
vt 0.218226 0.864529
vt 0.217745 0.868620
vt 0.217745 0.868620
vt 0.217745 0.868620
vt 0.217745 0.868620
vt 0.218226 0.864529
vt 0.218226 0.864529
vt 0.218226 0.864529
vt 0.217549 0.864554
vt 0.218226 0.864529
vt 0.218226 0.864529
vt 0.218226 0.864529
vt 0.217745 0.868620
vt 0.217745 0.868620
vt 0.217745 0.868620
vt 0.217745 0.868620
vt 0.218226 0.864529
vt 0.218226 0.864529
vt 0.218226 0.864529
vt 0.218226 0.864529
vt 0.212044 0.857711
vt 0.212044 0.857711
vt 0.212044 0.857711
vt 0.212044 0.857711
vt 0.212044 0.857711
vt 0.212044 0.857711
vt 0.212044 0.857711
vt 0.212044 0.857711
vt 0.214786 0.860052
vt 0.214786 0.860052
vt 0.214786 0.860052
vt 0.214786 0.860052
vt 0.214602 0.856927
vt 0.214602 0.856927
vt 0.214602 0.856927
vt 0.214602 0.856927
vt 0.216199 0.859529
vt 0.216199 0.859529
vt 0.216199 0.859529
vt 0.216199 0.859529
vt 0.214602 0.856927
vt 0.214602 0.856927
vt 0.214602 0.856927
vt 0.214602 0.856927
vt 0.219238 0.863745
vt 0.219238 0.863745
vt 0.219238 0.863745
vt 0.219238 0.863745
vt 0.216199 0.859529
vt 0.216199 0.859529
vt 0.219238 0.863745
vt 0.219238 0.863745
vt 0.219238 0.863745
vt 0.219238 0.863745
vt 0.214786 0.850961
vt 0.214786 0.850961
vt 0.219238 0.863745
vt 0.219238 0.863745
vt 0.219238 0.863745
vt 0.219238 0.863745
vt 0.216199 0.859529
vt 0.216199 0.859529
vt 0.219238 0.863745
vt 0.219238 0.863745
vt 0.219238 0.863745
vt 0.219238 0.863745
vt 0.214786 0.860052
vt 0.214786 0.860052
vt 0.214786 0.860052
vt 0.214786 0.850961
vt 0.214786 0.850961
vt 0.214786 0.860052
vt 0.218226 0.864529
vt 0.218226 0.864529
vt 0.218226 0.864529
vt 0.218226 0.864529
vt 0.217745 0.582256
vt 0.217745 0.582256
vt 0.217745 0.582256
vt 0.217745 0.582256
vt 0.218226 0.864529
vt 0.218226 0.864529
vt 0.218226 0.864529
vt 0.218226 0.864529
vt 0.214786 0.582779
vt 0.214786 0.582779
vt 0.214786 0.582779
vt 0.214786 0.582779
vt 0.218226 0.864529
vt 0.218226 0.864529
vt 0.218226 0.864529
vt 0.218226 0.864529
vt 0.217745 0.582256
vt 0.217745 0.582256
vt 0.217745 0.582256
vt 0.217745 0.582256
vt 0.218226 0.864529
vt 0.218226 0.864529
vt 0.218226 0.864529
vt 0.218226 0.864529
vt 0.214786 0.582779
vt 0.214786 0.582779
vt 0.214786 0.582779
vt 0.214786 0.582779
vt 0.214786 0.582779
vt 0.214786 0.582779
vt 0.214786 0.582779
vt 0.214786 0.582779
vt 0.214786 0.582779
vt 0.214786 0.582779
vt 0.214786 0.582779
vt 0.214786 0.582779
vt 0.218226 0.864529
vt 0.218226 0.864529
vt 0.217745 0.582256
vt 0.217745 0.582256
vt 0.218226 0.864529
vt 0.218226 0.864529
vt 0.214786 0.857779
vt 0.214786 0.857779
vt 0.214786 0.857779
vt 0.214786 0.857779
vt 0.218226 0.864529
vt 0.218226 0.864529
vt 0.217745 0.582256
vt 0.217745 0.582256
vt 0.218226 0.864529
vt 0.218226 0.864529
vt 0.217877 0.866870
vt 0.217877 0.866870
vt 0.217877 0.866870
vt 0.217877 0.866870
vt 0.217877 0.866870
vt 0.217877 0.866870
vt 0.214786 0.857779
vt 0.214786 0.857779
vt 0.214786 0.857779
vt 0.214786 0.857779
vt 0.217877 0.866870
vt 0.217877 0.866870
vt 0.218226 0.864529
vt 0.218226 0.864529
vt 0.217745 0.582256
vt 0.217745 0.582256
vt 0.218226 0.864529
vt 0.218226 0.864529
vt 0.214786 0.582779
vt 0.214786 0.582779
vt 0.214786 0.582779
vt 0.214786 0.582779
vt 0.218226 0.864529
vt 0.218226 0.864529
vt 0.217745 0.582256
vt 0.217745 0.582256
vt 0.218226 0.864529
vt 0.218226 0.864529
vt 0.214786 0.582779
vt 0.214786 0.582779
vt 0.214786 0.582779
vt 0.214786 0.582779
vt 0.214786 0.582779
vt 0.214786 0.582779
vt 0.214786 0.582779
vt 0.214786 0.582779
vt 0.214786 0.582779
vt 0.214786 0.582779
vt 0.214786 0.582779
vt 0.214786 0.582779
vt 0.218226 0.864529
vt 0.218226 0.864529
vt 0.217745 0.582256
vt 0.217745 0.582256
vt 0.217745 0.582256
vt 0.217745 0.582256
vt 0.217523 0.864554
vt 0.218226 0.864529
vt 0.216332 0.864597
vt 0.216355 0.864597
vt 0.216332 0.864597
vt 0.215410 0.580484
vt 0.215457 0.580482
vt 0.223643 0.580185
vt 0.223150 0.580203
vt 0.218226 0.864529
vt 0.217523 0.864554
vt 0.217745 0.582256
vt 0.217745 0.582256
vt 0.217745 0.582256
vt 0.217745 0.582256
vt 0.218226 0.864529
vt 0.218226 0.864529
vt 0.217877 0.860052
vt 0.217877 0.860052
vt 0.217877 0.860052
vt 0.217877 0.860052
vt 0.216331 0.575961
vt 0.216331 0.575961
vt 0.216332 0.575961
vt 0.216332 0.575961
vt 0.217877 0.860052
vt 0.217877 0.860052
vt 0.216331 0.575961
vt 0.216331 0.575961
vt 0.216332 0.864597
vt 0.216355 0.864597
vt 0.216332 0.864597
vt 0.223151 0.580205
vt 0.223644 0.580188
vt 0.215457 0.580484
vt 0.215410 0.580486
vt 0.217877 0.860052
vt 0.217877 0.860052
vt 0.216331 0.575961
vt 0.216331 0.575961
vn 0.0000 -1.0000 0.0000
vn 0.0000 1.0000 0.0000
vn -1.0000 0.0000 0.0000
vn 0.0000 0.0000 1.0000
vn 1.0000 0.0000 0.0000
vn 0.0000 0.0000 -1.0000
usemtl Material.030
s off
f 9/1/1 3/2/1 1/3/1 13/4/1
f 17/5/2 21/6/2 5/7/2 7/8/2
f 90/9/3 24/10/3 6/11/3 74/12/3
f 93/13/4 7/8/4 5/7/4 91/14/4
f 82/15/5 17/5/5 7/8/5 93/13/5
f 74/12/6 6/11/6 8/16/6 95/17/6
f 95/17/5 8/16/5 20/18/5 76/19/5
f 76/20/5 20/21/5 19/22/5 78/23/5
f 78/24/5 19/25/5 18/26/5 80/27/5
f 80/28/5 18/29/5 17/30/5 82/15/5
f 91/14/3 5/7/3 21/6/3 84/31/3
f 84/31/3 21/32/3 22/33/3 86/34/3
f 86/35/3 22/36/3 23/37/3 88/38/3
f 88/39/3 23/40/3 24/41/3 90/42/3
f 8/16/2 6/11/2 24/10/2 20/18/2
f 20/43/2 24/44/2 23/45/2 19/46/2
f 19/25/2 23/37/2 22/36/2 18/26/2
f 18/47/2 22/48/2 21/49/2 17/50/2
f 4/51/1 12/52/1 16/53/1 2/54/1
f 12/55/1 11/56/1 15/57/1 16/58/1
f 11/59/1 10/60/1 14/61/1 15/62/1
f 10/63/1 9/64/1 13/65/1 14/66/1
f 15/67/3 35/68/3 36/69/3 16/70/3
f 14/61/3 34/71/3 35/72/3 15/62/3
f 13/73/3 33/74/3 34/75/3 14/76/3
f 1/3/3 26/77/3 33/78/3 13/4/3
f 10/79/5 31/80/5 32/81/5 9/82/5
f 11/59/5 30/83/5 31/84/5 10/60/5
f 12/85/5 29/86/5 30/87/5 11/88/5
f 4/51/5 28/89/5 29/90/5 12/52/5
f 2/54/6 25/91/6 28/89/6 4/51/6
f 9/1/5 32/92/5 27/93/5 3/2/5
f 3/2/4 27/93/4 26/77/4 1/3/4
f 16/53/3 36/94/3 25/91/3 2/54/3
f 35/95/3 44/96/3 45/97/3 36/98/3
f 34/99/3 43/100/3 44/101/3 35/102/3
f 33/103/3 42/104/3 43/105/3 34/106/3
f 26/107/3 46/108/3 42/109/3 33/110/3
f 31/111/5 40/112/5 41/113/5 32/114/5
f 30/115/5 39/116/5 40/117/5 31/118/5
f 29/119/5 38/120/5 39/121/5 30/122/5
f 28/123/5 48/124/5 38/125/5 29/126/5
f 25/127/6 37/128/6 48/124/6 28/123/6
f 32/129/5 41/130/5 47/131/5 27/132/5
f 27/132/4 47/131/4 46/108/4 26/107/4
f 36/133/3 45/134/3 37/128/3 25/127/3
f 44/96/3 56/135/3 57/136/3 45/97/3
f 43/100/3 55/137/3 56/138/3 44/101/3
f 42/104/3 54/139/3 55/140/3 43/105/3
f 46/141/3 58/142/3 54/143/3 42/144/3
f 40/112/5 52/145/5 53/146/5 41/113/5
f 39/116/5 51/147/5 52/148/5 40/117/5
f 38/120/5 50/149/5 51/150/5 39/121/5
f 48/151/5 60/152/5 50/153/5 38/154/5
f 37/155/6 49/156/6 60/152/6 48/151/6
f 41/157/5 53/158/5 59/159/5 47/160/5
f 47/160/4 59/159/4 58/142/4 46/141/4
f 45/161/3 57/162/3 49/156/3 37/155/3
f 56/135/3 68/163/3 69/164/3 57/136/3
f 55/137/3 67/165/3 68/166/3 56/138/3
f 54/139/3 66/167/3 67/168/3 55/140/3
f 58/169/3 70/170/3 66/171/3 54/172/3
f 52/145/5 64/173/5 65/174/5 53/146/5
f 51/147/5 63/175/5 64/176/5 52/148/5
f 50/149/5 62/177/5 63/178/5 51/150/5
f 60/179/5 72/180/5 62/181/5 50/182/5
f 49/183/6 61/184/6 72/180/6 60/179/6
f 53/185/5 65/186/5 71/187/5 59/188/5
f 59/188/4 71/187/4 70/170/4 58/169/4
f 57/189/3 69/190/3 61/184/3 49/183/3
f 68/163/3 87/191/3 89/192/3 69/164/3
f 87/191/3 88/39/3 90/42/3 89/192/3
f 67/165/3 85/193/3 87/194/3 68/166/3
f 85/193/3 86/195/3 88/196/3 87/194/3
f 66/167/3 83/197/3 85/198/3 67/168/3
f 83/197/3 84/31/3 86/34/3 85/198/3
f 70/199/3 92/200/3 83/197/3 66/201/3
f 92/202/3 91/203/3 84/204/3 83/205/3
f 64/173/5 79/206/5 81/207/5 65/174/5
f 79/206/5 80/28/5 82/15/5 81/207/5
f 63/175/5 77/208/5 79/209/5 64/176/5
f 77/208/5 78/210/5 80/211/5 79/209/5
f 62/177/5 75/212/5 77/213/5 63/178/5
f 75/212/5 76/20/5 78/23/5 77/213/5
f 72/214/5 96/215/5 75/216/5 62/217/5
f 96/218/5 95/219/5 76/220/5 75/221/5
f 61/222/6 73/223/6 96/215/6 72/214/6
f 73/224/6 74/225/6 95/219/6 96/218/6
f 65/226/5 81/207/5 94/227/5 71/228/5
f 81/229/5 82/230/5 93/231/5 94/232/5
f 71/228/4 94/227/4 92/200/4 70/199/4
f 94/232/4 93/231/4 91/203/4 92/202/4
f 69/233/3 89/234/3 73/223/3 61/222/3
f 89/235/3 90/236/3 74/225/3 73/224/3
g Billboard_RF
v 2.503761 6.110523 -8.884089
v 2.503761 6.110523 -9.384089
v -2.996237 0.610523 -9.384090
v -2.996237 0.610523 -8.884090
v 2.362335 6.251940 10.115911
v 2.362335 6.251940 10.615911
v -3.137663 0.751939 10.615910
v -3.137663 0.751939 10.115910
v -2.996243 0.610519 10.615910
v 2.503755 6.110519 10.615911
v -2.996243 0.610520 10.115910
v 2.503756 6.110520 10.115911
v 3.003757 0.610522 10.115911
v 2.873431 6.110520 10.115911
v -3.137657 0.751942 -9.384090
v -3.137657 0.751942 -8.884090
v 2.362341 6.251943 -8.884089
v 2.362341 6.251943 -9.384089
v 3.003763 0.610525 -8.884089
v 2.873436 6.110523 -8.884089
v 2.087336 5.976940 10.315911
v -2.862657 1.026942 -9.084090
v 2.087341 5.976943 -9.084088
v -2.862662 1.026939 10.315909
vt 0.388102 0.862403
vt 0.386818 0.862403
vt 0.386818 0.862568
vt 0.388102 0.862568
vt 0.387146 0.861333
vt 0.388499 0.862687
vt 0.388516 0.862669
vt 0.387163 0.861316
vt 0.386135 0.860816
vt 0.386289 0.860816
vt 0.386289 0.860801
vt 0.386135 0.860801
vt 0.389371 0.860801
vt 0.389216 0.860801
vt 0.389216 0.860816
vt 0.389371 0.860816
vt 0.389216 0.860801
vt 0.386289 0.860801
vt 0.386289 0.860816
vt 0.389216 0.860816
vt 0.386135 0.860816
vt 0.386135 0.860801
vt 0.389370 0.860801
vt 0.389370 0.860816
vt 0.388516 0.862669
vt 0.387163 0.861316
vt 0.386135 0.860816
vt 0.389371 0.860816
vt 0.388499 0.861316
vt 0.388499 0.861316
vt 0.387146 0.862669
vt 0.387146 0.862669
vt 0.386135 0.860816
vt 0.389370 0.860816
vt 0.281843 0.815597
vt 0.284647 0.812793
vt 0.281588 0.812793
vt 0.281588 0.815597
vt 0.284647 0.812793
vt 0.281588 0.812793
vt 0.284392 0.815597
vt 0.284647 0.815597
vt 0.387163 0.862687
vt 0.388516 0.861333
vt 0.385108 0.739045
vt 0.385108 0.739045
vt 0.385108 0.739045
vt 0.385108 0.739045
vt 0.291275 0.815597
vt 0.281588 0.815597
vt 0.281588 0.815852
vt 0.291275 0.815852
vt 0.386819 0.862569
vt 0.388104 0.862569
vt 0.388104 0.862404
vt 0.386819 0.862404
vt 0.092151 0.049266
vt 0.090167 0.050712
vt 0.088882 0.050712
vt 0.092152 0.050689
vn 0.7071 -0.7071 0.0000
vn 0.0000 -0.0000 1.0000
vn 0.0000 0.0008 1.0000
vn 0.0000 -0.0003 1.0000
vn -0.7071 -0.7071 -0.0000
vn 0.7071 0.7071 0.0000
vn -0.7071 0.7071 -0.0000
vn -0.7073 0.7069 -0.0006
vn 0.0000 0.0000 -1.0000
vn 0.0000 -0.0007 -1.0000
vn 0.0000 0.0007 -1.0000
vn 0.0000 -1.0000 -0.0000
vn 0.0000 1.0000 0.0000
usemtl Material
s 1
f 97/237/7 100/238/7 99/239/7 98/240/7
s 2
f 105/241/8 106/242/9 102/243/9 103/244/10
s 3
f 103/245/11 104/246/11 107/247/11 105/248/11
f 99/249/11 100/250/11 112/251/11 111/252/11
f 100/250/11 107/247/11 104/246/11 112/251/11
s 4
f 108/253/12 97/254/12 113/255/12 101/256/12
f 114/257/12 113/255/12 97/254/12 98/258/12
f 106/259/12 108/253/12 101/256/12 102/260/12
s 5
f 102/243/13 117/261/14 120/262/13 103/244/13
f 103/245/13 120/263/13 118/264/13 111/252/13 112/251/13 104/246/13
f 111/265/13 118/266/13 119/267/13 114/268/13
f 113/255/13 114/257/13 119/269/13 117/270/14 102/260/13 101/256/13
s 6
f 108/271/8 107/272/8 109/273/8 110/274/8
s 7
f 115/275/15 100/276/15 97/277/15 116/278/15
s 8
f 114/268/16 98/279/16 99/280/17 111/265/17
s 9
f 109/281/18 107/282/18 100/283/18 115/284/18
s 10
f 97/285/19 108/286/19 110/287/19 116/288/19
s 11
f 107/289/7 108/290/7 106/291/7 105/292/7
s 12
f 118/293/13 120/294/13 117/295/13 119/296/13
g Billboard_RF_Border
v -3.151799 0.766085 -8.884090
v -3.151799 0.766085 -9.384090
v 2.362335 6.251942 10.115911
v 2.362335 6.251941 10.615911
v -3.137663 0.751939 10.615910
v -3.137663 0.751939 10.115910
v 2.348193 6.266083 10.615911
v 2.348193 6.266084 10.115911
v -3.137657 0.751943 -9.384090
v -3.137657 0.751942 -8.884090
v 2.362341 6.251945 -8.884089
v 2.362341 6.251945 -9.384089
v -2.876799 1.041085 -9.084090
v -2.876804 1.041082 10.315909
v 2.073199 5.991086 -9.084088
v 2.073194 5.991083 10.315911
v -3.151805 0.766082 10.115910
v -3.151805 0.766081 10.615910
v 2.348199 6.266087 -9.384089
v 2.348199 6.266087 -8.884089
v 2.087336 5.976941 10.315911
v -2.862657 1.026942 -9.084090
v 2.087341 5.976944 -9.084088
v -2.862662 1.026940 10.315909
vt 0.212129 0.859012
vt 0.212129 0.859012
vt 0.215365 0.859012
vt 0.215365 0.859012
vt 0.215210 0.859012
vt 0.212283 0.859012
vt 0.212283 0.859012
vt 0.212129 0.859012
vt 0.212129 0.859012
vt 0.215364 0.859012
vt 0.215364 0.859012
vt 0.215210 0.859012
vt 0.214493 0.859512
vt 0.214493 0.859512
vt 0.213140 0.860865
vt 0.213140 0.860865
vt 0.214510 0.860865
vt 0.214510 0.860865
vt 0.213157 0.859512
vt 0.213157 0.859512
vt 0.214510 0.860865
vt 0.213157 0.859512
vt 0.213157 0.859512
vt 0.214510 0.860865
vt 0.212129 0.859012
vt 0.212283 0.859012
vt 0.215210 0.859012
vt 0.215365 0.859012
vt 0.215365 0.859012
vt 0.212129 0.859012
vt 0.214493 0.859512
vt 0.213140 0.860865
vt 0.213140 0.860865
vt 0.214493 0.859512
vt 0.212283 0.859012
vt 0.215210 0.859012
vt 0.215364 0.859012
vt 0.215364 0.859012
vt 0.212129 0.859012
vt 0.212129 0.859012
vn -0.7071 0.7071 -0.0000
vn -0.7072 0.7070 -0.0004
vn 0.7071 -0.7071 0.0000
vn 0.7068 -0.7074 -0.0002
vn -0.5000 -0.5000 -0.7071
vn -0.5000 -0.5000 0.7071
vn 0.5000 0.5000 0.7071
vn 0.5000 0.5000 -0.7071
vn 0.7071 0.7071 0.0000
vn -0.7071 -0.7071 -0.0000
usemtl Material
s 1
f 138/297/20 134/298/20 133/299/20 122/300/20 121/301/20 137/302/20
f 140/303/20 139/304/20 135/305/20 136/306/21 127/307/20 128/308/20
f 122/309/20 133/310/20 135/311/20 139/312/20
f 127/313/20 136/314/21 134/315/20 138/316/20
s 2
f 124/317/22 125/318/22 144/319/22 141/320/23
f 125/321/22 126/322/22 130/323/22 129/324/22 142/325/22 144/326/22
f 129/327/22 132/328/22 143/329/22 142/330/22
f 131/331/22 123/332/22 124/333/22 141/334/23 143/335/22 132/336/22
s 3
f 141/334/24 136/306/24 135/305/25 143/335/25
f 143/329/25 135/311/25 133/310/26 142/330/26
f 144/319/27 134/315/27 136/314/24 141/320/24
f 142/325/26 133/299/26 134/298/27 144/326/27
s 4
f 131/331/28 140/303/28 128/308/28 123/332/28
f 132/336/27 139/304/27 140/303/28 131/331/28
f 130/323/29 121/301/29 122/300/24 129/324/24
f 126/322/29 137/302/29 121/301/29 130/323/29
f 129/327/24 122/309/24 139/312/27 132/328/27
f 123/332/28 128/308/28 127/307/26 124/333/26
f 124/317/26 127/313/26 138/316/25 125/318/25
f 125/321/25 138/297/25 137/302/29 126/322/29
g Billboard_RF_Screen
v 2.080265 5.984012 10.315911
v -2.869728 1.034013 -9.084090
v 2.080270 5.984015 -9.084088
v -2.869733 1.034011 10.315909
vt -0.001560 0.530947
vt -0.001560 -0.000861
vt 1.000711 -0.000861
vt 1.000711 0.530947
vn -0.7071 0.7071 -0.0000
usemtl Material
s off
f 147/337/30 146/338/30 148/339/30 145/340/30
