# Blender v2.93.0 OBJ File: 'Freight Hopper Project.blend'
# www.blender.org
mtllib Trainwing.mtl
g Train-wings_Cube.046
v -3.808463 1.351538 -3.208260
v -0.008463 -0.348461 -0.647035
v -8.738693 0.221539 -5.122196
v -8.738693 0.981539 -5.122196
v -8.770116 0.981539 -8.846486
v -8.770116 0.221539 -8.846486
v -7.320368 0.221539 -8.056794
v -7.320368 0.981539 -8.056794
v -4.568462 0.221539 1.347965
v -0.008463 1.551538 -5.938563
v -0.008463 -0.348461 -5.938563
v -4.568462 1.161538 1.347965
v -0.008464 1.051538 6.477966
v -2.917500 -0.348461 -6.280189
v -2.917500 1.551538 -6.280189
v -0.008464 0.031539 6.477966
v -3.808463 -0.348461 -3.208260
v -0.008463 1.551538 -0.647035
v -9.118694 0.601539 -5.303683
v -9.150117 0.601539 -9.252831
v -0.008463 0.601539 -6.532627
v -4.568462 0.601539 2.287201
v -7.700369 0.601539 -8.625203
v -0.008464 0.601539 8.367203
v -2.917500 0.601539 -6.610868
v -0.008463 1.551538 2.915464
vt 0.500000 0.187500
vt 0.625000 0.187500
vt 0.625000 0.250000
vt 0.500000 0.250000
vt 0.500000 0.375000
vt 0.625000 0.375000
vt 0.625000 0.500000
vt 0.500000 0.500000
vt 0.625000 0.562500
vt 0.750000 0.562500
vt 0.750000 0.593750
vt 0.625000 0.593750
vt 0.125000 0.500000
vt 0.250000 0.500000
vt 0.250000 0.562500
vt 0.125000 0.562500
vt 0.250000 0.593750
vt 0.125000 0.593750
vt 0.750000 0.500000
vt 0.875000 0.500000
vt 0.875000 0.562500
vt 0.500000 0.562500
vt 0.500000 0.593750
vt 0.375000 0.500000
vt 0.375000 0.562500
vt 0.375000 0.593750
vt 0.875000 0.593750
vt 0.812500 0.593750
vt 0.500000 0.156250
vt 0.625000 0.156250
vt 0.375000 0.250000
vt 0.375000 0.375000
vt 0.375000 0.156250
vt 0.375000 0.187500
vn -0.6786 0.6073 0.4131
vn 0.3576 0.5806 -0.7315
vn -0.0384 0.9991 0.0198
vn -0.1361 -0.9891 0.0561
vn -0.0914 -0.9930 0.0748
vn -0.0809 0.9966 0.0157
vn 0.0648 0.4367 -0.8973
vn -0.0669 -0.9954 -0.0686
vn 0.0000 -1.0000 0.0000
vn 0.3118 0.4694 -0.8261
vn -0.0953 0.9939 0.0547
vn -0.3730 0.8738 0.3120
vn -0.0933 0.9956 -0.0084
vn -0.7093 0.7048 0.0058
vn -0.7093 -0.7048 0.0058
vn -0.3802 -0.8768 0.2945
vn 0.3118 -0.4694 -0.8261
vn 0.0648 -0.4367 -0.8973
vn 0.3576 -0.5806 -0.7315
vn -0.6160 -0.6889 0.3820
vn 1.0000 0.0000 0.0000
usemtl None
s off
f 22/1/1 12/2/1 4/3/1 19/4/1
f 20/5/2 5/6/2 8/7/2 23/8/2
f 15/9/3 1/10/3 18/11/3 10/12/3
f 3/13/4 6/14/4 17/15/4 9/16/4
f 9/16/5 17/15/5 2/17/5 16/18/5
f 5/19/6 4/20/6 12/21/6 1/10/6
f 25/22/7 15/9/7 10/12/7 21/23/7
f 6/14/8 7/24/8 14/25/8 17/15/8
f 17/15/9 14/25/9 11/26/9 2/17/9
f 23/8/10 8/7/10 15/9/10 25/22/10
f 1/10/11 12/21/11 13/27/11 26/28/11 18/11/11
f 24/29/12 13/30/12 12/2/12 22/1/12
f 8/7/13 5/19/13 1/10/13 15/9/13
f 19/4/14 4/3/14 5/6/14 20/5/14
f 3/31/15 19/4/15 20/5/15 6/32/15
f 16/33/16 24/29/16 22/1/16 9/34/16
f 7/24/17 23/8/17 25/22/17 14/25/17
f 14/25/18 25/22/18 21/23/18 11/26/18
f 6/32/19 20/5/19 23/8/19 7/24/19
f 9/34/20 22/1/20 19/4/20 3/31/20
f 11/26/21 21/23/21 10/12/21 18/11/21 26/28/21 13/30/21 24/29/21 16/18/21 2/17/21
