# Blender v2.93.0 OBJ File: 'Train3.blend'
# www.blender.org
mtllib Train Car Base.mtl
g Train_Car_Base
v 3.000000 0.610562 -8.884090
v 3.000000 0.360562 -8.884090
v 3.000000 0.260588 -9.234091
v 3.000000 0.260587 -7.446222
v 3.000000 -0.739413 -8.446222
v 3.000000 0.360556 10.115910
v 3.000000 0.260585 0.678042
v 3.000000 0.260585 -1.446222
v 3.000000 0.260587 -5.321959
v 3.000000 -0.739413 -4.321959
v 3.000000 -0.739415 -2.446222
v 3.000000 0.610556 10.115910
v 3.000000 0.216635 10.509842
v 3.000000 0.260583 6.678041
v 3.000000 0.260583 4.553778
v 3.000000 -0.739419 9.553776
v 3.000000 -0.739417 7.678043
v 3.000000 -0.739417 3.553778
v 3.000000 -0.739415 1.678042
v 3.000000 -0.739412 -9.234091
v 2.849998 -0.889436 -9.384090
v 2.849998 0.110564 -9.384090
v 2.849998 -0.889438 -8.384090
v 2.849998 0.110562 -7.384090
v 2.849998 0.110562 -5.384090
v 2.849998 -0.889438 -4.384090
v 2.849998 -0.889440 -2.384090
v 2.849998 0.110560 -1.384090
v 2.849998 0.110560 0.615910
v 2.849998 -0.889440 1.615910
v 2.849998 -0.889442 3.615910
v 2.849998 0.110558 4.615910
v 2.849998 0.110558 6.615910
v 2.849998 -0.889442 7.615910
v 2.849998 0.110556 10.615910
v 2.849998 -0.889444 9.615910
v -2.849998 0.110565 -9.384090
v -2.849999 -0.889435 -9.384090
v -2.849999 -0.889437 -8.384090
v -2.849998 0.110563 -7.384090
v -2.849998 0.110563 -5.384090
v -2.849999 -0.889437 -4.384090
v -2.849999 -0.889439 -2.384090
v -2.849998 0.110561 -1.384090
v -2.849998 0.110561 0.615910
v -2.849999 -0.889439 1.615910
v -2.849999 -0.889441 3.615910
v -2.849998 0.110559 4.615910
v -2.849998 0.110559 6.615910
v -2.849999 -0.889441 7.615910
v -2.849999 -0.889443 9.615910
v -2.849998 0.110557 10.615910
v -3.000000 0.216636 10.509842
v -3.000000 0.610557 10.115910
v -3.000000 -0.739417 9.553776
v -3.000000 -0.739415 7.678043
v -3.000000 0.260584 6.678041
v -3.000000 0.260584 4.553778
v -3.000000 -0.739415 3.553778
v -3.000000 -0.739413 1.678042
v -3.000000 0.260586 0.678042
v -3.000000 0.260586 -1.446222
v -3.000000 -0.739413 -2.446222
v -3.000000 -0.739411 -4.321959
v -3.000000 0.260588 -5.321959
v -3.000000 0.260588 -7.446222
v -3.000000 -0.739411 -8.446222
v -3.000000 -0.739411 -9.234091
v -3.000000 0.260588 -9.234091
v -3.000000 0.610563 -8.884090
v -3.000000 0.360563 -8.884090
v -3.000000 0.360557 10.115910
vt 0.254845 0.739967
vt 0.254845 0.740039
vt 0.254745 0.740068
vt 0.255256 0.740068
vt 0.254970 0.740354
vt 0.260282 0.740039
vt 0.257581 0.740068
vt 0.256973 0.740068
vt 0.255864 0.740068
vt 0.256151 0.740354
vt 0.256687 0.740354
vt 0.260282 0.739967
vt 0.260395 0.740080
vt 0.259298 0.740068
vt 0.258690 0.740068
vt 0.260121 0.740354
vt 0.259584 0.740354
vt 0.258404 0.740354
vt 0.257867 0.740354
vt 0.254745 0.740354
vt 0.257814 0.740212
vt 0.257528 0.740212
vt 0.257771 0.740152
vt 0.257485 0.740152
vt 0.256401 0.740152
vt 0.256419 0.740212
vt 0.256176 0.740152
vt 0.256133 0.740212
vt 0.257000 0.740152
vt 0.256982 0.740212
vt 0.256595 0.740152
vt 0.256577 0.740212
vt 0.256401 0.740152
vt 0.257009 0.740152
vt 0.256419 0.740212
vt 0.256991 0.740212
vt 0.256913 0.740152
vt 0.257318 0.740152
vt 0.256931 0.740212
vt 0.257336 0.740212
vt 0.256866 0.740152
vt 0.257403 0.740152
vt 0.256848 0.740212
vt 0.257420 0.740212
vt 0.257607 0.740152
vt 0.257589 0.740212
vt 0.257202 0.740152
vt 0.257184 0.740212
vt 0.257260 0.740152
vt 0.257867 0.740152
vt 0.257277 0.740212
vt 0.257850 0.740212
vt 0.257520 0.740152
vt 0.257925 0.740152
vt 0.257538 0.740212
vt 0.257943 0.740212
vt 0.257724 0.740152
vt 0.258261 0.740152
vt 0.257707 0.740212
vt 0.258279 0.740212
vt 0.258214 0.740152
vt 0.258196 0.740212
vt 0.257809 0.740152
vt 0.257791 0.740212
vt 0.258118 0.740152
vt 0.258726 0.740152
vt 0.258708 0.740212
vt 0.258127 0.740152
vt 0.258532 0.740152
vt 0.258145 0.740212
vt 0.258550 0.740212
vt 0.258803 0.740152
vt 0.258803 0.740212
vt 0.258416 0.740152
vt 0.258398 0.740212
vt 0.258583 0.740152
vt 0.259120 0.740152
vt 0.259137 0.740212
vt 0.257564 0.740225
vt 0.257564 0.741856
vt 0.257850 0.741856
vt 0.257564 0.740225
vt 0.257850 0.740225
vt 0.257564 0.741856
vt 0.257850 0.741856
vt 0.257564 0.740225
vt 0.257968 0.740225
vt 0.257564 0.741856
vt 0.257968 0.741856
vt 0.257564 0.740225
vt 0.258136 0.740225
vt 0.257564 0.741856
vt 0.258136 0.741856
vt 0.257564 0.740225
vt 0.257968 0.740225
vt 0.257564 0.741856
vt 0.257968 0.741856
vt 0.257564 0.740225
vt 0.258136 0.740225
vt 0.257564 0.741856
vt 0.258136 0.741856
vt 0.257564 0.740225
vt 0.257968 0.740225
vt 0.257564 0.741856
vt 0.257968 0.741856
vt 0.258136 0.740225
vt 0.257564 0.741856
vt 0.258136 0.741856
vt 0.257564 0.740225
vt 0.257968 0.740225
vt 0.257564 0.741856
vt 0.257968 0.741856
vt 0.257564 0.740225
vt 0.258136 0.740225
vt 0.257564 0.741856
vt 0.258136 0.741856
vt 0.257564 0.740225
vt 0.257968 0.740225
vt 0.257564 0.741856
vt 0.257968 0.741856
vt 0.257564 0.740225
vt 0.257564 0.741856
vt 0.258136 0.741856
vt 0.257564 0.740225
vt 0.257968 0.740225
vt 0.257564 0.741856
vt 0.257968 0.741856
vt 0.257564 0.740225
vt 0.258136 0.740225
vt 0.257564 0.741856
vt 0.258136 0.741856
vt 0.257564 0.740225
vt 0.257968 0.740225
vt 0.257564 0.741856
vt 0.257968 0.741856
vt 0.257564 0.741856
vt 0.257564 0.740225
vt 0.257606 0.741899
vt 0.257606 0.740182
vt 0.257766 0.740182
vt 0.257766 0.741899
vt 0.258398 0.740152
vt 0.258803 0.740152
vt 0.258416 0.740212
vt 0.258803 0.740212
vt 0.258565 0.740152
vt 0.259137 0.740152
vt 0.258583 0.740212
vt 0.259120 0.740212
vt 0.258532 0.740212
vt 0.258145 0.740152
vt 0.258127 0.740212
vt 0.258136 0.740152
vt 0.258708 0.740152
vt 0.258118 0.740212
vt 0.258726 0.740212
vt 0.257791 0.740152
vt 0.257809 0.740212
vt 0.258214 0.740212
vt 0.257707 0.740152
vt 0.258279 0.740152
vt 0.257724 0.740212
vt 0.258261 0.740212
vt 0.257943 0.740152
vt 0.257925 0.740212
vt 0.257538 0.740152
vt 0.257520 0.740212
vt 0.257277 0.740152
vt 0.257850 0.740152
vt 0.257260 0.740212
vt 0.257867 0.740212
vt 0.257184 0.740152
vt 0.257589 0.740152
vt 0.257202 0.740212
vt 0.257607 0.740212
vt 0.256848 0.740152
vt 0.257420 0.740152
vt 0.256866 0.740212
vt 0.257403 0.740212
vt 0.257336 0.740152
vt 0.257318 0.740212
vt 0.256931 0.740152
vt 0.256913 0.740212
vt 0.256419 0.740152
vt 0.256991 0.740152
vt 0.256401 0.740212
vt 0.257009 0.740212
vt 0.256577 0.740152
vt 0.256982 0.740152
vt 0.256595 0.740212
vt 0.257000 0.740212
vt 0.256133 0.740152
vt 0.256419 0.740152
vt 0.256176 0.740212
vt 0.256401 0.740212
vt 0.257485 0.740212
vt 0.257528 0.740152
vt 0.257771 0.740212
vt 0.257814 0.740152
vt 0.257778 0.742901
vt 0.257678 0.743001
vt 0.257707 0.742901
vt 0.257678 0.742489
vt 0.257678 0.741881
vt 0.257392 0.743001
vt 0.257392 0.742775
vt 0.257678 0.740772
vt 0.257392 0.741595
vt 0.257392 0.741058
vt 0.257678 0.740164
vt 0.257707 0.737464
vt 0.257678 0.739055
vt 0.257678 0.738447
vt 0.257392 0.739878
vt 0.257392 0.739341
vt 0.257665 0.737351
vt 0.257392 0.738161
vt 0.257392 0.737624
vt 0.257778 0.737464
vt 0.257564 0.741899
vt 0.263001 0.741899
vt 0.257564 0.740182
vt 0.257705 0.740182
vt 0.257705 0.741899
vt 0.257766 0.740225
vt 0.257766 0.741856
vt 0.257564 0.741899
vt 0.257564 0.740182
vt 0.263001 0.740182
vn 1.0000 0.0000 0.0000
vn 0.7071 0.0000 -0.7071
vn 0.7072 -0.7071 -0.0000
vn 0.7071 -0.5000 0.5000
vn 0.7071 -0.5000 -0.5000
vn 0.7068 -0.7075 -0.0000
vn 0.7074 -0.7068 -0.0000
vn 0.0000 0.0000 -1.0000
vn -0.0000 -1.0000 -0.0000
vn -0.0000 -0.7071 0.7071
vn 0.0000 -0.7071 -0.7071
vn 0.0000 0.7071 0.7071
vn -0.7072 -0.5000 0.5000
vn -0.7071 -0.5000 0.5000
vn -0.7072 -0.7070 -0.0000
vn -0.7068 -0.7074 -0.0000
vn -0.7071 -0.5000 -0.5000
vn -0.7072 -0.7071 -0.0000
vn -0.7069 -0.7073 -0.0000
vn -0.7071 0.0000 -0.7071
vn -1.0000 0.0000 0.0000
vn 0.0000 0.7071 -0.7071
vn -0.0000 0.7070 -0.7072
vn 0.0000 1.0000 0.0000
usemtl Material
s 1
f 1/1/1 2/2/1 3/3/1
f 3/3/1 2/2/1 4/4/1
f 3/3/1 4/4/1 5/5/1
f 6/6/1 7/7/1 2/2/1
f 2/2/1 7/7/1 8/8/1
f 2/2/1 8/8/1 9/9/1
f 9/9/1 8/8/1 10/10/1
f 10/10/1 8/8/1 11/11/1
f 12/12/1 13/13/1 6/6/1
f 6/6/1 13/13/1 14/14/1
f 6/6/1 14/14/1 15/15/1
f 16/16/1 17/17/1 13/13/1
f 13/13/1 17/17/1 14/14/1
f 18/18/1 19/19/1 15/15/1
f 15/15/1 19/19/1 7/7/1
f 15/15/1 7/7/1 6/6/1
f 9/9/1 4/4/1 2/2/1
f 5/5/1 20/20/1 3/3/1
f 1/1/1 12/12/1 6/6/1 2/2/1
s 2
f 21/21/2 22/22/2 20/23/2
f 20/23/2 22/22/2 3/24/2
s 3
f 5/25/3 23/26/3 20/27/3
f 20/27/3 23/26/3 21/28/3
s 4
f 4/29/4 24/30/4 5/31/4
f 5/31/4 24/30/4 23/32/4
s 5
f 4/33/3 9/34/3 24/35/3
f 24/35/3 9/34/3 25/36/3
s 6
f 9/37/5 10/38/5 25/39/5
f 25/39/5 10/38/5 26/40/5
s 7
f 10/41/3 11/42/3 26/43/3
f 26/43/3 11/42/3 27/44/6
s 8
f 8/45/4 28/46/4 11/47/4
f 11/47/4 28/46/4 27/48/4
s 9
f 8/49/3 7/50/3 28/51/3
f 28/51/3 7/50/3 29/52/3
s 10
f 7/53/5 19/54/5 29/55/5
f 29/55/5 19/54/5 30/56/5
s 11
f 19/57/7 18/58/3 30/59/3
f 30/59/3 18/58/3 31/60/6
s 12
f 15/61/4 32/62/4 18/63/4
f 18/63/4 32/62/4 31/64/4
s 13
f 15/65/3 14/66/3 32/62/3
f 32/62/3 14/66/3 33/67/3
s 14
f 14/68/5 17/69/5 33/70/5
f 33/70/5 17/69/5 34/71/5
s 15
f 13/72/4 35/73/4 16/74/4
f 16/74/4 35/73/4 36/75/4
s 16
f 17/76/3 16/77/3 34/71/6
f 34/71/6 16/77/3 36/78/3
s 17
f 22/79/8 21/21/8 37/80/8
f 37/80/8 21/21/8 38/81/8
s 18
f 21/82/9 23/83/9 38/84/9
f 38/84/9 23/83/9 39/85/9
s 19
f 23/86/10 24/87/10 39/88/10
f 39/88/10 24/87/10 40/89/10
s 20
f 24/90/9 25/91/9 40/92/9
f 40/92/9 25/91/9 41/93/9
s 21
f 25/94/11 26/95/11 41/96/11
f 41/96/11 26/95/11 42/97/11
s 22
f 26/98/9 27/99/9 42/100/9
f 42/100/9 27/99/9 43/101/9
s 23
f 27/102/10 28/103/10 43/104/10
f 43/104/10 28/103/10 44/105/10
s 24
f 28/46/9 29/106/9 44/107/9
f 44/107/9 29/106/9 45/108/9
s 25
f 29/109/11 30/110/11 45/111/11
f 45/111/11 30/110/11 46/112/11
s 26
f 30/113/9 31/114/9 46/115/9
f 46/115/9 31/114/9 47/116/9
s 27
f 31/117/10 32/118/10 47/119/10
f 47/119/10 32/118/10 48/120/10
s 28
f 32/121/9 33/70/9 48/122/9
f 48/122/9 33/70/9 49/123/9
s 29
f 33/124/11 34/125/11 49/126/11
f 49/126/11 34/125/11 50/127/11
s 30
f 34/128/9 36/129/9 50/130/9
f 50/130/9 36/129/9 51/131/9
s 31
f 36/132/10 35/133/10 51/134/10
f 51/134/10 35/133/10 52/135/10
s 32
f 52/136/12 35/137/12 53/138/12
f 53/138/12 35/137/12 13/139/12
f 53/138/12 13/139/12 12/140/12
f 12/140/12 54/141/12 53/138/12
s 33
f 51/142/13 52/143/14 55/144/14
f 55/144/14 52/143/14 53/145/14
s 34
f 50/146/15 51/147/15 56/148/15
f 56/148/15 51/147/15 55/149/16
s 35
f 50/146/17 56/150/17 49/151/17
f 49/151/17 56/150/17 57/152/17
s 36
f 48/153/18 49/154/19 58/155/18
f 58/155/18 49/154/19 57/156/18
s 37
f 47/157/14 48/153/14 59/158/14
f 59/158/14 48/153/14 58/159/14
s 38
f 46/160/15 47/161/15 60/162/15
f 60/162/15 47/161/15 59/163/15
s 39
f 46/164/17 60/165/17 45/166/17
f 45/166/17 60/165/17 61/167/17
s 40
f 44/168/18 45/169/18 62/170/18
f 62/170/18 45/169/18 61/171/18
s 41
f 43/172/14 44/173/14 63/174/14
f 63/174/14 44/173/14 62/175/14
s 42
f 42/176/15 43/177/15 64/178/15
f 64/178/15 43/177/15 63/179/15
s 43
f 42/180/17 64/181/17 41/182/17
f 41/182/17 64/181/17 65/183/17
s 44
f 40/184/18 41/185/19 66/186/18
f 66/186/18 41/185/19 65/187/18
s 45
f 39/188/14 40/189/14 67/190/14
f 67/190/14 40/189/14 66/191/14
s 46
f 38/192/18 39/193/15 68/194/18
f 68/194/18 39/193/15 67/195/15
s 47
f 69/196/20 37/197/20 68/198/20
f 68/198/20 37/197/20 38/199/20
s 48
f 70/200/21 69/201/21 71/202/21
f 71/202/21 69/201/21 66/203/21
f 71/202/21 66/203/21 65/204/21
f 68/205/21 67/206/21 69/201/21
f 69/201/21 67/206/21 66/203/21
f 71/202/21 65/204/21 62/207/21
f 62/207/21 65/204/21 64/208/21
f 62/207/21 64/208/21 63/209/21
f 62/207/21 61/210/21 71/202/21
f 71/202/21 61/210/21 72/211/21
f 72/211/21 61/210/21 58/212/21
f 72/211/21 58/212/21 57/213/21
f 61/210/21 60/214/21 58/212/21
f 58/212/21 60/214/21 59/215/21
f 72/211/21 57/213/21 53/216/21
f 53/216/21 57/213/21 56/217/21
f 53/216/21 56/217/21 55/218/21
f 53/216/21 54/219/21 72/211/21
f 54/220/21 70/221/21 71/202/21 72/211/21
s 49
f 1/222/22 3/223/22 69/224/22
f 69/224/22 3/223/22 22/225/23
f 69/224/22 22/225/23 37/226/23
f 69/224/22 70/227/22 1/222/22
s 50
f 12/228/24 1/229/24 54/220/24
f 54/220/24 1/229/24 70/221/24
