# Blender v2.90.1 OBJ File: 'w1 EXPORT FILE.blend'
# www.blender.org
mtllib Cactus 3g.mtl
g Cactus_3_Green
v -0.768818 5.112426 -0.768091
v -1.252766 5.152635 -1.057005
v -1.244033 5.382444 -0.916157
v -0.914972 5.371318 -0.730981
v -1.260801 4.082376 1.047924
v -1.308106 4.465603 0.937596
v -1.460757 4.426641 0.632603
v -1.595796 4.126155 0.546820
v -1.180921 4.467497 0.425696
v -1.135303 4.123355 0.360720
v -0.948573 4.374906 0.773905
v -0.817365 4.148998 0.796894
v -0.426565 3.450723 -0.818427
v -0.336864 5.709564 -0.752218
v 0.299969 5.667330 -0.743294
v 0.418746 3.412034 -0.710479
v 0.059994 3.395481 -0.747988
v -1.580884 3.589921 0.561144
v -1.268912 3.525203 1.079875
v -0.502307 7.633537 -0.023816
v 0.298186 7.675174 0.473637
v 0.492132 7.604409 -0.006569
v -0.231680 7.623867 -0.458162
v -1.067413 3.629994 0.263956
v -0.755311 3.606598 0.828219
v -0.920129 4.013105 -0.851249
v -0.516017 4.039318 -0.645791
v -0.735173 4.067326 -0.097990
v -1.211734 4.065085 -0.286809
v -0.723646 2.609634 0.721577
v -0.442151 2.646150 0.626275
v -0.489178 3.214489 0.600945
v -0.743668 3.236371 0.781233
v -1.282109 3.243448 1.064992
v -0.562855 1.407065 0.311836
v -0.576046 2.646800 0.338628
v -0.747179 2.684305 0.106661
v -0.735452 1.409044 0.050247
v -1.316224 4.490548 -1.085586
v -1.583118 4.542996 -0.566414
v -1.603188 3.230877 0.574754
v -1.052978 3.245402 0.259610
v -0.840251 3.274742 0.059841
v -1.058677 2.611717 0.254299
v 1.446069 4.991500 1.099840
v 1.677622 5.026281 0.699301
v 1.268425 5.014663 0.438276
v 1.014396 4.976176 0.857549
v 1.899835 4.001059 0.638503
v 1.502352 3.923767 1.247917
v 1.136539 3.526942 1.077999
v 1.497692 3.538647 0.446157
v -0.420706 7.171826 -0.619857
v 0.252743 7.634702 -0.430393
v 0.380577 7.191613 -0.651457
v 0.756966 7.190243 0.001158
v -0.761027 7.186775 0.009199
v -0.330053 7.137560 0.667036
v -0.266312 7.646604 0.472036
v 0.405452 7.201364 0.607540
v 1.237101 4.629554 0.305572
v 1.841559 4.593330 0.701979
v -0.428794 6.431131 -0.757842
v -0.497796 4.658449 -0.636974
v -0.792210 4.642235 -0.112977
v -0.857728 6.461415 0.012561
v 0.841753 6.418363 -0.028054
v 0.432913 6.438570 -0.749982
v -0.756807 4.650968 -0.779684
v -0.303404 6.412137 -0.768605
v 0.262125 6.431887 -0.765111
v -1.055610 4.636908 -0.259823
v -1.572588 4.667981 -0.551523
v -1.266989 4.586977 -1.107044
v -0.254713 6.409162 -1.319291
v -0.258292 6.181720 -1.313041
v -0.276968 5.659900 -0.952278
v 0.181289 6.953541 -0.874687
v -0.188543 6.903719 -0.821920
v -0.248697 6.631411 -0.813492
v 0.321706 6.659457 -0.779848
v 0.227565 6.884421 -1.208972
v 0.250217 6.648388 -1.290298
v -0.276928 6.665391 -1.310721
v -0.154194 6.850172 -1.214931
v -0.393585 3.408342 0.779528
v -0.884303 3.416149 -0.007529
v 0.323850 6.432742 -1.320457
v 0.300622 6.137637 -1.350000
v 0.921877 4.639685 0.907021
v 1.536950 4.661425 1.321333
v -1.096224 5.066189 -0.324342
v 1.525261 4.266748 1.251782
v 1.926134 4.240468 0.664915
v 1.230196 4.276793 0.269553
v 0.865981 4.292210 0.025772
v 0.439231 4.255846 0.720254
v 0.820063 4.288775 0.917695
v -0.437562 6.427504 0.730634
v 0.428642 6.439240 0.736942
v -0.643755 3.411958 -0.362673
v 0.414770 3.401997 0.775676
v 0.007856 3.442956 0.745512
v 0.870845 3.555374 0.047731
v 0.468771 3.486998 0.706846
v -1.366244 5.332368 -0.600544
v -1.540046 5.111716 -0.601500
v -1.165202 5.357350 -0.419063
v 0.347386 5.722751 -0.890713
v -0.528685 0.120399 0.285215
v 0.514962 0.127940 -0.307048
v 0.695250 0.172750 -0.015873
v -0.305853 0.157927 0.587416
v 0.009420 1.803607 -0.672118
v -0.411423 1.762086 -0.716245
v 0.590558 1.789168 -0.335756
v 0.344262 0.137511 -0.597813
v 0.372627 1.795542 -0.657288
v -0.813821 3.045367 0.040686
v -0.002973 1.790477 0.671507
v -0.009302 0.129907 0.590278
v 0.333536 0.129545 0.604463
v 0.398632 1.742539 0.650521
v 0.847930 3.440424 -0.005260
v 0.681220 3.439158 0.433556
v -0.450433 3.047533 0.680815
v -0.430978 1.769912 0.679487
v -0.629752 1.779875 -0.362649
v -0.359912 0.118583 -0.568036
v -0.469405 0.161683 -0.284375
v 0.606659 1.817359 0.293700
v 0.792052 1.787874 0.023068
v 0.527616 0.139892 0.325652
v -0.029228 0.157746 -0.601796
v 0.691100 3.470171 -0.367549
v -0.689739 0.087293 -0.007803
v -0.787763 1.789592 0.005039
v -0.411331 1.401006 0.610556
vt 0.515700 0.550208
vt 0.515729 0.541465
vt 0.515893 0.543567
vt 0.515873 0.549045
vt 0.515679 0.532754
vt 0.515885 0.534069
vt 0.515885 0.539520
vt 0.515729 0.541465
vt 0.515893 0.543567
vt 0.515873 0.549045
vt 0.515700 0.550208
vt 0.515881 0.525512
vt 0.515853 0.531069
vt 0.515709 0.523939
vt 0.584463 0.541569
vt 0.584453 0.541539
vt 0.584453 0.541419
vt 0.584463 0.541413
vt 0.584463 0.541490
vt 0.515599 0.541466
vt 0.515580 0.532679
vt 0.596534 0.538417
vt 0.601353 0.542507
vt 0.599746 0.546598
vt 0.594928 0.542507
vt 0.515588 0.550228
vt 0.515598 0.558414
vt 0.515739 0.558446
vt 0.584448 0.540629
vt 0.584451 0.540562
vt 0.584451 0.540689
vt 0.584448 0.540651
vt 0.584472 0.540845
vt 0.584474 0.540883
vt 0.584466 0.540881
vt 0.584467 0.540846
vt 0.584472 0.540821
vt 0.585071 0.540830
vt 0.584474 0.540822
vt 0.584474 0.540764
vt 0.585071 0.540767
vt 0.584442 0.540637
vt 0.584442 0.540644
vt 0.584472 0.540819
vt 0.584471 0.540821
vt 0.584471 0.540820
vt 0.584467 0.540799
vt 0.584466 0.540756
vt 0.584472 0.540797
vt 0.584471 0.540821
vt 0.516080 0.531093
vt 0.515853 0.531069
vt 0.515881 0.525512
vt 0.516084 0.525530
vt 0.584453 0.541157
vt 0.584453 0.541152
vt 0.584458 0.541148
vt 0.584458 0.541161
vt 0.516216 0.541531
vt 0.515883 0.541451
vt 0.515883 0.541338
vt 0.516216 0.541373
vt 0.515883 0.541215
vt 0.516216 0.541227
vt 0.515883 0.540820
vt 0.516216 0.540782
vt 0.516216 0.540933
vt 0.515883 0.540952
vt 0.515883 0.541086
vt 0.516216 0.541084
vt 0.516216 0.540628
vt 0.515883 0.540708
vt 0.515709 0.523939
vt 0.515679 0.532754
vt 0.516790 0.540613
vt 0.584442 0.540596
vt 0.584442 0.540717
vt 0.516790 0.540780
vt 0.516790 0.541231
vt 0.516790 0.541384
vt 0.584447 0.540621
vt 0.516790 0.541543
vt 0.516790 0.541569
vt 0.516790 0.541407
vt 0.596534 0.546598
vt 0.599747 0.538417
vt 0.584447 0.540664
vt 0.584440 0.540644
vt 0.584440 0.540638
vt 0.584448 0.541483
vt 0.584446 0.541488
vt 0.584449 0.541516
vt 0.515895 0.551737
vt 0.515874 0.557047
vt 0.515739 0.558446
vt 0.515700 0.550208
vt 0.515893 0.543567
vt 0.515873 0.549045
vt 0.515729 0.541465
vt 0.515679 0.532754
vt 0.515885 0.534069
vt 0.515885 0.539520
vt 0.584463 0.540903
vt 0.584463 0.540731
vt 0.515588 0.550228
vt 0.515599 0.541466
vt 0.584448 0.541466
vt 0.584446 0.541462
vt 0.515580 0.532679
vt 0.515605 0.523947
vt 0.515709 0.523939
vt 0.515873 0.549045
vt 0.515700 0.550208
vt 0.515729 0.541465
vt 0.515893 0.543567
vt 0.515885 0.534069
vt 0.515885 0.539520
vt 0.515895 0.551737
vt 0.515874 0.557047
vt 0.515895 0.551737
vt 0.515874 0.557047
vt 0.515739 0.558446
vt 0.515598 0.558414
vt 0.515588 0.550228
vt 0.515739 0.558446
vt 0.515599 0.541466
vt 0.515580 0.532679
vt 0.584453 0.541171
vt 0.584449 0.541226
vt 0.584449 0.541103
vt 0.584453 0.541137
vt 0.515605 0.523947
vt 0.516790 0.540939
vt 0.516790 0.541093
vt 0.584453 0.541156
vt 0.584463 0.540549
vt 0.584463 0.540642
vt 0.584463 0.541070
vt 0.584463 0.540987
vt 0.584453 0.541153
vt 0.584461 0.541229
vt 0.584471 0.540819
vt 0.584461 0.541080
vt 0.515885 0.534069
vt 0.515885 0.539520
vt 0.515679 0.532754
vt 0.515895 0.551737
vt 0.515874 0.557047
vt 0.515881 0.525512
vt 0.515853 0.531069
vt 0.515709 0.523939
vt 0.515853 0.531069
vt 0.515881 0.525512
vt 0.515580 0.532679
vt 0.515605 0.523947
vt 0.515588 0.550228
vt 0.515599 0.541466
vt 0.515598 0.558414
vt 0.516084 0.525530
vt 0.516080 0.531093
vt 0.584449 0.541441
vt 0.598254 0.546333
vt 0.598254 0.538705
vt 0.599752 0.538705
vt 0.599752 0.546333
vt 0.516080 0.531093
vt 0.516084 0.525530
vt 0.585071 0.541462
vt 0.585071 0.541542
vt 0.585071 0.541304
vt 0.585648 0.541302
vt 0.585648 0.541381
vt 0.585071 0.541383
vt 0.584469 0.540747
vt 0.585071 0.540987
vt 0.585648 0.540982
vt 0.585648 0.541062
vt 0.585071 0.541066
vt 0.584463 0.541240
vt 0.584463 0.541154
vt 0.584467 0.540893
vt 0.585071 0.540908
vt 0.585071 0.540674
vt 0.585071 0.540593
vt 0.585648 0.540598
vt 0.585648 0.540675
vt 0.585071 0.541145
vt 0.585071 0.541225
vt 0.515598 0.558414
vt 0.516084 0.525530
vt 0.516080 0.531093
vt 0.600501 0.544426
vt 0.600501 0.540612
vt 0.596008 0.540612
vt 0.596008 0.544426
vt 0.595259 0.542519
vt 0.515605 0.523947
vt 0.584463 0.541326
vt 0.596757 0.538705
vt 0.596757 0.546333
vt 0.601250 0.542519
vt 0.585648 0.541142
vt 0.585648 0.541222
vt 0.585071 0.540755
vt 0.585648 0.540752
vt 0.585071 0.540893
vt 0.585648 0.540902
vt 0.585648 0.541460
vt 0.585648 0.541539
vt 0.585648 0.540827
vn 0.4775 0.4161 -0.7739
vn -0.8483 0.1273 0.5140
vn -0.4630 0.2622 -0.8467
vn 0.4431 0.3137 0.8398
vn 0.0827 0.0061 -0.9966
vn 0.1606 0.0139 -0.9869
vn 0.0476 -0.0070 -0.9988
vn 0.0775 0.0051 -0.9970
vn 0.0793 0.0057 -0.9968
vn -0.8434 0.0175 0.5369
vn 0.0089 0.9985 -0.0536
vn 0.0075 0.9986 -0.0524
vn 0.0176 0.9992 -0.0369
vn 0.0165 0.9993 -0.0338
vn -0.4453 0.0358 -0.8947
vn 0.8379 0.1385 -0.5280
vn 0.0001 -0.9974 0.0718
vn 0.4598 -0.0224 0.8877
vn 0.4573 0.0001 0.8893
vn 0.4600 -0.0527 0.8864
vn 0.4592 -0.0799 0.8847
vn -0.8568 -0.0376 0.5143
vn -0.8615 -0.0253 0.5072
vn -0.8060 -0.0342 0.5909
vn -0.8397 -0.0433 0.5413
vn -0.6698 -0.6881 -0.2789
vn -0.8451 0.0458 0.5326
vn -0.5139 -0.0215 -0.8576
vn -0.5421 -0.0671 -0.8377
vn -0.5260 -0.0379 -0.8496
vn 0.4567 -0.0851 0.8855
vn -0.4982 0.0005 -0.8671
vn -0.0629 0.9967 0.0518
vn 0.6285 -0.7025 0.3338
vn -0.0121 0.3938 -0.9191
vn 0.7755 0.4622 -0.4300
vn -0.7953 0.3808 0.4717
vn 0.0196 0.3181 0.9479
vn -0.7704 0.4486 -0.4530
vn 0.5349 0.2165 -0.8167
vn -0.8755 0.0018 -0.4832
vn -0.8970 0.0063 -0.4420
vn -0.8220 0.0051 -0.5695
vn -0.8702 0.0020 -0.4927
vn 0.8630 0.1187 -0.4911
vn 0.4775 -0.0376 -0.8778
vn 0.4653 -0.0106 -0.8851
vn 0.4745 -0.0177 -0.8801
vn -0.0283 0.1715 -0.9848
vn -0.0385 0.1759 -0.9837
vn -0.0565 0.1834 -0.9814
vn -0.0105 0.1654 -0.9862
vn 0.0822 0.1349 -0.9874
vn 0.0218 0.1550 -0.9877
vn -0.0272 0.9959 0.0866
vn 0.0976 -0.9895 -0.1068
vn -0.0505 0.9987 -0.0023
vn -0.0309 0.9995 0.0115
vn -0.8505 0.2153 -0.4798
vn -0.9960 0.0133 -0.0881
vn -0.9967 -0.0026 -0.0815
vn -0.9931 0.0003 -0.1169
vn -0.9795 0.0147 -0.2010
vn -0.9546 0.0386 -0.2954
vn 0.0051 0.1801 0.9836
vn 0.9547 0.2922 -0.0562
vn 0.0195 0.3839 -0.9232
vn -0.8831 -0.0346 0.4678
vn -0.8708 -0.0334 0.4904
vn -0.8578 -0.0642 0.5100
vn -0.9120 -0.0961 0.3987
vn 0.9994 0.0320 -0.0095
vn -0.0326 0.0462 -0.9984
vn -0.9976 0.0668 -0.0175
vn 0.0168 0.0852 -0.9962
vn -0.5108 0.3248 0.7960
vn 0.8181 0.3958 0.4172
vn 0.7957 0.2861 -0.5338
vn -0.8578 0.2017 -0.4728
vn 0.8333 0.0817 0.5467
vn 0.8636 0.0123 0.5041
vn -0.0250 0.9997 0.0026
vn 0.5205 0.1445 -0.8416
vn 0.0269 0.1284 0.9914
vn 0.4952 0.0413 -0.8678
vn 0.4838 0.0038 -0.8752
vn 0.5200 -0.0149 -0.8541
vn 0.5063 -0.0271 -0.8620
vn -0.8546 0.0270 -0.5186
vn -0.5834 -0.0224 -0.8119
vn -0.8619 0.0345 -0.5059
vn -0.8904 0.0343 -0.4540
vn -0.8936 0.0373 -0.4474
vn -0.0016 0.0094 1.0000
vn -0.4276 0.0184 0.9038
vn -0.4589 -0.0096 0.8884
vn -0.4293 0.0146 0.9031
vn -0.4529 -0.0058 0.8915
vn 0.5435 -0.0126 -0.8393
vn -0.4987 -0.0055 -0.8668
vn -0.8555 0.0000 0.5178
vn -0.4933 -0.0618 0.8677
vn -0.5034 0.0072 0.8640
vn -0.4558 0.0474 0.8888
vn -0.4581 0.0587 0.8869
vn -0.4753 -0.0230 0.8795
vn -0.8107 0.4474 -0.3777
vn 0.7314 0.3475 0.5868
vn -0.5544 0.2585 0.7911
vn -0.9274 0.3738 -0.0146
vn -0.5001 0.1081 0.8592
vn -0.4931 0.0064 0.8699
vn 0.0246 0.9985 0.0498
vn -0.8612 0.0399 -0.5066
vn -0.8539 0.1499 -0.4983
vn -0.4132 0.0262 0.9103
vn 0.5172 -0.2337 -0.8233
vn 0.5249 -0.4313 -0.7338
vn 0.0405 -0.9985 -0.0380
vn -0.5724 -0.7158 0.4000
vn 0.0931 0.9953 0.0268
vn 0.9441 0.0560 0.3247
vn 0.9746 0.0801 0.2092
vn 0.9956 0.0502 0.0793
vn 0.9983 0.0239 0.0537
vn 0.9900 -0.0889 0.1099
vn 0.0514 -0.9972 0.0547
vn 0.0522 -0.9970 0.0566
vn 0.0296 -0.9992 0.0282
vn 0.0320 -0.9990 0.0325
vn -0.0683 0.9958 0.0611
vn 0.0261 -0.6580 -0.7525
vn 0.0625 -0.0507 -0.9968
vn 0.0703 -0.0610 -0.9957
vn 0.1243 -0.0551 -0.9907
vn 0.0986 -0.0487 -0.9939
vn 0.8528 -0.0464 -0.5202
vn 0.8527 -0.0422 -0.5207
vn 0.8431 -0.0407 -0.5362
vn 0.8244 -0.0460 -0.5642
vn -0.8475 -0.0863 0.5238
vn 0.0123 -0.0517 0.9986
vn 0.0066 -0.0456 0.9989
vn 0.0066 -0.0390 0.9992
vn -0.0049 -0.0488 0.9988
vn 0.9594 0.0582 0.2759
vn 0.9988 0.0297 -0.0380
vn 0.8236 0.0482 0.5651
vn 0.8247 0.0446 0.5638
vn 0.8634 0.0755 0.4989
vn -0.9825 -0.0249 0.1844
vn -0.8892 -0.0179 0.4572
vn -0.9853 -0.0178 -0.1696
vn -0.8758 -0.0545 -0.4796
vn -0.8852 -0.0554 -0.4619
vn -0.8891 -0.0889 -0.4489
vn -0.8731 -0.0828 -0.4805
vn 0.8607 -0.0521 0.5064
vn 0.8794 -0.0490 0.4735
vn 0.8938 -0.0508 0.4456
vn 0.8637 -0.0594 0.5005
vn 0.9883 0.0030 -0.1526
vn 0.8719 0.0112 0.4896
vn 0.8673 0.0112 0.4977
vn 0.8927 0.0049 0.4506
vn 0.8278 0.4083 0.3848
vn -0.0383 0.1418 0.9892
vn 0.8670 0.0636 -0.4942
vn -0.1203 0.9766 -0.1781
vn -0.0573 -0.9897 -0.1313
vn -0.0566 -0.9899 -0.1301
vn 0.8297 -0.0987 0.5495
vn -0.0819 -0.9806 -0.1778
vn -0.0824 -0.9804 -0.1787
vn 0.1353 -0.9705 0.1997
vn 0.8706 0.0928 0.4832
vn -0.8377 0.1438 0.5269
vn -0.8699 0.1064 -0.4816
vn 0.0891 -0.0240 -0.9957
vn 0.0823 -0.0228 -0.9963
vn 0.5254 0.0498 -0.8494
vn -0.0610 -0.0155 -0.9980
vn -0.0884 -0.0190 -0.9959
vn 0.0170 -0.9998 -0.0113
vn 0.4548 0.0734 0.8875
vn 0.8622 0.0027 -0.5065
vn -0.0035 -0.9987 -0.0512
vn 0.0044 -0.9993 -0.0380
vn 0.0005 -0.9993 -0.0368
vn 0.8396 -0.0522 0.5408
vn 0.8305 -0.0676 0.5529
vn 0.8468 -0.0394 0.5304
vn 0.8557 -0.0431 0.5157
vn 0.8654 -0.0473 0.4988
vn -0.8666 -0.0535 -0.4961
vn -0.8564 -0.0767 -0.5106
vn -0.8755 -0.0316 -0.4821
vn -0.8779 -0.0269 -0.4781
vn -0.8801 -0.0223 -0.4742
vn -0.9417 -0.0626 0.3307
vn -0.8505 -0.0579 0.5228
vn 0.0181 -0.0567 0.9982
vn -0.0179 -0.0599 0.9980
vn 0.0540 -0.0535 0.9971
vn 0.0300 -0.0531 0.9981
vn 0.0065 -0.0526 0.9986
vn -0.7846 -0.0348 0.6190
vn -0.8547 -0.0432 0.5173
vn 0.8539 -0.0507 -0.5180
vn 0.8055 -0.0510 -0.5904
vn 0.8936 -0.0500 -0.4462
vn 0.8788 -0.0470 -0.4748
vn 0.8627 -0.0438 -0.5038
vn 0.0484 -0.0410 -0.9980
vn 0.0727 -0.0423 -0.9965
vn 0.0240 -0.0397 -0.9989
vn 0.0224 -0.0534 -0.9983
vn 0.0209 -0.0662 -0.9976
vn -0.8509 -0.0496 0.5230
usemtl Steel_-_Satin.116
s 1
f 1/1/1 2/2/1 3/3/1 4/4/1
f 5/5/2 6/6/2 7/7/2 8/8/2
f 7/9/3 9/10/3 10/11/3 8/8/3
f 11/12/4 6/13/4 5/5/4 12/14/4
f 13/15/5 14/16/6 15/17/7 16/18/8 17/19/9
f 8/8/10 18/20/10 19/21/10 5/5/10
f 20/22/11 21/23/12 22/24/13 23/25/14
f 24/26/15 18/20/15 8/8/15 10/11/15
f 25/27/16 24/26/16 10/11/16 12/28/16
f 26/29/17 27/30/17 28/31/17 29/32/17
f 30/33/18 31/34/19 32/35/19 33/36/20
f 33/36/20 34/37/21 30/33/18
f 35/38/22 36/39/23 37/40/24 38/41/25
f 39/42/26 26/29/26 29/32/26 40/43/26
f 41/44/27 34/37/27 19/45/27 18/46/27
f 42/47/28 43/48/29 37/40/29 44/49/30
f 34/37/21 33/36/20 25/50/31 19/45/31
f 41/44/32 42/47/28 44/49/30
f 45/51/33 46/52/33 47/53/33 48/54/33
f 49/55/34 50/56/34 51/57/34 52/58/34
f 53/59/35 23/60/35 54/61/35 55/62/35
f 54/61/36 22/63/36 56/64/36 55/62/36
f 20/65/37 57/66/37 58/67/37 59/68/37
f 21/69/38 59/68/38 58/67/38 60/70/38
f 53/71/39 57/66/39 20/65/39 23/72/39
f 61/73/40 47/53/40 46/52/40 62/74/40
f 63/75/41 64/76/42 65/77/43 66/78/44
f 67/79/45 68/80/45 55/62/45 56/64/45
f 69/81/46 64/76/47 27/30/47 26/29/48
f 53/59/49 70/82/50 63/83/51
f 55/62/52 68/80/53 71/84/54
f 54/85/55 23/25/14 22/24/13
f 44/49/56 37/40/56 36/39/56 31/34/56 30/33/56
f 21/23/12 20/22/11 59/86/57
f 72/87/58 65/77/58 64/76/58 69/81/58
f 73/88/59 74/89/59 39/42/59 40/43/59
f 75/90/60 76/91/61 70/82/62
f 70/82/62 76/91/61 77/92/63
f 70/82/62 77/92/63 14/16/64
f 78/93/65 79/94/65 80/95/65 81/96/65
f 82/97/66 78/98/66 81/96/66 83/99/66
f 84/100/67 85/101/67 82/102/67 83/99/67
f 32/35/68 86/103/69 87/104/70 43/48/71
f 71/84/54 70/82/50 53/59/49 55/62/52
f 71/105/72 88/106/72 83/99/72 81/96/72
f 75/90/73 88/107/73 89/108/73 76/91/73
f 84/100/74 75/109/74 70/110/74 80/111/74
f 83/99/75 88/106/75 75/109/75 84/100/75
f 48/112/76 90/113/76 91/114/76 45/115/76
f 46/116/77 45/117/77 91/114/77 62/74/77
f 12/28/78 10/11/78 9/118/78 11/119/78
f 48/120/79 47/121/79 61/122/79 90/113/79
f 72/123/80 69/124/80 1/1/80 92/125/80
f 93/126/81 94/127/81 62/74/81 91/114/81
f 95/128/82 96/129/82 97/130/82 98/131/82
f 62/74/83 94/127/83 95/132/83 61/73/83
f 99/133/84 100/134/84 60/70/84 58/67/84
f 94/135/85 49/55/86 95/128/87
f 95/128/87 49/55/86 52/58/88
f 87/104/89 28/31/90 27/30/91 13/136/92 101/137/93
f 102/138/94 100/134/94 99/133/94 86/103/94 103/139/94
f 93/140/95 98/131/96 50/56/97
f 50/56/97 98/131/96 51/57/98
f 104/141/99 96/129/99 95/128/87 52/58/88
f 42/47/28 41/44/32 18/46/100 24/142/100
f 86/103/101 99/133/101 66/78/101 87/104/101
f 73/88/102 40/43/103 72/87/104
f 72/87/104 40/43/103 29/32/105
f 98/131/96 97/130/106 105/143/106 51/57/98
f 106/144/107 3/145/107 2/2/107 107/146/107
f 4/147/108 108/148/108 92/125/108 1/1/108
f 108/149/109 106/150/109 107/146/109 92/151/109
f 85/152/110 84/100/110 80/111/110 79/153/110
f 73/154/111 72/155/111 92/151/111 107/146/111
f 90/113/112 98/156/112 93/126/112 91/114/112
f 33/36/113 32/35/113 43/48/113 42/47/113
f 2/2/114 74/157/114 73/154/114 107/146/114
f 95/158/115 98/156/115 90/113/115 61/122/115
f 28/31/116 65/77/116 72/87/104 29/32/105
f 69/81/46 26/29/48 39/42/117
f 69/81/46 39/42/117 74/89/118
f 51/57/119 105/143/119 104/141/119 52/58/119
f 34/37/120 41/44/120 44/49/120 30/33/120
f 11/12/121 9/159/121 7/160/121 6/13/121
f 15/17/122 109/161/123 71/84/124
f 71/84/124 109/161/123 89/108/125
f 71/84/124 89/108/125 88/107/126
f 110/162/127 111/163/128 112/164/129 113/165/130
f 3/166/131 106/150/131 108/149/131 4/167/131
f 89/108/132 109/161/132 77/92/132 76/91/132
f 114/168/133 115/169/134 13/15/135 17/19/136
f 116/170/137 111/171/138 117/172/139 118/173/140
f 43/48/71 87/104/70 119/174/141 37/40/24
f 37/40/24 119/174/141 38/41/25
f 120/175/142 121/176/143 122/177/144 123/178/145
f 124/179/146 104/141/147 105/143/148 102/138/149 125/180/150
f 86/103/69 32/35/68 31/34/151 126/181/152
f 86/103/69 126/181/152 127/182/153
f 128/183/154 115/184/155 129/185/156 130/186/157
f 131/187/158 132/188/159 124/179/160 125/180/161
f 96/129/162 67/79/163 100/134/164 97/130/165
f 64/76/42 13/136/92 27/30/91
f 22/63/166 21/69/166 60/70/166 56/64/166
f 28/31/90 87/104/89 65/77/43
f 65/77/43 87/104/89 66/78/44
f 70/189/167 71/105/167 81/96/167 80/95/167
f 13/136/92 64/76/42 63/75/41
f 25/50/168 33/36/168 42/47/168 24/142/168
f 85/152/169 79/153/169 78/190/169 82/191/169
f 121/192/170 113/165/130 112/164/129 133/193/171
f 50/56/172 49/55/172 94/135/172 93/140/172
f 134/194/173 130/195/174 129/196/175
f 100/134/176 67/79/176 56/64/176 60/70/176
f 57/66/177 66/78/177 99/133/177 58/67/177
f 53/71/178 63/75/178 66/78/178 57/66/178
f 71/84/179 68/80/180 15/17/7
f 15/17/7 68/80/180 16/18/8
f 69/124/181 74/157/181 2/2/181 1/1/181
f 14/16/6 13/15/5 63/83/182
f 14/16/6 63/83/182 70/82/183
f 109/161/184 15/17/184 14/16/184 77/92/184
f 19/21/185 25/197/185 12/14/185 5/5/185
f 97/130/165 100/134/164 102/138/149
f 97/130/165 102/138/149 105/143/148
f 104/141/147 124/179/146 96/129/162
f 96/129/162 124/179/146 67/79/163
f 16/18/186 68/80/186 67/79/186 124/179/186 135/198/186
f 117/199/187 136/200/188 130/195/174 134/194/173
f 122/201/189 121/192/170 133/193/171
f 123/178/190 131/187/158 125/180/161 102/138/191
f 122/177/192 133/202/193 131/187/158 123/178/190
f 133/202/193 112/203/194 132/188/159 131/187/158
f 137/204/195 128/183/154 130/186/157 136/205/196
f 87/104/197 101/137/198 128/183/154 137/204/195
f 101/137/198 13/136/199 115/184/155 128/183/154
f 127/182/153 138/206/200 113/207/201
f 127/182/153 126/181/152 138/206/200
f 126/181/152 31/34/151 138/206/200
f 103/139/202 120/175/142 123/178/145 102/138/203
f 86/103/204 127/182/205 120/175/142 103/139/202
f 127/182/205 113/207/206 121/176/143 120/175/142
f 38/41/25 137/204/207 136/205/208
f 38/41/25 119/174/141 137/204/207
f 119/174/141 87/104/70 137/204/207
f 135/198/209 116/170/137 118/173/140 16/18/210
f 124/179/211 132/188/212 116/170/137 135/198/209
f 132/188/212 112/203/213 111/171/138 116/170/137
f 118/173/214 114/168/133 17/19/136 16/18/215
f 117/172/216 134/208/217 114/168/133 118/173/214
f 134/208/217 129/209/218 115/169/134 114/168/133
f 136/200/188 117/199/187 111/163/128 110/162/127
f 110/210/219 35/38/22 38/41/25 136/205/208
f 113/207/201 138/206/200 35/38/22 110/210/219
f 138/206/200 31/34/151 36/39/23 35/38/22
