# Blender v2.90.1 OBJ File: 'w1 EXPORT FILE.blend'
# www.blender.org
mtllib Cactus 1.mtl
o Cactus_1_v6
v -1.413473 2.699829 0.418880
v -1.581909 2.980363 0.413781
v -1.322076 2.698215 -0.326216
v -1.584632 2.979231 -0.283316
v -0.619141 2.507306 0.375712
v -0.601884 2.450557 -0.240946
v -1.079779 3.217248 -0.393977
v -1.761935 4.029719 -0.348011
v -1.014627 3.982545 -0.245592
v -0.503852 3.231201 -0.362808
v 0.542599 2.235405 -0.353277
v 0.526203 1.603108 -0.376523
v 1.043980 2.270882 -0.415162
v 1.477099 1.774635 -0.348186
v 1.716795 2.060309 -0.358925
v 1.767573 3.221295 -0.470938
v 1.119311 3.269058 -0.369217
v -0.349585 4.700135 -0.324131
v 0.313711 4.706141 -0.338987
v 0.374156 -0.593152 -0.331374
v -0.387290 -0.435909 -0.325488
v 1.669746 2.028648 0.335258
v 1.437656 1.817685 0.408756
v 1.801155 3.302452 0.286488
v -1.420256 4.188277 -0.032940
v -1.386171 4.206602 0.097922
v -1.098506 3.988338 0.403753
v -1.510514 4.163758 0.124095
v -1.716918 3.991111 0.365256
v 1.492097 3.473864 0.040669
v 1.383239 3.463315 -0.065744
v 1.300646 3.485452 0.008734
v 1.141928 3.377101 0.317144
v -0.082766 4.975139 -0.001734
v 0.154559 4.922048 -0.086276
v 0.115563 4.939103 0.046608
v 0.384287 4.635891 0.322404
v -0.336071 4.733948 0.436241
v -0.452699 3.140180 0.432455
v -1.008126 3.158167 0.366065
v 1.173793 2.398983 0.411657
v -0.383788 -0.544583 0.390938
v 0.539753 1.496577 0.442492
v 0.469031 2.369442 0.359420
v 0.479156 -0.565073 0.440391
vt 0.411347 0.200213
vt 0.428303 0.190884
vt 0.424541 0.206484
vt 0.414368 0.212082
vt 0.393499 0.198436
vt 0.390910 0.188262
vt 0.402779 0.181732
vt 0.405368 0.191905
vt 0.440811 0.217249
vt 0.428942 0.223779
vt 0.434166 0.191137
vt 0.428424 0.221744
vt 0.434221 0.205024
vt 0.438567 0.208432
vt 0.392818 0.241335
vt 0.396356 0.255239
vt 0.384487 0.261769
vt 0.379223 0.241083
vt 0.415230 0.215473
vt 0.418251 0.227342
vt 0.399108 0.220478
vt 0.396088 0.208609
vt 0.402991 0.235738
vt 0.380980 0.234317
vt 0.399971 0.223869
vt 0.379132 0.217938
vt 0.388935 0.226075
vt 0.374822 0.223788
vt 0.424809 0.253114
vt 0.409549 0.261510
vt 0.387027 0.173002
vt 0.402287 0.164606
vt 0.384268 0.173554
vt 0.389355 0.170755
vt 0.389786 0.172451
vt 0.391428 0.190297
vt 0.387027 0.173002
vt 0.398896 0.166472
vt 0.403297 0.183767
vt 0.366164 0.187863
vt 0.371437 0.178199
vt 0.378033 0.181332
vt 0.384601 0.176754
vt 0.389239 0.168403
vt 0.385032 0.178449
vt 0.392259 0.180272
vt 0.380576 0.179933
vt 0.378880 0.180866
vt 0.384153 0.171202
vt 0.372284 0.177733
vt 0.385572 0.180568
vt 0.382551 0.168700
vt 0.390209 0.172218
vt 0.389778 0.170522
vt 0.386395 0.174316
vt 0.385964 0.172621
vt 0.387659 0.171688
vt 0.386395 0.174316
vt 0.385964 0.172621
vt 0.387659 0.171688
vt 0.383846 0.173786
vt 0.388483 0.165436
vt 0.384277 0.175482
vt 0.391504 0.177305
vt 0.404314 0.166872
vt 0.402618 0.167805
vt 0.407891 0.158142
vt 0.396022 0.164672
vt 0.389023 0.167555
vt 0.389454 0.169251
vt 0.381796 0.165732
vt 0.384817 0.177601
vt 0.401770 0.168272
vt 0.389901 0.174802
vt 0.395174 0.165139
vt 0.409549 0.261510
vt 0.402991 0.235738
vt 0.414860 0.229207
vt 0.421418 0.254980
vt 0.379914 0.173535
vt 0.385001 0.170736
vt 0.376337 0.182265
vt 0.391597 0.173869
vt 0.384601 0.176754
vt 0.389239 0.168403
vt 0.385032 0.178449
vt 0.392259 0.180272
vt 0.394141 0.172470
vt 0.389054 0.175269
vt 0.397718 0.163739
vt 0.382458 0.172135
vt 0.384817 0.177601
vt 0.381796 0.165732
vt 0.389454 0.169251
vt 0.409549 0.261510
vt 0.399108 0.220478
vt 0.410977 0.213948
vt 0.421418 0.254980
vt 0.405355 0.156153
vt 0.408375 0.168022
vt 0.387690 0.179403
vt 0.384669 0.167534
vt 0.395743 0.207252
vt 0.390910 0.188262
vt 0.402779 0.181732
vt 0.407611 0.200722
vt 0.387729 0.162469
vt 0.390749 0.174338
vt 0.384817 0.177601
vt 0.381796 0.165732
vt 0.387027 0.173002
vt 0.424809 0.253114
vt 0.409549 0.261510
vt 0.402287 0.164606
vt 0.443831 0.229117
vt 0.431962 0.235648
vt 0.393335 0.243370
vt 0.381467 0.249900
vt 0.393147 0.162870
vt 0.396167 0.174739
vt 0.380907 0.183135
vt 0.377887 0.171266
vt 0.389616 0.183176
vt 0.387027 0.173002
vt 0.398896 0.166472
vt 0.401485 0.176645
vt 0.391342 0.189958
vt 0.387027 0.173002
vt 0.398896 0.166472
vt 0.403211 0.183428
vt 0.396088 0.208609
vt 0.387027 0.173002
vt 0.398896 0.166472
vt 0.407956 0.202079
vt 0.365308 0.191717
vt 0.362288 0.179849
vt 0.388400 0.165482
vt 0.391420 0.177351
vt 0.399971 0.223869
vt 0.387027 0.173002
vt 0.398896 0.166472
vt 0.411840 0.217339
vt 0.389239 0.168403
vt 0.392259 0.180272
vt 0.386327 0.183536
vt 0.383307 0.171667
vt 0.390565 0.186906
vt 0.387027 0.173002
vt 0.398896 0.166472
vt 0.402434 0.180376
vn 0.0013 0.0050 1.0000
vn -0.0176 -0.0583 0.9981
vn -0.0063 0.0410 0.9991
vn 0.0348 0.0164 0.9993
vn 0.0352 0.9983 0.0468
vn 0.0301 0.9984 0.0479
vn 0.0327 0.9985 0.0450
vn 0.0315 0.9983 0.0488
vn 0.0095 0.0867 0.9962
vn 0.0140 0.0827 0.9965
vn -0.0307 -0.0137 0.9994
vn -0.0286 -0.0379 -0.9989
vn -0.0625 -0.0495 -0.9968
vn -0.0616 -0.0028 -0.9981
vn -0.0095 0.0073 0.9999
vn -0.0251 0.0483 0.9985
vn -0.0300 0.0484 0.9984
vn -0.0293 0.0199 0.9994
vn -0.0254 -0.0422 -0.9988
vn -0.0136 -0.0350 -0.9993
vn -0.0233 -0.0132 -0.9996
vn -0.0355 0.0021 -0.9994
vn 0.0464 -0.0175 0.9988
vn -0.0282 -0.0026 0.9996
vn 0.0235 -0.0227 0.9995
vn 0.0452 -0.0456 -0.9979
vn 0.0032 -0.0254 -0.9997
vn 0.0496 -0.0227 -0.9985
vn -0.0310 0.0163 -0.9994
vn -0.0162 0.0079 -0.9998
vn -0.0069 -0.0108 -0.9999
vn -0.0187 -0.0064 -0.9998
vn 0.0415 0.9916 -0.1223
vn 0.0474 0.9894 -0.1370
vn 0.0372 0.9935 -0.1074
vn -0.9993 0.0304 0.0238
vn -0.9994 0.0293 0.0198
vn -0.9995 0.0198 0.0234
vn -0.9995 0.0251 0.0193
vn -0.3834 0.7722 -0.5066
vn -0.4367 0.8996 -0.0086
vn 0.0614 0.8387 -0.5412
vn 0.1888 0.9621 0.1969
vn 0.4797 0.8774 -0.0038
vn 0.4547 0.8903 -0.0248
vn 0.4905 0.8714 -0.0095
vn -0.1681 0.7193 0.6740
vn -0.0674 0.8104 0.5820
vn -0.0380 0.8309 0.5551
vn 0.0103 0.8598 0.5105
vn -0.5376 0.8431 0.0087
vn -0.5605 0.8270 0.0448
vn -0.2957 0.9552 -0.0082
vn -0.2900 0.9569 -0.0161
vn -0.2927 0.9561 -0.0120
vn -0.7824 0.6228 0.0026
vn -0.5856 0.6875 0.4296
vn -0.2682 0.7025 0.6592
vn 0.6772 0.6956 -0.2399
vn 0.5308 0.8455 -0.0584
vn 0.5681 0.8209 -0.0580
vn 0.5363 0.8422 -0.0554
vn 0.5382 0.5375 -0.6492
vn 0.0847 0.8957 0.4364
vn 0.0013 0.8603 0.5098
vn 0.0122 0.8695 0.4938
vn -0.9151 -0.1739 -0.3637
vn -0.5953 0.8011 -0.0621
vn -0.6266 0.7722 -0.1046
vn -0.3740 0.9265 -0.0429
vn 0.0093 0.8528 -0.5222
vn -0.9978 0.0589 0.0304
vn -0.9979 0.0583 0.0288
vn -0.9978 0.0595 0.0293
vn -0.9979 0.0574 0.0305
vn -0.0838 0.8571 -0.5082
vn -0.0139 0.7862 -0.6179
vn -0.0406 0.8023 -0.5955
vn 0.0101 0.7485 -0.6631
vn 0.7674 0.6276 -0.1313
vn 0.7687 0.6368 -0.0604
vn 0.7834 0.6157 -0.0843
vn 0.7691 0.6367 -0.0555
vn -0.0425 0.7032 0.7098
vn -0.1241 0.7193 0.6835
vn 0.0420 0.7379 0.6736
vn -0.5331 0.6993 0.4762
vn -0.6361 0.7703 0.0452
vn 0.9977 0.0624 -0.0254
vn 0.9978 0.0614 -0.0248
vn 0.9978 0.0615 -0.0252
vn 0.9978 0.0620 -0.0250
vn -0.9844 -0.1689 -0.0498
vn -0.9833 -0.1745 -0.0516
vn -0.9827 -0.1793 -0.0462
vn -0.9816 -0.1850 -0.0473
vn -0.2969 -0.9523 -0.0710
vn -0.2986 -0.9514 -0.0756
vn -0.2977 -0.9520 -0.0707
vn -0.2965 -0.9520 -0.0758
vn -0.8406 -0.5400 -0.0424
vn -0.8474 -0.5296 -0.0379
vn -0.8399 -0.5423 -0.0233
vn -0.8478 -0.5294 -0.0309
vn -0.0354 -0.0100 0.9993
vn 0.0747 0.0186 0.9970
vn 0.0717 0.0231 0.9972
vn -0.0466 -0.0046 0.9989
vn 0.0117 -0.0160 -0.9998
vn -0.0006 -0.0145 -0.9999
vn -0.0010 -0.0017 -1.0000
vn 0.0036 0.0031 -1.0000
vn -0.0711 -0.9974 -0.0103
vn -0.0717 -0.9973 -0.0129
vn -0.0663 -0.9977 -0.0159
vn -0.0697 -0.9975 -0.0147
vn 0.0324 0.9975 -0.0622
vn 0.0346 0.9978 -0.0559
vn 0.0193 0.9984 -0.0522
vn 0.0280 0.9983 -0.0508
vn 0.2523 -0.9666 -0.0451
vn 0.2523 -0.9665 -0.0464
vn 0.2527 -0.9665 -0.0453
vn 0.2520 -0.9666 -0.0463
vn 0.9981 -0.0256 -0.0561
vn 0.9981 -0.0226 -0.0566
vn 0.9980 -0.0241 -0.0582
vn 0.9982 -0.0247 -0.0541
vn 0.9991 -0.0392 -0.0143
vn 0.9991 -0.0389 -0.0143
vn 0.9992 -0.0383 -0.0132
vn 0.9991 -0.0389 -0.0144
vn -0.9984 -0.0436 -0.0357
vn -0.9984 -0.0437 -0.0353
vn -0.9985 -0.0432 -0.0351
vn -0.9984 -0.0438 -0.0355
vn 0.6273 -0.7787 0.0115
vn 0.6216 -0.7832 0.0103
vn 0.6277 -0.7784 0.0088
vn 0.6228 -0.7824 0.0036
vn 1.0000 -0.0055 0.0083
vn 1.0000 -0.0057 0.0070
vn 1.0000 -0.0054 0.0061
vn 1.0000 -0.0056 0.0054
usemtl Steel_-_Satin.009
s 1
f 43/1/1 23/2/2 41/3/3 44/4/4
f 40/5/5 39/6/6 10/7/7 7/8/8
f 24/9/9 33/10/10 41/3/3 22/11/11
f 7/12/12 3/13/13 4/14/14
f 40/15/15 27/16/16 29/17/17 2/18/18
f 6/19/19 10/20/20 11/21/21
f 6/19/19 11/21/21 12/22/22
f 39/23/23 40/15/15 1/24/24 5/25/25
f 14/26/26 13/27/27 15/28/28
f 18/29/29 19/30/30 10/20/20
f 10/20/20 19/30/30 11/21/21
f 20/31/31 21/32/32 12/22/22
f 12/22/22 21/32/32 6/19/19
f 34/33/33 36/34/34 35/35/35
f 17/36/36 13/37/37 41/38/38 33/39/39
f 8/40/40 25/41/41 9/42/42
f 26/43/43 27/44/44 25/45/45
f 25/45/45 27/44/44 9/46/46
f 26/47/47 28/48/48 27/49/49
f 27/49/49 28/48/48 29/50/50
f 8/51/40 29/52/51 25/53/41
f 25/53/41 29/52/51 28/54/52
f 25/55/53 28/56/54 26/57/55
f 31/58/56 32/59/57 30/60/58
f 30/61/59 24/62/60 31/63/61
f 31/63/61 24/62/60 16/64/62
f 30/65/63 32/66/64 24/67/65
f 24/67/65 32/66/64 33/68/66
f 32/69/67 31/70/68 33/71/69
f 33/71/69 31/70/68 17/72/70
f 16/73/71 17/74/70 31/75/68
f 18/76/72 10/77/73 39/78/74 38/79/75
f 34/80/76 35/81/77 18/82/78
f 18/82/78 35/81/77 19/83/79
f 36/84/80 37/85/81 35/86/82
f 35/86/82 37/85/81 19/87/83
f 36/88/84 34/89/85 37/90/86
f 37/90/86 34/89/85 38/91/87
f 18/92/88 38/93/87 34/94/85
f 37/95/89 44/96/90 11/97/91 19/98/92
f 29/99/93 8/100/94 4/101/95 2/102/96
f 3/103/97 6/104/98 5/105/99 1/106/100
f 2/107/101 4/108/102 3/109/103 1/110/104
f 13/27/27 14/26/26 12/22/22 11/21/21
f 40/15/15 2/18/18 1/24/24
f 7/12/12 10/20/20 6/19/19 3/13/13
f 42/111/105 43/1/1 5/25/25
f 5/25/25 43/1/1 44/4/4
f 5/25/25 44/4/4 39/23/23
f 39/23/23 44/4/4 37/112/106
f 39/23/23 37/112/106 38/113/107
f 42/111/105 45/114/108 43/1/1
f 8/115/109 9/116/110 7/12/12 4/14/14
f 41/3/3 23/2/2 22/11/11
f 13/27/27 17/117/111 16/118/112 15/28/28
f 42/119/113 21/120/114 20/121/115 45/122/116
f 13/123/117 11/124/118 44/125/119 41/126/120
f 23/127/121 43/128/122 12/129/123 14/130/124
f 43/131/125 45/132/126 20/133/127 12/134/128
f 16/135/129 24/136/130 22/137/131 15/138/132
f 6/139/133 21/140/134 42/141/135 5/142/136
f 23/143/137 14/144/138 15/145/139 22/146/140
f 27/147/141 40/148/142 7/149/143 9/150/144
