# Blender v2.93.0 OBJ File: 'w1 EXPORT FILE extra.blend'
# www.blender.org
mtllib Cactus 3.mtl
g Cactus_3.003_cactus_big.003
v -1.092254 5.345573 1.060817
v -1.268601 5.665233 1.029182
v -1.690448 5.267937 1.400865
v -1.735155 5.757617 1.251736
v -1.564438 5.763997 0.574621
v -1.503744 5.318220 0.470239
v -2.120133 5.314635 0.741028
v -1.945983 5.716059 0.843272
v -1.010119 4.627386 1.093851
v -1.423027 4.652341 0.353406
v -1.696381 4.533298 1.442201
v -2.109151 4.602331 0.750324
v -1.403697 4.142212 0.346500
v -0.993767 4.132579 1.041462
v -1.706525 4.132864 1.424057
v -0.966118 3.304225 0.974197
v -0.653101 4.112872 0.809196
v -0.596646 3.346808 0.832583
v -2.129010 4.119454 0.762571
v -1.403485 3.306447 0.337204
v -1.002010 3.387507 0.139764
v -1.107578 4.177142 0.093455
v -0.353348 10.008584 0.623506
v -0.674358 9.994647 -0.025402
v -0.453026 9.346530 0.886391
v -1.013701 9.399027 0.009813
v 0.506918 9.404187 -0.869770
v -0.549722 9.383081 -0.836064
v 0.338874 9.995889 -0.579085
v -0.316408 9.984332 -0.608705
v 1.009369 9.402725 0.001236
v 0.663505 9.963576 -0.007006
v 0.533452 9.414588 0.822928
v 0.387347 10.039059 0.625214
v -0.582202 8.388210 0.979344
v -1.145850 8.424383 0.013399
v -0.572850 8.392080 -1.008364
v 0.359600 8.392886 -1.016118
v -0.403631 8.371819 -1.019845
v 0.577243 8.400015 -0.999979
v -0.324918 8.046041 -1.760576
v 0.400663 7.999021 -1.799999
v -0.375432 7.369433 -1.255762
v 0.450545 7.436474 -1.190093
v -0.301867 8.368646 -1.780409
v 0.349469 8.393798 -1.768486
v -0.439321 7.422409 -1.002365
v 0.264899 8.684118 -1.730287
v -0.231564 8.702254 -1.752072
v 0.290736 8.995589 -1.617569
v -0.212474 8.959057 -1.623926
v -0.249112 9.016173 -1.108713
v -0.339247 8.666009 -1.073753
v 0.264102 8.695926 -1.037867
v 0.241375 9.069317 -1.164998
v 2.456451 5.951940 0.924375
v 1.648902 5.990578 0.407552
v 2.246084 6.513574 0.931031
v 1.691827 6.501181 0.584605
v 1.931093 6.476473 1.476052
v 1.352863 6.460128 1.149609
v 2.037547 6.024572 1.747813
v 1.218674 6.001384 1.211892
v 2.027278 5.503405 1.681837
v 2.554876 5.475374 0.882640
v 1.101861 5.526901 1.225477
v 1.639337 5.514120 0.360921
v 2.526824 5.140004 0.854467
v 1.993948 4.526763 0.589298
v 1.152107 4.544606 0.064310
v 1.146918 5.530565 0.040888
v 2.002842 5.057559 1.677714
v 1.508718 4.514279 1.436468
v 0.623227 4.471672 0.940572
v 0.591718 5.491777 0.954873
v -2.109710 5.858070 -0.754892
v -1.745023 5.802125 -1.447240
v -1.609644 5.228299 -0.396648
v -1.218599 5.172853 -1.137281
v -2.098478 6.031387 -0.739008
v -1.692506 5.944983 -1.470129
v -1.408471 5.998242 -0.347862
v -0.997390 5.230688 -0.135240
v -1.058229 6.003924 -0.151226
v -1.454431 6.576285 -0.426530
v -1.537082 6.966714 -0.561431
v -2.053920 6.624848 -0.794955
v -1.834665 6.940066 -0.803011
v -1.222170 6.981613 -0.977282
v -1.032407 6.625605 -1.025940
v -1.656307 6.993481 -1.222803
v -1.674696 6.668494 -1.406907
v -1.009748 6.013240 -1.040944
v -0.683623 5.200813 -0.858126
v -0.664187 6.021220 -0.848721
v 0.399966 7.377358 -0.992846
v -0.920473 -0.054680 -0.008323
v -1.174196 4.376100 -0.008031
v -0.476282 -0.021304 -0.765905
v -0.570472 4.412979 -1.072989
v 0.557892 4.361004 1.027387
v -0.535294 4.367772 1.031496
v 0.448148 -0.009612 0.804760
v -0.418620 0.020663 0.786577
v 1.135399 4.401992 -0.005611
v 0.926352 0.036475 -0.016932
v 0.562132 4.371710 -0.957845
v 0.459588 -0.001114 -0.797667
v 0.572688 8.400729 0.986072
v 1.128809 8.378460 -0.029923
v -0.779468 3.347501 0.456478
v -0.639263 0.024670 -0.383333
v -1.048126 2.201105 0.005375
v -0.542774 2.171766 -0.943994
v -0.859878 4.371629 -0.486851
v 0.529131 2.150916 0.873889
v 0.008379 4.404693 0.995213
v -0.009922 -0.009225 0.789630
v -0.563633 2.180113 0.904787
v -1.086055 3.876620 0.056395
v -0.979368 1.691208 0.066593
v -0.702495 -0.019366 0.384229
v -0.600706 3.878930 0.908480
v -0.547450 1.682634 0.813538
v 0.899840 4.400642 0.562459
v 1.052702 2.199274 0.024607
v 0.701354 0.001426 0.427362
v 0.501392 2.207453 -0.881106
v 0.910378 4.433723 -0.492052
v 0.687857 -0.011323 -0.407517
v 0.063993 4.354054 -0.997854
v -0.031177 0.020470 -0.801915
v 0.802987 2.230723 0.403280
v -0.827620 2.190741 -0.476825
v -0.003171 2.202049 0.896275
v 0.785813 2.200654 -0.448139
v 0.010048 2.216055 -0.896926
v -0.752170 1.689097 0.420262
vt 0.584546 0.237531
vt 0.584617 0.216079
vt 0.585020 0.221236
vt 0.584971 0.234677
vt 0.584495 0.194705
vt 0.585000 0.197930
vt 0.585001 0.211305
vt 0.584617 0.216079
vt 0.585020 0.221236
vt 0.584971 0.234677
vt 0.584546 0.237531
vt 0.584991 0.176934
vt 0.584921 0.190569
vt 0.584570 0.173074
vt 0.410029 0.159015
vt 0.410053 0.159089
vt 0.410053 0.159384
vt 0.410029 0.159400
vt 0.410029 0.159210
vt 0.584299 0.216080
vt 0.584251 0.194521
vt 0.612850 0.153784
vt 0.624674 0.163822
vt 0.620733 0.173859
vt 0.608909 0.163822
vt 0.584272 0.237582
vt 0.584297 0.257666
vt 0.584643 0.257744
vt 0.410064 0.161323
vt 0.410056 0.161487
vt 0.410056 0.161175
vt 0.410064 0.161269
vt 0.410005 0.160793
vt 0.410001 0.160699
vt 0.410021 0.160705
vt 0.410017 0.160790
vt 0.410005 0.160851
vt 0.408537 0.160830
vt 0.410001 0.160848
vt 0.410001 0.160990
vt 0.408537 0.160985
vt 0.410080 0.161303
vt 0.410080 0.161285
vt 0.410005 0.160855
vt 0.410009 0.160851
vt 0.410009 0.160853
vt 0.410017 0.160905
vt 0.410021 0.161010
vt 0.410005 0.160909
vt 0.410009 0.160851
vt 0.585478 0.190628
vt 0.584921 0.190569
vt 0.584991 0.176934
vt 0.585488 0.176978
vt 0.410053 0.160026
vt 0.410053 0.160039
vt 0.410041 0.160048
vt 0.410041 0.160017
vt 0.585323 0.159109
vt 0.586139 0.159306
vt 0.586139 0.159583
vt 0.585323 0.159498
vt 0.586139 0.159885
vt 0.585323 0.159856
vt 0.586139 0.160853
vt 0.585323 0.160948
vt 0.585323 0.160577
vt 0.586139 0.160529
vt 0.586139 0.160200
vt 0.585323 0.160205
vt 0.585323 0.161326
vt 0.586139 0.161129
vt 0.584570 0.173074
vt 0.584495 0.194705
vt 0.583913 0.161360
vt 0.410080 0.161403
vt 0.410080 0.161107
vt 0.583913 0.160952
vt 0.583913 0.159845
vt 0.583913 0.159469
vt 0.410068 0.161342
vt 0.583913 0.159080
vt 0.583913 0.159015
vt 0.583913 0.159414
vt 0.612851 0.173859
vt 0.620733 0.153784
vt 0.410068 0.161236
vt 0.410084 0.161286
vt 0.410084 0.161300
vt 0.410065 0.159227
vt 0.410069 0.159216
vt 0.410061 0.159145
vt 0.585025 0.241284
vt 0.584972 0.254312
vt 0.584643 0.257744
vt 0.584546 0.237531
vt 0.585020 0.221236
vt 0.584971 0.234677
vt 0.584617 0.216079
vt 0.584495 0.194705
vt 0.585000 0.197930
vt 0.585001 0.211305
vt 0.410029 0.160650
vt 0.410029 0.161073
vt 0.584272 0.237582
vt 0.584299 0.216080
vt 0.410065 0.159267
vt 0.410069 0.159279
vt 0.584251 0.194521
vt 0.584314 0.173094
vt 0.584570 0.173074
vt 0.584971 0.234677
vt 0.584546 0.237531
vt 0.584617 0.216079
vt 0.585020 0.221236
vt 0.585000 0.197930
vt 0.585001 0.211305
vt 0.585025 0.241284
vt 0.584972 0.254312
vt 0.585025 0.241284
vt 0.584972 0.254312
vt 0.584643 0.257744
vt 0.584297 0.257666
vt 0.584272 0.237582
vt 0.584643 0.257744
vt 0.584299 0.216080
vt 0.584251 0.194521
vt 0.410053 0.159992
vt 0.410061 0.159858
vt 0.410061 0.160160
vt 0.410053 0.160076
vt 0.584314 0.173094
vt 0.583913 0.160562
vt 0.583913 0.160183
vt 0.410053 0.160029
vt 0.410029 0.161519
vt 0.410029 0.161291
vt 0.410029 0.160241
vt 0.410029 0.160444
vt 0.410053 0.160038
vt 0.410033 0.159850
vt 0.410009 0.160855
vt 0.410033 0.160214
vt 0.585000 0.197930
vt 0.585001 0.211305
vt 0.584495 0.194705
vt 0.585025 0.241284
vt 0.584972 0.254312
vt 0.584991 0.176934
vt 0.584921 0.190569
vt 0.584570 0.173074
vt 0.584921 0.190569
vt 0.584991 0.176934
vt 0.584251 0.194521
vt 0.584314 0.173094
vt 0.584272 0.237582
vt 0.584299 0.216080
vt 0.584297 0.257666
vt 0.585488 0.176978
vt 0.585478 0.190628
vt 0.410061 0.159330
vt 0.617072 0.173208
vt 0.617072 0.154491
vt 0.620747 0.154491
vt 0.620747 0.173208
vt 0.585478 0.190628
vt 0.585488 0.176978
vt 0.408537 0.159277
vt 0.408537 0.159082
vt 0.408537 0.159666
vt 0.407120 0.159672
vt 0.407120 0.159477
vt 0.408537 0.159472
vt 0.410013 0.161032
vt 0.408537 0.160443
vt 0.407120 0.160456
vt 0.407120 0.160260
vt 0.408537 0.160250
vt 0.410029 0.159824
vt 0.410029 0.160035
vt 0.410017 0.160674
vt 0.408537 0.160637
vt 0.408537 0.161213
vt 0.408537 0.161412
vt 0.407120 0.161398
vt 0.407120 0.161209
vt 0.408537 0.160055
vt 0.408537 0.159861
vt 0.584297 0.257666
vt 0.585488 0.176978
vt 0.585478 0.190628
vt 0.622584 0.168529
vt 0.622584 0.159170
vt 0.611560 0.159170
vt 0.611560 0.168529
vt 0.609723 0.163850
vt 0.584314 0.173094
vt 0.410029 0.159613
vt 0.613397 0.154491
vt 0.613397 0.173208
vt 0.624421 0.163849
vt 0.407120 0.160063
vt 0.407120 0.159867
vt 0.408537 0.161014
vt 0.407120 0.161020
vt 0.408537 0.160675
vt 0.407120 0.160653
vt 0.407120 0.159283
vt 0.407120 0.159089
vt 0.407120 0.160837
vn 0.4780 0.3894 -0.7873
vn -0.8476 0.1499 0.5089
vn -0.4688 0.2681 -0.8417
vn 0.4476 0.3096 0.8389
vn 0.0662 0.0045 -0.9978
vn 0.1205 0.0110 -0.9927
vn 0.0380 -0.0058 -0.9993
vn 0.0620 0.0037 -0.9981
vn 0.0636 0.0042 -0.9980
vn -0.8480 0.0156 0.5298
vn 0.0068 0.9991 -0.0430
vn 0.0060 0.9991 -0.0422
vn 0.0138 0.9995 -0.0292
vn 0.0131 0.9995 -0.0273
vn -0.4571 0.0389 -0.8886
vn 0.8427 0.1308 -0.5222
vn -0.0008 -0.9983 0.0578
vn 0.4681 -0.0180 0.8835
vn 0.4659 0.0002 0.8849
vn 0.4682 -0.0415 0.8826
vn 0.4677 -0.0628 0.8816
vn -0.8586 -0.0392 0.5111
vn -0.8627 -0.0293 0.5048
vn -0.8162 -0.0363 0.5766
vn -0.8452 -0.0437 0.5327
vn -0.6587 -0.6928 -0.2935
vn -0.8502 0.0254 0.5258
vn -0.5115 -0.0171 -0.8591
vn -0.5353 -0.0540 -0.8429
vn -0.5221 -0.0310 -0.8523
vn 0.4655 -0.0663 0.8825
vn -0.4986 0.0004 -0.8669
vn -0.0497 0.9979 0.0410
vn 0.6254 -0.7033 0.3379
vn -0.0098 0.3988 -0.9170
vn 0.7778 0.4535 -0.4352
vn -0.7936 0.3881 0.4685
vn 0.0144 0.3375 0.9412
vn -0.7737 0.4429 -0.4531
vn 0.5250 0.2227 -0.8214
vn -0.8737 0.0015 -0.4865
vn -0.8923 0.0052 -0.4514
vn -0.8310 0.0041 -0.5563
vn -0.8694 0.0016 -0.4941
vn 0.8622 0.1198 -0.4921
vn 0.4821 -0.0304 -0.8756
vn 0.4722 -0.0088 -0.8814
vn 0.4795 -0.0145 -0.8774
vn -0.0227 0.1622 -0.9865
vn -0.0314 0.1659 -0.9856
vn -0.0461 0.1722 -0.9840
vn -0.0083 0.1575 -0.9875
vn 0.0690 0.1330 -0.9887
vn 0.0194 0.1488 -0.9887
vn -0.0207 0.9975 0.0681
vn 0.0875 -0.9921 -0.0895
vn -0.0411 0.9992 -0.0011
vn -0.0247 0.9997 0.0091
vn -0.8607 0.1629 -0.4823
vn -0.9892 0.0625 -0.1326
vn -0.9926 0.0281 -0.1178
vn -0.9906 0.0192 -0.1354
vn -0.9821 0.0165 -0.1875
vn -0.9676 0.0318 -0.2506
vn 0.0016 0.2185 0.9758
vn 0.9990 -0.0036 0.0440
vn 0.0188 0.3889 -0.9211
vn -0.8806 -0.0356 0.4724
vn -0.8700 -0.0351 0.4919
vn -0.8594 -0.0592 0.5078
vn -0.8986 -0.0810 0.4313
vn 0.9568 0.2906 -0.0084
vn -0.0197 0.0155 -0.9997
vn -0.9697 0.2025 -0.1365
vn 0.0285 0.1066 -0.9939
vn -0.5056 0.3107 0.8049
vn 0.8227 0.3700 0.4316
vn 0.8000 0.2973 -0.5211
vn -0.8540 0.2123 -0.4750
vn 0.8399 0.0771 0.5372
vn 0.8642 0.0221 0.5027
vn -0.0200 0.9998 0.0023
vn 0.5162 0.1267 -0.8470
vn 0.0215 0.1278 0.9916
vn 0.4959 0.0314 -0.8678
vn 0.4865 0.0016 -0.8737
vn 0.5157 -0.0119 -0.8567
vn 0.5050 -0.0216 -0.8628
vn -0.8567 0.0222 -0.5154
vn -0.6255 -0.0210 -0.7800
vn -0.8616 0.0280 -0.5069
vn -0.8862 0.0282 -0.4625
vn -0.8887 0.0307 -0.4575
vn -0.0012 0.0075 1.0000
vn -0.4419 0.0159 0.8969
vn -0.4673 -0.0080 0.8841
vn -0.4437 0.0117 0.8961
vn -0.4629 -0.0054 0.8864
vn 0.5348 -0.0103 -0.8449
vn -0.4989 -0.0044 -0.8666
vn -0.8576 -0.0000 0.5143
vn -0.4943 -0.0475 0.8680
vn -0.5030 0.0070 0.8642
vn -0.4645 0.0369 0.8848
vn -0.4667 0.0462 0.8832
vn -0.4805 -0.0188 0.8768
vn -0.8166 0.4138 -0.4024
vn 0.7509 0.3395 0.5665
vn -0.5376 0.2662 0.8001
vn -0.9735 0.1938 -0.1211
vn -0.5005 0.0982 0.8602
vn -0.4944 0.0174 0.8691
vn 0.0109 0.9989 0.0456
vn -0.8619 0.0436 -0.5053
vn -0.8568 0.1312 -0.4987
vn -0.4298 0.0199 0.9027
vn 0.5145 -0.1770 -0.8390
vn 0.5269 -0.3199 -0.7874
vn 0.0323 -0.9990 -0.0305
vn -0.5755 -0.7203 0.3873
vn 0.0676 0.9974 0.0264
vn 0.9644 0.0443 0.2606
vn 0.9842 0.0635 0.1655
vn 0.9946 0.0982 0.0332
vn 0.9939 0.1102 -0.0033
vn 0.9915 0.1296 -0.0132
vn 0.0414 -0.9982 0.0442
vn 0.0418 -0.9981 0.0455
vn 0.0240 -0.9994 0.0233
vn 0.0256 -0.9993 0.0264
vn -0.0534 0.9973 0.0500
vn 0.0212 -0.6686 -0.7433
vn 0.0498 -0.0495 -0.9975
vn 0.0576 -0.0576 -0.9967
vn 0.1016 -0.0528 -0.9934
vn 0.0793 -0.0478 -0.9957
vn 0.8553 -0.0463 -0.5161
vn 0.8553 -0.0429 -0.5164
vn 0.8477 -0.0416 -0.5289
vn 0.8329 -0.0460 -0.5515
vn -0.8442 -0.0747 0.5307
vn 0.0099 -0.0503 0.9987
vn 0.0052 -0.0456 0.9989
vn 0.0052 -0.0403 0.9992
vn -0.0040 -0.0482 0.9988
vn 0.9495 0.0472 0.3103
vn 0.9970 0.0270 0.0720
vn 0.8294 0.0395 0.5573
vn 0.8324 0.0379 0.5529
vn 0.8641 0.0622 0.4995
vn -0.9620 -0.0302 0.2713
vn -0.8851 -0.0234 0.4649
vn -0.9991 -0.0241 -0.0337
vn -0.8737 -0.0528 -0.4835
vn -0.8812 -0.0534 -0.4697
vn -0.8843 -0.0804 -0.4599
vn -0.8715 -0.0754 -0.4845
vn 0.8613 -0.0506 0.5055
vn 0.8767 -0.0484 0.4786
vn 0.8882 -0.0499 0.4568
vn 0.8637 -0.0565 0.5008
vn 0.9999 0.0034 0.0108
vn 0.8707 0.0089 0.4917
vn 0.8670 0.0089 0.4981
vn 0.8868 0.0041 0.4621
vn 0.8200 0.4098 0.3996
vn -0.0334 0.1239 0.9917
vn 0.8666 0.0600 -0.4953
vn -0.0960 0.9852 -0.1417
vn -0.0469 -0.9932 -0.1064
vn -0.0464 -0.9933 -0.1056
vn 0.8378 -0.0786 0.5404
vn -0.0651 -0.9877 -0.1422
vn -0.0655 -0.9875 -0.1430
vn 0.1052 -0.9810 0.1627
vn 0.8684 0.0991 0.4859
vn -0.8422 0.1399 0.5207
vn -0.8677 0.1101 -0.4846
vn 0.0746 -0.0199 -0.9970
vn 0.0687 -0.0189 -0.9975
vn 0.5202 0.0518 -0.8525
vn -0.0477 -0.0128 -0.9988
vn -0.0696 -0.0157 -0.9975
vn 0.0137 -0.9999 -0.0102
vn 0.4640 0.0695 0.8831
vn 0.8630 0.0021 -0.5051
vn -0.0024 -0.9992 -0.0408
vn 0.0029 -0.9995 -0.0321
vn 0.0001 -0.9996 -0.0292
vn 0.8445 -0.0510 0.5331
vn 0.8373 -0.0628 0.5431
vn 0.8506 -0.0408 0.5243
vn 0.8577 -0.0437 0.5123
vn 0.8654 -0.0469 0.4990
vn -0.8664 -0.0520 -0.4967
vn -0.8584 -0.0705 -0.5081
vn -0.8735 -0.0344 -0.4856
vn -0.8755 -0.0306 -0.4822
vn -0.8774 -0.0270 -0.4789
vn -0.9272 -0.0593 0.3699
vn -0.8534 -0.0554 0.5184
vn 0.0146 -0.0543 0.9984
vn -0.0140 -0.0570 0.9983
vn 0.0432 -0.0517 0.9977
vn 0.0241 -0.0515 0.9984
vn 0.0052 -0.0512 0.9987
vn -0.8023 -0.0370 0.5958
vn -0.8569 -0.0436 0.5137
vn 0.8559 -0.0498 -0.5148
vn 0.8181 -0.0502 -0.5728
vn 0.8880 -0.0491 -0.4571
vn 0.8761 -0.0467 -0.4798
vn 0.8632 -0.0442 -0.5029
vn 0.0380 -0.0418 -0.9984
vn 0.0567 -0.0427 -0.9975
vn 0.0192 -0.0408 -0.9990
vn 0.0177 -0.0517 -0.9985
vn 0.0164 -0.0620 -0.9979
vn -0.8537 -0.0488 0.5185
usemtl Steel_-_Satin.087
s 1
f 90/1/1 92/2/1 91/3/1 89/4/1
f 3/5/2 4/6/2 8/7/2 7/8/2
f 8/9/3 5/10/3 6/11/3 7/8/3
f 2/12/4 4/13/4 3/5/4 1/14/4
f 100/15/5 47/16/6 96/17/7 107/18/8 131/19/9
f 7/8/10 12/20/10 11/21/10 3/5/10
f 24/22/11 34/23/12 32/24/13 30/25/14
f 10/26/15 12/20/15 7/8/15 6/11/15
f 9/27/16 10/26/16 6/11/16 1/28/16
f 79/29/17 94/30/17 83/31/17 78/32/17
f 16/33/18 18/34/19 17/35/19 14/36/20
f 14/36/20 15/37/21 16/33/18
f 138/38/22 111/39/23 21/40/24 121/41/25
f 77/42/26 79/29/26 78/32/26 76/43/26
f 19/44/27 15/37/27 11/45/27 12/46/27
f 13/47/28 22/48/29 21/40/29 20/49/30
f 15/37/21 14/36/20 9/50/31 11/45/31
f 19/44/32 13/47/28 20/49/30
f 60/51/33 58/52/33 59/53/33 61/54/33
f 68/55/34 72/56/34 73/57/34 69/58/34
f 28/59/35 30/60/35 29/61/35 27/62/35
f 29/61/36 32/63/36 31/64/36 27/62/36
f 24/65/37 26/66/37 25/67/37 23/68/37
f 34/69/38 23/68/38 25/67/38 33/70/38
f 28/71/39 26/66/39 24/65/39 30/72/39
f 57/73/40 59/53/40 58/52/40 56/74/40
f 37/75/41 95/76/42 84/77/43 36/78/44
f 110/79/45 40/80/45 27/62/45 31/64/45
f 93/81/46 95/76/47 94/30/47 79/29/48
f 28/59/49 39/82/50 37/83/51
f 27/62/52 40/80/53 38/84/54
f 29/85/55 30/25/14 32/24/13
f 20/49/56 21/40/56 111/39/56 18/34/56 16/33/56
f 34/23/12 24/22/11 23/86/57
f 82/87/58 84/77/58 95/76/58 93/81/58
f 80/88/59 81/89/59 77/42/59 76/43/59
f 45/90/60 41/91/61 39/82/62
f 39/82/62 41/91/61 43/92/63
f 39/82/62 43/92/63 47/16/64
f 55/93/65 52/94/65 53/95/65 54/96/65
f 50/97/66 55/98/66 54/96/66 48/99/66
f 49/100/67 51/101/67 50/102/67 48/99/67
f 17/35/68 102/103/69 98/104/70 22/48/71
f 38/84/54 39/82/50 28/59/49 27/62/52
f 38/105/72 46/106/72 48/99/72 54/96/72
f 45/90/73 46/107/73 42/108/73 41/91/73
f 49/100/74 45/109/74 39/110/74 53/111/74
f 48/99/75 46/106/75 45/109/75 49/100/75
f 61/112/76 63/113/76 62/114/76 60/115/76
f 58/116/77 60/117/77 62/114/77 56/74/77
f 1/28/78 6/11/78 5/118/78 2/119/78
f 61/120/79 59/121/79 57/122/79 63/113/79
f 82/123/80 93/124/80 90/1/80 85/125/80
f 64/126/81 65/127/81 56/74/81 62/114/81
f 67/128/82 71/129/82 75/130/82 66/131/82
f 56/74/83 65/127/83 67/132/83 57/73/83
f 35/133/84 109/134/84 33/70/84 25/67/84
f 65/135/85 68/55/86 67/128/87
f 67/128/87 68/55/86 69/58/88
f 98/104/89 83/31/90 94/30/91 100/136/92 115/137/93
f 101/138/94 109/134/94 35/133/94 102/103/94 117/139/94
f 64/140/95 66/131/96 72/56/97
f 72/56/97 66/131/96 73/57/98
f 70/141/99 71/129/99 67/128/87 69/58/88
f 13/47/28 19/44/32 12/46/100 10/142/100
f 102/103/101 35/133/101 36/78/101 98/104/101
f 80/88/102 76/43/103 82/87/104
f 82/87/104 76/43/103 78/32/105
f 66/131/96 75/130/106 74/143/106 73/57/98
f 88/144/107 91/145/107 92/2/107 87/146/107
f 89/147/108 86/148/108 85/125/108 90/1/108
f 86/149/109 88/150/109 87/146/109 85/151/109
f 51/152/110 49/100/110 53/111/110 52/153/110
f 80/154/111 82/155/111 85/151/111 87/146/111
f 63/113/112 66/156/112 64/126/112 62/114/112
f 14/36/113 17/35/113 22/48/113 13/47/113
f 92/2/114 81/157/114 80/154/114 87/146/114
f 67/158/115 66/156/115 63/113/115 57/122/115
f 83/31/116 84/77/116 82/87/104 78/32/105
f 93/81/46 79/29/48 77/42/117
f 93/81/46 77/42/117 81/89/118
f 73/57/119 74/143/119 70/141/119 69/58/119
f 15/37/120 19/44/120 20/49/120 16/33/120
f 2/12/121 5/159/121 8/160/121 4/13/121
f 96/17/122 44/161/123 38/84/124
f 38/84/124 44/161/123 42/108/125
f 38/84/124 42/108/125 46/107/126
f 122/162/127 130/163/128 106/164/129 104/165/130
f 91/166/131 88/150/131 86/149/131 89/167/131
f 42/108/132 44/161/132 43/92/132 41/91/132
f 137/168/133 114/169/134 100/15/135 131/19/136
f 136/170/137 130/171/138 108/172/139 128/173/140
f 22/48/71 98/104/70 120/174/141 21/40/24
f 21/40/24 120/174/141 121/41/25
f 135/175/142 118/176/143 103/177/144 116/178/145
f 105/179/146 70/141/147 74/143/148 101/138/149 125/180/150
f 102/103/69 17/35/68 18/34/151 123/181/152
f 102/103/69 123/181/152 119/182/153
f 134/183/154 114/184/155 99/185/156 112/186/157
f 133/187/158 126/188/159 105/179/160 125/180/161
f 71/129/162 110/79/163 109/134/164 75/130/165
f 95/76/42 100/136/92 94/30/91
f 32/63/166 34/69/166 33/70/166 31/64/166
f 83/31/90 98/104/89 84/77/43
f 84/77/43 98/104/89 36/78/44
f 39/189/167 38/105/167 54/96/167 53/95/167
f 100/136/92 95/76/42 37/75/41
f 9/50/168 14/36/168 13/47/168 10/142/168
f 51/152/169 52/153/169 55/190/169 50/191/169
f 118/192/170 104/165/130 106/164/129 127/193/171
f 72/56/172 68/55/172 65/135/172 64/140/172
f 132/194/173 112/195/174 99/196/175
f 109/134/176 110/79/176 31/64/176 33/70/176
f 26/66/177 36/78/177 35/133/177 25/67/177
f 28/71/178 37/75/178 36/78/178 26/66/178
f 38/84/179 40/80/180 96/17/7
f 96/17/7 40/80/180 107/18/8
f 93/124/181 81/157/181 92/2/181 90/1/181
f 47/16/6 100/15/5 37/83/182
f 47/16/6 37/83/182 39/82/183
f 44/161/184 96/17/184 47/16/184 43/92/184
f 11/21/185 9/197/185 1/14/185 3/5/185
f 75/130/165 109/134/164 101/138/149
f 75/130/165 101/138/149 74/143/148
f 70/141/147 105/179/146 71/129/162
f 71/129/162 105/179/146 110/79/163
f 107/18/186 40/80/186 110/79/186 105/179/186 129/198/186
f 108/199/187 97/200/188 112/195/174 132/194/173
f 103/201/189 118/192/170 127/193/171
f 116/178/190 133/187/158 125/180/161 101/138/191
f 103/177/192 127/202/193 133/187/158 116/178/190
f 127/202/193 106/203/194 126/188/159 133/187/158
f 113/204/195 134/183/154 112/186/157 97/205/196
f 98/104/197 115/137/198 134/183/154 113/204/195
f 115/137/198 100/136/199 114/184/155 134/183/154
f 119/182/153 124/206/200 104/207/201
f 119/182/153 123/181/152 124/206/200
f 123/181/152 18/34/151 124/206/200
f 117/139/202 135/175/142 116/178/145 101/138/203
f 102/103/204 119/182/205 135/175/142 117/139/202
f 119/182/205 104/207/206 118/176/143 135/175/142
f 121/41/25 113/204/207 97/205/208
f 121/41/25 120/174/141 113/204/207
f 120/174/141 98/104/70 113/204/207
f 129/198/209 136/170/137 128/173/140 107/18/210
f 105/179/211 126/188/212 136/170/137 129/198/209
f 126/188/212 106/203/213 130/171/138 136/170/137
f 128/173/214 137/168/133 131/19/136 107/18/215
f 108/172/216 132/208/217 137/168/133 128/173/214
f 132/208/217 99/209/218 114/169/134 137/168/133
f 97/200/188 108/199/187 130/163/128 122/162/127
f 122/210/219 138/38/22 121/41/25 97/205/208
f 104/207/201 124/206/200 138/38/22 122/210/219
f 124/206/200 18/34/151 111/39/23 138/38/22
