# Blender v2.90.1 OBJ File: 'w1 EXPORT FILE.blend'
# www.blender.org
mtllib Cactus 2.mtl
o Cactus_2_v5
v -0.653860 0.202172 0.393068
v 0.019182 0.109916 0.782517
v -0.819123 1.046196 0.481833
v -0.044932 1.152641 0.991961
v -0.050615 1.133373 -1.035128
v 0.816061 1.067979 -0.446395
v -0.037971 0.204569 -0.828741
v 0.657558 0.200693 -0.383534
v 0.681212 0.177106 0.436733
v 0.865077 1.108301 0.492674
v -0.843535 1.004905 -0.511842
v -0.659496 0.191196 -0.395192
v -0.001364 1.594996 0.998232
v 0.877075 1.582955 0.500909
v 0.851259 1.628718 -0.520332
v 0.006286 1.546481 -1.060468
v -0.561709 2.135615 0.287108
v -0.530465 2.177005 -0.314541
v -0.908899 1.611955 0.518836
v -0.906449 1.549258 -0.490685
v 0.028855 2.227879 -0.641336
v 0.502246 2.215954 -0.395130
v 0.557355 2.204480 0.356171
v 0.023078 2.187059 0.621834
v -0.268236 2.121121 0.207222
v -0.005009 2.186741 0.396795
v -0.430424 2.643193 0.255813
v -0.056094 2.616812 0.547946
v -0.009420 2.638612 -0.473857
v 0.470515 2.624166 -0.260881
v -0.000407 2.191365 -0.382985
v 0.296369 2.148221 -0.201026
v 0.368769 2.206192 0.127894
v 0.484183 2.692575 0.281517
v -0.439077 2.629013 -0.275820
v -0.321949 2.224231 -0.175520
v 0.005625 2.883850 0.489545
v 0.382511 2.884859 0.229854
v 0.428473 2.858526 -0.274806
v -0.000134 2.893769 -0.499975
v -0.227403 3.251304 0.212672
v -0.282184 3.192527 -0.163397
v -0.402302 2.855543 0.180298
v -0.369830 2.939345 -0.237615
v 0.060383 3.154557 -0.285852
v 0.314811 3.185999 -0.124006
v 0.233860 3.221762 0.160435
v -0.036228 3.172037 0.376244
vt 0.393201 0.216286
vt 0.381662 0.185576
vt 0.431748 0.207065
vt 0.416745 0.167133
vt 0.402435 0.240863
vt 0.387431 0.200931
vt 0.437518 0.222420
vt 0.425979 0.191710
vt 0.418477 0.236252
vt 0.379929 0.227031
vt 0.430016 0.205542
vt 0.394933 0.187099
vt 0.389925 0.235991
vt 0.389925 0.193334
vt 0.429254 0.231066
vt 0.429254 0.198259
vt 0.424247 0.220897
vt 0.389164 0.202454
vt 0.439251 0.180965
vt 0.400702 0.171744
vt 0.429254 0.214662
vt 0.389925 0.209737
vt 0.429254 0.172005
vt 0.389925 0.176931
vt 0.409590 0.242390
vt 0.452247 0.242390
vt 0.409590 0.263719
vt 0.452247 0.263719
vt 0.409590 0.242390
vt 0.452247 0.242390
vt 0.409590 0.263719
vt 0.452247 0.263719
vt 0.409590 0.242390
vt 0.452247 0.242390
vt 0.409590 0.263719
vt 0.452247 0.263719
vt 0.381178 0.220401
vt 0.409590 0.171192
vt 0.409590 0.236804
vt 0.438001 0.187595
vt 0.438001 0.220401
vt 0.381178 0.187595
vt 0.423898 0.179394
vt 0.423898 0.207274
vt 0.395282 0.172005
vt 0.395282 0.214662
vt 0.422907 0.197826
vt 0.404809 0.221191
vt 0.405834 0.175785
vt 0.378687 0.187467
vt 0.383211 0.214688
vt 0.400284 0.192646
vt 0.401309 0.238052
vt 0.427432 0.204329
vt 0.395282 0.200722
vt 0.423898 0.193334
vt 0.395282 0.228603
vt 0.423898 0.235991
vt 0.440493 0.220529
vt 0.413346 0.232211
vt 0.414370 0.186805
vt 0.396273 0.210170
vt 0.391748 0.203667
vt 0.417870 0.169944
vt 0.418895 0.215350
vt 0.435969 0.193308
vt 0.409590 0.242390
vt 0.452247 0.242390
vt 0.409590 0.263719
vt 0.452247 0.263719
vt 0.409590 0.242390
vt 0.452247 0.242390
vt 0.409590 0.263719
vt 0.452247 0.263719
vt 0.385444 0.190058
vt 0.409590 0.176117
vt 0.385444 0.217938
vt 0.409590 0.231879
vt 0.433735 0.190058
vt 0.433735 0.217938
vt 0.409590 0.242390
vt 0.452247 0.242390
vt 0.409590 0.263719
vt 0.452247 0.263719
vt 0.401395 0.210143
vt 0.395626 0.194787
vt 0.420669 0.205531
vt 0.413167 0.185565
vt 0.406012 0.222431
vt 0.398510 0.202465
vt 0.423554 0.213209
vt 0.417784 0.197854
vt 0.414033 0.220125
vt 0.394760 0.215514
vt 0.419803 0.204770
vt 0.402261 0.195548
vt 0.399758 0.219995
vt 0.399758 0.198666
vt 0.419422 0.217532
vt 0.419422 0.201129
vt 0.416918 0.212448
vt 0.399377 0.203226
vt 0.424420 0.192482
vt 0.405146 0.187871
vt 0.419422 0.209330
vt 0.399758 0.206867
vt 0.419422 0.188001
vt 0.399758 0.190464
vt 0.409590 0.223194
vt 0.430919 0.223194
vt 0.409590 0.233858
vt 0.430919 0.233858
vt 0.409590 0.223194
vt 0.430919 0.223194
vt 0.409590 0.233858
vt 0.430919 0.233858
vt 0.409590 0.223194
vt 0.430919 0.223194
vt 0.409590 0.233858
vt 0.430919 0.233858
vt 0.395384 0.212199
vt 0.409590 0.187595
vt 0.409590 0.220401
vt 0.423795 0.195797
vt 0.423795 0.212199
vt 0.395384 0.195797
vt 0.416744 0.191696
vt 0.416744 0.205636
vt 0.402436 0.188001
vt 0.402436 0.209330
vt 0.416249 0.200912
vt 0.407199 0.212594
vt 0.407712 0.189891
vt 0.394138 0.195732
vt 0.396400 0.209343
vt 0.404937 0.198322
vt 0.405450 0.221025
vt 0.418511 0.204164
vt 0.402436 0.202360
vt 0.416744 0.198666
vt 0.402436 0.216300
vt 0.416744 0.219995
vt 0.425041 0.212264
vt 0.411468 0.218105
vt 0.411980 0.195402
vt 0.402931 0.207084
vt 0.400669 0.203833
vt 0.413730 0.186971
vt 0.414243 0.209674
vt 0.422779 0.198653
vt 0.409590 0.223194
vt 0.430919 0.223194
vt 0.409590 0.233858
vt 0.430919 0.233858
vt 0.409590 0.223194
vt 0.430919 0.223194
vt 0.409590 0.233858
vt 0.430919 0.233858
vt 0.397517 0.197028
vt 0.409590 0.190058
vt 0.397517 0.210968
vt 0.409590 0.217938
vt 0.421662 0.197028
vt 0.421662 0.210968
vt 0.409590 0.223194
vt 0.430919 0.223194
vt 0.409590 0.233858
vt 0.430919 0.233858
vn -0.5111 -0.1883 0.8387
vn -0.5158 -0.1938 0.8345
vn -0.5165 -0.1946 0.8339
vn -0.5200 -0.1988 0.8307
vn 0.5442 -0.1749 -0.8205
vn 0.5385 -0.1669 -0.8259
vn 0.5387 -0.1671 -0.8258
vn 0.5318 -0.1575 -0.8321
vn 0.4696 -0.1450 0.8709
vn 0.4701 -0.1456 0.8705
vn 0.4700 -0.1455 0.8706
vn 0.4704 -0.1459 0.8703
vn 0.9822 -0.1827 -0.0434
vn 0.9816 -0.1869 -0.0388
vn 0.9816 -0.1872 -0.0386
vn 0.9809 -0.1916 -0.0338
vn -0.5187 -0.1922 -0.8331
vn -0.5345 -0.2143 -0.8176
vn -0.5335 -0.2128 -0.8186
vn -0.5520 -0.2394 -0.7987
vn -0.9758 -0.2160 0.0329
vn -0.9784 -0.2057 0.0224
vn -0.9785 -0.2051 0.0218
vn -0.9811 -0.1931 0.0097
vn 0.4779 -0.0595 0.8764
vn 0.4885 -0.0360 0.8718
vn 0.4818 -0.0509 0.8748
vn 0.4922 -0.0275 0.8700
vn 0.9984 -0.0243 -0.0511
vn 0.9979 -0.0548 -0.0345
vn 0.9983 -0.0386 -0.0433
vn 0.9974 -0.0663 -0.0282
vn 0.5487 -0.1431 -0.8237
vn 0.5449 -0.1314 -0.8281
vn 0.5473 -0.1388 -0.8253
vn 0.5430 -0.1257 -0.8303
vn 0.0455 -0.9976 -0.0528
vn -0.0179 -0.9986 -0.0496
vn -0.0030 -0.9992 -0.0401
vn -0.0741 -0.9965 -0.0393
vn 0.0311 -0.9994 0.0137
vn 0.0848 -0.9959 -0.0311
vn -0.8346 0.5509 -0.0054
vn -0.8469 0.5313 -0.0243
vn -0.8455 0.5335 -0.0222
vn -0.8531 0.5206 -0.0344
vn -0.4763 0.4721 -0.7418
vn -0.4687 0.4790 -0.7422
vn -0.4678 0.4799 -0.7422
vn -0.4620 0.4851 -0.7425
vn 0.4175 0.4660 -0.7801
vn 0.4391 0.4484 -0.7785
vn 0.4387 0.4487 -0.7786
vn 0.4543 0.4357 -0.7770
vn 0.8932 0.4458 -0.0587
vn 0.8780 0.4777 -0.0298
vn 0.8732 0.4869 -0.0213
vn 0.8597 0.5107 0.0012
vn 0.4523 0.4163 0.7888
vn 0.4245 0.4429 0.7898
vn 0.4188 0.4481 0.7898
vn 0.3764 0.4859 0.7888
vn -0.3749 0.5716 0.7299
vn -0.4219 0.5301 0.7355
vn -0.4094 0.5415 0.7343
vn -0.4654 0.4884 0.7381
vn -0.5315 -0.1390 0.8356
vn -0.4886 -0.0204 0.8723
vn -0.5146 -0.0895 0.8528
vn -0.4663 0.0334 0.8840
vn -0.9928 -0.1159 0.0292
vn -0.9894 -0.1444 0.0142
vn -0.9913 -0.1294 0.0221
vn -0.9875 -0.1572 0.0074
vn -0.1225 0.9905 0.0618
vn -0.0559 0.9977 0.0393
vn -0.0859 0.9955 0.0401
vn -0.0338 0.9991 0.0269
vn -0.0093 0.9996 0.0284
vn 0.0179 0.9997 0.0140
vn -0.5535 0.0252 -0.8325
vn -0.5351 -0.0160 -0.8446
vn -0.5454 0.0067 -0.8382
vn -0.5294 -0.0282 -0.8479
vn -0.5273 -0.2397 0.8152
vn -0.5591 -0.2801 0.7803
vn -0.5691 -0.2931 0.7682
vn -0.5954 -0.3284 0.7332
vn 0.3949 -0.1753 -0.9018
vn 0.4288 -0.2193 -0.8764
vn 0.4340 -0.2263 -0.8720
vn 0.4724 -0.2780 -0.8364
vn 0.5557 -0.3674 0.7458
vn 0.5086 -0.3087 0.8037
vn 0.5032 -0.3022 0.8096
vn 0.4562 -0.2463 0.8551
vn 0.9397 -0.3414 0.0194
vn 0.9574 -0.2838 -0.0525
vn 0.9607 -0.2684 -0.0712
vn 0.9680 -0.1720 -0.1828
vn -0.4075 -0.1897 -0.8933
vn -0.4696 -0.2644 -0.8424
vn -0.4665 -0.2606 -0.8452
vn -0.5334 -0.3456 -0.7720
vn -0.9618 -0.2726 0.0229
vn -0.9571 -0.2871 0.0382
vn -0.9575 -0.2861 0.0371
vn -0.9523 -0.3007 0.0526
vn 0.4292 0.0972 0.8980
vn 0.4866 0.3441 0.8030
vn 0.4508 0.1762 0.8751
vn 0.5024 0.4620 0.7309
vn 0.8899 0.4493 -0.0791
vn 0.9664 0.2544 0.0382
vn 0.9219 0.3854 -0.0394
vn 0.9803 0.1806 0.0799
vn 0.4060 0.0185 -0.9137
vn 0.4423 -0.0716 -0.8940
vn 0.4204 -0.0161 -0.9072
vn 0.4555 -0.1070 -0.8838
vn -0.0547 -0.9978 0.0367
vn 0.1298 -0.9910 0.0322
vn -0.0904 -0.9934 -0.0703
vn 0.1280 -0.9900 -0.0597
vn -0.2393 -0.9454 -0.2211
vn 0.1511 -0.9787 0.1392
vn -0.9145 0.3983 0.0710
vn -0.9310 0.3637 0.0312
vn -0.9281 0.3702 0.0386
vn -0.9443 0.3291 -0.0074
vn -0.1913 0.6490 -0.7364
vn -0.3272 0.5538 -0.7657
vn -0.3816 0.5090 -0.7716
vn -0.4977 0.3982 -0.7705
vn 0.4121 0.5191 -0.7488
vn 0.4274 0.5045 -0.7502
vn 0.4263 0.5056 -0.7501
vn 0.4353 0.4968 -0.7508
vn 0.8814 0.4294 0.1968
vn 0.9236 0.3606 0.1302
vn 0.9266 0.3548 0.1247
vn 0.9520 0.2977 0.0712
vn 0.5225 0.3871 0.7597
vn 0.5274 0.3826 0.7586
vn 0.5287 0.3815 0.7583
vn 0.5355 0.3752 0.7566
vn -0.6005 0.2021 0.7736
vn -0.5933 0.2094 0.7773
vn -0.5937 0.2091 0.7771
vn -0.5781 0.2245 0.7845
vn -0.5630 0.3421 0.7523
vn -0.5826 0.3114 0.7508
vn -0.5722 0.3278 0.7517
vn -0.5894 0.3002 0.7500
vn -0.9762 0.2166 0.0101
vn -0.9868 0.1602 -0.0250
vn -0.9812 0.1927 -0.0048
vn -0.9922 0.1120 -0.0546
vn 0.5196 0.8294 -0.2053
vn 0.0859 0.9924 -0.0885
vn 0.1866 0.9813 -0.0478
vn -0.0120 0.9983 -0.0575
vn -0.1777 0.9809 -0.0786
vn -0.0366 0.9902 -0.1349
vn -0.4159 -0.0776 -0.9061
vn -0.5094 0.1235 -0.8516
vn -0.4717 0.0360 -0.8810
vn -0.5461 0.2213 -0.8080
usemtl Steel_-_Satin.010
s 1
f 1/1/1 2/2/2 3/3/3
f 3/3/3 2/2/2 4/4/4
f 5/5/5 6/6/6 7/7/7
f 7/7/7 6/6/6 8/8/8
f 9/9/9 10/10/10 2/11/11
f 2/11/11 10/10/10 4/12/12
f 6/13/13 10/14/14 8/15/15
f 8/15/15 10/14/14 9/16/16
f 5/17/17 7/18/18 11/19/19
f 11/19/19 7/18/18 12/20/20
f 11/21/21 12/22/22 3/23/23
f 3/23/23 12/22/22 1/24/24
f 4/25/25 10/26/26 13/27/27
f 13/27/27 10/26/26 14/28/28
f 10/29/29 6/30/30 14/31/31
f 14/31/31 6/30/30 15/32/32
f 6/33/33 5/34/34 15/35/35
f 15/35/35 5/34/34 16/36/36
f 8/37/37 2/38/38 7/39/39
f 7/39/39 2/38/38 1/40/40
f 7/39/39 1/40/40 12/41/41
f 8/37/37 9/42/42 2/38/38
f 17/43/43 18/44/44 19/45/45
f 19/45/45 18/44/44 20/46/46
f 21/47/47 16/48/48 18/49/49
f 18/49/49 16/48/48 20/50/50
f 21/51/51 22/52/52 16/53/53
f 16/53/53 22/52/52 15/54/54
f 23/55/55 14/56/56 22/57/57
f 22/57/57 14/56/56 15/58/58
f 14/59/59 23/60/60 13/61/61
f 13/61/61 23/60/60 24/62/62
f 19/63/63 13/64/64 17/65/65
f 17/65/65 13/64/64 24/66/66
f 3/67/67 4/68/68 19/69/69
f 19/69/69 4/68/68 13/70/70
f 11/71/71 3/72/72 20/73/73
f 20/73/73 3/72/72 19/74/74
f 17/75/75 24/76/76 18/77/77
f 18/77/77 24/76/76 21/78/78
f 21/78/78 24/76/76 23/79/79
f 21/78/78 23/79/79 22/80/80
f 5/81/81 11/82/82 16/83/83
f 16/83/83 11/82/82 20/84/84
f 25/85/85 26/86/86 27/87/87
f 27/87/87 26/86/86 28/88/88
f 29/89/89 30/90/90 31/91/91
f 31/91/91 30/90/90 32/92/92
f 33/93/93 34/94/94 26/95/95
f 26/95/95 34/94/94 28/96/96
f 30/97/97 34/98/98 32/99/99
f 32/99/99 34/98/98 33/100/100
f 29/101/101 31/102/102 35/103/103
f 35/103/103 31/102/102 36/104/104
f 35/105/105 36/106/106 27/107/107
f 27/107/107 36/106/106 25/108/108
f 28/109/109 34/110/110 37/111/111
f 37/111/111 34/110/110 38/112/112
f 34/113/113 30/114/114 38/115/115
f 38/115/115 30/114/114 39/116/116
f 30/117/117 29/118/118 39/119/119
f 39/119/119 29/118/118 40/120/120
f 32/121/121 26/122/122 31/123/123
f 31/123/123 26/122/122 25/124/124
f 31/123/123 25/124/124 36/125/125
f 32/121/121 33/126/126 26/122/122
f 41/127/127 42/128/128 43/129/129
f 43/129/129 42/128/128 44/130/130
f 45/131/131 40/132/132 42/133/133
f 42/133/133 40/132/132 44/134/134
f 45/135/135 46/136/136 40/137/137
f 40/137/137 46/136/136 39/138/138
f 47/139/139 38/140/140 46/141/141
f 46/141/141 38/140/140 39/142/142
f 38/143/143 47/144/144 37/145/145
f 37/145/145 47/144/144 48/146/146
f 43/147/147 37/148/148 41/149/149
f 41/149/149 37/148/148 48/150/150
f 27/151/151 28/152/152 43/153/153
f 43/153/153 28/152/152 37/154/154
f 35/155/155 27/156/156 44/157/157
f 44/157/157 27/156/156 43/158/158
f 41/159/159 48/160/160 42/161/161
f 42/161/161 48/160/160 45/162/162
f 45/162/162 48/160/160 47/163/163
f 45/162/162 47/163/163 46/164/164
f 29/165/165 35/166/166 40/167/167
f 40/167/167 35/166/166 44/168/168
