# Blender v2.93.0 OBJ File: 'w1 EXPORT FILE extra.blend'
# www.blender.org
mtllib Metal scrap 1 dark grey.mtl
g Metal_Scrap.003
v -6.809440 0.020000 8.043839
v -6.809440 0.680000 8.043839
v -8.192640 0.020000 -6.852160
v -8.192640 0.680000 -6.852160
v 5.639360 0.020000 8.043839
v 5.639360 0.680000 8.043839
v 0.106560 0.048000 -6.852160
v 0.106560 0.652000 -6.852160
v 4.256160 0.048000 -2.383360
v 4.256160 0.652000 -2.383360
v -1.696690 0.687738 6.166684
v -1.696690 0.687738 6.633350
v -1.696690 0.967738 6.633350
v -1.696690 0.967738 6.166684
v -0.296690 0.687738 6.633350
v -0.296690 0.687738 6.166684
v -0.296690 0.967738 6.166684
v -0.296690 0.967738 6.633350
v -0.763356 0.687738 5.700017
v -1.230023 0.687738 5.700017
v -1.230023 0.967738 5.700017
v -0.763356 0.967738 5.700017
v -1.230023 0.687738 7.100017
v -0.763356 0.687738 7.100017
v -0.763356 0.967738 7.100017
v -1.230023 0.967738 7.100017
v -1.206689 1.037738 7.030016
v -1.626690 1.037738 6.610017
v -1.626690 1.037738 6.190017
v -0.786690 1.037738 5.770017
v -0.366690 1.037738 6.190017
v -0.366690 1.037738 6.610017
v -1.206689 1.037738 5.770017
v -0.786690 1.037738 7.030016
v -5.696690 0.687738 6.166684
v -5.696690 0.687738 6.633350
v -5.696690 0.967738 6.633350
v -5.696690 0.967738 6.166684
v -4.296690 0.687738 6.633350
v -4.296690 0.687738 6.166684
v -4.296690 0.967738 6.166684
v -4.296690 0.967738 6.633350
v -4.763356 0.687738 5.700017
v -5.230023 0.687738 5.700017
v -5.230023 0.967738 5.700017
v -4.763356 0.967738 5.700017
v -5.230023 0.687738 7.100017
v -4.763356 0.687738 7.100017
v -4.763356 0.967738 7.100017
v -5.230023 0.967738 7.100017
v -5.206690 1.037738 7.030016
v -5.626690 1.037738 6.610017
v -5.626690 1.037738 6.190017
v -4.786690 1.037738 5.770017
v -4.366690 1.037738 6.190017
v -4.366690 1.037738 6.610017
v -5.206690 1.037738 5.770017
v -4.786690 1.037738 7.030016
v -6.696690 0.687738 -1.233317
v -6.696690 0.687738 -0.766650
v -6.696690 0.967738 -0.766650
v -6.696690 0.967738 -1.233317
v -5.296690 0.687738 -0.766650
v -5.296690 0.687738 -1.233317
v -5.296690 0.967738 -1.233317
v -5.296690 0.967738 -0.766650
v -5.763357 0.687738 -1.699983
v -6.230023 0.687738 -1.699983
v -6.230023 0.967738 -1.699983
v -5.763357 0.967738 -1.699983
v -6.230023 0.687738 -0.299983
v -5.763357 0.687738 -0.299983
v -5.763357 0.967738 -0.299983
v -6.230023 0.967738 -0.299983
v -6.206690 1.037738 -0.369983
v -6.626690 1.037738 -0.789983
v -6.626690 1.037738 -1.209983
v -5.786690 1.037738 -1.629983
v -5.366690 1.037738 -1.209983
v -5.366690 1.037738 -0.789983
v -6.206690 1.037738 -1.629983
v -5.786690 1.037738 -0.369983
v -7.196690 0.687738 -5.233317
v -7.196690 0.687738 -4.766650
v -7.196690 0.967738 -4.766650
v -7.196690 0.967738 -5.233317
v -5.796690 0.687738 -4.766650
v -5.796690 0.687738 -5.233317
v -5.796690 0.967738 -5.233317
v -5.796690 0.967738 -4.766650
v -6.263356 0.687738 -5.699984
v -6.730023 0.687738 -5.699984
v -6.730023 0.967738 -5.699984
v -6.263356 0.967738 -5.699984
v -6.730023 0.687738 -4.299984
v -6.263356 0.687738 -4.299984
v -6.263356 0.967738 -4.299984
v -6.730023 0.967738 -4.299984
v -6.706689 1.037738 -4.369983
v -7.126689 1.037738 -4.789984
v -7.126689 1.037738 -5.209984
v -6.286689 1.037738 -5.629984
v -5.866689 1.037738 -5.209984
v -5.866689 1.037738 -4.789984
v -6.706689 1.037738 -5.629984
v -6.286689 1.037738 -4.369983
v 2.303310 0.687738 6.166684
v 2.303310 0.687738 6.633350
v 2.303310 0.967738 6.633350
v 2.303310 0.967738 6.166684
v 3.703310 0.687738 6.633350
v 3.703310 0.687738 6.166684
v 3.703310 0.967738 6.166684
v 3.703310 0.967738 6.633350
v 3.236644 0.687738 5.700017
v 2.769977 0.687738 5.700017
v 2.769977 0.967738 5.700017
v 3.236644 0.967738 5.700017
v 2.769977 0.687738 7.100017
v 3.236644 0.687738 7.100017
v 3.236644 0.967738 7.100017
v 2.769977 0.967738 7.100017
v 2.793310 1.037738 7.030016
v 2.373310 1.037738 6.610017
v 2.373310 1.037738 6.190017
v 3.213310 1.037738 5.770017
v 3.633310 1.037738 6.190017
v 3.633310 1.037738 6.610017
v 2.793310 1.037738 5.770017
v 3.213310 1.037738 7.030016
vt 0.959349 0.255226
vt 0.963349 0.255226
vt 0.963349 0.259226
vt 0.959349 0.259226
vt 0.959349 0.267226
vt 0.963349 0.267226
vt 0.963349 0.271226
vt 0.959349 0.271226
vt 0.967349 0.263226
vt 0.967349 0.267226
vt 0.963349 0.265226
vt 0.965349 0.263226
vt 0.955349 0.267226
vt 0.955349 0.263226
vt 0.957349 0.263226
vt 0.959349 0.265226
vt 0.963349 0.261226
vt 0.959349 0.261226
vt 0.963349 0.269893
vt 0.963349 0.256559
vt 0.959349 0.256559
vt 0.959349 0.269893
vt 0.963349 0.261893
vt 0.963349 0.264559
vt 0.959349 0.264559
vt 0.959349 0.261893
vt 0.963349 0.265893
vt 0.963349 0.268559
vt 0.959349 0.268559
vt 0.959349 0.265893
vt 0.963349 0.257893
vt 0.959349 0.257893
vt 0.963349 0.260559
vt 0.963349 0.260559
vt 0.963349 0.261893
vt 0.955349 0.264559
vt 0.956683 0.263226
vt 0.958016 0.263226
vt 0.958016 0.267226
vt 0.956683 0.267226
vt 0.955349 0.265893
vt 0.959349 0.260559
vt 0.963349 0.265893
vt 0.963349 0.264559
vt 0.964683 0.263226
vt 0.966016 0.263226
vt 0.967349 0.264559
vt 0.967349 0.265893
vt 0.966016 0.267226
vt 0.964683 0.267226
vt 0.963349 0.269893
vt 0.963349 0.256559
vt 0.963349 0.268559
vt 0.963349 0.257893
vt 0.963349 0.269893
vt 0.963349 0.256559
vt 0.959349 0.256559
vt 0.959349 0.269893
vt 0.963349 0.261893
vt 0.963349 0.264559
vt 0.959349 0.264559
vt 0.959349 0.261893
vt 0.963349 0.265893
vt 0.963349 0.268559
vt 0.959349 0.268559
vt 0.959349 0.265893
vt 0.963349 0.257893
vt 0.959349 0.257893
vt 0.963349 0.260559
vt 0.963349 0.260559
vt 0.963349 0.261893
vt 0.958016 0.267226
vt 0.956683 0.267226
vt 0.955349 0.265893
vt 0.955349 0.264559
vt 0.956683 0.263226
vt 0.958016 0.263226
vt 0.959349 0.260559
vt 0.963349 0.265893
vt 0.963349 0.264559
vt 0.964683 0.263226
vt 0.966016 0.263226
vt 0.967349 0.264559
vt 0.967349 0.265893
vt 0.966016 0.267226
vt 0.964683 0.267226
vt 0.963349 0.269893
vt 0.963349 0.256559
vt 0.963349 0.268559
vt 0.963349 0.257893
vt 0.963349 0.269893
vt 0.963349 0.256559
vt 0.959349 0.256559
vt 0.959349 0.269893
vt 0.963349 0.261893
vt 0.963349 0.264559
vt 0.959349 0.264559
vt 0.959349 0.261893
vt 0.963349 0.265893
vt 0.963349 0.268559
vt 0.959349 0.268559
vt 0.959349 0.265893
vt 0.963349 0.257893
vt 0.959349 0.257893
vt 0.963349 0.260559
vt 0.963349 0.260559
vt 0.963349 0.261893
vt 0.955349 0.264559
vt 0.956683 0.263226
vt 0.958016 0.263226
vt 0.958016 0.267226
vt 0.956683 0.267226
vt 0.955349 0.265893
vt 0.959349 0.260559
vt 0.963349 0.265893
vt 0.963349 0.264559
vt 0.964683 0.263226
vt 0.966016 0.263226
vt 0.967349 0.264559
vt 0.967349 0.265893
vt 0.966016 0.267226
vt 0.964683 0.267226
vt 0.963349 0.269893
vt 0.963349 0.256559
vt 0.963349 0.268559
vt 0.963349 0.257893
vt 0.963349 0.269893
vt 0.963349 0.256559
vt 0.959349 0.256559
vt 0.959349 0.269893
vt 0.963349 0.261893
vt 0.963349 0.264559
vt 0.959349 0.264559
vt 0.959349 0.261893
vt 0.963349 0.265893
vt 0.963349 0.268559
vt 0.959349 0.268559
vt 0.959349 0.265893
vt 0.963349 0.257893
vt 0.959349 0.257893
vt 0.963349 0.260559
vt 0.963349 0.260559
vt 0.963349 0.261893
vt 0.958016 0.267226
vt 0.956683 0.267226
vt 0.955349 0.265893
vt 0.955349 0.264559
vt 0.956683 0.263226
vt 0.958016 0.263226
vt 0.959349 0.260559
vt 0.963349 0.265893
vt 0.963349 0.264559
vt 0.964683 0.263226
vt 0.966016 0.263226
vt 0.967349 0.264559
vt 0.967349 0.265893
vt 0.966016 0.267226
vt 0.964683 0.267226
vt 0.963349 0.269893
vt 0.963349 0.256559
vt 0.963349 0.268559
vt 0.963349 0.257893
vt 0.963349 0.269893
vt 0.963349 0.256559
vt 0.959349 0.256559
vt 0.959349 0.269893
vt 0.963349 0.261893
vt 0.963349 0.264559
vt 0.959349 0.264559
vt 0.959349 0.261893
vt 0.963349 0.265893
vt 0.963349 0.268559
vt 0.959349 0.268559
vt 0.959349 0.265893
vt 0.963349 0.257893
vt 0.959349 0.257893
vt 0.963349 0.260559
vt 0.963349 0.260559
vt 0.963349 0.261893
vt 0.958016 0.267226
vt 0.956683 0.267226
vt 0.955349 0.265893
vt 0.955349 0.264559
vt 0.956683 0.263226
vt 0.958016 0.263226
vt 0.959349 0.260559
vt 0.963349 0.265893
vt 0.963349 0.264559
vt 0.964683 0.263226
vt 0.966016 0.263226
vt 0.967349 0.264559
vt 0.967349 0.265893
vt 0.966016 0.267226
vt 0.964683 0.267226
vt 0.963349 0.269893
vt 0.963349 0.256559
vt 0.963349 0.268559
vt 0.963349 0.257893
vn -0.9957 0.0000 0.0925
vn 0.0000 0.0000 1.0000
vn 0.0016 1.0000 -0.0015
vn 0.0016 -1.0000 -0.0015
vn -0.0000 0.0000 -1.0000
vn 0.9913 0.0000 -0.1315
vn 0.7328 0.0000 -0.6805
vn -0.7071 0.0000 0.7071
vn 0.7071 0.0000 -0.7071
vn 0.7071 0.0000 0.7071
vn 1.0000 0.0000 0.0000
vn -1.0000 0.0000 0.0000
vn 0.0000 0.7071 -0.7071
vn 0.0000 -1.0000 0.0000
vn -0.7071 0.0000 -0.7071
vn 0.0000 1.0000 0.0000
vn -0.5145 0.6860 0.5145
vn 0.5145 0.6860 0.5145
vn 0.7071 0.7071 0.0000
vn -0.5145 0.6860 -0.5145
vn -0.7071 0.7071 0.0000
vn 0.0000 0.7071 0.7071
vn 0.5145 0.6860 -0.5145
usemtl Train_Color_Palette
s off
f 1/1/1 2/2/1 4/3/1 3/4/1
f 5/5/2 6/6/2 2/7/2 1/8/2
f 4/9/3 2/10/3 6/6/3 10/11/3 8/12/3
f 5/5/4 1/13/4 3/14/4 7/15/4 9/16/4
f 3/4/5 4/3/5 8/17/5 7/18/5
f 9/16/6 10/11/6 6/6/6 5/5/6
f 10/11/7 9/16/7 7/15/7 8/17/7
f 26/19/8 13/20/8 12/21/8 23/22/8
f 22/23/9 17/24/9 16/25/9 19/26/9
f 18/27/10 25/28/10 24/29/10 15/30/10
f 16/25/11 17/24/11 18/27/11 15/30/11
f 12/21/12 13/20/12 14/31/12 11/32/12
f 22/23/13 21/33/13 33/34/13 30/35/13
f 11/36/14 20/37/14 19/38/14 16/25/14 15/30/14 24/39/14 23/40/14 12/41/14
f 24/29/2 25/28/2 26/19/2 23/22/2
f 20/42/5 21/33/5 22/23/5 19/26/5
f 14/31/15 21/33/15 20/42/15 11/32/15
f 32/43/16 31/44/16 30/45/16 33/46/16 29/47/16 28/48/16 27/49/16 34/50/16
f 13/20/17 26/19/17 27/51/17 28/52/17
f 25/28/18 18/27/18 32/43/18 34/53/18
f 18/27/19 17/24/19 31/44/19 32/43/19
f 21/33/20 14/31/20 29/54/20 33/34/20
f 14/31/21 13/20/21 28/52/21 29/54/21
f 26/19/22 25/28/22 34/53/22 27/51/22
f 17/24/23 22/23/23 30/35/23 31/44/23
f 50/55/8 37/56/8 36/57/8 47/58/8
f 46/59/9 41/60/9 40/61/9 43/62/9
f 42/63/10 49/64/10 48/65/10 39/66/10
f 40/61/11 41/60/11 42/63/11 39/66/11
f 36/57/12 37/56/12 38/67/12 35/68/12
f 46/59/13 45/69/13 57/70/13 54/71/13
f 39/66/14 48/72/14 47/73/14 36/74/14 35/75/14 44/76/14 43/77/14 40/61/14
f 48/65/2 49/64/2 50/55/2 47/58/2
f 44/78/5 45/69/5 46/59/5 43/62/5
f 38/67/15 45/69/15 44/78/15 35/68/15
f 56/79/16 55/80/16 54/81/16 57/82/16 53/83/16 52/84/16 51/85/16 58/86/16
f 37/56/17 50/55/17 51/87/17 52/88/17
f 49/64/18 42/63/18 56/79/18 58/89/18
f 42/63/19 41/60/19 55/80/19 56/79/19
f 45/69/20 38/67/20 53/90/20 57/70/20
f 38/67/21 37/56/21 52/88/21 53/90/21
f 50/55/22 49/64/22 58/89/22 51/87/22
f 41/60/23 46/59/23 54/71/23 55/80/23
f 74/91/8 61/92/8 60/93/8 71/94/8
f 70/95/9 65/96/9 64/97/9 67/98/9
f 66/99/10 73/100/10 72/101/10 63/102/10
f 64/97/11 65/96/11 66/99/11 63/102/11
f 60/93/12 61/92/12 62/103/12 59/104/12
f 70/95/13 69/105/13 81/106/13 78/107/13
f 59/108/14 68/109/14 67/110/14 64/97/14 63/102/14 72/111/14 71/112/14 60/113/14
f 72/101/2 73/100/2 74/91/2 71/94/2
f 68/114/5 69/105/5 70/95/5 67/98/5
f 62/103/15 69/105/15 68/114/15 59/104/15
f 80/115/16 79/116/16 78/117/16 81/118/16 77/119/16 76/120/16 75/121/16 82/122/16
f 61/92/17 74/91/17 75/123/17 76/124/17
f 73/100/18 66/99/18 80/115/18 82/125/18
f 66/99/19 65/96/19 79/116/19 80/115/19
f 69/105/20 62/103/20 77/126/20 81/106/20
f 62/103/21 61/92/21 76/124/21 77/126/21
f 74/91/22 73/100/22 82/125/22 75/123/22
f 65/96/23 70/95/23 78/107/23 79/116/23
f 98/127/8 85/128/8 84/129/8 95/130/8
f 94/131/9 89/132/9 88/133/9 91/134/9
f 90/135/10 97/136/10 96/137/10 87/138/10
f 88/133/11 89/132/11 90/135/11 87/138/11
f 84/129/12 85/128/12 86/139/12 83/140/12
f 94/131/13 93/141/13 105/142/13 102/143/13
f 87/138/14 96/144/14 95/145/14 84/146/14 83/147/14 92/148/14 91/149/14 88/133/14
f 96/137/2 97/136/2 98/127/2 95/130/2
f 92/150/5 93/141/5 94/131/5 91/134/5
f 86/139/15 93/141/15 92/150/15 83/140/15
f 104/151/16 103/152/16 102/153/16 105/154/16 101/155/16 100/156/16 99/157/16 106/158/16
f 85/128/17 98/127/17 99/159/17 100/160/17
f 97/136/18 90/135/18 104/151/18 106/161/18
f 90/135/19 89/132/19 103/152/19 104/151/19
f 93/141/20 86/139/20 101/162/20 105/142/20
f 86/139/21 85/128/21 100/160/21 101/162/21
f 98/127/22 97/136/22 106/161/22 99/159/22
f 89/132/23 94/131/23 102/143/23 103/152/23
f 122/163/8 109/164/8 108/165/8 119/166/8
f 118/167/9 113/168/9 112/169/9 115/170/9
f 114/171/10 121/172/10 120/173/10 111/174/10
f 112/169/11 113/168/11 114/171/11 111/174/11
f 108/165/12 109/164/12 110/175/12 107/176/12
f 118/167/13 117/177/13 129/178/13 126/179/13
f 111/174/14 120/180/14 119/181/14 108/182/14 107/183/14 116/184/14 115/185/14 112/169/14
f 120/173/2 121/172/2 122/163/2 119/166/2
f 116/186/5 117/177/5 118/167/5 115/170/5
f 110/175/15 117/177/15 116/186/15 107/176/15
f 128/187/16 127/188/16 126/189/16 129/190/16 125/191/16 124/192/16 123/193/16 130/194/16
f 109/164/17 122/163/17 123/195/17 124/196/17
f 121/172/18 114/171/18 128/187/18 130/197/18
f 114/171/19 113/168/19 127/188/19 128/187/19
f 117/177/20 110/175/20 125/198/20 129/178/20
f 110/175/21 109/164/21 124/196/21 125/198/21
f 122/163/22 121/172/22 130/197/22 123/195/22
f 113/168/23 118/167/23 126/179/23 127/188/23
