# Blender v2.90.1 OBJ File: 'w1 EXPORT FILE.blend'
# www.blender.org
mtllib Old Rail Piece.mtl
g Rail_piece
v 1.889999 -0.144000 4.409999
v 1.889999 0.108000 4.409999
v 1.889999 -0.144000 5.039999
v 1.890000 0.360000 5.039999
v 1.890000 0.108000 3.150000
v 1.890000 0.108000 1.890000
v 1.890000 -0.144000 1.890000
v 1.890000 -0.144000 3.150000
v 1.890000 0.108000 0.630000
v 1.890000 0.108000 -0.629999
v 1.890000 0.360000 -5.039999
v 1.890000 0.108000 -1.889999
v 1.890000 0.108000 -3.149999
v 1.890000 -0.144000 -3.149999
v 1.890000 -0.144000 -1.889999
v 1.890000 -0.144000 0.630000
v 1.890000 -0.144000 -0.630000
v 1.890000 0.108000 -4.409999
v 1.890000 -0.144000 -5.039999
v 1.890000 -0.144000 -4.409999
v 1.260000 -0.144000 -5.039999
v 1.260000 0.360000 -5.039999
v 1.259999 -0.144000 5.039999
v 1.260000 0.360000 5.039999
v 1.260000 -0.144000 -3.150000
v 1.260000 -0.144000 -1.889999
v 1.260000 0.108000 -3.150000
v 1.260000 0.108000 -1.889999
v 1.260000 0.108000 -0.630000
v 1.260000 0.108000 0.630000
v 1.260000 0.108000 1.890000
v 1.260000 -0.144000 -0.630000
v 1.260000 -0.144000 0.630000
v 1.260000 -0.144000 1.890000
v 1.260000 -0.144000 3.150000
v 1.260000 0.108000 3.150000
v 1.259999 0.108000 4.409999
v 1.259999 -0.144000 4.409999
v 1.260000 0.108000 -4.409999
v 1.260000 -0.144000 -4.409999
v 3.150000 -0.144001 -3.149999
v 3.150000 0.107999 -3.149999
v 3.150000 -0.144001 -4.409999
v 3.150000 0.107999 -4.409999
v 3.150000 -0.144001 -0.630000
v 3.150000 0.107999 -0.629999
v 3.150000 -0.144001 -1.889999
v 3.150000 0.107999 -1.889999
v -1.260000 -0.144000 0.630000
v -1.260000 -0.144000 -0.630000
v -1.260000 0.108000 0.630000
v -1.260000 0.108000 -0.630000
v -1.260000 0.360000 5.039999
v -1.259999 0.360000 -5.039999
v -1.260000 0.108000 -1.890000
v -1.260000 0.108000 -3.149999
v -1.260000 -0.144000 -3.149999
v -1.260000 -0.144000 -1.890000
v -1.259999 0.108000 -4.409999
v -1.259999 -0.144000 -5.039999
v -1.259999 -0.144000 -4.409999
v -1.260000 -0.144000 5.039999
v -1.260000 0.108000 4.409999
v -1.260000 0.108000 3.150000
v -1.260000 0.108000 1.890000
v -1.260000 -0.144000 1.890000
v -1.260000 -0.144000 3.150000
v -1.260000 -0.144000 4.409999
v -1.890000 -0.144000 5.039999
v -1.890000 0.360000 5.039999
v -1.890000 -0.144000 1.890000
v -1.890000 -0.144000 3.150000
v -1.890000 0.108000 1.890000
v -1.890000 0.108000 3.150000
v -1.890000 0.108000 4.409999
v -1.890000 -0.144000 4.409999
v -1.889999 0.360000 -5.039999
v -1.890000 0.108000 -0.630000
v -1.890000 0.108000 0.630000
v -1.889999 -0.144000 -5.039999
v -1.889999 0.108000 -4.409999
v -1.890000 0.108000 -3.150000
v -1.890000 0.108000 -1.890000
v -1.890000 -0.144000 -1.890000
v -1.890000 -0.144000 -3.150000
v -1.889999 -0.144000 -4.409999
v -1.890000 -0.144000 -0.630000
v -1.890000 -0.144000 0.630000
v -3.150000 -0.143999 -0.630000
v -3.150000 0.108001 -0.630000
v -3.149999 -0.143999 -1.890000
v -3.149999 0.108001 -1.890000
v -3.150000 -0.143999 4.409999
v -3.150000 0.108001 4.409999
v -3.150000 -0.143999 3.150000
v -3.150000 0.108001 3.150000
v -3.149999 -0.143999 -3.150000
v -3.149999 0.108001 -3.150000
v -3.150000 -0.143999 -4.409999
v -3.150000 0.108001 -4.409999
v -3.150000 -0.143999 1.890000
v -3.150000 0.108001 1.890000
v -3.150000 -0.143999 0.630000
v -3.150000 0.108001 0.630000
v 3.149999 -0.144001 1.890000
v 3.149999 0.107999 1.890000
v 3.150000 -0.144001 0.630000
v 3.150000 0.107999 0.630000
v 3.150000 -0.144001 4.409999
v 3.150000 0.107999 4.409999
v 3.149999 -0.144001 3.150000
v 3.149999 0.107999 3.150000
vt 7.500000 0.200000
vt 7.500000 0.000000
vt 8.000000 0.000000
vt 8.000000 0.400000
vt 0.000000 0.400000
vt 0.500000 0.200000
vt 1.500000 0.200000
vt 2.500000 0.200000
vt -6.500000 4.500000
vt -6.500000 3.500000
vt -5.500000 3.500000
vt -5.500000 4.500000
vt 3.500000 0.200000
vt 4.500000 0.200000
vt 8.000000 0.400000
vt 5.500000 0.200000
vt 6.500000 0.200000
vt 0.500000 0.000000
vt 0.500000 0.400000
vt 0.000000 0.400000
vt 0.000000 0.000000
vt 1.000000 0.000000
vt 1.000000 0.200000
vt -0.000000 0.200000
vt -0.000000 0.000000
vt 7.500000 0.200000
vt -0.000000 0.000000
vt 0.500000 0.000000
vt 0.500000 0.200000
vt -0.000000 0.400000
vt 2.000000 0.000000
vt 2.000000 0.200000
vt -0.000000 0.200000
vt -0.000000 0.000000
vt 1.000000 0.000000
vt 1.000000 0.200000
vt 0.000000 0.200000
vt 0.000000 0.000000
vt 0.500000 -0.500000
vt 0.500000 0.500000
vt -0.500000 0.500000
vt -0.500000 -0.500000
vt 1.500000 0.200000
vt 2.500000 0.200000
vt 3.500000 0.200000
vt 4.500000 0.200000
vt 5.500000 0.200000
vt -0.500000 3.000000
vt -0.500000 1.000000
vt 0.500000 1.000000
vt 0.500000 3.000000
vt -3.500000 0.500000
vt -3.500000 1.000000
vt -4.500000 1.000000
vt -4.500000 0.500000
vt 6.500000 0.200000
vt 0.000000 0.000000
vt 0.500000 0.000000
vt 0.500000 0.200000
vt 0.000000 0.400000
vt -7.000000 1.000000
vt -7.000000 0.500000
vt -6.500000 0.500000
vt -6.500000 1.000000
vt -1.500000 3.500000
vt -1.500000 4.500000
vt -2.500000 4.500000
vt -2.500000 3.500000
vt 1.000000 0.000000
vt 1.000000 0.200000
vt -0.000000 0.200000
vt -0.000000 0.000000
vt -4.500000 3.500000
vt -5.500000 3.000000
vt -4.500000 3.000000
vt -2.500000 3.000000
vt -3.500000 3.500000
vt -3.500000 3.000000
vt 1.000000 0.000000
vt 1.000000 0.200000
vt -0.000000 0.200000
vt -0.000000 0.000000
vt 1.000000 0.000000
vt 1.000000 0.200000
vt -0.000000 0.200000
vt -0.000000 0.000000
vt -1.500000 3.000000
vt 2.000000 0.000000
vt 2.000000 0.200000
vt -0.000000 0.200000
vt -0.000000 0.000000
vt 0.500000 -0.500000
vt 0.500000 0.500000
vt -0.500000 0.500000
vt -0.500000 -0.500000
vt 3.500000 0.200000
vt 4.500000 0.200000
vt 0.000000 0.400000
vt 8.000000 0.400000
vt 5.500000 0.200000
vt 6.500000 0.200000
vt 1.000000 0.000000
vt 1.000000 0.200000
vt -0.000000 0.200000
vt -0.000000 0.000000
vt 7.500000 0.200000
vt 0.000000 0.000000
vt 0.500000 0.000000
vt 0.500000 0.200000
vt 7.500000 0.200000
vt 7.500000 0.000000
vt 8.000000 0.000000
vt 8.000000 0.400000
vt 1.500000 0.200000
vt 2.500000 0.200000
vt 0.500000 0.000000
vt 0.500000 0.400000
vt 0.000000 0.400000
vt 0.000000 0.000000
vt 6.500000 0.000000
vt 6.500000 0.200000
vt 5.500000 0.200000
vt 5.500000 0.000000
vt 1.500000 0.000000
vt 2.500000 0.000000
vt 0.000000 0.000000
vt 0.500000 0.000000
vt 3.500000 0.200000
vt 4.500000 0.200000
vt 7.500000 0.000000
vt 8.000000 0.000000
vt 1.500000 0.200000
vt 2.500000 0.200000
vt 5.500000 0.000000
vt 6.500000 0.000000
vt -5.500000 0.500000
vt -5.500000 1.000000
vt 0.500000 0.500000
vt -0.500000 0.500000
vt -0.500000 -0.500000
vt 0.500000 -0.500000
vt -2.500000 0.500000
vt -2.500000 1.000000
vt 0.500000 0.000000
vt 0.500000 0.400000
vt -0.000000 0.400000
vt -0.000000 0.000000
vt 1.000000 0.000000
vt 1.000000 0.200000
vt 0.000000 0.200000
vt 0.000000 0.000000
vt 0.500000 0.000000
vt 0.500000 0.400000
vt 0.000000 0.400000
vt 0.000000 0.000000
vt 0.500000 -0.500000
vt 0.500000 0.500000
vt -0.500000 0.500000
vt -0.500000 -0.500000
vt 2.000000 0.000000
vt 2.000000 0.200000
vt 0.000000 0.200000
vt 0.000000 0.000000
vt 0.500000 3.500000
vt -0.500000 3.500000
vt 2.000000 0.000000
vt 2.000000 0.200000
vt 0.000000 0.200000
vt 0.000000 0.000000
vt 5.500000 0.000000
vt 6.500000 0.000000
vt 4.500000 0.000000
vt 3.500000 0.000000
vt 1.000000 0.000000
vt 1.000000 0.200000
vt 0.000000 0.200000
vt 0.000000 0.000000
vt 1.000000 0.000000
vt 1.000000 0.200000
vt 0.000000 0.200000
vt 0.000000 0.000000
vt 0.500000 -0.500000
vt 0.500000 0.500000
vt -0.500000 0.500000
vt -0.500000 -0.500000
vt -1.500000 -0.500000
vt -1.500000 0.500000
vt -2.500000 -0.500000
vt -0.500000 1.000000
vt -0.500000 -1.000000
vt 0.500000 -1.000000
vt 0.500000 1.000000
vt 1.500000 0.000000
vt 2.500000 0.000000
vt 2.000000 0.000000
vt 2.000000 0.200000
vt 0.000000 0.200000
vt 0.000000 0.000000
vt 1.000000 0.000000
vt 1.000000 0.200000
vt 0.000000 0.200000
vt 0.000000 0.000000
vt -0.500000 1.000000
vt -0.500000 -1.000000
vt 0.500000 -1.000000
vt 0.500000 1.000000
vt 1.000000 0.000000
vt 1.000000 0.200000
vt -0.000000 0.200000
vt -0.000000 0.000000
vt 1.000000 0.000000
vt 1.000000 0.200000
vt 0.000000 0.200000
vt 0.000000 0.000000
vt 0.500000 -0.500000
vt 0.500000 0.500000
vt -0.500000 0.500000
vt -0.500000 -0.500000
vt 1.000000 0.000000
vt 1.000000 0.200000
vt -0.000000 0.200000
vt -0.000000 0.000000
vt 1.000000 0.000000
vt 1.000000 0.200000
vt -0.000000 0.200000
vt -0.000000 0.000000
vt 2.500000 0.000000
vt 1.500000 0.000000
vt 7.500000 0.000000
vt 8.000000 0.000000
vt 1.000000 0.000000
vt 1.000000 0.200000
vt -0.000000 0.200000
vt -0.000000 0.000000
vt 1.000000 0.000000
vt 1.000000 0.200000
vt -0.000000 0.200000
vt -0.000000 0.000000
vt 1.000000 0.000000
vt 1.000000 0.200000
vt -0.000000 0.200000
vt -0.000000 0.000000
vt -7.000000 3.500000
vt -7.000000 3.000000
vt -6.500000 3.000000
vt 1.000000 0.000000
vt 1.000000 0.200000
vt 0.000000 0.200000
vt 0.000000 0.000000
vt 1.000000 0.000000
vt 1.000000 0.200000
vt 0.000000 0.200000
vt 0.000000 0.000000
vt -1.500000 1.000000
vt 2.000000 0.000000
vt 2.000000 0.200000
vt -0.000000 0.200000
vt -0.000000 0.000000
vt -3.500000 -0.500000
vt -4.500000 -0.500000
vt 4.500000 0.000000
vt 3.500000 0.000000
vt 0.500000 -0.500000
vt 0.500000 0.500000
vt -0.500000 0.500000
vt -0.500000 -0.500000
vt 1.000000 0.000000
vt 1.000000 0.200000
vt 0.000000 0.200000
vt 0.000000 0.000000
vt 1.000000 3.000000
vt 1.000000 3.500000
vt -4.000000 0.250000
vt -4.000000 -0.250000
vt 4.000000 -0.250000
vt 4.000000 0.250000
vt -0.500000 1.000000
vt -0.500000 -1.000000
vt 0.500000 -1.000000
vt 0.500000 1.000000
vt 1.000000 0.000000
vt 1.000000 0.200000
vt 0.000000 0.200000
vt 0.000000 0.000000
vt 1.000000 0.000000
vt 1.000000 0.200000
vt 0.000000 0.200000
vt 0.000000 0.000000
vt -0.500000 4.500000
vt 0.500000 4.500000
vt 4.500000 0.000000
vt 3.500000 0.000000
vt 6.500000 0.000000
vt 5.500000 0.000000
vt 1.000000 0.000000
vt 1.000000 0.200000
vt 0.000000 0.200000
vt 0.000000 0.000000
vt 1.000000 0.500000
vt 1.000000 1.000000
vt 2.000000 0.000000
vt 2.000000 0.200000
vt 0.000000 0.200000
vt 0.000000 0.000000
vt 1.000000 0.000000
vt 1.000000 0.200000
vt 0.000000 0.200000
vt 0.000000 0.000000
vt 2.000000 0.000000
vt 2.000000 0.200000
vt -0.000000 0.200000
vt -0.000000 0.000000
vt -6.500000 -0.500000
vt -5.500000 -0.500000
vt -0.500000 1.000000
vt -0.500000 -1.000000
vt 0.500000 -1.000000
vt 0.500000 1.000000
vt 4.500000 0.000000
vt 3.500000 0.000000
vt 1.500000 0.000000
vt 2.500000 0.000000
vt 0.500000 -0.500000
vt 0.500000 0.500000
vt -0.500000 0.500000
vt -0.500000 -0.500000
vt 0.500000 -0.500000
vt 0.500000 0.500000
vt -0.500000 0.500000
vt -0.500000 -0.500000
vt -3.500000 4.500000
vt -4.500000 4.500000
vt -4.000000 0.250000
vt -4.000000 -0.250000
vt 4.000000 -0.250000
vt 4.000000 0.250000
vn -1.0000 0.0000 -0.0000
vn 1.0000 -0.0000 -0.0000
vn -0.0000 -1.0000 -0.0000
vn 0.0000 0.0000 -1.0000
vn 0.0000 0.0000 1.0000
vn 0.0000 1.0000 0.0000
usemtl Steel_-_Satin.064
s 1
f 37/1/1 38/2/1 23/3/1 24/4/1
f 4/5/2 2/6/2 5/7/2
f 4/5/2 5/7/2 6/8/2
f 99/9/3 86/10/3 85/11/3 97/12/3
f 6/8/2 9/13/2 4/5/2
f 4/5/2 9/13/2 10/14/2
f 4/5/2 10/14/2 11/15/2
f 11/15/2 10/14/2 12/16/2
f 11/15/2 12/16/2 13/17/2
f 80/18/4 77/19/4 54/20/4 60/21/4
f 89/22/1 90/23/1 92/24/1 91/25/1
f 13/17/2 18/26/2 11/15/2
f 21/27/1 40/28/1 39/29/1 22/30/1
f 25/31/5 27/32/5 56/33/5 57/34/5
f 103/35/4 104/36/4 79/37/4 88/38/4
f 79/39/6 104/40/6 102/41/6 73/42/6
f 27/43/1 28/44/1 22/30/1
f 22/30/1 28/44/1 29/45/1
f 22/30/1 29/45/1 24/4/1
f 24/4/1 29/45/1 30/46/1
f 24/4/1 30/46/1 31/47/1
f 67/48/3 35/49/3 38/50/3 68/51/3
f 17/52/3 32/53/3 26/54/3 15/55/3
f 31/47/1 36/56/1 24/4/1
f 24/4/1 36/56/1 37/1/1
f 27/43/1 22/30/1 39/29/1
f 80/57/1 86/58/1 81/59/1 77/60/1
f 21/61/3 19/62/3 20/63/3 40/64/3
f 71/65/3 101/66/3 103/67/3 88/68/3
f 41/69/5 42/70/5 13/71/5 14/72/5
f 84/73/3 85/11/3 57/74/3 58/75/3
f 49/76/3 88/68/3 87/77/3 50/78/3
f 109/79/5 110/80/5 2/81/5 1/82/5
f 85/83/5 82/84/5 98/85/5 97/86/5
f 66/87/3 71/65/3 88/68/3 49/76/3
f 34/88/5 31/89/5 65/90/5 66/91/5
f 74/92/6 96/93/6 94/94/6 75/95/6
f 51/96/2 52/97/2 53/98/2
f 53/98/2 52/97/2 54/99/2
f 54/99/2 52/97/2 55/100/2
f 54/99/2 55/100/2 56/101/2
f 76/102/5 75/103/5 94/104/5 93/105/5
f 56/101/2 59/106/2 54/99/2
f 62/107/2 68/108/2 63/109/2 53/98/2
f 75/110/1 76/111/1 69/112/1 70/113/1
f 53/98/2 63/109/2 64/114/2
f 53/98/2 64/114/2 65/115/2
f 62/116/5 53/117/5 70/118/5 69/119/5
f 65/115/2 51/96/2 53/98/2
f 72/120/1 74/121/1 73/122/1 71/123/1
f 5/7/2 8/124/2 7/125/2 6/8/2
f 73/122/1 74/121/1 70/113/1
f 70/113/1 74/121/1 75/110/1
f 2/6/2 4/5/2 3/126/2 1/127/2
f 77/60/1 78/128/1 70/113/1
f 70/113/1 78/128/1 79/129/1
f 70/113/1 79/129/1 73/122/1
f 59/106/2 61/130/2 60/131/2 54/99/2
f 77/60/1 81/59/1 82/132/1
f 77/60/1 82/132/1 83/133/1
f 12/16/2 15/134/2 14/135/2 13/17/2
f 83/133/1 78/128/1 77/60/1
f 14/136/3 15/55/3 26/54/3 25/137/3
f 1/138/3 8/139/3 111/140/3 109/141/3
f 16/142/3 33/143/3 32/53/3 17/52/3
f 3/144/5 4/145/5 24/146/5 23/147/5
f 91/148/4 92/149/4 83/150/4 84/151/4
f 21/152/4 22/153/4 11/154/4 19/155/4
f 108/156/6 9/157/6 6/158/6 106/159/6
f 61/160/4 59/161/4 39/162/4 40/163/4
f 68/51/3 76/164/3 72/165/3 67/48/3
f 40/64/3 20/63/3 14/136/3 25/137/3
f 67/166/4 64/167/4 36/168/4 35/169/4
f 55/100/2 58/170/2 57/171/2 56/101/2
f 50/172/2 52/97/2 51/96/2 49/173/2
f 93/174/1 94/175/1 96/176/1 95/177/1
f 95/178/4 96/179/4 74/180/4 72/181/4
f 48/182/6 12/183/6 10/184/6 46/185/6
f 105/186/3 7/187/3 16/142/3 107/188/3
f 67/48/3 72/165/3 71/65/3 66/87/3
f 56/189/6 27/190/6 39/191/6 59/192/6
f 64/114/2 67/193/2 66/194/2 65/115/2
f 49/195/4 51/196/4 30/197/4 33/198/4
f 15/199/4 12/200/4 48/201/4 47/202/4
f 65/203/6 31/204/6 30/205/6 51/206/6
f 97/207/1 98/208/1 100/209/1 99/210/1
f 99/211/4 100/212/4 81/213/4 86/214/4
f 81/215/6 100/216/6 98/217/6 82/218/6
f 71/219/5 73/220/5 102/221/5 101/222/5
f 101/223/1 102/224/1 104/225/1 103/226/1
f 26/227/1 28/44/1 27/43/1 25/228/1
f 18/26/2 20/229/2 19/230/2 11/15/2
f 105/231/5 106/232/5 6/233/5 7/234/5
f 1/138/3 38/50/3 35/49/3 8/139/3
f 87/235/5 78/236/5 90/237/5 89/238/5
f 45/239/5 46/240/5 10/241/5 17/242/5
f 80/243/3 60/244/3 61/245/3 86/10/3
f 8/246/4 5/247/4 112/248/4 111/249/4
f 111/250/2 112/251/2 110/252/2 109/253/2
f 8/139/3 35/49/3 34/254/3 7/187/3
f 32/255/5 29/256/5 52/257/5 50/258/5
f 45/259/3 17/52/3 15/55/3 47/260/3
f 88/261/1 79/129/1 78/128/1 87/262/1
f 44/263/6 18/264/6 13/265/6 42/266/6
f 86/10/3 61/245/3 57/74/3 85/11/3
f 20/267/4 18/268/4 44/269/4 43/270/4
f 62/271/3 69/272/3 76/164/3 68/51/3
f 70/273/6 53/274/6 54/275/6 77/276/6
f 61/245/3 40/64/3 25/137/3 57/74/3
f 52/277/6 29/278/6 28/279/6 55/280/6
f 16/281/4 9/282/4 108/283/4 107/284/4
f 43/285/2 44/286/2 42/287/2 41/288/2
f 95/289/3 72/165/3 76/164/3 93/290/3
f 33/291/1 30/46/1 29/45/1 32/292/1
f 35/293/1 36/56/1 31/47/1 34/294/1
f 107/295/2 108/296/2 106/297/2 105/298/2
f 32/53/3 50/78/3 58/75/3 26/54/3
f 3/299/3 23/300/3 38/50/3 1/138/3
f 58/301/4 55/302/4 28/303/4 26/304/4
f 50/78/3 87/77/3 84/73/3 58/75/3
f 47/305/2 48/306/2 46/307/2 45/308/2
f 38/309/5 37/310/5 63/311/5 68/312/5
f 34/254/3 66/87/3 49/76/3 33/143/3
f 20/63/3 43/313/3 41/314/3 14/136/3
f 63/315/6 37/316/6 36/317/6 64/318/6
f 17/319/2 10/14/2 9/13/2 16/320/2
f 7/187/3 34/254/3 33/143/3 16/142/3
f 82/132/1 85/321/1 84/322/1 83/133/1
f 83/323/6 92/324/6 90/325/6 78/326/6
f 112/327/6 5/328/6 2/329/6 110/330/6
f 87/77/3 89/331/3 91/332/3 84/73/3
f 24/333/6 4/334/6 11/335/6 22/336/6
