# Blender v2.93.0 OBJ File: 'w1 EXPORT FILE extra.blend'
# www.blender.org
mtllib Sand Tile 01.mtl
g Sand_Tile_01_Plane.002
v 76.200005 -1.745651 -76.200005
v 56.949734 0.826656 -66.200005
v 38.327652 -0.263444 -73.132172
v 19.221779 0.113145 -66.200005
v 76.200005 0.354993 -17.743099
v 69.267838 -2.709081 -39.942135
v 76.200005 -4.778082 -53.817707
v 17.325281 -2.263267 0.550052
v 10.739192 -1.706489 -25.572563
v 17.022280 -0.139815 -51.489948
v 32.732037 -1.045713 -7.584569
v 35.839554 -0.762368 -25.230757
v 42.960007 -2.119482 -47.178932
v 54.550262 0.479534 -12.821033
v 52.578293 -1.483287 -35.382099
v 63.303944 -1.419235 -53.333065
v 0.000000 -1.749571 -66.200005
v -76.200005 -1.745651 -76.200005
v -56.949726 0.826656 -66.200005
v -38.327644 -0.263444 -72.109558
v -19.221779 0.113145 -66.200005
v -0.083237 -1.207173 -44.651588
v -7.417528 -1.618130 -27.123505
v 4.392399 -1.307414 -6.273687
v -76.200005 0.354993 -17.743099
v -83.132179 -2.709081 -39.942135
v -76.200005 -4.778082 -53.817707
v -7.716368 -2.942010 -9.660406
v -24.634138 -3.471186 -29.225891
v -15.861056 -0.843086 -52.137745
v -23.775703 -2.798610 -15.135401
v -42.696743 -1.152283 -38.510780
v -35.011902 -2.177878 -57.199696
v -52.645721 0.194771 -8.803209
v -68.931664 -1.145399 -25.320786
v -57.118664 -1.230328 -43.130512
v 82.450432 -0.094021 0.000000
v 76.200005 -1.745651 76.200005
v 28.639814 -1.694352 13.005991
v 44.487995 0.851759 8.082051
v 64.138222 -1.042107 7.064265
v 56.949730 0.826656 86.200005
v 38.327644 -0.263444 79.267830
v 19.221777 0.113145 86.200005
v 76.200005 0.354993 17.743099
v 76.200005 -2.709081 39.942135
v 80.746086 -4.778082 53.817707
v 21.993410 -1.509996 26.846024
v 29.445942 -0.135403 46.516949
v 18.907104 -0.225466 66.373718
v 44.221504 0.528500 22.543388
v 47.517677 -0.179516 40.246811
v 40.799400 -1.760978 61.675358
v 56.728600 0.370967 21.464848
v 61.488712 -1.145399 35.420670
v 65.802773 -1.230328 52.816593
v 14.231162 -1.142151 12.500170
v -69.949577 -0.094021 0.000000
v 0.000000 -1.749571 86.200005
v -76.200005 -1.745651 76.200005
v -4.518528 -1.725600 6.211338
v -28.214245 0.659206 -0.520904
v -49.447315 -1.436255 4.669793
v -56.949730 0.826656 86.200005
v -38.327644 -0.263444 80.290443
v -19.221777 0.113145 86.200005
v 0.735023 -0.553889 59.618389
v 2.480204 -0.635366 44.496368
v 0.204314 -0.980003 28.619226
v -76.200005 0.354993 17.743099
v -76.200005 -2.709081 39.942135
v -71.653931 -4.778082 53.817707
v -9.474339 -1.696940 20.968195
v -16.822342 -0.359993 41.352428
v -10.735646 -0.259426 67.802750
v -26.972017 -0.050722 12.978212
v -35.659927 -2.560507 32.528870
v -31.130579 -2.183745 60.245136
v -52.481220 -1.570078 20.766262
v -56.414028 -2.140083 44.116894
v -57.659138 -1.419235 63.882431
vt 0.750000 0.750000
vt 1.000000 1.000000
vt 0.750000 1.000000
vt 0.250000 0.750000
vt 0.000000 1.000000
vt 0.000000 0.750000
vt 0.500000 1.000000
vt 0.250000 1.000000
vt 0.500000 0.750000
vt 0.500000 0.000000
vt 0.750000 0.250000
vt 0.500000 0.250000
vt 0.500000 0.500000
vt 0.750000 0.500000
vt 0.250000 0.000000
vt 0.250000 0.250000
vt 0.250000 0.500000
vt 0.000000 0.000000
vt 0.000000 0.250000
vt 0.000000 0.500000
vt 1.000000 0.000000
vt 0.750000 0.000000
vt 1.000000 0.250000
vt 1.000000 0.500000
vt 0.750000 0.750000
vt 1.000000 1.000000
vt 1.000000 0.750000
vt 0.250000 0.750000
vt 0.250000 1.000000
vt 0.500000 0.750000
vt 0.750000 1.000000
vt 0.500000 0.000000
vt 0.750000 0.250000
vt 0.750000 0.000000
vt 0.500000 0.500000
vt 0.500000 0.250000
vt 0.750000 0.500000
vt 0.250000 0.000000
vt 0.250000 0.500000
vt 0.250000 0.250000
vt 1.000000 0.250000
vt 1.000000 0.000000
vt 1.000000 0.500000
vt 0.750000 0.750000
vt 1.000000 1.000000
vt 1.000000 0.750000
vt 0.000000 1.000000
vt 0.250000 0.750000
vt 0.000000 0.750000
vt 0.250000 1.000000
vt 0.500000 0.750000
vt 0.750000 1.000000
vt 0.500000 0.250000
vt 0.500000 0.500000
vt 0.750000 0.250000
vt 0.750000 0.500000
vt 0.250000 0.250000
vt 0.250000 0.500000
vt 0.000000 0.500000
vt 0.000000 0.250000
vt 1.000000 0.250000
vt 1.000000 0.500000
vt 0.750000 0.750000
vt 1.000000 1.000000
vt 0.750000 1.000000
vt 0.250000 0.750000
vt 0.500000 0.750000
vt 0.250000 1.000000
vt 0.500000 1.000000
vt 0.750000 0.250000
vt 0.500000 0.250000
vt 0.500000 0.500000
vt 0.750000 0.500000
vt 0.250000 0.250000
vt 0.250000 0.500000
vt 1.000000 0.250000
vt 1.000000 0.500000
vt 1.000000 0.750000
vt 0.500000 1.000000
vt 0.500000 1.000000
vt 1.000000 0.750000
vn 0.1751 0.9809 0.0847
vn -0.0724 0.9971 -0.0254
vn 0.0274 0.9994 0.0213
vn -0.0905 0.9921 0.0871
vn -0.0834 0.9948 -0.0579
vn -0.0688 0.9976 0.0039
vn 0.0069 0.9982 -0.0595
vn -0.0695 0.9974 0.0176
vn -0.0597 0.9976 0.0363
vn 0.0634 0.9951 0.0755
vn 0.1077 0.9920 -0.0652
vn 0.0065 0.9998 -0.0186
vn 0.0028 0.9997 0.0246
vn -0.0187 0.9962 0.0852
vn -0.0137 0.9962 -0.0855
vn 0.0885 0.9945 0.0564
vn -0.2511 0.9592 0.1300
vn 0.0349 0.9991 -0.0250
vn -0.0928 0.9916 0.0896
vn 0.0992 0.9911 0.0891
vn -0.0646 0.9887 0.1350
vn 0.1007 0.9949 -0.0114
vn -0.0032 1.0000 -0.0069
vn 0.1501 0.9714 -0.1842
vn 0.0257 0.9985 -0.0492
vn 0.1282 0.9917 -0.0017
vn -0.0342 0.9994 0.0091
vn -0.1532 0.9856 0.0721
vn -0.1045 0.9943 -0.0204
vn 0.0648 0.9979 0.0024
vn 0.0594 0.9885 -0.1388
vn -0.0623 0.9970 -0.0461
vn 0.2355 0.9683 -0.0834
vn -0.0344 0.9984 0.0440
vn 0.0661 0.9976 -0.0181
vn -0.0473 0.9961 -0.0739
vn 0.0971 0.9950 0.0240
vn 0.0158 0.9992 0.0370
vn 0.0651 0.9978 -0.0113
vn -0.1891 0.9764 -0.1038
vn -0.0975 0.9947 -0.0326
vn 0.0313 0.9960 0.0833
vn 0.0381 0.9993 0.0050
vn 0.0223 0.9994 -0.0249
vn -0.0182 0.9998 -0.0051
vn -0.0709 0.9962 -0.0502
vn 0.0202 0.9947 0.1012
vn 0.1127 0.9934 -0.0231
vn -0.0820 0.9919 -0.0972
vn 0.0588 0.9972 0.0465
vn -0.0739 0.9958 -0.0542
vn 0.0316 0.9960 -0.0841
vn -0.0422 0.9975 0.0563
vn -0.0234 0.9928 0.1171
vn 0.0116 0.9998 -0.0155
vn 0.0820 0.9963 0.0256
vn 0.1059 0.9940 -0.0270
vn -0.1011 0.9947 0.0195
vn -0.0391 0.9983 -0.0441
vn 0.0182 0.9995 -0.0243
vn 0.0149 0.9999 -0.0037
vn 0.0608 0.9980 0.0198
vn 0.0761 0.9964 0.0371
vn -0.0208 0.9991 -0.0377
vn 0.2545 0.9583 0.1298
vn -0.0965 0.9953 0.0027
vn 0.0661 0.9960 0.0594
vn 0.0158 0.9863 0.1644
vn 0.0974 0.9948 0.0292
vn -0.0092 0.9963 -0.0859
vn -0.0407 0.9990 -0.0207
vn -0.1588 0.9873 -0.0004
vn -0.0377 0.9992 0.0094
vn -0.0365 0.9966 -0.0735
vn 0.0411 0.9957 -0.0828
vn 0.0721 0.9974 0.0031
vn -0.0422 0.9979 0.0501
vn 0.0106 0.9997 0.0215
vn 0.0326 0.9887 -0.1466
vn 0.2513 0.9677 -0.0187
vn -0.1758 0.9807 0.0862
vn 0.0964 0.9943 0.0446
vn -0.0631 0.9880 0.1409
vn 0.0918 0.9900 0.1067
vn 0.0541 0.9753 -0.2143
vn -0.0270 0.9982 -0.0543
vn 0.0107 0.9987 -0.0504
vn 0.0375 0.9958 -0.0839
vn 0.1557 0.9862 -0.0566
vn -0.0902 0.9928 0.0793
vn -0.1193 0.9915 -0.0519
vn -0.1155 0.9906 0.0731
vn -0.0264 0.9942 0.1039
vn -0.0426 0.9906 0.1300
vn 0.0466 0.9875 -0.1508
vn -0.0784 0.9796 -0.1852
vn 0.1170 0.9927 -0.0301
vn -0.0964 0.9952 -0.0155
vn -0.0117 0.9962 -0.0864
vn -0.0254 0.9958 -0.0883
vn 0.0043 0.9954 -0.0955
vn 0.0947 0.9926 0.0755
vn 0.0055 0.9971 0.0753
vn -0.0873 0.9960 0.0207
vn 0.0153 0.9992 0.0371
vn 0.0799 0.9957 0.0469
vn 0.0253 0.9996 0.0119
vn -0.0137 0.9978 -0.0646
vn -0.0154 0.9999 -0.0072
vn -0.0198 0.9940 -0.1077
vn 0.0631 0.9886 0.1365
vn 0.2259 0.9716 0.0709
vn -0.1219 0.9800 -0.1575
vn 0.0964 0.9950 0.0243
vn 0.0089 0.9957 -0.0922
vn 0.0149 0.9948 -0.1006
vn -0.1008 0.9948 -0.0107
vn 0.0374 0.9988 0.0307
vn 0.0240 0.9991 -0.0349
vn 0.0876 0.9952 0.0443
vn -0.1446 0.9875 0.0625
vn -0.1188 0.9929 0.0059
vn -0.0274 0.9996 -0.0111
vn -0.0173 0.9973 -0.0716
vn 0.0197 0.9998 -0.0083
vn 0.0805 0.9967 0.0031
vn -0.0572 0.9890 0.1365
vn -0.3992 0.8787 0.2618
usemtl None
s off
f 16/1/1 1/2/1 2/3/1
f 10/4/2 17/5/2 22/6/2
f 10/4/3 3/7/3 4/8/3
f 13/9/4 2/3/4 3/7/4
f 40/10/5 14/11/5 11/12/5
f 14/11/6 12/13/6 11/12/6
f 15/14/7 13/9/7 12/13/7
f 39/15/8 11/12/8 8/16/8
f 11/12/9 9/17/9 8/16/9
f 9/17/10 13/9/10 10/4/10
f 57/18/11 8/16/11 24/19/11
f 24/19/12 9/17/12 23/20/12
f 9/17/13 22/6/13 23/20/13
f 37/21/14 14/11/14 41/22/14
f 5/23/15 15/14/15 14/11/15
f 6/24/16 16/1/16 15/14/16
f 36/25/17 18/26/17 27/27/17
f 17/5/18 30/28/18 22/6/18
f 21/29/19 33/30/19 30/28/19
f 33/30/20 19/31/20 36/25/20
f 62/32/21 34/33/21 63/34/21
f 32/35/22 34/33/22 31/36/22
f 32/35/23 36/25/23 35/37/23
f 61/38/24 31/36/24 62/32/24
f 29/39/25 31/36/25 28/40/25
f 29/39/26 33/30/26 32/35/26
f 24/19/27 61/38/27 57/18/27
f 23/20/28 28/40/28 24/19/28
f 22/6/29 29/39/29 23/20/29
f 63/34/30 25/41/30 58/42/30
f 35/37/31 25/41/31 34/33/31
f 36/25/32 26/43/32 35/37/32
f 56/44/33 38/45/33 47/46/33
f 59/47/34 50/48/34 67/49/34
f 44/50/35 53/51/35 50/48/35
f 53/51/36 42/52/36 56/44/36
f 51/53/37 41/22/37 40/10/37
f 52/54/38 54/55/38 51/53/38
f 52/54/39 56/44/39 55/56/39
f 48/57/40 40/10/40 39/15/40
f 49/58/41 51/53/41 48/57/41
f 49/58/42 53/51/42 52/54/42
f 57/18/43 48/57/43 39/15/43
f 68/59/44 48/57/44 69/60/44
f 68/59/45 50/48/45 49/58/45
f 41/22/46 45/61/46 37/21/46
f 55/56/47 45/61/47 54/55/47
f 56/44/48 46/62/48 55/56/48
f 81/63/49 60/64/49 64/65/49
f 75/66/50 59/47/50 67/49/50
f 78/67/51 66/68/51 75/66/51
f 78/67/52 64/65/52 65/69/52
f 62/32/53 79/70/53 76/71/53
f 79/70/54 77/72/54 76/71/54
f 80/73/55 78/67/55 77/72/55
f 61/38/56 76/71/56 73/74/56
f 76/71/57 74/75/57 73/74/57
f 74/75/58 78/67/58 75/66/58
f 57/18/59 73/74/59 69/60/59
f 69/60/60 74/75/60 68/59/60
f 74/75/61 67/49/61 68/59/61
f 58/42/62 79/70/62 63/34/62
f 70/76/63 80/73/63 79/70/63
f 71/77/64 81/63/64 80/73/64
f 16/1/65 7/78/65 1/2/65
f 10/4/66 4/8/66 17/5/66
f 10/4/67 13/9/67 3/7/67
f 13/9/68 16/1/68 2/3/68
f 40/10/69 41/22/69 14/11/69
f 14/11/70 15/14/70 12/13/70
f 15/14/71 16/1/71 13/9/71
f 39/15/72 40/10/72 11/12/72
f 11/12/73 12/13/73 9/17/73
f 9/17/74 12/13/74 13/9/74
f 57/18/75 39/15/75 8/16/75
f 24/19/76 8/16/76 9/17/76
f 9/17/77 10/4/77 22/6/77
f 37/21/78 5/23/78 14/11/78
f 5/23/79 6/24/79 15/14/79
f 6/24/80 7/78/80 16/1/80
f 36/25/81 19/31/81 18/26/81
f 17/5/82 21/29/82 30/28/82
f 21/29/83 20/79/83 33/30/83
f 33/30/84 20/79/84 19/31/84
f 62/32/85 31/36/85 34/33/85
f 32/35/86 35/37/86 34/33/86
f 32/35/87 33/30/87 36/25/87
f 61/38/88 28/40/88 31/36/88
f 29/39/89 32/35/89 31/36/89
f 29/39/90 30/28/90 33/30/90
f 24/19/91 28/40/91 61/38/91
f 23/20/92 29/39/92 28/40/92
f 22/6/93 30/28/93 29/39/93
f 63/34/94 34/33/94 25/41/94
f 35/37/95 26/43/95 25/41/95
f 36/25/96 27/27/96 26/43/96
f 56/44/97 42/52/97 38/45/97
f 59/47/98 44/50/98 50/48/98
f 44/50/99 43/80/99 53/51/99
f 53/51/100 43/80/100 42/52/100
f 51/53/101 54/55/101 41/22/101
f 52/54/102 55/56/102 54/55/102
f 52/54/103 53/51/103 56/44/103
f 48/57/104 51/53/104 40/10/104
f 49/58/105 52/54/105 51/53/105
f 49/58/106 50/48/106 53/51/106
f 57/18/107 69/60/107 48/57/107
f 68/59/108 49/58/108 48/57/108
f 68/59/109 67/49/109 50/48/109
f 41/22/110 54/55/110 45/61/110
f 55/56/111 46/62/111 45/61/111
f 56/44/112 47/46/112 46/62/112
f 81/63/113 72/81/113 60/64/113
f 75/66/114 66/68/114 59/47/114
f 78/67/115 65/69/115 66/68/115
f 78/67/116 81/63/116 64/65/116
f 62/32/117 63/34/117 79/70/117
f 79/70/118 80/73/118 77/72/118
f 80/73/119 81/63/119 78/67/119
f 61/38/120 62/32/120 76/71/120
f 76/71/121 77/72/121 74/75/121
f 74/75/122 77/72/122 78/67/122
f 57/18/123 61/38/123 73/74/123
f 69/60/124 73/74/124 74/75/124
f 74/75/125 75/66/125 67/49/125
f 58/42/126 70/76/126 79/70/126
f 70/76/127 71/77/127 80/73/127
f 71/77/128 72/81/128 81/63/128
