# Blender v2.93.0 OBJ File: 'w1 EXPORT FILE extra.blend'
# www.blender.org
mtllib Canyon M Base.mtl
g Canyon_1_Base
v 59.069416 19.469240 12.639233
v 54.749523 24.146318 11.764269
v 52.418037 19.469242 22.611326
v 50.235455 24.146320 18.532000
v 32.876656 24.146320 18.531998
v 31.964716 19.469242 22.611324
v 24.725185 24.146320 14.695810
v 21.225637 19.469240 17.557364
v 23.462343 24.146318 9.533978
v 19.347086 19.469238 9.878889
v 52.803619 16.346321 23.332001
v 59.832600 16.346319 12.793809
v 31.803621 16.346321 23.331999
v 20.607401 16.346319 18.062901
v 18.620064 16.346317 9.939822
v 25.503365 10.469242 20.367014
v 21.528952 15.146320 18.496599
v 18.335974 10.469244 27.057695
v 16.727850 15.146321 22.978369
v 8.050811 10.469244 27.057695
v 9.450067 15.146321 22.978369
v -0.667737 10.469242 20.278996
v 2.931806 15.146319 17.910400
v 0.926472 15.146318 10.188084
v -3.328514 10.469240 10.032634
v 18.620062 7.346322 27.778372
v 26.205500 7.346320 20.697451
v 7.803618 7.346322 27.778372
v -1.303644 7.346320 20.697447
v -4.080235 7.346318 10.005171
v 59.832600 0.146318 12.793813
v 52.803619 0.146321 23.332005
v 31.803621 0.146321 23.332003
v 20.607401 15.146320 18.062901
v 26.205500 0.146320 20.697453
v 18.620064 15.146317 9.939822
v 18.620062 0.146322 27.778374
v 7.803618 0.146322 27.778374
v -1.303644 0.146320 20.697449
v -4.080235 0.146317 10.005173
v -102.651970 31.946321 25.999016
v -118.444878 31.946320 18.608858
v -103.018570 31.092508 27.466574
v -123.337547 31.092506 17.958485
v -61.597420 31.092505 9.627998
v -63.240368 31.946318 10.935213
v -63.075138 31.092508 22.612806
v -64.469391 31.946321 21.734770
v -70.141777 31.946318 10.149812
v -70.186813 31.092505 8.650498
v -73.279526 31.092510 29.011837
v -73.670891 31.946321 27.504892
v -124.376968 30.146320 17.820318
v -114.948341 30.146320 16.169136
v -70.196381 30.146318 8.331979
v -61.248383 30.146318 9.350289
v -62.778931 30.146322 22.799341
v -73.196388 30.146324 29.331980
v -103.096458 30.146322 27.778349
v -60.909161 30.146318 6.369530
v -61.248383 27.146318 9.350290
v -62.778931 0.146320 22.799349
v -61.248383 0.146317 9.350297
v -73.196388 0.146322 29.331987
v -103.096458 0.146322 27.778357
v -124.376968 27.146320 17.820320
v -124.376968 0.146319 17.820326
v -148.196381 27.146320 14.331969
v -148.196381 30.146318 11.299968
v -148.196381 0.146318 14.331976
v -148.196381 30.146309 -45.668034
v -148.196381 0.146304 -45.668026
v 151.803635 27.146320 14.332014
v 151.803635 30.146318 11.322038
v 114.108841 27.146318 11.255618
v 114.231049 30.146318 8.255617
v 75.326622 27.146318 11.255612
v 75.178070 30.146318 8.255611
v 59.832600 27.146320 12.793806
v 59.985569 30.146318 9.763869
v 37.803623 27.146318 8.331996
v 37.979626 30.146318 5.306727
v 11.185926 27.146318 10.562895
v 11.115157 30.146318 7.558307
v -19.346397 27.146318 9.447439
v -19.651196 30.146318 6.434303
v -32.447960 27.146320 12.627870
v -32.638004 30.146318 9.586875
v 151.803635 0.146318 14.332021
v 151.803635 30.146309 -45.667988
v 151.803635 0.146304 -45.667980
v 114.108841 0.146318 11.255625
v 75.326622 0.146318 11.255619
v 37.803623 24.146318 8.331997
v 11.185926 15.146318 10.562898
v -19.346397 0.146317 9.447446
v -32.447960 0.146318 12.627876
vt 0.392949 0.183895
vt 0.392949 0.183895
vt 0.392949 0.183895
vt 0.392949 0.183895
vt 0.392949 0.183895
vt 0.392949 0.183895
vt 0.392949 0.183895
vt 0.392949 0.183895
vt 0.392949 0.183895
vt 0.392949 0.183895
vt 0.392949 0.183895
vt 0.392949 0.183895
vt 0.392949 0.183895
vt 0.392949 0.183895
vt 0.392949 0.183895
vt 0.392949 0.183895
vt 0.392949 0.183895
vt 0.392949 0.183895
vt 0.392949 0.183895
vt 0.392949 0.183895
vt 0.392949 0.183895
vt 0.392949 0.183895
vt 0.392949 0.183895
vt 0.392949 0.183895
vt 0.392949 0.183895
vt 0.392949 0.183895
vt 0.392949 0.183895
vt 0.392949 0.183895
vt 0.392949 0.183895
vt 0.392949 0.183895
vt 0.392949 0.183895
vt 0.392949 0.183895
vt 0.392949 0.183895
vt 0.392949 0.183895
vt 0.392949 0.183895
vt 0.392949 0.183895
vt 0.392949 0.183895
vt 0.392949 0.183895
vt 0.392949 0.183895
vt 0.392949 0.183895
vt 0.392949 0.183895
vt 0.392949 0.183895
vt 0.392949 0.183895
vt 0.392949 0.183895
vt 0.392949 0.183895
vt 0.392949 0.183895
vt 0.392949 0.183895
vt 0.392949 0.183895
vt 0.392949 0.183895
vt 0.392949 0.183895
vt 0.392949 0.183895
vt 0.392949 0.183895
vt 0.392949 0.183895
vt 0.392949 0.183895
vt 0.392949 0.183895
vt 0.392949 0.183895
vt 0.392949 0.183895
vt 0.392949 0.183895
vt 0.392949 0.183895
vt 0.392949 0.183895
vt 0.392949 0.183895
vt 0.392949 0.183895
vt 0.392949 0.183895
vt 0.392949 0.183895
vt 0.392949 0.183895
vt 0.392949 0.183895
vt 0.392949 0.183895
vt 0.392949 0.183895
vt 0.392949 0.183895
vt 0.392949 0.183895
vt 0.392949 0.183895
vt 0.392949 0.183895
vt 0.392949 0.183895
vt 0.392949 0.183895
vt 0.392949 0.183895
vt 0.392949 0.183895
vt 0.392949 0.183895
vt 0.392949 0.183895
vt 0.392949 0.183895
vt 0.392949 0.183895
vt 0.392949 0.183895
vt 0.392949 0.183895
vt 0.392949 0.183895
vt 0.392949 0.183895
vt 0.392949 0.183895
vt 0.392949 0.183895
vt 0.392949 0.183895
vt 0.392949 0.183895
vt 0.392949 0.183895
vt 0.392949 0.183895
vt 0.392949 0.183895
vt 0.392949 0.183895
vt 0.392949 0.183895
vt 0.392949 0.183895
vt 0.392949 0.183895
vt 0.392949 0.183895
vt 0.392949 0.183895
vn 0.0988 0.0000 0.9951
vn 0.5143 0.6573 0.5509
vn 0.9426 0.3162 0.1073
vn -0.7294 0.6573 0.1894
vn 0.9936 0.0000 0.1131
vn 0.6649 0.2249 0.7123
vn -0.0492 0.3162 0.9474
vn 0.0591 0.7071 0.7046
vn 1.0000 -0.0000 0.0000
vn 0.7071 -0.0000 -0.7071
vn 0.5774 0.5773 -0.5774
vn -1.0000 0.0000 0.0000
vn -0.5774 0.5774 -0.5774
vn -0.0000 1.0000 -0.0000
vn -0.7071 -0.0000 -0.7071
vn -0.0000 0.6573 0.7536
vn -0.3209 0.6573 0.6819
vn -0.0259 0.8669 0.4979
vn -0.1404 0.7071 0.6930
vn -0.0000 0.2249 0.9744
vn -0.4149 0.2249 0.8816
vn -0.5981 0.2249 0.7692
vn -0.0000 0.0000 1.0000
vn 0.8319 0.0000 0.5549
vn -0.4258 0.0000 0.9048
vn -0.9714 0.0000 0.2376
vn 0.6824 0.0000 0.7310
vn -0.1131 0.0000 0.9936
vn 0.5313 0.0000 0.8472
vn -0.2113 0.8669 0.4516
vn -0.2113 0.8669 0.4515
vn 0.4953 0.8669 0.0564
vn -0.0860 0.8669 -0.4911
vn 0.0564 0.8669 -0.4953
vn -0.4626 0.6573 0.5950
vn -0.1636 0.3162 -0.9345
vn -0.7320 0.6573 0.1791
vn -0.4021 0.3162 0.8593
vn 0.1668 0.7071 0.6872
vn -0.4238 0.0000 0.9057
vn -0.0258 0.7071 0.7066
vn -0.1725 -0.0000 -0.9850
vn -0.1025 0.7071 0.6996
vn -0.6138 0.0000 0.7895
vn 0.6270 0.6573 0.4182
vn -0.9465 0.2249 0.2316
vn 0.8106 0.2249 0.5407
vn -0.9431 0.2249 0.2449
vn 0.0699 0.7071 0.7036
vn -0.0519 0.0000 0.9987
vn -0.0813 0.0000 0.9967
vn 0.2649 0.8669 0.4224
vn -0.1985 0.0000 0.9801
vn 0.0835 0.0000 0.9965
vn -0.0365 0.0000 0.9993
vn -0.0800 0.7071 0.7026
vn -0.0575 0.7071 0.7048
vn -0.0000 0.7071 0.7071
vn 0.2359 0.0000 0.9718
vn -0.1449 0.0000 0.9894
vn 0.5040 0.3162 0.8037
vn 0.1073 0.3162 -0.9426
vn -0.0000 -1.0000 0.0000
vn -0.9679 0.0000 0.2513
usemtl Material
s 1
f 12/1/1 31/2/1 93/3/1 77/4/1
f 79/5/1 12/1/1 77/4/1
s 2
f 17/6/2 19/7/2 18/8/2 16/9/2
s 3
f 57/10/3 56/11/3 45/12/3 47/13/3
s 4
f 24/14/4 25/15/4 22/16/4 23/17/4
s 5
f 62/18/5 63/19/5 61/20/5 57/10/5
f 60/21/5 56/11/5 61/20/5
f 61/20/5 56/11/5 57/10/5
s 6
f 26/22/6 27/23/6 16/9/6 18/8/6
s 7
f 59/24/7 58/25/7 51/26/7 43/27/7
s 8
f 81/28/8 82/29/8 84/30/8 83/31/8
s 9
f 89/32/9 91/33/10 90/34/11 74/35/9
f 68/36/12 69/37/12 70/38/12
f 90/34/11 71/39/13 69/37/14 54/40/14 55/41/14 56/11/14 60/21/14 88/42/14 86/43/14 82/29/14 80/44/14 78/45/14 76/46/14 74/35/14
f 73/47/9 89/32/9 74/35/9
f 71/39/13 72/48/15 70/38/12 69/37/12
f 84/30/14 82/29/14 86/43/14
f 72/48/15 71/39/13 90/34/11 91/33/10
s 10
f 6/49/16 3/50/16 4/51/16 5/52/16
s 11
f 7/53/17 8/54/17 6/49/17 5/52/17
s 12
f 52/55/18 41/56/18 43/27/18 51/26/18
s 13
f 80/44/19 82/29/19 81/28/19 79/5/19
s 14
f 13/57/20 11/58/20 3/50/20 6/49/20
s 15
f 14/59/21 13/57/21 6/49/21 8/54/21
s 16
f 22/16/22 29/60/22 28/61/22 20/62/22
s 17
f 77/4/23 93/3/23 92/63/23 75/64/23
s 18
f 11/58/24 32/65/24 31/2/24 12/1/24
s 19
f 14/59/25 17/6/25 13/57/25
f 13/57/25 17/6/25 16/9/25
f 13/57/25 16/9/25 27/23/25
f 14/59/25 34/66/25 17/6/25
f 35/67/25 33/68/25 27/23/25
f 27/23/25 33/68/25 13/57/25
s 20
f 13/57/23 33/68/23 32/65/23 11/58/23
s 21
f 15/69/26 36/70/26 34/66/26 14/59/26
s 22
f 26/22/27 37/71/27 35/67/27 27/23/27
s 23
f 61/20/28 63/19/28 97/72/28 87/73/28
s 24
f 58/25/29 64/74/29 62/18/29 57/10/29
s 25
f 41/56/30 42/75/31 43/27/30
f 43/27/30 42/75/31 44/76/31
s 26
f 45/12/32 46/77/32 47/13/32
f 47/13/32 46/77/32 48/78/32
s 27
f 42/75/33 49/79/33 44/76/33
f 44/76/33 49/79/33 50/80/33
s 28
f 50/80/34 49/79/34 45/12/34
f 45/12/34 49/79/34 46/77/34
s 29
f 95/81/14 21/82/14 19/7/14 34/66/14
f 17/6/14 34/66/14 19/7/14
f 21/82/14 95/81/14 23/17/14
f 23/17/14 95/81/14 24/14/14
f 34/66/14 36/70/14 95/81/14
s 30
f 20/62/35 21/82/35 23/17/35 22/16/35
s 31
f 53/83/36 44/76/36 54/40/36
f 54/40/36 44/76/36 50/80/36
f 54/40/36 50/80/36 55/41/36
s 32
f 9/84/37 10/85/37 8/54/37 7/53/37
s 33
f 19/7/16 21/82/16 20/62/16 18/8/16
s 34
f 46/77/14 49/79/14 48/78/14
f 48/78/14 49/79/14 41/56/14
f 48/78/14 41/56/14 52/55/14
f 49/79/14 42/75/14 41/56/14
s 35
f 28/61/20 26/22/20 18/8/20 20/62/20
s 36
f 43/27/38 44/76/38 59/24/38
f 59/24/38 44/76/38 53/83/38
s 37
f 85/86/39 86/43/39 88/42/39 87/73/39
s 38
f 53/83/40 66/87/40 59/24/40
f 66/87/40 67/88/40 65/89/40 59/24/40
s 39
f 84/30/41 86/43/41 85/86/41 83/31/41
s 40
f 53/83/42 54/40/42 66/87/42
s 41
f 66/87/43 54/40/43 68/36/43
f 68/36/43 54/40/43 69/37/43
s 42
f 29/60/44 39/90/44 38/91/44 28/61/44
s 43
f 2/92/45 4/51/45 3/50/45 1/93/45
s 44
f 10/85/46 15/69/46 14/59/46 8/54/46
s 45
f 11/58/47 12/1/47 1/93/47 3/50/47
s 46
f 25/15/48 30/94/48 29/60/48 22/16/48
s 47
f 77/4/49 78/45/49 80/44/49 79/5/49
s 48
f 59/24/50 65/89/50 64/74/50 58/25/50
s 49
f 75/64/51 92/63/51 89/32/51 73/47/51
s 50
f 47/13/52 48/78/52 52/55/52 51/26/52
s 51
f 81/28/53 2/92/53 79/5/53
f 79/5/53 2/92/53 1/93/53
f 79/5/53 1/93/53 12/1/53
f 81/28/53 94/95/53 2/92/53
s 52
f 94/95/54 81/28/54 9/84/54
f 9/84/54 81/28/54 83/31/54
f 9/84/54 83/31/54 10/85/54
f 10/85/54 83/31/54 95/81/54
f 10/85/54 95/81/54 15/69/54
f 15/69/54 95/81/54 36/70/54
s 53
f 95/81/55 83/31/55 24/14/55
f 24/14/55 83/31/55 85/86/55
f 24/14/55 85/86/55 25/15/55
f 25/15/55 85/86/55 96/96/55
f 25/15/55 96/96/55 30/94/55
f 30/94/55 96/96/55 40/97/55
s 54
f 61/20/56 87/73/56 88/42/56 60/21/56
s 55
f 74/35/57 76/46/57 75/64/57 73/47/57
s 56
f 76/46/58 78/45/58 77/4/58 75/64/58
s 57
f 94/95/14 5/52/14 4/51/14 2/92/14
f 94/95/14 9/84/14 7/53/14 5/52/14
s 58
f 28/61/23 38/91/23 37/71/23 26/22/23
s 59
f 87/73/59 97/72/59 96/96/59 85/86/59
s 60
f 68/36/60 70/38/60 67/88/60 66/87/60
s 61
f 58/25/61 57/10/61 47/13/61 51/26/61
s 62
f 56/11/62 55/41/62 50/80/62 45/12/62
s 63
f 89/32/63 92/63/63 91/33/63
f 91/33/63 92/63/63 93/3/63
f 91/33/63 93/3/63 40/97/63
f 40/97/63 93/3/63 31/2/63
f 40/97/63 31/2/63 35/67/63
f 35/67/63 31/2/63 32/65/63
f 35/67/63 32/65/63 33/68/63
f 37/71/63 38/91/63 35/67/63
f 35/67/63 38/91/63 39/90/63
f 35/67/63 39/90/63 40/97/63
f 40/97/63 96/96/63 91/33/63
f 91/33/63 96/96/63 72/48/63
f 72/48/63 96/96/63 63/19/63
f 72/48/63 63/19/63 70/38/63
f 70/38/63 63/19/63 67/88/63
f 67/88/63 63/19/63 62/18/63
f 67/88/63 62/18/63 65/89/63
f 65/89/63 62/18/63 64/74/63
f 96/96/63 97/72/63 63/19/63
s 64
f 30/94/64 40/97/64 39/90/64 29/60/64
