# Blender v2.93.0 OBJ File: 'w1 EXPORT FILE extra.blend'
# www.blender.org
mtllib Canyon M Base Ramp.mtl
g Canyon_1_Base_Ramp
v 77.984085 27.000004 10.194302
v 77.984085 30.000004 7.473290
v 57.483665 27.000004 7.631747
v 57.254444 30.000004 4.882081
v 77.984085 0.000002 10.194308
v 57.483665 0.000002 7.631753
v -87.015923 27.000004 10.194277
v -80.333038 27.000004 7.100956
v -87.015923 30.000004 7.219064
v -83.703804 30.000004 5.685973
v 61.660973 29.999994 -31.119164
v 35.766685 30.000002 -1.064639
v 40.910461 30.000004 7.944295
v 25.691223 30.000008 21.051632
v 32.433079 30.000008 20.489614
v 77.984093 29.999992 -45.805702
v 34.576710 29.999994 -34.805710
v 0.073440 29.999996 -27.013227
v 28.977901 30.000002 -2.318721
v -3.015915 29.999996 -25.805712
v -32.851059 30.000002 3.706148
v -51.572903 30.000002 2.489922
v -67.250671 29.999994 -28.663914
v -83.829636 30.000004 5.633151
v -87.015915 29.999992 -45.805725
v -63.797779 29.999994 -29.443741
v -22.836939 29.999994 -32.962448
v -46.540768 29.999992 -36.188866
v 53.984081 30.000004 7.194297
v 57.483665 30.000004 7.631746
v -80.333038 0.000002 7.100963
v -87.015923 0.000002 10.194283
v -32.821926 27.000004 5.511837
v -7.859470 27.000002 3.079392
v -51.543770 27.000004 4.295608
v -87.015915 -0.000012 -45.805717
v 77.984093 -0.000012 -45.805695
v 57.483665 39.600002 7.631744
v 57.453373 39.717716 7.627956
v 58.040909 39.600006 14.316337
v 54.203644 53.506023 10.778351
v 54.470242 53.506023 13.976421
v 52.720009 53.958725 20.227707
v 54.173691 45.471149 23.216373
v 58.042950 39.567947 14.340838
v 55.534084 40.216873 23.301754
v 52.633766 53.764797 20.753805
v 52.320145 52.908001 22.819885
v 53.984081 39.591385 7.194295
v 58.042950 0.000003 14.340848
v 55.242844 0.000006 24.341967
v 55.242844 37.111492 24.341957
v 52.016975 37.800011 27.084791
v 47.257854 52.908005 27.124159
v 48.038330 37.800011 30.467682
v 38.984077 37.800011 28.194294
v 40.676208 52.908005 25.471607
v 37.469509 37.800011 26.412992
v 38.300751 52.908001 22.677807
v 37.185966 52.542110 21.480843
v 36.472698 52.329975 20.641962
v 32.738060 36.392818 20.848303
v 37.194180 53.121128 19.574274
v 37.306927 39.600006 13.277013
v 32.433079 34.255493 20.489614
v 37.593063 53.506023 19.158493
v 42.857071 53.506023 11.368514
v 40.910461 39.600002 7.944293
v 53.971355 39.600002 7.195025
v 53.852539 53.506023 10.737734
v 54.149158 53.516823 10.774811
v 48.038330 0.000007 30.467691
v 38.984077 0.000007 28.194304
v 32.433079 0.000005 20.489622
v 51.937168 54.000008 13.321582
v 52.523380 54.000008 20.353678
v 52.618523 53.980385 20.313990
v 46.811169 54.000011 25.210566
v 41.644672 54.000008 23.913334
v 39.239998 53.995842 21.095465
v 39.257870 54.000008 21.106199
v 44.219051 54.000008 13.764350
v -6.015923 22.425898 25.194292
v -13.606654 20.946650 25.736483
v -6.015923 0.000006 25.194298
v -36.145000 15.000008 27.346363
v -48.015926 11.100007 28.194288
v -48.015926 11.103633 28.194288
v -49.582943 11.100007 28.306215
v -53.616840 9.077923 28.594355
v -54.058720 9.000007 28.625917
v -65.921799 4.254776 29.473278
v -69.058723 3.700300 29.697346
v -69.058723 0.000007 29.697346
v -13.359569 21.000006 25.342857
v -30.077667 15.918780 5.244428
v -32.821926 15.196967 5.511839
v -33.556492 15.000002 5.464119
v -72.969757 3.000007 30.873211
v -74.356491 3.000002 6.518579
v -78.878334 0.000008 32.649647
v -64.852966 4.682302 5.592518
v -54.058716 9.000001 4.540681
v -53.991154 9.011919 25.206675
v -53.972633 9.015185 25.215935
v -51.543770 9.443454 4.295612
v -48.723579 9.940728 4.478821
v -49.649273 11.100007 27.377615
v -48.026264 11.100007 28.189119
v -14.900803 21.000000 3.765529
v -7.859470 22.374720 3.079393
v 4.125409 24.415569 23.504068
v 2.268300 24.312450 4.950281
v 11.798997 27.000008 22.225142
v 10.485465 27.000004 6.468225
v 11.984077 27.000008 22.194294
v 18.475920 27.000004 7.944293
v 11.984077 0.000005 22.194300
vt 0.380349 0.166237
vt 0.380346 0.166361
vt 0.379792 0.166374
vt 0.379802 0.166116
vt 0.379798 0.166116
vt 0.379729 0.168944
vt 0.379729 0.168944
vt 0.379729 0.168944
vt 0.379729 0.168944
vt 0.379729 0.168944
vt 0.379729 0.168944
vt 0.379729 0.168944
vt 0.379729 0.168944
vt 0.379729 0.168944
vt 0.379729 0.168944
vt 0.382373 0.168810
vt 0.381746 0.168959
vt 0.381493 0.168662
vt 0.382481 0.168425
vt 0.376887 0.168265
vt 0.376887 0.165951
vt 0.377144 0.168146
vt 0.380704 0.168728
vt 0.380010 0.168843
vt 0.382459 0.168166
vt 0.383250 0.165951
vt 0.383250 0.168265
vt 0.382095 0.169047
vt 0.377579 0.169017
vt 0.377200 0.169131
vt 0.380068 0.167455
vt 0.380177 0.166797
vt 0.380763 0.166992
vt 0.380792 0.167455
vt 0.380792 0.167000
vt 0.380068 0.166778
vt 0.377686 0.167132
vt 0.377516 0.165744
vt 0.378515 0.166903
vt 0.378316 0.167250
vt 0.378903 0.167756
vt 0.378643 0.167734
vt 0.378561 0.165602
vt 0.379891 0.165902
vt 0.378776 0.166855
vt 0.380010 0.165949
vt 0.381161 0.167087
vt 0.381883 0.167040
vt 0.382488 0.165839
vt 0.383127 0.167161
vt 0.383250 0.165602
vt 0.383250 0.167222
vt 0.382354 0.165809
vt 0.380775 0.165673
vt 0.381689 0.165548
vt 0.383122 0.167163
vt 0.377812 0.167221
vt 0.377677 0.167238
vt 0.380366 0.166497
vt 0.379690 0.166148
vt 0.376887 0.167232
vt 0.376887 0.165602
vt 0.380610 0.167050
vt 0.380069 0.167005
vt 0.379974 0.166467
vt 0.380160 0.166383
vt 0.380146 0.166514
vt 0.379972 0.166503
vt 0.380209 0.167571
vt 0.380068 0.167455
vt 0.380214 0.167571
vt 0.380625 0.166588
vt 0.379674 0.166408
vt 0.380644 0.166454
vt 0.378291 0.166009
vt 0.380447 0.166417
vt 0.381675 0.166650
vt 0.380427 0.166551
vt 0.381524 0.166758
vt 0.380270 0.167872
vt 0.380068 0.167872
vt 0.380068 0.166414
vt 0.380433 0.166414
vt 0.380433 0.167845
vt 0.379787 0.166757
vt 0.379793 0.166332
vt 0.380346 0.166328
vt 0.380339 0.166832
vt 0.380223 0.166326
vt 0.380941 0.166236
vt 0.380952 0.166370
vt 0.380234 0.166461
vt 0.380110 0.167965
vt 0.380068 0.166414
vt 0.380469 0.166414
vt 0.380469 0.167940
vt 0.380068 0.167845
vt 0.382382 0.167455
vt 0.382267 0.167571
vt 0.382382 0.166414
vt 0.378333 0.167455
vt 0.378333 0.166414
vt 0.378438 0.167571
vt 0.380647 0.167571
vt 0.380068 0.166414
vt 0.380647 0.166414
vt 0.380068 0.167571
vt 0.380652 0.167735
vt 0.380316 0.167941
vt 0.380068 0.167571
vt 0.380652 0.167571
vt 0.380068 0.167941
vt 0.379952 0.166157
vt 0.380210 0.166179
vt 0.380159 0.167165
vt 0.379904 0.167096
vt 0.380008 0.166660
vt 0.379787 0.166473
vt 0.380107 0.166218
vt 0.380207 0.166610
vt 0.380299 0.166502
vt 0.379810 0.166201
vt 0.379734 0.166643
vt 0.379819 0.166582
vt 0.379831 0.166658
vt 0.379788 0.166706
vt 0.379859 0.166625
vt 0.379798 0.166566
vt 0.380354 0.166471
vt 0.380348 0.166492
vt 0.380024 0.166590
vt 0.380319 0.166574
vt 0.379814 0.166594
vt 0.379766 0.166237
vt 0.379767 0.166236
vt 0.380320 0.166223
vt 0.380068 0.167941
vt 0.380204 0.167941
vt 0.380069 0.167946
vt 0.380068 0.167571
vt 0.380204 0.167571
vt 0.380328 0.167941
vt 0.380069 0.167941
vt 0.380328 0.167571
vt 0.380328 0.167455
vt 0.380434 0.167571
vt 0.380068 0.167940
vt 0.380068 0.166414
vt 0.380328 0.166414
vt 0.379617 0.165952
vt 0.379894 0.165979
vt 0.379835 0.166811
vt 0.379546 0.166805
vt 0.379844 0.166826
vt 0.379220 0.166024
vt 0.379147 0.166739
vt 0.380082 0.166389
vt 0.379819 0.166607
vt 0.379873 0.166393
vt 0.379760 0.166452
vt 0.380298 0.166089
vt 0.380356 0.166338
vt 0.380002 0.166112
vt 0.379791 0.166532
vt 0.379745 0.166336
vt 0.380109 0.166201
vt 0.380196 0.166299
vt 0.380096 0.166325
vt 0.380106 0.166201
vt 0.380166 0.166566
vt 0.380174 0.166571
vt 0.380170 0.166569
vt 0.379772 0.167055
vt 0.379677 0.166211
vt 0.380294 0.166173
vt 0.380254 0.167088
vt 0.379824 0.166731
vt 0.379729 0.165924
vt 0.379827 0.165933
vt 0.379825 0.166730
vt 0.380497 0.166973
vt 0.380254 0.167088
vt 0.379618 0.165931
vt 0.379827 0.166862
vt 0.379810 0.166861
vt 0.380068 0.166414
vt 0.380859 0.166414
vt 0.380599 0.167571
vt 0.380068 0.167455
vt 0.380859 0.167571
vt 0.380323 0.166692
vt 0.379751 0.166506
vt 0.379776 0.166446
vt 0.379728 0.166645
vt 0.380308 0.166781
vt 0.379796 0.166463
vt 0.380331 0.166306
vt 0.380371 0.166551
vt 0.379855 0.166821
vt 0.379874 0.166840
vt 0.380218 0.166678
vt 0.380152 0.166753
vt 0.379963 0.166468
vt 0.380018 0.166375
vt 0.380152 0.166753
vt 0.380286 0.166354
vt 0.380126 0.166028
vt 0.380369 0.166338
vt 0.379619 0.166299
vt 0.379655 0.166345
vt 0.379662 0.167002
vt 0.379718 0.166170
vt 0.379579 0.165990
vt 0.379817 0.166842
vt 0.378918 0.166783
vt 0.378908 0.166768
vt 0.379688 0.166000
vt 0.379717 0.165998
vt 0.380352 0.166136
vt 0.380365 0.166398
vt 0.379773 0.166465
vt 0.379755 0.166105
vt 0.380333 0.166232
vt 0.380342 0.166367
vt 0.379788 0.166359
vt 0.379788 0.166361
vt 0.380342 0.166368
vt 0.379788 0.166372
vt 0.380668 0.166594
vt 0.381086 0.166761
vt 0.381184 0.167455
vt 0.381184 0.166778
vt 0.380300 0.166530
vt 0.380068 0.166414
vt 0.380458 0.167872
vt 0.380368 0.167872
vt 0.380458 0.166414
vt 0.380068 0.167571
vt 0.380068 0.166414
vt 0.380086 0.167817
vt 0.380068 0.167735
vt 0.379811 0.166725
vt 0.379560 0.166175
vt 0.379868 0.166118
vt 0.379818 0.166726
vt 0.380068 0.167571
vt 0.380069 0.167941
vt 0.380068 0.167941
vt 0.380573 0.167571
vt 0.380573 0.167941
vt 0.381137 0.167248
vt 0.381304 0.167174
vt 0.381419 0.167254
vt 0.381370 0.167410
vt 0.379940 0.166155
vt 0.379948 0.166138
vt 0.379939 0.166242
vt 0.380152 0.166343
vt 0.380120 0.166424
vt 0.379944 0.166137
vt 0.379949 0.166393
vt 0.380000 0.166458
vt 0.379949 0.166393
vt 0.379917 0.166572
vt 0.379865 0.166508
vt 0.379853 0.166364
vt 0.380050 0.166305
vt 0.380094 0.166375
vt 0.379843 0.166450
vt 0.380189 0.166393
vt 0.380190 0.166371
vt 0.380194 0.166375
vt 0.379887 0.166426
vt 0.379899 0.166425
vt 0.379973 0.166526
vt 0.380323 0.166450
vt 0.380270 0.166544
vt 0.381045 0.167279
vt 0.380752 0.167222
vt 0.381045 0.166414
vt 0.379880 0.166992
vt 0.379421 0.166842
vt 0.379421 0.166842
vt 0.379361 0.166842
vt 0.379205 0.166764
vt 0.379188 0.166761
vt 0.378729 0.166578
vt 0.378608 0.166557
vt 0.378608 0.166414
vt 0.379848 0.166814
vt 0.379726 0.166805
vt 0.379683 0.165884
vt 0.380055 0.165920
vt 0.380002 0.166859
vt 0.380465 0.167355
vt 0.380068 0.167279
vt 0.380068 0.166414
vt 0.380772 0.166414
vt 0.380772 0.167455
vt 0.380765 0.167455
vt 0.380068 0.166414
vt 0.380464 0.166414
vt 0.380306 0.166530
vt 0.380464 0.166557
vt 0.380326 0.166761
vt 0.380139 0.166842
vt 0.380325 0.166761
vt 0.380069 0.166842
vt 0.380015 0.166432
vt 0.379953 0.166464
vt 0.379952 0.166464
vt 0.380326 0.166842
vt 0.380327 0.166842
vt 0.380327 0.166842
vt 0.380205 0.166186
vt 0.380249 0.167107
vt 0.379757 0.167074
vt 0.379757 0.166145
vt 0.379707 0.166341
vt 0.380040 0.166282
vt 0.379971 0.166998
vt 0.379659 0.166948
vt 0.380788 0.167455
vt 0.380068 0.167455
vt 0.380465 0.167351
vt 0.380068 0.167277
vt 0.379103 0.166840
vt 0.378431 0.166483
vt 0.379410 0.166782
vt 0.378693 0.166433
vt 0.380117 0.166647
vt 0.378000 0.166721
vt 0.378792 0.166573
vt 0.378799 0.166730
vt 0.378016 0.166876
vt 0.381035 0.167277
vt 0.381035 0.167455
vt 0.380763 0.167224
vt 0.380068 0.167455
vt 0.380174 0.167028
vt 0.380068 0.167000
vt 0.380287 0.166692
vt 0.380191 0.166962
vt 0.379641 0.166722
vt 0.379656 0.166682
vt 0.380204 0.167455
vt 0.380204 0.166414
vt 0.381001 0.166414
vt 0.381001 0.167455
vt 0.380068 0.167455
vt 0.380068 0.166414
vt 0.380352 0.166414
vt 0.380352 0.167455
vt 0.380068 0.167872
vt 0.380068 0.166414
vt 0.380428 0.166414
vt 0.380428 0.167872
vn 0.9659 0.2460 -0.0805
vn -0.0000 1.0000 -0.0000
vn -0.0000 -1.0000 0.0000
vn -0.0648 0.0000 0.9979
vn -0.1355 0.9889 -0.0617
vn -0.0154 0.9999 -0.0070
vn -0.2207 0.9701 -0.1005
vn -0.4461 0.8944 0.0319
vn 0.3871 -0.0000 -0.9221
vn 0.0832 0.5145 0.8535
vn 0.0832 0.5145 0.8534
vn 0.6478 0.0000 0.7618
vn -0.0555 0.2460 -0.9677
vn -0.0556 0.5145 0.8557
vn 0.9630 0.0000 0.2696
vn -1.0000 0.0000 0.0000
vn 1.0000 0.0000 0.0000
vn -0.7071 -0.0000 -0.7071
vn 0.7071 -0.0000 -0.7071
vn -0.8286 0.0000 -0.5599
vn -0.4465 0.8944 0.0254
vn -0.5292 0.8125 0.2445
vn 0.9377 0.2468 0.2447
vn 0.1240 -0.0000 -0.9923
vn 0.9965 -0.0000 -0.0831
vn 0.9965 0.0000 -0.0833
vn -0.1903 0.9816 0.0136
vn 0.6592 0.1825 0.7295
vn 0.6349 0.1981 0.7467
vn 0.1954 0.9806 -0.0163
vn 0.1955 0.9806 -0.0161
vn -0.3140 0.9487 -0.0371
vn -0.2221 0.9749 -0.0127
vn -0.3050 0.9517 -0.0347
vn -0.1737 0.9848 -0.0000
vn -0.1736 0.9848 -0.0000
vn 0.0831 0.0000 0.9965
vn -0.7467 0.1981 0.6349
vn -0.8031 0.2460 -0.5427
vn -0.8031 0.2461 -0.5427
vn -0.1625 0.9806 -0.1098
vn -0.1625 0.9806 -0.1097
vn -0.1610 0.9809 -0.1096
vn -0.8741 0.1991 -0.4431
vn -0.3046 0.9524 0.0126
vn -0.3154 0.9487 0.0225
vn -0.2570 0.9659 -0.0304
vn -0.2387 0.1981 0.9507
vn 0.1114 0.2462 -0.9628
vn 0.0970 0.0000 0.9953
vn -0.7618 0.0000 0.6478
vn -0.0573 -0.0000 -0.9984
vn -0.0572 -0.0000 -0.9984
vn 0.3122 0.6690 0.6745
vn 0.3433 0.8480 0.4038
vn -0.4038 0.8481 0.3432
vn -0.4038 0.8480 0.3433
vn -0.4038 0.8480 0.3432
vn -0.1291 0.8480 0.5140
vn 0.4848 0.7919 0.3714
vn -0.0112 0.9806 -0.1958
vn 0.0712 0.0000 0.9975
vn 0.0710 0.0000 0.9975
vn -0.1734 0.9848 0.0099
vn 0.1644 0.0000 0.9864
vn 0.2879 -0.0000 0.9577
vn 0.4471 0.0000 -0.8945
vn 0.4472 -0.0000 -0.8944
vn -0.4474 0.0000 0.8944
vn -0.3714 0.9285 -0.0000
vn -0.3151 0.9487 0.0263
vn -0.1817 0.0000 0.9834
vn -0.0441 0.9701 0.2385
vn -0.0922 0.6690 0.7376
vn -0.7712 0.1886 0.6080
vn -0.1240 0.0000 0.9923
vn 0.4201 0.0000 0.9075
vn -0.2435 0.0000 0.9699
usemtl Material
s 1
f 41/1/1 42/2/1 40/3/1 39/4/1
f 38/5/1 39/4/1 40/3/1
s off
f 17/6/2 11/7/2 16/8/2 25/9/2 23/10/2 26/11/2 28/12/2 27/13/2 20/14/2 18/15/2
s 2
f 51/16/3 73/17/3 74/18/3 50/19/3
f 32/20/3 36/21/3 31/22/3
f 31/22/3 36/21/3 118/23/3
f 31/22/3 118/23/3 85/24/3
f 118/23/3 36/21/3 6/25/3
f 6/25/3 36/21/3 37/26/3
f 6/25/3 37/26/3 5/27/3
f 118/23/3 6/25/3 74/18/3
f 74/18/3 6/25/3 50/19/3
f 72/28/3 73/17/3 51/16/3
f 85/24/3 94/29/3 31/22/3
f 31/22/3 94/29/3 101/30/3
s 3
f 35/31/4 107/32/4 98/33/4 33/34/4
f 97/35/4 33/34/4 98/33/4
f 107/32/4 35/31/4 106/36/4
s 4
f 4/37/2 11/38/2 12/39/5
f 4/37/2 12/39/5 13/40/2
f 13/40/2 14/41/6 15/42/2
f 17/43/2 18/44/2 11/38/2
f 11/38/2 18/44/2 19/45/2
f 11/38/2 19/45/2 12/39/5
f 18/44/2 20/46/2 19/45/2
f 19/45/2 20/46/2 21/47/2
f 21/47/2 20/46/2 22/48/2
f 22/48/2 20/46/2 23/49/2
f 22/48/2 23/49/2 24/50/2
f 24/50/2 23/49/2 25/51/2
f 24/50/2 25/51/2 9/52/2
f 23/49/2 20/46/2 26/53/2
f 26/53/2 20/46/2 27/54/2
f 26/53/2 27/54/2 28/55/2
f 9/52/2 10/56/2 24/50/2
f 13/40/2 29/57/2 4/37/2
f 4/37/2 29/57/2 30/58/2
f 117/59/7 14/41/6 13/40/2 12/60/5
f 2/61/2 16/62/2 11/38/2 4/37/2
f 116/63/7 14/64/6 117/59/7
s 5
f 108/65/8 104/66/8 90/67/8 89/68/8
s 6
f 10/69/9 8/70/9 24/71/9
s 7
f 33/72/10 34/73/10 21/74/10
f 21/74/10 34/73/10 19/75/10
s 8
f 22/76/10 24/77/11 35/78/10
f 35/78/10 24/77/11 8/79/11
s 9
f 53/80/12 55/81/12 72/82/12 51/83/12
f 52/84/12 53/80/12 51/83/12
s 10
f 67/85/13 70/86/13 69/87/13 68/88/13
s 11
f 21/89/14 22/90/14 35/91/14 33/92/14
s 12
f 46/93/15 51/94/15 50/95/15 45/96/15
f 51/94/15 46/93/15 52/97/15
s 13
f 7/98/16 9/99/16 32/100/16
f 1/101/17 5/102/17 2/103/17
f 25/104/18 36/105/18 32/100/16 9/99/16
f 5/102/17 37/106/19 16/107/19 2/103/17
f 36/21/18 25/9/18 16/107/19 37/26/19
s 14
f 65/108/20 64/109/20 13/110/20 15/111/20
f 13/110/20 64/109/20 68/112/20
s 15
f 100/113/21 31/114/21 101/115/21 99/116/21
s 16
f 78/117/2 76/118/2 82/119/2 79/120/2
f 81/121/2 79/120/2 82/119/2
f 76/118/2 75/122/2 82/119/2
s 17
f 80/123/22 63/124/22 60/125/22 59/126/22
f 60/125/22 63/124/22 61/127/22
f 80/123/22 66/128/22 63/124/22
s 18
f 43/129/23 47/130/23 44/131/23
f 44/131/23 47/130/23 48/132/23
f 44/131/23 46/133/23 45/134/23 40/135/23
f 43/129/23 44/131/23 40/135/23 42/136/23
s 19
f 38/137/24 49/138/24 39/139/24
f 49/138/24 38/137/24 30/140/24 29/141/24
s 20
f 38/142/25 40/143/25 30/144/25
f 30/144/25 40/143/25 3/145/25
f 30/144/25 3/145/25 4/146/25
f 45/147/26 50/148/25 40/143/25
f 40/143/25 50/148/25 3/145/25
f 50/148/25 6/149/25 3/145/25
s 21
f 111/150/27 110/151/27 95/152/27 83/153/27
f 84/154/27 83/153/27 95/152/27
f 113/155/27 111/150/27 83/153/27 112/156/27
s 22
f 44/157/28 53/158/28 46/159/28
f 46/159/28 53/158/28 52/160/28
s 23
f 48/161/29 54/162/29 44/163/29
f 54/162/29 55/164/29 53/165/29 44/163/29
s 24
f 71/166/30 75/167/30 42/168/30 41/169/30
f 42/168/30 75/167/30 43/170/30
f 43/170/30 75/167/30 76/171/30
f 43/170/30 76/171/30 77/172/31
s 25
f 86/173/32 98/174/32 107/175/33 88/176/32
f 105/177/34 106/178/35 103/179/36 104/180/35
f 105/181/34 109/182/32 107/183/33 106/178/35
f 91/184/36 104/180/35 103/179/36
f 91/184/36 90/185/36 104/180/35
f 109/182/32 88/176/32 107/175/33
s 26
f 118/186/37 74/187/37 14/188/37 116/189/37
f 14/188/37 74/187/37 15/190/37
s 27
f 58/191/38 59/192/38 60/193/38
f 57/194/38 59/192/38 58/191/38 56/195/38
s 28
f 67/196/39 68/197/39 64/198/39 66/199/40
f 63/200/40 66/199/40 64/198/39
s 29
f 66/201/41 81/202/42 82/203/41 67/204/41
f 81/202/42 66/201/41 80/205/43
s 30
f 62/206/44 64/207/44 65/208/44
f 63/209/44 64/207/44 62/206/44 61/210/44
s 31
f 95/211/45 110/212/46 96/213/47 86/214/47
f 84/215/47 95/216/45 86/214/47
f 86/214/47 96/213/47 97/217/47
f 97/217/47 98/218/47 86/214/47
s 32
f 54/219/48 57/220/48 56/221/48 55/222/48
s 33
f 39/223/49 49/224/49 41/225/49
f 71/226/49 69/227/49 70/228/49
f 69/227/49 71/226/49 41/225/49 49/224/49
s 34
f 8/70/50 102/229/50 103/230/50 35/231/50
f 106/232/50 35/231/50 103/230/50
f 102/229/50 8/70/50 100/233/50
f 100/233/50 8/70/50 31/234/50
s 35
f 56/235/51 58/236/51 73/237/51
f 73/237/51 58/236/51 15/238/51
f 73/237/51 15/238/51 74/239/51
f 58/236/51 62/240/51 15/238/51
f 15/238/51 62/240/51 65/241/51
s 36
f 116/242/2 117/243/2 115/244/2 114/245/2
s 37
f 29/246/52 69/247/52 49/248/53
f 69/247/52 29/246/52 13/249/52 68/250/52
s 38
f 8/251/54 10/252/54 9/253/54 7/254/54
s 39
f 47/255/55 76/256/55 48/257/55
f 48/257/55 76/256/55 78/258/55
f 48/257/55 78/258/55 54/259/55
f 47/255/55 77/260/55 76/256/55
s 40
f 80/261/56 59/262/57 81/263/58
f 57/264/57 79/265/57 81/263/58 59/262/57
s 41
f 78/266/59 79/267/59 57/268/59 54/269/59
s 42
f 47/270/60 43/271/60 77/272/60
s 43
f 71/273/61 70/274/61 75/275/61
f 67/276/61 82/277/61 75/275/61 70/274/61
s 44
f 83/278/62 84/279/62 85/280/62
f 85/280/62 84/279/62 86/281/62
f 85/280/62 86/281/62 87/282/62
f 87/282/62 86/281/62 88/283/63
f 89/284/62 90/285/62 87/282/62
f 87/282/62 90/285/62 85/280/62
f 91/286/62 92/287/62 90/285/62
f 90/285/62 92/287/62 85/280/62
f 93/288/62 94/289/62 92/287/62
f 92/287/62 94/289/62 85/280/62
s 45
f 93/290/64 92/291/64 102/292/64 100/293/64
f 99/294/64 93/290/64 100/293/64
s 46
f 112/295/65 83/296/65 85/297/65 118/298/65
f 116/299/65 114/300/65 118/298/65
f 118/298/65 114/300/65 112/295/65
s 47
f 101/301/66 94/302/66 99/303/66
f 99/303/66 94/302/66 93/304/66
s 48
f 104/305/67 108/306/68 105/307/67
f 105/307/67 108/306/68 109/308/68
s 49
f 108/309/2 89/68/2 109/310/2
f 109/310/2 89/68/2 87/311/2
s 50
f 109/312/69 87/313/69 88/314/69
s 51
f 102/315/70 92/316/70 91/317/70 103/318/70
s 52
f 115/319/71 113/320/71 112/321/71 114/322/71
s 53
f 115/323/72 34/324/72 113/325/72
f 113/325/72 34/324/72 111/326/72
s 54
f 117/327/73 12/328/73 115/329/73
f 115/329/73 12/328/73 19/330/73
f 115/329/73 19/330/73 34/331/73
s 55
f 2/332/74 4/333/74 3/334/74 1/335/74
s 56
f 111/336/50 34/337/50 110/338/50
f 110/338/50 34/337/50 33/339/50
f 110/338/50 33/339/50 96/340/50
f 96/340/50 33/339/50 97/341/50
s 57
f 62/342/75 58/343/75 60/344/75 61/345/75
s 58
f 3/346/76 6/347/76 5/348/76 1/349/76
s 59
f 7/350/77 32/351/77 31/352/77 8/353/77
s 60
f 56/354/78 73/355/78 72/356/78 55/357/78
