# Blender v2.90.1 OBJ File: ''
# www.blender.org
mtllib Flat Rock 1 v2.mtl
o Flat_Rock_1_v2
v 41.184299 17.189299 30.828089
v 42.365292 15.703573 32.469803
v 37.154522 13.159533 -9.469681
v 49.570713 3.596274 30.884537
v 37.205963 0.021620 -59.246357
v 40.224396 -5.750024 -62.578617
v -28.730143 13.159533 -9.469681
v -35.216248 17.189299 30.828089
v -30.161875 0.021620 -59.246357
v -38.236107 -8.072728 -63.919628
v 44.279484 -16.318127 -68.680115
v -42.310699 -16.318127 -68.680115
v -36.779472 15.160364 33.070042
v -40.258583 8.492660 30.755884
v -26.136662 3.681854 45.753643
v -29.645699 -16.318146 45.753639
v -44.611687 -16.318144 30.755880
v 35.149582 3.681854 45.753643
v 44.519455 -16.318146 45.753639
v -42.962395 -16.318129 -63.246742
v 58.900490 -16.318144 30.884535
v -35.504604 16.992201 31.045885
vt -0.928489 -4.011079
vt -0.740045 -4.176798
vt -0.796855 0.056666
vt 0.668703 -4.016778
vt 0.324293 5.081234
vt 0.974005 5.417600
vt 3.838853 0.524938
vt -2.749613 0.524938
vt 4.241831 -3.524938
vt -3.398224 -3.524938
vt 3.213853 -2.574064
vt 3.218997 2.574064
vt -3.374613 -2.574064
vt -3.517787 2.574064
vt -2.593997 1.500000
vt -2.895841 0.833548
vt 4.142787 1.500000
vt 4.950210 0.565345
vt -3.301349 -0.386751
vt 5.357669 -0.386751
vt 3.153072 0.726977
vt 2.436210 1.051457
vt 2.206412 -1.051457
vt 0.175862 -1.051457
vt -0.082768 1.051457
vt 1.259735 2.000000
vt 0.908831 0.000000
vt 7.388359 2.000000
vt 8.325346 0.000000
vt -5.825346 -5.000000
vt 1.591169 -5.000000
vt -5.801349 6.443376
vt 3.087768 -3.500224
vt 2.922838 5.900038
vt 2.857669 6.443376
vt -7.263450 -3.513089
vt 8.505341 -0.051168
vt 8.501551 2.467808
vt -0.896357 -0.036810
vt -0.553372 0.777553
vt 0.229131 -0.988283
vt 0.848688 0.988283
vt 2.437738 -0.988283
vt 3.047844 0.988283
vt 6.116831 1.006508
vt -1.523224 1.006508
vt 6.234930 0.785089
vt -1.552060 0.977134
vt -1.679546 0.704135
vt -0.615265 -1.006508
vt 5.513359 -1.006508
vt 2.227612 -8.304051
vt 2.449786 -8.100534
vt 1.475920 -8.071376
vt 0.131961 1.447728
vt -0.818405 1.380072
vt -0.786415 1.926368
vt 1.237486 -7.680279
vt 1.464776 -3.585095
vt 1.202780 -7.702412
vt 0.497453 1.473364
vt -0.642709 1.948276
vt -0.456158 -4.079319
vt 1.740082 -4.192532
vt 0.478473 5.313612
vt 1.637690 5.870194
vn 0.8434 0.5198 -0.1363
vn 0.0000 0.9950 -0.0995
vn 0.0000 0.9669 -0.2552
vn 0.0000 0.5000 -0.8660
vn -0.7025 0.1232 0.7010
vn 0.0000 -0.0000 1.0000
vn -0.0000 -1.0000 -0.0000
vn -0.9848 0.1728 -0.0173
vn 0.6812 0.3191 0.6589
vn 0.0000 0.7415 0.6710
vn -0.8665 0.4882 -0.1039
vn -0.6434 0.7446 -0.1780
vn 0.8976 0.4205 -0.1318
usemtl Steel_-_Satin.001
s 1
f 1/1/1 2/2/1 3/3/1
f 3/3/1 2/2/1 4/4/1
f 3/3/1 4/4/1 5/5/1
f 5/5/1 4/4/1 6/6/1
f 3/7/2 7/8/2 1/9/2
f 1/9/2 7/8/2 8/10/2
f 3/11/3 5/12/3 7/13/3
f 7/13/3 5/12/3 9/14/3
f 5/15/4 6/16/4 9/17/4
f 9/17/4 6/16/4 10/18/4
f 10/18/4 6/16/4 11/19/4
f 10/18/4 11/19/4 12/20/4
f 13/21/5 14/22/5 15/23/5
f 15/23/5 14/22/5 16/24/5
f 16/24/5 14/22/5 17/25/5
f 15/26/6 16/27/6 18/28/6
f 18/28/6 16/27/6 19/29/6
f 19/30/7 16/31/7 11/32/7
f 11/32/7 16/31/7 17/33/7
f 11/32/7 17/33/7 20/34/7
f 20/34/7 12/35/7 11/32/7
f 11/32/7 21/36/7 19/30/7
f 17/37/8 14/38/8 20/39/8
f 2/40/9 18/41/9 4/42/9
f 4/42/9 18/41/9 19/43/9
f 4/42/9 19/43/9 21/44/9
f 1/45/10 8/46/10 2/47/10
f 2/47/10 8/46/10 22/48/10
f 2/47/10 22/48/10 13/49/10
f 13/49/10 15/50/10 2/47/10
f 2/47/10 15/50/10 18/51/10
f 13/52/11 22/53/11 14/54/11
f 14/54/11 22/53/11 10/55/11
f 14/54/11 10/55/11 20/56/11
f 20/56/11 10/55/11 12/57/11
f 8/58/12 7/59/12 22/60/12
f 22/60/12 7/59/12 9/61/12
f 22/60/12 9/61/12 10/62/12
f 4/63/13 21/64/13 6/65/13
f 6/65/13 21/64/13 11/66/13
