# Blender v2.90.1 OBJ File: 'w1 EXPORT FILE.blend'
# www.blender.org
mtllib Pillar Rock 2.mtl
o Pillar_Rock_2.001
v 2.917416 39.209423 -5.918136
v 8.233041 39.209419 0.877151
v 3.243755 36.367538 -6.423455
v 8.801423 36.367535 0.681254
v 8.233041 39.209415 5.924816
v 8.801423 36.367531 6.365020
v 0.368987 39.209415 7.956500
v 0.338823 36.367531 8.551329
v -12.267133 39.209415 3.284218
v -13.259865 36.367531 3.523137
v -5.407996 36.367538 -5.002514
v -4.997822 39.209423 -4.608872
v -2.566108 36.367538 -7.844397
v -2.390408 39.209423 -7.216293
v -13.259865 -0.576948 3.523127
v -5.407996 -0.576946 -5.002526
v -2.566108 -0.576944 -7.844409
v 3.243755 -0.576944 -6.423468
v 8.801423 -0.576946 0.681244
v 8.801423 -0.576950 6.365010
v 0.338823 -0.576950 8.551318
vt 0.388517 0.225088
vt 0.386541 0.218952
vt 0.390458 0.223480
vt 0.388391 0.217064
vt 0.388173 0.222987
vt 0.386530 0.219899
vt 0.390010 0.221064
vt 0.388160 0.217588
vt 0.389848 0.226928
vt 0.387460 0.221674
vt 0.391798 0.225262
vt 0.389225 0.219613
vt 0.386009 0.219416
vt 0.387397 0.216780
vt 0.390981 0.226949
vt 0.392745 0.224888
vt 0.382873 0.216507
vt 0.384814 0.214590
vt 0.387846 0.222034
vt 0.389420 0.219707
vt 0.388688 0.222912
vt 0.386931 0.221042
vt 0.390107 0.220418
vt 0.388494 0.218705
vt 0.385927 0.219124
vt 0.387766 0.217186
vt 0.388047 0.222577
vt 0.389701 0.220341
vt 0.407369 0.234887
vt 0.400279 0.243046
vt 0.395341 0.212288
vt 0.388252 0.220447
vt 0.402738 0.240217
vt 0.400279 0.243046
vt 0.390710 0.217618
vt 0.388252 0.220447
vt 0.403937 0.238836
vt 0.400279 0.243046
vt 0.391909 0.216237
vt 0.388252 0.220447
vt 0.405797 0.236696
vt 0.400279 0.243046
vt 0.393770 0.214097
vt 0.388252 0.220447
vt 0.393442 0.220659
vt 0.388174 0.225432
vt 0.394482 0.212763
vt 0.387367 0.213967
vt 0.392838 0.209675
vt 0.390617 0.225191
vt 0.381158 0.225721
vt 0.403757 0.239043
vt 0.400279 0.243046
vt 0.391730 0.216444
vt 0.388252 0.220447
vt 0.405626 0.236893
vt 0.400279 0.243046
vt 0.393598 0.214294
vt 0.388252 0.220447
vt 0.409149 0.232839
vt 0.400279 0.243046
vt 0.397121 0.210240
vt 0.388252 0.220447
vt 0.393969 0.210743
vt 0.391941 0.221486
vt 0.384014 0.217240
vt 0.381399 0.228009
vt 0.379549 0.224533
vt 0.391127 0.225224
vt 0.387111 0.228444
vn 0.7723 0.1961 -0.6042
vn 0.9806 0.1961 0.0000
vn 0.2453 0.1961 0.9494
vn -0.3401 0.1961 0.9197
vn -0.7213 0.1961 -0.6643
vn -0.6934 0.1961 -0.6934
vn 0.2330 0.1961 -0.9525
vn -0.7356 0.0000 -0.6774
vn -0.7071 0.0000 -0.7071
vn 0.2376 0.0000 -0.9714
vn 0.7876 0.0000 -0.6161
vn 0.0000 1.0000 0.0000
vn 1.0000 0.0000 0.0000
vn 0.2501 -0.0000 0.9682
vn -0.3468 -0.0000 0.9379
vn -0.0000 -1.0000 -0.0000
usemtl Steel_-_Satin.016
s 1
f 1/1/1 2/2/1 3/3/1
f 3/3/1 2/2/1 4/4/1
f 2/5/2 5/6/2 4/7/2
f 4/7/2 5/6/2 6/8/2
f 5/9/3 7/10/3 6/11/3
f 6/11/3 7/10/3 8/12/3
f 9/13/4 10/14/4 7/15/4
f 7/15/4 10/14/4 8/16/4
f 10/17/5 9/18/5 11/19/5
f 11/19/5 9/18/5 12/20/5
f 13/21/6 11/22/6 14/23/6
f 14/23/6 11/22/6 12/24/6
f 13/25/7 14/26/7 3/27/7
f 3/27/7 14/26/7 1/28/7
f 10/29/8 11/30/8 15/31/8
f 15/31/8 11/30/8 16/32/8
f 11/33/9 13/34/9 16/35/9
f 16/35/9 13/34/9 17/36/9
f 13/37/10 3/38/10 17/39/10
f 17/39/10 3/38/10 18/40/10
f 3/41/11 4/42/11 18/43/11
f 18/43/11 4/42/11 19/44/11
f 1/45/12 12/46/12 2/47/12
f 2/47/12 12/46/12 7/48/12
f 2/47/12 7/48/12 5/49/12
f 1/45/12 14/50/12 12/46/12
f 12/46/12 9/51/12 7/48/12
f 4/52/13 6/53/13 19/54/13
f 19/54/13 6/53/13 20/55/13
f 6/56/14 8/57/14 20/58/14
f 20/58/14 8/57/14 21/59/14
f 8/60/15 10/61/15 21/62/15
f 21/62/15 10/61/15 15/63/15
f 15/64/16 16/65/16 21/66/16
f 21/66/16 16/65/16 19/67/16
f 21/66/16 19/67/16 20/68/16
f 17/69/16 18/70/16 16/65/16
f 16/65/16 18/70/16 19/67/16
