# Blender v2.90.1 OBJ File: 'Prison W1L1.blend'
# www.blender.org
mtllib Pillar Rock 1.mtl
o Pillar_Rock_1
v 212.866577 194.366211 -136.894791
v 210.000000 184.366211 -135.633774
v 244.954514 194.366211 -127.726807
v 245.000000 184.366211 -125.633781
v 221.377472 194.366226 -153.916595
v 220.000000 184.366226 -155.633774
v 258.928619 194.366226 -163.304382
v 260.000000 184.366226 -165.633774
v 275.000000 184.366211 -135.633774
v 272.179871 194.366211 -136.801926
v 275.000000 -5.633788 -135.633804
v 249.312424 -5.633780 -187.008972
v 245.000000 -5.633790 -125.633812
v 187.177643 -5.633787 -142.154480
v 203.932388 -5.633781 -175.663956
vt -0.575350 -1.153749
vt 0.429375 -1.451411
vt -0.388649 2.178221
vt 0.633019 2.182943
vt 0.493036 -0.196944
vt -0.512923 -0.005874
vt 0.307312 -2.090956
vt -0.731141 -2.231268
vt 0.653248 -2.911211
vt 0.463700 0.954829
vt -0.360827 -3.053028
vt -0.562737 1.065131
vt 0.622032 -1.118571
vt 0.294706 2.219521
vt -0.415408 -0.988592
vt -0.704574 1.960330
vt 0.521709 -0.163959
vt 0.315424 2.991583
vt -0.499959 -0.168743
vt -0.687165 2.694948
vt -0.000000 19.000000
vt -0.000000 0.000000
vt 3.354102 19.000000
vt 5.743917 0.000000
vt 3.162278 19.000000
vt -0.000000 19.000000
vt 3.162278 -0.000000
vt 0.000000 0.000000
vt 3.640055 19.000000
vt 0.000000 19.000000
vt 3.640055 0.000000
vt -2.373561 0.000000
vt -2.963343 -0.873899
vt 0.245452 -1.790697
vt -2.112252 0.828282
vt 2.967986 -0.883186
vt 1.642863 1.767060
vt 2.236068 19.000000
vt -0.000000 19.000000
vt 2.673488 -0.142687
vt -1.072985 -0.142687
vt -0.000000 19.000000
vt 0.518424 -0.142687
vt 4.123106 19.000000
vt 5.196091 -0.142687
vt 5.532235 -0.347933
vt 3.856762 3.003015
vt -0.250000 -2.000000
vt -0.681242 4.137516
vt -3.250000 -1.000000
vn -0.2694 0.1961 0.9429
vn -0.8771 0.1961 -0.4385
vn -0.2378 0.1961 -0.9513
vn 0.8771 0.1961 -0.4385
vn 0.3101 0.1961 0.9303
vn 0.8944 0.0000 -0.4472
vn 0.3162 -0.0000 0.9487
vn -0.2747 -0.0000 0.9615
vn -0.0000 1.0000 0.0000
vn -0.8878 0.1219 -0.4439
vn -0.2407 0.1219 -0.9629
vn -0.0000 -1.0000 -0.0000
usemtl Steel_-_Satin.006
s 1
f 1/1/1 2/2/1 3/3/1
f 3/3/1 2/2/1 4/4/1
f 5/5/2 6/6/2 1/7/2
f 1/7/2 6/6/2 2/8/2
f 5/9/3 7/10/3 6/11/3
f 6/11/3 7/10/3 8/12/3
f 9/13/4 8/14/4 10/15/4
f 10/15/4 8/14/4 7/16/4
f 4/17/5 9/18/5 3/19/5
f 3/19/5 9/18/5 10/20/5
f 9/21/6 11/22/6 8/23/6
f 8/23/6 11/22/6 12/24/6
f 9/25/7 4/26/7 11/27/7
f 11/27/7 4/26/7 13/28/7
f 4/29/8 2/30/8 13/31/8
f 13/31/8 2/30/8 14/32/8
f 1/33/9 3/34/9 5/35/9
f 5/35/9 3/34/9 10/36/9
f 5/35/9 10/36/9 7/37/9
f 2/38/10 6/39/10 14/40/10
f 14/40/10 6/39/10 15/41/10
f 8/42/11 12/43/11 6/44/11
f 6/44/11 12/43/11 15/45/11
f 14/46/12 15/47/12 13/48/12
f 13/48/12 15/47/12 12/49/12
f 13/48/12 12/49/12 11/50/12
