# Blender v2.90.1 OBJ File: 'w1 EXPORT FILE.blend'
# www.blender.org
mtllib rock 1.mtl
o Rock_1_v4
v -3.975219 4.559731 -0.582923
v -1.865503 4.559732 -1.715599
v -5.130213 1.872032 -2.329924
v -1.159011 1.380450 -4.894924
v -4.560198 -0.692969 -4.894924
v -3.975219 4.559731 0.460574
v -5.130213 1.872031 1.623655
v -1.851928 4.559731 1.463684
v -0.580263 -1.163008 5.702719
v -3.432450 -3.282547 5.702719
v -3.975706 -3.323252 5.471997
v 1.455396 4.559732 -1.715599
v 1.455396 4.559731 1.463684
v 5.482468 0.532616 4.446697
v 5.482468 -1.163008 5.702719
v -4.408599 -1.374969 -4.894924
v -3.843426 -3.918384 2.099520
v -3.843426 -3.918372 -3.623176
v 5.482468 0.532617 -4.894924
v 5.482468 -1.374969 -4.894924
v 4.634721 1.380450 -4.894924
v 5.482468 -1.798886 -4.682972
v 5.482468 -1.798887 5.702719
v 3.108607 -3.282547 5.702719
v 2.091223 -3.918384 2.099520
v 2.091223 -3.918372 -3.623176
vt 0.408059 0.211880
vt 0.407556 0.212059
vt 0.408194 0.210845
vt 0.407222 0.211012
vt 0.407924 0.210000
vt 0.407023 0.210701
vt 0.407689 0.210388
vt 0.406913 0.211418
vt 0.408136 0.212014
vt 0.408763 0.211111
vt 0.408800 0.210928
vt 0.407549 0.211895
vt 0.407159 0.211310
vt 0.407721 0.210505
vt 0.407111 0.210650
vt 0.407294 0.210385
vt 0.408109 0.211088
vt 0.407634 0.210389
vt 0.408098 0.211086
vt 0.407323 0.211440
vt 0.407446 0.211624
vt 0.407833 0.212277
vt 0.407220 0.210699
vt 0.408415 0.211437
vt 0.408536 0.209531
vt 0.408288 0.209159
vt 0.408623 0.210852
vt 0.408461 0.211972
vt 0.408158 0.210156
vt 0.408338 0.212149
vt 0.407057 0.211578
vt 0.407730 0.212587
vt 0.406769 0.210829
vt 0.407802 0.210627
vt 0.408433 0.212013
vt 0.407037 0.210554
vt 0.408097 0.212497
vt 0.406935 0.210754
vt 0.408483 0.211648
vt 0.407148 0.211257
vt 0.407733 0.210413
vt 0.407800 0.211870
vt 0.408821 0.210398
vt 0.407520 0.212229
vt 0.407147 0.211669
vt 0.408686 0.211648
vt 0.407800 0.209697
vt 0.408897 0.211343
vt 0.408358 0.212120
vt 0.407261 0.210474
vt 0.408694 0.211636
vt 0.407412 0.209822
vt 0.408744 0.211491
vt 0.407524 0.209661
vt 0.407983 0.209580
vt 0.408752 0.210733
vt 0.407945 0.210621
vt 0.408769 0.211528
vt 0.408657 0.211690
vt 0.408319 0.209795
vt 0.408698 0.210432
vt 0.408195 0.209892
vt 0.407652 0.211940
vt 0.407043 0.211553
vt 0.407001 0.210854
vt 0.408010 0.209400
vt 0.408707 0.210446
vt 0.408497 0.211481
vt 0.408062 0.212303
vt 0.407799 0.210435
vt 0.406983 0.210440
vt 0.406900 0.210560
vt 0.406798 0.210707
vt 0.407291 0.209996
vt 0.408018 0.212537
vt 0.407926 0.210326
vt 0.408598 0.211334
vn -0.3737 0.6130 -0.6961
vn -0.3703 0.4984 0.7839
vn 0.0000 1.0000 0.0000
vn -0.9188 0.3948 0.0000
vn 0.0000 0.5952 0.8036
vn -0.9762 -0.2169 -0.0000
vn -0.9762 -0.2170 0.0000
vn 0.0000 0.0000 -1.0000
vn 0.0000 0.7071 -0.7071
vn 0.7071 0.7071 0.0000
vn 1.0000 0.0000 0.0000
vn 0.0000 -0.0000 1.0000
vn -0.0000 -0.9848 0.1738
vn 0.0000 -1.0000 -0.0000
vn 0.0000 -0.4472 -0.8944
vn 0.5300 -0.8480 -0.0000
usemtl Steel_-_Satin.020
s 1
f 1/1/1 2/2/1 3/3/1
f 3/3/1 2/2/1 4/4/1
f 3/3/1 4/4/1 5/5/1
f 6/6/2 7/7/2 8/8/2
f 8/8/2 7/7/2 9/9/2
f 9/9/2 7/7/2 10/10/2
f 10/10/2 7/7/2 11/11/2
f 12/12/3 2/13/3 8/14/3
f 8/14/3 2/13/3 1/15/3
f 8/14/3 1/15/3 6/16/3
f 8/14/3 13/17/3 12/12/3
f 3/18/4 7/19/4 1/20/4
f 1/20/4 7/19/4 6/21/4
f 8/22/5 9/23/5 13/24/5
f 13/24/5 9/23/5 14/25/5
f 14/25/5 9/23/5 15/26/5
f 3/27/6 5/28/7 7/29/6
f 7/29/6 5/28/7 16/30/7
f 7/29/6 16/30/7 17/31/6
f 17/31/6 16/30/7 18/32/6
f 17/31/6 11/33/6 7/29/6
f 4/34/8 19/35/8 5/36/8
f 5/36/8 19/35/8 20/37/8
f 5/36/8 20/37/8 16/38/8
f 4/34/8 21/39/8 19/35/8
f 2/40/9 12/41/9 4/42/9
f 4/42/9 12/41/9 21/43/9
f 12/44/10 13/45/10 21/46/10
f 21/46/10 13/45/10 14/47/10
f 21/46/10 14/47/10 19/48/10
f 19/49/11 14/50/11 20/51/11
f 20/51/11 14/50/11 15/52/11
f 20/51/11 15/52/11 22/53/11
f 22/53/11 15/52/11 23/54/11
f 10/55/12 24/56/12 9/57/12
f 9/57/12 24/56/12 23/58/12
f 9/57/12 23/58/12 15/59/12
f 11/60/13 17/61/13 10/62/13
f 10/62/13 17/61/13 25/63/13
f 10/62/13 25/63/13 24/64/13
f 17/65/14 18/66/14 25/63/14
f 25/63/14 18/66/14 26/67/14
f 18/68/15 16/69/15 26/70/15
f 26/70/15 16/69/15 22/71/15
f 22/71/15 16/69/15 20/72/15
f 23/73/16 24/74/16 22/75/16
f 22/75/16 24/74/16 25/76/16
f 22/75/16 25/76/16 26/77/16
