# Blender v2.90.1 OBJ File: 'w1 EXPORT FILE.blend'
# www.blender.org
mtllib rock 7.mtl
o Rock_7_v1
v -4.117138 2.299530 -0.569440
v -4.090117 2.829098 0.218305
v -2.828847 2.299531 -2.624480
v -0.795668 5.576949 -0.725743
v -3.717721 3.938239 1.364422
v -1.955031 5.576949 1.123636
v -3.436362 4.434818 1.694700
v 0.751954 5.576950 -1.850156
v -1.503103 2.299531 -3.587690
v 0.706470 3.546335 -3.908759
v 1.371496 4.484477 -3.425589
v -4.090117 -5.347782 0.218302
v -4.109396 -5.347782 -0.343738
v -4.117138 -5.067059 -0.569442
v -2.828847 -3.709072 -2.624482
v -1.503103 -3.709072 -3.587692
v 0.503549 -5.124448 -3.879276
v 0.706470 -4.655468 -3.908762
v 2.474129 -2.616599 -2.624482
v 2.474129 4.484477 -2.624480
v 3.244682 5.576949 -0.039083
v 3.658971 5.039560 -0.734458
v 2.716477 -5.347782 -0.181098
v 0.510376 -5.347781 -3.700199
v 3.762420 -2.616600 -0.569441
v 3.753493 -2.981090 -0.309192
v -3.440991 -5.347783 2.216105
v 1.937578 -5.347783 2.216105
v 3.060213 -2.616601 2.296310
v 3.735398 -2.616600 0.218303
v 2.007587 -3.915356 3.854815
v 1.634868 -4.801547 3.854815
v 2.007587 0.114582 3.854816
v 3.060213 3.231593 2.296312
v 3.175014 3.938239 1.942990
v 3.735398 3.938239 0.218305
v 3.762420 4.591420 -0.569439
v -3.529732 3.938239 1.942990
v -3.414931 3.231593 2.296312
v -2.362305 0.114582 3.854816
v 2.866892 5.576949 1.123636
v -2.362305 -4.801547 3.854815
v -3.414931 -5.321049 2.296309
vt 0.407535 0.213358
vt 0.406592 0.212638
vt 0.409661 0.210993
vt 0.406907 0.203106
vt 0.405140 0.210549
vt 0.404994 0.205235
vt 0.404678 0.209403
vt 0.405073 0.206759
vt 0.406311 0.203742
vt 0.408139 0.214123
vt 0.409199 0.211538
vt 0.409181 0.205937
vt 0.408370 0.203667
vt 0.406803 0.207798
vt 0.405399 0.189882
vt 0.407373 0.207702
vt 0.406289 0.190907
vt 0.407554 0.207048
vt 0.407672 0.190673
vt 0.408704 0.203838
vt 0.405214 0.191089
vt 0.406479 0.207230
vt 0.414943 0.199143
vt 0.415224 0.202733
vt 0.408854 0.200174
vt 0.409135 0.203765
vt 0.406344 0.204238
vt 0.405312 0.191072
vt 0.408641 0.206991
vt 0.407360 0.187957
vt 0.408769 0.205928
vt 0.416019 0.196535
vt 0.417111 0.198175
vt 0.407707 0.197943
vt 0.410149 0.202380
vt 0.417345 0.201161
vt 0.410030 0.209245
vt 0.408411 0.211685
vt 0.408945 0.207149
vt 0.405958 0.206948
vt 0.406647 0.205539
vt 0.409162 0.210143
vt 0.405909 0.205440
vt 0.410211 0.204196
vt 0.409847 0.202682
vt 0.410089 0.203083
vt 0.406862 0.211753
vt 0.406502 0.211074
vt 0.408679 0.210619
vt 0.408460 0.210995
vt 0.407860 0.205338
vt 0.403266 0.204182
vt 0.406370 0.203382
vt 0.403542 0.203710
vt 0.411271 0.208568
vt 0.408084 0.214006
vt 0.407077 0.199022
vt 0.406510 0.199161
vt 0.404598 0.200926
vt 0.405521 0.212711
vt 0.407470 0.204388
vt 0.410058 0.204620
vt 0.407892 0.210872
vt 0.410637 0.210258
vt 0.410135 0.211073
vt 0.405968 0.207634
vt 0.405803 0.205528
vt 0.407049 0.210937
vt 0.409178 0.213459
vt 0.407741 0.219767
vt 0.410182 0.226273
vt 0.416169 0.202573
vt 0.410242 0.203577
vt 0.416821 0.201638
vt 0.409867 0.198790
vt 0.416510 0.197664
vt 0.408071 0.213647
vt 0.409309 0.229440
vt 0.407745 0.212893
vt 0.408398 0.228145
vt 0.407272 0.213782
vt 0.409454 0.213413
vt 0.410673 0.228972
vt 0.406996 0.213829
vt 0.408508 0.230571
vt 0.408234 0.229623
vt 0.406142 0.211855
vt 0.405953 0.210654
vt 0.407863 0.214398
vt 0.405933 0.208903
vt 0.412495 0.207792
vt 0.410830 0.200336
vt 0.406402 0.201087
vt 0.412747 0.209503
vt 0.412749 0.213570
vt 0.407530 0.197588
vt 0.408364 0.196619
vt 0.408216 0.206346
vt 0.413198 0.205502
vt 0.412447 0.195927
vt 0.407236 0.188677
vt 0.408704 0.207417
vt 0.405865 0.195830
vt 0.406709 0.206601
vt 0.405635 0.208273
vt 0.406082 0.209445
vt 0.405458 0.209412
vt 0.407427 0.214748
vt 0.406740 0.205990
vt 0.409229 0.215115
vt 0.408224 0.203401
vt 0.408305 0.203330
vt 0.407949 0.205598
vt 0.409745 0.204882
vt 0.409100 0.209063
vt 0.410684 0.206072
vt 0.410937 0.207044
vt 0.410311 0.208580
vt 0.406570 0.211784
vt 0.405742 0.201219
vt 0.408245 0.208927
vt 0.406856 0.200192
vt 0.409119 0.205343
vt 0.415761 0.202642
vt 0.407475 0.204046
vt 0.416678 0.199811
vt 0.407114 0.199444
vt 0.416573 0.198478
vt 0.415793 0.197786
vt 0.407127 0.199254
vn -0.6509 0.6402 -0.4080
vn -0.4515 0.6402 -0.6215
vn -0.9994 0.0000 0.0343
vn -0.8473 0.0000 -0.5312
vn -0.5878 0.0000 -0.8090
vn -0.1438 0.0000 -0.9896
vn 0.5878 0.0000 -0.8090
vn 0.3260 0.8321 -0.4488
vn 0.3260 0.8320 -0.4488
vn 0.7867 -0.3714 -0.4932
vn -0.4891 -0.5547 -0.6731
vn 0.0000 -1.0000 -0.0000
vn 0.8830 -0.3714 0.2869
vn 0.8287 -0.0000 0.5597
vn 0.9511 0.0000 0.3090
vn 0.9994 0.0000 0.0343
vn 0.8473 0.0000 -0.5312
vn -0.0000 0.4472 0.8944
vn 0.0000 0.0000 1.0000
vn -0.8287 -0.0000 0.5597
vn -0.9023 0.3162 0.2932
vn 0.0000 -0.9487 0.3162
vn 0.9023 0.3162 0.2932
vn 0.0000 1.0000 0.0000
vn -0.9511 -0.0000 0.3090
usemtl Steel_-_Satin.023
s 1
f 1/1/1 2/2/1 3/3/1
f 3/3/1 2/2/1 4/4/1
f 4/4/1 2/2/1 5/5/1
f 4/4/1 5/5/1 6/6/1
f 6/6/1 5/5/1 7/7/1
f 4/8/2 8/9/2 3/10/2
f 3/10/2 8/9/2 9/11/2
f 9/11/2 8/9/2 10/12/2
f 10/12/2 8/9/2 11/13/2
f 12/14/3 2/15/3 13/16/3
f 13/16/3 2/15/3 1/17/3
f 13/16/3 1/17/3 14/18/3
f 3/19/4 15/20/4 1/21/4
f 1/21/4 15/20/4 14/22/4
f 3/23/5 9/24/5 15/25/5
f 15/25/5 9/24/5 16/26/5
f 16/27/6 9/28/6 17/29/6
f 17/29/6 9/28/6 10/30/6
f 17/29/6 10/30/6 18/31/6
f 10/32/7 11/33/7 18/34/7
f 18/34/7 11/33/7 19/35/7
f 19/35/7 11/33/7 20/36/7
f 11/37/8 8/38/8 20/39/8
f 20/39/8 8/38/8 21/40/8
f 20/39/8 21/40/8 22/41/9
f 19/42/10 23/43/10 18/44/10
f 18/44/10 23/43/10 24/45/10
f 18/44/10 24/45/10 17/46/10
f 25/47/10 26/48/10 19/42/10
f 19/42/10 26/48/10 23/43/10
f 17/49/11 24/50/11 16/51/11
f 16/51/11 24/50/11 13/52/11
f 16/51/11 13/52/11 15/53/11
f 15/53/11 13/52/11 14/54/11
f 24/55/12 23/56/12 13/57/12
f 13/57/12 23/56/12 12/58/12
f 12/58/12 23/56/12 27/59/12
f 27/59/12 23/56/12 28/60/12
f 28/61/13 23/62/13 29/63/13
f 29/63/13 23/62/13 26/64/13
f 29/63/13 26/64/13 30/65/13
f 29/63/13 31/66/13 28/61/13
f 28/61/13 31/66/13 32/67/13
f 31/68/14 29/69/14 33/70/14
f 33/70/14 29/69/14 34/71/14
f 34/72/15 29/73/15 35/74/15
f 35/74/15 29/73/15 30/75/15
f 35/74/15 30/75/15 36/76/15
f 25/77/16 37/78/16 26/79/16
f 26/79/16 37/78/16 36/80/16
f 26/79/16 36/80/16 30/81/16
f 19/82/17 20/83/17 25/84/17
f 25/84/17 20/83/17 22/85/17
f 25/84/17 22/85/17 37/86/17
f 7/87/18 38/88/18 6/89/18
f 6/89/18 38/88/18 39/90/18
f 6/89/18 39/90/18 34/91/18
f 34/91/18 39/90/18 33/92/18
f 33/92/18 39/90/18 40/93/18
f 34/91/18 35/94/18 6/89/18
f 6/89/18 35/94/18 41/95/18
f 32/96/19 31/97/19 42/98/19
f 42/98/19 31/97/19 40/99/19
f 40/99/19 31/97/19 33/100/19
f 39/101/20 43/102/20 40/103/20
f 40/103/20 43/102/20 42/104/20
f 7/105/21 5/106/21 38/107/21
f 32/108/22 42/109/22 28/110/22
f 28/110/22 42/109/22 43/111/22
f 28/110/22 43/111/22 27/112/22
f 35/113/23 36/114/23 41/115/23
f 41/115/23 36/114/23 37/116/23
f 41/115/23 37/116/23 22/117/23
f 22/117/23 21/118/23 41/115/23
f 6/119/24 41/120/24 4/121/24
f 4/121/24 41/120/24 21/122/24
f 4/121/24 21/122/24 8/123/24
f 2/124/25 12/125/25 5/126/25
f 5/126/25 12/125/25 27/127/25
f 5/126/25 27/127/25 38/128/25
f 38/128/25 27/127/25 39/129/25
f 39/129/25 27/127/25 43/130/25
