# Blender v2.90.1 OBJ File: ''
# www.blender.org
mtllib Rock 8 v1.mtl
o Rock_8_v1
v -5.563517 -8.960669 -11.061307
v -7.583405 -5.993858 -13.081194
v 5.839657 -8.960668 -14.862365
v 6.883040 -5.993857 -17.903343
v -9.935225 -8.960670 2.053818
v -12.490204 -5.993861 1.639202
v -12.490204 -5.993862 11.215745
v -9.935225 -8.960671 8.660766
v 4.229085 -5.993862 11.215745
v 4.120690 -8.960671 8.660766
v 4.414039 -6.116212 11.110379
v 18.182186 -6.116210 -0.764672
v 15.168970 -8.960670 -0.868395
v 18.239666 -5.993860 -0.868406
v -10.973608 4.116775 1.885314
v -6.384431 4.116777 -11.882217
v -12.011992 -2.805780 10.737535
v -10.973608 4.116774 7.699151
v 3.147373 -2.805780 10.737535
v 3.112053 5.350411 7.157697
v -6.935225 11.039329 4.660769
v 0.025229 11.039329 4.660769
v 3.586810 11.039330 1.588899
v 14.815681 5.350413 -2.936704
v 14.444799 6.094649 -3.291772
v -6.935225 11.039330 2.540654
v -6.354086 11.039330 0.797238
v 1.347559 11.039330 -1.769977
v 6.142548 6.094651 -15.745149
v -5.133437 6.094650 -11.986486
vt 0.550813 -0.501191
vt 0.842688 -0.210626
vt -0.519619 0.045599
vt -0.515298 0.483049
vt -0.260941 0.278581
vt 0.032898 -1.072286
vt 0.094493 0.486631
vt 0.424298 -1.029581
vt 1.080498 -0.195767
vt 0.825000 0.195767
vt -0.591431 -0.195767
vt -0.580591 0.195767
vt -0.609926 -0.179620
vt 0.121749 -0.492290
vt 0.334656 -0.181731
vt -0.897684 1.013215
vt -0.483391 1.026365
vt -0.195767 -0.420167
vt -0.195767 -1.080861
vt 0.195767 -0.378705
vt 0.195767 -1.336359
vt 0.559499 0.795355
vt 0.278318 1.130495
vt -0.111435 -0.746890
vt -0.538414 -0.746889
vt -0.525779 -0.758321
vt -0.772323 -1.218810
vt 0.250020 -1.244721
vt -0.695691 0.330963
vt 0.321691 0.204734
vt -0.711187 -1.212531
vt -0.388813 -1.164710
vt -0.711187 -0.254877
vt 0.311187 -0.860872
vt 0.311187 -0.279488
vt 0.711187 0.966431
vt 0.388813 0.858260
vt 0.711187 -0.705498
vt 0.388813 -0.657677
vt 1.200000 -1.204689
vt 1.200000 -0.543994
vt -0.205591 -1.204689
vt 0.762829 0.767518
vt -0.377488 1.147624
vt -1.310420 -0.251773
vt 0.756000 -1.032677
vt 0.756000 0.483260
vt 0.000000 -0.928838
vt -0.134723 0.479728
vt -0.756000 -0.525000
vt -0.756000 0.171045
vt -0.500826 -0.134185
vt 0.114902 -0.453792
vt -0.242745 0.259016
vt 0.962975 0.838295
vt 0.884811 0.883744
vt 0.755630 -0.315521
vt 1.063811 1.476353
vt 0.399406 -0.326872
vt 1.052980 1.489507
vt -0.147218 1.569910
vt -0.409188 0.046726
vt 0.739372 -0.333919
vt -0.900000 -0.804689
vt -0.203955 -0.804689
vt -0.900000 -0.592678
vt -0.841886 -0.418336
vt 0.152203 -0.497502
vt -0.071722 -0.161614
vt -0.390246 -0.581703
vt 0.797980 -0.081917
vt -0.601574 -0.237750
vt 0.014461 1.193324
vt 0.291270 0.782753
vt -0.826461 0.378487
vt -0.118760 -0.720359
vt -0.882185 -0.996478
vt -0.098295 0.451569
vt -0.332305 0.440730
vt 0.258971 -0.877339
vt -0.572692 -0.990448
vt 0.228530 -1.058572
vt -0.400719 -0.984700
vt 0.400719 -0.680861
vt -0.400719 -0.403316
vt 0.400719 -0.468850
vt -0.656794 -1.117605
vt 0.360588 -0.991376
vt -0.732104 0.405431
vt 0.495620 0.327472
vt 0.554320 -0.859671
vt 0.775900 -0.619281
vt 0.574413 1.418125
vt -0.401278 -0.371909
vt -0.628398 1.160002
vt -0.481101 -0.329442
vn -0.2396 -0.6526 -0.7189
vn -0.7189 -0.6526 -0.2396
vn 0.0000 -0.6526 0.7577
vn 0.5302 -0.5840 0.6147
vn -0.7577 -0.6526 -0.0000
vn 0.6305 -0.6526 -0.4203
vn -0.9382 0.1483 -0.3127
vn -0.9889 0.1483 0.0000
vn 0.0000 0.1483 0.9889
vn 0.0000 -1.0000 -0.0000
vn 0.0000 0.4019 0.9157
vn 0.5384 0.5661 0.6242
vn 0.6193 0.3178 0.7180
vn 0.0000 1.0000 0.0000
vn 0.3229 0.9216 -0.2153
vn -0.1227 0.9216 -0.3682
vn -0.8194 0.5039 -0.2731
vn -0.8638 0.5039 0.0000
vn -0.3127 0.1483 -0.9382
vn 0.8228 0.1483 -0.5486
usemtl Steel_-_Satin.004
s 1
f 1/1/1 2/2/1 3/3/1
f 3/3/1 2/2/1 4/4/1
f 1/5/2 5/6/2 2/7/2
f 2/7/2 5/6/2 6/8/2
f 7/9/3 8/10/3 9/11/3
f 9/11/3 8/10/3 10/12/3
f 9/11/3 10/12/3 11/13/3
f 11/14/4 10/15/4 12/16/4
f 12/16/4 10/15/4 13/17/4
f 5/18/5 8/19/5 6/20/5
f 6/20/5 8/19/5 7/21/5
f 3/22/6 4/23/6 13/24/6
f 13/24/6 4/23/6 14/25/6
f 13/24/6 14/25/6 12/26/6
f 6/27/7 15/28/7 2/29/7
f 2/29/7 15/28/7 16/30/7
f 7/31/8 17/32/8 6/33/8
f 6/33/8 17/32/8 18/34/8
f 6/33/8 18/34/8 15/35/8
f 9/36/9 19/37/9 7/38/9
f 7/38/9 19/37/9 17/39/9
f 8/40/10 5/41/10 10/42/10
f 10/42/10 5/41/10 1/43/10
f 10/42/10 1/43/10 3/44/10
f 3/44/10 13/45/10 10/42/10
f 17/46/11 19/47/11 18/48/11
f 18/48/11 19/47/11 20/49/11
f 18/48/11 20/49/11 21/50/11
f 21/50/11 20/49/11 22/51/11
f 22/52/12 20/53/12 23/54/12
f 23/54/12 20/53/12 24/55/12
f 23/54/12 24/55/12 25/56/12
f 11/57/13 12/58/13 19/59/13
f 19/59/13 12/58/13 14/60/13
f 19/59/13 14/60/13 24/61/13
f 24/61/13 20/62/13 19/59/13
f 19/59/13 9/63/13 11/57/13
f 21/64/14 22/65/14 26/66/14
f 26/66/14 22/65/14 27/67/14
f 27/67/14 22/65/14 23/68/14
f 27/67/14 23/68/14 28/69/14
f 23/70/15 25/71/15 28/72/15
f 28/72/15 25/71/15 29/73/15
f 29/74/16 30/75/16 28/76/16
f 28/76/16 30/75/16 27/77/16
f 30/78/17 16/79/17 27/80/17
f 27/80/17 16/79/17 15/81/17
f 27/80/17 15/81/17 26/82/17
f 18/83/18 21/84/18 15/85/18
f 15/85/18 21/84/18 26/86/18
f 2/87/19 16/88/19 4/89/19
f 4/89/19 16/88/19 29/90/19
f 29/90/19 16/88/19 30/91/19
f 14/92/20 4/93/20 24/94/20
f 24/94/20 4/93/20 29/95/20
f 24/94/20 29/95/20 25/96/20
