# Blender v2.90.1 OBJ File: 'w1 EXPORT FILE.blend'
# www.blender.org
mtllib Rock 2 G.mtl
g Rock_2_G_Rock_2_v5.001
v 5.925939 -0.259041 -2.086790
v 1.541557 -1.135905 -3.949793
v 6.923812 2.370674 -3.400314
v 1.424718 1.270855 -5.737001
v -0.851963 -1.614624 -3.949793
v -1.553949 0.675119 -5.737001
v -3.075712 -2.059371 -3.331299
v -4.704501 0.045008 -4.860747
v -4.703905 -2.385001 -0.425520
v -6.995777 -0.413247 -0.771583
v -6.480257 -0.310156 2.675005
v -4.384963 -2.321213 1.706829
v -0.942812 0.797332 7.114686
v 0.130943 -1.418032 5.327477
v 4.861670 1.958244 7.114686
v 4.471866 -0.549866 5.327477
v 8.470448 2.680009 2.382931
v 7.016479 -0.040942 1.991055
v 1.015790 3.315438 -5.737001
v -1.962892 2.719701 -5.737001
v -5.113429 2.089605 -4.860747
v -7.404706 1.631335 -0.771583
v -6.889170 1.734456 2.675005
v -1.351726 2.841944 7.114686
v -1.922218 4.550428 -2.758304
v 0.081124 4.951106 -2.758304
v 3.722355 5.679348 -1.211102
v 6.514899 4.415256 -3.400314
v 4.508846 5.836637 1.729811
v 8.061504 4.724576 2.382931
v 2.673710 5.469619 4.136005
v 4.452743 4.002811 7.114686
v -0.691546 4.796571 4.136005
v -4.526390 4.029606 1.061379
v -4.714301 3.992030 -0.194791
v -3.528174 4.229252 -2.311665
vt 0.407641 0.551357
vt 0.408168 0.549832
vt 0.408594 0.550281
vt 0.407948 0.552151
vt 0.408240 0.551275
vt 0.407699 0.551247
vt 0.407771 0.550260
vt 0.408288 0.550611
vt 0.408057 0.552532
vt 0.407600 0.552366
vt 0.407828 0.550436
vt 0.408239 0.550993
vt 0.407973 0.549922
vt 0.408370 0.550827
vt 0.408255 0.551322
vt 0.407749 0.550893
vt 0.408348 0.551549
vt 0.407835 0.551834
vt 0.407796 0.550827
vt 0.408114 0.550651
vt 0.408458 0.550919
vt 0.408497 0.551927
vt 0.407779 0.551674
vt 0.407948 0.550740
vt 0.407813 0.552067
vt 0.407534 0.550125
vt 0.408070 0.550015
vt 0.408255 0.551301
vt 0.408183 0.551615
vt 0.407578 0.552064
vt 0.407288 0.551222
vt 0.408148 0.550586
vt 0.408617 0.552295
vt 0.408089 0.552627
vt 0.407652 0.551237
vt 0.407987 0.550289
vt 0.407646 0.552426
vt 0.407327 0.552450
vt 0.407287 0.551296
vt 0.407606 0.551272
vt 0.408327 0.551833
vt 0.407920 0.552251
vt 0.407739 0.551308
vt 0.408182 0.551075
vt 0.407689 0.553650
vt 0.407369 0.553674
vt 0.407287 0.551296
vt 0.407606 0.551272
vt 0.407675 0.553257
vt 0.407356 0.553280
vt 0.407287 0.551296
vt 0.407606 0.551272
vt 0.407676 0.553283
vt 0.407357 0.553307
vt 0.407287 0.551296
vt 0.407606 0.551272
vt 0.408504 0.549826
vt 0.408687 0.551253
vt 0.407904 0.549244
vt 0.408342 0.553014
vt 0.408440 0.551622
vt 0.408191 0.552462
vt 0.407835 0.551640
vt 0.408189 0.551042
vt 0.407542 0.552966
vt 0.407357 0.552283
vt 0.408040 0.553280
vt 0.407256 0.551496
vt 0.407347 0.549912
vt 0.407972 0.551750
vt 0.407338 0.551394
vt 0.407302 0.550365
vt 0.408201 0.550869
vt 0.408258 0.551595
vt 0.407442 0.552441
vt 0.407398 0.551189
vt 0.407814 0.550759
vt 0.408147 0.551997
vt 0.407661 0.550380
vt 0.408103 0.550746
vt 0.408348 0.550875
vt 0.408051 0.551882
vt 0.407862 0.551771
vt 0.407826 0.550570
vt 0.408437 0.551527
vt 0.408086 0.551776
vt 0.407724 0.550807
vt 0.408402 0.550326
vt 0.408098 0.549756
vt 0.408494 0.551200
vt 0.408027 0.552804
vt 0.407595 0.552384
vt 0.407774 0.551491
vt 0.407511 0.550117
vt 0.407882 0.549501
vt 0.408233 0.551339
vt 0.407466 0.550420
vt 0.407910 0.549627
vt 0.407428 0.551088
vt 0.407703 0.551189
vt 0.408255 0.551077
vt 0.408115 0.553000
vt 0.407622 0.552305
vt 0.408429 0.552322
vt 0.407565 0.549908
vt 0.407674 0.553232
vt 0.407355 0.553256
vt 0.407287 0.551296
vt 0.407606 0.551272
vt 0.407644 0.552374
vt 0.407325 0.552398
vt 0.407287 0.551296
vt 0.407606 0.551272
vt 0.407641 0.552277
vt 0.407322 0.552301
vt 0.407287 0.551296
vt 0.407606 0.551272
vt 0.407675 0.553257
vt 0.407356 0.553280
vt 0.407287 0.551296
vt 0.407606 0.551272
vt 0.407660 0.552831
vt 0.407341 0.552855
vt 0.407287 0.551296
vt 0.407606 0.551272
vn -0.3672 -0.6853 0.6289
vn -0.1682 0.8408 -0.5145
vn 0.4194 -0.5280 -0.7385
vn -0.3009 0.8143 -0.4964
vn -0.6578 -0.7435 0.1206
vn -0.5634 -0.7246 -0.3969
vn 0.0259 0.8796 -0.4749
vn 0.8745 -0.4370 -0.2105
vn -0.4800 0.7785 0.4045
vn -0.9694 -0.1939 0.1508
vn 0.1177 -0.5883 -0.8000
vn -0.6060 -0.1212 0.7861
vn 0.9460 0.1892 -0.2631
vn 0.3771 0.0754 -0.9231
vn 0.1961 -0.9806 -0.0000
vn -0.0887 -0.6296 -0.7718
vn 0.7369 -0.4645 0.4912
vn 0.2301 0.9205 0.3159
vn 0.3186 0.9382 -0.1354
vn -0.6669 0.7411 0.0776
vn -0.6062 0.7532 -0.2553
vn -0.1961 0.9806 0.0000
vn 0.1177 -0.5883 0.8000
vn -0.1682 0.8408 0.5145
vn 0.0000 -0.0000 1.0000
vn -0.2580 -0.0516 -0.9648
vn 0.0000 0.0000 -1.0000
vn 0.7740 0.1548 0.6139
vn -0.8514 -0.1703 -0.4961
usemtl Steel_-_Satin.081
s 1
f 12/1/1 14/2/1 13/3/1 11/4/1
f 26/5/2 19/6/2 20/7/2 25/8/2
f 2/9/3 4/10/3 3/11/3 1/12/3
f 21/13/4 36/14/4 25/15/4 20/16/4
f 11/17/5 10/18/5 9/19/5 12/20/5
f 9/21/6 10/22/6 8/23/6 7/24/6
f 28/25/7 19/26/7 26/27/7 27/28/7
f 18/29/8 1/30/8 3/31/8 17/32/8
f 24/33/9 33/34/9 34/35/9 23/36/9
f 11/37/10 23/38/10 22/39/10 10/40/10
f 5/41/11 6/42/11 4/43/11 2/44/11
f 13/45/12 24/46/12 23/47/12 11/48/12
f 3/49/13 28/50/13 30/51/13 17/52/13
f 4/53/14 19/54/14 28/55/14 3/56/14
f 16/57/15 14/58/15 18/59/15
f 18/59/15 14/58/15 12/60/15
f 7/61/16 8/62/16 6/63/16 5/64/16
f 7/65/15 5/66/15 9/67/15
f 9/67/15 5/66/15 2/68/15
f 9/67/15 2/68/15 1/69/15
f 1/69/15 18/59/15 12/60/15 9/67/15
f 16/70/17 18/71/17 17/72/17 15/73/17
f 32/74/18 30/75/18 29/76/18 31/77/18
f 30/78/19 28/55/19 27/79/19 29/80/19
f 23/81/20 34/82/20 35/83/20 22/84/20
f 35/85/21 36/86/21 21/87/21 22/88/21
f 34/89/22 33/90/22 29/91/22 27/92/22
f 14/93/23 16/94/23 15/95/23 13/96/23
f 25/97/22 35/98/22 26/99/22
f 26/99/22 35/98/22 34/89/22
f 26/99/22 34/89/22 27/92/22
f 33/100/24 24/101/24 32/102/24 31/103/24
f 29/91/22 33/90/22 31/104/22
f 25/97/22 36/105/22 35/98/22
f 15/106/25 32/107/25 24/108/25 13/109/25
f 8/110/26 21/111/26 20/112/26 6/113/26
f 6/114/27 20/115/27 19/116/27 4/117/27
f 17/118/28 30/119/28 32/120/28 15/121/28
f 10/122/29 22/123/29 21/124/29 8/125/29
