# Blender v2.90.1 OBJ File: 'w1 EXPORT FILE.blend'
# www.blender.org
mtllib Rock 1 G.mtl
g Rock_1_G_Rock_1_v4.001
v -3.975219 8.591307 -0.582923
v -1.865503 8.591307 -1.715599
v -5.130213 5.903607 -2.329923
v -1.159011 5.412025 -4.894924
v -4.560198 3.338607 -4.894925
v -3.975219 8.591307 0.460574
v -5.130213 5.903606 1.623655
v -1.851928 8.591307 1.463684
v -0.580263 2.868567 5.702719
v -3.432450 0.749028 5.702719
v -3.975706 0.708323 5.471997
v 1.455396 8.591307 -1.715599
v 1.455396 8.591307 1.463684
v 5.482468 4.564191 4.446698
v 5.482468 2.868567 5.702719
v -4.408599 2.656606 -4.894925
v -3.843426 0.113192 2.099520
v -3.843426 0.113203 -3.623176
v 5.482468 4.564193 -4.894924
v 5.482468 2.656606 -4.894925
v 4.634721 5.412025 -4.894924
v 5.482468 2.232690 -4.682972
v 5.482468 2.232688 5.702719
v 3.108607 0.749028 5.702719
v 2.091223 0.113192 2.099520
v 2.091223 0.113203 -3.623176
vt 0.407261 0.540020
vt 0.407412 0.539367
vt 0.408694 0.541181
vt 0.408358 0.541666
vt 0.408194 0.540390
vt 0.407222 0.540557
vt 0.407924 0.539545
vt 0.407023 0.540246
vt 0.407689 0.539933
vt 0.406913 0.540964
vt 0.407220 0.540245
vt 0.408536 0.539077
vt 0.408415 0.540983
vt 0.407833 0.541823
vt 0.408763 0.540656
vt 0.408800 0.540474
vt 0.408097 0.542043
vt 0.406935 0.540300
vt 0.407037 0.540100
vt 0.408433 0.541558
vt 0.407111 0.540196
vt 0.407294 0.539931
vt 0.407721 0.540050
vt 0.407159 0.540855
vt 0.407733 0.539959
vt 0.408821 0.539944
vt 0.407800 0.541415
vt 0.407148 0.540802
vt 0.408288 0.538705
vt 0.408623 0.540398
vt 0.408461 0.541517
vt 0.408158 0.539701
vt 0.408338 0.541695
vt 0.407800 0.539242
vt 0.408897 0.540889
vt 0.408686 0.541193
vt 0.407147 0.541215
vt 0.407057 0.541124
vt 0.406769 0.540375
vt 0.407802 0.540172
vt 0.407652 0.541485
vt 0.407043 0.541099
vt 0.408195 0.539437
vt 0.408698 0.539978
vt 0.408483 0.541193
vt 0.408098 0.540631
vt 0.407446 0.541169
vt 0.407323 0.540985
vt 0.407634 0.539934
vt 0.407520 0.541775
vt 0.407556 0.541605
vt 0.408059 0.541425
vt 0.408136 0.541559
vt 0.407730 0.542132
vt 0.407983 0.539126
vt 0.408752 0.540278
vt 0.407945 0.540167
vt 0.408769 0.541073
vt 0.408657 0.541235
vt 0.408319 0.539340
vt 0.407524 0.539206
vt 0.408744 0.541036
vt 0.408109 0.540633
vt 0.407549 0.541441
vt 0.408497 0.541027
vt 0.408062 0.541848
vt 0.407799 0.539981
vt 0.406983 0.539985
vt 0.406900 0.540105
vt 0.406798 0.540252
vt 0.407291 0.539541
vt 0.408018 0.542082
vt 0.407926 0.539871
vt 0.408598 0.540880
vt 0.408010 0.538945
vt 0.408707 0.539991
vt 0.407698 0.541445
vt 0.407001 0.540399
vn 1.0000 0.0000 0.0000
vn -0.3737 0.6130 -0.6961
vn -0.3703 0.4984 0.7839
vn 0.0000 0.5952 0.8036
vn 0.0000 0.0000 -1.0000
vn 0.0000 1.0000 -0.0000
vn 0.0000 0.7071 -0.7071
vn -0.9762 -0.2169 -0.0000
vn -0.9762 -0.2170 0.0000
vn 0.7071 0.7071 0.0000
vn 0.0000 -0.9848 0.1738
vn -0.9188 0.3948 0.0000
vn 0.0000 -0.0000 1.0000
vn 0.0000 -0.4472 -0.8944
vn 0.5300 -0.8480 -0.0000
vn 0.0000 -1.0000 -0.0000
usemtl Steel_-_Satin.082
s 1
f 14/1/1 15/2/1 20/3/1 19/4/1
f 3/5/2 4/6/2 5/7/2
f 6/8/3 7/9/3 8/10/3
f 9/11/4 14/12/4 13/13/4 8/14/4
f 10/15/3 7/9/3 11/16/3
f 20/17/5 16/18/5 5/19/5 19/20/5
f 1/21/6 6/22/6 8/23/6 2/24/6
f 12/25/7 21/26/7 4/27/7 2/28/7
f 14/12/4 9/11/4 15/29/4
f 3/30/8 5/31/9 7/32/8
f 7/32/8 5/31/9 16/33/9
f 14/34/10 19/35/10 21/36/10 13/37/10
f 17/38/8 11/39/8 7/32/8
f 4/40/5 19/20/5 5/19/5
f 25/41/11 24/42/11 10/43/11 17/44/11
f 4/40/5 21/45/5 19/20/5
f 7/46/12 6/47/12 1/48/12 3/49/12
f 12/50/10 13/37/10 21/36/10
f 2/51/2 4/6/2 3/5/2 1/52/2
f 7/9/3 10/15/3 9/53/3 8/10/3
f 16/33/9 18/54/8 17/38/8 7/32/8
f 10/55/13 24/56/13 9/57/13
f 9/57/13 24/56/13 23/58/13
f 9/57/13 23/58/13 15/59/13
f 11/60/11 17/44/11 10/43/11
f 15/2/1 23/61/1 22/62/1 20/3/1
f 8/23/6 13/63/6 12/64/6 2/24/6
f 18/65/14 16/66/14 26/67/14
f 26/67/14 16/66/14 22/68/14
f 22/68/14 16/66/14 20/69/14
f 23/70/15 24/71/15 22/72/15
f 22/72/15 24/71/15 25/73/15
f 22/72/15 25/73/15 26/74/15
f 18/75/16 26/76/16 25/77/16 17/78/16
