# Blender v2.90.1 OBJ File: ''
# www.blender.org
mtllib Tall Rock v1.mtl
o Tall_Rock_v1
v 90.277618 358.553619 -25.253443
v 98.831367 358.553619 -8.145947
v 97.795631 348.591675 -34.526970
v 110.049034 348.591675 -10.020164
v 97.915810 358.553619 -1.279268
v 107.319389 348.591675 10.452125
v 62.815109 358.553619 -5.959361
v -34.995720 358.553619 16.612371
v 62.115952 348.562286 4.455904
v -29.824053 348.562286 25.672829
v 62.139389 348.553619 4.459393
v -29.844381 348.553619 25.686417
v -86.609322 348.553619 -17.197920
v -86.602715 348.591675 -17.160297
v -55.850273 348.553619 -19.869909
v -74.909813 358.553619 -8.176578
v -50.196098 358.553619 -10.323419
v -57.393593 358.553619 31.110664
v -54.439499 348.562286 41.606571
v -54.446175 348.565918 41.606392
v -74.439499 358.553619 31.110664
v -85.311058 348.591675 41.579327
v -85.313309 348.565918 41.606392
v -85.311058 348.591675 -2.291202
v -74.439499 358.553619 -2.762510
v -45.850273 348.553619 -34.869911
v -39.732445 358.553619 -26.018896
v 107.317894 348.562286 10.482829
v 5.918342 348.556091 -46.813980
v 5.911537 348.553619 -46.814945
v 5.774576 358.553619 -36.520519
v 97.779694 348.556091 -34.565800
v -54.439499 118.553604 53.022827
v -105.436783 118.553604 53.022827
v -117.247749 -16.446388 -0.906723
v -117.247749 -16.446398 53.022804
v -118.422874 -16.446386 -14.434387
v -55.850273 -16.446384 -19.869968
v -45.850273 -16.446383 -34.869972
v 19.149729 133.553635 -49.869946
v 19.149729 -16.446381 -49.869972
v -2.437819 -16.446392 19.361767
v -54.439499 -16.446398 53.022804
v 35.586037 -16.446390 10.587029
v 133.450516 -16.446383 -34.629868
v 143.002457 -16.446386 -15.525988
v 137.705276 -16.446392 24.202929
v 125.997902 118.553612 22.641968
v 35.586037 118.553612 10.587050
v -2.437819 118.553612 19.361788
v 117.730202 133.553619 -36.725883
vt -0.560433 -0.611290
vt 0.101133 -2.405909
vt 0.652505 0.361527
vt 1.600211 -2.209300
vt -0.792309 -0.523666
vt -0.860082 -1.213088
vt 0.707851 -0.335493
vt 0.505794 -2.390932
vt 4.526280 2.220994
vt -5.016528 -0.893368
vt 4.677258 0.783935
vt -4.292768 -2.143496
vt 4.679735 0.783453
vt -4.294561 -2.145371
vt -7.259078 -0.179358
vt -7.258091 -0.184659
vt -4.194627 0.197111
vt -6.007263 -1.450418
vt -3.545095 -1.147939
vt -5.167552 -3.665593
vt -7.153730 -5.447095
vt -4.247135 -4.778912
vt -6.429960 -6.736798
vt -6.430720 -6.736776
vt -4.349871 0.724422
vt -6.054461 0.724422
vt -4.055129 -0.724422
vt -7.141617 -0.720685
vt -7.141842 -0.724422
vt -0.737277 -2.844276
vt 0.737277 -1.797410
vt -0.737277 1.542777
vt 0.737277 1.589908
vt -0.736440 -0.036663
vt -0.641046 -1.526121
vt 0.798772 -0.936574
vt 0.833506 -1.478909
vt -2.121664 -2.842418
vt -1.047422 -3.880230
vt -1.352958 -1.211746
vt -0.243075 -2.173952
vt 3.721353 0.046349
vt 3.526336 -1.385398
vt 7.203553 -0.597006
vt 8.011159 -2.209676
vt 8.010640 -2.213897
vt -1.610487 0.217850
vt -1.611205 0.217983
vt -1.405185 -1.202403
vt -6.661289 -1.430147
vt -5.845028 -2.651376
vt -3.751458 1.426898
vt -3.893877 -0.001032
vt 5.358885 -0.272194
vt 5.360010 -0.277581
vt 4.486707 -1.564023
vt 23.029181 0.000000
vt 23.029545 0.000668
vt 0.000000 0.000000
vt 23.029545 3.087381
vt 0.000000 5.099728
vt -1.002586 1.141647
vt -1.000000 1.144354
vt -24.091677 -0.000000
vt -37.643246 5.392953
vt -37.643246 -0.000000
vt -1.000000 5.531407
vt 36.500000 -1.496315
vt 36.500000 -0.003805
vt -0.143244 -1.357861
vt -0.143244 0.000000
vt 36.496181 0.000000
vt 1.000000 0.000000
vt 37.500000 0.000000
vt 1.000000 3.087489
vt 37.500000 6.280825
vt 1.802776 36.500000
vt 0.000000 36.500000
vt 1.802776 0.000000
vt 0.000000 0.000000
vt 6.670832 36.500000
vt 1.358612 36.500000
vt 6.670832 -0.000000
vt -0.000000 15.000000
vt 0.000000 0.000000
vt -10.155954 -1.857316
vt -10.108923 -2.398723
vt -7.684582 -1.642632
vt -6.164545 -4.336211
vt 3.616538 -2.079037
vt -10.108923 -5.786040
vt -8.404332 -5.786040
vt 7.126608 -2.547047
vt 7.218164 -1.860379
vt 6.362789 -0.149629
vt -2.087515 0.977078
vt -6.638217 -0.073084
vt 14.507260 -1.231541
vt 8.250000 -0.687983
vt 14.389748 -2.584307
vt 2.908755 -4.611156
vt 8.108923 -7.977260
vt -0.893631 -3.733683
vt 7.250000 0.812017
vt 0.750000 2.312017
vt -10.680079 0.788007
vt -11.635273 -1.122381
vt -11.105554 -5.095272
vt 14.389748 -7.977260
vt 13.500000 0.000000
vt 13.500000 5.099728
vt 0.000000 0.000000
vt 0.000000 6.280825
vt -10.990756 3.571824
vt -10.989875 3.574188
vt -10.965443 8.131950
vt 12.066196 10.016454
vt 12.015567 0.895395
vt 36.497051 2.041631
vt 13.408324 3.000000
vt 36.500000 2.038567
vt 36.500000 -0.026779
vt -0.143244 -1.008050
vt -0.143244 3.000000
vt -11.316042 -4.398500
vt -11.504236 -7.324697
vt -11.315333 -4.400996
vt 11.826882 -3.239499
vt 11.429311 -9.421274
vt -0.000000 24.000000
vt 6.194546 24.000000
vt 0.000000 37.500000
vt 6.194546 37.500000
vt -36.500000 -2.812686
vt -13.500000 -0.000000
vt -36.500000 6.627442
vt -13.500000 3.902319
vt 0.000000 -0.000000
vt -0.000000 3.902319
vt -13.500000 0.544902
vt -0.000000 0.544902
vt -13.500000 9.666101
vt -0.000000 10.847198
vt 10.235958 -5.609856
vt 10.236207 -5.609170
vt -11.265488 -4.274327
vt 10.263659 3.658220
vt -11.236028 5.670918
vt 7.566373 15.000000
vt -2.378915 15.000000
vt 7.566373 -0.000000
vt -3.964859 -0.000000
vt 2.717351 36.496429
vt 2.713165 36.500000
vt 2.018338 14.914054
vt -0.026779 36.500000
vt 1.127828 -0.143244
vt -1.008050 -0.143244
vn 0.6043 0.7373 -0.3021
vn 0.6697 0.7373 0.0893
vn 0.1590 0.7071 0.6890
vn 0.1588 0.7062 0.6900
vn 0.1594 0.7090 0.6870
vn 0.1586 0.7056 0.6907
vn 0.1598 0.7104 0.6854
vn -0.0612 0.7071 -0.7045
vn -0.0612 0.7071 -0.7044
vn 0.3762 0.7217 0.5811
vn 0.3757 0.7218 0.5812
vn 0.3750 0.7220 0.5814
vn 0.0000 0.7244 0.6894
vn -0.0000 0.7246 0.6892
vn 0.0000 0.7245 0.6893
vn -0.6756 0.7373 0.0000
vn -0.6731 0.7373 0.0585
vn -0.5883 0.7071 -0.3922
vn -0.0915 0.7217 0.6862
vn -0.0915 0.7217 0.6861
vn -0.1591 0.7070 -0.6891
vn -0.1589 0.7071 -0.6890
vn -0.1590 0.7071 -0.6890
vn 0.0924 0.7149 -0.6931
vn 0.0924 0.7151 -0.6929
vn 0.0012 0.0496 0.9988
vn 0.0006 0.0496 0.9988
vn 0.0000 0.0496 0.9988
vn -0.9962 0.0872 0.0000
vn -0.9925 0.0872 0.0862
vn -0.9925 0.0872 0.0861
vn -0.0865 0.0000 -0.9962
vn -0.8321 0.0000 -0.5547
vn -0.2249 0.0000 -0.9744
vn 0.0000 1.0000 0.0000
vn 0.0000 -1.0000 -0.0000
vn 0.0000 -0.0000 1.0000
vn -0.1322 0.0413 0.9904
vn -0.1319 0.0415 0.9904
vn -0.1320 0.0416 0.9904
vn 0.9875 0.0871 0.1316
vn 0.9875 0.0872 0.1317
vn 0.5430 0.0416 0.8387
vn 0.5429 0.0416 0.8387
vn 0.5428 0.0417 0.8388
vn 0.5434 -0.0000 0.8395
vn 0.2249 -0.0000 0.9744
vn -0.1322 -0.0000 0.9912
vn 0.1295 0.0222 -0.9913
vn 0.1311 0.0222 -0.9911
vn 0.1321 0.0222 -0.9910
vn 0.1322 0.0000 -0.9912
vn 0.8912 0.0871 -0.4451
vn 0.8910 0.0872 -0.4455
usemtl Steel_-_Satin.005
s 1
f 1/1/1 2/2/1 3/3/1
f 3/3/1 2/2/1 4/4/1
f 2/5/2 5/6/2 4/7/2
f 4/7/2 5/6/2 6/8/2
f 7/9/3 8/10/3 9/11/4
f 9/11/4 8/10/3 10/12/5
f 9/11/4 10/12/5 11/13/6
f 11/13/6 10/12/5 12/14/7
f 13/15/8 14/16/9 15/17/8
f 15/17/8 14/16/9 16/18/8
f 15/17/8 16/18/8 17/19/8
f 8/20/10 18/21/10 10/22/10
f 10/22/10 18/21/10 19/23/11
f 19/23/11 18/21/10 20/24/12
f 18/25/13 21/26/13 20/27/13
f 20/27/13 21/26/13 22/28/14
f 20/27/13 22/28/14 23/29/15
f 22/30/16 21/31/16 24/32/16
f 24/32/16 21/31/16 25/33/16
f 14/34/17 24/35/17 16/36/17
f 16/36/17 24/35/17 25/37/17
f 15/38/18 17/39/18 26/40/18
f 26/40/18 17/39/18 27/41/18
f 7/42/19 9/43/19 5/44/19
f 5/44/19 9/43/19 6/45/20
f 6/45/20 9/43/19 28/46/20
f 29/47/21 30/48/22 31/49/23
f 31/49/23 30/48/22 26/50/23
f 31/49/23 26/50/23 27/51/23
f 29/52/24 31/53/24 32/54/24
f 32/54/24 31/53/24 3/55/25
f 3/55/25 31/53/24 1/56/24
f 19/57/26 20/58/27 33/59/28
f 33/59/28 20/58/27 23/60/28
f 33/59/28 23/60/28 34/61/28
f 23/62/29 22/63/29 34/64/29
f 34/64/29 22/63/29 35/65/29
f 34/64/29 35/65/29 36/66/29
f 22/63/29 24/67/29 35/65/29
f 24/68/30 14/69/30 35/70/30
f 35/70/30 14/69/30 37/71/30
f 37/71/30 14/69/30 13/72/31
f 15/73/32 38/74/32 13/75/32
f 13/75/32 38/74/32 37/76/32
f 15/77/33 26/78/33 38/79/33
f 38/79/33 26/78/33 39/80/33
f 26/81/34 30/82/34 39/83/34
f 39/83/34 30/82/34 40/84/34
f 39/83/34 40/84/34 41/85/34
f 16/86/35 25/87/35 17/88/35
f 17/88/35 25/87/35 8/89/35
f 17/88/35 8/89/35 7/90/35
f 25/87/35 21/91/35 8/89/35
f 8/89/35 21/91/35 18/92/35
f 5/93/35 2/94/35 7/90/35
f 7/90/35 2/94/35 1/95/35
f 7/90/35 1/95/35 31/96/35
f 31/96/35 27/97/35 7/90/35
f 7/90/35 27/97/35 17/88/35
f 37/98/36 38/99/36 35/100/36
f 35/100/36 38/99/36 42/101/36
f 35/100/36 42/101/36 43/102/36
f 42/101/36 38/99/36 44/103/36
f 44/103/36 38/99/36 39/104/36
f 44/103/36 39/104/36 41/105/36
f 41/105/36 45/106/36 44/103/36
f 44/103/36 45/106/36 46/107/36
f 44/103/36 46/107/36 47/108/36
f 43/102/36 36/109/36 35/100/36
f 33/110/37 34/111/37 43/112/37
f 43/112/37 34/111/37 36/113/37
f 9/114/38 11/115/39 28/116/40
f 28/116/40 11/115/39 48/117/40
f 48/117/40 11/115/39 49/118/40
f 28/119/41 48/120/42 6/121/41
f 6/121/41 48/120/42 4/122/42
f 4/122/42 48/120/42 46/123/42
f 46/123/42 48/120/42 47/124/42
f 10/125/43 19/126/44 12/127/45
f 12/127/45 19/126/44 50/128/44
f 50/128/44 19/126/44 33/129/44
f 50/130/46 33/131/46 42/132/46
f 42/132/46 33/131/46 43/133/46
f 12/134/47 50/135/47 11/136/47
f 11/136/47 50/135/47 49/137/47
f 49/137/47 50/135/47 42/138/47
f 49/137/47 42/138/47 44/139/47
f 49/140/48 44/141/48 48/142/48
f 48/142/48 44/141/48 47/143/48
f 30/144/49 29/145/50 40/146/51
f 40/146/51 29/145/50 32/147/51
f 40/146/51 32/147/51 51/148/51
f 40/149/52 51/150/52 41/151/52
f 41/151/52 51/150/52 45/152/52
f 32/153/53 3/154/54 51/155/54
f 51/155/54 3/154/54 4/156/54
f 51/155/54 4/156/54 45/157/54
f 45/157/54 4/156/54 46/158/54
